<svg width="344" height="612" viewBox="0 0 344 612" fill="none" xmlns="http://www.w3.org/2000/svg">
<path d="M63.776 55.8818H48.082V368.073H63.776V55.8818Z" fill="#5A4BB2"/>
<path d="M343.948 0H55.9278C25.1178 0 0.0507812 25.067 0.0507812 55.877V456.123C0.0507812 486.934 25.1168 512 55.9278 512H343.948V424.103H328.254V496.305H55.9268C33.7708 496.305 15.7438 478.28 15.7438 456.122C15.7438 433.964 33.7698 415.939 55.9268 415.939H343.947V0H343.948ZM328.253 400.246H63.7748V384.079H48.0808V400.811C35.4698 402.592 24.1938 408.584 15.7448 417.333V55.877C15.7448 36.406 29.6678 20.13 48.0808 16.47V39.867H63.7748V15.694H328.254V400.246H328.253Z" fill="#5A4BB2"/>
<path d="M55.9284 439.956V424.262C38.3594 424.262 24.0664 438.555 24.0664 456.124C24.0664 473.692 38.3594 487.986 55.9284 487.986V472.29C47.0134 472.29 39.7614 465.037 39.7614 456.123C39.7614 447.209 47.0144 439.956 55.9284 439.956Z" fill="#5A4BB2"/>
<path d="M79.7838 424.102H64.0898V488.145H79.7838V424.102Z" fill="#5A4BB2"/>
<path d="M320.085 424.259H87.9453V439.953H320.085V424.259Z" fill="#5A4BB2"/>
<path d="M320.085 448.272H87.9453V463.966H320.085V448.272Z" fill="#5A4BB2"/>
<path d="M320.085 472.294H87.9453V487.988H320.085V472.294Z" fill="#5A4BB2"/>
<path d="M240.044 360.227H151.988V375.921H240.044V360.227Z" fill="#5A4BB2"/>
<path d="M287.91 40.0249H104.113V183.799H287.91V40.0249ZM272.216 168.104H119.808V55.7189H272.217V168.104H272.216Z" fill="#5A4BB2"/>
<path d="M256.052 72.0439H135.98V87.7379H256.052V72.0439Z" fill="#5A4BB2"/>
<path d="M224.036 104.064H135.98V119.758H224.036V104.064Z" fill="#5A4BB2"/>
<path d="M208.024 136.08H135.98V151.774H208.024V136.08Z" fill="#5A4BB2"/>
</svg>
