<svg width="512" height="512" viewBox="0 0 512 512" fill="none" xmlns="http://www.w3.org/2000/svg">
<g clip-path="url(#clip0_2848_4461)">
<path d="M251.789 511.632C251.789 511.448 251.032 511.264 250.105 511.264C249.179 511.264 248.421 511.117 248.421 510.897C248.421 510.713 248.042 510.529 247.579 510.529C247.116 510.529 246.737 510.382 246.737 510.161C246.737 509.977 246.358 509.793 245.895 509.793C245.432 509.793 245.053 509.646 245.053 509.425C245.053 509.241 244.716 509.057 244.295 509.057C243.874 509.057 243.284 508.726 242.947 508.322C242.611 507.917 242.063 507.586 241.684 507.586C241.305 507.586 240.758 507.255 240.421 506.851C240.084 506.446 239.537 506.115 239.158 506.115C238.779 506.115 238.232 505.784 237.895 505.379C237.558 504.975 236.968 504.644 236.547 504.644C236.126 504.644 235.789 504.497 235.789 504.276C235.789 504.092 235.453 503.908 235.032 503.908C234.611 503.908 234.021 503.577 233.684 503.172C233.347 502.768 232.758 502.437 232.337 502.437C231.916 502.437 231.579 502.29 231.579 502.069C231.579 501.885 231.242 501.701 230.821 501.701C230.4 501.701 229.811 501.37 229.474 500.966C229.137 500.561 228.589 500.23 228.211 500.23C227.832 500.23 227.284 499.899 226.947 499.494C226.611 499.09 226.021 498.759 225.6 498.759C225.179 498.759 224.842 498.611 224.842 498.391C224.842 498.207 224.505 498.023 224.084 498.023C223.663 498.023 223.074 497.692 222.737 497.287C222.4 496.883 221.853 496.552 221.474 496.552C221.095 496.552 220.547 496.221 220.211 495.816C219.874 495.411 219.284 495.08 218.863 495.08C218.442 495.08 218.105 494.933 218.105 494.713C218.105 494.529 217.768 494.345 217.347 494.345C216.926 494.345 216.337 494.014 216 493.609C215.663 493.205 215.116 492.874 214.737 492.874C214.358 492.874 213.811 492.543 213.474 492.138C213.137 491.733 212.589 491.402 212.211 491.402C211.832 491.402 211.284 491.071 210.947 490.667C210.611 490.262 210.063 489.931 209.684 489.931C209.305 489.931 208.758 489.6 208.421 489.195C208.084 488.791 207.537 488.46 207.158 488.46C206.779 488.46 206.232 488.129 205.895 487.724C205.558 487.32 205.011 486.989 204.632 486.989C204.253 486.989 203.705 486.657 203.368 486.253C203.032 485.848 202.484 485.517 202.105 485.517C201.726 485.517 201.179 485.186 200.842 484.782C200.505 484.377 199.958 484.046 199.663 484.046C199.326 484.046 198.526 483.568 197.895 482.943C197.263 482.354 196.463 481.839 196.126 481.839C195.832 481.839 195.284 481.508 194.947 481.103C194.611 480.699 194.063 480.368 193.684 480.368C193.305 480.368 192.758 480.037 192.421 479.632C192.084 479.228 191.537 478.897 191.242 478.897C190.905 478.897 190.105 478.418 189.474 477.793C188.842 477.205 188.042 476.69 187.705 476.69C187.411 476.69 186.863 476.359 186.526 475.954C186.189 475.549 185.642 475.218 185.347 475.218C185.011 475.218 184.211 474.74 183.579 474.115C182.947 473.526 182.189 473.011 181.895 473.011C181.6 473.011 180.842 472.533 180.211 471.908C179.579 471.32 178.821 470.805 178.526 470.805C178.232 470.805 177.474 470.326 176.842 469.701C176.211 469.113 175.453 468.598 175.158 468.598C174.905 468.598 173.937 467.936 173.053 467.126C172.168 466.317 171.2 465.655 170.947 465.655C170.653 465.655 169.895 465.177 169.263 464.552C168.632 463.963 167.874 463.448 167.579 463.448C167.326 463.448 166.358 462.786 165.474 461.977C164.589 461.168 163.621 460.506 163.368 460.506C163.116 460.506 162.147 459.844 161.263 459.034C160.379 458.225 159.411 457.563 159.158 457.563C158.905 457.563 157.558 456.57 156.211 455.356C154.863 454.143 153.516 453.149 153.263 453.149C153.011 453.149 151.663 452.156 150.316 450.943C148.968 449.729 147.621 448.736 147.368 448.736C147.116 448.736 144.842 446.933 142.316 444.69C139.789 442.483 137.516 440.644 137.263 440.644C136.716 440.644 117.053 423.467 117.053 422.989C117.053 422.768 115.368 421.113 113.263 419.31C111.2 417.508 109.474 415.853 109.474 415.632C109.474 415.411 108.337 414.234 106.947 413.057C105.558 411.88 104.421 410.703 104.421 410.483C104.421 410.262 103.495 409.269 102.316 408.276C101.179 407.283 100.211 406.29 100.211 406.069C100.211 405.848 99.4526 405.002 98.5263 404.23C97.6 403.457 96.8421 402.611 96.8421 402.391C96.8421 402.17 96.0842 401.324 95.1579 400.552C94.2316 399.779 93.4737 398.933 93.4737 398.713C93.4737 398.455 92.9263 397.793 92.2105 397.241C91.5368 396.69 90.9474 396.028 90.9474 395.77C90.9474 395.513 90.4 394.851 89.6842 394.299C89.0105 393.747 88.4211 393.048 88.4211 392.754C88.4211 392.497 88.0421 392.018 87.579 391.724C87.1158 391.43 86.7368 390.952 86.7368 390.694C86.7368 390.4 86.1895 389.701 85.4737 389.149C84.8 388.598 84.2105 387.899 84.2105 387.605C84.2105 387.347 83.8316 386.869 83.3684 386.575C82.9053 386.28 82.5263 385.802 82.5263 385.471C82.5263 385.14 82.1474 384.662 81.6842 384.368C81.2211 384.074 80.8421 383.595 80.8421 383.264C80.8421 382.933 80.4632 382.455 80 382.161C79.5368 381.867 79.1579 381.389 79.1579 381.057C79.1579 380.726 78.779 380.248 78.3158 379.954C77.8526 379.66 77.4737 379.182 77.4737 378.851C77.4737 378.52 77.0947 378.041 76.6316 377.747C76.1684 377.453 75.7895 376.975 75.7895 376.644C75.7895 376.313 75.4105 375.834 74.9474 375.54C74.4842 375.246 74.1053 374.768 74.1053 374.437C74.1053 374.106 73.7263 373.628 73.2632 373.333C72.8 373.039 72.4211 372.524 72.4211 372.156C72.4211 371.789 72.2526 371.494 72 371.494C71.7895 371.494 71.579 371.2 71.579 370.832C71.579 370.464 71.2 369.949 70.7368 369.655C70.2737 369.361 69.8947 368.846 69.8947 368.478C69.8947 368.11 69.7263 367.816 69.4737 367.816C69.2632 367.816 69.0526 367.522 69.0526 367.154C69.0526 366.786 68.6737 366.271 68.2105 365.977C67.7474 365.683 67.3684 365.205 67.3684 364.874C67.3684 364.543 66.9895 364.064 66.5263 363.77C66.0632 363.476 65.6842 362.961 65.6842 362.593C65.6842 362.225 65.5158 361.931 65.2632 361.931C65.0526 361.931 64.8421 361.6 64.8421 361.195C64.8421 360.791 64.6737 360.46 64.4211 360.46C64.2105 360.46 64 360.166 64 359.798C64 359.43 63.6211 358.915 63.1579 358.621C62.6947 358.326 62.3158 357.811 62.3158 357.444C62.3158 357.076 62.1474 356.782 61.8947 356.782C61.6842 356.782 61.4737 356.451 61.4737 356.046C61.4737 355.641 61.3053 355.31 61.0526 355.31C60.8421 355.31 60.6316 354.979 60.6316 354.575C60.6316 354.17 60.4632 353.839 60.2105 353.839C60 353.839 59.7895 353.545 59.7895 353.177C59.7895 352.809 59.4105 352.294 58.9474 352C58.4842 351.706 58.1053 351.191 58.1053 350.823C58.1053 350.455 57.9368 350.161 57.6842 350.161C57.4737 350.161 57.2632 349.83 57.2632 349.425C57.2632 349.021 57.0947 348.69 56.8421 348.69C56.6316 348.69 56.4211 348.359 56.4211 347.954C56.4211 347.549 56.2526 347.218 56 347.218C55.7895 347.218 55.5789 346.887 55.5789 346.483C55.5789 346.078 55.4105 345.747 55.1579 345.747C54.9474 345.747 54.7368 345.416 54.7368 345.011C54.7368 344.607 54.5684 344.276 54.3158 344.276C54.1053 344.276 53.8947 343.945 53.8947 343.54C53.8947 343.136 53.7263 342.805 53.4737 342.805C53.2632 342.805 53.0526 342.474 53.0526 342.069C53.0526 341.664 52.8842 341.333 52.6316 341.333C52.4211 341.333 52.2105 341.002 52.2105 340.598C52.2105 340.193 52.0421 339.862 51.7895 339.862C51.5789 339.862 51.3684 339.531 51.3684 339.126C51.3684 338.722 51.2 338.391 50.9474 338.391C50.7368 338.391 50.5263 338.06 50.5263 337.655C50.5263 337.251 50.3579 336.92 50.1053 336.92C49.8947 336.92 49.6842 336.589 49.6842 336.184C49.6842 335.779 49.5158 335.448 49.2632 335.448C49.0526 335.448 48.8421 335.117 48.8421 334.713C48.8421 334.308 48.6737 333.977 48.4211 333.977C48.2105 333.977 48 333.499 48 332.874C48 332.285 47.8316 331.77 47.5789 331.77C47.3684 331.77 47.1579 331.439 47.1579 331.034C47.1579 330.63 46.9895 330.299 46.7368 330.299C46.5263 330.299 46.3158 329.968 46.3158 329.563C46.3158 329.159 46.1474 328.828 45.8947 328.828C45.6842 328.828 45.4737 328.497 45.4737 328.092C45.4737 327.687 45.3053 327.356 45.0526 327.356C44.8421 327.356 44.6316 327.025 44.6316 326.621C44.6316 326.216 44.4632 325.885 44.2105 325.885C44 325.885 43.7895 325.407 43.7895 324.782C43.7895 324.193 43.6211 323.678 43.3684 323.678C43.1579 323.678 42.9474 323.347 42.9474 322.943C42.9474 322.538 42.7789 322.207 42.5263 322.207C42.3158 322.207 42.1053 321.876 42.1053 321.471C42.1053 321.067 41.9368 320.736 41.6842 320.736C41.4737 320.736 41.2632 320.257 41.2632 319.632C41.2632 319.044 41.0947 318.529 40.8421 318.529C40.6316 318.529 40.4211 318.198 40.4211 317.793C40.4211 317.389 40.2526 317.057 40 317.057C39.7895 317.057 39.5789 316.579 39.5789 315.954C39.5789 315.366 39.4105 314.851 39.1579 314.851C38.9474 314.851 38.7368 314.52 38.7368 314.115C38.7368 313.71 38.5684 313.379 38.3158 313.379C38.1053 313.379 37.8947 312.901 37.8947 312.276C37.8947 311.687 37.7263 311.172 37.4737 311.172C37.2632 311.172 37.0526 310.841 37.0526 310.437C37.0526 310.032 36.8842 309.701 36.6316 309.701C36.4211 309.701 36.2105 309.223 36.2105 308.598C36.2105 308.009 36.0421 307.494 35.7895 307.494C35.5789 307.494 35.3684 307.163 35.3684 306.759C35.3684 306.354 35.2 306.023 34.9474 306.023C34.7368 306.023 34.5263 305.545 34.5263 304.92C34.5263 304.331 34.3579 303.816 34.1053 303.816C33.8947 303.816 33.6842 303.485 33.6842 303.08C33.6842 302.676 33.5158 302.345 33.2632 302.345C33.0526 302.345 32.8421 301.867 32.8421 301.241C32.8421 300.653 32.6737 300.138 32.4211 300.138C32.2105 300.138 32 299.66 32 299.034C32 298.446 31.8316 297.931 31.5789 297.931C31.3684 297.931 31.1579 297.453 31.1579 296.828C31.1579 296.239 30.9895 295.724 30.7368 295.724C30.5263 295.724 30.3158 295.246 30.3158 294.621C30.3158 294.032 30.1474 293.517 29.8947 293.517C29.6842 293.517 29.4737 293.039 29.4737 292.414C29.4737 291.825 29.3053 291.31 29.0526 291.31C28.8421 291.31 28.6316 290.832 28.6316 290.207C28.6316 289.618 28.4632 289.103 28.2105 289.103C28 289.103 27.7895 288.625 27.7895 288C27.7895 287.411 27.6211 286.897 27.3684 286.897C27.1579 286.897 26.9474 286.418 26.9474 285.793C26.9474 285.205 26.7789 284.69 26.5263 284.69C26.3158 284.69 26.1053 284.211 26.1053 283.586C26.1053 282.998 25.9368 282.483 25.6842 282.483C25.4737 282.483 25.2632 282.005 25.2632 281.379C25.2632 280.791 25.0947 280.276 24.8421 280.276C24.6316 280.276 24.4211 279.798 24.4211 279.172C24.4211 278.584 24.2526 278.069 24 278.069C23.7895 278.069 23.5789 277.407 23.5789 276.598C23.5789 275.789 23.4105 275.126 23.1579 275.126C22.9474 275.126 22.7368 274.648 22.7368 274.023C22.7368 273.434 22.5684 272.92 22.3158 272.92C22.1053 272.92 21.8947 272.257 21.8947 271.448C21.8947 270.639 21.7263 269.977 21.4737 269.977C21.2632 269.977 21.0526 269.499 21.0526 268.874C21.0526 268.285 20.8842 267.77 20.6316 267.77C20.4211 267.77 20.2105 267.108 20.2105 266.299C20.2105 265.49 20.0421 264.828 19.7895 264.828C19.5789 264.828 19.3684 264.166 19.3684 263.356C19.3684 262.547 19.2 261.885 18.9474 261.885C18.7368 261.885 18.5263 261.407 18.5263 260.782C18.5263 260.193 18.3579 259.678 18.1053 259.678C17.8947 259.678 17.6842 259.016 17.6842 258.207C17.6842 257.398 17.5158 256.736 17.2632 256.736C17.0526 256.736 16.8421 256.074 16.8421 255.264C16.8421 254.455 16.6737 253.793 16.4211 253.793C16.2105 253.793 16 252.984 16 251.954C16 250.961 15.8316 250.115 15.5789 250.115C15.3684 250.115 15.1579 249.453 15.1579 248.644C15.1579 247.834 14.9895 247.172 14.7368 247.172C14.5263 247.172 14.3158 246.363 14.3158 245.333C14.3158 244.34 14.1474 243.494 13.8947 243.494C13.6842 243.494 13.4737 242.832 13.4737 242.023C13.4737 241.214 13.3053 240.552 13.0526 240.552C12.8421 240.552 12.6316 239.743 12.6316 238.713C12.6316 237.72 12.4632 236.874 12.2105 236.874C12 236.874 11.7895 236.064 11.7895 235.034C11.7895 234.041 11.6211 233.195 11.3684 233.195C11.1579 233.195 10.9474 232.386 10.9474 231.356C10.9474 230.363 10.7789 229.517 10.5263 229.517C10.2737 229.517 10.1053 228.524 10.1053 227.31C10.1053 226.097 9.93684 225.103 9.68421 225.103C9.47368 225.103 9.26316 224.294 9.26316 223.264C9.26316 222.271 9.09474 221.425 8.84211 221.425C8.58947 221.425 8.42105 220.432 8.42105 219.218C8.42105 218.005 8.25263 217.011 8 217.011C7.74737 217.011 7.57895 215.908 7.57895 214.437C7.57895 212.966 7.41053 211.862 7.1579 211.862C6.90526 211.862 6.73684 210.759 6.73684 209.287C6.73684 207.816 6.56842 206.713 6.31579 206.713C6.06316 206.713 5.89474 205.609 5.89474 204.138C5.89474 202.667 5.72632 201.563 5.47368 201.563C5.22105 201.563 5.05263 200.349 5.05263 198.621C5.05263 196.892 4.88421 195.678 4.63158 195.678C4.37895 195.678 4.21053 194.464 4.21053 192.736C4.21053 191.007 4.04211 189.793 3.78947 189.793C3.53684 189.793 3.36842 188.322 3.36842 186.115C3.36842 183.908 3.2 182.437 2.94737 182.437C2.69474 182.437 2.52632 180.966 2.52632 178.759C2.52632 176.552 2.35789 175.08 2.10526 175.08C1.85263 175.08 1.68421 173.131 1.68421 169.931C1.68421 166.731 1.51579 164.782 1.26316 164.782C1.01053 164.782 0.842105 162.207 0.842105 157.793C0.842105 153.379 0.673684 150.805 0.421053 150.805C0.126316 150.805 0 139.88 0 118.805C0 97.7287 0.126316 86.8046 0.421053 86.8046C0.673684 86.8046 0.842105 86.1425 0.842105 85.3333C0.842105 84.5241 1.05263 83.8621 1.26316 83.8621C1.51579 83.8621 1.68421 83.3839 1.68421 82.7586C1.68421 82.1701 1.89474 81.6552 2.10526 81.6552C2.35789 81.6552 2.52632 81.3609 2.52632 80.9931C2.52632 80.6253 2.90526 80.1103 3.36842 79.8161C3.83158 79.5218 4.21053 79.0805 4.21053 78.823C4.21053 78.1977 7.83158 75.0345 8.54737 75.0345C8.84211 75.0345 9.34737 74.7034 9.68421 74.2989C10.0211 73.8943 10.6105 73.5632 11.0316 73.5632C11.4526 73.5632 11.7895 73.4161 11.7895 73.1954C11.7895 73.0115 12.1684 72.8276 12.6316 72.8276C13.0947 72.8276 13.4737 72.6805 13.4737 72.4598C13.4737 72.2759 14.0632 72.092 14.7368 72.092C15.4526 72.092 16 71.9448 16 71.7241C16 71.5034 18.9474 71.3563 24 71.3563C29.0526 71.3563 32 71.2092 32 70.9885C32 70.7678 34.1053 70.6207 37.4737 70.6207C40.8421 70.6207 42.9474 70.4736 42.9474 70.2529C42.9474 70.0322 44.3368 69.8851 46.3158 69.8851C48.2947 69.8851 49.6842 69.7379 49.6842 69.5172C49.6842 69.2966 51.0737 69.1494 53.0526 69.1494C55.0316 69.1494 56.4211 69.0023 56.4211 68.7816C56.4211 68.5609 57.6842 68.4138 59.3684 68.4138C61.0526 68.4138 62.3158 68.2667 62.3158 68.046C62.3158 67.8253 63.579 67.6782 65.2632 67.6782C66.9474 67.6782 68.2105 67.531 68.2105 67.3103C68.2105 67.0897 69.3474 66.9425 70.7368 66.9425C72.1263 66.9425 73.2632 66.7954 73.2632 66.5747C73.2632 66.3908 74.2316 66.2069 75.3684 66.2069C76.5474 66.2069 77.4737 66.0598 77.4737 65.8391C77.4737 65.6552 78.4421 65.4713 79.579 65.4713C80.7579 65.4713 81.6842 65.3241 81.6842 65.1034C81.6842 64.9195 82.6526 64.7356 83.7895 64.7356C84.9684 64.7356 85.8947 64.5885 85.8947 64.3678C85.8947 64.1839 86.8632 64 88 64C89.179 64 90.1053 63.8529 90.1053 63.6322C90.1053 63.4483 90.8632 63.2644 91.7895 63.2644C92.7158 63.2644 93.4737 63.1172 93.4737 62.8966C93.4737 62.7126 94.2316 62.5287 95.1579 62.5287C96.0842 62.5287 96.8421 62.3816 96.8421 62.1609C96.8421 61.977 97.6 61.7931 98.5263 61.7931C99.4526 61.7931 100.211 61.646 100.211 61.4253C100.211 61.2414 100.968 61.0575 101.895 61.0575C102.821 61.0575 103.579 60.9103 103.579 60.6897C103.579 60.5057 104.337 60.3218 105.263 60.3218C106.189 60.3218 106.947 60.1747 106.947 59.954C106.947 59.7701 107.705 59.5862 108.632 59.5862C109.558 59.5862 110.316 59.4391 110.316 59.2184C110.316 59.0345 110.905 58.8506 111.579 58.8506C112.295 58.8506 112.842 58.7034 112.842 58.4828C112.842 58.2989 113.6 58.1149 114.526 58.1149C115.453 58.1149 116.211 57.9678 116.211 57.7471C116.211 57.5632 116.8 57.3793 117.474 57.3793C118.189 57.3793 118.737 57.2322 118.737 57.0115C118.737 56.8276 119.326 56.6437 120 56.6437C120.716 56.6437 121.263 56.4966 121.263 56.2759C121.263 56.092 121.853 55.908 122.526 55.908C123.242 55.908 123.789 55.7609 123.789 55.5402C123.789 55.3563 124.379 55.1724 125.053 55.1724C125.768 55.1724 126.316 55.0253 126.316 54.8046C126.316 54.6207 127.074 54.4368 128 54.4368C128.926 54.4368 129.684 54.2897 129.684 54.069C129.684 53.8851 130.274 53.7011 130.947 53.7011C131.663 53.7011 132.211 53.554 132.211 53.3333C132.211 53.1494 132.589 52.9655 133.053 52.9655C133.516 52.9655 133.895 52.8184 133.895 52.5977C133.895 52.4138 134.484 52.2299 135.158 52.2299C135.874 52.2299 136.421 52.0828 136.421 51.8621C136.421 51.6782 137.011 51.4943 137.684 51.4943C138.4 51.4943 138.947 51.3471 138.947 51.1264C138.947 50.9425 139.537 50.7586 140.211 50.7586C140.926 50.7586 141.474 50.6115 141.474 50.3908C141.474 50.2069 142.063 50.023 142.737 50.023C143.453 50.023 144 49.8759 144 49.6552C144 49.4713 144.379 49.2874 144.842 49.2874C145.305 49.2874 145.684 49.1402 145.684 48.9195C145.684 48.7356 146.274 48.5517 146.947 48.5517C147.663 48.5517 148.211 48.4046 148.211 48.1839C148.211 48 148.8 47.8161 149.474 47.8161C150.189 47.8161 150.737 47.669 150.737 47.4483C150.737 47.2644 151.116 47.0805 151.579 47.0805C152.042 47.0805 152.421 46.9333 152.421 46.7126C152.421 46.5287 153.011 46.3448 153.684 46.3448C154.4 46.3448 154.947 46.1977 154.947 45.977C154.947 45.7931 155.326 45.6092 155.789 45.6092C156.253 45.6092 156.632 45.4621 156.632 45.2414C156.632 45.0575 157.221 44.8736 157.895 44.8736C158.611 44.8736 159.158 44.7264 159.158 44.5057C159.158 44.3218 159.537 44.1379 160 44.1379C160.463 44.1379 160.842 43.9908 160.842 43.7701C160.842 43.5862 161.221 43.4023 161.684 43.4023C162.147 43.4023 162.526 43.2552 162.526 43.0345C162.526 42.8506 162.905 42.6667 163.368 42.6667C163.832 42.6667 164.211 42.5195 164.211 42.2989C164.211 42.1149 164.8 41.931 165.474 41.931C166.189 41.931 166.737 41.7839 166.737 41.5632C166.737 41.3793 167.116 41.1954 167.579 41.1954C168.042 41.1954 168.421 41.0483 168.421 40.8276C168.421 40.6437 168.8 40.4598 169.263 40.4598C169.726 40.4598 170.105 40.3126 170.105 40.092C170.105 39.908 170.484 39.7241 170.947 39.7241C171.411 39.7241 171.789 39.577 171.789 39.3563C171.789 39.1724 172.379 38.9885 173.053 38.9885C173.768 38.9885 174.316 38.8414 174.316 38.6207C174.316 38.4368 174.695 38.2529 175.158 38.2529C175.621 38.2529 176 38.1057 176 37.8851C176 37.7011 176.379 37.5172 176.842 37.5172C177.305 37.5172 177.684 37.3701 177.684 37.1494C177.684 36.9655 178.063 36.7816 178.526 36.7816C178.989 36.7816 179.368 36.6345 179.368 36.4138C179.368 36.2299 179.747 36.046 180.211 36.046C180.674 36.046 181.053 35.8989 181.053 35.6782C181.053 35.4943 181.432 35.3103 181.895 35.3103C182.358 35.3103 182.737 35.1632 182.737 34.9425C182.737 34.7586 183.116 34.5747 183.579 34.5747C184.042 34.5747 184.421 34.4276 184.421 34.2069C184.421 34.023 184.8 33.8391 185.263 33.8391C185.726 33.8391 186.105 33.692 186.105 33.4713C186.105 33.2874 186.484 33.1034 186.947 33.1034C187.411 33.1034 187.789 32.9563 187.789 32.7356C187.789 32.5517 188.168 32.3678 188.632 32.3678C189.095 32.3678 189.474 32.2207 189.474 32C189.474 31.8161 189.853 31.6322 190.316 31.6322C190.779 31.6322 191.158 31.4851 191.158 31.2644C191.158 31.0805 191.537 30.8966 192 30.8966C192.463 30.8966 192.842 30.7494 192.842 30.5287C192.842 30.3448 193.221 30.1609 193.684 30.1609C194.147 30.1609 194.526 30.0138 194.526 29.7931C194.526 29.6092 194.905 29.4253 195.368 29.4253C195.832 29.4253 196.211 29.2782 196.211 29.0575C196.211 28.8736 196.547 28.6897 196.968 28.6897C197.389 28.6897 197.979 28.3586 198.316 27.954C198.653 27.5494 199.242 27.2184 199.663 27.2184C200.084 27.2184 200.421 27.0713 200.421 26.8506C200.421 26.6667 200.8 26.4828 201.263 26.4828C201.726 26.4828 202.105 26.3356 202.105 26.1149C202.105 25.931 202.484 25.7471 202.947 25.7471C203.411 25.7471 203.789 25.6 203.789 25.3793C203.789 25.1954 204.126 25.0115 204.547 25.0115C204.968 25.0115 205.558 24.6805 205.895 24.2759C206.232 23.8713 206.821 23.5402 207.242 23.5402C207.663 23.5402 208 23.3931 208 23.1724C208 22.9885 208.337 22.8046 208.758 22.8046C209.179 22.8046 209.768 22.4736 210.105 22.069C210.442 21.6644 211.032 21.3333 211.453 21.3333C211.874 21.3333 212.211 21.1862 212.211 20.9655C212.211 20.7816 212.589 20.5977 213.053 20.5977C213.516 20.5977 213.895 20.4506 213.895 20.2299C213.895 20.046 214.232 19.8621 214.653 19.8621C215.074 19.8621 215.663 19.531 216 19.1264C216.337 18.7218 216.926 18.3908 217.347 18.3908C217.768 18.3908 218.105 18.2437 218.105 18.023C218.105 17.8391 218.442 17.6552 218.863 17.6552C219.284 17.6552 219.874 17.3241 220.211 16.9195C220.547 16.5149 221.095 16.1839 221.474 16.1839C221.853 16.1839 222.4 15.8529 222.737 15.4483C223.074 15.0437 223.663 14.7126 224.084 14.7126C224.505 14.7126 224.842 14.5655 224.842 14.3448C224.842 14.1609 225.179 13.977 225.6 13.977C226.021 13.977 226.611 13.646 226.947 13.2414C227.284 12.8368 227.832 12.5057 228.211 12.5057C228.589 12.5057 229.137 12.1747 229.474 11.7701C229.811 11.3655 230.358 11.0345 230.737 11.0345C231.116 11.0345 231.663 10.7034 232 10.2989C232.337 9.89425 232.884 9.56322 233.263 9.56322C233.642 9.56322 234.189 9.23218 234.526 8.82759C234.863 8.42299 235.411 8.09195 235.789 8.09195C236.168 8.09195 236.716 7.76092 237.053 7.35632C237.389 6.95172 237.937 6.62069 238.316 6.62069C238.695 6.62069 239.242 6.28966 239.579 5.88506C239.916 5.48046 240.463 5.14943 240.842 5.14943C241.221 5.14943 241.768 4.81839 242.105 4.41379C242.442 4.0092 242.989 3.67816 243.368 3.67816C243.747 3.67816 244.295 3.34713 244.632 2.94253C244.968 2.53793 245.558 2.2069 245.979 2.2069C246.4 2.2069 246.737 2.05977 246.737 1.83908C246.737 1.65517 247.116 1.47126 247.579 1.47126C248.042 1.47126 248.421 1.32414 248.421 1.10345C248.421 0.91954 249.011 0.735632 249.684 0.735632C250.4 0.735632 250.947 0.588506 250.947 0.367816C250.947 0.147126 252.758 0 255.579 0C258.4 0 260.211 0.147126 260.211 0.367816C260.211 0.588506 260.968 0.735632 261.895 0.735632C262.821 0.735632 263.579 0.91954 263.579 1.10345C263.579 1.32414 263.958 1.47126 264.421 1.47126C264.884 1.47126 265.263 1.65517 265.263 1.83908C265.263 2.05977 265.6 2.2069 266.021 2.2069C266.442 2.2069 267.032 2.53793 267.368 2.94253C267.705 3.34713 268.295 3.67816 268.716 3.67816C269.137 3.67816 269.474 3.86207 269.474 4.04598C269.474 4.26667 269.811 4.41379 270.232 4.41379C270.653 4.41379 271.242 4.74483 271.579 5.14943C271.916 5.55402 272.463 5.88506 272.842 5.88506C273.221 5.88506 273.768 6.21609 274.105 6.62069C274.442 7.02529 274.989 7.35632 275.368 7.35632C275.747 7.35632 276.295 7.68736 276.632 8.09195C276.968 8.49655 277.516 8.82759 277.895 8.82759C278.274 8.82759 278.821 9.15862 279.158 9.56322C279.495 9.96782 280.042 10.2989 280.421 10.2989C280.8 10.2989 281.347 10.6299 281.684 11.0345C282.021 11.4391 282.568 11.7701 282.947 11.7701C283.326 11.7701 283.874 12.1011 284.211 12.5057C284.547 12.9103 285.095 13.2414 285.474 13.2414C285.853 13.2414 286.4 13.5724 286.737 13.977C287.074 14.3816 287.621 14.7126 288 14.7126C288.379 14.7126 288.926 15.0437 289.263 15.4483C289.6 15.8529 290.147 16.1839 290.526 16.1839C290.905 16.1839 291.453 16.5149 291.789 16.9195C292.126 17.3241 292.716 17.6552 293.137 17.6552C293.558 17.6552 293.895 17.8391 293.895 18.023C293.895 18.2437 294.232 18.3908 294.653 18.3908C295.074 18.3908 295.663 18.7218 296 19.1264C296.337 19.531 296.884 19.8621 297.263 19.8621C297.642 19.8621 298.189 20.1931 298.526 20.5977C298.863 21.0023 299.453 21.3333 299.874 21.3333C300.295 21.3333 300.632 21.5172 300.632 21.7011C300.632 21.9218 301.011 22.069 301.474 22.069C301.937 22.069 302.316 22.2529 302.316 22.4368C302.316 22.6575 302.653 22.8046 303.074 22.8046C303.495 22.8046 304.084 23.1356 304.421 23.5402C304.758 23.9448 305.347 24.2759 305.768 24.2759C306.189 24.2759 306.526 24.4598 306.526 24.6437C306.526 24.8644 306.905 25.0115 307.368 25.0115C307.832 25.0115 308.211 25.1954 308.211 25.3793C308.211 25.6 308.589 25.7471 309.053 25.7471C309.516 25.7471 309.895 25.931 309.895 26.1149C309.895 26.3356 310.232 26.4828 310.653 26.4828C311.074 26.4828 311.663 26.8138 312 27.2184C312.337 27.623 312.926 27.954 313.347 27.954C313.768 27.954 314.105 28.1379 314.105 28.3218C314.105 28.5425 314.484 28.6897 314.947 28.6897C315.411 28.6897 315.789 28.8736 315.789 29.0575C315.789 29.2782 316.168 29.4253 316.632 29.4253C317.095 29.4253 317.474 29.6092 317.474 29.7931C317.474 30.0138 317.853 30.1609 318.316 30.1609C318.779 30.1609 319.158 30.3448 319.158 30.5287C319.158 30.7494 319.537 30.8966 320 30.8966C320.463 30.8966 320.842 31.0805 320.842 31.2644C320.842 31.4851 321.221 31.6322 321.684 31.6322C322.147 31.6322 322.526 31.8161 322.526 32C322.526 32.2207 322.905 32.3678 323.368 32.3678C323.832 32.3678 324.211 32.5517 324.211 32.7356C324.211 32.9563 324.589 33.1034 325.053 33.1034C325.516 33.1034 325.895 33.2874 325.895 33.4713C325.895 33.692 326.274 33.8391 326.737 33.8391C327.2 33.8391 327.579 34.023 327.579 34.2069C327.579 34.4276 327.958 34.5747 328.421 34.5747C328.884 34.5747 329.263 34.7586 329.263 34.9425C329.263 35.1632 329.642 35.3103 330.105 35.3103C330.568 35.3103 330.947 35.4943 330.947 35.6782C330.947 35.8989 331.326 36.046 331.789 36.046C332.253 36.046 332.632 36.2299 332.632 36.4138C332.632 36.6345 333.011 36.7816 333.474 36.7816C333.937 36.7816 334.316 36.9655 334.316 37.1494C334.316 37.3701 334.695 37.5172 335.158 37.5172C335.621 37.5172 336 37.7011 336 37.8851C336 38.1057 336.379 38.2529 336.842 38.2529C337.305 38.2529 337.684 38.4368 337.684 38.6207C337.684 38.8414 338.063 38.9885 338.526 38.9885C338.989 38.9885 339.368 39.1724 339.368 39.3563C339.368 39.577 339.747 39.7241 340.211 39.7241C340.674 39.7241 341.053 39.908 341.053 40.092C341.053 40.3126 341.642 40.4598 342.316 40.4598C343.032 40.4598 343.579 40.6437 343.579 40.8276C343.579 41.0483 343.958 41.1954 344.421 41.1954C344.884 41.1954 345.263 41.3793 345.263 41.5632C345.263 41.7839 345.642 41.931 346.105 41.931C346.568 41.931 346.947 42.1149 346.947 42.2989C346.947 42.5195 347.537 42.6667 348.211 42.6667C348.926 42.6667 349.474 42.8506 349.474 43.0345C349.474 43.2552 349.853 43.4023 350.316 43.4023C350.779 43.4023 351.158 43.5862 351.158 43.7701C351.158 43.9908 351.537 44.1379 352 44.1379C352.463 44.1379 352.842 44.3218 352.842 44.5057C352.842 44.7264 353.432 44.8736 354.105 44.8736C354.821 44.8736 355.368 45.0575 355.368 45.2414C355.368 45.4621 355.747 45.6092 356.211 45.6092C356.674 45.6092 357.053 45.7931 357.053 45.977C357.053 46.1977 357.432 46.3448 357.895 46.3448C358.358 46.3448 358.737 46.5287 358.737 46.7126C358.737 46.9333 359.326 47.0805 360 47.0805C360.716 47.0805 361.263 47.2644 361.263 47.4483C361.263 47.669 361.853 47.8161 362.526 47.8161C363.242 47.8161 363.789 48 363.789 48.1839C363.789 48.4046 364.168 48.5517 364.632 48.5517C365.095 48.5517 365.474 48.7356 365.474 48.9195C365.474 49.1402 366.063 49.2874 366.737 49.2874C367.453 49.2874 368 49.4713 368 49.6552C368 49.8759 368.589 50.023 369.263 50.023C369.979 50.023 370.526 50.2069 370.526 50.3908C370.526 50.6115 370.905 50.7586 371.368 50.7586C371.832 50.7586 372.211 50.9425 372.211 51.1264C372.211 51.3471 372.8 51.4943 373.474 51.4943C374.189 51.4943 374.737 51.6782 374.737 51.8621C374.737 52.0828 375.326 52.2299 376 52.2299C376.716 52.2299 377.263 52.4138 377.263 52.5977C377.263 52.8184 377.853 52.9655 378.526 52.9655C379.242 52.9655 379.789 53.1494 379.789 53.3333C379.789 53.554 380.379 53.7011 381.053 53.7011C381.768 53.7011 382.316 53.8851 382.316 54.069C382.316 54.2897 382.905 54.4368 383.579 54.4368C384.295 54.4368 384.842 54.6207 384.842 54.8046C384.842 55.0253 385.432 55.1724 386.105 55.1724C386.821 55.1724 387.368 55.3563 387.368 55.5402C387.368 55.7609 387.958 55.908 388.632 55.908C389.347 55.908 389.895 56.092 389.895 56.2759C389.895 56.4966 390.484 56.6437 391.158 56.6437C391.874 56.6437 392.421 56.8276 392.421 57.0115C392.421 57.2322 393.179 57.3793 394.105 57.3793C395.032 57.3793 395.789 57.5632 395.789 57.7471C395.789 57.9678 396.379 58.1149 397.053 58.1149C397.768 58.1149 398.316 58.2989 398.316 58.4828C398.316 58.7034 398.905 58.8506 399.579 58.8506C400.295 58.8506 400.842 59.0345 400.842 59.2184C400.842 59.4391 401.6 59.5862 402.526 59.5862C403.453 59.5862 404.211 59.7701 404.211 59.954C404.211 60.1747 404.968 60.3218 405.895 60.3218C406.821 60.3218 407.579 60.5057 407.579 60.6897C407.579 60.9103 408.337 61.0575 409.263 61.0575C410.189 61.0575 410.947 61.2414 410.947 61.4253C410.947 61.646 411.705 61.7931 412.632 61.7931C413.558 61.7931 414.316 61.977 414.316 62.1609C414.316 62.3816 415.074 62.5287 416 62.5287C416.926 62.5287 417.684 62.7126 417.684 62.8966C417.684 63.1172 418.442 63.2644 419.368 63.2644C420.295 63.2644 421.053 63.4483 421.053 63.6322C421.053 63.8529 421.811 64 422.737 64C423.663 64 424.421 64.1839 424.421 64.3678C424.421 64.5885 425.389 64.7356 426.526 64.7356C427.705 64.7356 428.632 64.9195 428.632 65.1034C428.632 65.3241 429.6 65.4713 430.737 65.4713C431.916 65.4713 432.842 65.6552 432.842 65.8391C432.842 66.0598 433.979 66.2069 435.368 66.2069C436.758 66.2069 437.895 66.354 437.895 66.5747C437.895 66.7954 439.032 66.9425 440.421 66.9425C441.811 66.9425 442.947 67.0897 442.947 67.3103C442.947 67.531 444.084 67.6782 445.474 67.6782C446.863 67.6782 448 67.8253 448 68.046C448 68.2667 449.263 68.4138 450.947 68.4138C452.632 68.4138 453.895 68.5609 453.895 68.7816C453.895 69.0023 455.284 69.1494 457.263 69.1494C459.242 69.1494 460.632 69.2966 460.632 69.5172C460.632 69.7379 462.316 69.8851 464.842 69.8851C467.368 69.8851 469.053 70.0322 469.053 70.2529C469.053 70.4736 471.579 70.6207 475.789 70.6207C480 70.6207 482.526 70.7678 482.526 70.9885C482.526 71.2092 484.926 71.3563 488.842 71.3563C492.758 71.3563 495.158 71.5034 495.158 71.7241C495.158 71.9448 495.747 72.092 496.421 72.092C497.137 72.092 497.684 72.2759 497.684 72.4598C497.684 72.6805 498.063 72.8276 498.526 72.8276C498.989 72.8276 499.368 73.0115 499.368 73.1954C499.368 73.4161 499.705 73.5632 500.126 73.5632C500.547 73.5632 501.137 73.8943 501.474 74.2989C501.811 74.7034 502.316 75.0345 502.611 75.0345C503.326 75.0345 507.789 78.9333 507.789 79.5586C507.789 79.8161 508.168 80.2575 508.632 80.5517C509.137 80.846 509.474 81.508 509.474 82.0966C509.474 82.6483 509.684 83.1264 509.895 83.1264C510.147 83.1264 510.316 83.4575 510.316 83.8621C510.316 84.2667 510.526 84.5977 510.737 84.5977C510.989 84.5977 511.158 85.4437 511.158 86.4368C511.158 87.4667 511.368 88.2759 511.579 88.2759C511.874 88.2759 512 97.1034 512 114.023C512 130.943 511.874 139.77 511.579 139.77C511.326 139.77 511.158 142.713 511.158 147.862C511.158 153.011 510.989 155.954 510.737 155.954C510.484 155.954 510.316 158.418 510.316 162.575C510.316 166.731 510.147 169.195 509.895 169.195C509.642 169.195 509.474 171.034 509.474 173.977C509.474 176.92 509.305 178.759 509.053 178.759C508.8 178.759 508.632 180.34 508.632 182.805C508.632 185.269 508.463 186.851 508.211 186.851C507.958 186.851 507.789 188.211 507.789 190.161C507.789 192.11 507.621 193.471 507.368 193.471C507.116 193.471 506.947 194.832 506.947 196.782C506.947 198.731 506.779 200.092 506.526 200.092C506.274 200.092 506.105 201.306 506.105 203.034C506.105 204.763 505.937 205.977 505.684 205.977C505.432 205.977 505.263 207.08 505.263 208.552C505.263 210.023 505.095 211.126 504.842 211.126C504.589 211.126 504.421 212.12 504.421 213.333C504.421 214.547 504.253 215.54 504 215.54C503.747 215.54 503.579 216.644 503.579 218.115C503.579 219.586 503.411 220.69 503.158 220.69C502.947 220.69 502.737 221.536 502.737 222.529C502.737 223.559 502.568 224.368 502.316 224.368C502.063 224.368 501.895 225.361 501.895 226.575C501.895 227.789 501.726 228.782 501.474 228.782C501.263 228.782 501.053 229.628 501.053 230.621C501.053 231.651 500.884 232.46 500.632 232.46C500.421 232.46 500.211 233.306 500.211 234.299C500.211 235.329 500.042 236.138 499.789 236.138C499.579 236.138 499.368 236.984 499.368 237.977C499.368 239.007 499.2 239.816 498.947 239.816C498.737 239.816 498.526 240.662 498.526 241.655C498.526 242.685 498.358 243.494 498.105 243.494C497.895 243.494 497.684 244.156 497.684 244.966C497.684 245.775 497.516 246.437 497.263 246.437C497.053 246.437 496.842 247.283 496.842 248.276C496.842 249.306 496.674 250.115 496.421 250.115C496.211 250.115 496 250.777 496 251.586C496 252.395 495.832 253.057 495.579 253.057C495.368 253.057 495.158 253.72 495.158 254.529C495.158 255.338 494.989 256 494.737 256C494.526 256 494.316 256.662 494.316 257.471C494.316 258.28 494.147 258.943 493.895 258.943C493.684 258.943 493.474 259.605 493.474 260.414C493.474 261.223 493.305 261.885 493.053 261.885C492.842 261.885 492.632 262.547 492.632 263.356C492.632 264.166 492.463 264.828 492.211 264.828C492 264.828 491.789 265.343 491.789 265.931C491.789 266.556 491.621 267.034 491.368 267.034C491.158 267.034 490.947 267.697 490.947 268.506C490.947 269.315 490.779 269.977 490.526 269.977C490.316 269.977 490.105 270.492 490.105 271.08C490.105 271.706 489.937 272.184 489.684 272.184C489.474 272.184 489.263 272.846 489.263 273.655C489.263 274.464 489.095 275.126 488.842 275.126C488.632 275.126 488.421 275.641 488.421 276.23C488.421 276.855 488.253 277.333 488 277.333C487.789 277.333 487.579 277.848 487.579 278.437C487.579 279.062 487.411 279.54 487.158 279.54C486.947 279.54 486.737 280.202 486.737 281.011C486.737 281.821 486.568 282.483 486.316 282.483C486.105 282.483 485.895 282.998 485.895 283.586C485.895 284.211 485.726 284.69 485.474 284.69C485.263 284.69 485.053 285.205 485.053 285.793C485.053 286.418 484.884 286.897 484.632 286.897C484.421 286.897 484.211 287.411 484.211 288C484.211 288.625 484.042 289.103 483.789 289.103C483.579 289.103 483.368 289.618 483.368 290.207C483.368 290.832 483.2 291.31 482.947 291.31C482.737 291.31 482.526 291.825 482.526 292.414C482.526 293.039 482.358 293.517 482.105 293.517C481.895 293.517 481.684 294.032 481.684 294.621C481.684 295.246 481.516 295.724 481.263 295.724C481.053 295.724 480.842 296.239 480.842 296.828C480.842 297.453 480.674 297.931 480.421 297.931C480.211 297.931 480 298.262 480 298.667C480 299.071 479.832 299.402 479.579 299.402C479.368 299.402 479.158 299.917 479.158 300.506C479.158 301.131 478.989 301.609 478.737 301.609C478.526 301.609 478.316 302.124 478.316 302.713C478.316 303.338 478.147 303.816 477.895 303.816C477.684 303.816 477.474 304.331 477.474 304.92C477.474 305.545 477.305 306.023 477.053 306.023C476.842 306.023 476.632 306.354 476.632 306.759C476.632 307.163 476.463 307.494 476.211 307.494C476 307.494 475.789 308.009 475.789 308.598C475.789 309.223 475.621 309.701 475.368 309.701C475.158 309.701 474.947 310.032 474.947 310.437C474.947 310.841 474.779 311.172 474.526 311.172C474.316 311.172 474.105 311.687 474.105 312.276C474.105 312.901 473.937 313.379 473.684 313.379C473.474 313.379 473.263 313.71 473.263 314.115C473.263 314.52 473.095 314.851 472.842 314.851C472.632 314.851 472.421 315.366 472.421 315.954C472.421 316.579 472.253 317.057 472 317.057C471.789 317.057 471.579 317.389 471.579 317.793C471.579 318.198 471.411 318.529 471.158 318.529C470.947 318.529 470.737 319.044 470.737 319.632C470.737 320.257 470.568 320.736 470.316 320.736C470.105 320.736 469.895 321.067 469.895 321.471C469.895 321.876 469.726 322.207 469.474 322.207C469.263 322.207 469.053 322.538 469.053 322.943C469.053 323.347 468.884 323.678 468.632 323.678C468.421 323.678 468.211 324.193 468.211 324.782C468.211 325.407 468.042 325.885 467.789 325.885C467.579 325.885 467.368 326.216 467.368 326.621C467.368 327.025 467.2 327.356 466.947 327.356C466.737 327.356 466.526 327.687 466.526 328.092C466.526 328.497 466.358 328.828 466.105 328.828C465.895 328.828 465.684 329.159 465.684 329.563C465.684 329.968 465.516 330.299 465.263 330.299C465.053 330.299 464.842 330.63 464.842 331.034C464.842 331.439 464.674 331.77 464.421 331.77C464.211 331.77 464 332.285 464 332.874C464 333.499 463.832 333.977 463.579 333.977C463.368 333.977 463.158 334.308 463.158 334.713C463.158 335.117 462.989 335.448 462.737 335.448C462.526 335.448 462.316 335.779 462.316 336.184C462.316 336.589 462.147 336.92 461.895 336.92C461.684 336.92 461.474 337.251 461.474 337.655C461.474 338.06 461.305 338.391 461.053 338.391C460.842 338.391 460.632 338.722 460.632 339.126C460.632 339.531 460.463 339.862 460.211 339.862C460 339.862 459.789 340.193 459.789 340.598C459.789 341.002 459.621 341.333 459.368 341.333C459.158 341.333 458.947 341.664 458.947 342.069C458.947 342.474 458.779 342.805 458.526 342.805C458.316 342.805 458.105 343.136 458.105 343.54C458.105 343.945 457.937 344.276 457.684 344.276C457.474 344.276 457.263 344.607 457.263 345.011C457.263 345.416 457.095 345.747 456.842 345.747C456.632 345.747 456.421 346.078 456.421 346.483C456.421 346.887 456.253 347.218 456 347.218C455.789 347.218 455.579 347.549 455.579 347.954C455.579 348.359 455.411 348.69 455.158 348.69C454.947 348.69 454.737 349.021 454.737 349.425C454.737 349.83 454.568 350.161 454.316 350.161C454.105 350.161 453.895 350.492 453.895 350.897C453.895 351.301 453.726 351.632 453.474 351.632C453.263 351.632 453.053 351.926 453.053 352.294C453.053 352.662 452.674 353.177 452.211 353.471C451.747 353.766 451.368 354.28 451.368 354.648C451.368 355.016 451.2 355.31 450.947 355.31C450.737 355.31 450.526 355.641 450.526 356.046C450.526 356.451 450.358 356.782 450.105 356.782C449.895 356.782 449.684 357.113 449.684 357.517C449.684 357.922 449.516 358.253 449.263 358.253C449.053 358.253 448.842 358.547 448.842 358.915C448.842 359.283 448.463 359.798 448 360.092C447.537 360.386 447.158 360.901 447.158 361.269C447.158 361.637 446.989 361.931 446.737 361.931C446.526 361.931 446.316 362.262 446.316 362.667C446.316 363.071 446.147 363.402 445.895 363.402C445.684 363.402 445.474 363.697 445.474 364.064C445.474 364.432 445.095 364.947 444.632 365.241C444.168 365.536 443.789 366.051 443.789 366.418C443.789 366.786 443.621 367.08 443.368 367.08C443.158 367.08 442.947 367.375 442.947 367.743C442.947 368.11 442.568 368.625 442.105 368.92C441.642 369.214 441.263 369.692 441.263 370.023C441.263 370.354 440.884 370.832 440.421 371.126C439.958 371.421 439.579 371.936 439.579 372.303C439.579 372.671 439.411 372.966 439.158 372.966C438.947 372.966 438.737 373.26 438.737 373.628C438.737 373.995 438.358 374.51 437.895 374.805C437.432 375.099 437.053 375.577 437.053 375.908C437.053 376.239 436.674 376.717 436.211 377.011C435.747 377.306 435.368 377.784 435.368 378.115C435.368 378.446 434.989 378.924 434.526 379.218C434.063 379.513 433.684 379.991 433.684 380.322C433.684 380.653 433.305 381.131 432.842 381.425C432.379 381.72 432 382.198 432 382.529C432 382.86 431.621 383.338 431.158 383.632C430.695 383.926 430.316 384.405 430.316 384.662C430.316 384.956 429.768 385.655 429.053 386.207C428.379 386.759 427.789 387.457 427.789 387.752C427.789 388.009 427.411 388.487 426.947 388.782C426.484 389.076 426.105 389.554 426.105 389.811C426.105 390.106 425.558 390.805 424.842 391.356C424.168 391.908 423.579 392.607 423.579 392.901C423.579 393.159 423.2 393.637 422.737 393.931C422.274 394.225 421.895 394.703 421.895 394.961C421.895 395.218 421.137 396.101 420.211 396.874C419.284 397.646 418.526 398.492 418.526 398.713C418.526 398.97 417.979 399.632 417.263 400.184C416.589 400.736 416 401.398 416 401.655C416 401.876 415.242 402.722 414.316 403.494C413.389 404.267 412.632 405.113 412.632 405.333C412.632 405.554 411.874 406.4 410.947 407.172C410.021 407.945 409.263 408.791 409.263 409.011C409.263 409.232 408.337 410.225 407.158 411.218C406.021 412.211 405.053 413.205 405.053 413.425C405.053 413.646 403.368 415.301 401.263 417.103C399.2 418.906 397.474 420.561 397.474 420.782C397.474 421.26 371.916 443.586 371.368 443.586C371.116 443.586 369.221 445.094 367.158 446.897C365.095 448.736 363.2 450.207 362.947 450.207C362.695 450.207 361.347 451.2 360 452.414C358.653 453.628 357.305 454.621 357.053 454.621C356.8 454.621 355.663 455.467 354.526 456.46C353.389 457.49 352.253 458.299 352 458.299C351.747 458.299 350.611 459.145 349.474 460.138C348.337 461.168 347.2 461.977 346.947 461.977C346.695 461.977 345.726 462.639 344.842 463.448C343.958 464.257 342.989 464.92 342.737 464.92C342.442 464.92 341.684 465.434 341.053 466.023C340.421 466.648 339.663 467.126 339.368 467.126C339.116 467.126 338.147 467.789 337.263 468.598C336.379 469.407 335.411 470.069 335.158 470.069C334.863 470.069 334.105 470.584 333.474 471.172C332.842 471.798 332.042 472.276 331.705 472.276C331.411 472.276 330.863 472.607 330.526 473.011C330.189 473.416 329.642 473.747 329.347 473.747C329.011 473.747 328.211 474.262 327.579 474.851C326.947 475.476 326.189 475.954 325.895 475.954C325.6 475.954 324.842 476.469 324.211 477.057C323.579 477.683 322.779 478.161 322.442 478.161C322.147 478.161 321.6 478.492 321.263 478.897C320.926 479.301 320.379 479.632 320 479.632C319.621 479.632 319.074 479.963 318.737 480.368C318.4 480.772 317.853 481.103 317.558 481.103C317.221 481.103 316.421 481.618 315.789 482.207C315.158 482.832 314.358 483.31 314.021 483.31C313.726 483.31 313.179 483.641 312.842 484.046C312.505 484.451 311.958 484.782 311.579 484.782C311.2 484.782 310.653 485.113 310.316 485.517C309.979 485.922 309.432 486.253 309.053 486.253C308.674 486.253 308.126 486.584 307.789 486.989C307.453 487.393 306.905 487.724 306.526 487.724C306.147 487.724 305.6 488.055 305.263 488.46C304.926 488.864 304.379 489.195 304 489.195C303.621 489.195 303.074 489.526 302.737 489.931C302.4 490.336 301.853 490.667 301.474 490.667C301.095 490.667 300.547 490.998 300.211 491.402C299.874 491.807 299.284 492.138 298.863 492.138C298.442 492.138 298.105 492.322 298.105 492.506C298.105 492.726 297.768 492.874 297.347 492.874C296.926 492.874 296.337 493.205 296 493.609C295.663 494.014 295.116 494.345 294.737 494.345C294.358 494.345 293.811 494.676 293.474 495.08C293.137 495.485 292.547 495.816 292.126 495.816C291.705 495.816 291.368 496 291.368 496.184C291.368 496.405 291.032 496.552 290.611 496.552C290.189 496.552 289.6 496.883 289.263 497.287C288.926 497.692 288.337 498.023 287.916 498.023C287.495 498.023 287.158 498.207 287.158 498.391C287.158 498.611 286.821 498.759 286.4 498.759C285.979 498.759 285.389 499.09 285.053 499.494C284.716 499.899 284.168 500.23 283.789 500.23C283.411 500.23 282.863 500.561 282.526 500.966C282.189 501.37 281.6 501.701 281.179 501.701C280.758 501.701 280.421 501.885 280.421 502.069C280.421 502.29 280.084 502.437 279.663 502.437C279.242 502.437 278.653 502.768 278.316 503.172C277.979 503.577 277.389 503.908 276.968 503.908C276.547 503.908 276.211 504.092 276.211 504.276C276.211 504.497 275.832 504.644 275.368 504.644C274.905 504.644 274.526 504.828 274.526 505.011C274.526 505.232 274.189 505.379 273.768 505.379C273.347 505.379 272.758 505.71 272.421 506.115C272.084 506.52 271.537 506.851 271.158 506.851C270.779 506.851 270.232 507.182 269.895 507.586C269.558 507.991 269.011 508.322 268.632 508.322C268.253 508.322 267.705 508.653 267.368 509.057C267.032 509.462 266.442 509.793 266.021 509.793C265.6 509.793 265.263 509.977 265.263 510.161C265.263 510.382 264.716 510.529 264 510.529C263.326 510.529 262.737 510.713 262.737 510.897C262.737 511.117 262.189 511.264 261.474 511.264C260.8 511.264 260.211 511.448 260.211 511.632C260.211 511.853 258.526 512 256 512C253.474 512 251.789 511.853 251.789 511.632ZM257.263 468.598C257.6 468.193 258.189 467.862 258.611 467.862C259.032 467.862 259.368 467.715 259.368 467.494C259.368 467.31 259.747 467.126 260.211 467.126C260.674 467.126 261.053 466.979 261.053 466.759C261.053 466.575 261.389 466.391 261.811 466.391C262.232 466.391 262.821 466.06 263.158 465.655C263.495 465.251 264.084 464.92 264.505 464.92C264.926 464.92 265.263 464.772 265.263 464.552C265.263 464.368 265.6 464.184 266.021 464.184C266.442 464.184 267.032 463.853 267.368 463.448C267.705 463.044 268.253 462.713 268.632 462.713C269.011 462.713 269.558 462.382 269.895 461.977C270.232 461.572 270.821 461.241 271.242 461.241C271.663 461.241 272 461.094 272 460.874C272 460.69 272.337 460.506 272.758 460.506C273.179 460.506 273.768 460.175 274.105 459.77C274.442 459.366 274.989 459.034 275.368 459.034C275.747 459.034 276.295 458.703 276.632 458.299C276.968 457.894 277.516 457.563 277.895 457.563C278.274 457.563 278.821 457.232 279.158 456.828C279.495 456.423 280.042 456.092 280.421 456.092C280.8 456.092 281.347 455.761 281.684 455.356C282.021 454.952 282.568 454.621 282.947 454.621C283.326 454.621 283.874 454.29 284.211 453.885C284.547 453.48 285.095 453.149 285.474 453.149C285.853 453.149 286.4 452.818 286.737 452.414C287.074 452.009 287.621 451.678 288 451.678C288.379 451.678 288.926 451.347 289.263 450.943C289.6 450.538 290.147 450.207 290.526 450.207C290.905 450.207 291.453 449.876 291.789 449.471C292.126 449.067 292.674 448.736 292.968 448.736C293.305 448.736 294.105 448.257 294.737 447.632C295.368 447.044 296.168 446.529 296.505 446.529C296.8 446.529 297.347 446.198 297.684 445.793C298.021 445.389 298.568 445.057 298.863 445.057C299.2 445.057 300 444.579 300.632 443.954C301.263 443.366 302.021 442.851 302.316 442.851C302.611 442.851 303.368 442.372 304 441.747C304.632 441.159 305.389 440.644 305.684 440.644C305.979 440.644 306.737 440.166 307.368 439.54C308 438.952 308.758 438.437 309.053 438.437C309.347 438.437 310.105 437.959 310.737 437.333C311.368 436.745 312.126 436.23 312.421 436.23C312.674 436.23 313.642 435.568 314.526 434.759C315.411 433.949 316.379 433.287 316.632 433.287C316.884 433.287 317.853 432.625 318.737 431.816C319.621 431.007 320.589 430.345 320.842 430.345C321.095 430.345 322.063 429.683 322.947 428.874C323.832 428.064 324.8 427.402 325.053 427.402C325.305 427.402 326.653 426.409 328 425.195C329.347 423.982 330.695 422.989 330.947 422.989C331.2 422.989 332.716 421.848 334.316 420.414C335.916 419.016 337.432 417.839 337.684 417.839C337.937 417.839 340.211 416.037 342.737 413.793C345.263 411.586 347.537 409.747 347.789 409.747C348.337 409.747 362.105 397.72 362.105 397.241C362.105 397.021 364 395.218 366.316 393.195C368.632 391.172 370.526 389.37 370.526 389.149C370.526 388.929 371.663 387.752 373.053 386.575C374.442 385.398 375.579 384.221 375.579 384C375.579 383.779 376.547 382.786 377.684 381.793C378.863 380.8 379.789 379.807 379.789 379.586C379.789 379.366 380.547 378.52 381.474 377.747C382.4 376.975 383.158 376.129 383.158 375.908C383.158 375.651 383.747 374.989 384.421 374.437C385.095 373.885 385.684 373.223 385.684 372.966C385.684 372.708 386.274 372.046 386.947 371.494C387.621 370.943 388.211 370.28 388.211 370.023C388.211 369.766 388.8 369.103 389.474 368.552C390.189 368 390.737 367.301 390.737 367.007C390.737 366.749 391.116 366.271 391.579 365.977C392.042 365.683 392.421 365.205 392.421 364.947C392.421 364.653 393.011 363.954 393.684 363.402C394.4 362.851 394.947 362.152 394.947 361.857C394.947 361.6 395.326 361.122 395.789 360.828C396.253 360.533 396.632 360.055 396.632 359.724C396.632 359.393 397.011 358.915 397.474 358.621C397.937 358.326 398.316 357.811 398.316 357.444C398.316 357.076 398.526 356.782 398.737 356.782C398.989 356.782 399.158 356.487 399.158 356.12C399.158 355.752 399.537 355.237 400 354.943C400.463 354.648 400.842 354.17 400.842 353.839C400.842 353.508 401.221 353.03 401.684 352.736C402.147 352.441 402.526 351.926 402.526 351.559C402.526 351.191 402.737 350.897 402.947 350.897C403.2 350.897 403.368 350.602 403.368 350.234C403.368 349.867 403.747 349.352 404.211 349.057C404.674 348.763 405.053 348.285 405.053 347.954C405.053 347.623 405.432 347.145 405.895 346.851C406.358 346.556 406.737 346.041 406.737 345.674C406.737 345.306 406.947 345.011 407.158 345.011C407.411 345.011 407.579 344.68 407.579 344.276C407.579 343.871 407.789 343.54 408 343.54C408.253 343.54 408.421 343.246 408.421 342.878C408.421 342.51 408.8 341.995 409.263 341.701C409.726 341.407 410.105 340.892 410.105 340.524C410.105 340.156 410.316 339.862 410.526 339.862C410.779 339.862 410.947 339.531 410.947 339.126C410.947 338.722 411.158 338.391 411.368 338.391C411.621 338.391 411.789 338.06 411.789 337.655C411.789 337.251 412 336.92 412.211 336.92C412.463 336.92 412.632 336.589 412.632 336.184C412.632 335.779 412.842 335.448 413.053 335.448C413.305 335.448 413.474 335.154 413.474 334.786C413.474 334.418 413.853 333.903 414.316 333.609C414.779 333.315 415.158 332.8 415.158 332.432C415.158 332.064 415.368 331.77 415.579 331.77C415.832 331.77 416 331.439 416 331.034C416 330.63 416.211 330.299 416.421 330.299C416.674 330.299 416.842 329.968 416.842 329.563C416.842 329.159 417.053 328.828 417.263 328.828C417.516 328.828 417.684 328.497 417.684 328.092C417.684 327.687 417.895 327.356 418.105 327.356C418.358 327.356 418.526 327.025 418.526 326.621C418.526 326.216 418.737 325.885 418.947 325.885C419.2 325.885 419.368 325.554 419.368 325.149C419.368 324.745 419.579 324.414 419.789 324.414C420.042 324.414 420.211 324.083 420.211 323.678C420.211 323.274 420.421 322.943 420.632 322.943C420.884 322.943 421.053 322.611 421.053 322.207C421.053 321.802 421.263 321.471 421.474 321.471C421.726 321.471 421.895 321.14 421.895 320.736C421.895 320.331 422.105 320 422.316 320C422.568 320 422.737 319.522 422.737 318.897C422.737 318.308 422.947 317.793 423.158 317.793C423.411 317.793 423.579 317.462 423.579 317.057C423.579 316.653 423.789 316.322 424 316.322C424.253 316.322 424.421 315.991 424.421 315.586C424.421 315.182 424.632 314.851 424.842 314.851C425.095 314.851 425.263 314.52 425.263 314.115C425.263 313.71 425.474 313.379 425.684 313.379C425.937 313.379 426.105 313.048 426.105 312.644C426.105 312.239 426.316 311.908 426.526 311.908C426.779 311.908 426.947 311.43 426.947 310.805C426.947 310.216 427.158 309.701 427.368 309.701C427.621 309.701 427.789 309.37 427.789 308.966C427.789 308.561 428 308.23 428.211 308.23C428.463 308.23 428.632 307.899 428.632 307.494C428.632 307.09 428.842 306.759 429.053 306.759C429.305 306.759 429.474 306.28 429.474 305.655C429.474 305.067 429.684 304.552 429.895 304.552C430.147 304.552 430.316 304.221 430.316 303.816C430.316 303.411 430.526 303.08 430.737 303.08C430.989 303.08 431.158 302.749 431.158 302.345C431.158 301.94 431.368 301.609 431.579 301.609C431.832 301.609 432 301.131 432 300.506C432 299.917 432.211 299.402 432.421 299.402C432.674 299.402 432.842 299.071 432.842 298.667C432.842 298.262 433.053 297.931 433.263 297.931C433.516 297.931 433.684 297.453 433.684 296.828C433.684 296.239 433.895 295.724 434.105 295.724C434.358 295.724 434.526 295.393 434.526 294.989C434.526 294.584 434.737 294.253 434.947 294.253C435.2 294.253 435.368 293.775 435.368 293.149C435.368 292.561 435.579 292.046 435.789 292.046C436.042 292.046 436.211 291.568 436.211 290.943C436.211 290.354 436.421 289.839 436.632 289.839C436.884 289.839 437.053 289.508 437.053 289.103C437.053 288.699 437.263 288.368 437.474 288.368C437.726 288.368 437.895 287.89 437.895 287.264C437.895 286.676 438.105 286.161 438.316 286.161C438.568 286.161 438.737 285.683 438.737 285.057C438.737 284.469 438.947 283.954 439.158 283.954C439.411 283.954 439.579 283.476 439.579 282.851C439.579 282.262 439.789 281.747 440 281.747C440.253 281.747 440.421 281.269 440.421 280.644C440.421 280.055 440.632 279.54 440.842 279.54C441.095 279.54 441.263 279.062 441.263 278.437C441.263 277.848 441.474 277.333 441.684 277.333C441.937 277.333 442.105 276.855 442.105 276.23C442.105 275.641 442.316 275.126 442.526 275.126C442.779 275.126 442.947 274.648 442.947 274.023C442.947 273.434 443.158 272.92 443.368 272.92C443.621 272.92 443.789 272.441 443.789 271.816C443.789 271.228 444 270.713 444.211 270.713C444.463 270.713 444.632 270.234 444.632 269.609C444.632 269.021 444.842 268.506 445.053 268.506C445.305 268.506 445.474 268.028 445.474 267.402C445.474 266.814 445.684 266.299 445.895 266.299C446.147 266.299 446.316 265.637 446.316 264.828C446.316 264.018 446.526 263.356 446.737 263.356C446.989 263.356 447.158 262.878 447.158 262.253C447.158 261.664 447.368 261.149 447.579 261.149C447.832 261.149 448 260.671 448 260.046C448 259.457 448.211 258.943 448.421 258.943C448.674 258.943 448.842 258.28 448.842 257.471C448.842 256.662 449.053 256 449.263 256C449.516 256 449.684 255.338 449.684 254.529C449.684 253.72 449.895 253.057 450.105 253.057C450.358 253.057 450.526 252.579 450.526 251.954C450.526 251.366 450.737 250.851 450.947 250.851C451.2 250.851 451.368 250.189 451.368 249.379C451.368 248.57 451.579 247.908 451.789 247.908C452.042 247.908 452.211 247.246 452.211 246.437C452.211 245.628 452.421 244.966 452.632 244.966C452.884 244.966 453.053 244.303 453.053 243.494C453.053 242.685 453.263 242.023 453.474 242.023C453.726 242.023 453.895 241.361 453.895 240.552C453.895 239.743 454.105 239.08 454.316 239.08C454.568 239.08 454.737 238.271 454.737 237.241C454.737 236.248 454.947 235.402 455.158 235.402C455.411 235.402 455.579 234.74 455.579 233.931C455.579 233.122 455.789 232.46 456 232.46C456.253 232.46 456.421 231.651 456.421 230.621C456.421 229.628 456.632 228.782 456.842 228.782C457.095 228.782 457.263 227.972 457.263 226.943C457.263 225.949 457.474 225.103 457.684 225.103C457.937 225.103 458.105 224.294 458.105 223.264C458.105 222.271 458.316 221.425 458.526 221.425C458.779 221.425 458.947 220.616 458.947 219.586C458.947 218.593 459.158 217.747 459.368 217.747C459.621 217.747 459.789 216.938 459.789 215.908C459.789 214.915 460 214.069 460.211 214.069C460.463 214.069 460.632 212.966 460.632 211.494C460.632 210.023 460.8 208.92 461.053 208.92C461.305 208.92 461.474 207.926 461.474 206.713C461.474 205.499 461.642 204.506 461.895 204.506C462.147 204.506 462.316 203.402 462.316 201.931C462.316 200.46 462.484 199.356 462.737 199.356C462.989 199.356 463.158 198.253 463.158 196.782C463.158 195.31 463.326 194.207 463.579 194.207C463.832 194.207 464 192.993 464 191.264C464 189.536 464.168 188.322 464.421 188.322C464.674 188.322 464.842 186.593 464.842 183.908C464.842 181.223 465.011 179.494 465.263 179.494C465.516 179.494 465.684 177.655 465.684 174.713C465.684 171.77 465.853 169.931 466.105 169.931C466.358 169.931 466.526 167.724 466.526 164.046C466.526 160.368 466.695 158.161 466.947 158.161C467.2 158.161 467.368 154.372 467.368 147.494C467.368 140.616 467.537 136.828 467.789 136.828C468.042 136.828 468.211 131.789 468.211 122.483V108.138H466.526C465.6 108.138 464.842 107.991 464.842 107.77C464.842 107.549 462.737 107.402 459.368 107.402C456 107.402 453.895 107.255 453.895 107.034C453.895 106.814 452.337 106.667 450.105 106.667C447.874 106.667 446.316 106.52 446.316 106.299C446.316 106.078 444.926 105.931 442.947 105.931C440.968 105.931 439.579 105.784 439.579 105.563C439.579 105.343 438.316 105.195 436.632 105.195C434.947 105.195 433.684 105.048 433.684 104.828C433.684 104.607 432.547 104.46 431.158 104.46C429.768 104.46 428.632 104.313 428.632 104.092C428.632 103.871 427.495 103.724 426.105 103.724C424.716 103.724 423.579 103.577 423.579 103.356C423.579 103.172 422.653 102.989 421.474 102.989C420.337 102.989 419.368 102.841 419.368 102.621C419.368 102.437 418.442 102.253 417.263 102.253C416.126 102.253 415.158 102.106 415.158 101.885C415.158 101.701 414.232 101.517 413.053 101.517C411.916 101.517 410.947 101.37 410.947 101.149C410.947 100.966 410.021 100.782 408.842 100.782C407.705 100.782 406.737 100.634 406.737 100.414C406.737 100.23 405.979 100.046 405.053 100.046C404.126 100.046 403.368 99.8989 403.368 99.6782C403.368 99.4943 402.611 99.3103 401.684 99.3103C400.758 99.3103 400 99.1632 400 98.9425C400 98.7586 399.242 98.5747 398.316 98.5747C397.389 98.5747 396.632 98.4276 396.632 98.2069C396.632 98.023 395.874 97.8391 394.947 97.8391C394.021 97.8391 393.263 97.692 393.263 97.4713C393.263 97.2874 392.505 97.1034 391.579 97.1034C390.653 97.1034 389.895 96.9563 389.895 96.7356C389.895 96.5517 389.137 96.3678 388.211 96.3678C387.284 96.3678 386.526 96.2207 386.526 96C386.526 95.8161 385.979 95.6322 385.263 95.6322C384.589 95.6322 384 95.4851 384 95.2644C384 95.0805 383.242 94.8966 382.316 94.8966C381.389 94.8966 380.632 94.7494 380.632 94.5287C380.632 94.3448 380.084 94.1609 379.368 94.1609C378.695 94.1609 378.105 94.0138 378.105 93.7931C378.105 93.6092 377.558 93.4253 376.842 93.4253C376.168 93.4253 375.579 93.2782 375.579 93.0575C375.579 92.8736 375.032 92.6897 374.316 92.6897C373.642 92.6897 373.053 92.5425 373.053 92.3218C373.053 92.1379 372.295 91.954 371.368 91.954C370.442 91.954 369.684 91.8069 369.684 91.5862C369.684 91.4023 369.137 91.2184 368.421 91.2184C367.747 91.2184 367.158 91.0713 367.158 90.8506C367.158 90.6667 366.611 90.4828 365.895 90.4828C365.221 90.4828 364.632 90.3356 364.632 90.1149C364.632 89.931 364.084 89.7471 363.368 89.7471C362.695 89.7471 362.105 89.6 362.105 89.3793C362.105 89.1954 361.726 89.0115 361.263 89.0115C360.8 89.0115 360.421 88.8644 360.421 88.6437C360.421 88.4598 359.874 88.2759 359.158 88.2759C358.484 88.2759 357.895 88.1287 357.895 87.908C357.895 87.7241 357.347 87.5402 356.632 87.5402C355.958 87.5402 355.368 87.3931 355.368 87.1724C355.368 86.9885 354.821 86.8046 354.105 86.8046C353.432 86.8046 352.842 86.6575 352.842 86.4368C352.842 86.2529 352.463 86.069 352 86.069C351.537 86.069 351.158 85.9218 351.158 85.7011C351.158 85.5172 350.611 85.3333 349.895 85.3333C349.221 85.3333 348.632 85.1862 348.632 84.9655C348.632 84.7816 348.084 84.5977 347.368 84.5977C346.695 84.5977 346.105 84.4506 346.105 84.2299C346.105 84.046 345.726 83.8621 345.263 83.8621C344.8 83.8621 344.421 83.7149 344.421 83.4943C344.421 83.3103 343.874 83.1264 343.158 83.1264C342.484 83.1264 341.895 82.9793 341.895 82.7586C341.895 82.5747 341.516 82.3908 341.053 82.3908C340.589 82.3908 340.211 82.2437 340.211 82.023C340.211 81.8391 339.663 81.6552 338.947 81.6552C338.274 81.6552 337.684 81.508 337.684 81.2874C337.684 81.1034 337.305 80.9195 336.842 80.9195C336.379 80.9195 336 80.7724 336 80.5517C336 80.3678 335.621 80.1839 335.158 80.1839C334.695 80.1839 334.316 80.0368 334.316 79.8161C334.316 79.6322 333.768 79.4483 333.053 79.4483C332.379 79.4483 331.789 79.3011 331.789 79.0805C331.789 78.8966 331.411 78.7126 330.947 78.7126C330.484 78.7126 330.105 78.5655 330.105 78.3448C330.105 78.1609 329.726 77.977 329.263 77.977C328.8 77.977 328.421 77.8299 328.421 77.6092C328.421 77.4253 327.874 77.2414 327.158 77.2414C326.484 77.2414 325.895 77.0943 325.895 76.8736C325.895 76.6897 325.516 76.5057 325.053 76.5057C324.589 76.5057 324.211 76.3586 324.211 76.1379C324.211 75.954 323.832 75.7701 323.368 75.7701C322.905 75.7701 322.526 75.623 322.526 75.4023C322.526 75.2184 322.147 75.0345 321.684 75.0345C321.221 75.0345 320.842 74.8874 320.842 74.6667C320.842 74.4828 320.463 74.2989 320 74.2989C319.537 74.2989 319.158 74.1517 319.158 73.931C319.158 73.7471 318.611 73.5632 317.895 73.5632C317.221 73.5632 316.632 73.4161 316.632 73.1954C316.632 73.0115 316.253 72.8276 315.789 72.8276C315.326 72.8276 314.947 72.6805 314.947 72.4598C314.947 72.2759 314.568 72.092 314.105 72.092C313.642 72.092 313.263 71.9448 313.263 71.7241C313.263 71.5402 312.884 71.3563 312.421 71.3563C311.958 71.3563 311.579 71.2092 311.579 70.9885C311.579 70.8046 311.242 70.6207 310.821 70.6207C310.4 70.6207 309.811 70.2897 309.474 69.8851C309.137 69.4805 308.547 69.1494 308.126 69.1494C307.705 69.1494 307.368 69.0023 307.368 68.7816C307.368 68.5977 306.989 68.4138 306.526 68.4138C306.063 68.4138 305.684 68.2667 305.684 68.046C305.684 67.8621 305.305 67.6782 304.842 67.6782C304.379 67.6782 304 67.531 304 67.3103C304 67.1264 303.621 66.9425 303.158 66.9425C302.695 66.9425 302.316 66.7954 302.316 66.5747C302.316 66.3908 301.937 66.2069 301.474 66.2069C301.011 66.2069 300.632 66.0598 300.632 65.8391C300.632 65.6552 300.253 65.4713 299.789 65.4713C299.326 65.4713 298.947 65.3241 298.947 65.1034C298.947 64.9195 298.568 64.7356 298.105 64.7356C297.642 64.7356 297.263 64.5885 297.263 64.3678C297.263 64.1839 296.884 64 296.421 64C295.958 64 295.579 63.8529 295.579 63.6322C295.579 63.4483 295.242 63.2644 294.821 63.2644C294.4 63.2644 293.811 62.9333 293.474 62.5287C293.137 62.1241 292.547 61.7931 292.126 61.7931C291.705 61.7931 291.368 61.646 291.368 61.4253C291.368 61.2414 290.989 61.0575 290.526 61.0575C290.063 61.0575 289.684 60.9103 289.684 60.6897C289.684 60.5057 289.305 60.3218 288.842 60.3218C288.379 60.3218 288 60.1747 288 59.954C288 59.7701 287.663 59.5862 287.242 59.5862C286.821 59.5862 286.232 59.2552 285.895 58.8506C285.558 58.446 284.968 58.1149 284.547 58.1149C284.126 58.1149 283.789 57.9678 283.789 57.7471C283.789 57.5632 283.453 57.3793 283.032 57.3793C282.611 57.3793 282.021 57.0483 281.684 56.6437C281.347 56.2391 280.758 55.908 280.337 55.908C279.916 55.908 279.579 55.7609 279.579 55.5402C279.579 55.3563 279.242 55.1724 278.821 55.1724C278.4 55.1724 277.811 54.8414 277.474 54.4368C277.137 54.0322 276.589 53.7011 276.211 53.7011C275.832 53.7011 275.284 53.3701 274.947 52.9655C274.611 52.5609 274.021 52.2299 273.6 52.2299C273.179 52.2299 272.842 52.0828 272.842 51.8621C272.842 51.6782 272.505 51.4943 272.084 51.4943C271.663 51.4943 271.074 51.1632 270.737 50.7586C270.4 50.354 269.853 50.023 269.474 50.023C269.095 50.023 268.547 49.692 268.211 49.2874C267.874 48.8828 267.284 48.5517 266.863 48.5517C266.442 48.5517 266.105 48.4046 266.105 48.1839C266.105 48 265.768 47.8161 265.347 47.8161C264.926 47.8161 264.337 47.4851 264 47.0805C263.663 46.6759 263.116 46.3448 262.737 46.3448C262.358 46.3448 261.811 46.0138 261.474 45.6092C261.137 45.2046 260.589 44.8736 260.211 44.8736C259.832 44.8736 259.284 44.5425 258.947 44.1379C258.611 43.7333 258.021 43.4023 257.6 43.4023C257.179 43.4023 256.842 43.2552 256.842 43.0345C256.842 42.3724 255.368 42.6299 254.737 43.4023C254.4 43.8069 253.853 44.1379 253.474 44.1379C253.095 44.1379 252.547 44.469 252.211 44.8736C251.874 45.2782 251.326 45.6092 250.947 45.6092C250.568 45.6092 250.021 45.9402 249.684 46.3448C249.347 46.7494 248.8 47.0805 248.421 47.0805C248.042 47.0805 247.495 47.4115 247.158 47.8161C246.821 48.2207 246.232 48.5517 245.811 48.5517C245.389 48.5517 245.053 48.7356 245.053 48.9195C245.053 49.1402 244.716 49.2874 244.295 49.2874C243.874 49.2874 243.284 49.6184 242.947 50.023C242.611 50.4276 242.063 50.7586 241.684 50.7586C241.305 50.7586 240.758 51.0897 240.421 51.4943C240.084 51.8989 239.495 52.2299 239.074 52.2299C238.653 52.2299 238.316 52.4138 238.316 52.5977C238.316 52.8184 237.979 52.9655 237.558 52.9655C237.137 52.9655 236.547 53.2966 236.211 53.7011C235.874 54.1057 235.284 54.4368 234.863 54.4368C234.442 54.4368 234.105 54.6207 234.105 54.8046C234.105 55.0253 233.768 55.1724 233.347 55.1724C232.926 55.1724 232.337 55.5034 232 55.908C231.663 56.3126 231.074 56.6437 230.653 56.6437C230.232 56.6437 229.895 56.8276 229.895 57.0115C229.895 57.2322 229.516 57.3793 229.053 57.3793C228.589 57.3793 228.211 57.5632 228.211 57.7471C228.211 57.9678 227.874 58.1149 227.453 58.1149C227.032 58.1149 226.442 58.446 226.105 58.8506C225.768 59.2552 225.179 59.5862 224.758 59.5862C224.337 59.5862 224 59.7701 224 59.954C224 60.1747 223.621 60.3218 223.158 60.3218C222.695 60.3218 222.316 60.5057 222.316 60.6897C222.316 60.9103 221.979 61.0575 221.558 61.0575C221.137 61.0575 220.547 61.3885 220.211 61.7931C219.874 62.1977 219.284 62.5287 218.863 62.5287C218.442 62.5287 218.105 62.7126 218.105 62.8966C218.105 63.1172 217.726 63.2644 217.263 63.2644C216.8 63.2644 216.421 63.4483 216.421 63.6322C216.421 63.8529 216.042 64 215.579 64C215.116 64 214.737 64.1839 214.737 64.3678C214.737 64.5885 214.358 64.7356 213.895 64.7356C213.432 64.7356 213.053 64.9195 213.053 65.1034C213.053 65.3241 212.674 65.4713 212.211 65.4713C211.747 65.4713 211.368 65.6552 211.368 65.8391C211.368 66.0598 211.032 66.2069 210.611 66.2069C210.189 66.2069 209.6 66.5379 209.263 66.9425C208.926 67.3471 208.337 67.6782 207.916 67.6782C207.495 67.6782 207.158 67.8621 207.158 68.046C207.158 68.2667 206.779 68.4138 206.316 68.4138C205.853 68.4138 205.474 68.5977 205.474 68.7816C205.474 69.0023 205.095 69.1494 204.632 69.1494C204.168 69.1494 203.789 69.3333 203.789 69.5172C203.789 69.7379 203.411 69.8851 202.947 69.8851C202.484 69.8851 202.105 70.069 202.105 70.2529C202.105 70.4736 201.726 70.6207 201.263 70.6207C200.8 70.6207 200.421 70.8046 200.421 70.9885C200.421 71.2092 200.042 71.3563 199.579 71.3563C199.116 71.3563 198.737 71.5402 198.737 71.7241C198.737 71.9448 198.358 72.092 197.895 72.092C197.432 72.092 197.053 72.2759 197.053 72.4598C197.053 72.6805 196.674 72.8276 196.211 72.8276C195.747 72.8276 195.368 73.0115 195.368 73.1954C195.368 73.4161 194.821 73.5632 194.105 73.5632C193.432 73.5632 192.842 73.7471 192.842 73.931C192.842 74.1517 192.463 74.2989 192 74.2989C191.537 74.2989 191.158 74.4828 191.158 74.6667C191.158 74.8874 190.779 75.0345 190.316 75.0345C189.853 75.0345 189.474 75.2184 189.474 75.4023C189.474 75.623 189.095 75.7701 188.632 75.7701C188.168 75.7701 187.789 75.954 187.789 76.1379C187.789 76.3586 187.411 76.5057 186.947 76.5057C186.484 76.5057 186.105 76.6897 186.105 76.8736C186.105 77.0943 185.726 77.2414 185.263 77.2414C184.8 77.2414 184.421 77.4253 184.421 77.6092C184.421 77.8299 183.874 77.977 183.158 77.977C182.484 77.977 181.895 78.1609 181.895 78.3448C181.895 78.5655 181.516 78.7126 181.053 78.7126C180.589 78.7126 180.211 78.8966 180.211 79.0805C180.211 79.3011 179.832 79.4483 179.368 79.4483C178.905 79.4483 178.526 79.6322 178.526 79.8161C178.526 80.0368 177.979 80.1839 177.263 80.1839C176.589 80.1839 176 80.3678 176 80.5517C176 80.7724 175.621 80.9195 175.158 80.9195C174.695 80.9195 174.316 81.1034 174.316 81.2874C174.316 81.508 173.937 81.6552 173.474 81.6552C173.011 81.6552 172.632 81.8391 172.632 82.023C172.632 82.2437 172.084 82.3908 171.368 82.3908C170.695 82.3908 170.105 82.5747 170.105 82.7586C170.105 82.9793 169.726 83.1264 169.263 83.1264C168.8 83.1264 168.421 83.3103 168.421 83.4943C168.421 83.7149 167.874 83.8621 167.158 83.8621C166.484 83.8621 165.895 84.046 165.895 84.2299C165.895 84.4506 165.516 84.5977 165.053 84.5977C164.589 84.5977 164.211 84.7816 164.211 84.9655C164.211 85.1862 163.663 85.3333 162.947 85.3333C162.274 85.3333 161.684 85.5172 161.684 85.7011C161.684 85.9218 161.137 86.069 160.421 86.069C159.747 86.069 159.158 86.2529 159.158 86.4368C159.158 86.6575 158.779 86.8046 158.316 86.8046C157.853 86.8046 157.474 86.9885 157.474 87.1724C157.474 87.3931 156.926 87.5402 156.211 87.5402C155.537 87.5402 154.947 87.7241 154.947 87.908C154.947 88.1287 154.4 88.2759 153.684 88.2759C153.011 88.2759 152.421 88.4598 152.421 88.6437C152.421 88.8644 151.874 89.0115 151.158 89.0115C150.484 89.0115 149.895 89.1954 149.895 89.3793C149.895 89.6 149.347 89.7471 148.632 89.7471C147.958 89.7471 147.368 89.931 147.368 90.1149C147.368 90.3356 146.821 90.4828 146.105 90.4828C145.432 90.4828 144.842 90.6667 144.842 90.8506C144.842 91.0713 144.295 91.2184 143.579 91.2184C142.905 91.2184 142.316 91.4023 142.316 91.5862C142.316 91.8069 141.768 91.954 141.053 91.954C140.379 91.954 139.789 92.1379 139.789 92.3218C139.789 92.5425 139.242 92.6897 138.526 92.6897C137.853 92.6897 137.263 92.8736 137.263 93.0575C137.263 93.2782 136.716 93.4253 136 93.4253C135.326 93.4253 134.737 93.6092 134.737 93.7931C134.737 94.0138 134.189 94.1609 133.474 94.1609C132.8 94.1609 132.211 94.3448 132.211 94.5287C132.211 94.7494 131.453 94.8966 130.526 94.8966C129.6 94.8966 128.842 95.0805 128.842 95.2644C128.842 95.4851 128.295 95.6322 127.579 95.6322C126.905 95.6322 126.316 95.8161 126.316 96C126.316 96.2207 125.558 96.3678 124.632 96.3678C123.705 96.3678 122.947 96.5517 122.947 96.7356C122.947 96.9563 122.4 97.1034 121.684 97.1034C121.011 97.1034 120.421 97.2874 120.421 97.4713C120.421 97.692 119.663 97.8391 118.737 97.8391C117.811 97.8391 117.053 98.023 117.053 98.2069C117.053 98.4276 116.295 98.5747 115.368 98.5747C114.442 98.5747 113.684 98.7586 113.684 98.9425C113.684 99.1632 112.758 99.3103 111.579 99.3103C110.442 99.3103 109.474 99.4943 109.474 99.6782C109.474 99.8989 108.716 100.046 107.789 100.046C106.863 100.046 106.105 100.23 106.105 100.414C106.105 100.634 105.347 100.782 104.421 100.782C103.495 100.782 102.737 100.966 102.737 101.149C102.737 101.37 101.811 101.517 100.632 101.517C99.4947 101.517 98.5263 101.701 98.5263 101.885C98.5263 102.106 97.6 102.253 96.4211 102.253C95.2842 102.253 94.3158 102.437 94.3158 102.621C94.3158 102.841 93.179 102.989 91.7895 102.989C90.4 102.989 89.2632 103.136 89.2632 103.356C89.2632 103.577 88.1263 103.724 86.7368 103.724C85.3474 103.724 84.2105 103.871 84.2105 104.092C84.2105 104.313 83.0737 104.46 81.6842 104.46C80.2947 104.46 79.1579 104.607 79.1579 104.828C79.1579 105.048 77.8947 105.195 76.2105 105.195C74.5263 105.195 73.2632 105.343 73.2632 105.563C73.2632 105.784 72 105.931 70.3158 105.931C68.6316 105.931 67.3684 106.078 67.3684 106.299C67.3684 106.52 65.6842 106.667 63.1579 106.667C60.6316 106.667 58.9474 106.814 58.9474 107.034C58.9474 107.255 56.9684 107.402 53.8947 107.402C50.8211 107.402 48.8421 107.549 48.8421 107.77C48.8421 107.991 47.7053 108.138 46.3158 108.138H43.7895V125.057C43.7895 136.092 43.9158 141.977 44.2105 141.977C44.4632 141.977 44.6316 145.03 44.6316 150.437C44.6316 155.844 44.8 158.897 45.0526 158.897C45.3053 158.897 45.4737 161.103 45.4737 164.782C45.4737 168.46 45.6421 170.667 45.8947 170.667C46.1474 170.667 46.3158 172.248 46.3158 174.713C46.3158 177.177 46.4842 178.759 46.7368 178.759C46.9895 178.759 47.1579 179.972 47.1579 181.701C47.1579 183.43 47.3263 184.644 47.5789 184.644C47.8316 184.644 48 185.857 48 187.586C48 189.315 48.1684 190.529 48.4211 190.529C48.6737 190.529 48.8421 191.743 48.8421 193.471C48.8421 195.2 49.0105 196.414 49.2632 196.414C49.5158 196.414 49.6842 197.517 49.6842 198.989C49.6842 200.46 49.8526 201.563 50.1053 201.563C50.3579 201.563 50.5263 202.667 50.5263 204.138C50.5263 205.609 50.6947 206.713 50.9474 206.713C51.2 206.713 51.3684 207.816 51.3684 209.287C51.3684 210.759 51.5368 211.862 51.7895 211.862C52.0421 211.862 52.2105 212.855 52.2105 214.069C52.2105 215.283 52.3789 216.276 52.6316 216.276C52.8842 216.276 53.0526 217.269 53.0526 218.483C53.0526 219.697 53.2211 220.69 53.4737 220.69C53.7263 220.69 53.8947 221.536 53.8947 222.529C53.8947 223.559 54.1053 224.368 54.3158 224.368C54.5684 224.368 54.7368 225.214 54.7368 226.207C54.7368 227.237 54.9474 228.046 55.1579 228.046C55.4105 228.046 55.5789 228.708 55.5789 229.517C55.5789 230.326 55.7895 230.989 56 230.989C56.2526 230.989 56.4211 231.834 56.4211 232.828C56.4211 233.857 56.6316 234.667 56.8421 234.667C57.0947 234.667 57.2632 235.513 57.2632 236.506C57.2632 237.536 57.4737 238.345 57.6842 238.345C57.9368 238.345 58.1053 239.007 58.1053 239.816C58.1053 240.625 58.3158 241.287 58.5263 241.287C58.7789 241.287 58.9474 241.949 58.9474 242.759C58.9474 243.568 59.1579 244.23 59.3684 244.23C59.6211 244.23 59.7895 244.892 59.7895 245.701C59.7895 246.51 60 247.172 60.2105 247.172C60.4632 247.172 60.6316 247.834 60.6316 248.644C60.6316 249.453 60.8421 250.115 61.0526 250.115C61.3053 250.115 61.4737 250.777 61.4737 251.586C61.4737 252.395 61.6842 253.057 61.8947 253.057C62.1474 253.057 62.3158 253.572 62.3158 254.161C62.3158 254.786 62.5263 255.264 62.7368 255.264C62.9895 255.264 63.1579 255.926 63.1579 256.736C63.1579 257.545 63.3684 258.207 63.579 258.207C63.8316 258.207 64 258.722 64 259.31C64 259.936 64.2105 260.414 64.4211 260.414C64.6737 260.414 64.8421 261.076 64.8421 261.885C64.8421 262.694 65.0526 263.356 65.2632 263.356C65.5158 263.356 65.6842 263.871 65.6842 264.46C65.6842 265.085 65.8947 265.563 66.1053 265.563C66.3579 265.563 66.5263 266.078 66.5263 266.667C66.5263 267.292 66.7368 267.77 66.9474 267.77C67.2 267.77 67.3684 268.285 67.3684 268.874C67.3684 269.499 67.579 269.977 67.7895 269.977C68.0421 269.977 68.2105 270.639 68.2105 271.448C68.2105 272.257 68.4211 272.92 68.6316 272.92C68.8842 272.92 69.0526 273.434 69.0526 274.023C69.0526 274.648 69.2632 275.126 69.4737 275.126C69.7263 275.126 69.8947 275.641 69.8947 276.23C69.8947 276.855 70.1053 277.333 70.3158 277.333C70.5684 277.333 70.7368 277.848 70.7368 278.437C70.7368 279.062 70.9474 279.54 71.1579 279.54C71.4105 279.54 71.579 280.055 71.579 280.644C71.579 281.269 71.7895 281.747 72 281.747C72.2526 281.747 72.4211 282.262 72.4211 282.851C72.4211 283.476 72.6316 283.954 72.8421 283.954C73.0947 283.954 73.2632 284.285 73.2632 284.69C73.2632 285.094 73.4737 285.425 73.6842 285.425C73.9368 285.425 74.1053 285.94 74.1053 286.529C74.1053 287.154 74.3158 287.632 74.5263 287.632C74.779 287.632 74.9474 288.147 74.9474 288.736C74.9474 289.361 75.1579 289.839 75.3684 289.839C75.6211 289.839 75.7895 290.17 75.7895 290.575C75.7895 290.979 76 291.31 76.2105 291.31C76.4632 291.31 76.6316 291.825 76.6316 292.414C76.6316 293.039 76.8421 293.517 77.0526 293.517C77.3053 293.517 77.4737 294.032 77.4737 294.621C77.4737 295.246 77.6842 295.724 77.8947 295.724C78.1474 295.724 78.3158 296.055 78.3158 296.46C78.3158 296.864 78.5263 297.195 78.7368 297.195C78.9895 297.195 79.1579 297.71 79.1579 298.299C79.1579 298.924 79.3684 299.402 79.579 299.402C79.8316 299.402 80 299.733 80 300.138C80 300.543 80.2105 300.874 80.4211 300.874C80.6737 300.874 80.8421 301.389 80.8421 301.977C80.8421 302.602 81.0526 303.08 81.2632 303.08C81.5158 303.08 81.6842 303.411 81.6842 303.816C81.6842 304.221 81.8947 304.552 82.1053 304.552C82.3579 304.552 82.5263 304.883 82.5263 305.287C82.5263 305.692 82.7368 306.023 82.9474 306.023C83.2 306.023 83.3684 306.354 83.3684 306.759C83.3684 307.163 83.579 307.494 83.7895 307.494C84.0421 307.494 84.2105 308.009 84.2105 308.598C84.2105 309.223 84.4211 309.701 84.6316 309.701C84.8842 309.701 85.0526 310.032 85.0526 310.437C85.0526 310.841 85.2632 311.172 85.4737 311.172C85.7263 311.172 85.8947 311.503 85.8947 311.908C85.8947 312.313 86.1053 312.644 86.3158 312.644C86.5684 312.644 86.7368 312.975 86.7368 313.379C86.7368 313.784 86.9474 314.115 87.1579 314.115C87.4105 314.115 87.579 314.63 87.579 315.218C87.579 315.844 87.7895 316.322 88 316.322C88.2526 316.322 88.4211 316.653 88.4211 317.057C88.4211 317.462 88.6316 317.793 88.8421 317.793C89.0947 317.793 89.2632 318.124 89.2632 318.529C89.2632 318.933 89.4737 319.264 89.6842 319.264C89.9368 319.264 90.1053 319.595 90.1053 320C90.1053 320.405 90.3158 320.736 90.5263 320.736C90.779 320.736 90.9474 321.067 90.9474 321.471C90.9474 321.876 91.1579 322.207 91.3684 322.207C91.6211 322.207 91.7895 322.538 91.7895 322.943C91.7895 323.347 92 323.678 92.2105 323.678C92.4632 323.678 92.6316 324.009 92.6316 324.414C92.6316 324.818 92.8421 325.149 93.0526 325.149C93.3053 325.149 93.4737 325.48 93.4737 325.885C93.4737 326.29 93.6842 326.621 93.8947 326.621C94.1474 326.621 94.3158 326.952 94.3158 327.356C94.3158 327.761 94.5263 328.092 94.7368 328.092C94.9895 328.092 95.1579 328.423 95.1579 328.828C95.1579 329.232 95.3684 329.563 95.579 329.563C95.8316 329.563 96 329.894 96 330.299C96 330.703 96.2105 331.034 96.4211 331.034C96.6737 331.034 96.8421 331.366 96.8421 331.77C96.8421 332.175 97.0526 332.506 97.2632 332.506C97.5158 332.506 97.6842 332.837 97.6842 333.241C97.6842 333.646 97.8947 333.977 98.1053 333.977C98.3579 333.977 98.5263 334.308 98.5263 334.713C98.5263 335.117 98.7368 335.448 98.9474 335.448C99.2 335.448 99.3684 335.743 99.3684 336.11C99.3684 336.478 99.7474 336.993 100.211 337.287C100.674 337.582 101.053 338.097 101.053 338.464C101.053 338.832 101.263 339.126 101.474 339.126C101.726 339.126 101.895 339.457 101.895 339.862C101.895 340.267 102.105 340.598 102.316 340.598C102.568 340.598 102.737 340.892 102.737 341.26C102.737 341.628 103.116 342.143 103.579 342.437C104.042 342.731 104.421 343.246 104.421 343.614C104.421 343.982 104.632 344.276 104.842 344.276C105.095 344.276 105.263 344.57 105.263 344.938C105.263 345.306 105.642 345.821 106.105 346.115C106.568 346.409 106.947 346.924 106.947 347.292C106.947 347.66 107.158 347.954 107.368 347.954C107.621 347.954 107.789 348.248 107.789 348.616C107.789 348.984 108.168 349.499 108.632 349.793C109.095 350.087 109.474 350.602 109.474 350.97C109.474 351.338 109.684 351.632 109.895 351.632C110.147 351.632 110.316 351.926 110.316 352.294C110.316 352.662 110.695 353.177 111.158 353.471C111.621 353.766 112 354.244 112 354.575C112 354.906 112.379 355.384 112.842 355.678C113.305 355.972 113.684 356.451 113.684 356.782C113.684 357.113 114.063 357.591 114.526 357.885C114.989 358.179 115.368 358.657 115.368 358.989C115.368 359.32 115.747 359.798 116.211 360.092C116.674 360.386 117.053 360.864 117.053 361.195C117.053 361.526 117.432 362.005 117.895 362.299C118.358 362.593 118.737 363.071 118.737 363.402C118.737 363.733 119.116 364.211 119.579 364.506C120.042 364.8 120.421 365.278 120.421 365.536C120.421 365.83 121.011 366.529 121.684 367.08C122.4 367.632 122.947 368.331 122.947 368.625C122.947 368.883 123.326 369.361 123.789 369.655C124.253 369.949 124.632 370.428 124.632 370.685C124.632 370.979 125.221 371.678 125.895 372.23C126.611 372.782 127.158 373.444 127.158 373.701C127.158 373.922 127.916 374.768 128.842 375.54C129.768 376.313 130.526 377.159 130.526 377.379C130.526 377.6 131.284 378.446 132.211 379.218C133.137 379.991 133.895 380.837 133.895 381.057C133.895 381.278 134.653 382.124 135.579 382.897C136.505 383.669 137.263 384.515 137.263 384.736C137.263 384.956 138.611 386.28 140.211 387.678C141.853 389.076 143.158 390.4 143.158 390.621C143.158 391.099 172.084 416.368 172.632 416.368C172.884 416.368 174.568 417.692 176.421 419.31C178.274 420.929 179.958 422.253 180.211 422.253C180.463 422.253 181.811 423.246 183.158 424.46C184.505 425.674 185.853 426.667 186.105 426.667C186.358 426.667 187.326 427.329 188.211 428.138C189.095 428.947 190.063 429.609 190.316 429.609C190.568 429.609 191.537 430.271 192.421 431.08C193.305 431.89 194.274 432.552 194.526 432.552C194.779 432.552 195.747 433.214 196.632 434.023C197.516 434.832 198.484 435.494 198.737 435.494C198.989 435.494 199.958 436.156 200.842 436.966C201.726 437.775 202.695 438.437 202.947 438.437C203.242 438.437 204 438.952 204.632 439.54C205.263 440.166 206.021 440.644 206.316 440.644C206.611 440.644 207.368 441.159 208 441.747C208.632 442.372 209.389 442.851 209.684 442.851C209.979 442.851 210.737 443.366 211.368 443.954C212 444.579 212.758 445.057 213.053 445.057C213.347 445.057 214.105 445.572 214.737 446.161C215.368 446.786 216.168 447.264 216.505 447.264C216.8 447.264 217.347 447.595 217.684 448C218.021 448.405 218.568 448.736 218.947 448.736C219.326 448.736 219.874 449.067 220.211 449.471C220.547 449.876 221.095 450.207 221.389 450.207C221.726 450.207 222.526 450.722 223.158 451.31C223.789 451.936 224.589 452.414 224.926 452.414C225.221 452.414 225.768 452.745 226.105 453.149C226.442 453.554 226.989 453.885 227.368 453.885C227.747 453.885 228.295 454.216 228.632 454.621C228.968 455.025 229.516 455.356 229.895 455.356C230.274 455.356 230.821 455.687 231.158 456.092C231.495 456.497 232.042 456.828 232.421 456.828C232.8 456.828 233.347 457.159 233.684 457.563C234.021 457.968 234.611 458.299 235.032 458.299C235.453 458.299 235.789 458.483 235.789 458.667C235.789 458.887 236.126 459.034 236.547 459.034C236.968 459.034 237.558 459.366 237.895 459.77C238.232 460.175 238.779 460.506 239.158 460.506C239.537 460.506 240.084 460.837 240.421 461.241C240.758 461.646 241.305 461.977 241.684 461.977C242.063 461.977 242.611 462.308 242.947 462.713C243.284 463.117 243.874 463.448 244.295 463.448C244.716 463.448 245.053 463.632 245.053 463.816C245.053 464.037 245.389 464.184 245.811 464.184C246.232 464.184 246.821 464.515 247.158 464.92C247.495 465.324 248.084 465.655 248.505 465.655C248.926 465.655 249.263 465.839 249.263 466.023C249.263 466.244 249.6 466.391 250.021 466.391C250.442 466.391 251.032 466.722 251.368 467.126C251.705 467.531 252.295 467.862 252.716 467.862C253.137 467.862 253.474 468.046 253.474 468.23C253.474 468.451 253.853 468.598 254.316 468.598C254.779 468.598 255.158 468.782 255.158 468.966C255.158 469.628 256.632 469.37 257.263 468.598Z" fill="#6B4EE6"/>
<path d="M224.842 311.54C224.842 311.357 224.294 311.173 223.579 311.173C222.905 311.173 222.315 311.026 222.315 310.805C222.315 310.621 221.936 310.437 221.473 310.437C221.01 310.437 220.631 310.29 220.631 310.069C220.631 309.885 220.252 309.701 219.789 309.701C219.326 309.701 218.947 309.554 218.947 309.334C218.947 309.15 218.652 308.966 218.315 308.966C217.979 308.966 201.094 294.474 180.842 276.782C160.589 259.09 144 244.34 144 244.046C144 243.752 143.831 243.494 143.579 243.494C143.368 243.494 143.157 243.163 143.157 242.759C143.157 242.354 142.989 242.023 142.736 242.023C142.526 242.023 142.315 241.692 142.315 241.288C142.315 240.883 142.147 240.552 141.894 240.552C141.684 240.552 141.473 240.221 141.473 239.816C141.473 239.412 141.305 239.081 141.052 239.081C140.842 239.081 140.631 238.419 140.631 237.609C140.631 236.8 140.463 236.138 140.21 236.138C139.957 236.138 139.789 234.924 139.789 233.196C139.789 231.467 139.957 230.253 140.21 230.253C140.463 230.253 140.631 229.591 140.631 228.782C140.631 227.973 140.842 227.311 141.052 227.311C141.305 227.311 141.473 226.832 141.473 226.207C141.473 225.619 141.684 225.104 141.894 225.104C142.147 225.104 142.315 224.809 142.315 224.442C142.315 224.074 142.694 223.559 143.157 223.265C143.621 222.97 144 222.529 144 222.271C144 221.573 149.305 217.012 150.105 217.012C150.442 217.012 150.736 216.865 150.736 216.644C150.736 216.46 151.115 216.276 151.579 216.276C152.042 216.276 152.421 216.129 152.421 215.908C152.421 215.724 152.8 215.54 153.263 215.54C153.726 215.54 154.105 215.393 154.105 215.173C154.105 214.989 154.863 214.805 155.789 214.805C156.715 214.805 157.473 214.658 157.473 214.437C157.473 214.216 158.61 214.069 160 214.069C161.389 214.069 162.526 214.216 162.526 214.437C162.526 214.658 163.284 214.805 164.21 214.805C165.136 214.805 165.894 214.989 165.894 215.173C165.894 215.393 166.484 215.54 167.157 215.54C167.873 215.54 168.421 215.724 168.421 215.908C168.421 216.129 168.757 216.276 169.179 216.276C169.6 216.276 170.189 216.607 170.526 217.012C170.863 217.416 171.368 217.747 171.705 217.747C172 217.747 173.389 218.74 174.736 219.954C176.084 221.168 177.431 222.161 177.684 222.161C178.357 222.161 197.052 238.639 197.052 239.265C197.052 239.559 197.347 239.816 197.684 239.816C198.526 239.816 203.789 244.414 203.789 245.15C203.789 245.444 204.084 245.701 204.421 245.701C205.263 245.701 207.157 247.357 207.157 248.092C207.157 248.386 207.536 248.644 208 248.644C208.463 248.644 208.842 248.901 208.842 249.196C208.842 249.931 213.263 253.793 214.105 253.793C214.442 253.793 214.736 254.051 214.736 254.345C214.736 255.081 217.473 257.471 218.315 257.471C218.652 257.471 218.947 257.729 218.947 258.023C218.947 258.649 224.168 263.357 224.842 263.357C225.515 263.357 228.21 265.821 228.21 266.483C228.21 266.777 228.505 267.035 228.842 267.035C229.179 267.035 235.621 261.665 243.157 255.081C250.694 248.497 256.842 242.869 256.842 242.575C256.842 242.281 257.136 242.023 257.515 242.023C258.273 242.023 259.368 241.177 259.368 240.589C259.368 240.074 359.873 152.276 360.463 152.276C360.715 152.276 361.473 151.798 362.105 151.173C362.736 150.584 363.579 150.069 363.957 150.069C364.336 150.069 364.631 149.922 364.631 149.701C364.631 149.517 365.01 149.334 365.473 149.334C365.936 149.334 366.315 149.186 366.315 148.966C366.315 148.782 366.905 148.598 367.579 148.598C368.294 148.598 368.842 148.451 368.842 148.23C368.842 148.009 370.4 147.862 372.631 147.862C374.863 147.862 376.421 148.009 376.421 148.23C376.421 148.451 377.179 148.598 378.105 148.598C379.031 148.598 379.789 148.782 379.789 148.966C379.789 149.186 380.168 149.334 380.631 149.334C381.094 149.334 381.473 149.517 381.473 149.701C381.473 149.922 381.852 150.069 382.315 150.069C382.779 150.069 383.157 150.253 383.157 150.437C383.157 150.658 383.494 150.805 383.915 150.805C384.336 150.805 384.926 151.136 385.263 151.54C385.6 151.945 386.105 152.276 386.442 152.276C387.157 152.276 389.894 154.667 389.894 155.292C389.894 155.586 390.273 156.028 390.736 156.322C391.2 156.616 391.579 157.131 391.579 157.499C391.579 157.867 391.789 158.161 392 158.161C392.252 158.161 392.421 158.492 392.421 158.897C392.421 159.301 392.631 159.632 392.842 159.632C393.094 159.632 393.263 159.963 393.263 160.368C393.263 160.773 393.473 161.104 393.684 161.104C393.936 161.104 394.105 161.766 394.105 162.575C394.105 163.384 394.315 164.046 394.526 164.046C394.779 164.046 394.947 165.628 394.947 168.092C394.947 170.557 394.779 172.138 394.526 172.138C394.315 172.138 394.105 172.653 394.105 173.242C394.105 173.867 393.936 174.345 393.684 174.345C393.473 174.345 393.263 174.676 393.263 175.081C393.263 175.485 393.094 175.816 392.842 175.816C392.631 175.816 392.421 176.111 392.421 176.478C392.421 176.846 392.042 177.361 391.579 177.655C391.115 177.95 390.736 178.428 390.736 178.685C390.736 179.458 376.842 191.228 375.157 191.89C373.515 192.552 370.105 195.237 370.105 195.862C370.105 196.083 369.179 197.076 368 198.069C366.863 199.062 365.894 200.092 365.894 200.35C365.894 200.975 243.115 308.23 242.4 308.23C242.105 308.23 241.6 308.561 241.263 308.966C240.926 309.37 240.336 309.701 239.915 309.701C239.494 309.701 239.157 309.885 239.157 310.069C239.157 310.29 238.779 310.437 238.315 310.437C237.852 310.437 237.473 310.621 237.473 310.805C237.473 311.026 236.926 311.173 236.21 311.173C235.536 311.173 234.947 311.357 234.947 311.54C234.947 311.761 232.968 311.908 229.894 311.908C226.821 311.908 224.842 311.761 224.842 311.54Z" fill="#6B4EE6"/>
<path d="M328.126 232.901C327.789 232.717 333.6 227.421 345.516 217.012C357.431 206.602 363.663 200.901 364.21 199.908C364.631 199.099 365.852 197.701 366.905 196.782C367.958 195.899 368.842 194.979 368.842 194.759C368.842 194.133 372.252 191.448 373.895 190.786C374.695 190.455 376.042 189.609 376.8 188.91C377.6 188.175 378.484 187.586 378.737 187.586C378.989 187.586 381.137 185.857 383.579 183.724C387.621 180.156 389.052 179.274 389.052 180.23C389.052 180.524 329.052 233.195 328.758 233.195C328.674 233.195 328.421 233.048 328.126 232.901Z" fill="#6B4EE6"/>
<path d="M0.926316 153.122C0.884211 151.834 0.673684 150.805 0.421053 150.805C0.126316 150.805 0 139.88 0 118.805C0 97.7287 0.126316 86.8046 0.421053 86.8046C0.673684 86.8046 0.842105 86.1425 0.842105 85.3333C0.842105 84.5241 1.05263 83.862 1.26316 83.862C1.51579 83.862 1.68421 83.3839 1.68421 82.7586C1.68421 82.1701 1.85263 81.6551 2.06316 81.6551C2.27368 81.6551 2.56842 81.2873 2.65263 80.8459C2.82105 80.1471 2.82105 80.1471 2.90526 81.0298C2.90526 81.5816 2.61053 82.5747 2.23158 83.2367C1.51579 84.4137 0.757895 87.9816 0.842105 89.8574C0.926316 91.2183 0.884211 98.5379 0.842105 102.915C0.463158 124.138 0.463158 144.956 0.842105 146.023C1.09474 146.759 1.26316 149.039 1.17895 151.356C1.09474 153.6 0.968421 154.372 0.926316 153.122Z" fill="#6B4EE6"/>
<path d="M467.915 138.593C468.084 135.687 468.21 127.485 468.21 120.386C468.21 111.963 468.379 107.402 468.631 107.402C468.884 107.402 469.052 107.917 469.052 108.506C469.052 109.131 469.263 109.609 469.473 109.609C469.726 109.609 469.894 109.94 469.894 110.345C469.894 110.749 469.726 111.081 469.473 111.081C469.179 111.081 469.052 116.782 469.052 127.448C469.052 142.418 469.01 143.816 468.336 143.816C467.747 143.816 467.705 143.301 467.915 138.593Z" fill="#6B4EE6"/>
</g>
<defs>
<clipPath id="clip0_2848_4461">
<rect width="512" height="512" fill="white"/>
</clipPath>
</defs>
</svg>
