<svg width="100" height="100" viewBox="0 0 100 100" fill="none" xmlns="http://www.w3.org/2000/svg">
<g clip-path="url(#clip0_2801_2398)">
<mask id="mask0_2801_2398" style="mask-type:luminance" maskUnits="userSpaceOnUse" x="0" y="0" width="100" height="100">
<path d="M100 0H0V100H100V0Z" fill="white"/>
</mask>
<g mask="url(#mask0_2801_2398)">
<path d="M49.9997 14.7142C69.2587 14.7142 84.8955 30.351 84.8955 49.6099C84.8955 68.8689 69.2587 84.5057 49.9997 84.5057C30.7408 84.5057 15.104 68.8689 15.104 49.6099C15.104 30.351 30.7408 14.7142 49.9997 14.7142Z" stroke="#5A4BB2" stroke-width="3.68332"/>
<path d="M49.9997 31.2892C69.2587 31.2892 84.8955 39.4988 84.8955 49.61C84.8955 59.7213 69.2587 67.9308 49.9997 67.9308C30.7408 67.9308 15.104 59.7213 15.104 49.61C15.104 39.4988 30.7408 31.2892 49.9997 31.2892Z" stroke="#5A4BB2" stroke-width="3.68332"/>
<path d="M50 14.7142C60.1113 14.7142 68.3208 30.351 68.3208 49.6099C68.3208 68.8689 60.1113 84.5057 50 84.5057C39.8888 84.5057 31.6792 68.8689 31.6792 49.6099C31.6792 30.351 39.8888 14.7142 50 14.7142Z" stroke="#5A4BB2" stroke-width="3.68332"/>
<path d="M50.3392 14.3605V85.6395H49.4956V14.3605H50.3392Z" stroke="#5A4BB2" stroke-width="2.16486"/>
<path d="M85.5568 50.4217H14.2778V49.5781H85.5568V50.4217Z" stroke="#5A4BB2" stroke-width="2.16486"/>
<path d="M32.9783 60.474C35.6973 60.474 37.9053 62.6819 37.9053 65.401C37.9053 68.1201 35.6973 70.328 32.9783 70.328C30.2592 70.328 28.0513 68.1201 28.0513 65.401C28.0513 62.6819 30.2592 60.474 32.9783 60.474Z" fill="#B7B7B7" stroke="#5A4BB2"/>
<path d="M32.9783 59.974C35.9735 59.974 38.4053 62.4058 38.4053 65.401C38.4053 68.3962 35.9735 70.828 32.9783 70.828C29.9831 70.828 27.5513 68.3962 27.5513 65.401C27.5513 62.4058 29.9831 59.974 32.9783 59.974Z" fill="#5A4BB2" stroke="#5A4BB2" stroke-width="4.52064"/>
<path d="M54.963 31.603C54.963 34.3221 52.755 36.53 50.036 36.53C47.3169 36.53 45.1089 34.3221 45.1089 31.603C45.1089 28.884 47.3169 26.676 50.036 26.676C52.755 26.676 54.963 28.884 54.963 31.603Z" fill="#B7B7B7" stroke="#5A4BB2"/>
<path d="M55.463 31.603C55.463 34.5982 53.0311 37.03 50.036 37.03C47.0408 37.03 44.6089 34.5982 44.6089 31.603C44.6089 28.6078 47.0408 26.176 50.036 26.176C53.0311 26.176 55.463 28.6078 55.463 31.603Z" fill="#5A4BB2" stroke="#5A4BB2" stroke-width="4.52064"/>
<path d="M73.151 49.728C73.151 52.4471 70.9429 54.655 68.224 54.655C65.5049 54.655 63.2969 52.4471 63.2969 49.728C63.2969 47.009 65.5049 44.801 68.224 44.801C70.9429 44.801 73.151 47.009 73.151 49.728Z" fill="white" stroke="#5A4BB2"/>
<path d="M73.651 49.728C73.651 52.7232 71.2191 55.155 68.224 55.155C65.2288 55.155 62.7969 52.7232 62.7969 49.728C62.7969 46.7328 65.2288 44.301 68.224 44.301C71.2191 44.301 73.651 46.7328 73.651 49.728Z" fill="#5A4BB2" stroke="#5A4BB2" stroke-width="4.52064"/>
</g>
</g>
<defs>
<clipPath id="clip0_2801_2398">
<rect width="100" height="100" fill="white"/>
</clipPath>
</defs>
</svg>
