<svg width="100" height="100" viewBox="0 0 100 100" fill="none" xmlns="http://www.w3.org/2000/svg">
<mask id="mask0_448_561" style="mask-type:luminance" maskUnits="userSpaceOnUse" x="0" y="0" width="100" height="100">
<path d="M100 0H0V100H100V0Z" fill="white"/>
</mask>
<g mask="url(#mask0_448_561)">
<path d="M49.9997 14.7143C69.2587 14.7143 84.8955 30.3511 84.8955 49.61C84.8955 68.869 69.2587 84.5058 49.9997 84.5058C30.7408 84.5058 15.104 68.869 15.104 49.61C15.104 30.3511 30.7408 14.7143 49.9997 14.7143Z" stroke="white" stroke-width="3.68332"/>
<path d="M49.9997 31.2892C69.2587 31.2892 84.8955 39.4988 84.8955 49.61C84.8955 59.7213 69.2587 67.9308 49.9997 67.9308C30.7408 67.9308 15.104 59.7213 15.104 49.61C15.104 39.4988 30.7408 31.2892 49.9997 31.2892Z" stroke="white" stroke-width="3.68332"/>
<path d="M50 14.7143C60.1113 14.7143 68.3208 30.3511 68.3208 49.61C68.3208 68.869 60.1113 84.5058 50 84.5058C39.8888 84.5058 31.6792 68.869 31.6792 49.61C31.6792 30.3511 39.8888 14.7143 50 14.7143Z" stroke="white" stroke-width="3.68332"/>
<path d="M50.3392 14.3605V85.6395H49.4956V14.3605H50.3392Z" stroke="white" stroke-width="2.16486"/>
<path d="M85.5566 50.4218H14.2776V49.5782H85.5566V50.4218Z" stroke="white" stroke-width="2.16486"/>
<path d="M32.9778 59.974C35.973 59.974 38.4048 62.4058 38.4048 65.401C38.4048 68.3962 35.973 70.828 32.9778 70.828C29.9826 70.828 27.5508 68.3962 27.5508 65.401C27.5508 62.4058 29.9826 59.974 32.9778 59.974Z" fill="#B7B7B7"/>
<path d="M32.9778 59.974C35.973 59.974 38.4048 62.4058 38.4048 65.401C38.4048 68.3962 35.973 70.828 32.9778 70.828C29.9826 70.828 27.5508 68.3962 27.5508 65.401C27.5508 62.4058 29.9826 59.974 32.9778 59.974Z" fill="#B7B7B7" stroke="white" stroke-width="4.52064"/>
<path d="M55.4629 31.603C55.4629 34.5982 53.031 37.03 50.0359 37.03C47.0407 37.03 44.6088 34.5982 44.6088 31.603C44.6088 28.6078 47.0407 26.176 50.0359 26.176C53.031 26.176 55.4629 28.6078 55.4629 31.603Z" fill="#B7B7B7"/>
<path d="M55.4629 31.603C55.4629 34.5982 53.031 37.03 50.0359 37.03C47.0407 37.03 44.6088 34.5982 44.6088 31.603C44.6088 28.6078 47.0407 26.176 50.0359 26.176C53.031 26.176 55.4629 28.6078 55.4629 31.603Z" fill="#B7B7B7" stroke="white" stroke-width="4.52064"/>
<path d="M73.6509 49.728C73.6509 52.7232 71.219 55.155 68.2239 55.155C65.2287 55.155 62.7968 52.7232 62.7968 49.728C62.7968 46.7328 65.2287 44.301 68.2239 44.301C71.219 44.301 73.6509 46.7328 73.6509 49.728Z" fill="white"/>
<path d="M73.6509 49.728C73.6509 52.7232 71.219 55.155 68.2239 55.155C65.2287 55.155 62.7968 52.7232 62.7968 49.728C62.7968 46.7328 65.2287 44.301 68.2239 44.301C71.219 44.301 73.6509 46.7328 73.6509 49.728Z" fill="#B7B7B7" stroke="white" stroke-width="4.52064"/>
</g>
</svg>
