<svg width="100" height="99" viewBox="0 0 100 99" fill="none" xmlns="http://www.w3.org/2000/svg">
<path d="M91.25 41.25V38.0221C91.25 30.0212 91.25 26.0208 88.8336 23.5352C86.4171 21.0496 82.5281 21.0496 74.75 21.0496H66.1758C62.3915 21.0496 62.3602 21.0423 58.9574 19.3394L45.2146 12.4622C39.4765 9.59079 36.6074 8.15508 33.5511 8.25487C30.4946 8.35465 27.7199 9.97458 22.1705 13.2145L17.1055 16.1715C13.0292 18.5513 10.9911 19.7413 9.87052 21.7208C8.75 23.7003 8.75 26.111 8.75 30.9323V64.8273C8.75 71.162 8.75 74.3296 10.1618 76.0926C11.1013 77.2654 12.4178 78.0541 13.8733 78.3156C16.0606 78.7083 18.7386 77.1449 24.0945 74.0178C27.7314 71.8946 31.2317 69.6894 35.5826 70.2875C39.2283 70.7883 42.6162 73.0888 45.875 74.7194" stroke="#5A4BB2" stroke-width="4" stroke-linecap="round" stroke-linejoin="round"/>
<path d="M33.5 8.25V70.125" stroke="#5A4BB2" stroke-width="4" stroke-linejoin="round"/>
<path d="M62.375 20.625V39.1875" stroke="#5A4BB2" stroke-width="4" stroke-linecap="round" stroke-linejoin="round"/>
<path d="M76.0217 89.4444C75.1274 90.2818 73.932 90.75 72.6879 90.75C71.4438 90.75 70.2484 90.2818 69.3541 89.4444C61.1635 81.7286 50.1877 73.1094 55.5403 60.5954C58.4344 53.8296 65.3817 49.5 72.6879 49.5C79.9941 49.5 86.9414 53.8296 89.8355 60.5954C95.1815 73.0934 84.2325 81.755 76.0217 89.4444Z" stroke="#5A4BB2" stroke-width="4"/>
<path d="M72.6875 68.0625H72.7246" stroke="#5A4BB2" stroke-width="4" stroke-linecap="round" stroke-linejoin="round"/>
</svg>
