<svg width="512" height="512" viewBox="0 0 512 512" fill="none" xmlns="http://www.w3.org/2000/svg">
<g clip-path="url(#clip0_2848_4780)">
<path d="M8.1691 510.605C5.81005 509.785 3.53838 507.939 2.40255 505.805C2.05306 505.231 1.57251 503.18 1.3104 501.293C1.00459 498.954 0.873535 454.154 0.873535 361.19C0.873535 236.882 0.917221 224.369 1.57251 222.934C2.62098 220.513 4.23736 218.749 6.72746 217.272C9.39231 215.631 19.5711 211.241 34.0749 205.416C39.9725 203.036 47.4428 199.959 50.6756 198.564C53.9084 197.169 59.937 194.667 63.9998 192.944C68.1063 191.262 74.266 188.677 77.7609 187.2C81.2558 185.723 84.7944 184.246 85.6244 183.918C86.4544 183.59 88.4203 182.769 89.993 182.072C91.5657 181.416 94.7985 180.062 97.2012 179.077C102.225 177.067 112.054 172.964 116.205 171.159C117.777 170.503 121.316 168.985 124.068 167.795C126.82 166.605 131.669 164.554 134.771 163.159L140.45 160.657L145.693 160.698L150.935 160.78L155.959 162.79C161.988 165.21 164.74 166.154 176.71 169.887C181.777 171.487 186.714 173.21 187.719 173.785C189.816 174.934 191.825 177.477 192.568 179.939C193.31 182.277 193.223 187.61 192.48 189.334C190.82 192.985 187.238 195.446 182.782 195.939C180.467 196.226 179.68 195.98 167.973 192C164.609 190.851 160.983 189.621 159.891 189.251C158.798 188.923 157.575 188.472 157.138 188.226C156.396 187.857 156.396 192.616 156.57 304.287C156.702 368.328 156.964 424.41 157.138 428.923L157.488 437.128L160.327 437.703C161.9 437.99 165.526 438.975 168.409 439.836C171.293 440.657 176.491 442.134 179.986 443.077C183.481 443.98 186.932 444.923 187.631 445.128C188.374 445.375 192.568 446.523 197.024 447.754C201.48 448.985 208.469 450.913 212.532 452.062C230.618 457.19 235.948 458.708 239.618 459.693C245.734 461.375 254.602 463.836 257.966 464.821C260.805 465.641 262.553 466.093 267.795 467.487C270.241 468.144 278.498 470.523 285.925 472.698C291.167 474.216 294.225 475.118 305.147 478.359C307.331 479.016 311.918 480.493 315.413 481.641C318.908 482.79 322.097 483.857 322.534 483.98C323.32 484.226 323.364 483.405 323.102 459.857C322.621 417.395 321.878 311.713 321.835 274.38L321.747 238.359L315.413 236.472C306.85 233.846 304.797 233.026 302.482 231.221C299.598 228.923 298.637 226.954 298.637 222.975C298.637 220.267 298.856 219.241 299.904 217.108C302.525 211.651 308.205 208.985 313.753 210.667C315.02 211.077 317.553 211.98 319.345 212.718C324.98 214.975 334.722 218.38 335.683 218.339C336.207 218.339 337.605 217.928 338.785 217.436C340.008 216.944 343.547 215.631 346.648 214.523C349.794 213.416 352.721 212.308 353.201 212.103C353.682 211.898 355.953 211.077 358.225 210.298C360.497 209.518 364.647 208.041 367.399 207.057C370.151 206.031 376.661 203.693 381.816 201.846C390.16 198.851 396.494 196.554 403.44 194.051C404.663 193.6 409.163 191.918 413.488 190.318C417.813 188.718 425.502 185.969 430.525 184.205C435.593 182.4 444.418 179.282 450.184 177.231C455.951 175.139 461.674 173.128 462.853 172.718C464.076 172.308 468.183 170.831 472.027 169.436C485.876 164.431 495.224 161.149 497.147 160.575C501.035 159.467 506.146 161.928 508.68 166.154L510.034 168.41L510.078 288C510.121 377.682 510.252 410.134 510.689 417.723C510.951 423.303 511.257 431.426 511.301 435.775C511.345 444.677 511.257 445.046 508.112 447.713C506.626 448.944 502.127 451.282 501.209 451.282C501.035 451.282 498.85 452.021 496.317 452.964C493.783 453.867 489.633 455.344 487.099 456.246C484.565 457.149 480.546 458.626 478.143 459.487C475.74 460.349 471.634 461.826 468.969 462.769C466.348 463.713 461.237 465.559 457.611 466.872C449.616 469.785 440.486 473.067 435.768 474.708C433.846 475.405 431.443 476.308 430.394 476.759C429.39 477.169 428.341 477.539 428.123 477.539C427.861 477.539 426.856 477.908 425.807 478.318C424.803 478.769 422.618 479.59 420.915 480.123C419.254 480.698 414.711 482.298 410.867 483.693C407.022 485.087 401.911 486.934 399.508 487.795C397.106 488.657 392.3 490.38 388.805 491.693C382.558 493.99 380.549 494.687 366.744 499.693C362.899 501.087 355.822 503.672 351.017 505.436C339.396 509.703 340.008 509.539 334.416 509.539C327.339 509.539 319.476 507.857 311.481 504.616C309.428 503.754 305.715 502.482 303.181 501.785C300.647 501.046 297.895 500.267 297.065 500.021C296.235 499.775 295.142 499.446 294.662 499.241C294.181 499.077 293.308 498.831 292.696 498.749C291.08 498.462 269.411 492.513 264.737 491.118C264.125 490.913 262.16 490.339 260.368 489.846C258.577 489.354 256.742 488.78 256.349 488.575C255.912 488.369 255.301 488.205 254.951 488.205C254.383 488.205 245.646 485.662 241.583 484.267C239.574 483.61 235.118 482.298 232.409 481.6C229.876 480.903 228.521 480.534 222.143 478.769C218.779 477.826 215.372 476.882 214.629 476.677C213.843 476.472 212.532 476.144 211.79 475.939C211.003 475.734 207.639 474.79 204.363 473.887C201.043 472.944 195.713 471.467 192.568 470.605C189.379 469.703 184.704 468.39 182.17 467.693C179.637 466.995 177.016 466.257 176.273 466.052C175.574 465.887 171.904 464.862 168.191 463.836C164.478 462.81 160.633 461.744 159.672 461.457C158.711 461.21 155.085 460.144 151.678 459.077L145.387 457.108L142.722 458.134C141.237 458.708 139.227 459.487 138.266 459.939C135.47 461.169 125.553 465.149 120.355 467.159C117.734 468.185 114.501 469.457 113.234 469.99C111.967 470.523 110.831 470.975 110.744 470.975C110.656 470.975 109.521 471.426 108.254 471.959C106.943 472.534 104.846 473.354 103.536 473.846C102.225 474.339 100.084 475.2 98.7302 475.775C97.4196 476.349 90.9104 478.975 84.3138 481.641C77.7172 484.308 68.6742 487.959 64.2182 489.805C53.4715 494.277 53.2967 494.359 51.8114 495.016C51.1124 495.344 50.4135 495.59 50.2387 495.59C50.0203 495.59 46.8749 496.944 43.2053 498.626C39.492 500.267 35.1234 502.236 33.4196 502.975C31.7595 503.713 28.4831 505.149 26.2114 506.175C14.3288 511.467 12.2319 511.959 8.1691 510.605ZM357.963 478.277C361.065 477.169 364.822 475.857 366.263 475.323C369.452 474.134 385.529 468.267 391.645 466.052C394.048 465.19 398.46 463.59 401.474 462.564C404.489 461.498 409.207 459.816 411.959 458.79C416.764 457.026 420.696 455.631 430.438 452.144C432.884 451.241 438.433 449.231 442.758 447.672C447.082 446.072 453.592 443.734 457.174 442.462C460.8 441.19 466.566 439.139 470.061 437.908C473.556 436.636 477.488 435.241 478.798 434.79C480.109 434.339 481.813 433.723 482.512 433.436C483.254 433.108 484.347 432.78 485.002 432.616C485.657 432.452 486.356 432.123 486.575 431.877C487.099 431.18 486.138 189.457 485.57 188.8C485.526 188.759 481.376 190.195 476.352 192.041C471.328 193.846 464.688 196.267 461.543 197.375C458.441 198.523 455.47 199.59 454.99 199.795C454.072 200.164 446.078 203.036 437.952 205.949C435.331 206.893 432.753 207.795 432.273 208C431.792 208.164 430.525 208.657 429.433 209.026C428.341 209.395 426.9 209.969 426.157 210.257C425.458 210.544 422.181 211.734 418.949 212.923C415.716 214.072 412.177 215.385 411.085 215.795C409.993 216.246 406.673 217.436 403.659 218.503C398.504 220.308 388.237 223.877 380.942 226.462C379.151 227.077 374.826 228.636 371.331 229.908C364.996 232.246 364.385 232.493 361.938 233.436C361.239 233.723 358.968 234.585 356.915 235.364C349.357 238.236 346.386 239.549 345.775 240.205C345.512 240.534 345.425 244.554 345.644 251.734C345.775 257.805 346.037 289.19 346.168 321.436C346.561 404.841 347.173 480.041 347.522 481.108L347.828 482.01L350.099 481.149C351.323 480.698 354.861 479.385 357.963 478.277ZM26.4299 480.821C26.6046 480.575 27.3473 480.123 28.0899 479.836C28.8763 479.508 32.9391 477.744 37.1329 475.898C41.3268 474.052 47.7486 471.344 51.3309 469.908C54.9568 468.472 58.9759 466.831 60.2865 466.257C61.5971 465.723 68.98 462.728 76.6688 459.693C93.051 453.128 98.2933 451.036 100.696 450.052C101.657 449.641 104.409 448.575 106.812 447.631C109.215 446.728 113.846 444.964 117.078 443.652C120.311 442.38 125.422 440.41 128.349 439.262C133.592 437.293 133.766 437.169 133.461 436.144C132.849 433.805 132.325 367.385 132.237 280.944C132.194 230.893 132.106 189.949 132.019 189.949C131.932 189.949 130.534 190.482 128.961 191.139C127.345 191.795 122.321 193.846 117.734 195.693C113.19 197.539 108.865 199.303 108.123 199.631C105.545 200.698 94.4053 205.251 85.6244 208.78C73.6107 213.662 68.7179 215.672 62.4708 218.38C56.2237 221.087 54.3889 221.867 52.2046 222.769C51.0251 223.262 48.9718 224.123 47.7049 224.657C46.438 225.19 45.3459 225.641 45.2585 225.641C45.1275 225.641 43.5985 226.298 41.8073 227.077C40.0162 227.857 38.4435 228.513 38.2688 228.513C38.1377 228.513 36.2155 229.293 33.9875 230.277C31.7595 231.262 29.2258 232.328 28.3957 232.616C27.5657 232.944 26.4735 233.395 26.0367 233.682C25.2503 234.216 25.2066 236.185 25.3814 318.236C25.4688 364.431 25.5561 420.021 25.5561 441.764C25.5561 463.467 25.6872 481.231 25.8619 481.231C26.0367 481.231 26.2988 481.026 26.4299 480.821Z" fill="#6B4EE6"/>
<path d="M251.194 248.862C246.869 247.959 245.297 246.769 242.763 242.462C242.195 241.436 239.487 236.841 236.778 232.205C234.069 227.569 231.142 222.605 230.225 221.128C229.351 219.652 227.953 217.354 227.167 216C224.59 211.569 223.847 210.339 219.085 202.462C216.508 198.195 212.445 191.303 210.086 187.2C207.727 183.139 203.882 176.657 201.611 172.841C195.145 162.216 185.272 143.508 181.646 134.975C180.947 133.293 179.986 131.159 179.549 130.257C173.04 116.677 166.88 93.9079 166.88 83.5284C166.88 74.6259 169.676 62.8515 174.089 53.1284C180.03 40.0823 191.126 26.2977 202.703 17.6413C223.148 2.33869 248.879 -3.36387 272.732 2.01049C295.667 7.22074 313.971 19.4874 327.383 38.6054C336.207 51.2413 341.275 64.8618 342.935 80.4105C343.459 85.2515 343.416 85.9079 341.624 96.0002C339.265 109.334 332.975 127.713 326.116 141.334C324.98 143.59 323.189 147.118 322.184 149.128C317.859 157.785 310.651 171.241 307.768 176C306.02 178.831 303.137 183.795 301.346 187.077C297.895 193.272 283.828 216.452 278.28 225.026C276.532 227.734 274.741 230.523 274.348 231.18C270.635 237.21 266.353 243.077 263.907 245.457C262.116 247.262 260.762 248 257.791 248.862C255.432 249.518 254.383 249.518 251.194 248.862ZM258.534 211.816C260.194 209.354 263.776 203.775 266.484 199.385C269.193 194.995 272.338 189.908 273.474 188.103C274.61 186.298 275.833 184.287 276.183 183.59C276.532 182.934 278.804 178.954 281.207 174.769C291.254 157.334 299.773 141.498 303.181 133.949C303.705 132.841 304.404 131.364 304.71 130.667C305.016 130.01 305.802 128.164 306.457 126.564C307.112 125.005 307.811 123.323 308.03 122.872C310.214 118.277 315.238 102.154 316.287 96.2874C316.505 95.0977 316.986 92.5951 317.335 90.6669C318.515 84.5541 318.121 75.9797 316.33 69.1284C313.622 58.9541 304.448 45.6207 294.793 37.9079C286.056 30.8925 277.93 27.3233 265.392 24.9848C259.844 23.9182 244.641 24.4515 239.618 25.8874C226.206 29.6207 216.115 35.7336 207.683 45.2105C193.179 61.4156 189.204 77.2105 194.359 98.2566C196.019 104.985 199.077 114.503 200.693 117.949C201.043 118.646 201.436 119.631 201.611 120.205C203.009 124.595 213.755 146.298 218.648 154.667C220.92 158.482 222.449 161.067 224.415 164.513C225.158 165.744 226.337 167.795 227.036 169.026C227.779 170.257 229.046 172.472 229.876 173.949C233.414 180.062 239.705 190.934 242.676 195.898C244.379 198.852 246.869 203.077 248.136 205.334C251.413 211.118 254.733 216.205 255.345 216.205C255.388 216.205 256.83 214.236 258.534 211.816Z" fill="#6B4EE6"/>
<path d="M248.573 125.744C236.079 123.364 225.726 115.816 220.745 105.477C219.435 102.77 218.081 97.8465 217.6 94.1132C216.071 81.9286 222.886 68.3081 234.026 61.4978C243.462 55.7542 255.869 54.1953 266.485 57.4363C272.426 59.2414 276.576 61.5388 280.814 65.3953C288.546 72.2876 292.653 81.1901 292.696 90.8722C292.696 100.841 289.682 107.857 282.299 114.995C278.804 118.359 275.44 120.575 270.941 122.544C265.524 124.882 265.611 124.841 260.369 125.744C256.437 126.441 252.418 126.441 248.573 125.744ZM259.364 101.949C267.402 99.6927 270.504 91.0773 265.742 84.226C262.815 80.0414 260.15 78.6876 254.908 78.6055C251.806 78.5645 251.151 78.7286 249.054 79.7953C244.729 82.0517 242.414 85.4158 242.108 90.1337C241.889 93.3747 242.545 95.5491 244.467 97.9286C245.69 99.4465 248.573 101.416 250.539 102.072C252.461 102.688 256.83 102.647 259.364 101.949Z" fill="#6B4EE6"/>
</g>
<defs>
<clipPath id="clip0_2848_4780">
<rect width="512" height="512" fill="white"/>
</clipPath>
</defs>
</svg>
