<svg width="698" height="766" viewBox="0 0 698 766" fill="none" xmlns="http://www.w3.org/2000/svg">
<g clip-path="url(#clip0_2859_8531)">
<path d="M564 686.8C558.4 685.9 536 681.4 519.5 678C514.6 676.9 509.2 675.9 507.5 675.6C501.5 674.7 476.4 669.8 473 669C471.1 668.5 462.5 666.7 454 664.9C445.5 663.2 432.4 660.5 425 659C417.6 657.4 409.3 655.9 406.5 655.5C403.8 655.2 400.2 654.5 398.5 654C396.9 653.6 390 651.9 383.3 650.4L371 647.6V643.9C371 641.9 370.3 639.7 369.5 639C367.5 637.4 367.4 630 369.4 630C372.1 630 377 626.5 378.7 623.3C380.2 620.5 380.3 619.4 379.2 615.5C378.5 613 378 609.6 378 608C378 605.3 378.3 605 381.1 605C383.1 605 386.6 606.6 391.3 609.8C402.8 617.6 415.3 625.6 418.5 627.2C422.9 629.5 449.5 634.8 450.6 633.7C451.3 633.1 438.3 618.5 433.3 614.3C431.2 612.5 426.2 608.9 422.1 606.4C418 603.9 414 601.1 413.2 600.4C412.4 599.6 410.1 598.1 408 597C405.9 595.9 403.9 594.6 403.6 594.2C403.3 593.7 399.5 591.1 395 588.5C387.5 583.9 387 583.4 387 580.2C387 577.7 387.7 576.2 389.5 574.8C392.6 572.4 395 567.9 395 564.7C395 561.5 390.1 554.1 385.1 549.8C380 545.5 370.7 540.8 362.2 538.5C356.9 537 356 536.4 356 534.5C356 533.2 357.8 523.3 360.1 512.4C362.3 501.4 364.9 488.2 366 483C367 477.8 368.9 468.1 370.3 461.5C371.7 454.9 373.8 444.6 374.9 438.5C376.1 432.5 377.7 424.4 378.5 420.5C379.3 416.7 381.1 407.7 382.5 400.5C384 393.4 386.4 381.7 388 374.5C389.6 367.4 391.4 358.8 392.1 355.5C392.7 352.2 394.3 344.5 395.6 338.4C396.9 332.3 398 326.3 398 325.1C398 323.9 399.1 318.3 400.4 312.7C401.8 307.1 403.4 299.9 404 296.8C404.9 292.2 405.8 290.5 409.1 287.5C411.3 285.5 414.2 283.5 415.6 283C419.2 281.6 428.7 281.8 435 283.4C438 284.1 443.7 285.3 447.5 286C457 287.6 482.2 293 483.2 293.6C483.6 293.9 484 295.2 484 296.5C484 300.2 489.3 305.6 494.2 306.8C496.6 307.4 505 309.1 513 310.6C521 312 532.3 314.3 538.3 315.6C544.2 316.9 550.3 318 551.8 318C553.3 318 559.8 319.3 566.2 320.8C577.7 323.7 577.8 323.7 581.4 321.8C583.4 320.8 586.3 318.1 587.8 316C589.5 313.5 591.3 312.1 592.7 312C596.2 312 650 322.8 654.6 324.5C656.8 325.4 660 327.4 661.6 329.1C664.2 331.8 664.5 332.9 664.9 340.1C665.1 346.4 664.5 351.5 661.6 365.2C659.5 374.7 656.8 387.9 655.4 394.5C654.1 401.1 651.4 413.5 649.5 422C647.6 430.5 644.7 444.9 642.9 454C641.2 463.1 638.5 476.2 636.8 483.2C634 495.1 633.7 495.9 630.9 497.1C629.2 497.7 626.5 499.6 624.9 501.2C621.7 504.5 621.2 508 623.5 512C625.7 515.9 625.4 520.7 622.9 521.5C621.8 521.9 619.6 523.9 618.1 526.1C615.6 529.5 615.3 530.5 616 533.6C616.5 535.6 617.3 537.7 617.9 538.3C618.5 538.9 619 541.1 619 543.1C619 545.9 618.5 547 617.2 547.4C616.2 547.8 613.9 549.6 612 551.5L608.7 554.9L610.4 559.2C611.4 561.6 612.6 564.3 613.1 565.2C614.9 568.8 614.1 572 610.5 575.1C608.6 576.8 607 578.7 607 579.2C607 579.8 608.1 582.4 609.5 585.2C610.9 587.9 612 591.8 612 593.8C612 597.8 609.9 609.9 606.9 622.5C605.9 626.9 603.9 635.9 602.6 642.5C595.9 675.4 594.8 679.1 591.1 683.3C587.3 687.8 577.2 689.1 564 686.8ZM541.4 550.1C541.7 549.6 540.7 548.8 539.2 548.2C536.2 547 509.7 541.4 500.9 540C497.8 539.6 489.7 538 482.9 536.5C476.1 535.1 463.3 532.4 454.5 530.5C445.7 528.7 433.1 526 426.5 524.6C413.8 521.8 409.5 521.4 408.6 522.9C407.6 524.4 410.2 525.7 416.5 527C419.8 527.6 428.8 529.5 436.5 531C471.1 538.1 485.2 541 495 542.9C526 549.1 531.5 550.2 531.9 550.6C532.7 551.4 540.9 551 541.4 550.1ZM577 506.6C577 505.8 575.6 504.9 573.8 504.5C572 504.2 564.4 502.6 557 501C549.6 499.5 536.5 496.8 528 495C519.5 493.3 507.3 490.8 501 489.5C494.7 488.2 486.4 486.6 482.5 486C478.7 485.4 471.9 484 467.5 483C463.1 482 453.2 480 445.5 478.5C437.8 477.1 429.1 475.5 426.1 474.9C422.6 474.2 420.5 474.1 419.8 474.8C418.4 476.2 421.1 477.5 430 479.3C434.1 480.2 442.9 482 449.5 483.4C456.1 484.8 463.1 486.2 465 486.5C466.9 486.8 475 488.5 483 490.1C491 491.8 503.1 494.2 510 495.6C516.9 497 528.8 499.4 536.5 501C572.3 508.5 577 509.2 577 506.6ZM544 451C545 450.3 543.4 450.1 538.5 450.1C533.2 450.2 532.2 450.4 534.5 451C538.9 452.1 542.3 452.1 544 451ZM529 449C527.6 448.6 525.6 448.2 524.5 448.2C522.9 448.2 523 448.4 525 449C526.4 449.4 528.4 449.8 529.5 449.8C531.1 449.8 531 449.6 529 449ZM516 446.4C512.4 445.7 508.6 445.1 507.5 445.2C504.8 445.3 516.8 447.8 520 447.8C521.4 447.8 519.6 447.2 516 446.4ZM503 444C501.6 443.6 499.6 443.2 498.5 443.2C496.9 443.2 497 443.4 499 444C500.4 444.4 502.4 444.8 503.5 444.8C505.1 444.8 505 444.6 503 444ZM475 438.3C474.2 438 472.6 437.3 471.5 436.8C469.5 435.9 469.5 435.9 471.4 437.4C472.5 438.3 474.1 439 474.9 438.9C476.3 438.9 476.3 438.8 475 438.3ZM467.5 433C465.6 429.3 465.6 422.1 467.5 415C469 409.6 469.5 405.2 468.5 406.2C467.9 406.8 464 425.6 464 427.9C464 429.6 467.6 436 468.5 436C468.8 436 468.4 434.7 467.5 433ZM521.5 420.9C524.3 418.6 526.7 416.5 527 416.1C527.3 415.8 532.2 411.4 538 406.5C543.8 401.6 549.2 396.8 550 395.9C550.8 395.1 556.1 390.4 561.6 385.7C573.7 375.4 575.7 372.8 574.1 369.4C572.7 366.2 571.6 366.7 557.5 378C550.9 383.2 544.3 388.4 542.9 389.5C531.7 397.9 523.4 404.5 523.2 405.2C523 405.6 521.2 406 519.2 406C516.4 406 515.1 405.4 514.1 403.8C513.4 402.5 510.2 398 507.2 393.7C502.9 387.8 501.1 386 499.6 386.2C498.4 386.4 497.4 387.2 497.2 388.2C497 389.1 500.1 396.5 504.1 404.7C511.3 419.4 514.5 425 515.8 425C516.2 425 518.8 423.2 521.5 420.9ZM508 353C506.6 352.6 504.4 352.2 503 352.2C500.8 352.2 500.8 352.3 503.5 353C505.2 353.4 507.4 353.8 508.5 353.8C510.1 353.8 510 353.6 508 353Z" fill="#FAE4C4"/>
<path d="M588 719C585 718.6 567.9 715.3 550 711.6C532.1 707.9 513.7 704.3 509 703.4C504.3 702.6 496.7 701.1 492 700C487.3 699 479.9 697.4 475.5 696.6C471.1 695.7 464.1 694.3 460 693.5C455.9 692.6 448.2 691 443 689.9C437.8 688.9 419.6 685.3 402.5 681.9C385.4 678.6 368 675.1 363.8 674.1C356.2 672.3 356 672.3 356 674.1C356 675.6 355.5 675.9 353.8 675.6C352.5 675.3 347.5 674.3 342.6 673.5L333.7 671.9L330.6 674.9C328.2 677.2 326.5 678 323.7 678C320.2 678 320 677.8 320 674.7C320 672.4 320.8 670.6 322.5 669C323.9 667.7 325 666 325 665.2C325 664.4 326.6 662.2 328.5 660.3C331.8 657 332.3 656.8 336.8 657.5C355.4 660.1 366.3 656.1 370 645.3C370.8 643.1 371.8 642 373 642C374.2 642 374.7 642.5 374.4 643.3C374.1 644.3 377.3 645.4 386.2 647.4C393 648.9 399.9 650.6 401.5 651C403.2 651.5 406.8 652.2 409.5 652.5C412.3 652.9 420.6 654.4 428 656C435.4 657.5 448.5 660.2 457 661.9C465.5 663.7 474.1 665.5 476 666C479.4 666.8 504.5 671.7 510.5 672.6C512.2 672.9 517.6 673.9 522.5 675C568 684.5 576.7 685.8 581.8 684.1C590.8 680.9 591.5 679.2 599.6 639.5C600.9 632.9 602.9 623.9 603.9 619.5C605 615.1 606.6 607.3 607.5 602.3C609.1 593.7 609.1 592.9 607.6 590.6C605.5 587.3 605.6 587 608.5 587C611.9 587 623.9 592.9 627.6 596.3C629.2 597.8 631 599 631.6 599C634 599 637.7 603 638.9 607C639.5 609.2 641 611.6 642 612.3C644.7 613.9 644.5 615.8 641.5 616.6C639.6 617.1 638.9 618 638.5 620.9C637.8 624.7 634.9 639.2 632.6 650C631.8 653.6 630.4 660.8 629.5 666C628.6 671.2 627.4 676.5 626.9 677.8C626.4 679.1 626 681.5 626 683.3C626 688.1 622.3 701.8 620 705.4C613.3 716.2 602.3 720.9 588 719Z" fill="#FCCB87"/>
<path d="M344.5 536.3C336.9 535.9 336.4 535.8 334.5 533C333.4 531.4 328.9 534.5 327.9 534.3C326.9 534 327.9 533.5 327.9 533.5C327.9 532.6 327.1 533.5 326.5 533.5C324.8 533.5 327.5 512.2 330.1 501.2C331.3 496.4 332.6 490 333 487C333.5 484 335 476.6 336.3 470.5C337.6 464.5 339.2 456.4 339.8 452.5C341.7 441 342.7 438.1 344.9 438.7C346.5 439.1 346.9 438.4 347.4 434.8C347.8 432.5 349.4 423.8 351.1 415.5C352.8 407.3 355.5 394 357.1 386C361.7 363.1 363.8 352.5 366.5 338C367.9 330.6 369.7 321.4 370.5 317.5C371.3 313.7 373.1 304.9 374.5 298C379.9 271.5 381.7 266.5 388.7 259.8C395.5 253.2 406.9 250.8 419 253.6C422.6 254.4 428.9 255.7 433 256.5C437.1 257.3 445.9 259 452.5 260.4C459.1 261.7 465.9 263.1 467.5 263.3C469.2 263.6 474.1 264.5 478.4 265.4C484.8 266.8 486.5 266.8 487.1 265.8C488.5 263.7 488.1 273.3 486.6 280.2C485.8 283.7 484.9 289.1 484.5 292.2C483.8 298.4 482.6 300.1 480.7 297.6C479.5 296.1 466.7 293 445 289C439.2 287.9 432.2 286.5 429.3 285.9C422.1 284.3 418 285.4 412.7 290.1C408.8 293.5 408 294.9 407 299.8C406.4 302.9 404.8 310.1 403.4 315.7C402.1 321.3 401 326.9 401 328.1C401 329.3 399.9 335.3 398.6 341.4C397.3 347.5 395.7 355.2 395.1 358.5C394.4 361.8 392.6 370.4 391 377.5C389.4 384.7 387 396.4 385.5 403.5C384.1 410.7 382.3 419.7 381.5 423.5C380.7 427.4 379.1 435.5 377.9 441.5C376.8 447.6 374.7 457.9 373.3 464.5C371.9 471.1 370 480.8 368.9 486C367.9 491.2 365.4 504.1 363.2 514.5C359.4 533.3 358 535.5 360 536.3C363.1 537.5 361.5 537 356.5 536.8C354.3 536.7 348.9 536.4 344.5 536.3Z" fill="#FCCB87"/>
<path d="M654.8 500.4C653 499.5 652 499.3 652 500C652 500.7 650.3 501 647.8 500.8C644.2 500.6 643.4 500.1 643.2 498.3C643 497.1 642.1 495.8 641.1 495.5C639.7 495.1 635.4 497.9 635 493.5C634.7 490.4 633.4 495.3 632.5 493.5C630.9 490.4 635 476.2 638.9 455.7C641.2 444.1 644.6 427.5 646.5 419C648.4 410.5 651.1 398.1 652.4 391.5C653.8 384.9 656.5 371.7 658.6 362.2C663.6 338.3 662.9 333.1 653.6 328.3C652 327.5 637.8 324.2 622.1 321C598.7 316.3 593.4 315.5 592.7 316.6C591.3 319 590 318.1 590 314.7C590 312.9 590.9 307.2 592 302.1C593.5 295.3 593.9 291.1 593.4 286.9C592.8 281.8 593 281 594.4 281C595.3 281 596.5 282.1 597.1 283.3C598.2 285.8 600 286.3 633 292.9C674.8 301.4 677.3 302 682.5 304.5C688.1 307.2 692.8 311.7 695.9 317.3C698.6 322.2 698.7 330.4 696 344.1C694.9 349.8 693.6 356.8 693 359.5C692.5 362.3 690.8 371.3 689.1 379.5C687.4 387.8 684.9 400.6 683.5 408C682 415.4 679.3 428.7 677.5 437.5C675.6 446.3 673.9 454.9 673.7 456.5C673.4 458.2 672.3 463.8 671.2 469C670.1 474.2 668.9 480.3 668.6 482.5C668.2 484.7 667.5 488.9 666.8 491.9C665.8 496.6 663 501.6 664.5 502.5C664.5 501.8 661.7 504.3 664.5 502.5C664.5 504.5 658.5 502.4 654.8 500.4Z" fill="#FCCB87"/>
<path d="M533 554C530.5 553.6 522.7 552.1 515.5 550.7C508.4 549.2 497.8 547.1 492 545.9C482.2 544 468.1 541.1 433.5 534C425.8 532.5 416.8 530.6 413.5 530C410.2 529.3 406.7 528.1 405.8 527.2C403.2 525 403.6 521.3 406.5 519.4C409.3 517.6 411 517.7 429.5 521.7C436.1 523 448.7 525.7 457.5 527.5C466.3 529.4 479.1 532.1 485.9 533.5C492.7 535 500.8 536.6 503.9 537C508.6 537.8 533.7 542.8 540.7 544.5C543.4 545.1 546 547.6 546 549.6C546 551.8 542.2 555 539.8 554.9C538.5 554.8 535.5 554.4 533 554Z" fill="#B3A6DB"/>
<path d="M559.501 509.4C552.901 508 541.201 505.6 533.501 504C525.801 502.4 513.901 500 507.001 498.6C500.101 497.2 488.001 494.8 480.001 493.1C472.001 491.5 463.901 489.8 462.001 489.5C460.101 489.2 453.101 487.8 446.501 486.4C439.901 485 431.101 483.2 427.001 482.3C422.901 481.5 418.501 480.2 417.201 479.4C414.501 477.6 414.301 473.9 416.901 471.6C418.801 469.9 419.401 469.9 426.701 471.4C431.001 472.2 440.801 474.1 448.501 475.5C456.201 477 466.101 479 470.501 480C474.901 481 481.701 482.4 485.501 483C492.001 484 497.601 485.1 528.301 491.6C534.801 493 541.701 494.3 543.601 494.6C545.601 494.8 552.201 496.2 558.301 497.6C564.401 499 571.701 500.6 574.401 501.1C579.901 502.1 581.001 503.1 581.001 507.3C581.001 509.3 580.301 510.3 578.401 511C575.001 512.3 573.501 512.2 559.501 509.4Z" fill="#B3A6DB"/>
<path d="M107 735.9C101.8 735.5 95.9001 734.7 94.0001 734C76.0001 727.4 58.1001 708 42.1001 677.8C39.8001 673.5 38.0001 669.5 38.0001 668.9C38.0001 668.2 36.4001 664.3 34.4001 660.2C31.4001 654 30.9001 651.9 31.3001 648.2C31.9001 643.1 30.2001 638.1 28.2001 638.8C27.3001 639.1 26.9001 638.5 27.2001 636.9C27.4001 635.2 28.4001 634.3 31.0001 633.7C34.4001 632.8 61.2001 624.5 83.0001 617.6C88.8001 615.8 98.2001 612.8 104 611C109.8 609.2 115.6 607.3 117 606.8C122 604.8 130.2 603 134 603C137.4 603 138 603.3 138 605C138 607.4 144.5 624.7 146.1 626.7C146.7 627.4 147 629.8 146.8 632C146.6 634.2 146.5 636 146.6 636C146.7 636 149.4 635.2 165.5 630.1C172.7 627.8 183.5 624.5 189.5 622.6C201.5 618.8 210.6 615.8 227.5 610C233.6 607.9 240 605.9 241.8 605.5C245.2 604.8 250.7 599.6 254.3 593.7C260 584.3 283.4 558.2 293.1 550.3C299.6 545.1 309.2 539.1 316.2 536L323.7 532.6L330 532.5L332.3 532.6L336.5 532.5H338.5C339 532.5 339.5 532.6 339.5 532.6L340 532.6L340.667 532.6C340.667 532.6 339.8 533 346.5 533C350.4 533 354.5 533.3 355.7 533.6L358.5 534L359.5 534C359.5 534 361 534.3 365.2 535.5C383.3 540.5 396.4 551.4 398.5 563C399.3 567.7 396.8 574.2 392.7 577.6C390.3 579.7 389.9 580.3 391.1 581.1C391.9 581.6 392 582 391.3 582C390.6 582 390.3 583.8 390.6 587.8C391.1 594.7 389.1 599.4 384.1 602.7C382.2 604 381.4 605 382.3 605C383.1 605 384.3 606.4 384.9 608.1L386 611.2L383.3 609.5C380.8 607.8 380.7 607.8 381.5 609.6C383.2 613.8 383.3 623.3 381.6 626.4C379.9 629.5 375.1 633 372.4 633C370.6 633 370.6 634.4 372.4 635.9C376.2 639 374.2 649.2 368.6 655.3C366.7 657.3 364.5 659 363.7 659C362.9 659 360.4 659.8 358.1 660.8C353.6 662.9 341.5 662.9 337.8 660.9C335.2 659.5 331.3 662.1 328.8 666.9C327.9 668.7 326.1 671.3 324.9 672.6C321.3 676.5 324 675.4 328.3 671.3C331.9 667.8 332.2 667.7 331.5 670C330.1 674.6 325.6 678.8 318.5 682C312 685 310.5 685.3 298.5 685.7C291.4 685.9 284.6 686.5 283.5 687C282.4 687.4 277.5 689.5 272.5 691.5C267.6 693.6 260.3 696.7 256.3 698.6C252.4 700.5 248.9 702 248.7 702C248.4 702 244.2 703.9 239.4 706.1C223.6 713.5 209.7 719.1 196.9 723.5C190 725.8 183.5 728.2 182.4 728.8C181.4 729.3 177.1 730.5 173 731.4C168.9 732.3 163.4 733.8 160.7 734.6C155.5 736.3 124.7 737 107 735.9Z" fill="#FBB376"/>
<path d="M639.1 615.4C638 614.6 636.5 612.1 635.9 609.9C634.7 606 631 602 628.6 602C628 602 626.1 600.8 624.5 599.3C622.9 597.7 621.3 596.5 621 596.5C620.7 596.4 618.9 595.6 617 594.5C615.1 593.4 611.9 591.8 610 590.9C607.2 589.7 606.1 588.3 604.7 584.3C602.6 578.5 603.3 575.6 607.7 571.9C609.6 570.3 610.4 568.9 610 568C607.2 562.3 606 558.4 606 555.1C606 551.9 606.7 550.6 609.9 547.7C612 545.8 614.3 544.1 615 543.8C616 543.5 616 542.9 614.7 540.9C613.8 539.6 612.8 536 612.4 533C611.9 527.9 612.1 527.2 614.9 523.3C617.5 519.7 617.6 514.2 620.3 514.2C621.5 511.7 645.1 512.7 637.6 517.5C639 518.3 640.7 518.4 642.1 518.5C652.7 515 644.4 519.7 646 520.5C648.6 521.8 640.6 524.8 642.7 522.8C644 521.6 645 520.3 645 519.9C645 519.6 639.7 518.4 633.3 517.5C626.2 516.4 621 515.1 620.3 514.2C619.7 513.5 618.9 511.1 618.5 509C617.5 503.3 626.1 495.2 626.1 495.2L630.9 492.5L633.3 492.5L636 492.5L640 492.6L642.5 492.6L645 492.6L647.5 493H649.5L651 493.5L654 494L659.5 496L664.3 498.7C664.3 498.7 683.2 508.5 684.6 515.7C685.4 520 683.6 524.2 679.4 527.9C677.6 529.5 676.5 531 676.9 531.2C679 532 683 539.5 683 542.7C683 547.6 680.3 552.8 676.4 555.3C672.5 557.8 672.5 557.9 674.5 562.7C677.9 570.7 675.1 578.7 667.7 582.4C664.8 583.8 664 584.6 664.6 585.9C667.7 593.3 668.1 595.5 667 599.6C664.6 608.2 658.9 612.6 646.8 615.5C642 616.6 640.8 616.6 639.1 615.4Z" fill="#FBB376"/>
<path d="M195 455.4C189.5 454.3 178.2 450.6 173.5 448.2C159.5 441.2 146.6 428.4 139.2 413.9C133.3 402.3 130.3 390 133.3 390C134.2 390 134.9 386.6 135.8 378.8C136.9 368.2 136.8 367.4 135.1 366C132.7 364 116 342.3 116 341.1C116 340.6 115.7 340 115.2 339.8C113.6 339.1 108.3 330.3 102.3 318.2C102.2 318 101 318.6 99.6001 319.5C97.5001 320.9 95.2001 321.2 86.8001 320.8C77.7001 320.4 75.8001 320 70.5001 317.3C53.8001 308.7 41.6001 287.1 40.3001 263.8C39.7001 253.3 40.1001 252 47.2001 242.8C49.5001 239.8 49.9001 238.7 49.1001 237.1C48.3001 235.7 48.4001 234.9 49.3001 234.2C52.3001 231.7 62.9001 227.1 67.1001 226.5C73.4001 225.6 85.1001 227.5 91.6001 230.6C97.5001 233.4 105.8 240.4 107.9 244.4C108.7 245.8 109.7 247 110.1 247C111.1 247 116.8 237.8 120.3 230.7C131.8 206.6 142.3 158.5 140 140.8C139.5 136.8 139 132 139 130.3C139 127.3 139.3 127 142 127C143.6 127 148.6 128.8 153.2 131.1C169.3 138.9 192.8 147.7 202 149.3C203.9 149.6 210.5 151 216.5 152.4C225.2 154.5 230.4 155 241.5 155.1C257.3 155.3 261 154.3 266 148.8C269.6 144.8 269.7 142.1 266.5 135.5C265.2 132.8 264 129 264 127.3C264 124.1 264.1 124 268.3 124C270.7 124 274.8 125.1 278 126.6C285.3 130 305.5 137.3 315.3 140C325.9 143 346.7 146 356.6 146H364.8L365.8 152.3C366.4 155.7 367.4 162.1 367.9 166.5C368.5 170.9 369.6 179.9 370.5 186.5C374.9 220.7 376.2 244.6 374.1 251.4C373.6 253.1 372.9 263.1 372.6 273.5C372.2 290.2 371.7 294.5 368.6 309C362 339.8 355.6 354.3 342.4 368C332.8 378 323.5 384.6 309.9 391.3C295.8 398.2 289.6 400.7 282.5 402.6C278.4 403.6 278.1 403.8 280.5 403.9C286 404.1 286.6 405.7 281.4 406.4C278.7 406.8 274 408.3 271 409.8L265.5 412.5H240C216.9 412.4 213.6 412.2 205.3 410.1C200.2 408.9 193.8 407 191 406C188.3 405 186 404.3 186 404.4C186 405.2 198.3 412.1 203.7 414.4C218.3 420.5 224.7 422 236.1 422C245.5 422 247.9 421.6 253.4 419.4C257 418 260.4 416.2 261.1 415.4C261.7 414.6 263.8 414 265.8 414H269.3L268.8 420.8C268.5 424.5 267.5 429.4 266.4 431.5C262.9 439 251.5 448.4 242.5 451.3C239.8 452.2 235.9 453.4 234 454.1C230.5 455.2 199.7 456.3 195 455.4ZM286.2 338.6C297.5 334.3 298.3 334 297.8 333.5C297.5 333.2 295.1 334 292.4 335.1C286.4 337.8 272.1 338.7 261.1 337.2C253 336 244.7 332.3 237 326.3L232.5 322.8L237 327C241.6 331.3 255.1 338.3 261.7 339.9C269.3 341.7 279.5 341.2 286.2 338.6ZM290 296.5C299.3 291.7 297.2 277.5 286.5 272.4C284.9 271.6 284.4 271.5 285.5 272.2C286.6 272.9 289 275.1 290.9 276.9C294.1 280.3 294.2 280.6 293.7 286.4C293.1 292.5 290.9 296 287.4 296C286.6 296 286 296.5 286 297C286 298.3 286.6 298.3 290 296.5ZM212.3 259.5C213.6 258.1 215.3 255.6 216 254.1C217.6 250.1 215.2 245 210.2 242.2C206.8 240.3 206.3 240.3 204 241.7C202.6 242.5 200.4 245 199.2 247.2L197 251.3L199.1 255.6C202.5 262.2 207.9 263.9 212.3 259.5ZM327.8 253.4C330.7 251.4 333 246.8 333 243.3C332.9 240.2 330.8 237.3 326.8 234.6C324.4 233 323.9 233 321.1 234.5C314.3 238 313 246.5 318.4 252.3C321.2 255.3 324.5 255.7 327.8 253.4ZM180.3 207.6C182.8 206.2 185.9 204.4 187.2 203.6C191.8 200.7 202.2 196.9 209.7 195.5C218.8 193.7 221 192.2 218.1 189.6C214.5 186.3 203.9 188.1 189.9 194.4C181.3 198.2 170 210 174.9 210C175.3 210 177.8 208.9 180.3 207.6ZM354.5 200.1C356.2 197.2 341.7 186.7 333.5 184.8C331.9 184.5 328.7 183.7 326.5 183.1C319 181.1 312 182.4 312 185.8C312 187.3 317.4 189 325.4 190C330.5 190.6 334.9 192.2 342.4 195.8C353.5 201.4 353.6 201.4 354.5 200.1Z" fill="#FBB376"/>
<path d="M526 453C521.3 452 506.9 449.1 494 446.5C467.3 441.3 464.3 440 461.6 432.8C459.7 427.9 459.6 428.7 469.8 383.5C475.5 358.2 476.4 355.6 481.3 351.3C487.5 345.9 490.6 345.9 518.5 351.6C525.1 353 533 354.6 536 355.1C543 356.5 545 357.6 545 360C545 363.3 542.1 363.9 533.5 362.4C529.1 361.6 524.9 360.8 524.3 360.5C523.6 360.3 515.6 358.7 506.6 357C488.3 353.7 486.2 353.9 483.6 358.9C481.8 362.3 476.9 383.3 473.5 402.5C472.2 409.7 470.6 417.8 469.9 420.7C467.7 430.2 471.4 434.2 485 436.9C535.3 446.7 538.7 447.3 542.1 446.6C544 446.2 546.3 445.3 547.3 444.6C549.3 443.1 551.6 435.1 555.1 418C556.3 412.2 557.6 406.7 558.1 405.8C559.3 403.6 563.6 403.5 564.4 405.6C565.1 407.4 558.7 437.5 556.4 443.5C552 454.6 544.6 457 526 453Z" fill="#F8A954"/>
<path d="M563.501 324C557.501 322.4 551.001 321.1 549.301 321.1C547.501 321 541.201 319.9 535.301 318.6C529.301 317.3 518.001 315 510.001 313.6C502.001 312.1 493.601 310.4 491.301 309.9C483.501 307.8 479.401 300.7 481.001 291.8C485.401 267.6 485.401 267.5 488.301 264.4C489.801 262.7 492.901 260.4 495.101 259.4C499.101 257.6 499.401 257.6 510.901 259.9C517.301 261.2 529.501 263.5 538.001 265.2C587.401 274.6 591.201 275.6 594.901 280.2C597.501 283.4 597.501 293.3 594.901 306C592.401 317.8 590.101 321.9 584.001 325C579.001 327.5 577.001 327.4 563.501 324Z" fill="#F8A954"/>
<path d="M18.9 763.7C15.7 761.6 15.5 761.1 15.5 756C15.6 748 16.9 734.7 18.6 725C19.5 720.3 20.6 713.6 21.1 710C21.7 706.4 23.4 695.9 25 686.5C26.5 677.2 28.6 664.2 29.6 657.7C30.6 651.2 31.7 645.7 32.2 645.4C32.6 645.1 33 645.6 33 646.5C33 647.3 34.8 651.8 37 656.4C39.2 661 41 665.3 41 665.9C41 666.5 42.8 670.5 45.1 674.8C58.4 700 74 718.7 88.4 726.9C98.3 732.5 102.1 733 129 733.1C147.5 733.1 154.5 732.8 157.5 731.7C159.7 730.9 165.1 729.5 169.5 728.5C173.9 727.6 178.4 726.3 179.4 725.8C180.5 725.2 187 722.8 193.9 720.5C206.7 716.1 220.6 710.5 236.4 703.1C241.2 700.9 245.4 699 245.7 699C246 699 249 697.7 252.4 696C258.7 693 276.7 685.1 278.5 684.6C279.1 684.4 280.2 684 281 683.7C281.8 683.4 288.4 683 295.5 682.7C308 682.3 308.9 682.1 316.5 678.6C320.9 676.6 326.1 673.4 328 671.5L331.5 668.1L343.5 670.2C350.1 671.3 355.6 672.4 355.8 672.5C356.4 673.1 359.9 709.5 360.4 720.5C360.7 726.6 361.2 737.2 361.6 744.2C362.4 759.2 361.6 762.3 356.2 764.5C353.2 765.8 329.9 766 187.5 766H22.3L18.9 763.7Z" fill="#F38742"/>
<path d="M121 644.9C121 642.5 124.7 640.5 139.1 634.7C143.4 633 144.6 631.4 143.1 629.6C141.7 628 134.9 610.2 134.7 607.8C134.5 604.8 127.5 606 105.2 612.7C100.7 614.1 94.6003 615.8 91.7003 616.6C76.7003 620.5 69.3003 622.7 67.5003 623.7C66.3003 624.3 60.0003 626.4 53.5003 628.3C46.9003 630.3 37.5003 633.2 32.5003 634.9C27.6003 636.5 21.7003 638.2 19.4003 638.6L15.3003 639.2L13.3003 634.4C10.2003 627.1 6.40033 612.3 3.50033 596C1.30033 584.1 0.80033 577.1 0.30033 557.4C-0.29967 533.1 0.40033 522.5 3.50033 511.5C4.20033 508.8 5.10033 505 5.30033 503.2C5.90033 499.7 9.70033 488.9 13.8003 479.5C20.4003 464.5 37.4003 442.2 51.0003 431C62.8003 421.2 87.9003 406 99.6003 401.6C130.6 390 136.5 388.2 135.7 390.4C134.8 392.7 137.9 402.4 142.2 410.9C149.6 425.4 162.5 438.2 176.5 445.2C187.9 450.9 195.4 452.5 211 452.5C233.6 452.5 245 448.6 257.1 436.8C262.1 431.9 264.6 427.3 265.6 421L266.3 416.7L263.4 418.9C261.8 420.1 257.2 422.2 253.3 423.5C246.7 425.8 245.1 426 234.3 425.5C227.8 425.2 220 424.2 217 423.3C206.5 420.3 193.4 414.3 185 408.8C176.8 403.4 162.5 391.2 163.3 390.3C163.6 390.1 165.8 391 168.2 392.4C177.1 397.3 196.9 404.5 210.5 407.6C217 409.1 222.6 409.5 240.5 409.5H262.5L268.3 406.6C277.5 402 282 402.8 302.5 412.3C311.6 416.5 330.1 426.7 331 428C331.3 428.3 333.1 429.7 335.1 431.1C337.1 432.4 340.4 435 342.4 436.8L346.2 440.1L344.1 448.9C342.9 453.8 342 458.8 342 460C342 461.2 340.8 467.5 339.4 473.9C337.9 480.3 336.7 486.2 336.7 487C336.7 487.8 335.7 493.2 334.3 499C333 504.8 331.7 510.9 331.5 512.5C331.3 514.2 330.1 520.1 328.8 525.6L326.6 535.7L320.9 538.2L315.3 540.7L311.4 538C309.3 536.5 303.7 532.8 299 529.7C294.3 526.7 284.2 519.8 276.6 514.6C268.9 509.3 261.8 505 260.8 505C257.8 505 251.1 511.8 249.9 516.2C249.1 519.4 249.2 520.6 250.4 522.5C252.1 525 258.1 530 259.6 530.1C260.1 530.1 264.3 532.8 269 536C273.7 539.2 281.2 544.3 285.7 547.2C290.3 550.1 294 553 294 553.5C294 554.1 289.8 558.8 284.7 564C275.3 573.5 261 590.7 257.3 596.7C253.7 602.6 248.2 607.8 244.8 608.5C243 608.9 236.6 610.9 230.5 613C213.6 618.8 204.5 621.8 192.5 625.6C164.9 634.2 154.8 637.4 145.5 640.5C136.5 643.4 129.9 645.3 123.3 646.7C121.4 647.1 121 646.8 121 644.9Z" fill="#F38742"/>
<path d="M368.601 633.2C368.001 632.3 355.601 627.1 342.801 622.4C335.201 619.6 332.901 617.7 335.001 615.6C335.701 614.9 337.001 615 339.301 615.8C341.101 616.5 343.401 617 344.201 617C346.401 617 362.201 624.6 369.001 628.9C373.701 631.9 374.101 632.4 372.501 633.1C369.801 634.1 369.201 634.1 368.601 633.2Z" fill="#F38742"/>
<path d="M374.6 606.3C361.6 598.9 344.3 592.1 334.7 590.5C331.5 590 330.9 589.5 331.2 587.7C331.7 584.4 335.1 584.5 348.1 588C359.9 591.2 372.6 596.8 375.5 600C376.9 601.5 377.7 601.7 379.3 600.9C381.7 599.5 383 601.1 383 605.5C383 609.4 380.5 609.6 374.6 606.3Z" fill="#F38742"/>
<path d="M653.2 581C646.9 577.9 639.7 575.3 633.8 574C628.7 572.8 622.9 571.5 620.9 570.9C618.9 570.4 615.9 570 614.3 570C610.9 570 608.5 567.8 609.3 565.6C609.7 564.6 611 564.3 614.2 564.6C621.2 565.4 632.9 568 641.2 570.5C652.1 573.9 666.1 583.2 663.8 585.5C663.6 585.8 658.8 583.7 653.2 581Z" fill="#F38742"/>
<path d="M383.8 581.7C377.3 575.4 356.3 566.6 337.9 562.6C334.7 561.9 333.5 559.4 335.2 557.3C338.1 553.7 361.6 560.2 380.1 569.6C385.7 572.4 391.1 577.6 390.4 579.4C390.1 580.1 390.6 581 391.4 581.3C394.2 582.4 393.1 584 389.5 584C387.3 584 385.3 583.2 383.8 581.7Z" fill="#F38742"/>
<path d="M512.3 427.5C511.2 426.7 506.5 418.6 502.1 409.6C495.6 396.3 494 392.2 494 388.6C494 384.6 494.4 383.9 496.8 382.6C501.1 380.4 504.3 382.4 511.1 392C514.4 396.6 517.5 401.1 518 402C518.7 403 519.2 403.1 519.7 402.4C520.4 401.6 529 394.8 539.9 386.5C541.3 385.4 548 380.1 554.7 374.8C561.4 369.4 567.4 365 567.9 365C568.5 365 569 364.6 569 364C569 362.2 573.9 362.9 576 365C581.6 370.6 579 376.2 565.7 387.8C560.1 392.6 554.6 397.5 553.4 398.6C552.1 399.8 546.5 404.8 540.9 409.6C535.2 414.5 529.5 419.6 528.1 420.9C520.2 428.2 515.8 430 512.3 427.5Z" fill="#E87330"/>
<path d="M16.2 640.8C15.7 640.1 15 638.6 14.6 637.5C14.1 635.8 14.5 635.5 17 635.3C18.6 635.2 24.1 633.7 29.2 632C34.3 630.2 43.9 627.3 50.5 625.3C57 623.4 63.3 621.3 64.5 620.7C65.6 620.1 70.3 618.6 75 617.3C79.7 616 86.7 614.1 90.5 613.1C94.4 612 100.3 610.2 103.7 609.1C107.1 607.9 110.7 607 111.7 607C113.5 607 138.9 598.5 139.8 597.6C140.3 597 138.5 589.4 136.9 585.3C136.2 583.8 135.6 581.9 135.4 581.1C133.7 572.8 131.6 564.5 123.9 536C121 525.3 119.9 519.1 118.4 504.9C117.8 499.6 117.9 499.2 120 498.5C121.2 498.1 122.6 498.2 123 498.7C123.9 499.5 126.3 515.1 125.8 516.6C125.7 517.1 126.8 522.7 128.3 529C129.8 535.3 131.8 543.9 132.6 548C133.5 552.1 134.8 556.9 135.5 558.5C137 561.6 142.7 581 145.4 591.9C147 598.1 147 598.4 145 600.5C143 602.6 141.4 603.3 130.5 606.5C127.2 607.5 122.9 608.9 121 609.7C119.1 610.4 116.6 611.2 115.4 611.4C114.3 611.6 109.9 613 105.7 614.5C101.5 615.9 97.1 617.3 95.9 617.5C94.8 617.7 89.7 619.3 84.7 620.9C67.4 626.6 37.5 636 35.5 636.4C34.4 636.6 29.9 638 25.5 639.4C16.1 642.5 17.5 642.3 16.2 640.8Z" fill="#DA6231"/>
<path d="M441.5 636.4C437.7 635.6 430.9 634.2 426.6 633.4C417.6 631.7 415.9 630.9 404 623.2C382.1 609 380.2 607.5 379.3 604.5C378.5 601.8 378.8 601.3 381.5 599.5C386 596.5 388.4 590.7 387 586.5C386.4 584.6 385.4 582.9 384.7 582.6C382.7 581.8 386 580.1 388.6 580.6C391 581 402.9 588 406.5 591.1C407.6 592 409.9 593.5 411.5 594.3C413.2 595.1 415.5 596.7 416.8 597.8C418.1 598.9 422.3 601.8 426.2 604.1C436.4 610.3 456 629.9 456 634C456 638.2 452.9 638.7 441.5 636.4Z" fill="#DA6231"/>
<path d="M290.8 556.2C290.6 555.8 286.7 552.9 282 549.8C277.3 546.7 270.1 541.8 266 539C261.9 536.2 257 533.2 255.3 532.4C250 529.8 246 524.5 246 520.2C246 510.9 251.7 503 259.4 501.6C264 500.7 264.2 500.9 289 518C299.2 525 308.9 531.5 310.5 532.3C312.2 533.2 314.8 535 316.5 536.3L319.4 538.8L314.1 541.4C308.8 544.2 300.1 550 296.5 553.3C293.7 555.9 291.2 557.1 290.8 556.2Z" fill="#DA6231"/>
<path d="M105.7 248.5C97.9002 236.3 79.6002 227.3 67.8002 229.9C63.9002 230.8 54.3002 235.4 51.9002 237.6C50.4002 238.9 50.0002 238.7 48.1002 235.4C37.7002 217.9 29.9002 184.5 29.7002 157.5C29.7002 143.5 30.0002 140.4 33.4002 126C34.5002 121.4 41.2002 106.6 44.3002 102C50.1002 93.4 55.9002 87.3 62.7002 82.7C69.3002 78.2 83.2002 72 86.5002 72C88.1002 72 91.0002 69.8 91.0002 68.4C91.0002 66.3 101.1 54.2 110.2 45.5C121.3 34.8 121.6 34.5 130.3 28.6C138.9 22.8 156.9 13.5 162 12.3C163.4 12 165.9 11 167.5 10.2C169.2 9.40001 176.6 7.20001 184 5.30001C204.5 0.200005 219.6 -0.699995 258 1.10001C259.8 1.20001 278.1 4.60001 283.3 5.90001C285.3 6.40001 287 6.60001 287 6.30001C287 6.00001 287.7 6.30001 288.5 7.00001C289.3 7.70001 290 8.00001 290 7.70001C290 7.30001 293 8.20001 296.7 9.70001C300.5 11.1 305.1 12.7 307 13.2C315.8 15.7 338.1 27.9 350 36.8C356.8 41.9 365 51.4 366.1 55.5C367.7 61.2 366.7 66.7 363.5 70L360.8 72.8L366.1 75.5C381.7 83.5 397.7 100.2 401.5 112.6C404.9 123.9 402.2 136 395.1 140.7L391.8 143L391.9 153.7C392 159.7 391.6 169 391 174.5C390.4 180 389.5 188.2 389 192.7C388 201.9 384.3 218.2 380.2 231C378.8 235.7 377.5 240 377.5 240.5C377.3 243 373.7 252 372.9 252C372.4 252 371.9 247.8 371.8 242.8C371.7 237.7 371.5 231 371.4 228C371.2 220.5 369.2 201.5 367.4 190C366.6 184.8 365.9 179.2 365.8 177.5C365.8 175.9 364.9 169 363.9 162.3C362.9 155.5 362 149.8 362 149.6C362 149.4 360.5 148.6 358.6 148C356.7 147.4 353.5 146.1 351.5 145.1C348.6 143.7 346.7 143.5 341.3 144.2C337.7 144.6 334.2 145.4 333.5 146C330.1 148.8 299.3 140.2 276.7 130.3C272.4 128.4 268.5 127 268 127.2C267.4 127.4 267.9 129.1 268.9 131.1C271.6 136.2 273.2 142.7 272.5 145.9C271.6 150.2 266.3 155.2 260.8 157.1C252.9 159.7 228.7 158.9 213.3 155.4C206.8 154 200.4 152.6 199 152.5C192.6 151.6 160.9 140 155.8 136.6C154.5 135.8 153.2 135.1 152.7 135.1C152.3 135 149.7 133.9 146.9 132.4L141.8 129.9L142.4 132.7C144.5 143.8 143.9 158.8 140.4 175.4C139.6 179.1 138.8 184.1 138.5 186.4C138 190.6 131.9 211.6 128.2 222C122.7 237.4 112.9 253 108.8 253C108.6 253 107.2 251 105.7 248.5Z" fill="#753836"/>
<path d="M251.8 340.4C236.3 334 227 325.7 227 318.3C227 313 232 312.5 234.4 317.6C235.6 320.2 243.3 326.1 250.5 329.9C257.3 333.5 262.8 334.5 275 334.5C286.5 334.5 295.9 330.8 304.3 323.1C309 318.7 310.5 317.8 311.8 318.7C318.8 323.1 308.4 334.3 291.2 340.9C283.4 343.9 282 344.1 271.5 343.9C261.1 343.8 259.5 343.5 251.8 340.4Z" fill="#693230"/>
<path d="M282.6 300.1C281.3 298.7 281.2 297.7 281.9 295.6C282.5 294.2 283.6 293 284.4 293C286.8 293 289.9 289.6 290.3 286.5C290.8 282.7 287.9 278.4 283.4 276.2C277.5 273.5 278.1 268 284.2 268C292.7 268 300.1 277.3 299.5 287.1C299.2 293.1 296.9 297.3 292.5 299.9C288.1 302.5 284.8 302.6 282.6 300.1Z" fill="#693230"/>
<path d="M170.4 211.6C169 209.3 169 208.8 170.6 205.5C175.4 195.3 196.8 184.6 212.2 184.6C217.9 184.6 219.3 185 221.5 187C222.9 188.3 224 190.3 224 191.5C224 195.6 220.5 197.3 208.1 199.5C204.5 200.1 193.8 204.4 190.3 206.5C184.2 210.4 176.7 214 174.5 214C173 214 171.4 213 170.4 211.6Z" fill="#693230"/>
<path d="M340.4 199.2C333.3 195.8 327.7 193.7 324.5 193.4C321.7 193.1 317.2 192.3 314.4 191.5C306.5 189.2 305 184 311.2 180.1C313.6 178.6 324.1 178.6 329.5 180.1C331.7 180.7 334.9 181.5 336.5 181.8C341.7 183 351.6 188.7 354.8 192.5C358.9 197.1 359.8 200.5 357.5 203C355 205.8 352.7 205.3 340.4 199.2Z" fill="#693230"/>
<path d="M362 151C362 149.2 361.3 149 354.2 149C345.4 149 330.3 147.2 328 145.9C326.7 145.2 326.7 145.1 328.2 145C329.1 145 330 144.5 330.2 143.8C330.8 142.2 341.3 139 342.6 140.1C343.2 140.6 344.4 140.4 345.4 139.7C346.9 138.6 348.2 138.9 353.8 141.7C357.5 143.6 361.2 144.9 362.1 144.7C363.3 144.4 363.7 145.2 363.7 148.6C363.7 151 363.3 153 362.8 153C362.4 153 362 152.1 362 151Z" fill="#693230"/>
<path d="M201.4 264.3C197.8 262.5 194 255.9 194 251.4C194 247.4 197.8 240.5 201.1 238.6C204.8 236.4 208.5 236.6 213.1 239.2C219.9 243 222 251.7 217.8 259.1C214.3 265.4 207.7 267.5 201.4 264.3Z" fill="#4B261F"/>
<path d="M318.8 257.9C315.3 256.6 312.2 251.5 311.4 245.8C309.5 231.8 325.9 224.3 334.2 235.4C338.2 240.9 336.3 252.8 330.8 256.4C327.7 258.4 322.2 259.1 318.8 257.9Z" fill="#4B261F"/>
<path d="M670.074 528.679C661.174 523.979 646.274 519.779 634.374 518.579C623.274 517.479 622.674 517.379 621.074 514.679C619.174 511.379 618.274 511.579 631.974 512.879C649.474 514.579 663.074 519.579 672.574 527.779C676.674 531.279 675.674 531.679 670.074 528.679Z" fill="#F38943"/>
<path d="M666.47 556.768C656.57 551.668 633.07 544.768 622.87 543.968C618.47 543.668 617.07 543.068 615.57 540.968C614.47 539.568 613.77 538.268 614.07 538.068C614.87 537.368 642.47 542.268 649.47 544.468C659.87 547.568 672.97 555.368 672.97 558.568C672.97 559.868 671.87 559.468 666.47 556.768Z" fill="#F38943"/>
</g>
<defs>
<clipPath id="clip0_2859_8531">
<rect width="698" height="766" fill="white"/>
</clipPath>
</defs>
</svg>
