<svg width="96" height="96" viewBox="0 0 96 96" fill="none" xmlns="http://www.w3.org/2000/svg">
<path d="M63.2534 12.8763C67.7952 16.8688 70.6665 22.3821 71.2112 28.4268C71.2586 29.2043 71.2773 29.9804 71.291 30.7592C71.2939 30.9092 71.2968 31.0592 71.2998 31.2138C71.3133 31.9697 71.3204 32.7249 71.3173 33.4809C71.2993 35.3419 71.2993 35.3419 72.1348 36.9607C72.8679 38.0353 72.806 39.5346 72.7998 40.7875C72.8002 40.9517 72.8005 41.116 72.8009 41.2852C72.8011 41.6299 72.8005 41.9747 72.7989 42.3194C72.7969 42.8428 72.7989 43.366 72.8013 43.8893C72.801 44.2264 72.8005 44.5636 72.7998 44.9008C72.8006 45.0549 72.8013 45.2091 72.8021 45.3679C72.7879 47.155 72.5082 48.5591 71.25 49.8754C70.5174 50.5349 69.8334 51.1241 68.8125 51.1879C68.7932 51.3503 68.7738 51.5127 68.7539 51.68C68.6186 52.3441 68.3866 52.8459 68.0625 53.4379C68.9538 54.7214 70.0123 55.1586 71.4895 55.4447C71.6494 55.4723 71.6494 55.4723 71.8125 55.5004C71.8061 56.9967 71.439 58.0766 70.5 59.2504C68.6149 61.0324 66.5824 60.966 64.1199 60.9562C63.8653 60.9558 63.6108 60.9556 63.3562 60.9554C62.6901 60.9547 62.024 60.9528 61.3579 60.9507C60.6766 60.9488 59.9954 60.948 59.3141 60.947C57.9802 60.945 56.6464 60.9418 55.3125 60.9379C55.3125 61.5566 55.3125 62.1754 55.3125 62.8129C55.5948 62.8245 55.8771 62.8361 56.168 62.848C58.1032 63.0104 59.9909 63.4835 61.875 63.9379C62.0194 63.9726 62.1639 64.0074 62.3127 64.0432C68.9575 65.6956 75.2763 69.5911 78.9617 75.4471C81.6023 79.8532 82.5 84.3163 82.5 89.4379C59.6063 89.4379 36.7125 89.4379 13.125 89.4379C13.125 86.3288 13.125 86.3288 13.3359 84.9144C13.3605 84.7488 13.3852 84.5832 13.4105 84.4126C13.887 81.4496 14.8352 78.7332 16.3125 76.1254C16.4143 75.9434 16.516 75.7614 16.6208 75.5738C20.4618 69.1535 27.3374 65.6156 34.3578 63.7788C36.3296 63.2917 38.2798 62.8964 40.3125 62.8129C40.3125 62.1941 40.3125 61.5754 40.3125 60.9379C40.1761 60.9387 40.0398 60.9395 39.8993 60.9404C38.6058 60.9479 37.3124 60.9536 36.0189 60.9573C35.3541 60.9592 34.6894 60.9619 34.0246 60.9661C33.258 60.9711 32.4915 60.9728 31.7249 60.9745C31.3717 60.9774 31.3717 60.9774 31.0114 60.9803C28.7287 60.9806 26.8598 60.8474 25.125 59.2504C24.2059 58.15 23.7856 56.9349 23.8125 55.5004C23.9553 55.4706 24.0982 55.4409 24.2454 55.4103C26.2871 54.9489 27.8609 54.2857 29.0625 52.5004C29.4235 51.6056 29.4767 50.8352 29.4375 49.8754C29.0044 49.8754 28.5712 49.8754 28.125 49.8754C28.125 50.3704 28.125 50.8654 28.125 51.3754C26.4872 51.2974 25.2427 50.8515 24.1172 49.6175C23.048 48.3483 22.9749 47.064 22.9746 45.4713C22.9725 45.1624 22.9725 45.1624 22.9703 44.8472C22.9683 44.4128 22.9677 43.9783 22.9686 43.5438C22.9687 42.8833 22.9609 42.2232 22.9526 41.5627C22.9517 41.139 22.9512 40.7153 22.9512 40.2916C22.9481 40.0962 22.945 39.9009 22.9419 39.6996C22.9542 38.3756 23.2055 36.9824 24.1875 36.0004C24.2128 35.633 24.2257 35.2648 24.2336 34.8966C24.2395 34.6645 24.2454 34.4325 24.2514 34.1933C24.2543 34.0695 24.2572 33.9456 24.2601 33.8181C24.4308 26.848 25.3559 20.863 30 15.3754C30.1291 15.2209 30.2581 15.0665 30.3911 14.9073C38.7694 5.21337 53.6803 4.81191 63.2534 12.8763ZM31.8028 16.7238C27.3009 21.7661 26.5038 28.0012 26.625 34.5004C27.12 34.4385 27.615 34.3766 28.125 34.3129C28.125 34.8079 28.125 35.3029 28.125 35.8129C28.3106 35.8129 28.4963 35.8129 28.6875 35.8129C28.6836 35.6223 28.6796 35.4318 28.6756 35.2355C28.5399 28.0116 28.5399 28.0116 29.4375 25.1254C29.4777 24.9936 29.5179 24.8618 29.5593 24.7261C30.3941 22.0825 31.7168 19.7009 33.5625 17.6254C33.6848 17.4854 33.8071 17.3455 33.9331 17.2013C36.9844 13.9271 41.6195 12.004 46.0525 11.7891C51.5016 11.6414 56.5351 12.6651 60.75 16.3129C60.9766 16.4833 60.9766 16.4833 61.2078 16.6571C65.0064 19.87 66.68 25.1885 67.0903 29.9771C67.1563 31.0898 67.1442 32.2025 67.1367 33.3168C67.1359 33.5579 67.135 33.799 67.1342 34.0474C67.132 34.6359 67.1289 35.2244 67.125 35.8129C67.3106 35.8129 67.4963 35.8129 67.6875 35.8129C67.6875 35.3179 67.6875 34.8229 67.6875 34.3129C68.1206 34.3747 68.5537 34.4366 69 34.5004C69.0711 29.2724 68.8009 24.6863 66.1875 20.0629C66.0855 19.8804 65.9835 19.6979 65.8784 19.5099C63.1113 14.8868 58.5203 11.4232 53.3013 10.0719C51.8662 9.72753 50.4152 9.43239 48.9375 9.37536C48.7702 9.36787 48.603 9.36038 48.4307 9.35266C41.9471 9.2053 36.1638 12.0102 31.8028 16.7238Z" fill="#4D7DB8"/>
<path d="M63.2535 12.8763C67.7953 16.8688 70.6665 22.3821 71.2112 28.4268C71.2587 29.2043 71.2773 29.9804 71.2911 30.7592C71.2939 30.9092 71.2968 31.0592 71.2998 31.2138C71.3133 31.9697 71.3204 32.7249 71.3173 33.4809C71.2993 35.3419 71.2993 35.3419 72.1348 36.9607C72.8679 38.0353 72.806 39.5346 72.7998 40.7875C72.8002 40.9517 72.8006 41.116 72.8009 41.2852C72.8012 41.6299 72.8005 41.9747 72.7989 42.3194C72.7969 42.8428 72.7989 43.366 72.8013 43.8893C72.8011 44.2264 72.8006 44.5636 72.7998 44.9008C72.8006 45.0549 72.8014 45.2091 72.8021 45.3679C72.7879 47.155 72.5083 48.5591 71.25 49.8754C70.5174 50.5349 69.8334 51.1241 68.8125 51.1879C68.7835 51.4315 68.7835 51.4315 68.7539 51.68C68.6187 52.3441 68.3867 52.8459 68.0625 53.4379C68.9539 54.7214 70.0123 55.1586 71.4895 55.4447C71.6494 55.4723 71.6494 55.4723 71.8125 55.5004C71.8062 56.9967 71.439 58.0766 70.5 59.2504C68.6149 61.0324 66.5824 60.966 64.1199 60.9562C63.8654 60.9558 63.6108 60.9556 63.3562 60.9554C62.6901 60.9547 62.024 60.9528 61.3579 60.9507C60.6767 60.9488 59.9954 60.948 59.3141 60.947C57.9803 60.945 56.6464 60.9418 55.3125 60.9379C55.2962 60.5483 55.2846 60.1585 55.2749 59.7686C55.2644 59.4431 55.2644 59.4431 55.2537 59.111C55.3353 58.2637 55.6681 57.9205 56.294 57.3805C56.4927 57.2271 56.4927 57.2271 56.6954 57.0707C56.9549 56.8537 57.2142 56.6365 57.4732 56.4188C57.589 56.3273 57.7049 56.2358 57.8243 56.1415C58.1723 55.8564 58.1723 55.8564 58.5 55.3129C57.8049 55.2691 57.1102 55.2426 56.4141 55.2191C56.1197 55.2003 56.1197 55.2003 55.8194 55.181C54.7381 55.1259 54.7381 55.1259 53.8369 55.6337C53.6509 55.8987 53.4726 56.1694 53.303 56.4452C52.9379 57.0034 52.5637 57.1713 51.9375 57.3754C51.3841 57.4614 50.8448 57.4826 50.2852 57.4808C50.1357 57.4804 49.9862 57.4799 49.8321 57.4795C48.7657 57.4461 48.0051 57.2737 47.1695 56.5675C46.3094 55.6411 46.21 54.7818 46.2466 53.5543C46.3736 52.6078 46.8621 52.1144 47.5547 51.5043C48.4094 50.897 49.0871 50.9596 50.1094 50.9535C50.2682 50.9496 50.427 50.9458 50.5906 50.9418C51.7043 50.9348 52.5225 51.0693 53.3775 51.8507C54 52.6462 54 52.6462 54 53.0629C56.0419 53.001 58.0838 52.9391 60.1875 52.8754C62.0852 49.0801 62.0943 45.7529 62.1661 41.6242C62.1758 41.0816 62.1865 40.539 62.1973 39.9965C62.2011 39.746 62.2011 39.746 62.205 39.4904C62.2082 39.3357 62.2113 39.181 62.2145 39.0216C62.2169 38.8858 62.2192 38.7501 62.2216 38.6102C62.25 38.2504 62.25 38.2504 62.4375 37.6879C62.4868 36.9075 62.481 36.1259 62.4844 35.3441C62.4883 35.1314 62.4921 34.9187 62.4961 34.6996C62.5113 31.4006 61.2007 28.4114 58.875 26.0629C57.1484 24.5845 55.2848 23.9464 53.0625 23.6254C53.0712 23.9531 53.0712 23.9531 53.0801 24.2875C53.0748 27.3399 51.6075 30.4759 49.5116 32.6469C46.5898 35.5431 43.0537 36.6456 39.0248 36.6345C38.4266 36.6287 37.8286 36.6193 37.2305 36.6097C36.8188 36.606 36.407 36.6025 35.9953 36.5995C34.9968 36.5913 33.9984 36.5788 33 36.5629C33.0607 36.7641 33.1214 36.9654 33.1839 37.1728C33.4425 38.2125 33.4308 39.2379 33.4329 40.3041C33.4376 40.7418 33.4424 41.1796 33.4472 41.6173C33.4526 42.3006 33.4571 42.9839 33.4606 43.6673C33.4647 44.3314 33.4721 44.9954 33.4798 45.6595C33.4798 45.8606 33.4798 46.0616 33.4798 46.2688C33.5329 50.3804 35.4561 53.7209 38.25 56.6254C38.3728 56.7535 38.4956 56.8816 38.6221 57.0135C39.2342 57.6531 39.2342 57.6531 39.9534 58.158C40.3125 58.5004 40.3125 58.5004 40.3858 59.0885C40.3771 59.3082 40.3684 59.5279 40.3594 59.7543C40.3526 59.9754 40.3459 60.1966 40.3389 60.4244C40.3302 60.5939 40.3215 60.7633 40.3125 60.9379C38.8813 60.9466 37.4502 60.9532 36.0189 60.9573C35.3542 60.9592 34.6894 60.9619 34.0247 60.9661C33.2581 60.9711 32.4915 60.9728 31.7249 60.9745C31.3717 60.9774 31.3717 60.9774 31.0115 60.9803C28.7287 60.9806 26.8599 60.8474 25.125 59.2504C24.206 58.15 23.7857 56.9349 23.8125 55.5004C24.0268 55.4558 24.0268 55.4558 24.2454 55.4103C26.2872 54.9489 27.861 54.2857 29.0625 52.5004C29.4236 51.6056 29.4767 50.8352 29.4375 49.8754C29.0044 49.8754 28.5713 49.8754 28.125 49.8754C28.125 50.3704 28.125 50.8654 28.125 51.3754C26.4872 51.2974 25.2427 50.8515 24.1172 49.6175C23.048 48.3483 22.975 47.064 22.9746 45.4713C22.9732 45.2654 22.9718 45.0594 22.9703 44.8472C22.9683 44.4128 22.9678 43.9783 22.9686 43.5438C22.9688 42.8833 22.961 42.2232 22.9527 41.5627C22.9517 41.139 22.9512 40.7153 22.9512 40.2916C22.9466 39.9986 22.9466 39.9986 22.9419 39.6996C22.9542 38.3756 23.2055 36.9824 24.1875 36.0004C24.2129 35.633 24.2258 35.2648 24.2337 34.8966C24.2395 34.6645 24.2454 34.4325 24.2514 34.1933C24.2543 34.0695 24.2572 33.9456 24.2602 33.8181C24.4309 26.848 25.3559 20.863 30 15.3754C30.1291 15.2209 30.2582 15.0665 30.3912 14.9073C38.7694 5.21337 53.6804 4.81191 63.2535 12.8763ZM31.8028 16.7238C27.3009 21.7661 26.5039 28.0012 26.625 34.5004C27.12 34.4385 27.615 34.3766 28.125 34.3129C28.125 34.8079 28.125 35.3029 28.125 35.8129C28.3107 35.8129 28.4963 35.8129 28.6875 35.8129C28.6836 35.6223 28.6797 35.4318 28.6756 35.2355C28.5399 28.0116 28.5399 28.0116 29.4375 25.1254C29.4777 24.9936 29.5179 24.8618 29.5593 24.7261C30.3941 22.0825 31.7169 19.7009 33.5625 17.6254C33.6848 17.4854 33.8071 17.3455 33.9331 17.2013C36.9845 13.9271 41.6195 12.004 46.0526 11.7891C51.5017 11.6414 56.5351 12.6651 60.75 16.3129C60.9766 16.4833 60.9766 16.4833 61.2078 16.6571C65.0064 19.87 66.68 25.1885 67.0903 29.9771C67.1563 31.0898 67.1443 32.2025 67.1368 33.3168C67.1359 33.5579 67.1351 33.799 67.1342 34.0474C67.132 34.6359 67.1289 35.2244 67.125 35.8129C67.3107 35.8129 67.4963 35.8129 67.6875 35.8129C67.6875 35.3179 67.6875 34.8229 67.6875 34.3129C68.1207 34.3747 68.5538 34.4366 69 34.5004C69.0712 29.2724 68.8009 24.6863 66.1875 20.0629C66.0855 19.8804 65.9835 19.6979 65.8785 19.5099C63.1113 14.8868 58.5203 11.4232 53.3013 10.0719C51.8663 9.72753 50.4152 9.43239 48.9375 9.37536C48.7703 9.36787 48.603 9.36038 48.4307 9.35266C41.9472 9.2053 36.1638 12.0102 31.8028 16.7238Z" fill="#405468"/>
<path d="M53.0625 23.6253C55.1325 23.4371 57.0937 24.4421 58.6875 25.6878C60.5373 27.3664 61.8853 29.6256 62.4375 32.0628C62.4698 32.1715 62.502 32.2802 62.5352 32.3922C62.6465 32.9136 62.6493 33.3995 62.6499 33.9327C62.6502 34.1477 62.6504 34.3626 62.6506 34.5842C62.6499 34.8078 62.6492 35.0315 62.6484 35.262C62.6492 35.4864 62.6499 35.7108 62.6506 35.9421C62.6503 36.2642 62.6503 36.2642 62.6499 36.5928C62.6497 36.7893 62.6495 36.9859 62.6493 37.1883C62.625 37.6878 62.625 37.6878 62.4375 38.2503C62.4182 38.5019 62.4083 38.7543 62.405 39.0067C62.4012 39.2342 62.4012 39.2342 62.3973 39.4663C62.3953 39.6304 62.3934 39.7944 62.3914 39.9634C62.3852 40.3154 62.379 40.6673 62.3727 41.0192C62.3639 41.5704 62.3556 42.1215 62.3481 42.6727C62.2354 50.6029 62.2354 50.6029 60.1875 53.0628C59.6669 53.181 59.3075 53.2214 58.7871 53.2122C58.5854 53.2138 58.5854 53.2138 58.3795 53.2155C58.0959 53.2162 57.8122 53.2142 57.5285 53.2095C57.0948 53.2034 56.6624 53.2094 56.2288 53.2166C55.9526 53.2159 55.6765 53.2144 55.4004 53.2122C55.2713 53.2145 55.1422 53.2168 55.0091 53.2191C54.6412 53.2084 54.6412 53.2084 54 53.0628C53.5617 52.5122 53.5617 52.5122 53.25 51.9378C52.3047 51.1071 51.3888 51.1428 50.1914 51.1292C50.0335 51.1238 49.8755 51.1183 49.7128 51.1127C48.6674 51.1021 48.0785 51.2404 47.25 51.9378C46.6108 52.6275 46.444 53.1648 46.4063 54.0823C46.4487 55.0899 46.6206 55.647 47.25 56.4378C48.2616 57.1428 49.0162 57.3166 50.2383 57.2933C50.3876 57.2915 50.5368 57.2897 50.6907 57.2879C51.6412 57.254 52.3719 57.1439 53.1548 56.5652C53.4807 56.234 53.4807 56.234 53.7056 55.6585C54.1875 55.1253 54.1875 55.1253 54.669 55.0346C55.2776 55.0143 55.876 55.0275 56.4844 55.055C56.8013 55.0626 56.8013 55.0626 57.1245 55.0704C57.6459 55.0836 58.1665 55.1021 58.6875 55.1253C58.2399 55.8251 57.7931 56.4428 57.1992 57.0237C57.0777 57.1441 56.9561 57.2645 56.8308 57.3885C56.4375 57.7503 56.4375 57.7503 55.9307 58.033C55.2229 58.801 55.3532 59.6965 55.3477 60.7034C55.343 60.9057 55.3382 61.108 55.3334 61.3165C55.3223 61.8153 55.3155 62.3138 55.3125 62.8128C55.4507 62.8195 55.589 62.8262 55.7314 62.8332C57.5131 62.9285 59.2085 63.3372 60.9375 63.7503C59.9315 66.8397 58.4034 69.7185 55.5 71.4378C53.6467 72.2387 51.7898 72.8072 49.7688 72.8133C49.6195 72.8145 49.4701 72.8158 49.3162 72.8171C49.0016 72.8189 48.6869 72.8198 48.3722 72.8198C47.9002 72.8206 47.4286 72.8274 46.9567 72.8345C43.4363 72.8589 40.4041 72.0795 37.8311 69.5555C36.2824 67.9532 35.3639 65.8468 34.6875 63.7503C35.4489 63.5926 36.2108 63.4369 36.9727 63.2815C37.1884 63.2368 37.4041 63.1921 37.6264 63.146C37.8348 63.1037 38.0433 63.0614 38.2581 63.0179C38.4495 62.9786 38.641 62.9393 38.8383 62.8988C39.3411 62.8182 39.8045 62.7965 40.3125 62.8128C40.4899 60.2526 40.4899 60.2526 39.7478 57.8909C39.2695 57.4807 38.7847 57.1451 38.25 56.8128C35.6735 54.6408 33.8691 51.3122 33.375 48.0003C33.3199 47.219 33.3099 46.4396 33.304 45.6565C33.3008 45.4395 33.2976 45.2225 33.2943 44.9989C33.2844 44.3119 33.2768 43.6248 33.2695 42.9378C33.2613 42.2454 33.2526 41.553 33.2428 40.8606C33.2368 40.4312 33.2317 40.0018 33.2277 39.5723C33.2252 39.3794 33.2227 39.1866 33.2201 38.9878C33.2183 38.8178 33.2165 38.6477 33.2147 38.4725C33.2135 38.0543 33.2135 38.0543 33 37.6878C32.9925 37.3129 32.9919 36.9377 33 36.5628C33.1042 36.5621 33.2083 36.5614 33.3156 36.5607C34.414 36.5528 35.5123 36.5397 36.6106 36.5239C37.0188 36.5186 37.427 36.5146 37.8352 36.512C40.7903 36.4916 43.4837 36.3432 46.1602 34.9573C46.2835 34.8942 46.4069 34.8311 46.534 34.7661C49.3394 33.254 51.2092 30.7048 52.3125 27.7503C52.684 26.3958 52.9228 25.022 53.0625 23.6253Z" fill="#F9BF8F"/>
<path d="M63.2535 12.8763C67.7953 16.8688 70.6665 22.3821 71.2113 28.4268C71.2587 29.2043 71.2773 29.9804 71.2911 30.7592C71.294 30.9092 71.2969 31.0592 71.2998 31.2138C71.3134 31.9697 71.3205 32.7249 71.3174 33.4809C71.2994 35.3419 71.2994 35.3419 72.1348 36.9607C72.868 38.0353 72.8061 39.5346 72.7999 40.7875C72.8002 40.9517 72.8006 41.116 72.801 41.2852C72.8012 41.6299 72.8005 41.9747 72.799 42.3194C72.797 42.8428 72.799 43.366 72.8014 43.8893C72.8011 44.2264 72.8006 44.5636 72.7999 44.9008C72.8006 45.0549 72.8014 45.2091 72.8022 45.3679C72.7879 47.155 72.5083 48.5591 71.2501 49.8754C70.5175 50.5349 69.8334 51.1241 68.8126 51.1879C68.7836 51.4315 68.7836 51.4315 68.754 51.68C68.6187 52.3441 68.3867 52.8459 68.0626 53.4379C68.9539 54.7214 70.0123 55.1586 71.4896 55.4447C71.6495 55.4723 71.6495 55.4723 71.8126 55.5004C71.8062 56.9967 71.4391 58.0766 70.5001 59.2504C68.615 61.0324 66.5825 60.966 64.12 60.9562C63.8654 60.9558 63.6108 60.9556 63.3563 60.9554C62.6902 60.9547 62.0241 60.9528 61.358 60.9507C60.6767 60.9488 59.9954 60.948 59.3142 60.947C57.9803 60.945 56.6464 60.9418 55.3126 60.9379C55.2963 60.5483 55.2846 60.1585 55.275 59.7686C55.2645 59.4431 55.2645 59.4431 55.2538 59.111C55.3354 58.2637 55.6682 57.9205 56.294 57.3805C56.4927 57.2271 56.4927 57.2271 56.6954 57.0707C56.955 56.8537 57.2142 56.6365 57.4732 56.4188C57.5891 56.3273 57.705 56.2358 57.8243 56.1415C58.1723 55.8564 58.1723 55.8564 58.5001 55.3129C57.805 55.2691 57.1102 55.2426 56.4141 55.2191C56.1198 55.2003 56.1198 55.2003 55.8194 55.181C54.7381 55.1259 54.7381 55.1259 53.8369 55.6337C53.6509 55.8987 53.4727 56.1694 53.303 56.4452C52.9379 57.0034 52.5637 57.1713 51.9376 57.3754C51.3841 57.4614 50.8449 57.4826 50.2852 57.4808C50.1357 57.4804 49.9862 57.4799 49.8322 57.4795C48.7657 57.4461 48.0051 57.2737 47.1695 56.5675C46.3094 55.6411 46.21 54.7818 46.2467 53.5543C46.3736 52.6078 46.8622 52.1144 47.5548 51.5043C48.4095 50.897 49.0871 50.9596 50.1095 50.9535C50.2683 50.9496 50.427 50.9458 50.5907 50.9418C51.7043 50.9348 52.5225 51.0693 53.3775 51.8507C54.0001 52.6462 54.0001 52.6462 54.0001 53.0629C56.042 53.001 58.0838 52.9391 60.1876 52.8754C61.6699 49.9108 62.0582 47.6129 62.0955 44.3939C62.0978 44.2199 62.1 44.0459 62.1024 43.8666C62.1115 43.138 62.1204 42.4094 62.1237 41.6808C62.1266 41.1436 62.1341 40.6068 62.1424 40.0697C62.1421 39.9066 62.1417 39.7435 62.1413 39.5754C62.1659 38.3479 62.4469 37.5281 63.3062 36.6112C64.303 35.8545 64.8857 35.7881 66.1173 35.8011C66.2676 35.802 66.4179 35.8028 66.5728 35.8037C66.9444 35.8059 67.316 35.8093 67.6876 35.8129C67.6876 35.3179 67.6876 34.8229 67.6876 34.3129C68.1207 34.3747 68.5538 34.4366 69.0001 34.5004C68.8666 29.3159 68.5942 24.6521 66.0001 20.0629C65.8981 19.8804 65.7961 19.6979 65.691 19.5099C62.9632 14.9525 58.4422 11.5905 53.3014 10.2594C51.8663 9.91503 50.4153 9.61989 48.9376 9.56286C48.7703 9.55537 48.6031 9.54788 48.4307 9.54016C42.7262 9.41051 37.3323 11.5704 33.1979 15.4781C27.731 20.8124 26.8691 27.3984 26.6251 34.6879C25.8751 35.0629 25.1251 35.4379 24.3751 35.8129C24.27 28.1575 24.8633 21.4452 30.0001 15.3754C30.1291 15.2209 30.2582 15.0665 30.3912 14.9073C38.7695 5.21337 53.6804 4.81191 63.2535 12.8763Z" fill="#707D82"/>
<path d="M62.25 64.125C63.7931 64.4706 65.2354 64.9274 66.6914 65.543C66.8866 65.6254 67.0818 65.7079 67.2828 65.7929C73.485 68.4741 78.3376 73.0526 80.929 79.344C81.9574 82.0907 82.5305 84.9939 82.5081 87.9243C82.5075 88.0705 82.5069 88.2167 82.5063 88.3674C82.5048 88.7241 82.5025 89.0808 82.5 89.4375C80.3125 89.4435 78.125 89.4471 75.9375 89.4492C75.7703 89.4494 75.6031 89.4495 75.4308 89.4497C69.3414 89.4548 63.2531 89.4113 57.1641 89.3438C56.8609 89.3404 56.8609 89.3404 56.5517 89.337C54.0761 89.3094 51.6006 89.2804 49.125 89.25C49.6198 88.9201 50.0037 88.7463 50.5547 88.5469C53.0054 87.578 54.6751 85.8212 56.0625 83.625C56.1916 83.422 56.3206 83.2189 56.4536 83.0098C59.7676 77.5745 61.6688 70.444 62.25 64.125Z" fill="#4D7DB8"/>
<path d="M34.875 63.938C34.9545 64.1306 35.034 64.3233 35.116 64.5217C36.3038 67.3493 37.6701 69.9705 40.5 71.438C42.2373 72.1457 43.9223 72.5894 45.8013 72.6077C45.9514 72.6092 46.1016 72.6107 46.2563 72.6123C46.5743 72.6148 46.8923 72.6169 47.2104 72.6183C47.5303 72.6205 47.8503 72.6243 48.1702 72.6299C51.7083 72.6915 54.8596 72.1484 57.5164 69.6201C59.058 68.0383 60.0973 66.0431 60.75 63.938C61.8281 63.9146 61.8281 63.9146 62.25 64.1255C62.3538 65.8114 61.976 67.3999 61.6172 69.0356C61.5841 69.1879 61.5511 69.3401 61.517 69.4969C60.099 75.9696 57.9468 83.9511 52.2422 87.9849C50.4044 89.1569 48.2074 89.5111 46.0664 89.1333C42.983 88.3572 40.761 85.8787 39.1875 83.2505C39.1187 83.1361 39.0499 83.0217 38.979 82.9038C35.9282 77.7238 34.0244 71.2664 33.5029 65.2813C33.4724 64.9572 33.4253 64.6347 33.375 64.313C33.2512 64.2511 33.1275 64.1892 33 64.1255C33.6349 63.9301 34.2139 63.9307 34.875 63.938Z" fill="#48BAAC"/>
<path d="M40.3125 58.6875C42 59.625 42 59.625 42.7075 60.0249C44.8801 61.2373 47.0339 62.1724 49.5586 61.5293C51.3488 60.9379 53.112 60.0742 54.6138 58.9233C54.9375 58.6875 54.9375 58.6875 55.3125 58.6875C55.3125 60.0488 55.3125 61.41 55.3125 62.8125C55.6141 62.828 55.9158 62.8434 56.2266 62.8594C57.8303 62.9882 59.3764 63.3771 60.9375 63.75C59.9314 66.8394 58.4034 69.7182 55.5 71.4375C53.6467 72.2385 51.7898 72.8069 49.7688 72.813C49.5448 72.8149 49.5448 72.8149 49.3162 72.8168C49.0015 72.8187 48.6869 72.8195 48.3722 72.8195C47.9002 72.8203 47.4286 72.8271 46.9567 72.8342C43.4363 72.8586 40.4041 72.0792 37.8311 69.5552C36.2824 67.9529 35.3639 65.8465 34.6875 63.75C35.4489 63.5923 36.2107 63.4366 36.9727 63.2812C37.1884 63.2365 37.4041 63.1918 37.6263 63.1458C37.8348 63.1035 38.0433 63.0612 38.2581 63.0176C38.4495 62.9783 38.641 62.939 38.8383 62.8986C39.375 62.8125 39.375 62.8125 40.3125 62.8125C40.3125 61.4513 40.3125 60.09 40.3125 58.6875Z" fill="#ECA87A"/>
<path d="M63.2535 12.8763C67.765 16.8422 70.7171 22.3964 71.216 28.4202C71.3464 30.8797 71.2895 33.3512 71.2501 35.8129C70.5076 35.4416 69.7651 35.0704 69.0001 34.6879C68.9863 34.148 68.9863 34.148 68.9723 33.5973C68.8362 28.7378 68.4316 24.3645 66.0001 20.0629C65.8981 19.8804 65.7961 19.6979 65.691 19.5099C62.9632 14.9525 58.4422 11.5905 53.3014 10.2594C51.8663 9.91503 50.4153 9.61989 48.9376 9.56286C48.7703 9.55537 48.6031 9.54788 48.4307 9.54016C42.7262 9.41051 37.3323 11.5704 33.1979 15.4781C27.731 20.8124 26.8691 27.3984 26.6251 34.6879C25.8751 35.0629 25.1251 35.4379 24.3751 35.8129C24.27 28.1575 24.8633 21.4452 30.0001 15.3754C30.1291 15.2209 30.2582 15.0665 30.3912 14.9073C38.7695 5.21337 53.6804 4.81191 63.2535 12.8763Z" fill="#6F7C83"/>
<path d="M67.6874 53.25C67.873 53.453 67.873 53.453 68.0624 53.6602C69.1569 54.7423 70.2995 55.2654 71.8124 55.5C71.806 56.9963 71.4389 58.0762 70.4999 59.25C68.6148 61.032 66.5823 60.9656 64.1198 60.9558C63.8652 60.9555 63.6107 60.9552 63.3561 60.955C62.69 60.9543 62.0239 60.9525 61.3578 60.9504C60.6765 60.9484 59.9952 60.9476 59.314 60.9467C57.9801 60.9447 56.6463 60.9415 55.3124 60.9375C55.2964 60.5478 55.285 60.1578 55.2756 59.7679C55.2688 59.5508 55.2619 59.3336 55.2549 59.11C55.3342 58.2691 55.6556 57.9273 56.2755 57.3893C56.4063 57.2879 56.537 57.1865 56.6718 57.082C56.7996 56.9741 56.9275 56.8662 57.0592 56.755C57.2973 56.5542 57.5378 56.3562 57.7816 56.1624C58.1444 55.8762 58.1444 55.8762 58.4604 55.4704C59.0421 54.9856 59.445 55.0344 60.1947 55.0371C60.3224 55.0358 60.45 55.0345 60.5816 55.0331C61.1248 55.0276 61.6679 55.0307 62.2112 55.033C64.9928 55.0421 64.9928 55.0421 67.3358 53.6719C67.4518 53.5327 67.5679 53.3934 67.6874 53.25Z" fill="#405468"/>
<path d="M67.6875 34.3125C68.8919 34.4846 69.4913 34.6913 70.5 35.25C70.6663 35.3273 70.8326 35.4047 71.0039 35.4844C72.1689 36.366 72.5159 37.6165 72.75 39C72.7983 39.5965 72.8028 40.1889 72.7998 40.7871C72.8002 40.9514 72.8005 41.1156 72.8009 41.2848C72.8011 41.6296 72.8005 41.9743 72.7989 42.3191C72.7969 42.8424 72.7989 43.3656 72.8013 43.8889C72.801 44.2261 72.8005 44.5632 72.7998 44.9004C72.8006 45.0545 72.8013 45.2087 72.8021 45.3675C72.7879 47.152 72.5102 48.5624 71.25 49.875C70.0127 50.9509 69.4142 51.1875 67.6875 51.1875C67.6875 45.6187 67.6875 40.05 67.6875 34.3125Z" fill="#405467"/>
<path d="M28.125 34.3125C28.125 39.9431 28.125 45.5737 28.125 51.375C26.2048 51.1616 25.1053 50.7902 23.8667 49.3198C23.0553 48.0362 22.9749 46.9645 22.9746 45.4709C22.9732 45.265 22.9718 45.0591 22.9703 44.8469C22.9683 44.4124 22.9678 43.9779 22.9686 43.5434C22.9688 42.8829 22.961 42.2228 22.9527 41.5624C22.9517 41.1387 22.9512 40.715 22.9512 40.2913C22.9481 40.0959 22.9451 39.9005 22.9419 39.6992C22.9567 38.1132 23.3576 36.8234 24.5032 35.6895C24.6736 35.5754 24.844 35.4613 25.0196 35.3438C25.1895 35.2258 25.3594 35.1079 25.5345 34.9863C26.438 34.475 27.0798 34.3125 28.125 34.3125Z" fill="#405367"/>
<path d="M67.6875 35.8127C67.6875 40.4533 67.6875 45.0939 67.6875 49.8752C64.3109 49.8752 64.3109 49.8752 63.4775 49.2336C62.993 48.7393 62.6259 48.206 62.25 47.6252C62.1881 47.6252 62.1262 47.6252 62.0625 47.6252C62.0703 46.314 62.0839 45.0029 62.1014 43.6918C62.1067 43.2461 62.1107 42.8004 62.1133 42.3546C62.1173 41.7127 62.1261 41.071 62.1357 40.4291C62.136 40.2308 62.1362 40.0325 62.1364 39.8282C62.163 38.4825 62.362 37.6184 63.3062 36.611C64.9433 35.3681 64.7998 35.8127 67.6875 35.8127Z" fill="#49B9AB"/>
<path d="M27.9375 35.8125C31.6826 35.8125 31.6826 35.8125 32.7668 36.8897C33.4535 37.9712 33.5068 38.9112 33.4863 40.1726C33.4863 40.3713 33.4863 40.57 33.4864 40.7747C33.4854 41.1928 33.4821 41.6108 33.4766 42.0289C33.4688 42.6667 33.4689 43.3042 33.4702 43.942C33.4682 44.3496 33.4658 44.7572 33.4629 45.1648C33.4629 45.3543 33.4628 45.5438 33.4628 45.739C33.4429 46.9325 33.3461 47.9406 32.5378 48.8826C30.8517 50.1483 30.4964 49.875 27.9375 49.875C27.9375 45.2344 27.9375 40.5938 27.9375 35.8125Z" fill="#48B9AB"/>
<path d="M50.1094 50.9534C50.2681 50.9495 50.4269 50.9456 50.5906 50.9417C51.6987 50.9348 52.5261 51.0621 53.3708 51.8506C54.2552 53.0071 54.3784 53.8597 54.1875 55.3128C53.7014 56.374 53.0186 56.9479 51.9375 57.3753C51.3848 57.4656 50.8446 57.4825 50.2851 57.4807C50.1356 57.4803 49.9861 57.4798 49.8321 57.4794C48.7656 57.446 48.005 57.2736 47.1694 56.5674C46.3093 55.641 46.2099 54.7817 46.2466 53.5542C46.3735 52.6077 46.8621 52.1143 47.5547 51.5042C48.4094 50.8969 49.087 50.9595 50.1094 50.9534Z" fill="#415568"/>
<path d="M62.25 47.4375C62.366 47.5941 62.366 47.5941 62.4844 47.7539C62.5927 47.897 62.7009 48.0401 62.8125 48.1875C62.9807 48.4253 62.9807 48.4253 63.1523 48.668C64.0976 49.7213 65.14 49.7703 66.4849 49.8538C66.6342 49.8608 66.7836 49.8678 66.9375 49.875C66.763 50.9289 66.6058 51.7294 65.8125 52.5C65.1143 52.9948 64.6515 53.1311 63.7991 53.1174C63.4991 53.1147 63.4991 53.1147 63.193 53.1119C62.8828 53.1049 62.8828 53.1049 62.5664 53.0977C62.356 53.0951 62.1456 53.0926 61.9288 53.09C61.4108 53.0834 60.8929 53.0741 60.375 53.0625C60.6397 52.255 60.9252 51.4575 61.2188 50.6602C61.5817 49.6524 61.8494 48.6729 62.0625 47.625C62.1244 47.5631 62.1862 47.5013 62.25 47.4375Z" fill="#425568"/>
<path d="M54.1985 40.3973C54.9034 40.5959 55.1539 41.0107 55.5 41.6248C55.5128 42.3662 55.4187 42.7716 55.0195 43.3943C54.4894 43.7342 54.0623 43.817 53.4324 43.784C52.7338 43.6014 52.4779 43.1579 52.125 42.5623C52.0078 41.9881 52.0078 41.9881 52.125 41.4373C52.7003 40.6104 53.2144 40.3301 54.1985 40.3973Z" fill="#445669"/>
<path d="M42.5625 40.4995C43.125 40.898 43.125 40.898 43.5 41.437C43.615 42.1267 43.549 42.4619 43.2422 43.0894C42.9375 43.4995 42.9375 43.4995 42.5625 43.687C41.247 43.7931 41.247 43.7931 40.5938 43.4175C40.1746 42.7014 40.17 42.0586 40.3125 41.2495C40.8244 40.3752 41.6196 40.2848 42.5625 40.4995Z" fill="#445668"/>
</svg>
