<svg width="512" height="512" viewBox="0 0 512 512" fill="none" xmlns="http://www.w3.org/2000/svg">
<g clip-path="url(#clip0_2841_2398)">
<path d="M63.4814 142.976C68.8491 108.013 81.2765 78.1081 111.537 51.5347C148.056 19.4643 196.79 2.23686 250.718 0.192178C301.256 0.167323 346.11 12.0519 384.357 38.7587C385.522 39.5795 386.675 40.4115 387.816 41.2549C388.956 42.0983 390.082 42.9527 391.196 43.8182C392.309 44.6837 393.409 45.56 394.496 46.447C395.582 47.334 396.655 48.2313 397.713 49.1387C398.772 50.0467 399.817 50.965 400.848 51.8934C401.878 52.8219 402.894 53.7603 403.895 54.7086C404.897 55.6569 405.884 56.6149 406.855 57.5826C407.827 58.5502 408.784 59.5273 409.726 60.5137C410.667 61.5002 411.593 62.4957 412.504 63.5004C413.415 64.5045 414.31 65.5178 415.19 66.5401C416.07 67.5619 416.933 68.5922 417.781 69.6311C418.629 70.6701 419.461 71.7172 420.276 72.7727C421.091 73.8282 421.89 74.8914 422.672 75.9624C423.455 77.0328 424.221 78.1109 424.97 79.1967C425.719 80.2826 426.452 81.3757 427.168 82.4759C427.883 83.5761 428.581 84.6832 429.263 85.7973C429.944 86.9113 430.608 88.0317 431.255 89.1584C431.901 90.2857 432.53 91.4188 433.142 92.5576C433.754 93.6971 434.347 94.8423 434.924 95.9933C435.5 97.1438 436.059 98.3001 436.599 99.4622C437.14 100.624 437.662 101.79 438.167 102.963C438.671 104.135 439.157 105.311 439.626 106.493C440.094 107.675 440.544 108.861 440.975 110.051C441.407 111.241 441.82 112.436 442.215 113.634C442.609 114.833 442.985 116.035 443.343 117.241C443.7 118.446 444.039 119.655 444.358 120.868C444.679 122.08 444.98 123.295 445.263 124.514C445.545 125.732 445.809 126.953 446.054 128.176C446.299 129.4 446.525 130.626 446.732 131.854C446.939 133.082 447.127 134.312 447.295 135.543C447.464 136.774 447.615 138.007 447.746 139.242C447.876 140.477 447.988 141.712 448.081 142.949L422.194 142.89C418.433 113.893 405.314 87.5495 380.959 65.5641C349.503 37.1689 307.556 22.2579 260.285 19.939C259.074 19.9097 257.864 19.8909 256.653 19.8826C255.443 19.8744 254.232 19.8768 253.021 19.8901C251.81 19.9028 250.599 19.9263 249.389 19.9605C248.18 19.9948 246.97 20.0395 245.761 20.0947C244.552 20.15 243.344 20.2157 242.137 20.2919C240.93 20.3681 239.724 20.4551 238.52 20.5529C237.315 20.6501 236.111 20.7581 234.91 20.8768C233.708 20.995 232.508 21.124 231.31 21.2637C230.112 21.4029 228.916 21.5526 227.722 21.7127C226.528 21.8735 225.337 22.0444 224.147 22.2256C222.958 22.4067 221.771 22.5981 220.587 22.7997C219.403 23.0019 218.222 23.2142 217.044 23.4368C215.866 23.6594 214.691 23.8922 213.519 24.1352C212.347 24.3782 211.179 24.6315 210.014 24.8949C208.85 25.1584 207.689 25.4321 206.531 25.716C205.374 25.9998 204.221 26.2937 203.072 26.5975C201.923 26.9012 200.778 27.2152 199.637 27.5394C198.497 27.8631 197.361 28.197 196.23 28.5411C195.098 28.8846 193.972 29.2381 192.851 29.6015C191.729 29.9649 190.613 30.3383 189.502 30.7216C188.391 31.1044 187.285 31.4968 186.185 31.8989C185.084 32.3015 183.989 32.7136 182.9 33.135C181.811 33.5564 180.728 33.9872 179.651 34.4274C178.574 34.8676 177.503 35.3175 176.438 35.777C175.374 36.236 174.315 36.7041 173.263 37.1813C172.211 37.659 171.166 38.1459 170.128 38.6419C169.09 39.1379 168.058 39.6427 167.033 40.1563C166.009 40.67 164.991 41.1928 163.981 41.7247C162.971 42.256 161.969 42.7964 160.974 43.346C159.978 43.895 158.991 44.4526 158.011 45.0187C157.031 45.5854 156.059 46.1603 155.095 46.7436C154.131 47.3268 153.176 47.9186 152.228 48.519C122.109 67.265 101.524 92.5162 93.2284 122.314C91.3355 129.113 90.3666 136.015 89.2958 142.919C80.691 142.89 72.0862 142.909 63.4814 142.976Z" fill="white"/>
<path d="M115.169 244.173C111.657 233.029 109.027 222.399 107.924 210.933C106.673 197.919 106.638 184.539 107 171.492C107.951 137.297 113.491 104.455 142.79 77.4868C143.611 76.7213 144.444 75.964 145.289 75.2151C146.134 74.4667 146.99 73.7266 147.858 72.9948C148.727 72.263 149.606 71.5397 150.497 70.825C151.388 70.1109 152.29 69.4055 153.203 68.7091C154.116 68.0131 155.04 67.3261 155.974 66.6478C156.909 65.9701 157.853 65.3015 158.809 64.6421C159.765 63.9831 160.731 63.3336 161.706 62.6935C162.682 62.0539 163.668 61.424 164.663 60.8037C165.66 60.1835 166.665 59.5732 167.68 58.9728C168.695 58.3724 169.719 57.7823 170.752 57.2023C171.786 56.6224 172.828 56.0529 173.879 55.494C174.931 54.935 175.991 54.3866 177.06 53.8486C178.128 53.3107 179.205 52.7832 180.29 52.2662C181.375 51.7498 182.468 51.2442 183.569 50.7493C184.67 50.2544 185.779 49.7706 186.895 49.2978C188.011 48.825 189.135 48.3636 190.266 47.9134C191.396 47.4627 192.534 47.0236 193.678 46.5961C194.823 46.1681 195.974 45.7516 197.132 45.3468C198.289 44.9419 199.452 44.5487 200.622 44.167C201.793 43.7854 202.968 43.4153 204.15 43.0569C205.331 42.699 206.518 42.3527 207.711 42.0179C208.903 41.6832 210.1 41.3604 211.303 41.0495C212.506 40.7391 213.713 40.4403 214.925 40.153C216.137 39.8664 217.353 39.5919 218.573 39.3295C219.794 39.0666 221.019 38.8162 222.247 38.5781C223.475 38.3401 224.708 38.1142 225.943 37.9004C227.179 37.6867 228.418 37.4853 229.659 37.2965C230.901 37.1076 232.146 36.9308 233.393 36.7662C234.641 36.6022 235.89 36.4503 237.143 36.3106C238.395 36.1714 239.649 36.0446 240.905 35.9303C242.161 35.816 243.419 35.7141 244.678 35.6246C245.937 35.5351 247.198 35.4583 248.46 35.3943C276.076 34.0679 305.083 40.955 328.79 51.9481C329.837 52.4253 330.876 52.9125 331.908 53.4095C332.94 53.9072 333.964 54.415 334.981 54.9331C335.996 55.4506 337.004 55.9781 338.004 56.5155C339.003 57.0535 339.995 57.6008 340.978 58.1576C341.96 58.7148 342.934 59.2815 343.899 59.8576C344.864 60.4342 345.82 61.0199 346.767 61.6148C347.714 62.2102 348.652 62.8147 349.58 63.4283C350.508 64.042 351.426 64.6647 352.334 65.2966C353.243 65.9279 354.142 66.5683 355.031 67.2178C355.919 67.8673 356.798 68.5254 357.667 69.1921C358.535 69.8587 359.393 70.5339 360.24 71.2177C361.087 71.9015 361.924 72.5933 362.75 73.293C363.576 73.9934 364.39 74.7017 365.194 75.4181C365.998 76.1345 366.79 76.8585 367.572 77.5903C368.353 78.3222 369.122 79.0615 369.881 79.8082C370.639 80.5555 371.386 81.3099 372.12 82.0716C372.856 82.8332 373.579 83.6021 374.289 84.3781C375 85.1541 375.699 85.9367 376.386 86.726C377.072 87.5158 377.746 88.3123 378.408 89.1153C379.07 89.9184 379.719 90.7278 380.356 91.5436C380.992 92.3594 381.616 93.1815 382.227 94.01C382.838 94.8379 383.436 95.6719 384.021 96.512C384.607 97.3515 385.179 98.1968 385.737 99.048C386.296 99.8991 386.842 100.756 387.374 101.618C387.906 102.48 388.425 103.347 388.93 104.219C389.436 105.091 389.928 105.968 390.406 106.85C390.884 107.732 391.348 108.618 391.798 109.509C392.248 110.4 392.685 111.295 393.107 112.195C393.53 113.095 393.938 113.998 394.333 114.906C394.727 115.813 395.107 116.725 395.474 117.64C395.84 118.555 396.192 119.474 396.529 120.396C396.867 121.318 397.19 122.243 397.499 123.172C404.223 143.597 404.329 164.896 404.173 185.873C404.091 196.934 404.148 208.26 401.715 219.185C400.401 225.088 398.196 231.472 394.311 236.658C390.106 242.272 379.013 251.491 370.733 252.836C369.083 253.104 368.383 252.751 367.117 252.037L367.07 251.462C367.172 251.378 367.278 251.295 367.377 251.209C369.719 249.155 370.97 246.158 372.518 243.694C375.263 239.321 377.945 234.814 379.588 230.085C385.83 212.12 384.621 182.582 383.94 163.697C378.486 161.39 372.753 159.522 367.308 157.16C365.013 156.161 362.747 155.122 360.51 154.044C358.272 152.966 356.064 151.85 353.888 150.695C351.712 149.541 349.568 148.349 347.456 147.12C345.345 145.892 343.268 144.626 341.225 143.325C339.184 142.024 337.178 140.688 335.209 139.317C333.241 137.947 331.31 136.543 329.418 135.105C327.526 133.667 325.675 132.197 323.863 130.695C322.052 129.193 320.282 127.661 318.555 126.097C312.397 120.578 304.214 110.414 297.529 106.273C289.07 101.034 282.755 105.214 276.697 110.346C242.099 139.661 202.903 159.194 152.881 166.997C144.774 168.262 136.476 168.961 128.278 169.768C127.268 201.525 127.607 228.316 144.741 257.799C160.197 284.395 188.78 309.408 223.95 319.532C251.325 327.412 281.515 326.156 305.891 312.872C311.731 309.69 317.746 304.396 324.624 302.942C332.767 301.222 341.85 302.309 350.234 301.524C379.144 298.819 393.745 294.324 419.921 284.621C423.39 295.214 427.943 304.77 435.58 313.957C440.808 320.246 447.911 324.798 454.005 330.392C454.493 330.84 454.644 331.089 454.725 331.671C454.074 332.584 453.291 333.032 452.149 333.512C423.415 345.621 386.325 345.38 359.866 329.801C355.022 326.95 347.603 319.919 342.02 318.901C340.519 318.628 338.943 318.795 337.702 319.573C335.843 320.736 335.056 322.785 334.881 324.586C334.274 330.809 338.662 338.568 344.657 342.415C351.591 346.865 361.384 349.132 369.506 351.927C378.35 355.029 387.248 358.031 396.198 360.933C420.121 368.551 442.511 375.235 463.11 387.972C468.5 391.306 473.988 394.938 478.35 399.14C478.486 399.271 478.619 399.406 478.755 399.539C507.528 423.627 508.356 457.136 511.148 488.219C511.681 494.158 513.064 501.834 507.587 506.617C503.644 510.061 499.364 511.362 493.643 511.61C484.224 512.018 474.581 511.621 465.142 511.604L411.279 511.583L241.607 511.591L90.1196 511.584L44.5058 511.622C35.8476 511.657 26.8605 512.075 18.2325 511.621C13.6318 511.378 9.7918 510.51 6.35037 507.962C2.44169 505.069 0.523783 501.394 0.355198 497.188C0.00345826 488.45 2.26376 475.608 3.16913 466.5C4.11196 457.009 5.05374 447.421 7.98525 438.161C17.5103 408.077 44.6786 385.909 78.9826 372.368C96.2917 365.536 114.753 360.31 132.52 354.229C143.895 350.335 160.615 346.05 168.934 338.732C174.787 333.583 176.222 325.344 175.83 318.716C175.742 318.6 175.659 318.481 175.567 318.368C175.415 318.177 175.254 317.993 175.1 317.804C172.276 314.356 167.204 311.421 163.42 308.603C158.816 305.176 154.311 301.507 150.383 297.582C144.864 292.069 139.553 286.099 135.079 280.018C132.016 275.858 129.314 271.164 125.699 267.324C125.606 267.225 125.509 267.127 125.413 267.029C131.283 281.747 140.304 293.863 153.931 304.905C157.602 307.879 161.672 310.525 165.407 313.449C155.529 324.737 142.03 334.135 125.638 338.799C100.906 345.838 76.7369 340.455 53.9321 331.933C54.5335 331.433 55.1559 330.969 55.7927 330.498C86.1017 308.109 90.2559 284.24 91.7149 253.244C99.4109 250.021 107.229 246.997 115.169 244.173ZM197.285 329.952C197.203 330.084 197.118 330.215 197.038 330.348C195.101 333.57 194.238 337.118 192.668 340.458C188.259 349.842 180.906 353.189 172.059 359.748C175.932 366.255 190.539 378.383 197.034 384.491C213.596 400.069 229.694 416.574 247.836 430.991C249.629 432.416 251.573 433.884 254.021 434.546C255.971 435.074 257.759 434.893 259.551 434.106C266.443 431.083 286.143 411.974 292.331 406.184C301.647 397.482 310.84 388.699 319.91 379.834C325.693 374.289 334.809 367.28 338.475 360.755C329.165 354.7 321.733 349.099 317.91 339.749C316.617 336.587 315.74 333.283 314.235 330.184C288.092 342.463 256.839 345.087 227.592 339.039C216.075 336.658 207.438 332.332 197.285 329.952ZM147.411 366.995C143.813 367.872 137.043 369.011 134.986 371.719C133.468 373.719 142.224 433.043 144.649 438.78C145.378 440.506 147.279 442.133 149.351 442.892C152.06 443.886 155.915 442.647 158.487 441.796C168.717 438.41 179.232 434.131 188.998 429.95C194.084 428.027 201.207 426.198 204.866 422.707C205.256 420.472 203.75 418.193 202.057 416.475C200.126 414.515 197.462 412.934 194.26 412.73C189.083 412.4 168.911 419.989 162.696 421.83C159.799 410.013 158.082 398.044 156.146 386.11C155.354 381.232 155.075 375.96 153.666 371.185C153.28 369.877 152.86 368.611 151.479 367.723C150.306 366.968 148.846 366.899 147.411 366.995ZM361.234 367.343C360.107 368.074 359.205 368.641 358.733 369.79C356.781 374.551 356.621 380.635 355.841 385.612C353.937 397.77 352.321 410.035 349.863 422.129C342.985 420.114 336.14 418.029 329.33 415.874C325.978 414.82 322.416 413.376 318.915 412.752C317.56 412.51 315.816 412.3 314.539 412.838C311.277 414.212 306.957 419.084 306.376 421.924C306.256 422.513 306.401 422.977 306.631 423.53C311.386 427.437 320.526 429.36 326.627 431.858C333.313 434.233 357.015 444.883 362.828 442.86C365.077 442.078 366.495 440.355 367.287 438.567C369.652 433.233 378.25 373.842 376.89 372.096C374.94 369.593 367.958 367.998 364.465 367.458C363.37 367.289 362.342 367.309 361.234 367.343Z" fill="white"/>
<path d="M68.1883 235.953C59.9162 235.958 51.4411 236.281 44.5614 231.916C39.8691 228.939 36.6243 224.38 35.9594 219.627C34.7553 211.033 35.5004 201.824 35.4963 193.164C35.4931 185.455 34.5316 176.793 36.0967 169.22C36.7877 165.876 37.8429 163.142 40.5393 160.456C45.3668 155.646 51.2049 154.066 58.6008 153.437L90.3687 153.33C89.7693 180.866 90.3313 208.482 90.4457 236.027C83.0321 235.897 75.6029 235.962 68.1883 235.953Z" fill="white"/>
<path d="M286.569 294.948C275.721 294.978 258.04 297.065 249.946 290.604C245.934 287.401 244.338 283.07 244.366 278.626C244.394 274.149 246.034 269.918 250.18 266.764C252.43 265.052 255.392 263.628 258.425 263.018C264.011 261.895 291.953 262.19 297.205 263.521C303.299 265.064 307.799 269.086 314.183 270.28C321.714 271.688 331.012 271.406 338.768 271.394C361.927 271.36 383.637 267.124 400.353 253.665C423.927 234.683 421.69 214.492 421.671 190.25L421.619 153.414C431.57 153.377 441.776 152.97 451.697 153.422C458.344 153.725 464.658 155.382 469.081 159.505C471.879 162.115 473.499 165.023 474.348 168.372C476.193 175.651 475.034 184.096 475.049 191.544C475.064 200.151 475.735 209.061 474.936 217.634C474.43 223.054 472.137 228.094 466.719 231.626C459.043 236.629 447.563 236.473 438.166 235.784C432.408 247.454 424.905 257.665 413.693 266.576C394.19 282.074 368.977 288.306 341.854 288.311C333.161 288.312 323.187 287.311 314.628 288.383C311.566 288.766 309.148 290.094 306.521 291.313C299.766 294.446 294.207 294.932 286.569 294.948Z" fill="white"/>
</g>
<defs>
<clipPath id="clip0_2841_2398">
<rect width="512" height="512" fill="white"/>
</clipPath>
</defs>
</svg>
