<svg width="492" height="620" viewBox="0 0 492 620" fill="none" xmlns="http://www.w3.org/2000/svg">
<g clip-path="url(#clip0_2841_2414)">
<path d="M60.9409 171.025C64.6459 128.008 75.7009 95.7959 104.899 63.5779C139.425 25.4819 181.722 3.22394 233.345 0.715939C282.001 -1.98606 328.414 11.3689 365.79 42.9679C395.652 68.2129 418.052 99.7609 426.305 138.523C428.586 149.237 429.585 160.092 430.501 170.992L404.307 171.015C404.19 168.964 404.031 166.917 403.83 164.873C403.629 162.83 403.387 160.791 403.102 158.757C402.818 156.723 402.492 154.696 402.125 152.675C401.757 150.654 401.348 148.642 400.899 146.638C400.449 144.634 399.958 142.64 399.426 140.656C398.895 138.673 398.323 136.701 397.71 134.74C397.098 132.78 396.446 130.833 395.753 128.899C395.061 126.966 394.33 125.047 393.559 123.143C392.788 121.24 391.979 119.353 391.13 117.482C390.282 115.611 389.396 113.759 388.472 111.925C387.548 110.091 386.587 108.277 385.589 106.482C384.59 104.687 383.555 102.914 382.484 101.161C381.413 99.4083 380.307 97.6786 379.165 95.9719C378.023 94.2646 376.847 92.5816 375.636 90.9229C374.425 89.2643 373.18 87.6309 371.903 86.0229C370.625 84.4149 369.315 82.8339 367.972 81.2799C340.467 49.3249 301.181 30.8839 259.377 27.8709L258.58 27.7839C251.378 27.0559 243.688 27.3819 236.468 27.8209C202.22 29.9069 169.388 41.5229 142.721 63.4239C109.678 90.5619 91.5139 128.948 87.4029 170.993L60.9409 171.025Z" fill="white"/>
<path d="M104.849 300.872C104.466 275.002 104.344 249.131 104.481 223.259C104.472 199.493 102.948 174.155 108.278 150.88C108.595 149.481 108.934 148.086 109.295 146.697C109.656 145.308 110.038 143.925 110.441 142.548C110.845 141.171 111.27 139.8 111.717 138.436C112.163 137.073 112.63 135.716 113.119 134.367C113.608 133.018 114.117 131.676 114.648 130.342C115.179 129.009 115.73 127.684 116.302 126.368C116.873 125.051 117.465 123.744 118.078 122.447C118.691 121.149 119.323 119.861 119.976 118.583C120.628 117.305 121.3 116.037 121.993 114.78C122.685 113.523 123.396 112.277 124.127 111.042C124.858 109.807 125.608 108.583 126.377 107.372C127.146 106.16 127.934 104.961 128.74 103.774C129.547 102.587 130.372 101.412 131.215 100.251C132.058 99.0896 132.918 97.9416 133.797 96.8069C134.676 95.6722 135.572 94.5516 136.486 93.4449C137.399 92.3382 138.33 91.2462 139.278 90.1689C165.335 60.9779 201.146 45.8939 239.783 43.7479C242.294 43.6299 244.806 43.5752 247.32 43.5839C249.833 43.5932 252.345 43.6656 254.855 43.8009C257.365 43.9369 259.87 44.1362 262.37 44.3989C264.87 44.6609 267.362 44.9862 269.845 45.3749C272.328 45.7636 274.8 46.2142 277.261 46.7269C279.722 47.2402 282.168 47.8156 284.6 48.4529C287.031 49.0896 289.445 49.7872 291.842 50.5459C294.239 51.3052 296.614 52.1242 298.969 53.0029C300.034 53.3989 301.093 53.8079 302.148 54.2299C303.203 54.6526 304.252 55.0882 305.295 55.5369C306.339 55.9856 307.377 56.4472 308.409 56.9219C309.441 57.3959 310.467 57.8832 311.487 58.3839C312.507 58.8839 313.52 59.3969 314.527 59.9229C315.534 60.4482 316.535 60.9862 317.528 61.5369C318.521 62.0876 319.508 62.6506 320.488 63.2259C321.467 63.8019 322.439 64.3896 323.404 64.9889C324.369 65.5889 325.326 66.2006 326.275 66.8239C327.224 67.4479 328.166 68.0836 329.1 68.7309C330.033 69.3782 330.959 70.0369 331.876 70.7069C332.793 71.3776 333.701 72.0596 334.601 72.7529C335.501 73.4456 336.392 74.1496 337.275 74.8649C338.157 75.5809 339.03 76.3076 339.894 77.0449C340.759 77.7822 341.614 78.5302 342.459 79.2889C343.304 80.0476 344.14 80.8166 344.966 81.5959C345.793 82.3759 346.609 83.1659 347.415 83.9659C348.222 84.7659 349.018 85.5759 349.804 86.3959C350.59 87.2159 351.366 88.0456 352.131 88.8849C352.896 89.7242 353.651 90.5732 354.396 91.4319C355.14 92.2899 355.873 93.1572 356.595 94.0339C357.318 94.9106 358.029 95.7962 358.729 96.6909C359.43 97.5856 360.119 98.4886 360.796 99.3999C361.474 100.312 362.14 101.232 362.794 102.16C363.449 103.089 364.092 104.025 364.723 104.97C365.354 105.914 365.974 106.866 366.581 107.827C367.188 108.786 367.783 109.754 368.366 110.729C368.949 111.704 369.52 112.686 370.079 113.675C370.638 114.664 371.184 115.66 371.717 116.663C372.251 117.666 372.772 118.675 373.28 119.691C373.788 120.707 374.284 121.729 374.767 122.757C375.25 123.786 375.719 124.82 376.176 125.86C377.399 128.63 378.528 131.438 379.562 134.284C380.595 137.129 381.532 140.007 382.371 142.916C383.21 145.825 383.951 148.76 384.593 151.719C385.234 154.678 385.775 157.655 386.215 160.651C389.042 180.221 388.001 200.585 388.036 220.31C388.058 232.912 388.905 246.178 387.659 258.688C387.393 261.453 386.936 264.187 386.288 266.889C385.64 269.59 384.807 272.234 383.79 274.819C377.594 290.614 365.92 299.059 350.843 305.628C370.726 271.352 366.446 232.342 367.398 194.482C331.544 180.961 301.256 154.43 277.47 125.025C237.31 169.017 185.772 200.404 125.035 203.59C125.023 220.752 124.09 238.52 125.706 255.602C127.813 277.861 135.804 299.878 146.988 319.171C164.174 348.818 192.3 377.726 226.261 386.535C249.284 392.507 272.453 387.91 292.799 376.175C298.601 372.829 303.776 368.555 309.543 365.218L309.993 364.963C345.976 365.467 377.917 363.22 406.823 338.756C410.474 362.642 419.074 382.336 435.184 400.428C425.984 407.612 415.492 411.854 403.837 412.822C374.026 415.299 349.934 400.379 328.001 381.976C325.88 391.376 324.136 401.673 328.649 410.699C330.461 414.322 333.661 417.149 337.022 419.322C350.093 427.772 382.204 437.464 398.527 443.034C407.438 446.077 416.316 449.632 424.682 453.961C453.045 468.638 474.366 492.172 483.959 522.858C485.977 529.309 487.435 535.885 488.334 542.585C490.093 555.638 490.049 569.021 490.508 582.172C490.744 588.923 491.59 596.027 491.031 602.755C490.789 605.667 490.151 608.564 488.71 611.133C486.822 614.498 483.813 616.858 480.091 617.804C470.075 620.35 443.974 619.025 432.314 619.023L341.822 619.004H126.111L58.6451 618.995C46.0161 619.016 33.3121 619.34 20.6901 619.035C16.5331 618.934 11.4881 618.43 7.94509 616.138C4.72409 614.053 2.25407 610.572 1.51207 606.804C-0.238926 597.91 1.85309 571.503 2.29409 561.115C2.68709 551.86 3.29607 542.747 5.18807 533.65C13.1161 495.542 38.1631 466.834 73.2381 450.798C93.4181 441.571 115.179 435.613 135.948 427.77C145.185 424.281 157.019 420.159 162.49 411.338C167.571 403.146 166.352 390.577 164.07 381.594L163.849 380.744C147.921 395.093 130.126 408.31 108.492 412.057C89.3451 415.374 71.9231 411.773 56.0971 400.612C82.8101 374.895 86.5021 335.791 89.6251 300.946L104.849 300.872ZM187.5 393.45C187.569 410.942 182.843 422.501 170.486 434.936C170.006 435.419 169.523 435.898 169.038 436.374C182.822 454.254 196.513 472.228 211.348 489.261C222.384 501.932 234.118 513.868 246.059 525.678C258.376 513.019 270.521 500.324 282.126 486.999C296.056 470.356 309.04 453.074 322.528 436.091C311.182 425.106 304.733 414.723 304.444 398.562C304.423 397.199 304.422 395.837 304.441 394.474C276.536 409.838 248.926 416.193 217.529 407.147C204.229 403.315 198.876 398.883 187.5 393.45ZM146.059 442.086C140.355 444.203 134.621 446.238 128.858 448.189L134.528 503.478C135.362 511.595 135.452 521.092 137.54 528.95C137.963 530.543 138.833 531.838 140.098 532.891C142.048 534.515 144.324 535.097 146.823 534.829C155.002 533.953 172.937 524.115 181.391 520.529C187.777 517.639 194.338 514.925 200.586 511.757L187.893 496.213C178.22 498.839 166.338 504.959 156.714 508.849C155.563 501.466 147.257 443.501 146.059 442.086ZM345.228 441.78C342.407 464.178 338.978 486.623 335.48 508.926C324.739 504.589 313.888 500.504 303.189 496.067L290.814 511.396C297.516 514.834 304.425 517.88 311.277 521.004C318.181 524.123 342.552 537.098 349.115 534.35C351.04 533.545 353.043 531.911 353.815 529.92C355.981 524.339 356.156 513.468 356.822 507.113C358.883 487.478 360.288 467.532 363.041 447.996C357.098 445.95 351.118 443.973 345.228 441.78Z" fill="white"/>
<path d="M63.7499 283.53C56.1819 283.596 49.2919 283.509 42.8819 278.826C37.3019 274.75 34.3329 268.49 33.3859 261.778C32.3319 254.313 32.2669 215.92 33.6369 208.572C34.3869 204.549 35.9709 200.698 38.4889 197.453C43.2439 191.329 49.9049 189.054 57.2899 188.18C66.8539 187.124 77.3609 187.993 87.0159 188.03L87.0449 283.569L63.7499 283.53Z" fill="white"/>
<path d="M190.238 262.919C189.86 262.986 189.481 263.043 189.101 263.091C188.72 263.138 188.339 263.177 187.956 263.206C187.573 263.235 187.19 263.255 186.807 263.266C186.424 263.276 186.04 263.277 185.657 263.268C185.274 263.26 184.891 263.242 184.508 263.215C184.125 263.188 183.744 263.151 183.363 263.105C182.982 263.059 182.602 263.004 182.224 262.94C181.846 262.875 181.47 262.801 181.095 262.718C180.721 262.635 180.349 262.543 179.979 262.442C179.609 262.341 179.242 262.23 178.877 262.111C178.512 261.992 178.151 261.864 177.793 261.727C177.434 261.59 177.079 261.444 176.728 261.29C176.377 261.135 176.03 260.972 175.687 260.801C175.344 260.63 175.005 260.45 174.671 260.262C174.336 260.074 174.007 259.878 173.682 259.674C173.357 259.47 173.038 259.258 172.724 259.038C172.409 258.818 172.101 258.591 171.798 258.356C171.495 258.121 171.197 257.878 170.906 257.629C170.615 257.379 170.33 257.122 170.051 256.859C169.772 256.596 169.5 256.325 169.235 256.048C168.97 255.771 168.711 255.488 168.459 255.199C168.208 254.909 167.963 254.613 167.726 254.312C167.489 254.011 167.26 253.704 167.038 253.391C166.816 253.078 166.602 252.759 166.395 252.436C166.189 252.113 165.991 251.785 165.8 251.452C165.61 251.119 165.428 250.781 165.254 250.439C165.08 250.097 164.915 249.751 164.758 249.401C164.601 249.051 164.453 248.697 164.314 248.34C164.175 247.983 164.044 247.622 163.922 247.259C163.801 246.895 163.688 246.528 163.584 246.159C163.48 245.79 163.385 245.418 163.3 245.044C163.215 244.67 163.138 244.294 163.071 243.917C163.004 243.54 162.946 243.161 162.898 242.78C162.849 242.399 162.81 242.018 162.78 241.635C162.75 241.253 162.73 240.87 162.719 240.487C162.708 240.104 162.706 239.72 162.714 239.336C162.722 238.953 162.739 238.57 162.765 238.187C162.792 237.804 162.828 237.423 162.873 237.042C162.918 236.661 162.973 236.281 163.037 235.903C163.101 235.525 163.174 235.149 163.256 234.774C163.339 234.399 163.43 234.027 163.531 233.657C163.632 233.287 163.741 232.919 163.86 232.554C163.979 232.189 164.106 231.828 164.242 231.469C164.379 231.111 164.524 230.756 164.678 230.405C164.831 230.053 164.994 229.705 165.165 229.362C165.336 229.019 165.515 228.68 165.702 228.345C165.889 228.01 166.085 227.681 166.289 227.356C166.492 227.031 166.704 226.711 166.923 226.396C167.142 226.081 167.369 225.772 167.604 225.469C167.839 225.165 168.08 224.867 168.329 224.576C168.578 224.284 168.834 223.999 169.097 223.72C169.36 223.441 169.63 223.168 169.907 222.902C170.183 222.636 170.466 222.377 170.755 222.125C171.044 221.873 171.34 221.628 171.641 221.391C171.942 221.153 172.248 220.923 172.561 220.701C172.874 220.478 173.191 220.263 173.514 220.056C173.837 219.849 174.165 219.651 174.498 219.46C174.831 219.269 175.168 219.086 175.509 218.912C175.851 218.737 176.197 218.571 176.546 218.414C176.896 218.257 177.25 218.108 177.607 217.968C177.964 217.828 178.324 217.697 178.688 217.575C179.051 217.452 179.418 217.339 179.787 217.235C180.156 217.13 180.527 217.035 180.901 216.949C181.275 216.863 181.651 216.786 182.028 216.718C182.407 216.65 182.786 216.591 183.167 216.542C183.548 216.493 183.931 216.454 184.314 216.423C184.697 216.392 185.081 216.371 185.465 216.36C185.849 216.349 186.233 216.347 186.618 216.354C187.002 216.361 187.386 216.378 187.77 216.404C188.153 216.43 188.536 216.465 188.918 216.51C189.299 216.555 189.68 216.61 190.059 216.674C190.438 216.737 190.815 216.81 191.191 216.892C191.566 216.975 191.939 217.066 192.31 217.167C192.681 217.268 193.05 217.377 193.415 217.496C193.781 217.615 194.144 217.742 194.503 217.878C194.862 218.015 195.218 218.16 195.57 218.314C195.922 218.468 196.27 218.631 196.615 218.802C196.959 218.973 197.299 219.152 197.634 219.34C197.969 219.528 198.3 219.724 198.626 219.928C198.951 220.132 199.272 220.344 199.587 220.563C199.902 220.783 200.212 221.011 200.517 221.246C200.821 221.481 201.119 221.723 201.411 221.973C201.704 222.222 201.99 222.479 202.269 222.743C202.549 223.006 202.822 223.277 203.088 223.554C203.355 223.831 203.614 224.115 203.866 224.405C204.119 224.695 204.364 224.991 204.602 225.292C204.84 225.594 205.07 225.902 205.293 226.215C205.516 226.528 205.731 226.847 205.938 227.171C206.145 227.495 206.344 227.824 206.535 228.157C206.726 228.491 206.908 228.829 207.082 229.171C207.257 229.514 207.423 229.86 207.58 230.211C207.737 230.562 207.886 230.917 208.026 231.275C208.165 231.633 208.296 231.994 208.418 232.358C208.541 232.723 208.654 233.09 208.758 233.46C208.862 233.83 208.957 234.202 209.042 234.577C209.128 234.952 209.205 235.328 209.272 235.707C209.339 236.086 209.397 236.466 209.446 236.847C209.495 237.228 209.534 237.61 209.563 237.993C209.593 238.376 209.613 238.76 209.624 239.145C209.635 239.529 209.637 239.913 209.629 240.297C209.621 240.682 209.604 241.066 209.577 241.449C209.55 241.832 209.513 242.215 209.468 242.597C209.423 242.978 209.368 243.359 209.303 243.738C209.239 244.117 209.165 244.494 209.082 244.869C208.999 245.244 208.907 245.617 208.806 245.988C208.705 246.359 208.594 246.728 208.475 247.093C208.356 247.458 208.228 247.821 208.091 248.18C207.954 248.539 207.808 248.894 207.653 249.246C207.499 249.598 207.336 249.946 207.164 250.29C206.993 250.634 206.813 250.973 206.624 251.308C206.436 251.643 206.24 251.974 206.035 252.299C205.83 252.624 205.618 252.945 205.397 253.26C205.177 253.575 204.949 253.884 204.714 254.188C204.478 254.491 204.235 254.789 203.985 255.081C203.735 255.373 203.478 255.659 203.214 255.938C202.949 256.217 202.678 256.49 202.401 256.755C202.123 257.021 201.839 257.28 201.549 257.532C201.259 257.784 200.963 258.029 200.66 258.266C200.358 258.503 200.05 258.733 199.736 258.956C199.423 259.178 199.104 259.392 198.779 259.599C198.455 259.806 198.126 260.004 197.792 260.194C197.458 260.385 197.12 260.567 196.777 260.74C196.434 260.914 196.087 261.079 195.736 261.236C195.385 261.393 195.031 261.541 194.672 261.68C194.314 261.819 193.953 261.95 193.588 262.071C193.223 262.192 192.856 262.305 192.486 262.409C192.115 262.512 191.743 262.606 191.368 262.691C190.993 262.776 190.617 262.852 190.238 262.919Z" fill="white"/>
<path d="M309.748 262.998C309.371 263.055 308.992 263.102 308.613 263.141C308.234 263.179 307.854 263.208 307.473 263.228C307.092 263.248 306.711 263.259 306.33 263.26C305.949 263.261 305.567 263.253 305.186 263.236C304.805 263.219 304.425 263.192 304.046 263.156C303.666 263.12 303.287 263.075 302.91 263.02C302.533 262.966 302.157 262.902 301.782 262.829C301.408 262.756 301.036 262.675 300.665 262.584C300.295 262.493 299.927 262.393 299.562 262.284C299.197 262.175 298.834 262.058 298.474 261.931C298.114 261.804 297.758 261.669 297.405 261.525C297.052 261.381 296.702 261.228 296.357 261.067C296.011 260.906 295.669 260.737 295.332 260.559C294.995 260.382 294.662 260.196 294.333 260.002C294.005 259.808 293.682 259.606 293.363 259.396C293.045 259.187 292.732 258.969 292.424 258.744C292.116 258.519 291.814 258.286 291.517 258.047C291.221 257.807 290.931 257.56 290.646 257.306C290.361 257.052 290.083 256.791 289.812 256.524C289.54 256.257 289.275 255.983 289.016 255.702C288.758 255.421 288.507 255.135 288.262 254.842C288.018 254.549 287.781 254.251 287.551 253.946C287.322 253.642 287.1 253.332 286.885 253.017C286.67 252.702 286.463 252.382 286.264 252.057C286.065 251.732 285.874 251.402 285.691 251.067C285.508 250.732 285.334 250.393 285.167 250.05C285.001 249.707 284.843 249.36 284.693 249.009C284.544 248.658 284.403 248.304 284.271 247.947C284.139 247.589 284.016 247.228 283.901 246.864C283.786 246.501 283.681 246.135 283.584 245.766C283.487 245.397 283.4 245.026 283.321 244.653C283.242 244.28 283.173 243.905 283.113 243.528C283.053 243.151 283.002 242.774 282.96 242.395C282.918 242.016 282.885 241.636 282.862 241.255C282.839 240.874 282.825 240.493 282.82 240.112C282.815 239.731 282.82 239.35 282.834 238.969C282.848 238.588 282.871 238.207 282.904 237.827C282.936 237.447 282.978 237.068 283.029 236.69C283.08 236.313 283.14 235.936 283.209 235.561C283.278 235.186 283.357 234.813 283.445 234.442C283.532 234.071 283.629 233.702 283.735 233.336C283.84 232.969 283.955 232.606 284.078 232.245C284.201 231.884 284.333 231.527 284.474 231.172C284.615 230.817 284.764 230.467 284.922 230.12C285.08 229.773 285.246 229.43 285.421 229.091C285.596 228.752 285.779 228.417 285.97 228.087C286.161 227.757 286.359 227.432 286.566 227.112C286.773 226.791 286.988 226.476 287.21 226.166C287.432 225.856 287.662 225.552 287.899 225.253C288.136 224.954 288.381 224.662 288.632 224.375C288.883 224.088 289.141 223.808 289.406 223.534C289.671 223.26 289.943 222.992 290.221 222.731C290.499 222.47 290.783 222.217 291.074 221.97C291.365 221.723 291.661 221.483 291.963 221.25C292.266 221.018 292.573 220.793 292.886 220.575C293.199 220.358 293.518 220.148 293.841 219.946C294.164 219.744 294.493 219.55 294.826 219.364C295.159 219.178 295.496 219 295.838 218.831C296.179 218.662 296.525 218.501 296.874 218.348C297.223 218.195 297.576 218.051 297.933 217.916C298.29 217.781 298.649 217.654 299.012 217.536C299.375 217.418 299.74 217.309 300.108 217.209C300.476 217.109 300.846 217.018 301.218 216.936C301.591 216.854 301.965 216.781 302.341 216.718C302.721 216.653 303.103 216.598 303.486 216.553C303.869 216.508 304.253 216.472 304.638 216.445C305.023 216.418 305.408 216.401 305.794 216.394C306.179 216.386 306.565 216.388 306.95 216.399C307.336 216.411 307.721 216.432 308.106 216.462C308.49 216.493 308.873 216.533 309.256 216.582C309.639 216.631 310.02 216.69 310.4 216.759C310.779 216.827 311.157 216.905 311.533 216.992C311.908 217.079 312.282 217.175 312.653 217.28C313.024 217.385 313.393 217.5 313.758 217.623C314.123 217.747 314.485 217.88 314.844 218.021C315.203 218.162 315.559 218.312 315.91 218.471C316.261 218.63 316.609 218.798 316.952 218.974C317.295 219.15 317.634 219.334 317.968 219.527C318.302 219.72 318.631 219.921 318.955 220.13C319.279 220.339 319.598 220.556 319.912 220.781C320.225 221.006 320.533 221.238 320.835 221.478C321.137 221.718 321.433 221.965 321.722 222.22C322.012 222.475 322.295 222.736 322.572 223.005C322.849 223.274 323.119 223.549 323.382 223.831C323.645 224.113 323.902 224.401 324.151 224.695C324.4 224.99 324.641 225.29 324.876 225.597C325.11 225.904 325.336 226.216 325.555 226.534C325.774 226.851 325.984 227.174 326.187 227.502C326.39 227.83 326.585 228.163 326.771 228.501C326.958 228.839 327.136 229.181 327.305 229.527C327.474 229.874 327.635 230.224 327.787 230.579C327.94 230.934 328.083 231.292 328.218 231.653C328.352 232.014 328.477 232.379 328.594 232.747C328.711 233.114 328.818 233.485 328.916 233.858C329.014 234.231 329.103 234.606 329.183 234.984C329.263 235.361 329.333 235.74 329.394 236.121C329.455 236.502 329.506 236.884 329.549 237.268C329.591 237.651 329.623 238.035 329.646 238.42C329.669 238.805 329.683 239.191 329.687 239.576C329.691 239.962 329.686 240.348 329.671 240.733C329.656 241.118 329.631 241.503 329.597 241.888C329.564 242.272 329.52 242.655 329.467 243.037C329.414 243.419 329.352 243.8 329.28 244.179C329.209 244.558 329.128 244.935 329.037 245.31C328.947 245.685 328.848 246.057 328.739 246.428C328.63 246.798 328.513 247.165 328.386 247.529C328.259 247.894 328.124 248.255 327.979 248.612C327.834 248.969 327.681 249.323 327.518 249.673C327.356 250.023 327.186 250.369 327.007 250.711C326.828 251.052 326.64 251.389 326.444 251.722C326.248 252.054 326.044 252.381 325.832 252.704C325.62 253.026 325.4 253.343 325.173 253.654C324.945 253.965 324.71 254.271 324.467 254.571C324.224 254.871 323.974 255.165 323.717 255.452C323.46 255.739 323.196 256.02 322.925 256.295C322.654 256.569 322.376 256.836 322.092 257.097C321.807 257.358 321.517 257.611 321.22 257.858C320.923 258.105 320.621 258.344 320.312 258.575C320.003 258.806 319.689 259.03 319.37 259.246C319.05 259.461 318.725 259.669 318.395 259.869C318.065 260.069 317.73 260.261 317.391 260.444C317.052 260.627 316.708 260.802 316.36 260.969C316.012 261.135 315.66 261.293 315.304 261.442C314.949 261.591 314.59 261.731 314.227 261.862C313.864 261.993 313.498 262.116 313.129 262.229C312.76 262.342 312.389 262.446 312.015 262.541C311.641 262.636 311.265 262.721 310.887 262.797C310.509 262.874 310.129 262.941 309.748 262.998Z" fill="white"/>
<path d="M271.199 351.602C260.352 351.637 242.673 354.046 234.58 346.587C230.568 342.891 228.972 337.891 229 332.762C229.028 327.595 230.668 322.711 234.814 319.07C237.063 317.094 240.026 315.45 243.058 314.746C248.643 313.451 276.582 313.791 281.833 315.327C287.926 317.108 292.426 321.75 298.809 323.128C306.339 324.754 315.636 324.428 323.391 324.414C346.547 324.375 368.254 319.486 384.968 303.95C408.538 282.041 406.302 258.734 406.283 230.753L406.231 188.235C416.181 188.192 426.385 187.723 436.306 188.244C442.951 188.594 449.264 190.506 453.687 195.266C456.484 198.278 458.105 201.635 458.954 205.5C460.798 213.902 459.639 223.65 459.654 232.247C459.67 242.181 460.341 252.466 459.541 262.361C459.036 268.617 456.742 274.434 451.326 278.512C443.651 284.287 432.172 284.106 422.776 283.311C417.019 296.782 409.517 308.568 398.306 318.853C378.806 336.742 353.596 343.935 326.476 343.94C317.785 343.942 307.811 342.786 299.254 344.024C296.192 344.466 293.775 345.999 291.147 347.406C284.393 351.023 278.835 351.583 271.199 351.602Z" fill="white"/>
</g>
<defs>
<clipPath id="clip0_2841_2414">
<rect width="492" height="620" fill="white"/>
</clipPath>
</defs>
</svg>
