<svg width="512" height="512" viewBox="0 0 512 512" fill="none" xmlns="http://www.w3.org/2000/svg">
<g clip-path="url(#clip0_2848_4793)">
<path d="M241.654 511.496C226.912 510.867 214.199 509.02 200.595 505.537C172.398 498.403 148.653 488.079 130.3 474.985L126.293 472.131H120.901C114.915 472.131 109.523 471.669 100.668 470.452C94.4848 469.571 93.6933 469.445 84.8384 467.683C76.132 465.962 58.6695 461.178 52.1892 458.66C51.1008 458.24 47.737 456.981 44.7194 455.848C41.7018 454.715 35.914 452.239 31.8576 450.308C20.3314 444.894 13.01 440.362 6.33176 434.486C3.16577 431.675 2.42374 430.793 1.68171 428.695C0.148181 424.204 0.444992 421.519 3.36364 414.51C12.1196 393.191 20.4798 361.17 22.0628 342.662C22.2112 341.067 22.4091 339.431 22.5575 339.095C22.8543 338.424 23.4974 328.939 24.0415 316.852L24.3383 309.928L21.2713 307.829C13.0595 302.206 6.48016 294.442 4.00673 287.475C2.62161 283.614 2.12692 281.474 0.989147 274.172C0.296586 269.765 0.296586 233.799 0.989147 229.644C2.02799 223.475 4.20461 217.768 8.21156 210.969C10.6355 206.814 11.2786 206.017 15.0877 202.66L17.759 200.309L18.0558 193.637C18.4021 184.11 19.5893 173.618 21.0239 166.568C21.7165 163.252 22.6069 158.762 23.0521 156.58C24.7341 147.724 29.582 134.043 35.8645 120.236C39.4757 112.346 45.7582 101.77 51.3482 94.0904C52.7828 92.1599 53.9206 90.4812 53.9206 90.3973C53.9206 89.9356 61.8355 80.1153 65.9414 75.4569C73.9059 66.476 82.6618 58.4602 94.7816 49.1435C105.912 40.5822 111.7 36.8891 126.639 28.9573C140.441 21.655 151.522 17.0386 167.451 12.0865C187.585 5.83334 206.185 2.47596 230.523 0.755303C240.566 0.0838279 272.77 0.0418607 280.981 0.755303C292.508 1.76252 302.5 2.89563 308.931 4.02875C312.493 4.61629 316.351 5.28776 317.588 5.4976C326.097 6.96645 346.676 12.8838 357.064 16.8287C358.202 17.2484 360.181 18.0458 361.516 18.5074C371.558 22.3265 381.056 26.775 391.445 32.6504C401.982 38.5678 408.957 43.1422 418.306 50.1927C436.115 63.6222 450.609 78.8143 464.411 98.4969C472.623 110.206 482.517 131.147 487.463 147.305C489.442 153.81 492.262 166.106 493.004 171.562C493.152 172.653 493.597 175.507 493.993 177.941C494.438 180.375 494.884 186.628 495.032 191.874L495.329 201.401L498.396 204.674C506.064 212.858 509.922 220.831 511.109 231.029C511.406 233.631 511.604 243.578 511.555 253.65C511.505 273.29 511.159 276.69 508.24 285.167C506.014 291.756 500.968 299.226 494.983 304.85L492.806 306.948L492.509 310.935C492.361 313.159 491.866 318.657 491.47 323.147C490.283 336.073 490.481 349.209 491.965 358.064C493.696 368.262 494.142 370.235 498.248 384.629C502.007 397.933 505.42 407.795 508.636 414.804C510.912 419.756 511.208 420.637 511.159 423.449C511.159 425.296 510.813 427.184 510.367 428.065C509.279 430.206 503.689 435.578 499.286 438.767C490.827 444.894 476.234 452.323 464.263 456.603C461.542 457.61 458.376 458.744 457.288 459.163C450.758 461.639 436.808 465.458 425.924 467.724C411.727 470.704 403.614 471.711 390.802 472.089L381.155 472.341L375.615 476.16C356.223 489.422 329.955 500.459 304.726 505.915C288.204 509.44 284.395 510.153 277.519 510.783C270.89 511.454 249.866 511.832 241.654 511.496ZM277.073 487.071C285.829 485.728 294.288 484.176 300.027 482.833C317.44 478.804 331.192 473.516 348.061 464.451L353.601 461.471L349.545 458.114C343.015 452.658 339.552 448.042 336.089 440.194L334.655 436.963L330.697 436.669C317.934 435.745 306.804 430.625 297.949 421.686L296.416 420.176L292.953 421.183C291.024 421.728 287.066 422.61 284.098 423.197C273.858 425.128 270.544 425.338 250.509 425.254C233.096 425.212 226.764 424.918 218.898 423.869C217.266 423.659 214.248 423.281 212.22 422.987C204.701 422.022 191.691 419.001 184.27 416.399L181.747 415.559L181.104 418.959C179.521 427.688 173.734 437.886 164.384 448.42C160.674 452.532 155.282 457.484 152.907 458.827C151.324 459.709 151.621 460.003 158.448 463.822C163.889 466.927 177.196 472.719 185.507 475.614C197.676 479.895 201.139 480.902 212.22 483.252C233.046 487.659 241.505 488.54 259.265 488.246C268.169 488.121 271.731 487.869 277.073 487.071ZM398.717 448.839C412.617 447.496 423.599 445.146 437.352 440.488C440.518 439.439 443.238 438.557 443.387 438.557C445.118 438.557 465.499 430.206 473.414 426.219C477.866 423.995 482.319 420.847 482.319 419.966C482.319 419.756 481.774 418.287 481.082 416.692C480.439 415.098 478.856 410.817 477.619 407.208C476.432 403.557 475.195 400.031 474.948 399.318C473.513 395.415 470.05 382.405 468.913 376.782C468.566 374.977 468.171 373.508 467.973 373.508C467.824 373.508 466.192 375.019 464.312 376.865C454.072 387.147 433.988 398.437 416.773 403.641C411.232 405.319 396.293 408.677 390.159 409.6C387.834 409.978 386.696 410.355 386.498 410.817C384.074 417.364 380.018 422.652 374.279 426.723C371.509 428.695 364.386 431.843 362.704 431.843C360.675 431.843 361.417 434.025 364.781 438.347C368.096 442.544 372.103 445.482 378.187 448.168C381.007 449.385 381.452 449.469 386.844 449.469C389.961 449.469 395.303 449.175 398.717 448.839ZM127.579 447.286C135.742 443.384 141.233 439.229 145.635 433.563C148.95 429.283 150.186 426.932 152.066 421.393C153.897 415.937 154.688 411.95 154.985 406.326L155.183 402.885L152.907 401.752C142.519 396.674 133.367 390.463 121.297 380.349C111.106 371.745 107.792 368.598 101.559 361.547C98.1455 357.686 92.3577 350.426 90.0821 347.111C85.2342 340.144 75.6373 323.231 73.7575 318.447C73.4112 317.566 72.966 316.768 72.7186 316.643C72.5207 316.517 70.2452 316.81 67.7223 317.314C64.9521 317.818 60.2525 318.279 56.0972 318.405L49.1221 318.657L48.7758 323.945C48.5779 326.841 48.2317 334.521 47.9843 340.984C47.6875 348.873 47.2423 354.665 46.5497 358.61C46.0056 361.841 45.313 366.206 45.0162 368.262C43.73 377.663 34.8257 407.837 30.4724 417.7C28.8894 421.225 28.8894 421.393 30.5714 422.232C31.3134 422.61 33.589 423.827 35.6172 424.918C52.2386 433.857 77.3192 442.292 97.9476 445.944C98.6402 446.069 99.9758 446.321 100.916 446.531C101.856 446.741 103.439 447.035 104.379 447.161C105.318 447.286 107.792 447.622 109.82 447.958C111.848 448.252 116.053 448.545 119.17 448.587C124.611 448.629 124.859 448.587 127.579 447.286ZM346.28 411.824C347.764 411.488 351.326 410.733 354.195 410.104C359.34 408.97 359.389 408.928 360.923 407.04C363.099 404.27 363.94 400.577 363.149 397.262C362.456 394.408 360.626 391.05 358.993 389.54C355.877 386.644 347.517 384.797 337.672 384.839C334.457 384.839 330.994 384.923 330.005 385.091C324.514 385.846 319.913 387.945 317.836 390.673C314.818 394.492 314.768 401.123 317.638 406.159C319.369 409.138 320.062 409.642 324.514 410.817C332.231 412.831 340.245 413.209 346.28 411.824ZM263.964 402.424C270.197 402.046 276.579 401.206 283.356 399.822C287.066 399.066 287.957 398.73 288.105 398.059C288.204 397.597 288.55 395.709 288.896 393.862C289.589 389.917 291.914 383.748 293.695 381.062C299.582 372.333 312.443 364.989 325.998 362.597C337.277 360.624 357.46 362.806 368.937 367.255C378.237 370.864 382.491 375.313 384.915 384C385.509 386.182 386.053 388.029 386.102 388.113C386.251 388.239 398.915 385.427 402.526 384.462C430.129 376.907 453.083 359.743 461.789 340.06C464.411 334.227 465.005 331.247 465.005 324.197C465.005 318.069 464.955 317.608 464.164 317.902C460.75 318.993 448.878 319.538 442.496 318.825L439.528 318.531L436.857 323.315C430.871 334.311 420.928 347.824 412.073 357.057C410.045 359.197 407.621 361.841 406.731 362.932C402.526 367.968 397.727 370.57 392.78 370.57C387.289 370.57 383.184 368.556 381.403 365.031C380.463 363.184 380.314 362.303 380.512 359.281C380.76 355.043 381.304 353.993 385.558 349.587C393.671 341.193 405.098 326.547 408.462 320.21C418.257 301.828 422.165 291.001 423.451 278.872C423.748 275.892 423.946 265.359 423.847 252.894L423.698 231.953L419.741 231.029C409.352 228.553 392.978 223.769 387.982 221.755C379.869 218.439 372.845 214.746 365.078 209.668C353.849 202.324 334.012 185.789 325.206 176.472C317.539 168.33 309.921 159.307 309.03 157.293C308.882 156.873 308.535 156.538 308.288 156.538C308.041 156.538 306.458 157.839 304.776 159.433C290.529 173.031 272.522 185.957 256.544 194.098C228.891 208.115 205.097 216.719 173.14 224.273C167.847 225.49 161.614 226.833 159.289 227.21C153.748 228.092 142.271 229.561 140.837 229.561C140.045 229.603 139.303 230.232 138.017 232.163C134.06 238.08 124.957 247.858 119.17 252.433C108.534 260.826 98.195 266.072 89.9832 267.163L87.955 267.457L88.3012 271.696C88.697 276.396 89.6369 281.054 92.0114 289.574C98.7391 313.831 112.343 337.71 128.569 353.784C138.71 363.814 155.084 376.068 167.847 383.244C172.249 385.679 189.662 393.275 192.68 394.03C193.521 394.282 196.044 394.995 198.369 395.667C200.694 396.38 204.8 397.429 207.521 398.059C210.241 398.646 213.457 399.402 214.694 399.738C223.796 402.214 246.65 403.431 263.964 402.424ZM455.853 295.827C460.8 295.239 465.104 294.064 468.072 292.469C471.782 290.455 476.927 285.503 478.955 281.978C481.824 277.067 484.396 269.178 485.188 262.924C485.732 258.56 485.584 242.109 484.94 239.633C484.594 238.374 484.001 235.898 483.605 234.177C480.736 221.545 475.888 216.089 464.609 212.942C461.839 212.186 459.959 211.934 456.348 211.934C453.825 211.934 451.599 212.06 451.45 212.27C451.351 212.438 451.104 226.833 450.956 244.249C450.758 261.665 450.411 278.284 450.115 281.18C449.669 286.132 448.532 292.847 447.889 294.904C447.641 295.701 447.839 295.827 449.521 295.995C450.56 296.079 451.549 296.163 451.747 296.204C451.945 296.246 453.775 296.079 455.853 295.827ZM60.7967 295.407C62.5776 295.155 64.2595 294.778 64.4574 294.61C64.7047 294.442 64.6552 293.183 64.3584 291.84C64.0616 290.455 63.7153 288.441 63.5175 287.265C63.3691 286.132 63.0228 284.034 62.726 282.649C62.4786 281.222 62.1323 265.149 61.9839 246.096L61.7366 212.06L59.3621 211.808C58.0759 211.683 55.0583 211.724 52.6344 211.934C39.1294 213.025 32.5501 218.187 28.9884 230.4C26.6634 238.458 26.2181 241.731 26.2181 250.754C26.2181 264.981 28.4937 274.382 34.2815 284.454C39.3768 293.309 48.6769 297.128 60.7967 295.407ZM91.7146 241.689C100.471 237.912 108.089 230.568 115.163 219.069C120.753 210.004 122.682 209.123 140.639 207.528C144.448 207.192 147.713 206.814 147.911 206.688C148.158 206.563 150.978 206.017 154.193 205.429C160.773 204.296 168.589 202.702 172.645 201.652C182.935 198.966 207.718 190.321 220.877 184.865C238.686 177.437 258.127 165.519 273.116 152.803C281.872 145.332 285.78 141.345 294.981 130.644C298.147 126.909 301.56 123.3 302.55 122.628C305.716 120.404 310.811 119.816 314.422 121.327C318.281 122.88 320.309 125.356 324.266 133.204C330.5 145.542 342.421 159.769 358.054 173.366C378.583 191.286 391.197 198.505 412.123 204.422C417.96 206.059 423.006 207.402 423.402 207.444C424.737 207.57 423.847 188.307 422.165 180.249C420.879 173.87 418.059 164.931 415.734 159.475C412.716 152.509 411.974 151.04 407.72 143.78C403.268 136.058 400.844 132.532 396.392 127.119C383.431 111.423 377.198 105.883 360.626 95.1815C344.944 85.1094 328.422 77.3874 313.779 73.2746C306.26 71.1763 303.341 70.4628 294.833 68.5743C280.685 65.4268 254.714 64.1258 237.944 65.6786C220.333 67.3153 204.552 70.6307 192.433 75.1212C158.151 87.8792 132.625 105.044 115.509 126.825C105.516 139.499 98.0465 153.6 93.5449 168.288C92.1103 173.073 90.4778 179.452 90.28 181.004C90.2305 181.718 89.8842 183.858 89.5874 185.705C88.598 191.664 88.1034 203.751 88.0539 222.972C88.0539 233.296 88.0044 241.899 88.0044 242.067C87.7571 243.284 88.0539 243.242 91.7146 241.689ZM48.5779 189.692C49.5673 189.44 53.1291 189.104 56.4929 188.936L62.5776 188.643L63.2206 183.606C64.1606 176.598 67.0297 163.504 68.5633 159.349C73.8564 144.955 79.5453 133.288 85.4815 124.433C91.2693 115.871 102.103 102.82 108.039 97.3638C116.548 89.516 128.767 80.0733 137.968 74.156C145.24 69.5396 166.462 59.4674 176.85 55.7324C177.938 55.3546 180.857 54.3055 183.281 53.3822C192.482 49.9828 205.938 46.8353 218.156 45.3245C220.185 45.0727 223.449 44.5691 225.329 44.2753C227.259 43.9396 231.265 43.4779 234.234 43.2261C237.251 42.9743 240.219 42.6806 240.912 42.5546C243.286 42.1769 269.406 42.3868 274.551 42.8065C285.483 43.6878 300.324 46.0799 311.899 48.8078C316.203 49.8569 331.39 54.4733 335.892 56.152C340.641 57.9146 352.216 62.8248 357.163 65.175C378.929 75.5828 401.982 93.9225 417.812 113.311C422.511 119.103 424.638 122.166 429.387 129.888C431.415 133.12 433.394 136.351 433.839 137.023C436.461 141.052 442.991 156.538 445.712 165.141C447.394 170.387 449.472 178.528 450.461 183.732L451.351 188.433H455.606C459.266 188.433 465.747 189.188 468.665 189.944C469.556 190.195 469.556 190.027 469.259 187.132C468.616 181.592 466.983 172.485 465.45 165.938C461.294 147.766 451.45 124.601 442.595 112.052C437.352 104.582 429.734 95.2235 423.451 88.5927C413.458 78.0169 410.441 75.2891 398.469 66.3081C397.628 65.6786 396.59 65.0071 396.144 64.7973C395.699 64.5874 394.611 63.832 393.671 63.1605C384.915 56.3619 368.541 47.4228 354.343 41.7153C350.732 40.2465 347.665 39.0294 347.517 39.0294C347.418 39.0294 344.895 38.1481 341.976 37.0989C324.168 30.636 308.437 27.0687 287.66 24.7606C275.787 23.4176 248.085 22.7461 235.965 23.5015C224.439 24.173 210.687 25.8937 202.821 27.5724C193.57 29.5448 189.217 30.552 187.733 31.0556C186.942 31.3494 185.804 31.7271 185.26 31.9369C184.716 32.1048 181.154 33.196 177.345 34.3291C161.96 38.9455 150.731 43.6878 135.989 51.8714C124.166 58.4602 116.548 63.6222 104.972 72.9809C82.8102 90.9009 66.9308 112.178 55.8498 138.702C53.8216 143.57 51.5461 150.662 48.5285 161.784C46.9949 167.407 43.9774 186.083 44.0268 189.608C44.0268 190.237 46.1045 190.279 48.5779 189.692Z" fill="#6B4EE6"/>
<path d="M251.301 358.945C244.424 358.484 235.817 357.015 230.623 355.378C227.407 354.371 215.485 347.992 210.835 344.844C209.153 343.669 207.026 341.781 206.136 340.606C204.701 338.675 204.553 338.214 204.553 335.108C204.553 332.086 204.701 331.499 205.938 329.904C208.164 327.092 212.468 325.246 216.969 325.246C220.185 325.246 221.718 325.707 226.665 328.225C232.404 331.121 240.022 333.555 245.612 334.311C246.453 334.437 248.283 334.688 249.767 334.898C255.357 335.737 263.618 335.15 271.335 333.387C274.996 332.59 280.982 330.114 286.077 327.386C292.854 323.777 298.494 324.113 303.292 328.477C307.843 332.59 307.546 338.088 302.55 342.2C297.455 346.439 285.879 352.273 275.936 355.63C271.83 357.015 264.657 358.316 259.71 358.61C257.682 358.736 255.357 358.903 254.516 358.945C253.725 359.029 252.24 359.029 251.301 358.945Z" fill="#6B4EE6"/>
<path d="M165.373 275.137C159.882 273.962 156.963 271.234 156.518 266.827C156.172 263.764 156.815 261.833 159.338 258.224C163.691 252.097 174.228 244.669 181.45 242.696C183.429 242.193 185.804 241.941 189.217 241.941C193.719 241.941 194.56 242.067 198.369 243.368C204.849 245.592 209.103 247.9 213.506 251.635C218.354 255.748 220.58 259.147 220.976 263.134C221.718 270.143 217.365 275.137 209.994 275.641C205.542 275.934 202.92 274.927 198.468 271.108C196.39 269.304 193.669 266.786 192.432 265.485C191.196 264.226 189.959 263.176 189.662 263.134C189.316 263.134 188.722 263.596 188.327 264.142C187.881 264.687 185.457 266.911 182.934 269.136C176.355 274.885 171.656 276.48 165.373 275.137Z" fill="#6B4EE6"/>
<path d="M298.394 275.179C295.822 274.508 292.062 271.402 291.023 269.094C289.984 266.786 289.885 262.463 290.875 259.987C292.161 256.588 296.663 252.013 302.005 248.572C303.093 247.858 305.913 246.432 308.238 245.34C319.517 240.178 327.383 240.43 339.008 246.264C348.852 251.258 354.541 257.511 355.085 264.058C355.629 270.647 350.534 275.389 342.817 275.473C338.661 275.515 336.831 274.508 329.807 268.422L323.475 262.925L317.192 268.464C309.97 274.885 308.288 275.725 303.242 275.683C301.461 275.641 299.284 275.431 298.394 275.179Z" fill="#6B4EE6"/>
</g>
<defs>
<clipPath id="clip0_2848_4793">
<rect width="512" height="512" fill="white"/>
</clipPath>
</defs>
</svg>
