<svg width="512" height="512" viewBox="0 0 512 512" fill="none" xmlns="http://www.w3.org/2000/svg">
<g clip-path="url(#clip0_2848_4812)">
<path d="M52.2566 511.207C50.1435 510.739 47.7221 508.469 46.8857 506.091C46.0492 503.785 46.0492 496.47 46.8857 491.642C49.0869 478.995 52.3887 471.033 59.6967 461.016C65.728 452.693 76.9101 443.541 86.8155 438.821C93.243 435.758 102.268 432.66 107.991 431.651C109.356 431.399 110.5 431.074 110.5 430.93C110.5 430.786 109.972 430.354 109.312 429.993C105.306 427.904 93.287 418.427 87.3438 412.734C59.8728 386.468 38.433 353.572 24.2573 315.811C17.4336 297.724 10.1696 271.349 7.08791 253.838C1.71697 223.104 0.572342 210.781 0.176125 179.794C-0.132044 158.428 0.572342 141.313 2.20123 128.81C3.61 118.325 4.75463 115.299 8.40863 112.597C11.8865 110.038 12.767 109.822 26.8547 108.669C42.7034 107.336 65.3758 102.904 87.8281 96.7429C95.4883 94.6531 97.9096 93.8965 106.538 90.978C108.079 90.4375 113.714 88.2757 119.085 86.1138C128.726 82.2585 136.387 78.4752 140.745 75.4486C142.77 74.0434 143.166 73.503 144.223 70.8727C149.726 57.217 159.147 45.1826 173.631 33.2924C185.826 23.2758 198.373 15.9975 213.605 10.1245C227.869 4.61176 241.076 1.62119 256.836 0.396138C262.956 -0.108296 276.911 -0.108296 281.754 0.360107C297.999 1.9815 313.319 6.95377 325.382 14.4842C327.451 15.7453 327.495 15.7453 332.866 15.9615C341.451 16.2498 350.872 18.5918 359.413 22.4831C372.576 28.5003 387.28 42.12 395.336 55.6676C399.783 63.126 402.952 72.3139 405.286 84.4924C405.726 86.7624 406.342 88.7441 406.738 89.1044C407.795 90.1132 419.946 94.8333 426.725 96.8871C436.455 99.8416 447.461 102.616 455.429 104.129C471.63 107.228 480.435 108.453 491.309 109.174C497.296 109.534 499.893 110.11 502.183 111.516C504.164 112.777 506.189 115.299 507.157 117.749C510.503 126.072 512.616 160.41 511.604 189.523C509.843 239.858 501.126 282.483 484.089 324.423C476.605 342.87 469.693 356.094 455.165 379.766C442.002 401.277 433.637 411.69 418.405 425.525C395.732 446.135 364.431 466.204 330.929 481.59C323.137 485.193 284.308 501.01 276.911 503.641C258.818 510.018 245.082 512.288 233.768 510.775C224.699 509.55 217.919 506.199 213.429 500.686C212.416 499.461 211.58 498.452 211.536 498.416C211.492 498.344 209.951 498.092 208.102 497.804C203.259 497.047 199.077 495.137 194.983 491.822C190.228 487.967 188.731 485.373 188.511 480.401C188.423 478.347 188.203 476.689 188.027 476.689C187.234 476.689 183.845 473.915 182.26 472.005L180.543 469.916L170.065 469.772C158.619 469.591 154.569 469.087 146.512 466.925C132.116 463.106 120.582 455.683 116.84 447.865C116.18 446.496 115.519 445.343 115.387 445.343C115.255 445.343 113.23 445.739 110.941 446.243C106.186 447.288 99.1423 449.918 95.092 452.188C86.1551 457.161 77.2183 465.808 72.6838 473.915C68.5455 481.229 66.8726 487.066 65.4198 499.785C64.8035 505.262 64.1431 506.919 61.7218 509.297C59.3885 511.603 56.659 512.144 52.2566 511.207ZM250.277 492.471C261.635 489.48 271.717 485.913 282.635 480.977C294.169 475.753 298.968 472.906 301.169 469.952C302.225 468.582 302.137 467.141 300.861 462.637C298.791 455.539 293.509 445.595 289.458 441.199C286.729 438.244 280.874 433.452 279.817 433.272C279.289 433.2 275.415 433.056 271.188 432.912C266.962 432.804 261.019 432.624 257.981 432.515C251.598 432.227 243.585 432.804 238.17 433.849C234.252 434.605 223.642 438.1 223.642 438.605C223.642 438.785 224.391 438.821 225.315 438.713C226.196 438.569 228.881 438.461 231.214 438.389C235.837 438.316 236.806 438.605 238.787 440.767C240.151 442.244 240.283 446.207 239.051 447.793C237.818 449.414 236.189 449.882 230.026 450.387C216.334 451.468 204.36 454.314 198.505 457.809C196.259 459.178 194.146 461.196 194.146 461.989C194.146 462.673 195.775 463.322 198.505 463.754C203.523 464.475 206.869 463.862 222.542 459.395C228.881 457.593 237.114 456.152 241.12 456.152C243.849 456.152 244.07 456.224 245.654 457.521C248.472 459.827 248.604 463.754 245.963 466.096C244.774 467.177 243.629 467.574 238.214 468.979C234.692 469.844 229.409 471.501 226.416 472.582C222.674 473.951 218.8 475.032 213.869 476.041C209.907 476.87 206.429 477.734 206.077 477.951C204.756 478.959 206.869 482.202 209.599 483.355C213.341 484.977 221.177 483.103 236.409 476.978C243.101 474.239 247.812 472.582 248.956 472.474C251.289 472.258 253.491 473.267 254.767 475.104C256.176 477.086 256.176 480.437 254.767 482.13C253.447 483.752 247.724 486.886 239.579 490.417C234.78 492.507 232.975 493.444 233.416 493.696C233.724 493.876 236.585 493.948 239.711 493.876C244.774 493.768 245.963 493.588 250.277 492.471ZM333.482 458.674C350.564 450.567 362.714 443.253 383.23 428.804C412.418 408.267 430.071 388.125 436.939 367.732C439.801 359.156 440.417 355.049 440.461 345.176C440.461 331.665 438.48 321.252 433.461 308.749C423.027 282.699 404.581 266.016 375.569 256.396C369.406 254.342 365.488 253.297 355.715 251.172C351.224 250.199 347.218 249.298 346.822 249.154C346.249 248.974 345.941 249.118 345.765 249.55C345.589 249.947 344.665 251.784 343.652 253.658C339.294 261.693 331.281 270.34 322.785 276.105C311.338 283.924 293.641 290.409 283.691 290.409C281.446 290.409 281.314 290.553 281.798 291.959C283.823 297.724 284.484 314.046 282.943 319.883C281.446 325.431 279.113 330.079 275.679 334.295C274.842 335.34 274.314 336.349 274.534 336.493C274.754 336.637 275.987 337.466 277.264 338.295C283.955 342.798 288.798 352.13 288.798 360.634C288.798 368.741 285.892 375.046 279.773 380.163C276.119 383.225 269.383 386.72 264.981 387.837C264.541 387.909 263.836 388.954 263.308 390.287C262.031 393.386 257.277 401.313 254.679 404.628C252.214 407.798 246.931 413.599 245.654 414.536C245.17 414.896 244.774 415.329 244.774 415.545C244.774 415.761 247.415 415.797 251.95 415.617C256.484 415.473 262.163 415.545 267.27 415.797L275.371 416.266L278.672 414.212C280.565 413.023 285.804 410.573 290.999 408.447C308.653 401.133 317.59 396.773 331.281 388.774C334.935 386.684 339.734 383.91 341.979 382.685C346.69 380.054 354.042 374.47 354.746 373.028C355.01 372.488 355.582 369.425 356.023 366.255C356.683 361.426 356.815 356.995 356.815 338.871C356.859 315.379 356.771 316.208 359.325 314.298C361.702 312.46 365.928 311.848 368.614 312.965C371.695 314.226 373.676 316.316 374.909 319.558C375.878 322.045 376.538 339.52 376.23 354.544C375.79 377.28 374.689 381.063 366.721 387.621C355.01 397.313 318.382 417.599 304.206 422.283C302.269 422.931 300.684 423.616 300.684 423.796C300.684 423.976 301.565 425.057 302.622 426.174C312.175 436.371 319.483 449.306 321.816 460.151C322.08 461.412 322.388 462.745 322.52 463.106C322.785 463.826 321.728 464.223 333.482 458.674ZM181.996 450.279C186.222 446.784 190.976 444.081 195.731 442.496C200.045 441.091 200.398 440.911 200.31 440.478C200.266 440.01 199.957 440.046 192.385 441.343C173.059 444.694 157.342 444.298 137.443 440.046C133.877 439.289 133.437 439.65 135.11 441.811C138.412 446.063 149.374 451.648 156.946 452.909C157.914 453.053 163.153 453.197 168.568 453.233L178.43 453.269L181.996 450.279ZM183.713 425.562C210.171 420.841 232.799 405.853 241.824 387.153C242.661 385.387 243.805 382.577 244.334 380.919C245.39 377.712 247.107 375.406 249.044 374.578C249.749 374.325 251.554 373.821 253.138 373.497C257.101 372.668 263.572 370.002 265.641 368.344C267.843 366.579 268.459 365.354 268.811 361.895C269.295 356.923 267.226 351.302 264.409 349.896C263.044 349.212 263 349.212 260.314 349.933C255.296 351.302 251.73 350.041 249.088 346.005C248.472 345.068 246.139 339.808 243.893 334.331L239.843 324.387L236.894 322.981C230.026 319.739 223.73 315.955 214.926 309.758L210.919 306.948L207.75 309.362C200.794 314.55 196.391 316.928 185.517 321.324C174.864 325.612 168.7 327.233 152.543 329.935C148.669 330.584 139.997 330.368 136.255 329.539C129.827 328.062 124.016 324.783 120.582 320.639C119.613 319.45 118.689 318.514 118.513 318.514C118.337 318.514 115.607 319.667 112.482 321.072C109.312 322.477 105.13 324.351 103.148 325.251C101.167 326.116 99.4504 327.125 99.3183 327.449C99.1863 327.773 98.614 329.935 97.9976 332.205C96.1046 339.375 93.5072 346.942 92.4066 348.383C90.8657 350.473 89.2809 350.941 84.2621 350.869C80.0358 350.761 79.7717 350.797 78.2308 351.77C75.4573 353.5 75.0611 354.256 75.1051 357.931C75.1491 362.435 76.6019 366.471 79.5075 370.29C81.4886 372.812 82.0609 373.028 85.803 372.524C89.7211 371.983 91.438 372.272 93.6833 373.821C95.2241 374.938 95.6643 375.587 97.1171 379.154C100.683 388.053 104.293 394.503 108.563 399.655C112.482 404.375 113.846 405.6 116.708 406.825C118.337 407.546 120.494 408.987 122.299 410.573C131.148 418.283 144.443 423.724 159.807 425.922C166.147 426.823 177.549 426.642 183.713 425.562ZM63.923 340.276C65.3318 339.375 68.1933 338.006 70.3065 337.214C75.9856 335.088 76.2057 334.98 76.5579 334.367C76.778 334.079 77.0422 333.214 77.1742 332.494C77.3944 331.377 77.1742 330.908 75.6334 329.251C71.8913 325.179 67.7971 316.892 66.4324 310.587C65.6399 306.839 65.728 297.94 66.6525 294.373C68.5015 287.239 73.168 277.835 78.4509 270.664C86.4633 259.783 95.2681 252.253 108.739 244.938C123.488 236.903 139.865 232.291 159.059 230.814C176.316 229.481 190.052 229.877 203.303 232.111C205.769 232.508 207.882 232.796 207.97 232.724C208.058 232.652 208.278 231.679 208.41 230.562L208.718 228.58L204.844 226.202C202.731 224.869 200.266 223.212 199.473 222.527C197.756 221.05 197.272 221.014 192.781 221.77C185.121 223.104 170.813 224.473 164.914 224.473C162.977 224.473 159.279 224.22 156.726 223.932C140.921 222.167 129.871 216.798 119.701 205.917C114.727 200.584 111.469 192.801 110.544 183.938C109.576 174.354 111.997 160.229 117.897 140.881C120.274 133.242 128.814 107.372 129.915 104.562C130.443 103.301 130.752 102.22 130.663 102.148C130.575 102.076 129.211 102.58 127.67 103.265C115.343 108.741 102.752 112.921 81.8848 118.47C63.2626 123.442 45.0807 126.577 28.0874 127.766C25.9742 127.91 24.6535 128.162 24.6535 128.414C24.6535 128.63 24.3453 131.909 23.9931 135.656C21.924 157.996 21.924 189.09 24.0372 214.924C27.295 255.351 36.9362 292.175 53.4012 327.521C57.1873 335.628 60.5331 341.934 61.0614 341.934C61.2375 341.934 62.5142 341.177 63.923 340.276ZM463.618 316.856C472.907 294.445 479.51 271.817 483.56 248.794C488.579 220.185 490.604 191.144 489.592 162.103C489.196 150.321 487.919 128.342 487.611 128.018C487.611 127.982 484.705 127.694 481.183 127.369C473.655 126.649 462.077 124.991 455.869 123.73C445.92 121.712 427.826 116.92 415.147 112.957C411.625 111.84 411.449 111.84 411.801 112.885C411.933 113.317 412.506 115.371 412.99 117.461C413.474 119.551 415.191 126.036 416.732 131.873C426.857 169.598 428.574 179.506 426.813 189.883C424.04 206.097 412.99 217.807 395.468 222.995C388.16 225.193 383.098 225.59 365.62 225.301C363.199 225.265 359.545 225.229 357.476 225.265C353.645 225.265 348.891 224.329 342.199 222.311L339.47 221.446L337.577 222.887C336.52 223.644 334.979 224.725 334.143 225.265C332.866 226.094 332.69 226.382 333.086 226.887C333.923 228.004 338.413 229.517 345.193 230.958C372.928 236.867 377.903 238.164 389.217 242.524C418.185 253.586 438.084 270.448 449.794 293.76C453.536 301.255 457.102 310.839 459.171 318.874C460.228 323.198 460.448 323.738 460.712 323.486C460.844 323.378 462.121 320.423 463.618 316.856ZM263.308 314.838C264.937 305.614 261.635 291.274 255.956 282.987C251.906 277.006 244.906 272.358 236.982 270.376C232.623 269.295 231.479 268.575 228.221 264.755C220.517 255.748 209.643 250.451 193.838 248.037C188.599 247.244 171.914 246.956 164.21 247.496C146.424 248.794 132.689 252.469 120.142 259.351C108.211 265.908 99.7146 273.979 92.9789 285.077C88.2243 292.932 86.4633 298.588 86.8595 304.822C87.0797 308.317 88.1362 312.028 88.8846 312.028C89.0607 312.028 89.8532 311.632 90.6896 311.127C93.0229 309.722 106.45 303.885 110.104 302.696C122.827 298.588 130.311 300.174 135.33 307.992C136.255 309.434 137.619 311.199 138.368 311.92L139.776 313.217L146.38 313.001C154.613 312.749 159.411 312.064 166.191 310.19C178.342 306.803 187.763 301.723 198.989 292.499C205.196 287.383 207.089 286.446 211.228 286.446C215.322 286.446 218.712 288.211 222.938 292.535C225.535 295.201 233.68 301.291 238.919 304.497C242.22 306.551 243.453 307.092 249.573 309.362C254.107 311.055 256.66 313.541 258.862 318.405C259.346 319.558 259.874 320.747 260.05 321.036C260.446 321.9 262.824 317.361 263.308 314.838ZM283.295 273.475C287.125 273.006 296.106 270.556 299.364 269.079C310.238 264.107 319.043 256.468 325.294 246.632C326.262 245.082 327.099 243.605 327.099 243.389C327.099 243.209 326.174 242.74 324.986 242.344C320.847 241.011 316.489 238.056 315.565 236.003C315.477 235.822 312.571 236.867 309.049 238.273C302.666 240.867 300.949 241.443 294.301 243.029C277.528 247.064 260.931 246.848 243.937 242.416C237.994 240.867 230.95 238.561 228.573 237.408C226.724 236.543 226.284 236.759 226.284 238.525C226.284 239.858 226.46 240.038 230.378 242.452C234.428 244.974 241.296 250.415 242.793 252.361C243.365 253.045 245.038 253.91 248.12 255.099C256.748 258.414 264.805 263.638 269.868 269.259C274.27 274.123 273.786 273.835 277.22 273.835C278.849 273.835 281.622 273.655 283.295 273.475ZM282.062 227.679C291.087 226.274 298.879 223.68 305.439 219.933C309.049 217.879 310.282 217.375 312.835 216.906C315.389 216.438 318.866 214.168 324.942 209.087C332.162 203.034 338.325 195.576 343.432 186.82C346.69 181.163 347.658 178.641 348.407 173.849C349.023 169.598 349.727 168.048 351.884 166.175C353.513 164.805 357.211 163.58 359.853 163.58C362.362 163.58 363.683 162.572 365.62 159.185C367.997 155.041 368.702 151.51 368.702 143.943C368.702 138.575 368.57 137.062 367.865 135.188C366.809 132.45 365.224 131.153 362.846 131.153C360.293 131.153 356.727 130.216 354.086 128.919C345.149 124.523 326.395 110.291 317.59 101.247C310.326 93.7884 301.917 82.835 300.464 78.9797C300.2 78.223 299.716 78.5113 294.609 82.6188C278.716 95.3377 273.213 98.3283 250.189 106.687C226.812 115.191 202.027 122.217 190.184 123.73L186.882 124.126L186.354 127.549C185.517 132.738 185.121 152.843 185.738 158.392C187.675 175.615 193.706 189.198 204.8 201.125C210.919 207.754 220.385 214.456 224.523 215.105C227.208 215.537 229.674 216.51 231.126 217.807C234.208 220.545 245.61 224.905 254.679 226.851C262.912 228.652 273.918 228.977 282.062 227.679ZM386.223 206.854C389.657 206.025 393.355 204.439 396.129 202.566C400.267 199.791 404.097 193.63 405.946 186.856C407.003 182.929 407.135 184.154 403.437 166.103C401.059 154.392 400.795 153.167 396.041 133.855C391.154 113.858 391.638 115.839 389.833 107.552C384.066 80.9253 378.783 67.3777 369.714 56.2081C363.595 48.6416 354.438 41.6516 346.029 38.1926C340.086 35.7425 336.74 35.0579 328.376 34.5895C320.715 34.1932 319.043 33.6167 313.848 29.7614C302.578 21.3662 290.251 17.5108 273.39 17.0424C252.698 16.502 232.359 21.222 213.077 31.0585C199.605 37.9044 186.706 47.7769 177.593 58.1898C164.518 73.1066 152.764 96.5988 142.242 128.702C137.003 144.628 132.028 163.869 130.752 172.876C129.959 178.533 131.896 188.622 134.67 193.306C137.927 198.783 144.311 203.286 151.619 205.268C154.965 206.205 155.625 206.277 163.329 206.277C171.606 206.277 181.819 205.34 181.819 204.548C181.819 204.367 181.159 203.286 180.323 202.17C172.178 191.108 166.807 177.164 164.342 160.878C163.285 153.816 163.285 136.593 164.386 127.91C165.487 118.722 166.763 111.912 167.732 109.75C169.449 106.039 172.839 104.49 179.222 104.49C182.744 104.49 189.832 103.805 196.127 102.832C203.479 101.715 225.755 95.9142 235.045 92.7075C242.309 90.2213 257.805 83.8438 262.163 81.5739C273.169 75.881 281.314 69.8999 286.465 63.7746C295.666 52.9293 296.326 52.4248 301.785 52.7131C305.395 52.8572 306.716 53.3617 309.886 55.7037C312.043 57.289 312.703 58.2258 317.634 66.513C323.005 75.4847 326.571 80.565 330.533 84.8167C336.168 90.9419 348.935 102.256 357.079 108.453C362.01 112.2 362.406 112.416 364.167 112.416C369.494 112.452 375.481 114.686 380.456 118.47C384.947 121.893 388.512 127.441 389.833 133.026C390.758 137.062 390.758 148.267 389.833 153.78C387.72 166.139 381.204 175.182 371.475 179.218L368.834 180.335L367.601 183.758C365.4 189.991 360.293 199.287 356.375 204.079C355.538 205.124 354.834 206.097 354.834 206.205C354.834 206.313 356.287 206.313 358.048 206.205C360.337 206.061 362.626 206.205 366.06 206.781C372.84 207.826 372.972 207.862 378.387 207.718C381.601 207.646 384.242 207.358 386.223 206.854Z" fill="#6B4EE6"/>
<path d="M164.21 406.537C154.657 405.24 146.028 400.736 142.858 395.476C139.469 389.819 142.154 381.928 147.437 381.928C150.034 381.928 152.412 383.045 156.022 386C161.261 390.251 167.204 391.873 174.336 391.008C179.531 390.395 183.185 388.738 187.147 385.135C188.864 383.586 190.625 382.216 191.109 382.108C192.386 381.784 196.392 382.865 197.756 383.91C201.587 386.828 201.631 392.81 197.801 397.349C194.719 401.061 187.103 404.736 179.839 406.069C176.097 406.718 167.512 407.006 164.21 406.537Z" fill="#6B4EE6"/>
<path d="M204.052 367.155C195.423 365.678 189.304 360.49 189.304 354.653C189.304 350.689 192.65 347.338 196.612 347.338C199.253 347.338 200.31 347.735 203.876 350.221C205.637 351.41 207.442 352.383 207.926 352.383C208.454 352.383 210.787 351.626 213.209 350.725C216.995 349.248 217.831 349.068 219.724 349.212C226.196 349.716 228.749 356.382 224.347 361.138C222.674 362.94 218.448 365.354 214.97 366.471C212.152 367.372 207.045 367.696 204.052 367.155Z" fill="#6B4EE6"/>
<path d="M130.839 366.435C122.387 364.525 119.525 362.832 118.16 358.976C117.544 357.211 117.5 356.562 117.896 354.905C118.204 353.824 118.777 352.527 119.217 352.022C120.097 351.014 124.28 349.14 125.688 349.14C126.173 349.14 127.978 349.68 129.695 350.365C134.493 352.239 134.933 352.239 138.499 350.725C145.543 347.663 146.468 347.338 147.965 347.338C149.197 347.338 149.902 347.663 151.531 348.924C155.141 351.734 155.801 355.373 153.468 359.157C152.103 361.39 147.524 364.849 144.443 366.002C141.097 367.264 135.33 367.444 130.839 366.435Z" fill="#6B4EE6"/>
<path d="M262.956 206.673C258.465 205.953 251.774 204.151 247.503 202.458C240.768 199.792 236.453 195.252 236.057 190.46C235.925 188.154 236.013 187.685 237.158 185.92C238.566 183.758 240.371 182.533 242.793 182.172C245.39 181.776 247.503 182.497 251.421 185.199C257.321 189.307 261.635 190.604 269.119 190.604C276.339 190.604 281.49 188.838 286.905 184.514C290.427 181.704 292.012 181.2 295.005 181.92C300.728 183.325 303.634 189.379 300.905 194.171C298.879 197.738 291.924 202.422 285.32 204.656C278.848 206.818 269.427 207.682 262.956 206.673Z" fill="#6B4EE6"/>
<path d="M234.428 155.221C233.46 154.825 231.259 153.275 229.498 151.834C227.781 150.357 226.196 149.168 225.976 149.168C225.8 149.168 224.347 150.069 222.762 151.186C219.372 153.6 217.743 154.212 215.014 154.212C212.108 154.212 209.819 153.059 208.63 151.005C207.882 149.672 207.75 148.88 207.882 146.321C207.97 144.268 208.322 142.754 208.851 141.854C210.611 138.899 215.366 136.053 221.309 134.359C227.737 132.558 234.296 134.179 240.24 139.007C245.831 143.583 247.636 150.177 244.246 153.672C242.133 155.87 237.642 156.59 234.428 155.221Z" fill="#6B4EE6"/>
<path d="M297.515 154.825C294.345 154.213 291.88 151.222 291.88 148.051C291.88 146.25 292.98 143.259 294.257 141.458C295.886 139.188 299.936 136.341 303.766 134.828C308.301 133.026 311.911 132.846 316.313 134.215C326.263 137.278 330.885 142.394 329.3 148.556C328.376 152.267 325.822 154.357 322.345 154.321C319.483 154.285 317.986 153.564 314.86 150.754C311.779 147.979 312.307 147.907 306.76 151.618C304.735 152.951 302.842 154.213 302.49 154.357C301.345 154.933 299.144 155.149 297.515 154.825Z" fill="#6B4EE6"/>
</g>
<defs>
<clipPath id="clip0_2848_4812">
<rect width="512" height="512" fill="white"/>
</clipPath>
</defs>
</svg>
