<svg width="512" height="512" viewBox="0 0 512 512" fill="none" xmlns="http://www.w3.org/2000/svg">
<g clip-path="url(#clip0_2854_7196)">
<mask id="path-1-inside-1_2854_7196" fill="white">
<path d="M308.522 511.625C291.7 509.862 278.148 506.411 259.049 499.022C247.589 494.596 231.832 487.094 220.557 480.68C218.537 479.517 216.48 478.392 215.966 478.129C215.451 477.904 214.974 477.604 214.864 477.492C214.68 477.304 213.468 476.516 210.64 474.866C207.738 473.178 205.388 471.715 204.212 470.965C203.515 470.477 200.539 468.527 197.601 466.614C192.753 463.463 187.831 460.125 180.89 455.174C177.915 453.073 164.949 443.208 161.974 440.808C160.872 439.908 159.697 438.97 159.403 438.745C156.722 436.644 148.972 430.193 145.96 427.605C143.94 425.842 141.626 423.854 140.855 423.216C140.084 422.541 139.239 421.978 138.945 421.978C138.688 421.978 138.468 421.753 138.468 421.528C138.468 421.265 137.256 419.953 135.823 418.602C134.354 417.252 131.599 414.664 129.653 412.788C127.743 410.95 124.29 407.65 121.976 405.474C119.663 403.299 117.569 401.311 117.312 401.086C117.055 400.823 116.688 400.598 116.467 400.598C116.247 400.598 116.063 400.335 116.063 400.035C116.063 399.735 115.586 399.135 114.998 398.685C111.435 396.022 83.4847 364.889 76.7633 356.112C76.2491 355.474 74.1923 352.849 72.1722 350.298C65.7814 342.196 60.3088 334.732 52.9997 324.117C49.2166 318.64 41.5036 306.9 41.5036 306.6C41.5036 306.487 40.8792 305.437 40.0712 304.274C38.6755 302.174 35.0026 295.985 31.5868 290.133C30.6319 288.483 29.1994 286.045 28.3914 284.695C25.6735 280.156 18.8419 266.54 15.573 259.113C10.3943 247.336 6.39082 234.845 4.04017 223.18C3.41578 219.991 2.82812 216.878 2.71793 216.24C0.367288 197.786 0.0734577 192.347 0.95495 183.345C1.10187 181.92 0.991679 181.544 0.550933 181.544C0.257102 181.544 0 181.394 0 181.169C0 180.982 0.220373 180.794 0.514204 180.794C1.06514 180.794 1.24878 179.857 1.6528 175.731C1.79971 174.493 2.02009 172.655 2.20373 171.605C2.38737 170.592 2.60775 169.054 2.71793 168.229C3.12195 164.478 5.9868 153.15 7.8967 147.786C10.3943 140.584 15.1323 130.044 18.6583 123.78C20.0907 121.267 23.6166 115.866 26.1142 112.528C27.2895 110.915 28.2812 109.489 28.2812 109.377C28.2812 109.264 28.6485 108.777 29.0892 108.327C29.5667 107.839 31.9541 105.101 34.3782 102.213C36.839 99.3244 39.41 96.4737 40.0712 95.8735C40.769 95.2734 42.6789 93.4354 44.3684 91.8226C48.5923 87.7716 63.1369 75.9937 71.5478 69.8422C73.3108 68.5669 74.9268 67.3666 75.1105 67.2165C75.3309 67.0665 75.7716 66.8039 76.1389 66.6539C76.4694 66.5414 76.7633 66.1288 76.7633 65.7912C76.7633 65.3786 76.9837 65.2286 77.4979 65.3786C78.563 65.6412 80.8035 64.966 80.8035 64.3659C80.8035 63.8032 83.1174 63.2031 83.301 63.7282C83.4479 64.1408 84.8436 63.8032 84.8436 63.3531C84.8436 62.903 88.8103 62.9405 88.9573 63.3906C89.0307 63.6157 89.7286 63.8032 90.5366 63.8782C91.3446 63.9157 92.0792 64.0658 92.1894 64.1783C92.4465 64.4409 97.0376 66.1288 97.6253 66.1288C97.8456 66.1288 98.066 66.2788 98.066 66.4289C98.066 66.6164 99.2781 67.5541 100.747 68.5669C105.302 71.7552 107.689 74.6434 117.165 88.4842C121.022 94.1481 130.791 107.951 137.182 116.841C152.682 138.371 159.697 148.686 161.754 152.962C162.415 154.35 163.443 157.276 163.994 159.489C164.912 163.127 164.986 163.915 164.839 167.929C164.582 173.555 163.774 177.081 161.754 181.469C158.742 188.071 157.603 189.459 143.242 204.05C129.653 217.853 128.037 219.729 125.723 224.642C123.85 228.656 123.299 231.544 123.189 237.621C123.042 248.611 125.76 257.951 132.481 269.278C140.01 281.994 154.114 300.674 166.014 313.727C167.52 315.377 169.944 318.003 171.34 319.578C175.013 323.592 190.512 339.421 192.459 341.146C193.377 341.934 195.287 343.697 196.72 345.047C210.75 358.325 228.674 372.429 240.207 379.293C246.708 383.156 252.18 385.594 253.062 385.032C253.282 384.919 253.723 385.069 254.053 385.407C254.531 385.894 254.715 385.932 254.935 385.519C255.192 385.144 255.265 385.144 255.265 385.519C255.265 385.819 255.559 385.894 256.184 385.744C256.698 385.632 257.102 385.669 257.102 385.894C257.102 386.457 259.967 387.095 260.224 386.57C260.334 386.269 260.481 386.307 260.628 386.645C260.885 387.207 267.753 387.282 267.753 386.72C267.753 386.157 269.957 386.269 269.957 386.832C269.994 387.095 270.177 387.02 270.471 386.645C271.022 385.857 271.646 385.782 271.904 386.457C272.014 386.72 272.124 386.645 272.124 386.269C272.161 385.594 273.263 385.294 273.263 385.969C273.263 386.194 273.63 386.157 274.181 385.894C274.695 385.669 275.099 385.332 275.099 385.107C275.099 384.919 275.54 384.882 276.091 385.032C276.825 385.219 277.964 384.807 281.123 383.194C285.53 380.906 288.028 379.03 295.41 372.204C298.055 369.765 301.948 366.165 304.078 364.214C306.208 362.264 308.963 359.713 310.175 358.55C316.492 352.436 321.157 348.798 324.977 346.997C326.042 346.472 326.887 345.835 326.887 345.535C326.887 345.159 327.181 345.084 327.989 345.272C328.833 345.459 329.164 345.384 329.311 344.897C329.458 344.522 329.825 344.334 330.229 344.447C330.633 344.559 330.927 344.484 330.927 344.297C330.927 344.109 331.184 343.959 331.478 343.959C331.772 343.959 332.029 344.147 332.029 344.372C332.029 344.597 332.286 344.672 332.616 344.559C332.947 344.409 334.747 344.222 336.583 344.147C338.42 344.034 340.219 343.847 340.587 343.734C340.917 343.622 341.211 343.697 341.211 343.884C341.211 344.447 343.194 344.709 343.488 344.222C343.709 343.884 343.782 343.922 343.782 344.297C343.782 344.597 344.039 344.709 344.517 344.597C344.921 344.484 345.251 344.522 345.251 344.709C345.251 344.859 346.022 345.197 346.941 345.422C351.238 346.547 353.772 348.123 367.472 358.175C372.137 361.588 381.723 368.528 388.775 373.591C400.932 382.331 409.563 388.557 420.913 396.81C427.046 401.273 429.507 403.449 432.041 406.674C437.367 413.389 439.534 420.403 438.616 428.017C437.624 436.269 434.612 441.558 421.243 458.55C413.053 468.977 411.51 470.703 405.743 476.291C399.353 482.518 393.329 487.394 388.591 490.245C371.953 500.335 358.437 505.924 342.203 509.412C339.338 510.05 336.179 510.65 335.151 510.725C334.159 510.837 332.249 511.062 330.927 511.287C327.695 511.813 312.379 512.038 308.522 511.625Z"/>
</mask>
<path d="M308.522 511.625C291.7 509.862 278.148 506.411 259.049 499.022C247.589 494.596 231.832 487.094 220.557 480.68C218.537 479.517 216.48 478.392 215.966 478.129C215.451 477.904 214.974 477.604 214.864 477.492C214.68 477.304 213.468 476.516 210.64 474.866C207.738 473.178 205.388 471.715 204.212 470.965C203.515 470.477 200.539 468.527 197.601 466.614C192.753 463.463 187.831 460.125 180.89 455.174C177.915 453.073 164.949 443.208 161.974 440.808C160.872 439.908 159.697 438.97 159.403 438.745C156.722 436.644 148.972 430.193 145.96 427.605C143.94 425.842 141.626 423.854 140.855 423.216C140.084 422.541 139.239 421.978 138.945 421.978C138.688 421.978 138.468 421.753 138.468 421.528C138.468 421.265 137.256 419.953 135.823 418.602C134.354 417.252 131.599 414.664 129.653 412.788C127.743 410.95 124.29 407.65 121.976 405.474C119.663 403.299 117.569 401.311 117.312 401.086C117.055 400.823 116.688 400.598 116.467 400.598C116.247 400.598 116.063 400.335 116.063 400.035C116.063 399.735 115.586 399.135 114.998 398.685C111.435 396.022 83.4847 364.889 76.7633 356.112C76.2491 355.474 74.1923 352.849 72.1722 350.298C65.7814 342.196 60.3088 334.732 52.9997 324.117C49.2166 318.64 41.5036 306.9 41.5036 306.6C41.5036 306.487 40.8792 305.437 40.0712 304.274C38.6755 302.174 35.0026 295.985 31.5868 290.133C30.6319 288.483 29.1994 286.045 28.3914 284.695C25.6735 280.156 18.8419 266.54 15.573 259.113C10.3943 247.336 6.39082 234.845 4.04017 223.18C3.41578 219.991 2.82812 216.878 2.71793 216.24C0.367288 197.786 0.0734577 192.347 0.95495 183.345C1.10187 181.92 0.991679 181.544 0.550933 181.544C0.257102 181.544 0 181.394 0 181.169C0 180.982 0.220373 180.794 0.514204 180.794C1.06514 180.794 1.24878 179.857 1.6528 175.731C1.79971 174.493 2.02009 172.655 2.20373 171.605C2.38737 170.592 2.60775 169.054 2.71793 168.229C3.12195 164.478 5.9868 153.15 7.8967 147.786C10.3943 140.584 15.1323 130.044 18.6583 123.78C20.0907 121.267 23.6166 115.866 26.1142 112.528C27.2895 110.915 28.2812 109.489 28.2812 109.377C28.2812 109.264 28.6485 108.777 29.0892 108.327C29.5667 107.839 31.9541 105.101 34.3782 102.213C36.839 99.3244 39.41 96.4737 40.0712 95.8735C40.769 95.2734 42.6789 93.4354 44.3684 91.8226C48.5923 87.7716 63.1369 75.9937 71.5478 69.8422C73.3108 68.5669 74.9268 67.3666 75.1105 67.2165C75.3309 67.0665 75.7716 66.8039 76.1389 66.6539C76.4694 66.5414 76.7633 66.1288 76.7633 65.7912C76.7633 65.3786 76.9837 65.2286 77.4979 65.3786C78.563 65.6412 80.8035 64.966 80.8035 64.3659C80.8035 63.8032 83.1174 63.2031 83.301 63.7282C83.4479 64.1408 84.8436 63.8032 84.8436 63.3531C84.8436 62.903 88.8103 62.9405 88.9573 63.3906C89.0307 63.6157 89.7286 63.8032 90.5366 63.8782C91.3446 63.9157 92.0792 64.0658 92.1894 64.1783C92.4465 64.4409 97.0376 66.1288 97.6253 66.1288C97.8456 66.1288 98.066 66.2788 98.066 66.4289C98.066 66.6164 99.2781 67.5541 100.747 68.5669C105.302 71.7552 107.689 74.6434 117.165 88.4842C121.022 94.1481 130.791 107.951 137.182 116.841C152.682 138.371 159.697 148.686 161.754 152.962C162.415 154.35 163.443 157.276 163.994 159.489C164.912 163.127 164.986 163.915 164.839 167.929C164.582 173.555 163.774 177.081 161.754 181.469C158.742 188.071 157.603 189.459 143.242 204.05C129.653 217.853 128.037 219.729 125.723 224.642C123.85 228.656 123.299 231.544 123.189 237.621C123.042 248.611 125.76 257.951 132.481 269.278C140.01 281.994 154.114 300.674 166.014 313.727C167.52 315.377 169.944 318.003 171.34 319.578C175.013 323.592 190.512 339.421 192.459 341.146C193.377 341.934 195.287 343.697 196.72 345.047C210.75 358.325 228.674 372.429 240.207 379.293C246.708 383.156 252.18 385.594 253.062 385.032C253.282 384.919 253.723 385.069 254.053 385.407C254.531 385.894 254.715 385.932 254.935 385.519C255.192 385.144 255.265 385.144 255.265 385.519C255.265 385.819 255.559 385.894 256.184 385.744C256.698 385.632 257.102 385.669 257.102 385.894C257.102 386.457 259.967 387.095 260.224 386.57C260.334 386.269 260.481 386.307 260.628 386.645C260.885 387.207 267.753 387.282 267.753 386.72C267.753 386.157 269.957 386.269 269.957 386.832C269.994 387.095 270.177 387.02 270.471 386.645C271.022 385.857 271.646 385.782 271.904 386.457C272.014 386.72 272.124 386.645 272.124 386.269C272.161 385.594 273.263 385.294 273.263 385.969C273.263 386.194 273.63 386.157 274.181 385.894C274.695 385.669 275.099 385.332 275.099 385.107C275.099 384.919 275.54 384.882 276.091 385.032C276.825 385.219 277.964 384.807 281.123 383.194C285.53 380.906 288.028 379.03 295.41 372.204C298.055 369.765 301.948 366.165 304.078 364.214C306.208 362.264 308.963 359.713 310.175 358.55C316.492 352.436 321.157 348.798 324.977 346.997C326.042 346.472 326.887 345.835 326.887 345.535C326.887 345.159 327.181 345.084 327.989 345.272C328.833 345.459 329.164 345.384 329.311 344.897C329.458 344.522 329.825 344.334 330.229 344.447C330.633 344.559 330.927 344.484 330.927 344.297C330.927 344.109 331.184 343.959 331.478 343.959C331.772 343.959 332.029 344.147 332.029 344.372C332.029 344.597 332.286 344.672 332.616 344.559C332.947 344.409 334.747 344.222 336.583 344.147C338.42 344.034 340.219 343.847 340.587 343.734C340.917 343.622 341.211 343.697 341.211 343.884C341.211 344.447 343.194 344.709 343.488 344.222C343.709 343.884 343.782 343.922 343.782 344.297C343.782 344.597 344.039 344.709 344.517 344.597C344.921 344.484 345.251 344.522 345.251 344.709C345.251 344.859 346.022 345.197 346.941 345.422C351.238 346.547 353.772 348.123 367.472 358.175C372.137 361.588 381.723 368.528 388.775 373.591C400.932 382.331 409.563 388.557 420.913 396.81C427.046 401.273 429.507 403.449 432.041 406.674C437.367 413.389 439.534 420.403 438.616 428.017C437.624 436.269 434.612 441.558 421.243 458.55C413.053 468.977 411.51 470.703 405.743 476.291C399.353 482.518 393.329 487.394 388.591 490.245C371.953 500.335 358.437 505.924 342.203 509.412C339.338 510.05 336.179 510.65 335.151 510.725C334.159 510.837 332.249 511.062 330.927 511.287C327.695 511.813 312.379 512.038 308.522 511.625Z" fill="#F85F3F" stroke="#852B22" stroke-width="30" mask="url(#path-1-inside-1_2854_7196)"/>
<path d="M366.334 324.117C356.784 321.828 333.131 309.225 316.419 297.56C306.686 290.733 298.569 284.094 289.019 275.13C275.026 261.964 262.207 245.685 254.384 231.169C243.549 210.989 237.415 190.997 235.248 168.791C234.477 160.764 234.477 64.2906 235.248 60.9523C237.011 53.4505 242.741 46.8489 250.124 43.8857C253.466 42.5353 255.009 42.3478 266.835 42.0102C284.208 41.4851 291.627 40.3598 304.299 36.3088C319.468 31.5076 330.486 25.2811 348.594 11.4027C360.971 1.87541 364.644 0.1875 372.982 0.1875C381.135 0.1875 384.955 1.91292 396.819 11.0652C416.138 25.8813 428.258 32.4079 445.998 37.5091C456.172 40.4348 464.657 41.5601 480.23 42.0102C489.926 42.2728 491.138 42.3853 493.856 43.2105C500.578 45.236 506.124 49.9246 509.062 56.0386C511.743 61.5525 511.633 59.3019 511.633 112.49C511.633 168.229 511.596 169.429 508.327 186.045C502.598 215.302 489.118 241.146 466.897 265.527C452.426 281.394 430.499 298.498 409.159 310.576C405.67 312.564 392.778 319.203 389.656 320.628C383.045 323.666 379.96 324.492 374.083 324.679C370.3 324.792 368.684 324.679 366.334 324.117ZM383.082 244.747C405.817 241.446 426.018 228.206 438.653 208.363C442.362 202.512 446.917 193.022 447.284 190.471C447.357 189.684 447.578 189.046 447.725 189.046C448.165 189.046 449.194 185.708 449.194 184.282C449.194 183.607 449.341 183.045 449.524 183.045C450.332 183.045 452.206 172.355 451.875 169.466C451.728 168.266 451.802 167.666 452.095 167.666C452.389 167.666 452.499 166.128 452.499 162.602C452.499 159.526 452.353 157.538 452.132 157.538C451.949 157.538 451.802 156.601 451.838 155.4C451.875 152.775 451.03 146.661 450.59 146.661C450.443 146.661 450.296 146.098 450.296 145.385C450.296 143.698 449.524 140.284 449.12 140.284C448.974 140.284 448.827 139.834 448.827 139.309C448.827 138.109 447.651 134.658 447.284 134.658C447.1 134.658 446.99 134.395 446.99 134.095C446.99 133.795 446.733 133.533 446.439 133.533C446.035 133.533 445.888 133.12 445.888 132.145C445.888 130.607 443.685 125.843 440.563 120.592C426.789 97.4487 403.76 83.0452 377.389 81.0947C358.767 79.7069 337.795 86.8336 323.03 99.4742C313.958 107.239 307.531 115.678 301.801 127.344C298.789 133.458 297.687 136.421 296.218 141.972C291.994 158.251 292.839 174.418 298.863 190.959C299.671 193.21 299.928 193.547 300.699 193.547C301.581 193.547 301.617 193.622 301.47 195.198C301.287 196.698 301.507 197.336 303.638 201.499C314.142 222.017 331.515 236.495 353.148 242.872C355.903 243.659 361.963 244.785 367.289 245.46C369.749 245.76 378.895 245.347 383.082 244.747Z" fill="#C6E1C5"/>
<path d="M268.966 387.207C267.46 387.02 267.35 386.345 268.819 386.345C269.406 386.345 269.957 386.57 270.104 386.907C270.214 387.207 270.251 387.432 270.214 387.395C270.178 387.395 269.59 387.282 268.966 387.207Z" fill="#FFF7E4"/>
<path d="M270.691 386.345C270.691 386.157 270.949 385.97 271.242 385.97C271.536 385.97 271.793 386.157 271.793 386.345C271.793 386.57 271.536 386.72 271.242 386.72C270.949 386.72 270.691 386.57 270.691 386.345Z" fill="#FFF7E4"/>
<path d="M255.816 385.969C255.927 385.782 256.294 385.594 256.588 385.594C256.881 385.594 257.102 385.782 257.102 385.969C257.102 386.194 256.771 386.344 256.331 386.344C255.927 386.344 255.706 386.194 255.816 385.969Z" fill="#FFF7E4"/>
<path d="M272.161 385.969C272.161 385.782 272.418 385.594 272.712 385.594C273.006 385.594 273.263 385.782 273.263 385.969C273.263 386.194 273.006 386.344 272.712 386.344C272.418 386.344 272.161 386.194 272.161 385.969Z" fill="#FFF7E4"/>
<path d="M274.805 385.482C275.467 384.769 276.201 384.656 276.201 385.219C276.201 385.444 276.054 385.594 275.871 385.594C275.687 385.594 275.209 385.707 274.842 385.857C274.218 386.082 274.218 386.082 274.805 385.482Z" fill="#FFF7E4"/>
<path d="M326.887 345.61C326.887 345.047 327.842 344.897 328.135 345.422C328.246 345.61 328.025 345.835 327.621 345.947C327.144 346.06 326.887 345.947 326.887 345.61Z" fill="#FFF7E4"/>
<path d="M329.348 344.822C329.458 344.522 329.862 344.334 330.229 344.447C330.633 344.559 330.927 344.484 330.927 344.297C330.927 344.109 331.184 343.959 331.478 343.959C332.58 343.959 331.992 344.634 330.597 345.009C329.385 345.309 329.201 345.272 329.348 344.822Z" fill="#FFF7E4"/>
<path d="M339.044 344.184C339.485 343.809 341.211 343.622 341.211 343.959C341.211 344.147 340.697 344.334 340.036 344.334C339.411 344.334 338.971 344.259 339.044 344.184Z" fill="#FFF7E4"/>
<path d="M299.266 195.911C297.687 193.098 294.418 181.62 293.206 174.606C292.325 169.242 292.325 155.476 293.206 150.037C294.381 143.06 297.173 132.708 298.458 130.795C298.972 129.97 289.937 129.97 382.714 130.57L447.173 130.945L447.834 131.733C448.202 132.183 448.422 132.745 448.312 133.008C448.202 133.271 448.275 133.533 448.422 133.608C448.863 133.796 450.332 138.409 450.112 138.822C449.965 139.009 450.038 139.159 450.222 139.159C450.589 139.159 451.875 144.711 451.581 145.161C451.471 145.348 451.544 145.536 451.728 145.611C452.132 145.761 453.344 154.351 453.123 155.513C453.05 156.001 453.123 156.414 453.27 156.414C453.454 156.414 453.601 159.189 453.601 162.603C453.601 166.016 453.454 168.792 453.307 168.792C453.123 168.792 453.05 169.279 453.16 169.879C453.491 172.243 451.397 184.17 450.626 184.17C450.479 184.17 450.405 184.433 450.516 184.733C450.773 185.371 449.267 190.172 448.789 190.172C448.642 190.172 448.569 190.397 448.679 190.66C448.863 191.185 447.504 194.748 446.622 196.136L446.035 196.999L408.057 196.586C351.421 195.911 300.442 195.873 300.442 196.473C300.442 197.224 299.891 196.999 299.266 195.911ZM376.838 179.632C379.813 179.182 383.118 178.131 383.743 177.531C384 177.269 384.367 177.044 384.514 177.044C384.661 177.044 385.616 176.219 386.644 175.206C390.28 171.642 392.117 165.791 391.199 160.615C389.84 152.925 385.249 148.349 377.389 146.849C369.602 145.348 361.742 147.974 358.363 153.188C356.196 156.526 355.425 159.564 355.608 163.84C355.792 167.854 356.453 170.18 358.253 173.18C361.191 178.131 369.161 180.907 376.838 179.632Z" fill="white"/>
<path d="M0 181.17C0 180.982 0.257102 180.794 0.550933 180.794C0.844763 180.794 1.10187 180.982 1.10187 181.17C1.10187 181.395 0.844763 181.545 0.550933 181.545C0.257102 181.545 0 181.395 0 181.17Z" fill="#FFF7E4"/>
<path d="M76.7637 65.8288C76.7637 65.5287 77.0208 65.2661 77.3146 65.2661C77.6084 65.2661 77.8655 65.4161 77.8655 65.6037C77.8655 65.7912 77.6084 66.0163 77.3146 66.1663C76.984 66.2789 76.7637 66.1663 76.7637 65.8288Z" fill="#FFF7E4"/>
<path d="M80.8037 64.1783C80.8037 63.8032 83.0442 63.2781 83.338 63.5782C83.6318 63.9158 82.5667 64.5159 81.6485 64.5159C81.171 64.5159 80.8037 64.3659 80.8037 64.1783Z" fill="#FFF7E4"/>
<path d="M84.8438 63.3907C84.8438 63.2032 85.762 63.0156 86.8638 63.0156C87.9657 63.0156 88.8839 63.2032 88.8839 63.3907C88.8839 63.6158 87.9657 63.7658 86.8638 63.7658C85.762 63.7658 84.8438 63.6158 84.8438 63.3907Z" fill="#FFF7E4"/>
<path d="M366.186 246.585C354.36 245.085 347.087 243.022 338.273 238.596C325.564 232.182 314.986 222.617 306.796 210.089C304.813 207.088 298.973 195.798 298.973 195.01C298.973 194.86 303.49 194.823 309 194.898C314.472 194.973 343.047 195.16 372.43 195.273C401.813 195.423 426.605 195.573 427.524 195.611C428.442 195.648 433.106 195.686 437.918 195.723L446.659 195.798L446.439 196.661C445.888 198.499 442.068 205.888 439.791 209.451C427.046 229.406 406.992 242.534 384.184 245.873C380.143 246.473 368.868 246.923 366.186 246.585Z" fill="#75AADB"/>
<path d="M368.5 180.832C359.869 179.406 355.425 174.643 354.433 165.716C353.331 156.076 357.445 148.762 365.378 146.286C370.924 144.523 379.225 145.048 384.073 147.486C389.399 150.149 392.631 156.151 392.631 163.353C392.631 168.641 391.015 172.917 387.856 176.181C384.734 179.406 380.951 180.757 374.45 180.982C372.247 181.057 369.565 180.982 368.5 180.832Z" fill="#FCBF45"/>
<path d="M409.71 471.865C410.077 471.452 410.555 471.115 410.738 471.115C410.959 471.115 410.812 471.452 410.444 471.865C410.077 472.278 409.6 472.615 409.416 472.615C409.196 472.615 409.343 472.278 409.71 471.865Z" fill="#FB894F"/>
<path d="M336.547 344.446C336.877 344.371 337.465 344.371 337.832 344.446C338.163 344.559 337.869 344.634 337.171 344.634C336.473 344.634 336.179 344.559 336.547 344.446Z" fill="#FB894F"/>
<path d="M374.267 131.619C354.36 131.507 329.201 131.357 318.366 131.319C304.482 131.282 298.605 131.169 298.605 130.869C298.605 130.044 303.564 120.442 305.841 116.841C316.456 100.187 332.029 88.4089 350.76 82.8951C358.988 80.4195 369.566 79.2942 377.94 79.9319C407.58 82.1449 432.335 99.174 445.227 126.218C446.219 128.281 447.247 130.419 447.541 131.019L448.055 132.032L429.25 131.957C418.892 131.92 394.174 131.77 374.267 131.619Z" fill="#75AADB"/>
</g>
<defs>
<clipPath id="clip0_2854_7196">
<rect width="512" height="512" fill="white"/>
</clipPath>
</defs>
</svg>
