<svg width="512" height="512" viewBox="0 0 512 512" fill="none" xmlns="http://www.w3.org/2000/svg">
<g clip-path="url(#clip0_2824_2457)">
<path d="M256 512C397.385 512 512 397.385 512 256C512 114.615 397.385 0 256 0C114.615 0 0 114.615 0 256C0 397.385 114.615 512 256 512Z" fill="#FF0435"/>
<path d="M512 256C511.998 243.509 511.09 231.034 509.283 218.674L404.868 114.26C383.593 91.153 353.094 76.672 319.209 76.672C254.914 76.672 202.793 128.793 202.793 193.088C202.793 210.944 206.828 227.851 214.013 242.973L126.614 155.574C117.664 146.625 103.155 146.625 94.2046 155.574L91.7236 158.055C90.4717 159.307 89.7684 161.005 89.7684 162.775C89.7684 164.546 90.4717 166.244 91.7236 167.496L93.0816 168.854L81.8746 180.061C48.6486 213.287 48.6486 267.35 81.8746 300.576L290.92 509.619C415.782 492.586 512 385.538 512 256Z" fill="#FF0435"/>
<path d="M167.027 241.785L155.314 253.498C150.568 258.244 150.568 265.966 155.314 270.712L240.154 355.552C244.9 360.298 252.622 360.298 257.368 355.552L269.081 343.839L342.52 417.278L330.807 428.991C297.581 462.217 243.518 462.217 210.292 428.991L81.8746 300.574C48.6486 267.348 48.6486 213.285 81.8746 180.059L93.5876 168.346L167.027 241.785Z" fill="#00AD95"/>
<path d="M146.085 364.784L210.29 428.989C243.517 462.216 297.582 462.216 330.809 428.989L342.519 417.279L269.079 343.839L257.369 355.549C252.624 360.294 244.903 360.294 240.158 355.549L197.737 313.135L146.085 364.784Z" fill="#00AD95"/>
<path d="M266.425 342.195L343.474 419.244C344.726 420.496 346.424 421.199 348.194 421.199C349.965 421.199 351.663 420.496 352.915 419.244L355.396 416.763C364.346 407.813 364.346 393.303 355.396 384.354L301.316 330.273C292.366 321.323 277.856 321.323 268.907 330.273L266.426 332.754C265.806 333.374 265.314 334.11 264.978 334.92C264.643 335.73 264.47 336.598 264.47 337.474C264.47 338.351 264.642 339.219 264.978 340.029C265.313 340.839 265.805 341.575 266.425 342.195Z" fill="#FFED97"/>
<path d="M91.7237 167.494L168.773 244.543C170.025 245.795 171.723 246.498 173.493 246.498C175.264 246.498 176.962 245.795 178.214 244.543L180.695 242.062C189.645 233.113 189.645 218.602 180.695 209.653L126.615 155.572C117.665 146.623 103.156 146.623 94.2057 155.572L91.7247 158.053C91.1046 158.673 90.6127 159.409 90.2771 160.219C89.9414 161.028 89.7686 161.897 89.7686 162.773C89.7685 163.65 89.9411 164.518 90.2765 165.328C90.612 166.138 91.1037 166.874 91.7237 167.494Z" fill="#FFED97"/>
<path d="M319.209 76.671C254.914 76.671 202.793 128.792 202.793 193.087C202.793 217.395 210.247 239.96 222.989 258.629L216.919 293.953L255.342 290.426C273.68 302.482 295.623 309.503 319.209 309.503C383.504 309.503 435.625 257.382 435.625 193.087C435.625 128.793 383.504 76.671 319.209 76.671Z" fill="#FFD400"/>
<path d="M319.209 309.504C383.504 309.504 435.625 257.383 435.625 193.088C435.625 161.535 423.066 132.92 402.682 111.952L216.919 293.953L255.342 290.426C273.679 302.483 295.622 309.504 319.209 309.504Z" fill="#FFD400"/>
<path d="M260.715 242V149C260.717 162.081 240.92 167 226.5 167M349.067 172.687C349.067 163.953 356.871 156.874 366.498 156.874C376.125 156.874 383.929 163.953 383.929 172.687C383.929 177.589 382.657 182.422 380.217 186.795C377.776 191.168 374.235 194.959 369.88 197.86L349.067 211.728V220.126H392.608M305.49 220.126C295.863 220.126 288.059 213.047 288.059 204.313V172.687C288.059 163.953 295.863 156.874 305.49 156.874C315.117 156.874 322.921 163.953 322.921 172.687V204.313C322.921 213.047 315.117 220.126 305.49 220.126Z" stroke="#2A2A2C" stroke-width="16" stroke-miterlimit="10"/>
</g>
<defs>
<clipPath id="clip0_2824_2457">
<rect width="512" height="512" fill="white"/>
</clipPath>
</defs>
</svg>
