<svg xmlns="http://www.w3.org/2000/svg" version="1.1" xmlns:xlink="http://www.w3.org/1999/xlink" width="512" height="512" x="0" y="0" viewBox="0 0 64 64" style="enable-background:new 0 0 512 512" xml:space="preserve" class=""><g><path fill="#505050" d="M30 48c0-7.72 6.28-14 14-14v-6H30.829L22 36.829V12H10a2 2 0 0 0-2 2v44a2 2 0 0 0 2 2h26.826C32.745 57.551 30 53.096 30 48z" opacity="1" data-original="#505050"></path><path fill="#64c8f0" d="M30 48c0-6.329 4.225-11.684 10-13.41V28h-9.171L22 36.829V16H12v40h20.527A13.91 13.91 0 0 1 30 48z" opacity="1" data-original="#64c8f0"></path><path fill="#3c3c3c" d="M12 58V14a2 2 0 0 1 2-2h-4a2 2 0 0 0-2 2v44a2 2 0 0 0 2 2h4a2 2 0 0 1-2-2z" opacity="1" data-original="#3c3c3c"></path><path fill="#fa6450" d="M24 6v26l5.414-5.414A2 2 0 0 1 30.828 26H54a2 2 0 0 0 2-2V6a2 2 0 0 0-2-2H26a2 2 0 0 0-2 2z" opacity="1" data-original="#fa6450"></path><path fill="#dc4632" d="M26 6a2 2 0 0 1 2-2h-2a2 2 0 0 0-2 2v26l2-2z" opacity="1" data-original="#dc4632" class=""></path><path fill="#f0f0f0" d="M28 8v8h6v4h-6v2h8V8zm6 6h-4v-4h4zM42 20V8h-2l-2 2h2v10h-2v2h6v-2zM50 20V8h-2l-2 2h2v10h-2v2h6v-2z" opacity="1" data-original="#f0f0f0"></path><path fill="#46aad2" d="M18 40h4v4h-4zM24 40h4v4h-4zM32.527 40H30v4h.59a13.962 13.962 0 0 1 1.937-4z" opacity="1" data-original="#46aad2"></path><path fill="#fab400" d="M44 60c-6.627 0-12-5.373-12-12s5.373-12 12-12 12 5.373 12 12-5.373 12-12 12z" opacity="1" data-original="#fab400"></path><path fill="#dc9600" d="M34 48c0-6.29 4.842-11.44 11-11.949A11.806 11.806 0 0 0 44 36c-6.627 0-12 5.373-12 12s5.373 12 12 12c.338 0 .669-.023 1-.051C38.842 59.44 34 54.29 34 48z" opacity="1" data-original="#dc9600"></path><path fill="#f0f0f0" d="M44 46v-6h-2a4 4 0 0 0-4 4v8a4 4 0 0 0 4 4h2v-6h-4v-4zM48.389 51.889l-.707-.707C48.532 50.332 49 49.202 49 48s-.468-2.332-1.318-3.182l.707-.707C49.428 45.149 50 46.531 50 48s-.572 2.851-1.611 3.889z" opacity="1" data-original="#f0f0f0"></path><path fill="#f0f0f0" d="m46.975 50.475-.707-.707a2.502 2.502 0 0 0 0-3.535l.707-.707a3.504 3.504 0 0 1 0 4.949z" opacity="1" data-original="#f0f0f0"></path></g></svg>