<svg width="76" height="60" viewBox="0 0 76 60" fill="none" xmlns="http://www.w3.org/2000/svg">
<path fill-rule="evenodd" clip-rule="evenodd" d="M1.59774 15.5651C0.488838 25.8683 0.538268 37.7511 2.08132 48.0124C2.93512 53.6902 7.56903 58.043 13.2891 58.5402L19.2671 59.0599C31.7321 60.1434 44.2676 60.1434 56.7325 59.0599L62.7105 58.5402C68.4306 58.043 73.0645 53.6902 73.9183 48.0124C75.4614 37.7511 75.5109 25.8689 74.402 15.5658C74.2586 14.3713 74.0974 13.1784 73.9183 11.9876C73.0645 6.30976 68.4306 1.957 62.7105 1.45977L56.7325 0.940108C44.2676 -0.143448 31.7321 -0.143447 19.2671 0.940109L13.2891 1.45977C7.56902 1.957 2.93512 6.30976 2.08132 11.9876C1.90227 13.1782 1.74108 14.3709 1.59774 15.5651ZM19.7813 6.8553C31.9041 5.80149 44.0955 5.80149 56.2183 6.8553L62.1963 7.37496C65.1822 7.63452 67.6011 9.90667 68.0468 12.8705C68.0931 13.1783 68.1381 13.4862 68.1819 13.7943L46.1696 26.0233C41.0887 28.8461 34.9106 28.8461 29.8297 26.0233L7.8177 13.7944C7.86148 13.4863 7.90651 13.1783 7.9528 12.8705C8.39849 9.90667 10.8174 7.63452 13.8033 7.37496L19.7813 6.8553ZM68.9085 20.1829C69.6763 29.1594 69.3891 38.2036 68.0468 47.1295C67.6011 50.0933 65.1822 52.3655 62.1963 52.625L56.2183 53.1447C44.0955 54.1985 31.9041 54.1985 19.7813 53.1447L13.8033 52.625C10.8174 52.3655 8.39849 50.0933 7.9528 47.1295C6.61057 38.2037 6.32335 29.1595 7.09115 20.183L26.9462 31.2136C33.8204 35.0326 42.179 35.0326 49.0531 31.2136L68.9085 20.1829Z" fill="#5A4BB2"/>
</svg>
