<svg width="512" height="512" viewBox="0 0 512 512" fill="none" xmlns="http://www.w3.org/2000/svg">
<g clip-path="url(#clip0_2855_7234)">
<path d="M131.43 511.57C131.259 511.188 118.866 511.045 89.364 511.045C61.7914 511.045 47.5978 510.901 47.5978 510.567C47.5978 510.328 46.6544 510.089 45.4538 510.089C44.296 510.089 43.3097 509.898 43.3097 509.612C43.3097 509.373 42.7522 509.134 42.0233 509.134C41.3372 509.134 40.7368 508.943 40.7368 508.656C40.7368 508.418 40.1794 508.179 39.4504 508.179C38.7643 508.179 38.164 507.988 38.164 507.701C38.164 507.462 37.6065 507.224 36.8775 507.224C36.1914 507.224 35.5911 507.033 35.5911 506.746C35.5911 506.507 35.2052 506.268 34.7335 506.268C34.2618 506.268 33.8759 506.077 33.8759 505.791C33.8759 505.552 33.4899 505.313 33.0182 505.313C32.5466 505.313 32.1606 505.122 32.1606 504.836C32.1606 504.597 31.8176 504.358 31.3888 504.358C30.96 504.358 30.3596 503.928 30.0166 503.403C29.6735 502.877 29.0732 502.448 28.6444 502.448C28.2156 502.448 27.8725 502.256 27.8725 501.97C27.8725 501.731 27.5724 501.492 27.1864 501.492C26.8434 501.492 25.7713 500.633 24.8708 499.582C23.9703 498.531 23.027 497.671 22.7697 497.671C22.1265 497.671 15.8658 490.698 15.8658 489.982C15.8658 489.695 15.3084 488.836 14.5794 488.119C13.8933 487.403 13.293 486.495 13.293 486.113C13.293 485.779 12.907 485.158 12.4353 484.776C11.9636 484.394 11.5777 483.773 11.5777 483.343C11.5777 482.913 11.1918 482.292 10.7201 481.91C10.2484 481.528 9.86247 480.859 9.86247 480.382C9.86247 479.904 9.69094 479.522 9.43366 479.522C9.21925 479.522 9.00485 479.092 9.00485 478.615C9.00485 478.089 8.74756 477.612 8.49027 477.468C8.14722 477.325 8.23299 477.134 8.79044 476.895C9.90535 476.418 24.442 460.37 24.442 459.606C24.442 459.271 24.6564 458.985 24.9566 458.985C25.5998 458.985 43.7385 438.925 43.7385 438.209C43.7385 437.588 47.6836 433.194 48.2839 433.194C48.8842 433.194 56.1311 424.979 56.7744 423.594C57.0316 422.973 57.7177 422.209 58.2752 421.874C58.8755 421.588 62.9921 417.242 67.4946 412.227C71.9971 407.212 75.8993 403.104 76.1566 403.104C76.7141 403.104 78.4722 401.05 78.4722 400.43C78.4722 400.191 80.3161 397.946 82.5888 395.462C84.8186 392.979 86.9626 390.352 87.3057 389.588C87.6487 388.871 88.1633 388.298 88.4635 388.298C89.1067 388.298 91.7653 385.385 91.7653 384.668C91.7653 384.095 97.4256 377.791 97.9831 377.791C98.5834 377.791 149.226 321.337 149.226 320.668C149.226 320.048 151.37 317.85 152.356 317.421C152.828 317.277 153.257 316.704 153.385 316.179C153.557 315.415 153.986 315.224 155.272 315.224C156.902 315.224 157.588 315.94 190.177 352.239C208.445 372.585 223.625 389.253 223.882 389.253C224.139 389.253 224.911 389.922 225.554 390.686C226.197 391.498 227.055 392.119 227.441 392.119C227.827 392.119 228.127 392.358 228.127 392.597C228.127 392.883 228.47 393.074 228.899 393.074C229.328 393.074 229.928 393.504 230.271 394.03C230.614 394.555 231.215 394.985 231.643 394.985C232.072 394.985 232.415 395.224 232.415 395.462C232.415 395.749 233.016 395.94 233.702 395.94C234.431 395.94 234.988 396.179 234.988 396.418C234.988 396.704 235.374 396.895 235.846 396.895C236.317 396.895 236.703 397.134 236.703 397.373C236.703 397.659 237.304 397.85 237.99 397.85C238.719 397.85 239.276 398.089 239.276 398.328C239.276 398.615 239.877 398.806 240.563 398.806C241.292 398.806 241.849 399.045 241.849 399.283C241.849 399.57 242.621 399.761 243.564 399.761C244.508 399.761 245.28 400 245.28 400.239C245.28 400.525 246.266 400.716 247.424 400.716C248.624 400.716 249.568 400.955 249.568 401.194C249.568 401.48 252.269 401.671 256.857 401.671C261.446 401.671 264.147 401.48 264.147 401.194C264.147 400.907 265.305 400.716 266.72 400.716C268.135 400.716 269.293 400.525 269.293 400.239C269.293 400 269.893 399.761 270.579 399.761C271.308 399.761 271.866 399.57 271.866 399.283C271.866 399.045 272.466 398.806 273.152 398.806C273.881 398.806 274.439 398.615 274.439 398.328C274.439 398.089 275.039 397.85 275.725 397.85C276.454 397.85 277.012 397.659 277.012 397.373C277.012 397.134 277.612 396.895 278.298 396.895C279.027 396.895 279.584 396.704 279.584 396.418C279.584 396.179 279.97 395.94 280.442 395.94C280.914 395.94 281.3 395.749 281.3 395.462C281.3 395.224 281.643 394.985 282.072 394.985C282.5 394.985 283.101 394.555 283.444 394.03C283.787 393.504 284.387 393.074 284.816 393.074C285.245 393.074 285.588 392.883 285.588 392.597C285.588 392.358 285.931 392.119 286.36 392.119C286.788 392.119 287.389 391.689 287.732 391.164C288.075 390.639 288.632 390.209 289.018 390.209C289.404 390.209 289.962 389.779 290.305 389.253C290.648 388.728 291.162 388.298 291.505 388.298C291.806 388.298 293.006 387.248 294.164 385.91C295.322 384.621 296.48 383.522 296.694 383.522C297.294 383.522 309.601 369.815 309.601 369.146C309.601 368.477 310.673 367.283 311.316 367.283C311.917 367.283 313.889 365.086 313.889 364.418C313.889 363.701 314.961 362.507 315.562 362.507C315.819 362.507 325.51 352 337.045 339.104C354.626 319.522 358.228 315.701 359.215 315.701C360.244 315.701 371.436 327.976 432.027 395.462C484.813 454.256 503.895 475.224 504.581 475.224C505.182 475.224 505.568 475.51 505.568 475.94C505.568 476.322 505.396 476.656 505.139 476.656C504.924 476.656 504.71 477.086 504.71 477.612C504.71 478.137 504.539 478.567 504.281 478.567C504.067 478.567 503.852 478.997 503.852 479.522C503.852 480.048 503.681 480.477 503.424 480.477C503.209 480.477 502.995 480.859 502.995 481.337C502.995 481.815 502.609 482.483 502.137 482.865C501.665 483.248 501.28 483.868 501.28 484.298C501.28 484.728 500.894 485.349 500.422 485.731C499.95 486.113 499.564 486.686 499.564 487.021C499.564 487.833 489.016 499.582 488.287 499.582C487.986 499.582 487.472 500.012 487.129 500.537C486.786 501.062 486.228 501.492 485.842 501.492C485.456 501.492 484.899 501.922 484.556 502.448C484.213 502.973 483.613 503.403 483.184 503.403C482.755 503.403 482.412 503.642 482.412 503.88C482.412 504.167 482.026 504.358 481.554 504.358C481.083 504.358 480.697 504.597 480.697 504.836C480.697 505.122 480.311 505.313 479.839 505.313C479.367 505.313 478.981 505.552 478.981 505.791C478.981 506.077 478.595 506.268 478.124 506.268C477.652 506.268 477.266 506.507 477.266 506.746C477.266 507.033 476.88 507.224 476.409 507.224C475.937 507.224 475.551 507.462 475.551 507.701C475.551 507.988 474.993 508.179 474.264 508.179C473.578 508.179 472.978 508.418 472.978 508.656C472.978 508.943 472.421 509.134 471.692 509.134C471.006 509.134 470.405 509.373 470.405 509.612C470.405 509.898 469.462 510.089 468.261 510.089C467.103 510.089 466.117 510.328 466.117 510.567C466.117 510.853 465.174 511.045 463.973 511.045C462.815 511.045 461.829 511.188 461.829 511.427C461.829 512 131.773 512.143 131.43 511.57Z" fill="#FFA755"/>
<path d="M3.00098 444.657C3.00098 441.886 3.04386 441.743 3.98724 441.886C4.84486 442.03 4.93062 442.316 4.93062 444.657C4.93062 446.997 4.84486 447.283 3.98724 447.427C3.04386 447.57 3.00098 447.427 3.00098 444.657Z" fill="#FFA755"/>
<path d="M1.71484 367.761V362.507H3.21568H4.71652V367.761V373.015H3.21568H1.71484V367.761Z" fill="#FFA755"/>
<path d="M507.883 338.483C507.797 338.149 507.754 335.379 507.797 332.37L507.926 326.925L509.555 326.782L511.142 326.639V332.848V339.104H509.641C508.783 339.104 508.012 338.818 507.883 338.483Z" fill="#FFA755"/>
<path d="M53.6019 511.523C53.6019 511.284 53.3017 511.045 52.9586 511.045C52.6156 511.045 52.3154 510.711 52.3154 510.329C52.3154 509.708 57.0752 509.612 92.4092 509.612C127.657 509.612 132.546 509.708 132.76 510.329C132.975 510.95 136.234 511.045 158.489 511.045C175.17 511.045 183.96 511.188 183.96 511.523C183.96 511.857 161.962 512 118.781 512C75.5999 512 53.6019 511.857 53.6019 511.523Z" fill="#FDDFBA"/>
<path d="M248.282 402.627C248.282 402.388 247.338 402.149 246.138 402.149C244.98 402.149 243.994 401.958 243.994 401.672C243.994 401.433 243.222 401.194 242.278 401.194C241.335 401.194 240.563 401.003 240.563 400.716C240.563 400.478 240.006 400.239 239.277 400.239C238.591 400.239 237.99 400.048 237.99 399.761C237.99 399.522 237.433 399.284 236.704 399.284C236.018 399.284 235.417 399.092 235.417 398.806C235.417 398.567 235.031 398.328 234.56 398.328C234.088 398.328 233.702 398.137 233.702 397.851C233.702 397.612 233.145 397.373 232.416 397.373C231.73 397.373 231.129 397.182 231.129 396.895C231.129 396.657 230.786 396.418 230.357 396.418C229.929 396.418 229.328 395.988 228.985 395.463C228.642 394.937 228.042 394.507 227.613 394.507C227.184 394.507 226.841 394.316 226.841 394.03C226.841 393.791 226.541 393.552 226.155 393.552C225.769 393.552 224.911 392.931 224.268 392.119C223.625 391.355 222.853 390.686 222.596 390.686C222.339 390.686 207.159 374.018 188.891 353.672C170.624 333.325 155.487 316.657 155.273 316.657C155.058 316.657 154.801 317.039 154.715 317.469C154.544 318.472 28.3018 178.101 28.3018 176.955C28.3018 176.573 28.0016 176.239 27.6586 176.239C26.9296 176.239 23.1561 172.227 23.1561 171.463C23.1561 170.889 11.9641 158.328 11.1065 157.946C10.6777 157.755 10.6777 157.66 11.0636 157.66C11.3209 157.612 11.5782 157.278 11.5782 156.848C11.5782 156.418 12.1785 155.463 12.8646 154.746C13.5936 154.03 14.151 153.17 14.151 152.884C14.151 152.167 23.8422 141.373 24.4854 141.373C24.7427 141.373 25.5145 140.704 26.1577 139.94C26.8009 139.128 27.6586 138.507 28.0445 138.507C28.4304 138.507 28.7306 138.316 28.7306 138.03C28.7306 137.791 29.1165 137.552 29.5882 137.552C30.0599 137.552 30.4458 137.361 30.4458 137.075C30.4458 136.836 30.8318 136.597 31.3035 136.597C31.7752 136.597 32.1611 136.406 32.1611 136.119C32.1611 135.881 32.547 135.642 33.0187 135.642C33.4904 135.642 33.8763 135.451 33.8763 135.164C33.8763 134.925 34.2623 134.686 34.7339 134.686C35.2056 134.686 35.5916 134.495 35.5916 134.209C35.5916 133.97 36.1919 133.731 36.878 133.731C37.607 133.731 38.1644 133.54 38.1644 133.254C38.1644 133.015 38.7648 132.776 39.4509 132.776C40.1798 132.776 40.7373 132.585 40.7373 132.298C40.7373 132.06 41.5092 131.821 42.4525 131.821C43.3959 131.821 44.1678 131.63 44.1678 131.343C44.1678 131.057 45.3256 130.866 46.7406 130.866C48.1557 130.866 49.3135 130.675 49.3135 130.388C49.3135 130.054 64.8793 129.91 95.1963 129.91C135.676 129.91 141.079 129.815 141.079 129.194C141.079 128.812 141.379 128.478 141.722 128.478C142.237 128.478 142.365 129.385 142.365 133.731C142.365 136.931 142.537 138.985 142.794 138.985C143.052 138.985 143.223 140.561 143.223 142.806C143.223 145.051 143.395 146.627 143.652 146.627C143.909 146.627 144.081 147.725 144.081 149.015C144.081 150.352 144.295 151.403 144.509 151.403C144.767 151.403 144.938 152.501 144.938 153.791C144.938 155.128 145.153 156.179 145.367 156.179C145.624 156.179 145.796 157.039 145.796 158.089C145.796 159.14 146.01 160 146.225 160C146.482 160 146.654 161.098 146.654 162.388C146.654 163.725 146.868 164.776 147.082 164.776C147.34 164.776 147.511 165.445 147.511 166.209C147.511 167.021 147.726 167.642 147.94 167.642C148.197 167.642 148.369 168.31 148.369 169.075C148.369 169.886 148.583 170.507 148.798 170.507C149.055 170.507 149.226 171.176 149.226 171.94C149.226 172.752 149.441 173.373 149.655 173.373C149.913 173.373 150.084 174.042 150.084 174.806C150.084 175.618 150.298 176.239 150.513 176.239C150.77 176.239 150.942 176.907 150.942 177.672C150.942 178.484 151.156 179.104 151.37 179.104C151.628 179.104 151.799 179.534 151.799 180.06C151.799 180.585 152.014 181.015 152.228 181.015C152.485 181.015 152.657 181.445 152.657 181.97C152.657 182.495 152.871 182.925 153.086 182.925C153.343 182.925 153.515 183.355 153.515 183.881C153.515 184.406 153.729 184.836 153.943 184.836C154.201 184.836 154.372 185.504 154.372 186.269C154.372 187.081 154.587 187.701 154.801 187.701C155.058 187.701 155.23 188.131 155.23 188.657C155.23 189.182 155.401 189.612 155.616 189.612C155.787 189.612 156.13 191.331 156.259 193.385C156.473 196.06 156.773 197.349 157.288 197.779C158.446 198.83 159.904 199.642 160.59 199.642C160.933 199.642 161.233 199.928 161.233 200.263C161.233 200.597 161.619 201.17 162.091 201.552C162.562 201.934 162.948 202.555 162.948 202.985C162.948 203.415 163.334 204.036 163.806 204.418C164.278 204.8 164.664 205.421 164.664 205.755C164.664 206.137 165.264 207.045 165.95 207.761C166.679 208.478 167.236 209.337 167.236 209.672C167.236 209.958 168.008 211.057 168.952 212.06C169.895 213.063 170.667 214.113 170.667 214.4C170.667 215.116 182.073 227.821 182.717 227.821C182.974 227.821 183.917 228.681 184.818 229.731C185.718 230.782 186.747 231.642 187.048 231.642C187.348 231.642 187.905 232.072 188.248 232.597C188.591 233.122 189.149 233.552 189.449 233.552C189.792 233.552 190.607 234.221 191.25 234.985C191.893 235.797 192.708 236.418 193.051 236.418C193.351 236.418 193.908 236.848 194.252 237.373C194.595 237.898 195.195 238.328 195.624 238.328C196.053 238.328 196.396 238.567 196.396 238.806C196.396 239.092 196.739 239.284 197.167 239.284C197.596 239.284 198.197 239.713 198.54 240.239C198.883 240.764 199.483 241.194 199.912 241.194C200.341 241.194 200.684 241.433 200.684 241.672C200.684 241.958 201.07 242.149 201.541 242.149C202.013 242.149 202.399 242.388 202.399 242.627C202.399 242.913 202.785 243.104 203.257 243.104C203.728 243.104 204.114 243.343 204.114 243.582C204.114 243.869 204.5 244.06 204.972 244.06C205.443 244.06 205.829 244.298 205.829 244.537C205.829 244.824 206.215 245.015 206.687 245.015C207.159 245.015 207.545 245.254 207.545 245.492C207.545 245.779 207.931 245.97 208.402 245.97C208.874 245.97 209.26 246.209 209.26 246.448C209.26 246.734 209.646 246.925 210.118 246.925C210.589 246.925 210.975 247.164 210.975 247.403C210.975 247.689 211.361 247.881 211.833 247.881C212.304 247.881 212.69 248.119 212.69 248.358C212.69 248.645 213.076 248.836 213.548 248.836C214.02 248.836 214.406 249.075 214.406 249.313C214.406 249.6 215.006 249.791 215.692 249.791C216.421 249.791 216.978 250.03 216.978 250.269C216.978 250.555 217.579 250.746 218.265 250.746C218.994 250.746 219.551 250.985 219.551 251.224C219.551 251.51 220.152 251.701 220.838 251.701C221.567 251.701 222.124 251.94 222.124 252.179C222.124 252.466 222.725 252.657 223.411 252.657C224.14 252.657 224.697 252.895 224.697 253.134C224.697 253.421 225.297 253.612 225.984 253.612C226.713 253.612 227.27 253.851 227.27 254.089C227.27 254.376 228.042 254.567 228.985 254.567C229.929 254.567 230.7 254.806 230.7 255.045C230.7 255.331 231.687 255.522 232.844 255.522C234.045 255.522 234.989 255.761 234.989 256C234.989 256.286 236.146 256.478 237.561 256.478C238.976 256.478 240.134 256.669 240.134 256.955C240.134 257.242 241.421 257.433 243.136 257.433C244.851 257.433 246.138 257.624 246.138 257.91C246.138 258.197 247.724 258.388 249.997 258.388C253.084 258.388 254.028 258.579 254.671 259.248C256.686 261.349 257.544 261.779 259.216 261.636C260.803 261.492 260.932 261.397 261.06 259.964L261.189 258.388H266.549C269.808 258.388 271.866 258.197 271.866 257.91C271.866 257.624 273.281 257.433 275.297 257.433C277.312 257.433 278.727 257.242 278.727 256.955C278.727 256.716 279.499 256.478 280.442 256.478C281.386 256.478 282.158 256.286 282.158 256C282.158 255.761 282.93 255.522 283.873 255.522C284.816 255.522 285.588 255.331 285.588 255.045C285.588 254.806 286.36 254.567 287.303 254.567C288.247 254.567 289.019 254.376 289.019 254.089C289.019 253.851 289.619 253.612 290.305 253.612C291.034 253.612 291.592 253.421 291.592 253.134C291.592 252.895 291.977 252.657 292.449 252.657C292.921 252.657 293.307 252.466 293.307 252.179C293.307 251.94 293.907 251.701 294.593 251.701C295.322 251.701 295.88 251.51 295.88 251.224C295.88 250.985 296.266 250.746 296.737 250.746C297.209 250.746 297.595 250.555 297.595 250.269C297.595 250.03 297.981 249.791 298.453 249.791C298.924 249.791 299.31 249.6 299.31 249.313C299.31 249.075 299.696 248.836 300.168 248.836C300.639 248.836 301.025 248.645 301.025 248.358C301.025 248.119 301.411 247.881 301.883 247.881C302.355 247.881 302.741 247.689 302.741 247.403C302.741 247.164 303.127 246.925 303.598 246.925C304.07 246.925 304.456 246.734 304.456 246.448C304.456 246.209 304.799 245.97 305.228 245.97C305.657 245.97 306.257 245.54 306.6 245.015C306.943 244.489 307.5 244.06 307.886 244.06C308.272 244.06 308.83 243.63 309.173 243.104C309.516 242.579 310.03 242.149 310.331 242.149C311.145 242.149 317.32 235.176 317.32 234.269C317.32 233.886 317.535 233.552 317.749 233.552C318.006 233.552 318.178 233.122 318.178 232.597C318.178 232.072 318.392 231.642 318.607 231.642C318.864 231.642 319.035 231.021 319.035 230.209C319.035 229.445 319.25 228.776 319.464 228.776C319.722 228.776 319.893 228.155 319.893 227.343C319.893 226.579 319.722 225.91 319.464 225.91C319.25 225.91 319.035 225.481 319.035 224.955C319.035 224.43 318.864 224 318.607 224C318.392 224 318.178 223.666 318.178 223.284C318.178 222.328 314.533 218.269 313.675 218.269C313.332 218.269 313.032 218.078 313.032 217.791C313.032 217.552 312.475 217.313 311.746 217.313C311.06 217.313 310.459 217.122 310.459 216.836C310.459 216.597 309.687 216.358 308.744 216.358C307.801 216.358 307.029 216.597 307.029 216.836C307.029 217.122 305.614 217.313 303.513 217.266C301.54 217.218 300.296 217.122 300.725 216.979C301.111 216.884 301.454 216.358 301.454 215.833C301.454 215.355 301.754 214.925 302.097 214.925C302.483 214.925 304.113 213.445 305.742 211.582C307.372 209.767 308.916 208.239 309.173 208.239C309.43 208.239 310.802 206.949 312.174 205.373C313.547 203.797 314.919 202.507 315.176 202.507C315.433 202.507 316.977 201.027 318.607 199.164C320.236 197.349 321.78 195.821 322.037 195.821C322.552 195.821 323.752 194.675 323.752 194.197C323.752 194.054 323.238 193.91 322.637 193.91C321.651 193.91 321.608 193.815 322.209 193.194C322.68 192.669 323.881 192.478 326.926 192.478C329.37 192.478 331.042 192.286 331.042 192C331.042 191.761 331.814 191.522 332.757 191.522C333.701 191.522 334.473 191.331 334.473 191.045C334.473 190.806 335.244 190.567 336.188 190.567C337.131 190.567 337.903 190.376 337.903 190.089C337.903 189.851 338.289 189.612 338.761 189.612C339.232 189.612 339.618 189.421 339.618 189.134C339.618 188.895 340.219 188.657 340.905 188.657C341.634 188.657 342.191 188.466 342.191 188.179C342.191 187.94 342.577 187.701 343.049 187.701C343.521 187.701 343.906 187.51 343.906 187.224C343.906 186.985 344.25 186.746 344.678 186.746C345.107 186.746 345.707 186.316 346.051 185.791C346.394 185.266 346.994 184.836 347.423 184.836C347.852 184.836 348.195 184.645 348.195 184.358C348.195 184.119 348.495 183.881 348.881 183.881C349.267 183.881 350.124 183.26 350.767 182.448C351.411 181.684 352.183 181.015 352.44 181.015C353.083 181.015 359.344 174.042 359.344 173.325C359.344 173.039 359.944 172.179 360.63 171.463C361.316 170.746 361.917 169.839 361.917 169.457C361.917 169.122 362.302 168.501 362.774 168.119C363.246 167.737 363.632 167.116 363.632 166.686C363.632 166.257 364.018 165.636 364.489 165.254C364.961 164.872 365.347 164.203 365.347 163.725C365.347 163.248 365.561 162.866 365.776 162.866C366.033 162.866 366.205 162.245 366.205 161.433C366.205 160.669 366.419 160 366.633 160C366.891 160 367.062 159.57 367.062 159.045C367.062 158.519 367.277 158.089 367.491 158.089C367.748 158.089 367.92 157.469 367.92 156.657C367.92 155.892 368.134 155.224 368.349 155.224C368.606 155.224 368.777 154.603 368.777 153.791C368.777 153.027 368.992 152.358 369.206 152.358C369.464 152.358 369.635 151.498 369.635 150.448C369.635 149.397 369.85 148.537 370.064 148.537C370.321 148.537 370.493 147.486 370.493 146.149C370.493 144.86 370.707 143.761 370.922 143.761C371.179 143.761 371.35 140.895 371.35 136.119C371.35 129.624 371.436 128.478 371.994 128.478C372.337 128.478 372.637 128.812 372.637 129.194C372.637 129.815 377.954 129.91 418.091 129.91C448.107 129.91 463.545 130.054 463.545 130.388C463.545 130.675 464.831 130.866 466.546 130.866C468.262 130.866 469.548 131.057 469.548 131.343C469.548 131.63 470.148 131.821 470.834 131.821C471.563 131.821 472.121 132.06 472.121 132.298C472.121 132.585 472.721 132.776 473.407 132.776C474.136 132.776 474.694 133.015 474.694 133.254C474.694 133.54 475.294 133.731 475.98 133.731C476.709 133.731 477.267 133.97 477.267 134.209C477.267 134.495 477.653 134.686 478.124 134.686C478.596 134.686 478.982 134.925 478.982 135.164C478.982 135.451 479.368 135.642 479.839 135.642C480.311 135.642 480.697 135.881 480.697 136.119C480.697 136.406 481.083 136.597 481.555 136.597C482.026 136.597 482.412 136.836 482.412 137.075C482.412 137.361 482.798 137.552 483.27 137.552C483.742 137.552 484.128 137.791 484.128 138.03C484.128 138.316 484.471 138.507 484.899 138.507C485.328 138.507 485.929 138.937 486.272 139.463C486.615 139.988 487.172 140.418 487.472 140.418C487.815 140.418 488.63 141.039 489.273 141.851C489.917 142.615 490.688 143.284 490.946 143.284C491.589 143.284 498.707 151.212 498.707 151.928C498.707 152.215 499.265 153.075 499.994 153.791C500.68 154.507 501.28 155.415 501.28 155.797C501.28 156.131 501.666 156.752 502.138 157.134C502.824 157.707 502.952 158.137 502.738 159.236C502.438 160.764 501.623 161.91 500.851 161.91C500.251 161.91 497.421 165.063 497.421 165.731C497.421 166.4 492.018 172.418 491.417 172.418C490.817 172.418 488.844 174.615 488.844 175.284C488.844 175.904 467.533 199.642 466.975 199.642C466.461 199.642 464.402 201.934 464.402 202.507C464.402 203.224 455.054 213.492 454.454 213.492C454.111 213.492 453.596 213.922 453.253 214.448C452.91 214.973 452.396 215.403 452.138 215.403C451.838 215.403 451.538 215.594 451.452 215.833C451.152 216.788 444.205 224.43 443.433 224.716C442.962 224.86 442.447 225.433 442.319 225.958C442.147 226.484 440.603 228.442 438.845 230.304C437.087 232.167 435.672 234.078 435.672 234.507C435.672 234.937 434.943 235.654 434.085 236.131C433.185 236.609 432.07 237.421 431.598 237.898C431.127 238.424 430.012 239.57 429.154 240.525C428.254 241.433 427.525 242.627 427.525 243.104C427.525 243.63 427.224 244.06 426.881 244.06C426.538 244.06 426.238 244.394 426.238 244.776C426.238 245.875 416.547 256.478 415.518 256.478C414.231 256.478 402.696 269.469 402.353 271.331C402.182 272.286 401.839 272.716 401.324 272.716C400.81 272.716 400.509 273.051 400.509 273.672C400.509 274.197 400.209 274.627 399.866 274.627C399.137 274.627 394.506 279.594 394.506 280.358C394.506 281.122 391.633 284.179 390.861 284.179C390.518 284.179 390.218 284.37 390.218 284.657C390.218 284.895 389.746 285.23 389.146 285.421C388.546 285.564 388.074 285.946 388.074 286.281C388.074 286.567 386.444 288.621 384.429 290.866C382.414 293.11 380.784 295.212 380.784 295.546C380.784 296.31 379.755 297.552 379.069 297.552C378.469 297.552 374.781 301.66 374.781 302.328C374.781 302.997 371.093 307.104 370.493 307.104C369.892 307.104 366.205 311.212 366.205 311.881C366.205 312.167 364.918 313.791 363.374 315.51C360.844 318.328 360.459 318.615 359.901 317.946C359.301 317.325 356.985 319.761 338.289 340.585C326.754 353.433 317.106 363.94 316.849 363.94C316.248 363.94 315.176 365.134 315.176 365.851C315.176 366.519 313.204 368.716 312.603 368.716C311.96 368.716 310.888 369.91 310.888 370.579C310.888 371.248 298.581 384.955 297.981 384.955C297.766 384.955 296.609 386.054 295.451 387.343C294.293 388.681 293.092 389.731 292.792 389.731C292.449 389.731 291.935 390.161 291.592 390.686C291.249 391.212 290.691 391.642 290.305 391.642C289.919 391.642 289.362 392.072 289.019 392.597C288.676 393.122 288.075 393.552 287.647 393.552C287.218 393.552 286.875 393.791 286.875 394.03C286.875 394.316 286.532 394.507 286.103 394.507C285.674 394.507 285.074 394.937 284.731 395.463C284.388 395.988 283.787 396.418 283.358 396.418C282.93 396.418 282.587 396.657 282.587 396.895C282.587 397.182 282.201 397.373 281.729 397.373C281.257 397.373 280.871 397.612 280.871 397.851C280.871 398.137 280.314 398.328 279.585 398.328C278.899 398.328 278.298 398.567 278.298 398.806C278.298 399.092 277.741 399.284 277.012 399.284C276.326 399.284 275.726 399.522 275.726 399.761C275.726 400.048 275.168 400.239 274.439 400.239C273.753 400.239 273.153 400.478 273.153 400.716C273.153 401.003 272.509 401.194 271.695 401.194C270.88 401.194 270.065 401.433 269.937 401.672C269.808 401.958 268.736 402.149 267.535 402.149C266.377 402.149 265.434 402.388 265.434 402.627C265.434 402.913 262.304 403.104 256.858 403.104C251.412 403.104 248.282 402.913 248.282 402.627Z" fill="#FDDFBA"/>
<path d="M9.00463 478.71C9.00463 478.09 8.8331 477.612 8.57582 477.612C8.36141 477.612 8.147 477.182 8.147 476.657C8.147 476.131 7.97548 475.702 7.71819 475.702C7.50379 475.702 7.28938 475.272 7.28938 474.746C7.28938 474.221 7.11786 473.791 6.86057 473.791C6.64617 473.791 6.43176 473.17 6.43176 472.358C6.43176 471.594 6.26024 470.925 6.00295 470.925C5.78855 470.925 5.57414 470.305 5.57414 469.493C5.57414 468.728 5.40262 468.06 5.14533 468.06C4.93092 468.06 4.71652 467.2 4.71652 466.149C4.71652 465.099 4.54499 464.239 4.28771 464.239C4.03042 464.239 3.8589 462.949 3.8589 461.373C3.8589 459.797 3.68737 458.507 3.43009 458.507C2.78687 458.507 2.87263 446.806 3.51585 445.612C3.94466 444.848 3.94466 444.466 3.51585 443.702C3.25856 443.176 3.00128 442.221 3.00128 441.552C3.00128 440.836 2.74399 440.358 2.35806 440.358C1.80061 440.358 1.71484 430.328 1.71484 357.731C1.71484 284.848 1.80061 275.105 2.35806 275.105C2.78687 275.105 3.00128 274.627 3.00128 273.672C3.00128 272.716 2.78687 272.239 2.35806 272.239C1.80061 272.239 1.71484 270.758 1.71484 261.731C1.71484 252.705 1.80061 251.224 2.35806 251.224C2.91551 251.224 3.00128 249.982 3.00128 243.105C3.00128 236.227 2.91551 234.985 2.35806 234.985C1.80061 234.985 1.71484 231.833 1.71484 209.672C1.71484 187.51 1.80061 184.358 2.35806 184.358C2.82975 184.358 3.00128 183.785 3.00128 181.97C3.00128 180.681 3.21568 179.582 3.43009 179.582C3.68737 179.582 3.8589 178.531 3.8589 177.194C3.8589 175.904 4.0733 174.806 4.28771 174.806C4.54499 174.806 4.71652 174.185 4.71652 173.373C4.71652 172.609 4.93092 171.94 5.14533 171.94C5.40262 171.94 5.57414 171.319 5.57414 170.507C5.57414 169.743 5.78855 169.075 6.00295 169.075C6.26024 169.075 6.43176 168.454 6.43176 167.642C6.43176 166.878 6.64617 166.209 6.86057 166.209C7.11786 166.209 7.28938 165.779 7.28938 165.254C7.28938 164.728 7.50379 164.299 7.71819 164.299C7.97548 164.299 8.147 163.869 8.147 163.343C8.147 162.818 8.36141 162.388 8.57582 162.388C8.8331 162.388 9.00463 161.958 9.00463 161.433C9.00463 160.907 9.21903 160.478 9.43344 160.478C9.69072 160.478 9.86225 160.143 9.86225 159.761C9.86225 158.902 11.749 156.657 12.4351 156.657C12.9926 156.657 24.4418 169.409 24.4418 170.03C24.4418 170.794 28.2153 174.806 28.9443 174.806C29.2874 174.806 29.5875 175.14 29.5875 175.522C29.5875 175.904 57.9748 207.809 92.6227 246.448C127.314 285.039 155.486 316.657 155.272 316.657C155.058 316.657 154.8 317.087 154.672 317.612C154.543 318.137 154.114 318.71 153.642 318.854C152.613 319.284 150.512 321.481 150.512 322.102C150.512 322.77 99.8267 379.224 99.2693 379.224C98.6689 379.224 93.0515 385.528 93.0515 386.197C93.0515 386.866 90.35 389.731 89.7068 389.731C89.4495 389.731 88.9349 390.305 88.5919 391.069C88.2488 391.785 86.1048 394.412 83.875 396.896C81.6023 399.379 79.7584 401.672 79.7584 401.958C79.7584 402.579 77.9574 404.537 77.3571 404.537C77.1426 404.537 73.2834 408.645 68.7808 413.66C64.2783 418.675 60.1617 423.021 59.5614 423.307C59.004 423.642 58.3179 424.406 58.0606 425.027C57.4174 426.46 50.1276 434.627 49.5272 434.627C48.9698 434.627 45.0247 439.021 45.0247 439.69C45.0247 440.358 26.8432 460.418 26.2428 460.418C25.9426 460.418 25.7282 460.705 25.7282 461.039C25.7282 461.803 11.1058 478.09 10.4197 478.09C10.1195 478.09 9.69072 478.472 9.47632 478.949C9.09039 479.666 9.04751 479.666 9.00463 478.71ZM3.30144 365.755C3.21568 364.609 3.12992 365.516 3.12992 367.761C3.12992 370.006 3.21568 370.913 3.30144 369.815C3.38721 368.669 3.38721 366.854 3.30144 365.755Z" fill="#FFBA79"/>
<path d="M430.997 397.182L359.257 317.278L362.087 314.125C363.631 312.358 364.917 310.734 364.917 310.448C364.917 309.779 368.605 305.672 369.205 305.672C369.463 305.672 370.535 304.716 371.564 303.522C372.636 302.376 373.493 301.182 373.493 300.895C373.493 300.227 377.181 296.119 377.781 296.119C378.468 296.119 379.497 294.877 379.497 294.113C379.497 293.779 381.126 291.677 383.142 289.433C385.157 287.188 386.786 285.134 386.786 284.848C386.786 284.513 387.258 284.131 387.859 283.988C388.459 283.797 388.931 283.463 388.931 283.224C388.931 282.937 389.231 282.746 389.574 282.746C390.346 282.746 393.219 279.689 393.219 278.925C393.219 278.161 397.85 273.194 398.579 273.194C398.922 273.194 399.222 272.764 399.222 272.239C399.222 271.618 399.522 271.283 400.037 271.283C400.594 271.283 400.894 270.854 401.066 269.851C401.409 268.036 413.501 254.424 414.573 254.663C415.431 254.854 424.951 244.442 424.951 243.343C424.951 242.961 425.251 242.627 425.594 242.627C425.937 242.627 426.237 242.197 426.237 241.672C426.237 241.194 426.966 240 427.867 239.092C428.724 238.137 429.839 236.991 430.311 236.466C430.782 235.988 431.897 235.176 432.798 234.698C433.655 234.221 434.384 233.504 434.384 233.075C434.384 232.645 435.8 230.734 437.558 228.872C439.316 227.009 440.86 225.051 441.031 224.525C441.16 224 441.674 223.427 442.146 223.283C442.918 222.997 449.865 215.355 450.165 214.4C450.25 214.161 450.551 213.97 450.851 213.97C451.108 213.97 451.623 213.54 451.966 213.015C452.309 212.489 452.823 212.06 453.166 212.06C453.767 212.06 463.115 201.791 463.115 201.075C463.115 200.501 465.173 198.209 465.688 198.209C466.245 198.209 487.557 174.472 487.557 173.851C487.557 173.182 489.53 170.985 490.13 170.985C490.73 170.985 496.133 164.967 496.133 164.298C496.133 163.63 498.963 160.477 499.564 160.477C500.293 160.477 501.279 159.236 501.279 158.376C501.279 157.946 501.622 157.612 502.137 157.612C502.694 157.612 502.994 157.946 502.994 158.567C502.994 159.092 503.209 159.522 503.423 159.522C503.68 159.522 503.852 159.904 503.852 160.382C503.852 160.86 504.238 161.528 504.709 161.91C505.224 162.292 505.567 163.152 505.567 163.916C505.567 164.633 505.781 165.254 505.996 165.254C506.253 165.254 506.425 165.683 506.425 166.209C506.425 166.734 506.639 167.164 506.853 167.164C507.111 167.164 507.282 167.833 507.282 168.597C507.282 169.409 507.497 170.03 507.711 170.03C507.968 170.03 508.14 170.698 508.14 171.463C508.14 172.275 508.354 172.895 508.569 172.895C508.826 172.895 508.998 173.564 508.998 174.328C508.998 175.14 509.212 175.761 509.426 175.761C509.684 175.761 509.855 176.812 509.855 178.101C509.855 179.582 510.07 180.537 510.413 180.68C510.799 180.824 510.884 185.6 510.799 202.889C510.713 215.021 510.841 224.955 511.013 224.955C511.313 224.955 511.442 231.403 511.485 248.74C511.485 249.839 511.485 258.913 511.485 268.895C511.485 278.877 511.442 287.427 511.485 287.904C511.485 291.63 510.884 329.6 510.799 328.931C510.756 328.358 510.413 328.119 509.984 328.215C509.298 328.358 509.212 328.979 509.212 332.895C509.212 336.812 509.298 337.433 509.984 337.576C510.413 337.672 510.756 337.433 510.799 336.86C510.884 336.048 511.528 359.212 511.485 362.173C511.485 363.224 511.528 388.442 511.528 402.531C511.528 404.537 511.442 412.848 511.313 420.967C511.184 430.758 511.27 435.916 511.57 436.251C512.128 436.872 512.128 445.373 511.57 446.567C511.356 447.045 511.013 450.149 510.884 453.445C510.713 456.74 510.413 459.463 510.198 459.463C510.027 459.463 509.855 460.561 509.855 461.851C509.855 463.188 509.684 464.239 509.426 464.239C509.212 464.239 508.998 464.907 508.998 465.672C508.998 466.483 508.826 467.104 508.569 467.104C508.354 467.104 508.14 467.773 508.14 468.537C508.14 469.349 507.968 469.97 507.711 469.97C507.497 469.97 507.282 470.639 507.282 471.403C507.282 472.215 507.111 472.836 506.853 472.836C506.639 472.836 506.425 473.266 506.425 473.791C506.425 474.316 506.253 474.746 505.996 474.746C505.781 474.746 505.567 475.176 505.567 475.701C505.567 476.322 505.267 476.657 504.752 476.657C504.281 476.657 503.68 476.752 503.337 476.895C502.994 477.039 474.564 445.707 430.997 397.182Z" fill="#FFBA79"/>
<path d="M253.17 260.537C252.956 259.964 252.055 259.821 248.882 259.821C246.481 259.821 244.851 259.63 244.851 259.343C244.851 259.057 243.565 258.866 241.85 258.866C240.134 258.866 238.848 258.675 238.848 258.388C238.848 258.101 237.69 257.91 236.275 257.91C234.86 257.91 233.702 257.719 233.702 257.433C233.702 257.194 232.759 256.955 231.558 256.955C230.4 256.955 229.414 256.764 229.414 256.478C229.414 256.239 228.642 256 227.699 256C226.755 256 225.984 255.809 225.984 255.522C225.984 255.284 225.426 255.045 224.697 255.045C224.011 255.045 223.411 254.854 223.411 254.567C223.411 254.328 222.853 254.09 222.124 254.09C221.438 254.09 220.838 253.898 220.838 253.612C220.838 253.373 220.28 253.134 219.551 253.134C218.865 253.134 218.265 252.943 218.265 252.657C218.265 252.418 217.708 252.179 216.979 252.179C216.293 252.179 215.692 251.988 215.692 251.701C215.692 251.463 215.135 251.224 214.406 251.224C213.72 251.224 213.119 251.033 213.119 250.746C213.119 250.507 212.733 250.269 212.262 250.269C211.79 250.269 211.404 250.078 211.404 249.791C211.404 249.552 211.018 249.313 210.546 249.313C210.075 249.313 209.689 249.122 209.689 248.836C209.689 248.597 209.303 248.358 208.831 248.358C208.36 248.358 207.974 248.167 207.974 247.881C207.974 247.642 207.588 247.403 207.116 247.403C206.644 247.403 206.258 247.212 206.258 246.925C206.258 246.687 205.872 246.448 205.401 246.448C204.929 246.448 204.543 246.257 204.543 245.97C204.543 245.731 204.157 245.493 203.685 245.493C203.214 245.493 202.828 245.301 202.828 245.015C202.828 244.776 202.442 244.537 201.97 244.537C201.499 244.537 201.113 244.346 201.113 244.06C201.113 243.821 200.727 243.582 200.255 243.582C199.783 243.582 199.397 243.391 199.397 243.104C199.397 242.866 199.054 242.627 198.625 242.627C198.197 242.627 197.596 242.197 197.253 241.672C196.91 241.146 196.31 240.716 195.881 240.716C195.452 240.716 195.109 240.525 195.109 240.239C195.109 240 194.766 239.761 194.337 239.761C193.909 239.761 193.308 239.331 192.965 238.806C192.622 238.281 192.065 237.851 191.765 237.851C191.421 237.851 190.607 237.23 189.964 236.418C189.32 235.654 188.506 234.985 188.163 234.985C187.862 234.985 187.305 234.555 186.962 234.03C186.619 233.504 186.061 233.075 185.761 233.075C185.461 233.075 184.432 232.215 183.531 231.164C182.631 230.113 181.687 229.254 181.43 229.254C180.787 229.254 169.381 216.549 169.381 215.833C169.381 215.546 168.609 214.496 167.665 213.493C166.722 212.49 165.95 211.391 165.95 211.104C165.95 210.77 165.393 209.91 164.664 209.194C163.978 208.478 163.377 207.57 163.377 207.188C163.377 206.854 162.991 206.233 162.52 205.851C162.048 205.469 161.662 204.848 161.662 204.418C161.662 203.988 161.276 203.367 160.804 202.985C160.333 202.603 159.947 202.03 159.947 201.696C159.947 201.361 159.604 201.075 159.218 201.075C158.189 201.075 156.087 199.021 156.087 198.018C156.087 197.588 155.916 197.254 155.659 197.254C155.444 197.254 155.23 196.824 155.23 196.346C155.23 195.821 155.015 195.248 154.758 195.057C154.458 194.866 154.372 194.006 154.501 192.907C154.63 191.857 154.544 191.045 154.329 191.045C154.115 191.045 153.943 190.615 153.943 190.09C153.943 189.564 153.772 189.134 153.515 189.134C153.3 189.134 153.086 188.513 153.086 187.701C153.086 186.937 152.914 186.269 152.657 186.269C152.443 186.269 152.228 185.839 152.228 185.313C152.228 184.788 152.057 184.358 151.799 184.358C151.585 184.358 151.371 183.928 151.371 183.403C151.371 182.878 151.199 182.448 150.942 182.448C150.727 182.448 150.513 182.018 150.513 181.493C150.513 180.967 150.341 180.537 150.084 180.537C149.87 180.537 149.655 179.916 149.655 179.104C149.655 178.34 149.484 177.672 149.227 177.672C149.012 177.672 148.798 177.051 148.798 176.239C148.798 175.475 148.626 174.806 148.369 174.806C148.154 174.806 147.94 174.185 147.94 173.373C147.94 172.609 147.769 171.94 147.511 171.94C147.297 171.94 147.082 171.319 147.082 170.507C147.082 169.743 146.911 169.075 146.654 169.075C146.439 169.075 146.225 168.454 146.225 167.642C146.225 166.878 146.053 166.209 145.796 166.209C145.582 166.209 145.367 165.158 145.367 163.821C145.367 162.531 145.196 161.433 144.938 161.433C144.724 161.433 144.51 160.573 144.51 159.522C144.51 158.472 144.338 157.612 144.081 157.612C143.866 157.612 143.652 156.561 143.652 155.224C143.652 153.934 143.48 152.836 143.223 152.836C143.009 152.836 142.794 151.785 142.794 150.448C142.794 149.158 142.623 148.06 142.366 148.06C142.108 148.06 141.937 146.484 141.937 144.239C141.937 141.994 141.765 140.418 141.508 140.418C141.251 140.418 141.079 137.409 141.079 132.298C141.079 127.188 141.251 124.179 141.508 124.179C141.765 124.179 141.937 122.603 141.937 120.406C141.937 116.012 142.151 115.104 143.266 115.104C144.295 115.104 144.338 113.624 143.352 112.812C142.709 112.287 142.623 111.618 142.709 108.657C142.794 106.698 143.052 105.075 143.266 105.075C143.48 105.075 143.652 104.024 143.652 102.687C143.652 101.397 143.866 100.299 144.081 100.299C144.338 100.299 144.51 99.2478 144.51 97.9104C144.51 96.6209 144.724 95.5224 144.938 95.5224C145.196 95.5224 145.367 94.6627 145.367 93.6119C145.367 92.5612 145.582 91.7015 145.796 91.7015C146.053 91.7015 146.225 91.0806 146.225 90.2687C146.225 89.5045 146.439 88.8358 146.654 88.8358C146.911 88.8358 147.082 88.2149 147.082 87.403C147.082 86.6388 147.297 85.9701 147.511 85.9701C147.769 85.9701 147.94 85.3492 147.94 84.5373C147.94 83.7731 148.154 83.1045 148.369 83.1045C148.626 83.1045 148.798 82.4836 148.798 81.6716C148.798 80.9075 149.012 80.2388 149.227 80.2388C149.484 80.2388 149.655 79.8089 149.655 79.2836C149.655 78.7582 149.87 78.3284 150.084 78.3284C150.341 78.3284 150.513 77.7075 150.513 76.8955C150.513 76.1313 150.727 75.4627 150.942 75.4627C151.199 75.4627 151.371 75.0328 151.371 74.5075C151.371 73.9821 151.585 73.5522 151.799 73.5522C152.057 73.5522 152.228 73.1224 152.228 72.597C152.228 72.0716 152.443 71.6418 152.657 71.6418C152.914 71.6418 153.086 71.2119 153.086 70.6866C153.086 70.1612 153.3 69.7313 153.515 69.7313C153.772 69.7313 153.943 69.3015 153.943 68.7761C153.943 68.2507 154.158 67.8209 154.372 67.8209C154.63 67.8209 154.801 67.391 154.801 66.8657C154.801 66.3403 155.015 65.9104 155.23 65.9104C155.487 65.9104 155.659 65.4806 155.659 64.9552C155.659 64.4298 155.873 64 156.087 64C156.345 64 156.516 63.5701 156.516 63.0448C156.516 62.5194 156.731 62.0895 156.945 62.0895C157.202 62.0895 157.374 61.7075 157.374 61.2298C157.374 60.7522 157.76 60.0836 158.232 59.7015C158.703 59.3194 159.089 58.6985 159.089 58.2687C159.089 57.8388 159.475 57.2179 159.947 56.8358C160.418 56.4537 160.804 55.8328 160.804 55.403C160.804 54.9731 161.19 54.3522 161.662 53.9701C162.134 53.5881 162.52 52.9672 162.52 52.5373C162.52 52.1075 162.906 51.4866 163.377 51.1045C163.849 50.7224 164.235 50.1015 164.235 49.7672C164.235 49.3851 164.835 48.4776 165.521 47.7612C166.25 47.0448 166.808 46.1851 166.808 45.8985C166.808 45.1821 182.502 27.7015 183.145 27.7015C183.403 27.7015 184.175 27.0806 184.818 26.2687C185.461 25.5045 186.233 24.8358 186.533 24.8358C186.833 24.8358 187.605 24.2149 188.248 23.403C188.891 22.6388 189.706 21.9701 190.049 21.9701C190.349 21.9701 190.907 21.5403 191.25 21.0149C191.593 20.4896 192.193 20.0597 192.622 20.0597C193.051 20.0597 193.394 19.8687 193.394 19.5821C193.394 19.3433 193.78 19.1045 194.252 19.1045C194.723 19.1045 195.109 18.9134 195.109 18.6269C195.109 18.3881 195.452 18.1493 195.881 18.1493C196.31 18.1493 196.91 17.7194 197.253 17.194C197.596 16.6687 198.197 16.2388 198.625 16.2388C199.054 16.2388 199.397 16.0478 199.397 15.7612C199.397 15.5224 199.783 15.2836 200.255 15.2836C200.727 15.2836 201.113 15.0925 201.113 14.806C201.113 14.5672 201.499 14.3284 201.97 14.3284C202.442 14.3284 202.828 14.1373 202.828 13.8507C202.828 13.6119 203.428 13.3731 204.114 13.3731C204.843 13.3731 205.401 13.1821 205.401 12.8955C205.401 12.6567 205.787 12.4179 206.258 12.4179C206.73 12.4179 207.116 12.2269 207.116 11.9403C207.116 11.7015 207.502 11.4627 207.974 11.4627C208.445 11.4627 208.831 11.2716 208.831 10.9851C208.831 10.7463 209.432 10.5075 210.118 10.5075C210.847 10.5075 211.404 10.3164 211.404 10.0299C211.404 9.79104 212.004 9.55224 212.69 9.55224C213.419 9.55224 213.977 9.36119 213.977 9.07463C213.977 8.83582 214.363 8.59701 214.835 8.59701C215.306 8.59701 215.692 8.40597 215.692 8.1194C215.692 7.8806 216.293 7.64179 216.979 7.64179C217.708 7.64179 218.265 7.45075 218.265 7.16418C218.265 6.92537 219.037 6.68657 219.98 6.68657C220.924 6.68657 221.696 6.49552 221.696 6.20895C221.696 5.97015 222.467 5.73134 223.411 5.73134C224.354 5.73134 225.126 5.5403 225.126 5.25373C225.126 5.01493 225.726 4.77612 226.412 4.77612C227.141 4.77612 227.699 4.58507 227.699 4.29851C227.699 4.0597 228.685 3.8209 229.843 3.8209C231.044 3.8209 231.987 3.62985 231.987 3.34328C231.987 3.10448 232.973 2.86567 234.131 2.86567C235.332 2.86567 236.275 2.67463 236.275 2.38806C236.275 2.10149 237.562 1.91045 239.277 1.91045C240.992 1.91045 242.278 1.7194 242.278 1.43284C242.278 1.14627 244.422 0.955224 247.853 0.955224C251.283 0.955224 253.428 0.764179 253.428 0.477612C253.428 0.191045 255.143 0 257.716 0C260.288 0 262.004 0.191045 262.004 0.477612C262.004 0.764179 264.148 0.955224 267.578 0.955224C271.009 0.955224 273.153 1.14627 273.153 1.43284C273.153 1.7194 274.311 1.91045 275.726 1.91045C277.141 1.91045 278.299 2.10149 278.299 2.38806C278.299 2.67463 279.285 2.86567 280.443 2.86567C281.643 2.86567 282.587 3.10448 282.587 3.34328C282.587 3.62985 283.358 3.8209 284.302 3.8209C285.245 3.8209 286.017 4.0597 286.017 4.29851C286.017 4.58507 286.789 4.77612 287.732 4.77612C288.676 4.77612 289.448 5.01493 289.448 5.25373C289.448 5.5403 290.048 5.73134 290.734 5.73134C291.463 5.73134 292.02 5.97015 292.02 6.20895C292.02 6.49552 292.621 6.68657 293.307 6.68657C294.036 6.68657 294.593 6.92537 294.593 7.16418C294.593 7.45075 295.194 7.64179 295.88 7.64179C296.609 7.64179 297.166 7.8806 297.166 8.1194C297.166 8.40597 297.767 8.59701 298.453 8.59701C299.182 8.59701 299.739 8.83582 299.739 9.07463C299.739 9.36119 300.125 9.55224 300.597 9.55224C301.068 9.55224 301.454 9.79104 301.454 10.0299C301.454 10.3164 301.84 10.5075 302.312 10.5075C302.784 10.5075 303.17 10.7463 303.17 10.9851C303.17 11.2716 303.77 11.4627 304.456 11.4627C305.185 11.4627 305.742 11.7015 305.742 11.9403C305.742 12.2269 306.128 12.4179 306.6 12.4179C307.072 12.4179 307.458 12.6567 307.458 12.8955C307.458 13.1821 307.844 13.3731 308.315 13.3731C308.787 13.3731 309.173 13.6119 309.173 13.8507C309.173 14.1373 309.559 14.3284 310.031 14.3284C310.502 14.3284 310.888 14.5672 310.888 14.806C310.888 15.0925 311.274 15.2836 311.746 15.2836C312.217 15.2836 312.603 15.5224 312.603 15.7612C312.603 16.0478 312.946 16.2388 313.375 16.2388C313.804 16.2388 314.404 16.6687 314.747 17.194C315.09 17.7194 315.691 18.1493 316.12 18.1493C316.548 18.1493 316.891 18.3881 316.891 18.6269C316.891 18.9134 317.235 19.1045 317.663 19.1045C318.092 19.1045 318.692 19.5343 319.036 20.0597C319.379 20.5851 319.936 21.0149 320.322 21.0149C320.708 21.0149 321.265 21.4448 321.608 21.9701C321.951 22.4955 322.509 22.9254 322.895 22.9254C323.281 22.9254 323.838 23.3552 324.181 23.8806C324.524 24.406 325.082 24.8358 325.382 24.8358C325.725 24.8358 326.54 25.5045 327.183 26.2687C327.826 27.0806 328.598 27.7015 328.898 27.7015C329.155 27.7015 330.313 28.8 331.471 30.0896C332.629 31.4269 333.787 32.4776 334.001 32.4776C334.644 32.4776 342.62 41.3612 342.62 42.0776C342.62 42.3164 343.564 43.606 344.764 44.8955C345.922 46.1851 346.908 47.4746 346.908 47.7612C346.908 48.0955 347.509 48.9552 348.195 49.6716C348.924 50.3881 349.481 51.2955 349.481 51.6776C349.481 52.0119 349.867 52.6328 350.339 53.0149C350.81 53.397 351.196 54.0179 351.196 54.4478C351.196 54.8776 351.582 55.4985 352.054 55.8806C352.526 56.2627 352.912 56.8836 352.912 57.3134C352.912 57.7433 353.298 58.3642 353.769 58.7463C354.241 59.1284 354.627 59.7492 354.627 60.1791C354.627 60.609 355.013 61.2298 355.484 61.6119C355.956 61.994 356.342 62.6627 356.342 63.1403C356.342 63.6179 356.556 64 356.771 64C357.028 64 357.2 64.4298 357.2 64.9552C357.2 65.4806 357.414 65.9104 357.629 65.9104C357.886 65.9104 358.057 66.3403 358.057 66.8657C358.057 67.391 358.272 67.8209 358.486 67.8209C358.743 67.8209 358.915 68.2507 358.915 68.7761C358.915 69.3015 359.129 69.7313 359.344 69.7313C359.601 69.7313 359.773 70.1612 359.773 70.6866C359.773 71.2119 359.987 71.6418 360.201 71.6418C360.459 71.6418 360.63 72.0716 360.63 72.597C360.63 73.1224 360.845 73.5522 361.059 73.5522C361.316 73.5522 361.488 73.9821 361.488 74.5075C361.488 75.0328 361.702 75.4627 361.917 75.4627C362.174 75.4627 362.345 75.8925 362.345 76.4179C362.345 76.9433 362.56 77.3731 362.774 77.3731C363.032 77.3731 363.203 78.0418 363.203 78.806C363.203 79.6179 363.417 80.2388 363.632 80.2388C363.889 80.2388 364.061 80.6687 364.061 81.194C364.061 81.7194 364.275 82.1492 364.489 82.1492C364.747 82.1492 364.918 82.8179 364.918 83.5821C364.918 84.394 365.133 85.0149 365.347 85.0149C365.604 85.0149 365.776 85.6836 365.776 86.4478C365.776 87.2597 365.99 87.8806 366.205 87.8806C366.462 87.8806 366.634 88.5492 366.634 89.3134C366.634 90.1254 366.848 90.7463 367.062 90.7463C367.32 90.7463 367.491 91.4149 367.491 92.1791C367.491 92.991 367.706 93.6119 367.92 93.6119C368.177 93.6119 368.349 94.4716 368.349 95.5224C368.349 96.5731 368.563 97.4328 368.778 97.4328C369.035 97.4328 369.206 98.5313 369.206 99.8209C369.206 101.158 369.421 102.209 369.635 102.209C369.892 102.209 370.064 103.307 370.064 104.597C370.064 105.934 370.278 106.985 370.493 106.985C370.75 106.985 370.922 108.561 370.922 110.806C370.922 113.051 371.093 114.627 371.35 114.627C371.608 114.627 371.779 116.394 371.779 118.925C371.779 121.457 371.951 123.224 372.208 123.224C372.465 123.224 372.637 126.806 372.637 132.967C372.637 138.985 372.465 142.854 372.208 143.045C371.994 143.188 371.779 144.478 371.779 145.91C371.779 147.343 371.608 148.633 371.35 148.776C371.136 148.919 370.922 150.113 370.922 151.451C370.922 152.74 370.75 153.791 370.493 153.791C370.278 153.791 370.064 154.46 370.064 155.224C370.064 156.036 369.892 156.657 369.635 156.657C369.421 156.657 369.206 157.325 369.206 158.09C369.206 158.901 369.035 159.522 368.778 159.522C368.563 159.522 368.349 159.952 368.349 160.478C368.349 161.003 368.177 161.433 367.92 161.433C367.706 161.433 367.491 162.101 367.491 162.866C367.491 163.678 367.32 164.298 367.062 164.298C366.848 164.298 366.634 164.681 366.634 165.158C366.634 165.636 366.248 166.304 365.776 166.687C365.304 167.069 364.918 167.69 364.918 168.119C364.918 168.549 364.532 169.17 364.061 169.552C363.589 169.934 363.203 170.555 363.203 170.89C363.203 171.272 362.646 172.179 361.917 172.896C361.231 173.612 360.63 174.472 360.63 174.758C360.63 175.475 354.37 182.448 353.726 182.448C353.469 182.448 352.697 183.116 352.054 183.881C351.411 184.693 350.553 185.313 350.167 185.313C349.781 185.313 349.481 185.552 349.481 185.791C349.481 186.078 349.138 186.269 348.709 186.269C348.28 186.269 347.68 186.698 347.337 187.224C346.994 187.749 346.394 188.179 345.965 188.179C345.536 188.179 345.193 188.418 345.193 188.657C345.193 188.943 344.807 189.134 344.335 189.134C343.864 189.134 343.478 189.373 343.478 189.612C343.478 189.898 342.92 190.09 342.191 190.09C341.505 190.09 340.905 190.328 340.905 190.567C340.905 190.854 340.519 191.045 340.047 191.045C339.576 191.045 339.19 191.284 339.19 191.522C339.19 191.809 338.418 192 337.474 192C336.531 192 335.759 192.239 335.759 192.478C335.759 192.764 334.987 192.955 334.044 192.955C333.101 192.955 332.329 193.194 332.329 193.433C332.329 193.719 329.456 193.91 324.61 193.91C319.765 193.91 316.891 193.719 316.891 193.433C316.891 193.194 315.948 192.955 314.747 192.955C313.59 192.955 312.603 192.764 312.603 192.478C312.603 192.239 312.046 192 311.317 192C310.631 192 310.031 191.809 310.031 191.522C310.031 191.284 309.645 191.045 309.173 191.045C308.701 191.045 308.315 190.854 308.315 190.567C308.315 190.328 307.758 190.09 307.029 190.09C306.343 190.09 305.742 189.898 305.742 189.612C305.742 189.373 305.399 189.134 304.971 189.134C304.542 189.134 303.941 188.704 303.598 188.179C303.255 187.654 302.698 187.224 302.312 187.224C301.926 187.224 301.369 186.794 301.025 186.269C300.682 185.743 300.168 185.313 299.825 185.313C299.525 185.313 297.724 183.594 295.837 181.445C292.406 177.576 292.406 177.576 291.635 178.579C291.206 179.152 290.605 179.582 290.305 179.582C290.048 179.582 289.233 180.251 288.59 181.015C287.947 181.827 287.132 182.448 286.789 182.448C286.489 182.448 285.931 182.878 285.588 183.403C285.245 183.928 284.688 184.358 284.302 184.358C283.916 184.358 283.358 184.788 283.015 185.313C282.672 185.839 282.072 186.269 281.643 186.269C281.214 186.269 280.871 186.507 280.871 186.746C280.871 187.033 280.485 187.224 280.014 187.224C279.542 187.224 279.156 187.463 279.156 187.701C279.156 187.988 278.77 188.179 278.299 188.179C277.827 188.179 277.441 188.418 277.441 188.657C277.441 188.943 277.055 189.134 276.583 189.134C276.112 189.134 275.726 189.373 275.726 189.612C275.726 189.898 275.34 190.09 274.868 190.09C274.396 190.09 274.01 190.328 274.01 190.567C274.01 190.854 273.453 191.045 272.724 191.045C272.038 191.045 271.438 191.284 271.438 191.522C271.438 191.809 270.88 192 270.151 192C269.465 192 268.865 192.239 268.865 192.478C268.865 192.764 268.307 192.955 267.578 192.955C266.892 192.955 266.292 193.146 266.292 193.385C266.292 193.624 264.662 193.672 262.647 193.528C260.417 193.385 258.573 193.481 258.016 193.815C256.772 194.484 243.994 195.009 243.994 194.388C243.994 194.101 243.05 193.91 241.85 193.91C240.692 193.91 239.706 193.719 239.706 193.433C239.706 193.194 239.148 192.955 238.419 192.955C237.733 192.955 237.133 192.764 237.133 192.478C237.133 192.239 236.575 192 235.846 192C235.16 192 234.56 191.809 234.56 191.522C234.56 191.284 234.174 191.045 233.702 191.045C233.231 191.045 232.845 190.854 232.845 190.567C232.845 190.328 232.459 190.09 231.987 190.09C231.515 190.09 231.129 189.898 231.129 189.612C231.129 189.373 230.743 189.134 230.272 189.134C229.8 189.134 229.414 188.943 229.414 188.657C229.414 188.418 229.028 188.179 228.556 188.179C228.085 188.179 227.699 187.988 227.699 187.701C227.699 187.463 227.356 187.224 226.927 187.224C226.498 187.224 225.898 186.794 225.555 186.269C225.212 185.743 224.654 185.313 224.268 185.313C223.882 185.313 223.325 184.884 222.982 184.358C222.639 183.833 222.124 183.403 221.824 183.403C221.095 183.403 210.546 171.654 210.546 170.842C210.546 170.507 210.161 169.934 209.689 169.552C209.217 169.17 208.831 168.549 208.831 168.119C208.831 167.69 208.445 167.069 207.974 166.687C207.502 166.304 207.116 165.636 207.116 165.158C207.116 164.681 206.944 164.298 206.687 164.298C206.473 164.298 206.258 163.869 206.258 163.343C206.258 162.818 206.087 162.388 205.83 162.388C205.615 162.388 205.401 161.958 205.401 161.433C205.401 160.907 205.229 160.478 204.972 160.478C204.757 160.478 204.543 160.048 204.543 159.522C204.543 158.997 204.372 158.567 204.114 158.567C203.9 158.567 203.685 158.137 203.685 157.612C203.685 157.087 203.514 156.657 203.257 156.657C203.042 156.657 202.828 156.036 202.828 155.224C202.828 154.46 202.656 153.791 202.399 153.791C202.185 153.791 201.97 153.17 201.97 152.358C201.97 151.594 201.799 150.925 201.541 150.925C201.327 150.925 201.113 150.066 201.113 149.015C201.113 147.964 200.941 147.104 200.684 147.104C200.469 147.104 200.255 146.054 200.255 144.716C200.255 143.427 200.083 142.328 199.826 142.328C199.569 142.328 199.397 140.179 199.397 136.836C199.397 132.49 199.526 131.343 199.998 131.343C200.427 131.343 200.641 130.293 200.77 127.188C200.984 123.415 200.898 122.89 200.083 121.839C199.44 121.027 199.354 120.645 199.74 120.501C200.041 120.358 200.255 119.355 200.255 117.922C200.255 116.633 200.469 115.582 200.684 115.582C200.941 115.582 201.113 114.722 201.113 113.672C201.113 112.621 201.327 111.761 201.541 111.761C201.799 111.761 201.97 111.14 201.97 110.328C201.97 109.564 202.185 108.896 202.399 108.896C202.656 108.896 202.828 108.275 202.828 107.463C202.828 106.698 203.042 106.03 203.257 106.03C203.514 106.03 203.685 105.6 203.685 105.075C203.685 104.549 203.9 104.119 204.114 104.119C204.372 104.119 204.543 103.69 204.543 103.164C204.543 102.639 204.757 102.209 204.972 102.209C205.229 102.209 205.401 101.779 205.401 101.254C205.401 100.728 205.615 100.299 205.83 100.299C206.087 100.299 206.258 99.9164 206.258 99.4388C206.258 98.9612 206.644 98.2925 207.116 97.9104C207.588 97.5284 207.974 96.9075 207.974 96.4776C207.974 96.0478 208.36 95.4269 208.831 95.0448C209.303 94.6627 209.689 94.0418 209.689 93.7075C209.689 93.3731 210.461 92.2269 211.404 91.2239C212.347 90.2209 213.119 89.1701 213.119 88.8836C213.119 88.1672 217.665 83.1045 218.308 83.1045C218.565 83.1045 219.509 82.2448 220.409 81.194C221.31 80.1433 222.339 79.2836 222.639 79.2836C222.939 79.2836 223.497 78.8537 223.84 78.3284C224.183 77.803 224.783 77.3731 225.212 77.3731C225.641 77.3731 225.984 77.1821 225.984 76.8955C225.984 76.6567 226.37 76.4179 226.841 76.4179C227.313 76.4179 227.699 76.2269 227.699 75.9403C227.699 75.7015 228.085 75.4627 228.556 75.4627C229.028 75.4627 229.414 75.2716 229.414 74.9851C229.414 74.7463 229.8 74.5075 230.272 74.5075C230.743 74.5075 231.129 74.3164 231.129 74.0298C231.129 73.791 231.515 73.5522 231.987 73.5522C232.459 73.5522 232.845 73.3612 232.845 73.0746C232.845 72.8358 233.445 72.597 234.131 72.597C234.86 72.597 235.417 72.406 235.417 72.1194C235.417 71.8806 235.803 71.6418 236.275 71.6418C236.747 71.6418 237.133 71.4507 237.133 71.1642C237.133 70.9254 237.905 70.6866 238.848 70.6866C239.791 70.6866 240.563 70.4955 240.563 70.209C240.563 69.9224 241.721 69.7313 243.136 69.7313C244.551 69.7313 245.709 69.5403 245.709 69.2537C245.709 68.9672 247.853 68.7761 251.283 68.7761C254.714 68.7761 256.858 68.9672 256.858 69.2537C256.858 69.5403 257.844 69.7313 259.002 69.7313C260.203 69.7313 261.146 69.9701 261.146 70.209C261.146 70.4955 261.918 70.6866 262.861 70.6866C263.805 70.6866 264.577 70.9254 264.577 71.1642C264.577 71.4507 265.177 71.6418 265.863 71.6418C266.592 71.6418 267.149 71.8806 267.149 72.1194C267.149 72.406 267.535 72.597 268.007 72.597C268.479 72.597 268.865 72.8358 268.865 73.0746C268.865 73.3612 269.251 73.5522 269.722 73.5522C270.194 73.5522 270.58 73.791 270.58 74.0298C270.58 74.3164 270.966 74.5075 271.438 74.5075C271.909 74.5075 272.295 74.7463 272.295 74.9851C272.295 75.2716 272.681 75.4627 273.153 75.4627C273.624 75.4627 274.01 75.7015 274.01 75.9403C274.01 76.2269 274.396 76.4179 274.868 76.4179C275.34 76.4179 275.726 76.6567 275.726 76.8955C275.726 77.1821 276.069 77.3731 276.498 77.3731C276.926 77.3731 277.527 77.803 277.87 78.3284C278.213 78.8537 278.77 79.2836 279.156 79.2836C279.542 79.2836 280.1 79.7134 280.443 80.2388C281.257 81.4806 282.587 81.4806 282.587 80.2388C282.587 79.7134 282.801 79.2836 283.015 79.2836C283.273 79.2836 283.444 78.9492 283.444 78.5672C283.444 77.6597 286.189 74.5075 286.961 74.5075C287.304 74.5075 287.818 74.0776 288.161 73.5522C288.504 72.9791 289.276 72.597 289.962 72.597C290.605 72.597 291.163 72.406 291.163 72.1194C291.163 71.8328 292.878 71.6418 295.451 71.6418C298.024 71.6418 299.739 71.8328 299.739 72.1194C299.739 72.406 300.339 72.597 301.025 72.597C301.754 72.597 302.312 72.8358 302.312 73.0746C302.312 73.3612 302.612 73.5522 302.955 73.5522C303.813 73.5522 306.6 76.6567 306.6 77.6119C306.6 77.994 306.814 78.3284 307.029 78.3284C307.286 78.3284 307.458 78.7582 307.458 79.2836C307.458 79.8089 307.586 80.2388 307.801 80.2388C307.972 80.2388 308.058 87.594 307.972 96.5731C307.844 111.045 307.929 113.003 308.53 113.481C309.13 113.958 309.173 115.964 309.044 131.391C308.958 140.943 308.744 149.493 308.53 150.304C308.058 152.549 308.573 154.221 309.816 154.555C310.416 154.698 310.888 155.176 310.888 155.51C310.888 156.418 316.291 162.388 317.106 162.388C317.449 162.388 317.749 162.627 317.749 162.866C317.749 163.152 318.135 163.343 318.607 163.343C319.078 163.343 319.464 163.582 319.464 163.821C319.464 164.107 320.236 164.298 321.18 164.298C322.123 164.298 322.895 164.537 322.895 164.776C322.895 165.063 323.881 165.254 325.039 165.254C326.24 165.254 327.183 165.063 327.183 164.776C327.183 164.537 328.169 164.298 329.327 164.298C330.528 164.298 331.471 164.107 331.471 163.821C331.471 163.582 331.857 163.343 332.329 163.343C332.8 163.343 333.186 163.152 333.186 162.866C333.186 162.627 333.572 162.388 334.044 162.388C334.516 162.388 334.902 162.197 334.902 161.91C334.902 161.672 335.202 161.433 335.545 161.433C335.931 161.433 337.646 159.809 339.404 157.851C341.162 155.893 342.62 153.982 342.62 153.552C342.62 153.17 342.835 152.836 343.049 152.836C343.306 152.836 343.478 152.406 343.478 151.881C343.478 151.355 343.692 150.925 343.907 150.925C344.164 150.925 344.335 150.496 344.335 149.97C344.335 149.445 344.55 149.015 344.764 149.015C345.021 149.015 345.193 147.964 345.193 146.627C345.193 145.337 345.407 144.239 345.622 144.239C345.879 144.239 346.051 139.606 346.051 131.343C346.051 123.081 345.879 118.448 345.622 118.448C345.365 118.448 345.193 116.872 345.193 114.627C345.193 112.382 345.021 110.806 344.764 110.806C344.55 110.806 344.335 109.755 344.335 108.418C344.335 107.128 344.164 106.03 343.907 106.03C343.692 106.03 343.478 105.17 343.478 104.119C343.478 103.069 343.306 102.209 343.049 102.209C342.835 102.209 342.62 101.349 342.62 100.299C342.62 99.2478 342.449 98.3881 342.191 98.3881C341.977 98.3881 341.763 97.7672 341.763 96.9552C341.763 96.191 341.591 95.5224 341.334 95.5224C341.119 95.5224 340.905 95.0925 340.905 94.5672C340.905 94.0418 340.733 93.6119 340.476 93.6119C340.262 93.6119 340.047 92.991 340.047 92.1791C340.047 91.4149 339.876 90.7463 339.618 90.7463C339.404 90.7463 339.19 90.3164 339.19 89.791C339.19 89.2657 339.018 88.8358 338.761 88.8358C338.546 88.8358 338.332 88.406 338.332 87.8806C338.332 87.3552 338.161 86.9254 337.903 86.9254C337.689 86.9254 337.474 86.4955 337.474 85.9701C337.474 85.4448 337.303 85.0149 337.046 85.0149C336.831 85.0149 336.617 84.5851 336.617 84.0597C336.617 83.5343 336.445 83.1045 336.188 83.1045C335.974 83.1045 335.759 82.6746 335.759 82.1492C335.759 81.6239 335.588 81.194 335.33 81.194C335.116 81.194 334.902 80.7642 334.902 80.2388C334.902 79.7134 334.73 79.2836 334.473 79.2836C334.258 79.2836 334.044 78.9015 334.044 78.4239C334.044 77.9463 333.658 77.2776 333.186 76.8955C332.715 76.5134 332.329 75.8925 332.329 75.4627C332.329 75.0328 331.943 74.4119 331.471 74.0298C330.999 73.6478 330.613 73.0269 330.613 72.6925C330.613 72.3104 330.056 71.403 329.327 70.6866C328.641 69.9701 328.041 69.1104 328.041 68.8239C328.041 68.1075 314.061 52.5373 313.418 52.5373C313.161 52.5373 312.389 51.9164 311.746 51.1045C311.103 50.3403 310.288 49.6716 309.945 49.6716C309.645 49.6716 309.087 49.2418 308.744 48.7164C308.401 48.191 307.844 47.7612 307.458 47.7612C307.072 47.7612 306.514 47.3313 306.171 46.806C305.828 46.2806 305.228 45.8507 304.799 45.8507C304.37 45.8507 304.027 45.6597 304.027 45.3731C304.027 45.1343 303.641 44.8955 303.17 44.8955C302.698 44.8955 302.312 44.7045 302.312 44.4179C302.312 44.1791 301.926 43.9403 301.454 43.9403C300.983 43.9403 300.597 43.7493 300.597 43.4627C300.597 43.2239 300.211 42.9851 299.739 42.9851C299.267 42.9851 298.881 42.794 298.881 42.5075C298.881 42.2687 298.496 42.0298 298.024 42.0298C297.552 42.0298 297.166 41.8388 297.166 41.5522C297.166 41.3134 296.78 41.0746 296.309 41.0746C295.837 41.0746 295.451 40.8836 295.451 40.597C295.451 40.3582 295.065 40.1194 294.593 40.1194C294.122 40.1194 293.736 39.9284 293.736 39.6418C293.736 39.403 293.35 39.1642 292.878 39.1642C292.406 39.1642 292.02 38.9731 292.02 38.6866C292.02 38.4478 291.463 38.209 290.734 38.209C290.048 38.209 289.448 38.0179 289.448 37.7313C289.448 37.4925 288.89 37.2537 288.161 37.2537C287.475 37.2537 286.875 37.0627 286.875 36.7761C286.875 36.5373 286.317 36.2985 285.588 36.2985C284.902 36.2985 284.302 36.1075 284.302 35.8209C284.302 35.5821 283.744 35.3433 283.015 35.3433C282.329 35.3433 281.729 35.1522 281.729 34.8657C281.729 34.6269 280.786 34.3881 279.585 34.3881C278.427 34.3881 277.441 34.197 277.441 33.9104C277.441 33.6716 276.498 33.4328 275.297 33.4328C274.139 33.4328 273.153 33.2418 273.153 32.9552C273.153 32.6687 271.738 32.4776 269.722 32.4776C267.707 32.4776 266.292 32.2866 266.292 32C266.292 31.7134 262.861 31.5224 256.858 31.5224C250.855 31.5224 247.424 31.7134 247.424 32C247.424 32.2866 246.009 32.4776 243.994 32.4776C241.978 32.4776 240.563 32.6687 240.563 32.9552C240.563 33.2418 239.62 33.4328 238.419 33.4328C237.261 33.4328 236.275 33.6716 236.275 33.9104C236.275 34.197 235.503 34.3881 234.56 34.3881C233.616 34.3881 232.845 34.6269 232.845 34.8657C232.845 35.1522 232.287 35.3433 231.558 35.3433C230.872 35.3433 230.272 35.5821 230.272 35.8209C230.272 36.1075 229.714 36.2985 228.985 36.2985C228.299 36.2985 227.699 36.5373 227.699 36.7761C227.699 37.0627 227.141 37.2537 226.412 37.2537C225.726 37.2537 225.126 37.4925 225.126 37.7313C225.126 38.0179 224.569 38.209 223.84 38.209C223.153 38.209 222.553 38.4478 222.553 38.6866C222.553 38.9731 222.167 39.1642 221.696 39.1642C221.224 39.1642 220.838 39.403 220.838 39.6418C220.838 39.9284 220.452 40.1194 219.98 40.1194C219.509 40.1194 219.123 40.3582 219.123 40.597C219.123 40.8836 217.836 41.0746 216.121 41.0746C213.419 41.0746 213.119 41.1701 213.119 42.0298C213.119 42.5552 212.948 42.9851 212.69 42.9851C212.476 42.9851 212.262 43.4149 212.262 43.9403C212.262 44.5612 211.962 44.8955 211.49 44.8955C211.061 44.8955 210.461 45.3254 210.118 45.8507C209.775 46.3761 209.217 46.806 208.831 46.806C208.445 46.806 207.888 47.2358 207.545 47.7612C207.202 48.2866 206.644 48.7164 206.258 48.7164C205.872 48.7164 205.315 49.1463 204.972 49.6716C204.629 50.197 204.071 50.6269 203.771 50.6269C203.428 50.6269 202.613 51.2955 201.97 52.0597C201.327 52.8716 200.555 53.4925 200.298 53.4925C199.655 53.4925 187.391 67.1522 187.391 67.8687C187.391 68.1552 186.79 69.0149 186.104 69.7313C185.375 70.4478 184.818 71.3552 184.818 71.7373C184.818 72.0716 184.432 72.6925 183.96 73.0746C183.488 73.4567 183.103 74.0776 183.103 74.5075C183.103 74.9373 182.717 75.5582 182.245 75.9403C181.773 76.3224 181.387 76.9433 181.387 77.3731C181.387 77.803 181.001 78.4239 180.53 78.806C180.058 79.1881 179.672 79.8567 179.672 80.3343C179.672 80.8119 179.501 81.194 179.243 81.194C179.029 81.194 178.814 81.6239 178.814 82.1492C178.814 82.6746 178.643 83.1045 178.386 83.1045C178.171 83.1045 177.957 83.5343 177.957 84.0597C177.957 84.5851 177.785 85.0149 177.528 85.0149C177.314 85.0149 177.099 85.4448 177.099 85.9701C177.099 86.4955 176.928 86.9254 176.67 86.9254C176.456 86.9254 176.242 87.3552 176.242 87.8806C176.242 88.406 176.07 88.8358 175.813 88.8358C175.598 88.8358 175.384 89.5045 175.384 90.2687C175.384 91.0806 175.212 91.7015 174.955 91.7015C174.741 91.7015 174.526 92.1313 174.526 92.6567C174.526 93.1821 174.355 93.6119 174.098 93.6119C173.883 93.6119 173.669 94.2806 173.669 95.0448C173.669 95.8567 173.497 96.4776 173.24 96.4776C173.025 96.4776 172.811 97.1463 172.811 97.9104C172.811 98.7224 172.64 99.3433 172.382 99.3433C172.168 99.3433 171.953 100.012 171.953 100.776C171.953 101.588 171.782 102.209 171.525 102.209C171.31 102.209 171.096 103.069 171.096 104.119C171.096 105.17 170.924 106.03 170.667 106.03C170.453 106.03 170.238 106.89 170.238 107.94C170.238 108.991 170.067 109.851 169.809 109.851C169.595 109.851 169.381 110.949 169.381 112.239C169.381 113.576 169.209 114.627 168.952 114.627C168.695 114.627 168.523 116.537 168.523 119.403C168.523 122.269 168.351 124.179 168.094 124.179C167.837 124.179 167.665 126.233 167.665 129.433C167.665 132.633 167.837 134.687 168.094 134.687C168.351 134.687 168.523 136.931 168.523 140.418C168.523 143.904 168.695 146.149 168.952 146.149C169.209 146.149 169.381 147.439 169.381 149.015C169.381 150.591 169.552 151.881 169.809 151.881C170.067 151.881 170.238 152.979 170.238 154.269C170.238 155.606 170.453 156.657 170.667 156.657C170.924 156.657 171.096 157.325 171.096 158.09C171.096 158.901 171.31 159.522 171.525 159.522C171.782 159.522 171.953 160.382 171.953 161.433C171.953 162.484 172.168 163.343 172.382 163.343C172.64 163.343 172.811 164.012 172.811 164.776C172.811 165.588 173.025 166.209 173.24 166.209C173.497 166.209 173.669 166.639 173.669 167.164C173.669 167.69 173.883 168.119 174.098 168.119C174.355 168.119 174.526 168.788 174.526 169.552C174.526 170.364 174.741 170.985 174.955 170.985C175.212 170.985 175.384 171.415 175.384 171.94C175.384 172.466 175.598 172.896 175.813 172.896C176.07 172.896 176.242 173.325 176.242 173.851C176.242 174.376 176.456 174.806 176.67 174.806C176.928 174.806 177.099 175.475 177.099 176.239C177.099 177.051 177.314 177.672 177.528 177.672C177.785 177.672 177.957 178.054 177.957 178.531C177.957 179.009 178.343 179.678 178.814 180.06C179.286 180.442 179.672 181.11 179.672 181.588C179.672 182.066 179.886 182.448 180.101 182.448C180.358 182.448 180.53 182.83 180.53 183.307C180.53 183.785 180.916 184.454 181.387 184.836C181.859 185.218 182.245 185.839 182.245 186.269C182.245 186.698 182.631 187.319 183.103 187.701C183.574 188.084 183.96 188.704 183.96 189.134C183.96 189.564 184.346 190.185 184.818 190.567C185.289 190.949 185.675 191.522 185.675 191.904C185.675 192.239 186.362 193.242 187.176 194.197C188.163 195.296 188.677 196.298 188.677 197.158C188.677 197.922 188.934 199.069 189.235 199.785C189.62 200.788 190.049 201.075 191.121 201.075C192.236 201.075 193.008 201.6 194.895 203.701C196.181 205.134 197.468 206.328 197.725 206.328C197.982 206.328 198.926 207.188 199.826 208.239C200.727 209.29 201.713 210.149 201.97 210.149C202.27 210.149 203.042 210.818 203.685 211.582C204.329 212.394 205.143 213.015 205.486 213.015C205.787 213.015 206.344 213.445 206.687 213.97C207.03 214.496 207.631 214.925 208.059 214.925C208.488 214.925 208.831 215.164 208.831 215.403C208.831 215.69 209.217 215.881 209.689 215.881C210.161 215.881 210.546 216.119 210.546 216.358C210.546 216.645 210.889 216.836 211.318 216.836C211.747 216.836 212.347 217.266 212.69 217.791C213.034 218.316 213.634 218.746 214.063 218.746C214.491 218.746 214.835 218.985 214.835 219.224C214.835 219.51 215.22 219.701 215.692 219.701C216.164 219.701 216.55 219.94 216.55 220.179C216.55 220.466 216.936 220.657 217.407 220.657C217.879 220.657 218.265 220.896 218.265 221.134C218.265 221.421 218.865 221.612 219.551 221.612C220.28 221.612 220.838 221.851 220.838 222.09C220.838 222.376 221.224 222.567 221.696 222.567C222.167 222.567 222.553 222.806 222.553 223.045C222.553 223.331 223.153 223.522 223.84 223.522C224.569 223.522 225.126 223.761 225.126 224C225.126 224.287 225.726 224.478 226.412 224.478C227.141 224.478 227.699 224.716 227.699 224.955C227.699 225.242 228.299 225.433 228.985 225.433C229.714 225.433 230.272 225.672 230.272 225.91C230.272 226.197 230.872 226.388 231.558 226.388C232.287 226.388 232.845 226.627 232.845 226.866C232.845 227.152 233.616 227.343 234.56 227.343C235.503 227.343 236.275 227.582 236.275 227.821C236.275 228.107 237.261 228.298 238.419 228.298C239.62 228.298 240.563 228.49 240.563 228.728C240.563 228.967 240.992 229.254 241.507 229.349C242.064 229.445 242.75 230.066 243.05 230.83C243.522 231.928 243.865 232.119 245.452 232.119C246.438 232.119 247.467 232.358 247.767 232.693C248.153 233.122 248.453 233.027 249.139 232.358C249.611 231.881 249.997 231.212 249.997 230.83C249.997 230.352 251.412 230.209 256.858 230.209C261.146 230.209 263.719 230.018 263.719 229.731C263.719 229.445 265.005 229.254 266.721 229.254C268.436 229.254 269.722 229.063 269.722 228.776C269.722 228.537 270.709 228.298 271.866 228.298C273.067 228.298 274.01 228.107 274.01 227.821C274.01 227.582 274.997 227.343 276.154 227.343C277.355 227.343 278.299 227.152 278.299 226.866C278.299 226.627 279.07 226.388 280.014 226.388C280.957 226.388 281.729 226.197 281.729 225.91C281.729 225.672 282.329 225.433 283.015 225.433C283.744 225.433 284.302 225.242 284.302 224.955C284.302 224.716 284.902 224.478 285.588 224.478C286.317 224.478 286.875 224.287 286.875 224C286.875 223.761 287.261 223.522 287.732 223.522C288.204 223.522 288.59 223.331 288.59 223.045C288.59 222.806 288.976 222.567 289.448 222.567C289.919 222.567 290.305 222.376 290.305 222.09C290.305 221.851 290.691 221.612 291.163 221.612C291.635 221.612 292.02 221.421 292.02 221.134C292.02 220.896 292.406 220.657 292.878 220.657C293.35 220.657 293.736 220.466 293.736 220.179C293.736 219.94 294.122 219.701 294.593 219.701C295.065 219.701 295.451 219.51 295.451 219.224C295.451 218.985 295.837 218.746 296.309 218.746C296.78 218.746 297.166 218.555 297.166 218.269C297.166 218.03 297.552 217.791 298.024 217.791C298.496 217.791 298.881 217.6 298.881 217.313C298.881 217.075 299.482 216.836 300.168 216.836C300.897 216.836 301.454 216.645 301.454 216.358C301.454 216.119 302.441 215.881 303.598 215.881C304.799 215.881 305.742 215.69 305.742 215.403C305.742 215.116 307.029 214.925 308.744 214.925C310.459 214.925 311.746 215.116 311.746 215.403C311.746 215.69 312.346 215.881 313.032 215.881C313.761 215.881 314.319 216.119 314.319 216.358C314.319 216.645 314.619 216.836 314.962 216.836C315.819 216.836 319.464 220.896 319.464 221.851C319.464 222.233 319.679 222.567 319.893 222.567C320.15 222.567 320.322 222.997 320.322 223.522C320.322 224.048 320.536 224.478 320.751 224.478C321.008 224.478 321.18 225.767 321.18 227.343C321.18 228.919 321.008 230.209 320.751 230.209C320.536 230.209 320.322 230.878 320.322 231.642C320.322 232.454 320.15 233.075 319.893 233.075C319.679 233.075 319.464 233.504 319.464 234.03C319.464 234.555 319.293 234.985 319.036 234.985C318.821 234.985 318.607 235.319 318.607 235.701C318.607 236.609 312.432 243.582 311.617 243.582C311.317 243.582 310.802 244.012 310.459 244.537C310.116 245.063 309.559 245.493 309.173 245.493C308.787 245.493 308.23 245.922 307.886 246.448C307.543 246.973 306.943 247.403 306.514 247.403C306.085 247.403 305.742 247.642 305.742 247.881C305.742 248.167 305.356 248.358 304.885 248.358C304.413 248.358 304.027 248.597 304.027 248.836C304.027 249.122 303.641 249.313 303.17 249.313C302.698 249.313 302.312 249.552 302.312 249.791C302.312 250.078 301.926 250.269 301.454 250.269C300.983 250.269 300.597 250.507 300.597 250.746C300.597 251.033 300.211 251.224 299.739 251.224C299.267 251.224 298.881 251.463 298.881 251.701C298.881 251.988 298.496 252.179 298.024 252.179C297.552 252.179 297.166 252.418 297.166 252.657C297.166 252.943 296.609 253.134 295.88 253.134C295.194 253.134 294.593 253.373 294.593 253.612C294.593 253.898 294.207 254.09 293.736 254.09C293.264 254.09 292.878 254.328 292.878 254.567C292.878 254.854 292.321 255.045 291.592 255.045C290.906 255.045 290.305 255.284 290.305 255.522C290.305 255.809 289.533 256 288.59 256C287.647 256 286.875 256.239 286.875 256.478C286.875 256.764 286.103 256.955 285.16 256.955C284.216 256.955 283.444 257.194 283.444 257.433C283.444 257.719 282.672 257.91 281.729 257.91C280.786 257.91 280.014 258.149 280.014 258.388C280.014 258.675 278.599 258.866 276.583 258.866C274.568 258.866 273.153 259.057 273.153 259.343C273.153 259.63 271.095 259.821 267.793 259.821C263.333 259.821 262.433 259.916 262.433 260.537C262.433 261.11 261.661 261.254 257.93 261.254C254.285 261.254 253.342 261.11 253.17 260.537ZM257.716 163.821C257.716 163.582 258.487 163.343 259.431 163.343C260.374 163.343 261.146 163.152 261.146 162.866C261.146 162.627 261.746 162.388 262.433 162.388C263.162 162.388 263.719 162.197 263.719 161.91C263.719 161.672 264.105 161.433 264.577 161.433C265.048 161.433 265.434 161.242 265.434 160.955C265.434 160.716 265.777 160.478 266.206 160.478C266.635 160.478 267.235 160.048 267.578 159.522C267.921 158.997 268.436 158.567 268.736 158.567C269.465 158.567 275.726 151.594 275.726 150.782C275.726 150.448 276.112 149.875 276.583 149.493C277.055 149.11 277.441 148.442 277.441 147.964C277.441 147.487 277.655 147.104 277.87 147.104C278.127 147.104 278.299 146.675 278.299 146.149C278.299 145.624 278.513 145.194 278.727 145.194C278.985 145.194 279.156 144.573 279.156 143.761C279.156 142.997 279.371 142.328 279.585 142.328C279.842 142.328 280.014 141.707 280.014 140.896C280.014 140.131 280.228 139.463 280.443 139.463C280.7 139.463 280.871 136.74 280.871 132.298C280.871 127.857 280.7 125.134 280.443 125.134C280.228 125.134 280.014 124.275 280.014 123.224C280.014 122.173 279.842 121.313 279.585 121.313C279.371 121.313 279.156 120.693 279.156 119.881C279.156 119.116 278.985 118.448 278.727 118.448C278.513 118.448 278.299 118.066 278.299 117.588C278.299 117.11 277.913 116.442 277.441 116.06C276.969 115.678 276.583 115.104 276.583 114.77C276.583 113.958 269.465 106.03 268.736 106.03C268.436 106.03 267.921 105.6 267.578 105.075C267.235 104.549 266.635 104.119 266.206 104.119C265.777 104.119 265.434 103.928 265.434 103.642C265.434 103.403 265.048 103.164 264.577 103.164C264.105 103.164 263.719 102.973 263.719 102.687C263.719 102.448 263.333 102.209 262.861 102.209C262.39 102.209 262.004 102.018 262.004 101.731C262.004 101.493 261.446 101.254 260.717 101.254C260.031 101.254 259.431 101.063 259.431 100.776C259.431 100.49 257.158 100.299 253.428 100.299C249.697 100.299 247.424 100.49 247.424 100.776C247.424 101.063 246.867 101.254 246.138 101.254C245.452 101.254 244.851 101.493 244.851 101.731C244.851 102.018 244.294 102.209 243.565 102.209C242.879 102.209 242.278 102.448 242.278 102.687C242.278 102.973 241.893 103.164 241.421 103.164C240.949 103.164 240.563 103.403 240.563 103.642C240.563 103.928 240.263 104.119 239.877 104.119C239.491 104.119 238.634 104.788 237.99 105.552C237.347 106.364 236.575 106.985 236.318 106.985C235.632 106.985 231.987 111.14 231.987 111.904C231.987 112.239 231.601 112.812 231.129 113.194C230.658 113.576 230.272 114.245 230.272 114.722C230.272 115.2 230.1 115.582 229.843 115.582C229.629 115.582 229.414 116.012 229.414 116.537C229.414 117.063 229.243 117.493 228.985 117.493C228.771 117.493 228.556 117.922 228.556 118.448C228.556 118.973 228.385 119.403 228.128 119.403C227.913 119.403 227.699 120.072 227.699 120.836C227.699 121.648 227.527 122.269 227.27 122.269C227.056 122.269 226.841 122.985 226.841 123.893C226.841 124.752 226.541 125.755 226.198 126.09C225.855 126.424 225.555 127.379 225.555 128.287C225.555 129.146 225.383 130.006 225.126 130.149C224.912 130.293 224.697 131.487 224.697 132.776C224.697 134.257 224.354 135.785 223.797 136.884L222.939 138.651L224.311 140.227C225.04 141.087 226.112 141.898 226.67 142.042C227.484 142.281 227.699 142.663 227.699 143.761C227.699 144.573 227.913 145.194 228.128 145.194C228.385 145.194 228.556 145.624 228.556 146.149C228.556 146.675 228.771 147.104 228.985 147.104C229.243 147.104 229.414 147.487 229.414 147.964C229.414 148.442 229.8 149.11 230.272 149.493C230.743 149.875 231.129 150.448 231.129 150.782C231.129 151.116 232.673 153.122 234.517 155.224C236.404 157.325 238.076 159.475 238.205 160C238.333 160.525 238.977 161.051 239.62 161.194C240.263 161.385 242.236 162.006 244.037 162.627C245.838 163.248 247.724 163.63 248.239 163.487C248.753 163.343 249.139 163.439 249.139 163.773C249.139 164.107 250.554 164.298 253.428 164.298C256 164.298 257.716 164.107 257.716 163.821Z" fill="#6B4EE6"/>
<path d="M510.757 338.532C510.757 276.06 510.843 224.956 511.057 224.956C511.314 224.956 511.443 231.547 511.486 248.741C511.486 250.317 511.486 283.559 511.443 288C511.443 289.099 511.486 359.833 511.486 362.03C511.486 362.842 511.486 371.439 511.529 381.135C511.529 390.878 511.529 400.478 511.529 402.532C511.529 404.538 511.443 412.753 511.314 420.776C511.186 430.95 511.271 435.63 511.572 436.347C511.872 436.968 512 438.973 511.829 441.839C511.014 459.368 510.843 443.129 510.757 338.532Z" fill="#F6E9EA"/>
<path d="M1.71526 437.302C1.71526 435.582 1.54374 434.054 1.28645 433.91C1.07205 433.767 0.857643 432.478 0.857643 431.045C0.857643 429.612 0.643238 428.322 0.428833 428.179C-0.128621 427.797 -0.128621 422.352 0.428833 421.97C0.686119 421.827 0.857643 419.916 0.857643 417.719C0.857643 415.57 1.07205 413.564 1.28645 413.325C1.58662 412.991 1.67238 401.815 1.54374 379.893C1.28645 339.916 1.28645 347.319 1.54374 318.376C1.67238 302.185 1.58662 293.875 1.28645 293.54C0.729 292.919 0.729 279.069 1.28645 278.687C1.54374 278.543 1.71526 277.636 1.71526 276.728C1.71526 275.582 1.92967 275.104 2.35848 275.104C2.91593 275.104 3.0017 284.609 3.0017 357.731C3.0017 430.854 2.91593 440.358 2.35848 440.358C1.84391 440.358 1.71526 439.69 1.71526 437.302Z" fill="#F6E9EA"/>
<path d="M1.50106 265.934C1.37241 262.448 1.28665 257.767 1.37241 255.522C1.45817 252.131 1.6297 251.463 2.27292 251.319C2.95901 251.176 3.00189 251.893 3.00189 261.684C3.00189 270.424 2.91613 272.239 2.40156 272.239C1.92987 272.239 1.75834 270.854 1.50106 265.934Z" fill="#F6E9EA"/>
<path d="M1.58635 234.651C1.07177 233.648 0.814487 226.77 1.28618 226.149C1.62923 225.72 1.71499 224.048 1.54347 220.8C1.2433 215.546 1.2433 216.645 1.54347 198.114C1.71499 186.412 1.84363 184.358 2.35821 184.358C2.91566 184.358 3.00142 187.702 3.00142 209.672C3.00142 231.403 2.91566 234.985 2.40109 234.985C2.05804 234.985 1.67211 234.842 1.58635 234.651Z" fill="#F6E9EA"/>
<path d="M510.885 192C510.885 188.991 510.928 187.749 511.013 189.278C511.099 190.758 511.099 193.242 511.013 194.77C510.928 196.251 510.885 195.009 510.885 192Z" fill="#F6E9EA"/>
<path d="M246.823 234.268C246.137 233.838 245.194 233.552 244.679 233.6C242.792 233.791 242.321 233.504 241.463 231.641C240.948 230.591 240.562 229.588 240.562 229.492C240.562 229.349 242.106 229.253 243.993 229.253C246.008 229.253 247.423 229.444 247.423 229.731C247.423 230.018 250.254 230.256 254.842 230.304C261.66 230.4 261.789 230.447 256.772 230.543C251.369 230.734 251.283 230.734 251.283 231.833C251.283 234.03 248.796 235.367 246.823 234.268Z" fill="#6B4EE6"/>
<path d="M195.967 207.713C195.967 206.471 191.979 202.507 190.735 202.507C190.092 202.507 189.449 202.746 189.32 202.985C188.891 203.797 188.248 203.51 188.248 202.507C188.248 201.982 187.862 200.835 187.39 199.88C186.661 198.495 186.618 198.018 187.047 197.253C187.476 196.489 187.476 196.107 187.047 195.343C186.747 194.818 186.704 194.388 186.919 194.388C187.476 194.388 189.963 197.062 189.963 197.683C189.963 198.543 197.167 206.328 197.982 206.376C198.582 206.376 198.625 206.471 198.111 206.662C197.768 206.806 197.124 207.235 196.738 207.665C196.095 208.286 195.967 208.286 195.967 207.713Z" fill="#6B4EE6"/>
<path d="M245.709 194.531C245.709 193.29 246.953 192.955 251.541 192.955C254.328 192.955 256.472 192.764 256.644 192.478C256.772 192.239 257.33 192 257.887 192C258.402 192 259.045 191.761 259.345 191.427C259.731 190.997 260.074 190.997 260.803 191.427C261.361 191.713 262.733 192.048 263.933 192.096C265.52 192.191 266.12 192.43 266.206 193.051C266.335 193.719 265.82 193.863 262.776 194.102C254.371 194.722 245.709 194.961 245.709 194.531Z" fill="#6B4EE6"/>
<path d="M243.136 164.298C241.12 163.534 238.976 162.818 238.376 162.674C237.604 162.483 237.046 161.815 236.446 160.43C236.017 159.331 234.731 157.373 233.616 156.083C232.458 154.794 231.558 153.504 231.558 153.265C231.558 152.262 232.587 152.979 234.988 155.701C236.36 157.277 237.775 158.567 238.076 158.567C238.419 158.567 238.933 158.997 239.276 159.522C239.619 160.048 240.22 160.477 240.648 160.477C241.077 160.477 241.42 160.716 241.42 160.955C241.42 161.242 241.806 161.433 242.278 161.433C242.75 161.433 243.136 161.671 243.136 161.91C243.136 162.197 243.736 162.388 244.422 162.388C245.151 162.388 245.708 162.627 245.708 162.865C245.708 163.152 246.48 163.343 247.424 163.343C248.367 163.343 249.139 163.582 249.139 163.821C249.139 164.107 250.64 164.346 252.698 164.394L256.214 164.442L252.569 164.824C250.554 164.967 248.453 165.253 247.852 165.397C247.252 165.54 245.237 165.062 243.136 164.298Z" fill="#6B4EE6"/>
<path d="M307.672 155.415C307.114 154.746 307.029 153.982 307.2 151.212C307.629 144.668 307.929 142.806 308.572 142.806C309.044 142.806 309.173 143.57 309.173 145.91C309.173 147.677 309.344 149.015 309.602 149.015C309.859 149.015 310.03 150.113 310.03 151.403C310.03 152.74 310.245 153.791 310.459 153.791C310.716 153.791 310.888 154.316 310.888 154.985C310.888 155.988 310.674 156.179 309.644 156.179C308.958 156.179 308.058 155.844 307.672 155.415Z" fill="#6B4EE6"/>
<path d="M369.936 153.457C369.464 152.979 369.593 147.678 370.064 147.343C370.322 147.2 370.493 145.91 370.493 144.478C370.493 143.045 370.707 141.755 370.965 141.564C371.265 141.373 371.394 138.985 371.308 134.257C371.136 127.952 371.222 127.284 371.908 127.14C372.594 126.997 372.637 127.666 372.637 136.072C372.637 141.851 372.466 145.194 372.208 145.194C371.994 145.194 371.779 146.293 371.779 147.582C371.779 148.919 371.608 149.97 371.351 149.97C371.136 149.97 370.922 150.83 370.922 151.881C370.922 153.696 370.579 154.221 369.936 153.457Z" fill="#6B4EE6"/>
<path d="M225.512 143.427C224.911 143.331 223.453 142.185 222.338 140.895L220.237 138.507L221.309 137.218C222.982 135.068 223.411 133.874 223.411 131.391C223.411 130.053 223.625 128.859 223.839 128.716C224.097 128.573 224.268 127.713 224.268 126.853C224.268 125.325 225.34 123.701 226.326 123.701C226.627 123.701 226.841 124.227 226.841 124.895C226.841 125.564 226.669 126.089 226.412 126.089C226.155 126.089 225.983 128.334 225.983 131.821C225.983 135.307 226.155 137.552 226.412 137.552C226.669 137.552 226.841 138.65 226.841 139.94C226.841 141.277 227.055 142.328 227.27 142.328C227.527 142.328 227.699 142.662 227.699 143.044C227.699 143.761 227.57 143.761 225.512 143.427Z" fill="#6B4EE6"/>
<path d="M281 131.821C281 127.761 281.086 125.277 281.172 126.328C281.257 127.379 281.472 128.573 281.6 128.955C282.072 130.292 282.201 134.4 281.772 135.403C281.515 135.928 281.257 137.027 281.172 137.791C281.086 138.603 281 135.88 281 131.821Z" fill="#6B4EE6"/>
<path d="M199.397 127.14C199.397 122.937 199.569 120.358 199.826 120.358C200.084 120.358 200.298 119.642 200.298 118.83C200.384 117.445 200.384 117.397 200.555 118.495C200.641 119.212 201.113 120.167 201.584 120.645C202.013 121.074 202.399 121.695 202.399 121.934C202.399 122.221 202.699 122.842 203.128 123.319C203.771 124.131 203.771 124.274 202.914 125.277C201.885 126.519 201.67 128.907 202.485 130.34C203.171 131.534 202.614 132.776 201.413 132.776C200.855 132.776 200.212 133.015 199.912 133.349C199.526 133.779 199.397 132.394 199.397 127.14Z" fill="#6B4EE6"/>
<path d="M141.937 115.104C141.937 113.194 142.108 111.761 142.365 111.761C142.623 111.761 142.794 111.331 142.794 110.806C142.794 109.564 143.051 109.612 144.295 111.045C145.667 112.525 145.882 116.537 144.595 116.537C144.166 116.537 143.566 116.967 143.223 117.492C142.194 119.069 141.937 118.591 141.937 115.104Z" fill="#6B4EE6"/>
<path d="M308.315 115.868C308.315 115.534 307.929 115.104 307.458 114.961C306.6 114.722 306.6 114.388 306.686 97.6237C306.814 81.7192 306.857 80.4774 307.586 80.3341C308.187 80.1908 308.315 80.5252 308.315 82.5789C308.315 83.9162 308.53 85.0147 308.744 85.0147C309.001 85.0147 309.173 90.6028 309.173 100.776C309.173 110.949 309.001 116.537 308.744 116.537C308.53 116.537 308.315 116.251 308.315 115.868Z" fill="#6B4EE6"/>
<path d="M344.335 511.713C344.335 511.57 344.635 511.092 345.021 510.71C345.621 510.042 347.465 509.946 360.287 510.042C371.179 510.137 374.995 509.994 375.467 509.564C375.938 509.134 376.238 509.134 376.582 509.516C376.967 509.946 384.086 510.089 403.597 510.089C420.963 510.089 430.097 510.233 430.097 510.567C430.097 510.854 430.397 511.045 430.74 511.045C431.083 511.045 431.384 511.283 431.384 511.522C431.384 511.857 416.59 512 387.859 512C363.932 512 344.335 511.857 344.335 511.713Z" fill="#FF9C40"/>
<path d="M49.0132 510.472C49.2705 509.564 132.546 509.564 132.846 510.472C132.974 510.901 124.398 511.045 90.9081 511.045C57.4179 511.045 48.8417 510.901 49.0132 510.472Z" fill="#FF9C40"/>
<path d="M344.335 511.523C344.335 511.188 364.189 511.045 403.082 511.045C441.975 511.045 461.829 511.188 461.829 511.523C461.829 511.857 441.975 512 403.082 512C364.189 512 344.335 511.857 344.335 511.523Z" fill="#EFD8BE"/>
<path d="M255.571 262.734C255.228 262.257 254.499 261.636 253.984 261.301C252.055 260.203 252.998 259.821 257.715 259.821H262.432V261.254C262.432 262.925 262.303 262.973 258.787 263.355C256.643 263.546 256.085 263.451 255.571 262.734Z" fill="#EFD8BE"/>
<path d="M157.545 200.406C155.744 199.307 155.229 198.543 155.229 196.967C155.229 196.107 155.058 195.248 154.8 195.104C154.114 194.627 154.286 192 155.015 192C155.358 192 155.658 192.43 155.658 192.955C155.658 193.481 155.872 193.91 156.087 193.91C156.344 193.91 156.516 194.34 156.516 194.866C156.516 195.391 156.73 195.821 156.944 195.821C157.202 195.821 157.373 196.203 157.373 196.681C157.373 197.158 157.759 197.827 158.231 198.209C158.703 198.591 159.089 199.26 159.089 199.69C159.089 200.167 159.346 200.645 159.646 200.74C159.903 200.884 159.775 200.979 159.303 200.979C158.831 200.979 158.016 200.74 157.545 200.406Z" fill="#EFD8BE"/>
<path d="M246.566 194.388C246.566 194.102 248.41 193.911 251.24 193.911C253.942 193.911 256.043 193.719 256.215 193.433C256.343 193.194 256.901 192.955 257.372 192.955C257.887 192.955 258.659 192.573 259.088 192.143C259.688 191.522 259.988 191.475 260.374 191.905C260.674 192.239 262.089 192.478 263.59 192.478C265.691 192.478 266.292 192.621 266.292 193.194C266.292 193.719 265.777 193.911 264.148 193.911C262.99 193.911 262.004 194.149 262.004 194.388C262.004 194.675 259.131 194.866 254.285 194.866C249.439 194.866 246.566 194.675 246.566 194.388Z" fill="#6B4EE6"/>
<path d="M370.535 149.54C369.806 149.015 370.235 147.582 371.136 147.582C371.522 147.582 371.779 148.012 371.779 148.776C371.779 150.066 371.522 150.209 370.535 149.54Z" fill="#6B4EE6"/>
<path d="M371.479 144.86C371.179 144.764 370.922 144.096 370.922 143.475C370.922 142.663 371.179 142.329 371.779 142.329C372.466 142.329 372.637 142.663 372.637 143.761C372.637 145.194 372.466 145.338 371.479 144.86Z" fill="#6B4EE6"/>
<path d="M280.871 133.254C280.871 132.06 281.043 131.391 281.3 131.582C281.557 131.725 281.729 132.49 281.729 133.254C281.729 134.018 281.557 134.782 281.3 134.925C281.043 135.116 280.871 134.448 280.871 133.254Z" fill="#6B4EE6"/>
<path d="M265.305 401.862C264.748 401.242 265.52 400.716 266.935 400.716C267.749 400.716 268.521 400.525 268.65 400.239C268.779 400 269.551 399.761 270.365 399.761C271.18 399.761 271.952 399.57 272.08 399.283C272.209 399.045 272.809 398.806 273.367 398.806C273.924 398.806 274.525 398.615 274.653 398.328C274.782 398.089 275.297 397.851 275.725 397.851C276.197 397.851 277.226 397.421 278.084 396.895C279.756 395.845 280.7 395.701 281.043 396.37C281.557 397.277 280.742 398.328 279.542 398.328C278.856 398.328 278.298 398.567 278.298 398.806C278.298 399.092 277.741 399.283 277.012 399.283C276.326 399.283 275.725 399.522 275.725 399.761C275.725 400.048 275.168 400.239 274.439 400.239C273.753 400.239 273.153 400.477 273.153 400.716C273.153 401.003 272.595 401.194 271.866 401.194C271.18 401.194 270.58 401.433 270.58 401.671C270.58 402.197 265.734 402.34 265.305 401.862Z" fill="#FFEBD3"/>
</g>
<defs>
<clipPath id="clip0_2855_7234">
<rect width="512" height="512" fill="white"/>
</clipPath>
</defs>
</svg>
