<svg width="413" height="262" viewBox="0 0 413 262" fill="none" xmlns="http://www.w3.org/2000/svg">
<g clip-path="url(#clip0_4_2504)">
<mask id="mask0_4_2504" style="mask-type:luminance" maskUnits="userSpaceOnUse" x="0" y="0" width="466" height="262">
<path d="M466 0H0V262H466V0Z" fill="white"/>
</mask>
<g mask="url(#mask0_4_2504)">
<mask id="mask1_4_2504" style="mask-type:luminance" maskUnits="userSpaceOnUse" x="0" y="56" width="456" height="207">
<path d="M0.970947 56.2815H455.806V262.485H0.970947V56.2815Z" fill="white"/>
</mask>
<g mask="url(#mask1_4_2504)">
<path d="M443.589 244.955C443.589 247.912 349.672 250.309 233.82 250.309C117.966 250.309 24.0488 247.912 24.0488 244.955C24.0488 241.998 117.966 239.603 233.82 239.603C349.672 239.603 443.589 241.998 443.589 244.955Z" fill="#EDF1F4"/>
<path d="M317.481 108.819H366.799C365.652 105.279 361.606 103.437 358.13 104.816C356.316 102.269 354.037 99.5026 350.884 98.7387C348.426 98.1435 346.515 99.1069 344.393 96.8745C343.223 95.6431 342.456 94.4219 340.86 93.6295C334.763 90.6023 328.659 94.8632 327.002 100.768C325.637 99.246 323.362 98.7888 321.323 99.6519C318.014 101.053 317.365 105.026 317.574 108.249C317.454 108.405 317.426 108.623 317.481 108.819Z" fill="#E4F3F7"/>
<path d="M412.81 147.069C412.964 145.998 413.008 144.837 412.853 144.596C411.805 142.956 410.941 142.872 409.531 141.721C407.858 140.355 407.471 138.526 406.049 136.861C403.147 133.463 398.77 132.781 394.654 134.251C392.766 134.923 391.123 136.007 389.6 137.296C387.67 138.933 386.031 142.052 383.422 141.963C378.738 141.802 375.339 141.576 371.288 144.288C371.146 144.288 370.996 144.315 370.84 144.411C369.858 145.019 369.423 146.053 369.97 147.069H412.81Z" fill="#E4F3F7"/>
<path d="M76.3585 219.115C76.2045 217.193 76.1828 215.23 75.9296 213.317C75.8098 212.402 75.5497 211.462 74.7991 210.861C73.7907 210.057 72.3021 210.237 71.11 210.253L65.0208 210.334C64.9387 210.305 64.844 210.305 64.7641 210.337C64.7082 210.338 64.6524 210.339 64.5953 210.339C64.1915 210.345 64.1869 210.965 64.5862 210.971C64.7664 222.533 63.6097 233.134 61.4207 244.489C61.3842 244.681 61.5074 244.874 61.7252 244.889C67.9057 245.315 73.2569 245.315 79.1556 244.657C79.3757 244.633 79.4967 244.472 79.4602 244.256C78.0753 235.922 77.0327 227.538 76.3585 219.115Z" fill="#855E4F"/>
<path d="M88.1538 124.924C87.1123 121.353 83.7791 118.225 81.5353 115.377C78.6857 111.766 76.5856 107.741 74.6932 103.566C72.584 98.9166 70.6094 94.2065 68.734 89.4576C68.6735 89.306 68.5195 89.1749 68.3439 89.2353C67.9754 89.3619 67.8842 89.3881 67.7575 89.6127C67.6172 89.6321 67.4872 89.7267 67.4849 89.9103C67.429 95.7355 64.3285 100.787 61.3626 105.594C58.4617 110.298 55.7457 115.933 51.1519 119.21C49.3119 120.521 46.8765 121.39 45.2726 122.978C44.1057 124.134 44.5905 125.242 45.738 126.198C48.2841 128.32 52.0212 128.356 54.7167 126.566C55.1023 128.259 56.4575 129.541 58.2016 129.908C60.3713 130.366 62.4315 129.274 63.9623 127.809C65.1761 131.195 69.95 131.176 71.1227 127.8C72.2201 129.202 73.6448 130.633 75.5635 130.3C77.2895 130.001 77.9442 128.369 78.2773 126.822C79.1272 128.105 80.2017 129.362 81.8398 129.468C83.0764 129.549 84.1179 128.812 84.3894 127.69C86.2305 129.116 88.877 127.398 88.1538 124.924Z" fill="#AFC737"/>
<path d="M118.172 209.627C114.753 207.035 112.041 204.202 109.707 201.086C107.587 198.255 105.739 195.33 103.621 192.498C101.863 190.149 99.9956 187.429 96.7719 185.876C93.0907 184.102 88.0384 183.483 83.7219 182.929C79.2788 182.357 74.7592 182.069 70.2396 182.068C59.5476 182.067 49.0129 183.692 39.2745 186.751C38.5479 186.979 39.1776 187.722 39.8997 187.495C40.1038 187.431 40.3137 187.378 40.5191 187.315C40.4883 187.404 40.4575 187.493 40.4255 187.582C40.3525 187.631 40.2932 187.691 40.2647 187.778C37.3558 196.438 28.4741 202.978 20.4902 209.585C18.8133 210.973 17.1592 212.373 15.5793 213.815C14.572 214.737 12.78 216.033 13.6241 217.308C14.3758 218.445 17.0178 218.682 18.5292 218.798C20.773 218.971 22.8971 218.717 24.9629 218.175C24.9527 219.736 23.3568 221.197 26.1858 222.057C28.7376 222.833 31.7526 222.398 34.1173 221.489C34.9854 222.873 36.8436 223.708 39.0886 223.855C42.1058 224.053 44.7284 222.824 47.0201 221.56C47.3863 224.025 50.8507 225.869 54.4554 225.816C58.7662 225.751 61.7389 223.268 63.2492 220.646C64.6888 223.239 68.1156 225.444 72.3397 225.139C76.1304 224.866 79.0198 222.618 79.1419 220.086C83.123 222.533 88.0441 225.204 93.5584 224.765C97.1768 224.476 96.716 222.516 95.3996 220.79C97.9867 221.911 100.775 222.78 103.746 223.326C106.148 223.766 110.818 224.743 113.049 223.559C115.069 222.489 114.4 220.595 113.154 219.359C112.072 218.288 110.616 217.412 109.489 216.359C108.515 215.449 107.682 214.484 106.933 213.484C109.694 214.743 112.724 215.66 116.008 216.099C117.777 216.335 122.499 217.215 123.236 215.518C124.063 213.617 119.743 210.819 118.172 209.627Z" fill="#AFC737"/>
<path d="M24.963 216.288C22.8971 216.83 20.7731 217.083 18.5293 216.912C17.1056 216.802 14.701 216.575 13.7952 215.601C13.4131 216.149 13.2431 216.73 13.6253 217.308C14.377 218.445 17.0178 218.682 18.5293 218.798C20.6202 218.96 22.6051 218.738 24.5386 218.27C24.6402 217.659 24.9573 216.983 24.963 216.288Z" fill="#C4D647"/>
<path d="M93.5586 222.876C88.0443 223.315 83.1232 220.646 79.142 218.199C79.02 220.731 76.1305 222.978 72.3399 223.25C68.1157 223.556 64.689 221.352 63.2494 218.758C61.7391 221.38 58.7663 223.863 54.4555 223.928C50.8508 223.981 47.3853 222.138 47.0191 219.672C44.7274 220.937 42.106 222.165 39.0887 221.966C36.8438 221.819 34.9855 220.985 34.1175 219.599C31.7527 220.508 28.7378 220.945 26.186 220.168C25.416 219.934 24.9814 219.654 24.7452 219.342C24.427 220.442 24.079 221.415 26.186 222.055C28.7378 222.832 31.7527 222.396 34.1175 221.488C34.9855 222.872 36.8438 223.708 39.0887 223.855C42.106 224.053 44.7274 222.824 47.0191 221.559C47.3853 224.025 50.8508 225.868 54.4555 225.815C58.7663 225.75 61.7391 223.267 63.2494 220.646C64.689 223.239 68.1157 225.444 72.3399 225.138C76.1305 224.866 79.02 222.618 79.142 220.086C83.1232 222.533 88.0443 225.202 93.5586 224.763C96.3956 224.538 96.7207 223.282 96.0944 221.921C95.7237 222.412 94.94 222.766 93.5586 222.876Z" fill="#C4D647"/>
<path d="M39.6281 187.537C39.7707 187.207 39.8916 186.87 40.0183 186.534C39.7707 186.609 39.5198 186.674 39.2745 186.751C38.6425 186.949 39.0372 187.537 39.6281 187.537Z" fill="#C4D647"/>
<path d="M116.008 214.211C112.724 213.773 109.694 212.856 106.933 211.597C107.682 212.596 108.514 213.56 109.489 214.471C109.511 214.491 109.534 214.509 109.557 214.529C111.584 215.249 113.731 215.794 116.008 216.099C117.777 216.335 122.499 217.215 123.236 215.518C123.444 215.041 123.326 214.506 123.01 213.957C121.822 215.201 117.648 214.43 116.008 214.211Z" fill="#C4D647"/>
<path d="M113.049 221.671C110.818 222.855 106.148 221.878 103.746 221.436C100.775 220.892 97.9856 220.024 95.3984 218.903C95.9848 219.671 96.3966 220.484 96.3612 221.176C98.6758 222.105 101.137 222.846 103.746 223.325C106.148 223.765 110.818 224.743 113.049 223.559C114.414 222.835 114.538 221.74 114.098 220.721C113.898 221.076 113.561 221.4 113.049 221.671Z" fill="#C4D647"/>
<path d="M92.6813 141.382C90.9348 139.48 89.5488 137.402 88.3568 135.116C87.2742 133.04 86.3286 130.893 85.246 128.816C84.3483 127.092 83.3946 125.099 81.7485 123.96C79.8675 122.658 77.286 122.204 75.081 121.797C72.8098 121.377 70.5009 121.166 68.1921 121.165C62.7292 121.164 57.3472 122.357 52.3713 124.6C52.0006 124.767 52.3223 125.313 52.6907 125.148C52.7957 125.1 52.9018 125.06 53.0067 125.013C52.9908 125.079 52.9759 125.144 52.9588 125.209C52.9223 125.246 52.8915 125.289 52.8778 125.354C51.3903 131.705 46.8536 136.503 42.7744 141.35C41.9166 142.368 41.0724 143.395 40.2659 144.453C39.7515 145.128 38.8354 146.08 39.2666 147.015C39.6511 147.848 40.9994 148.024 41.7728 148.109C42.9193 148.235 44.003 148.049 45.0593 147.653C45.0536 148.797 44.2391 149.867 45.6844 150.499C46.9882 151.069 48.5271 150.748 49.7363 150.082C50.18 151.098 51.1291 151.709 52.2767 151.818C53.8189 151.963 55.1581 151.063 56.3297 150.135C56.5156 151.943 58.286 153.295 60.1283 153.256C62.3322 153.209 63.8482 151.387 64.6216 149.464C65.3563 151.367 67.105 152.983 69.2644 152.76C71.2002 152.559 72.6775 150.91 72.7402 149.054C74.7741 150.849 77.2883 152.806 80.1059 152.485C81.955 152.273 81.72 150.835 81.047 149.569C82.368 150.393 83.7939 151.029 85.311 151.429C86.5385 151.752 88.9249 152.47 90.0656 151.601C91.0968 150.816 90.7557 149.428 90.1181 148.522C89.5671 147.736 88.8222 147.092 88.245 146.319C87.7476 145.652 87.3233 144.944 86.94 144.21C88.3499 145.134 89.8979 145.807 91.5759 146.128C92.4805 146.302 94.892 146.948 95.2696 145.703C95.6905 144.307 93.4832 142.256 92.6813 141.382Z" fill="#AFC737"/>
<path d="M112.157 194.181C109.051 192.06 98.0106 178.137 94.7447 176.046C92.1005 174.354 87.8285 178.896 84.7097 178.756C77.0235 178.413 69.311 178.38 61.6191 178.197C53.7971 178.012 45.6295 177.407 38.1999 180.351C37.8269 180.5 37.99 181.113 38.3699 180.961C39.0543 180.691 39.7467 180.451 40.4437 180.237C37.3763 182.782 34.3066 185.326 31.238 187.87C29.6273 189.208 28.0155 190.544 26.4036 191.88C25.5834 192.561 23.6761 193.568 23.6111 194.804C23.5062 196.767 26.7687 198.239 28.2653 198.651C30.727 199.33 33.3586 199.075 35.7941 198.377C35.3504 199.422 34.8986 200.464 34.4788 201.516C34.237 202.123 33.864 202.745 34.2039 203.386C34.8279 204.562 37.447 204.89 38.5877 205.028C42.1001 205.453 45.6363 204.393 48.3398 202.152C48.3729 203.627 48.4071 205.1 48.4414 206.573C48.471 207.878 48.3068 209.354 48.5862 210.632C48.9889 212.463 51.4575 212.634 52.9963 212.529C56.4618 212.291 59.6137 209.966 60.8765 206.784C60.9768 207.965 61.1194 209.158 61.4137 210.274C61.6282 211.087 61.9362 211.552 62.818 211.605C65.1588 211.744 67.6193 209.95 69.1388 208.193C69.9897 211.595 72.9887 215.805 76.8718 215.316C81.0731 214.788 80.9168 209.523 81.486 206.239C82.653 208.036 84.6527 210.459 86.7938 210.107C89.3696 209.686 89.5966 206.9 89.3867 204.722C92.0001 207.386 95.1576 211.056 99.2198 209.209C100.898 208.447 101.561 206.842 101.355 205.061C101.075 202.63 100.053 200.167 98.9791 197.923C101.262 199.166 103.777 199.902 106.39 200.039C108.623 200.155 111.76 200.036 113.608 198.59C115.813 196.865 113.768 195.281 112.157 194.181Z" fill="#AFC737"/>
<path d="M34.4788 198.563C34.8986 197.51 35.3504 196.469 35.7941 195.425C33.3586 196.122 30.727 196.377 28.2653 195.699C27.2284 195.413 25.3439 194.618 24.3195 193.503C23.9248 193.902 23.6351 194.336 23.6111 194.805C23.5062 196.768 26.7687 198.24 28.2653 198.652C30.2684 199.204 32.3856 199.132 34.4172 198.711C34.4378 198.662 34.4594 198.612 34.4788 198.563Z" fill="#C4D647"/>
<path d="M48.4415 203.62C48.4072 202.146 48.373 200.672 48.3399 199.199C45.6364 201.44 42.1002 202.499 38.5879 202.074C37.6479 201.96 35.7052 201.716 34.7025 200.977C34.6284 201.157 34.552 201.336 34.4789 201.516C34.2371 202.123 33.863 202.745 34.2029 203.386C34.8269 204.562 37.4471 204.89 38.5879 205.028C42.1002 205.453 45.6364 204.393 48.3399 202.152C48.3662 203.321 48.3936 204.49 48.4198 205.657C48.4221 204.966 48.4563 204.271 48.4415 203.62Z" fill="#C4D647"/>
<path d="M113.608 195.635C111.76 197.081 108.623 197.203 106.391 197.084C103.777 196.947 101.262 196.213 98.9792 194.97C99.5462 196.154 100.094 197.4 100.531 198.669C102.382 199.458 104.357 199.931 106.391 200.039C108.623 200.155 111.76 200.035 113.608 198.589C115.051 197.459 114.669 196.393 113.785 195.48C113.724 195.533 113.675 195.583 113.608 195.635Z" fill="#C4D647"/>
<path d="M101.194 204.047C100.895 204.998 100.25 205.788 99.2186 206.257C95.1564 208.103 91.9989 204.433 89.3855 201.768C89.5954 203.947 89.3695 206.733 86.7938 207.154C84.6526 207.507 82.6518 205.082 81.4848 203.285C80.9156 206.568 81.0719 211.834 76.8706 212.363C72.9875 212.851 69.9885 208.642 69.1376 205.241C67.6181 206.997 65.1576 208.789 62.8168 208.65C61.935 208.599 61.6281 208.133 61.4137 207.32C61.1194 206.206 60.9768 205.012 60.8764 203.831C59.6136 207.014 56.4618 209.338 52.9962 209.576C51.4574 209.682 48.9889 209.51 48.5862 207.679C48.5006 207.282 48.4584 206.866 48.4379 206.443C48.439 206.486 48.4402 206.53 48.4413 206.573C48.471 207.878 48.3067 209.354 48.5862 210.632C48.9889 212.463 51.4574 212.634 52.9962 212.529C56.4618 212.291 59.6136 209.966 60.8764 206.784C60.9768 207.965 61.1194 209.158 61.4137 210.274C61.6281 211.087 61.935 211.552 62.8168 211.605C65.1576 211.744 67.6181 209.951 69.1376 208.194C69.9885 211.597 72.9875 215.805 76.8706 215.316C81.0719 214.788 80.9156 209.523 81.4848 206.239C82.6518 208.036 84.6526 210.459 86.7938 210.107C89.3695 209.686 89.5954 206.9 89.3855 204.722C91.9989 207.386 95.1564 211.056 99.2186 209.209C100.897 208.447 101.559 206.843 101.354 205.062C101.315 204.725 101.259 204.386 101.194 204.047Z" fill="#C4D647"/>
<path d="M103.12 173.939C100.572 171.163 98.5503 168.134 96.8119 164.8C95.2308 161.771 93.8539 158.641 92.2752 155.611C90.9668 153.097 89.5751 150.188 87.1716 148.527C84.4281 146.629 80.6637 145.965 77.4468 145.372C74.1364 144.761 70.7667 144.453 67.3982 144.452C59.4313 144.45 51.5797 146.189 44.3235 149.461C43.7816 149.705 44.2505 150.501 44.7889 150.258C44.9418 150.188 45.098 150.133 45.2509 150.065C45.2281 150.16 45.2053 150.256 45.1813 150.35C45.1277 150.403 45.0832 150.468 45.0604 150.56C42.893 159.825 36.2734 166.824 30.3233 173.894C29.0742 175.379 27.8411 176.878 26.665 178.419C25.9133 179.405 24.5786 180.792 25.2072 182.156C25.7684 183.371 27.7361 183.628 28.8632 183.751C30.5344 183.936 32.1165 183.664 33.6577 183.084C33.6485 184.755 32.461 186.316 34.5691 187.238C36.4718 188.067 38.7179 187.601 40.4804 186.629C41.126 188.11 42.512 189.003 44.1855 189.161C46.4338 189.372 48.3868 188.06 50.0944 186.705C50.3671 189.344 52.9508 191.316 55.6372 191.258C58.8495 191.188 61.0648 188.534 62.1896 185.728C63.263 188.504 65.816 190.861 68.9644 190.535C71.79 190.243 73.9425 187.836 74.0338 185.129C77.0008 187.747 80.6683 190.604 84.7783 190.135C87.475 189.826 87.1293 187.728 86.1495 185.882C88.0762 187.081 90.1557 188.011 92.3699 188.593C94.1585 189.065 97.6389 190.111 99.3032 188.845C100.809 187.698 100.308 185.674 99.3808 184.352C98.5754 183.206 97.4894 182.266 96.6499 181.14C95.9232 180.166 95.3015 179.136 94.7449 178.065C96.8016 179.413 99.0602 180.393 101.507 180.862C102.826 181.116 106.344 182.058 106.894 180.242C107.508 178.207 104.289 175.214 103.12 173.939Z" fill="#AFC737"/>
<path d="M33.6566 181.065C32.1155 181.645 30.5333 181.916 28.8622 181.733C27.8013 181.614 26.0081 181.371 25.3327 180.33C25.0487 180.919 24.9209 181.539 25.2061 182.157C25.7674 183.372 27.7351 183.629 28.8622 183.752C30.4193 183.924 31.8988 183.687 33.3407 183.188C33.416 182.533 33.6521 181.809 33.6566 181.065Z" fill="#C4D647"/>
<path d="M84.7771 188.116C80.6671 188.585 76.9996 185.729 74.0326 183.11C73.9414 185.818 71.7899 188.223 68.9644 188.516C65.8159 188.841 63.2618 186.485 62.1884 183.709C61.0637 186.515 58.8484 189.17 55.6361 189.239C52.9497 189.297 50.3659 187.325 50.0933 184.687C48.3856 186.039 46.4327 187.354 44.1843 187.142C42.5108 186.983 41.1249 186.092 40.4792 184.61C38.7168 185.582 36.4707 186.05 34.5679 185.218C33.993 184.966 33.6702 184.668 33.4945 184.331C33.2572 185.509 32.9972 186.551 34.5679 187.238C36.4707 188.067 38.7168 187.601 40.4792 186.629C41.1249 188.11 42.5108 189.004 44.1843 189.162C46.4327 189.373 48.3856 188.06 50.0933 186.705C50.3659 189.344 52.9497 191.317 55.6361 191.259C58.8484 191.19 61.0637 188.534 62.1884 185.728C63.2618 188.504 65.8159 190.861 68.9644 190.535C71.7899 190.243 73.9414 187.837 74.0326 185.131C76.9996 187.748 80.6671 190.604 84.7771 190.135C86.8898 189.892 87.1316 188.55 86.6662 187.093C86.389 187.619 85.8049 187.997 84.7771 188.116Z" fill="#C4D647"/>
<path d="M44.5859 150.304C44.6931 149.951 44.7821 149.589 44.8767 149.23C44.6931 149.309 44.5049 149.38 44.3223 149.462C43.8512 149.674 44.1467 150.305 44.5859 150.304Z" fill="#C4D647"/>
<path d="M101.507 178.844C99.0605 178.375 96.8019 177.393 94.7451 176.046C95.3018 177.116 95.9235 178.148 96.6501 179.122C96.6661 179.145 96.6844 179.163 96.7015 179.183C98.2118 179.953 99.8111 180.538 101.507 180.863C102.826 181.117 106.344 182.059 106.894 180.243C107.049 179.732 106.961 179.162 106.725 178.572C105.842 179.902 102.73 179.077 101.507 178.844Z" fill="#C4D647"/>
<path d="M99.3032 186.826C97.6388 188.093 94.1585 187.047 92.3698 186.576C90.1557 185.993 88.0761 185.063 86.1494 183.865C86.5863 184.686 86.8932 185.556 86.8669 186.297C88.5917 187.291 90.4249 188.084 92.3698 188.594C94.1585 189.067 97.6388 190.112 99.3032 188.846C100.32 188.071 100.412 186.899 100.086 185.811C99.9351 186.189 99.6842 186.535 99.3032 186.826Z" fill="#C4D647"/>
<path d="M99.9659 166.711C99.488 165.467 98.621 164.258 97.9503 163.103C96.5689 160.718 95.1213 158.374 93.6303 156.056C94.5315 156.382 95.4327 156.708 96.335 157.033C96.5381 157.106 96.7286 156.918 96.7354 156.727C96.8016 154.989 95.8491 153.682 94.6102 152.549C92.8911 150.976 90.9781 149.711 89.4279 147.945C88.505 146.892 87.7259 145.754 86.9902 144.568C86.5989 143.939 86.2464 143.286 85.5517 142.945C84.6973 142.524 83.5577 142.631 82.6417 142.597C81.258 142.545 79.8743 142.52 78.4906 142.523C68.135 142.551 57.8263 144.18 47.9476 147.268C47.8278 147.089 47.546 147.022 47.4228 147.267C47.3886 147.335 47.3498 147.402 47.3167 147.469C47.0897 147.542 46.8627 147.61 46.6357 147.683C46.2502 147.81 46.4144 148.422 46.8045 148.295C46.8331 148.285 46.865 148.276 46.8935 148.267C43.7326 154.301 39.4731 159.714 34.2679 164.127C33.4592 164.814 31.9078 165.592 31.8097 166.8C31.7344 167.715 32.4496 168.435 33.1751 168.869C35.4703 170.244 38.6928 169.786 41.0986 168.777C40.7108 171.454 40.8556 174.803 44.1216 175.347C47.3863 175.889 50.7275 173.942 52.6987 171.41C53.0329 173.416 53.9432 175.23 56.3867 174.962C58.902 174.688 61.1869 172.823 62.6926 170.819C63.3212 174.086 64.5988 178.037 68.4716 178.343C72.1436 178.632 73.4029 174.333 73.8318 171.257C75.4916 173.757 78.1472 175.783 81.1553 176.226C82.1957 176.379 83.4619 176.245 84.0277 175.229C84.3026 174.733 84.2764 174.104 84.2946 173.558C84.3277 172.622 84.3505 171.684 84.3745 170.748C85.8163 172.802 88.537 174.462 91.034 173.754C92.1565 173.437 92.298 172.55 92.1816 171.494C92.0059 169.897 91.5257 168.321 90.9211 166.82C92.436 167.925 94.1516 168.695 96.0304 169.007C97.1483 169.193 99.3967 169.612 100.066 168.32C100.345 167.779 100.168 167.234 99.9659 166.711Z" fill="#AFC737"/>
<path d="M99.3454 165.419C98.3804 165.861 96.8815 165.587 96.0316 165.445C94.1528 165.134 92.436 164.364 90.9211 163.258C91.4847 164.655 91.9273 166.118 92.1315 167.602C93.3304 168.29 94.6354 168.773 96.0316 169.006C97.1495 169.192 99.3979 169.61 100.068 168.319C100.346 167.778 100.169 167.233 99.9671 166.71C99.8006 166.275 99.5838 165.845 99.3454 165.419Z" fill="#C4D647"/>
<path d="M96.4571 157.04C96.6077 157.02 96.7297 156.878 96.7366 156.726C96.7936 155.227 96.0898 154.049 95.1008 153.025C94.6103 152.85 94.1209 152.671 93.6304 152.495C94.5954 153.996 95.5331 155.513 96.4571 157.04Z" fill="#C4D647"/>
<path d="M91.8509 169.695C91.6684 169.913 91.4094 170.086 91.0353 170.193C88.5382 170.9 85.8176 169.24 84.3757 167.186C84.3517 168.124 84.3289 169.06 84.2958 169.997C84.2776 170.543 84.3027 171.172 84.0278 171.667C83.462 172.684 82.1969 172.817 81.1566 172.664C78.1484 172.223 75.4928 170.198 73.8331 167.697C73.4042 170.772 72.1437 175.072 68.4716 174.782C64.5989 174.477 63.3213 170.526 62.6927 167.259C61.187 169.263 58.9032 171.127 56.3879 171.403C53.9445 171.67 53.033 169.854 52.6988 167.849C50.7276 170.38 47.3875 172.329 44.1228 171.786C40.8569 171.242 40.7109 167.893 41.0987 165.216C38.6929 166.225 35.4704 166.684 33.1752 165.308C33.0919 165.258 33.0075 165.202 32.9242 165.144C32.3584 165.605 31.8645 166.137 31.8109 166.8C31.7356 167.715 32.4497 168.434 33.1752 168.868C35.4704 170.243 38.6929 169.786 41.0987 168.777C40.7109 171.454 40.8569 174.803 44.1228 175.347C47.3875 175.889 50.7276 173.942 52.6988 171.41C53.033 173.416 53.9445 175.23 56.3879 174.962C58.9032 174.688 61.187 172.823 62.6927 170.819C63.3213 174.086 64.5989 178.036 68.4716 178.342C72.1437 178.63 73.4042 174.333 73.8331 171.257C75.4928 173.757 78.1484 175.782 81.1566 176.225C82.1969 176.377 83.462 176.244 84.0278 175.228C84.3027 174.732 84.2776 174.103 84.2958 173.557C84.3289 172.62 84.3517 171.683 84.3757 170.747C85.8176 172.801 88.5382 174.461 91.0353 173.753C92.1577 173.436 92.2992 172.55 92.1828 171.494C92.1155 170.89 91.9958 170.29 91.8509 169.695Z" fill="#C4D647"/>
<path d="M45.0593 146.267C44.003 146.665 42.9193 146.85 41.7729 146.723C41.0451 146.644 39.8154 146.476 39.3534 145.762C39.1583 146.166 39.0716 146.591 39.2667 147.015C39.6511 147.848 40.9995 148.024 41.7729 148.109C42.8406 148.227 43.8558 148.064 44.8426 147.721C44.895 147.273 45.057 146.777 45.0593 146.267Z" fill="#C4D647"/>
<path d="M80.1071 151.099C77.2895 151.422 74.7753 149.464 72.7414 147.669C72.6787 149.525 71.2014 151.175 69.2656 151.374C67.1062 151.598 65.3575 149.981 64.6228 148.079C63.8494 150.001 62.3322 151.822 60.1284 151.87C58.2861 151.909 56.5157 150.558 56.3297 148.75C55.1582 149.678 53.819 150.578 52.2767 150.434C51.1291 150.324 50.1812 149.712 49.7375 148.696C48.5283 149.363 46.9883 149.683 45.6844 149.114C45.2909 148.942 45.0696 148.736 44.9498 148.507C44.7867 149.313 44.6087 150.028 45.6844 150.497C46.9883 151.068 48.5283 150.747 49.7375 150.081C50.1812 151.097 51.1291 151.709 52.2767 151.818C53.819 151.963 55.1582 151.062 56.3297 150.134C56.5157 151.942 58.2861 153.294 60.1284 153.254C62.3322 153.208 63.8494 151.386 64.6228 149.463C65.3575 151.366 67.1062 152.983 69.2656 152.76C71.2014 152.559 72.6787 150.91 72.7414 149.054C74.7753 150.849 77.2895 152.806 80.1071 152.485C81.5569 152.319 81.7224 151.398 81.403 150.398C81.2136 150.759 80.8132 151.02 80.1071 151.099Z" fill="#C4D647"/>
<path d="M52.5518 125.177C52.6248 124.936 52.6864 124.687 52.7514 124.441C52.6259 124.496 52.497 124.543 52.3716 124.6C52.0487 124.746 52.2495 125.177 52.5518 125.177Z" fill="#C4D647"/>
<path d="M91.5761 144.744C89.8981 144.422 88.3501 143.75 86.9402 142.825C87.3235 143.558 87.7478 144.267 88.2452 144.934C88.2566 144.949 88.2691 144.962 88.2805 144.977C89.3163 145.505 90.4126 145.906 91.5761 146.128C92.4807 146.302 94.8922 146.948 95.2698 145.703C95.3747 145.352 95.3166 144.962 95.1546 144.557C94.5488 145.469 92.4134 144.905 91.5761 144.744Z" fill="#C4D647"/>
<path d="M90.0656 150.217C88.9249 151.086 86.5385 150.367 85.3111 150.045C83.7939 149.646 82.3669 149.008 81.0459 148.186C81.3448 148.748 81.5569 149.346 81.5387 149.853C82.7216 150.536 83.9787 151.079 85.3111 151.43C86.5385 151.753 88.9249 152.47 90.0656 151.601C90.7626 151.071 90.8242 150.267 90.6006 149.521C90.4968 149.78 90.3269 150.017 90.0656 150.217Z" fill="#C4D647"/>
<path d="M88.1388 124.877C87.6289 126.361 85.7797 127.079 84.3869 126.002C84.1154 127.124 83.0751 127.86 81.8374 127.78C80.1993 127.673 79.1259 126.418 78.2749 125.133C77.9418 126.68 77.2893 128.313 75.5634 128.612C73.6435 128.945 72.2176 127.514 71.1214 126.112C69.9476 129.487 65.1759 129.508 63.961 126.121C62.4301 127.588 60.37 128.678 58.1992 128.219C56.455 127.852 55.101 126.572 54.7143 124.877C52.021 126.668 48.2805 126.632 45.7356 124.51C45.3546 124.193 45.0477 123.857 44.8492 123.509C44.2743 124.473 44.766 125.389 45.7356 126.198C48.2805 128.32 52.021 128.355 54.7143 126.565C55.101 128.258 56.455 129.541 58.1992 129.908C60.37 130.366 62.4301 129.274 63.961 127.809C65.1759 131.195 69.9476 131.175 71.1214 127.799C72.2176 129.201 73.6435 130.633 75.5634 130.3C77.2893 130.001 77.9418 128.369 78.2749 126.821C79.1259 128.105 80.1993 129.361 81.8374 129.467C83.0751 129.548 84.1154 128.812 84.3869 127.69C86.2292 129.116 88.8768 127.398 88.1547 124.924C88.149 124.908 88.1433 124.893 88.1388 124.877Z" fill="#C4D647"/>
<path d="M284.601 200.772H289.859L275.357 156.029C274.392 153.049 271.614 151.03 268.482 151.03L284.601 200.772Z" fill="#F39428"/>
<path d="M125.016 169.133H277.593L273.096 155.861H120.519L125.016 169.133Z" fill="#F6C03B"/>
<path d="M130.895 187.815H283.472L278.973 174.543H126.396L130.895 187.815Z" fill="#F6C03B"/>
<path d="M136.386 205.062H288.965L284.853 193.225H132.276L136.386 205.062Z" fill="#F6C03B"/>
<path d="M130.772 200.772H136.029L121.528 156.029C120.562 153.049 117.785 151.03 114.65 151.03L130.772 200.772Z" fill="#F39428"/>
<path d="M133.005 245.234H137.128C137.533 245.234 137.859 244.907 137.859 244.504V200.772H132.276V244.504C132.276 244.907 132.601 245.234 133.005 245.234Z" fill="#F39428"/>
<path d="M164.127 245.234H168.248C168.652 245.234 168.978 244.907 168.978 244.504V200.772H163.396V244.504C163.396 244.907 163.722 245.234 164.127 245.234Z" fill="#F39428"/>
<path d="M136.13 223.003H166.188V219.676H136.13V223.003Z" fill="#F39428"/>
<path d="M287.785 245.234H291.655C292.058 245.234 292.386 244.907 292.386 244.504V200.772H287.054V244.504C287.054 244.907 287.381 245.234 287.785 245.234Z" fill="#F39428"/>
<path d="M317.501 245.234H321.369C321.773 245.234 322.1 244.907 322.1 244.504V200.772H316.771V244.504C316.771 244.907 317.096 245.234 317.501 245.234Z" fill="#F39428"/>
<path d="M290.735 223.003H319.436V219.676H290.735V223.003Z" fill="#F39428"/>
<path d="M136.305 206.303H279.169V200.698H130.699C130.699 203.793 133.209 206.303 136.305 206.303Z" fill="#E57D15"/>
<path d="M175.557 206.303H318.656C321.753 206.303 324.262 203.793 324.262 200.698H169.949C169.949 203.793 172.46 206.303 175.557 206.303Z" fill="#F39428"/>
</g>
<mask id="mask2_4_2504" style="mask-type:luminance" maskUnits="userSpaceOnUse" x="83" y="68" width="167" height="203">
<path d="M83.0063 68.4111H249.262V270.491H83.0063V68.4111Z" fill="white"/>
</mask>
<g mask="url(#mask2_4_2504)">
<path d="M203.379 185.996C203.546 183.888 200.303 184.182 198.653 183.716C196.426 183.088 194.773 184.558 192.967 185.791C191.291 186.258 193.185 190.577 194.802 191.098C195.279 191.251 195.687 191.681 196.173 191.851C197.201 192.212 198.284 192.179 199.296 191.766C201.208 190.986 203.216 188.048 203.379 185.996Z" fill="#F5B379"/>
<path d="M199.258 184.626C199.243 184.626 199.236 184.633 199.221 184.633C196.94 184.229 194.17 185.616 193.713 187.979C193.403 189.587 194.537 190.788 195.757 191.648C196.89 192.448 198.75 193.605 200.16 192.985C200.615 192.785 200.778 192.089 200.438 191.711C200.857 191.641 201.23 191.436 201.479 190.974C201.73 190.51 201.676 190.144 201.47 189.841C202.064 189.766 202.513 189.463 202.58 188.724C202.611 188.377 202.499 188.104 202.332 187.863C202.822 187.734 203.184 187.389 203.276 186.683C203.507 184.892 200.437 184.772 199.258 184.626Z" fill="#F5B379"/>
<path d="M198.236 184.942C198.236 184.942 197.278 185.692 197.749 186.64C197.749 186.64 196.708 187.063 197.165 187.826C197.165 187.826 196.456 188.659 196.873 189.361C196.873 189.361 196.285 190.498 196.861 191.237C197.436 191.976 198.281 192.582 198.281 192.582C198.281 192.582 196.054 191.397 195.934 190.776C195.813 190.156 196.157 189.369 196.157 189.369C196.157 189.369 195.865 188.117 196.276 187.752C196.276 187.752 196.62 186.389 196.968 186.128C196.968 186.128 196.989 184.904 198.236 184.942Z" fill="#F29866"/>
<path d="M200.392 192.83C199.52 193.212 198.483 192.913 197.553 192.448C197.246 192.215 196.838 191.862 196.519 191.462C195.934 190.726 196.663 189.502 196.663 189.502C196.249 188.793 197.086 187.88 197.086 187.88C196.631 187.11 198.028 186.058 198.028 186.058C197.695 185.34 198.293 184.571 198.709 184.407C198.942 184.316 203.734 184.742 203.507 186.528C203.416 187.232 203.048 187.584 202.562 187.709C202.731 187.946 202.839 188.226 202.806 188.574C202.743 189.303 202.292 189.612 201.699 189.687C201.907 189.986 201.955 190.357 201.704 190.818C201.457 191.287 201.088 191.488 200.665 191.559C201.003 191.938 200.841 192.633 200.392 192.83Z" fill="#F5B379"/>
<path d="M197.102 183.031C195.949 183.46 194.887 184.453 194.006 185.285C193.987 185.303 193.982 185.325 193.964 185.343C193.464 185.723 192.924 187.828 193.712 187.978C194.64 188.155 196.257 187.161 196.959 186.548C197.345 186.209 197.356 185.238 197.834 185.028C198.461 184.752 199.25 185.142 199.818 185.412C200.797 185.872 202.009 184.692 201.127 184.1C200.115 183.42 198.336 182.571 197.102 183.031Z" fill="#F5B379"/>
<path d="M174.722 170.134C173.898 173.938 168.306 175.906 167.778 175.598C163.846 173.322 163.501 158.973 164.432 147.52C164.932 141.369 168.052 135.213 169.629 136.343C177.907 142.278 175.551 166.304 174.722 170.134Z" fill="#F5B379"/>
<path d="M168.796 132.649C168.796 132.649 177.745 138.578 177.557 151.585C177.557 151.585 163.798 156.479 162.361 158.61L161.154 148.283C161.154 148.283 162.382 136.993 168.796 132.649Z" fill="#C3E7F3"/>
<path d="M166.062 135.032C158.735 144.222 161.464 150.529 162.506 158.824C165.104 156.837 169.108 155.016 174.674 152.652C174.569 149.314 172.81 141.066 166.062 135.032Z" fill="#9FD5E4"/>
<path d="M193.017 188.266L196.238 184.088C196.238 184.088 189.474 177.159 181.423 171.68C177.742 169.193 174.846 166.539 173.754 166.206C170.253 165.135 162.746 173.313 169.343 177.216C178.055 182.37 193.017 188.266 193.017 188.266Z" fill="#F5B379"/>
<path d="M201.019 193.291C203.758 197.442 200.682 244.087 200.682 244.087L197.651 244.292L189.871 203.387C189.871 203.387 168.921 202.712 166.337 198.64C163.914 194.82 157.564 183.064 157.564 183.064C158.749 183.116 160.567 179.497 160.567 179.497C178.539 179.497 198.942 190.139 201.019 193.291Z" fill="#564E4E"/>
<path d="M189.871 203.387L197.472 244.06L199.536 244.405C199.536 244.405 194.068 198.5 192.567 194.707C189.832 187.805 168.54 183.065 168.54 183.065L178.364 202.242C178.364 202.242 188.584 203.886 189.871 203.387Z" fill="#473D3D"/>
<path d="M189.597 196.027C191.087 200.048 178.268 244.016 178.268 244.016L174.989 244.292L174.777 203.009C174.777 203.009 147.157 201.071 144.574 196.999C142.151 193.179 142.062 182.02 142.062 182.02C143.246 182.072 153.157 176.894 153.157 176.894C169.628 180.764 188.287 192.488 189.597 196.027Z" fill="#564E4E"/>
<path d="M196.538 241.773L196.033 244.782H208.475C208.475 244.782 204.43 241.781 200.484 241.776C200.53 242.168 197.618 242.816 196.646 241.829L196.538 241.773Z" fill="#F39428"/>
<path d="M196.033 245.634H208.475V244.782H196.033V245.634Z" fill="#E07E1B"/>
<path d="M174.572 241.773L174.067 244.782H186.508C186.508 244.782 182.466 241.781 178.519 241.776C178.565 242.168 175.652 242.816 174.68 241.829L174.572 241.773Z" fill="#F39428"/>
<path d="M174.067 245.634H186.508V244.782H174.067V245.634Z" fill="#E07E1B"/>
<path d="M169.25 122.922C169.102 123.295 168.966 123.647 168.865 123.975C168.581 124.87 168.366 125.752 168.231 126.613C168.072 127.472 167.981 128.287 167.936 129.047C167.777 131.493 168.026 133.248 168.026 133.248C161.139 136.644 153.675 131.968 153.675 131.968C154.003 131.006 154.263 129.828 154.467 128.65C154.886 126.238 155.056 123.816 155.09 123.114C155.101 123.068 155.101 123.035 155.101 123.001C155.113 122.944 155.113 122.922 155.113 122.922H169.25Z" fill="#F5B379"/>
<path d="M169.25 122.921C169.102 123.295 168.966 123.646 168.865 123.973C168.468 125.095 168.287 125.955 168.231 126.613C168.072 127.472 167.981 128.287 167.936 129.046C164.662 130.485 160.97 131.061 158.285 130.484C156.552 130.122 155.237 129.272 154.468 128.649C154.886 126.237 155.057 123.816 155.091 123.114C155.103 123.068 155.101 123.034 155.101 123C155.114 122.942 155.114 122.921 155.114 122.921H169.25Z" fill="#F29866"/>
<path d="M153.258 130.161C153.258 130.161 144.121 136.2 140.723 138.843C140.723 138.843 141.621 177.903 140.772 189.603C140.772 189.603 168.476 187.126 173.762 181.088C173.762 181.088 173.762 164.883 173.762 154.693C173.762 144.504 172.818 135.256 168.665 132.615C168.665 132.615 162.32 136.765 153.258 130.161Z" fill="#C3E7F3"/>
<path d="M141.054 157.93C141.054 157.93 140.629 182.038 140.567 189.297C140.567 189.297 140.905 188.55 148.335 172.983C148.335 172.983 150.723 167.376 150.176 158.175C149.288 143.232 140.848 138.797 140.848 138.797C140.848 138.797 141.403 152.944 141.054 157.93Z" fill="#9FD5E4"/>
<path d="M148.037 117.769C148.037 117.769 150.608 122.513 152.429 123.316C154.25 124.118 151.277 116.05 151.277 116.05L148.037 117.769Z" fill="#613D44"/>
<path d="M150.872 118.167C150.872 118.167 152 125.684 154.673 127.167C157.345 128.65 166.72 128.775 168.711 126.394C170.702 124.012 170.327 104.359 169.579 102.827C168.831 101.295 155.868 95.6092 151.467 101.872C147.065 108.136 150.872 118.167 150.872 118.167Z" fill="#F5B379"/>
<path d="M173.305 94.14C170.398 97.5265 162.836 92.3033 156.044 93.1234C150.449 93.8 146.752 100.522 146.828 100.82C145.43 101.278 144.328 104.753 144.794 107.203C146.542 116.385 151.209 117.993 152.087 117.747C156.155 116.608 156.508 109.029 154.253 103.218C157.842 102.871 160.871 102.354 164.78 103.27C166.495 103.671 169.702 105.224 171.446 104.174C174.036 102.612 175.306 95.2107 173.305 94.14Z" fill="#613D44"/>
<path d="M165.458 113.684C166.109 114.75 166.638 115.627 167.32 116.45L167.614 116.804L167.336 117.144C167.104 117.429 166.781 117.595 166.482 117.655C166.181 117.728 165.893 117.715 165.624 117.662C165.095 117.547 164.709 117.315 164.252 117.103C164.731 116.905 165.256 116.929 165.661 116.858C166.061 116.798 166.383 116.635 166.492 116.47L166.508 117.164C165.648 116.241 165.153 114.921 165.458 113.684Z" fill="#F29866"/>
<path d="M158.492 110.228C158.508 109.247 161.405 108.61 163.078 109.704C163.771 110.158 162.939 112.455 160.881 112.422C159.141 112.396 158.478 111.04 158.492 110.228Z" fill="white"/>
<path d="M162.364 111.555C162.233 112.279 161.54 112.76 160.815 112.629C160.091 112.497 159.609 111.803 159.741 111.08C159.872 110.356 160.566 109.875 161.29 110.006C162.014 110.137 162.496 110.831 162.364 111.555Z" fill="#80B2D5"/>
<path d="M162.399 110.141C162.355 110.386 162.121 110.548 161.875 110.504C161.63 110.459 161.469 110.226 161.513 109.981C161.557 109.736 161.791 109.574 162.037 109.619C162.282 109.663 162.443 109.896 162.399 110.141Z" fill="white"/>
<path d="M165.613 110.396C165.662 109.418 168.343 108.794 169.839 109.89C170.459 110.346 169.614 112.632 167.728 112.592C166.134 112.559 165.573 111.207 165.613 110.396Z" fill="white"/>
<path d="M169.296 111.778C169.151 112.498 168.448 112.966 167.726 112.821C167.004 112.674 166.538 111.971 166.684 111.25C166.829 110.529 167.532 110.061 168.254 110.207C168.976 110.353 169.443 111.057 169.296 111.778Z" fill="#80B2D5"/>
<path d="M169.349 110.367C169.3 110.611 169.062 110.77 168.818 110.72C168.574 110.67 168.417 110.433 168.466 110.189C168.516 109.945 168.753 109.789 168.997 109.837C169.241 109.887 169.398 110.123 169.349 110.367Z" fill="white"/>
<path d="M156.628 105.371C156.857 104.793 162.123 103.874 162.567 104.228C162.949 104.532 163.005 105.643 162.813 106.827C162.767 107.116 162.475 107.312 162.196 107.222C160.955 106.828 158.368 107.092 157.455 107.203C157.257 107.227 157.069 107.118 156.996 106.934C156.813 106.478 156.516 105.652 156.628 105.371Z" fill="#613D44"/>
<path d="M171.593 106.41C171.469 105.799 166.712 103.912 166.245 104.175C165.843 104.402 165.617 105.477 165.611 106.674C165.61 106.967 165.851 107.213 166.125 107.178C167.341 107.024 169.706 107.768 170.539 108.048C170.719 108.11 170.909 108.038 171.006 107.871C171.247 107.458 171.653 106.706 171.593 106.41Z" fill="#613D44"/>
<path d="M161.187 121.394C161.887 121.845 162.564 122.208 163.297 122.392C163.658 122.495 164.031 122.543 164.414 122.555C164.802 122.58 165.187 122.517 165.611 122.491C165.27 122.733 164.873 122.91 164.447 122.978C164.023 123.069 163.576 123.032 163.155 122.925C162.316 122.696 161.573 122.144 161.187 121.394Z" fill="#F29866"/>
<path d="M162.406 123.977C162.667 123.741 162.967 123.691 163.263 123.713C163.546 123.75 163.891 123.884 164.019 124.225C163.678 124.269 163.464 124.286 163.203 124.26C162.949 124.222 162.697 124.17 162.406 123.977Z" fill="#F29866"/>
<path d="M151.316 114.111C150.421 113.194 147.256 112.958 146.783 114.471C146.024 116.894 148.328 120.712 151.821 118.816C153.095 118.126 152.092 114.906 151.316 114.111Z" fill="#F5B379"/>
<path d="M150.648 115.654C150.648 115.654 148.391 114.324 148.129 115.147C147.618 116.756 149.385 117.595 150.039 117.827C150.039 117.827 149.357 117.028 149.686 116.427C150.015 115.825 150.648 115.654 150.648 115.654Z" fill="#F29866"/>
<path d="M179.939 188.878C179.654 187.623 178.188 184.794 176.585 184.365C175.016 183.945 171.989 183.145 170.414 183.301C169.791 183.362 170.68 185.506 170.979 185.921C170.964 186.265 171.138 186.6 171.558 186.621C172.899 186.687 174.383 186.567 175.706 186.846C176.91 187.099 177.525 188.581 178.463 189.397C178.931 189.805 180.017 189.215 179.939 188.878Z" fill="#F5B379"/>
<path d="M176.679 191.947C176.34 190.377 175.221 187.74 173.65 187.183C172.113 186.636 170.208 186.143 168.623 186.169C167.996 186.179 167.743 187.893 168.159 187.949C169.496 188.124 171.294 189.193 172.596 189.578C173.78 189.93 174.289 191.454 175.166 192.343C175.605 192.788 176.789 192.457 176.679 191.947Z" fill="#F5B379"/>
<path d="M173.872 192.167C174.012 190.782 173.249 187.751 171.767 186.948C170.315 186.163 168.175 186.254 166.592 186.023C165.966 185.931 165.588 186.527 165.792 186.999C165.703 187.329 166.129 189.113 167.667 189.589C168.967 189.992 169.723 188.981 170.963 189.571C172.091 190.107 171.783 191.244 172.529 192.257C172.901 192.764 173.838 192.51 173.872 192.167Z" fill="#F5B379"/>
<path d="M178.647 191.501C178.695 190.449 177.602 187.164 176.09 186.433C174.609 185.718 172.486 185.918 170.902 185.766C170.275 185.706 170.063 186.408 170.289 186.872C170.216 187.208 170.332 187.568 170.742 187.67C172.058 187.992 173.544 188.163 174.805 188.693C175.952 189.174 176.311 190.744 177.099 191.724C177.494 192.214 178.631 191.848 178.647 191.501Z" fill="#F5B379"/>
<path d="M167.663 183.045C164.632 183.371 165.685 188.352 165.685 188.352L166.945 188.178C166.945 188.178 168.897 182.912 167.663 183.045Z" fill="#F5B379"/>
<path d="M172.071 183.374C172.071 183.374 168.862 182.593 167.264 183.152C165.665 183.711 165.793 186.999 165.793 186.999L168.078 187.443L172.325 186.984L172.331 183.99L172.071 183.374Z" fill="#F5B379"/>
<path d="M173.703 190.304C173.703 190.304 173.414 187.595 171.768 186.949C171.768 186.949 174.312 188.101 174.49 190.797C174.524 191.309 175.474 192.509 175.474 192.509C175.474 192.509 175.087 192.492 174.468 191.556C173.849 190.621 173.703 190.304 173.703 190.304Z" fill="#F29866"/>
<path d="M177.931 188.795C177.931 188.795 176.798 186.816 176.091 186.434C175.384 186.052 174.115 185.881 174.115 185.881C174.115 185.881 176.011 185.671 176.57 186.367C177.128 187.063 178.462 189.396 178.462 189.396L177.931 188.795Z" fill="#F29866"/>
<path d="M135.973 174.748C138.13 177.074 144.947 169.503 145.97 165.182C147.297 159.575 148.907 148.183 148.171 143.037C147.574 138.859 142.034 138.694 140.067 140.339C136.457 146.676 131.022 169.409 135.973 174.748Z" fill="#F5B379"/>
<path d="M166.168 188.224L168.108 183.178C168.108 183.178 157.584 175.429 149.402 170.148C145.663 167.748 142.702 165.167 141.603 164.86C138.076 163.876 130.77 172.233 137.461 175.974C146.295 180.916 166.168 188.224 166.168 188.224Z" fill="#F5B379"/>
<path d="M141 138.697C139.133 140.461 138.283 141.735 134.817 150.029C134.817 150.029 147.217 159.723 147.975 162.178L153.654 152.34C153.654 152.34 155.293 144.822 152.415 139.849C151.187 137.727 143.359 136.467 141 138.697Z" fill="#C3E7F3"/>
</g>
<mask id="mask3_4_2504" style="mask-type:luminance" maskUnits="userSpaceOnUse" x="210" y="83" width="129" height="188">
<path d="M210.671 83.4518H338.821V270.976H210.671V83.4518Z" fill="white"/>
</mask>
<g mask="url(#mask3_4_2504)">
<path d="M246.59 115.483C246.59 115.483 243.347 121.549 243.121 126.513C242.894 131.479 243.863 133.984 243.005 135.745C242.147 137.506 238.935 141.444 239.748 144.656C240.562 147.869 246.594 150.521 248.934 150.623C251.274 150.727 259.283 128.081 259.283 128.081L246.59 115.483Z" fill="#613D44"/>
<path d="M246.795 115.598C246.795 115.598 243.724 128.97 244.78 133.465C246.081 139.003 242.492 143.392 244.977 148.417C244.977 148.417 251.926 147.237 253.242 146.125C254.557 145.014 252.567 114.469 251.213 114.172C249.858 113.874 246.795 115.598 246.795 115.598Z" fill="#51333A"/>
<path d="M250.645 144.531L263.872 145.984L265.083 129.884L250.566 128.794L250.645 144.531Z" fill="#51333A"/>
<path d="M271.269 117.717C271.269 117.717 273.379 124.997 273.427 130.247C273.475 135.496 271.435 139.153 272.553 141.876C273.671 144.599 277.501 149.625 275.872 152.388C273.255 156.827 262.815 156.83 259.056 153.909C255.296 150.989 258.142 147.558 260.553 145.089C262.965 142.621 263.937 134.851 263.937 134.851L263.798 127.586L271.269 117.717Z" fill="#613D44"/>
<path d="M277.841 181.347C278.711 180.45 279.39 179.369 282.509 180.979C284.949 182.239 298.416 193.25 298.416 193.25L295.982 195.344C295.982 195.344 283.279 190.292 279.393 188.075C276.701 186.537 275.48 183.777 277.841 181.347Z" fill="#F5B379"/>
<path d="M301.732 194.863C300.986 193.285 299.504 193.107 298.066 192.721C297.054 192.015 295.821 193.171 295.766 194.459C295.68 196.464 297.508 198.99 298.182 199.348C299.004 199.786 300.943 199.792 301.733 198.35C302.164 197.562 301.928 195.275 301.732 194.863Z" fill="#F5B379"/>
<path d="M304.884 200.56C305.216 200.626 305.591 200.783 305.831 200.461C305.921 200.339 305.947 200.156 305.862 200.012C305.317 199.084 304.603 198.866 303.721 198.533C302.769 198.176 302.159 197.7 301.599 196.755C301.146 195.992 300.772 195.161 300.406 194.346C300.211 193.916 299.668 194.297 299.86 194.724C299.934 194.89 300.012 195.061 300.088 195.232C299.867 195.17 299.66 195.405 299.712 195.688C300.002 197.283 300.735 199.099 302.145 199.788C302.992 200.2 303.99 200.384 304.884 200.56Z" fill="#F5B379"/>
<path d="M303.518 202.752C303.851 202.819 304.225 202.974 304.465 202.652C304.555 202.531 304.581 202.348 304.496 202.204C303.951 201.276 303.237 201.057 302.355 200.726C301.404 200.368 300.793 199.892 300.233 198.947C299.781 198.183 299.407 197.353 299.04 196.538C298.847 196.109 298.302 196.488 298.495 196.915C298.569 197.081 298.646 197.253 298.722 197.424C298.503 197.361 298.295 197.596 298.346 197.88C298.637 199.475 299.37 201.294 300.779 201.979C301.627 202.393 302.624 202.576 303.518 202.752Z" fill="#F5B379"/>
<path d="M301.346 203.302C301.66 203.446 302 203.691 302.296 203.436C302.407 203.34 302.468 203.168 302.413 203.009C302.051 201.979 301.388 201.593 300.582 201.057C299.712 200.478 299.201 199.868 298.829 198.817C298.528 197.968 298.315 197.073 298.108 196.194C298 195.731 297.392 195.966 297.501 196.426C297.542 196.604 297.585 196.79 297.628 196.974C297.422 196.86 295.925 193.832 295.819 194.09C295.12 195.764 297.533 200.878 298.792 201.886C299.55 202.492 300.499 202.913 301.346 203.302Z" fill="#F5B379"/>
<path d="M304.584 202.14C304.916 202.205 305.291 202.362 305.531 202.039C305.62 201.917 305.647 201.735 305.563 201.593C305.017 200.665 304.303 200.445 303.421 200.114C302.47 199.756 301.859 199.279 301.299 198.334C300.846 197.572 300.472 196.74 300.106 195.925C299.912 195.495 299.368 195.876 299.559 196.302C299.634 196.467 299.712 196.64 299.788 196.81C299.567 196.749 299.36 196.984 299.412 197.267C299.702 198.862 300.435 200.679 301.845 201.366C302.693 201.779 303.69 201.962 304.584 202.14Z" fill="#F5B379"/>
<path d="M304.31 198.095C304.507 198.064 304.652 197.809 304.551 197.59C304.098 196.6 303.703 195.23 302.902 194.507C302.125 193.806 301.015 193.535 300.081 193.286C299.847 193.224 299.731 193.433 299.746 193.647C299.652 193.722 299.592 193.847 299.626 193.988C299.956 195.336 301.055 195.279 301.911 196.007C302.773 196.741 302.988 198.308 304.31 198.095Z" fill="#F5B379"/>
<path d="M301.626 197.948C301.626 197.948 300.545 200.207 298.184 199.853C299.964 199.257 301.626 197.948 301.626 197.948Z" fill="#F29866"/>
<path d="M301.074 196.075C301.074 196.075 300.143 197.039 298.62 196.216C298.62 196.216 299.82 196.984 300.294 196.902C300.88 196.802 301.074 196.075 301.074 196.075Z" fill="#F29866"/>
<path d="M264.73 149.914C261.851 151.187 262.238 162.909 274.694 182.656C275.958 184.66 279.892 179.437 279.484 175.915C278.968 171.456 270.484 152.91 270.484 152.91C270.484 152.91 270.099 147.54 264.73 149.914Z" fill="#F5B379"/>
<path d="M309.875 188.54C312.646 193.103 301.926 244.359 301.926 244.359L298.86 244.585L298.592 199.634C298.592 199.634 307.772 185.077 309.875 188.54Z" fill="#544F5B"/>
<path d="M298.592 199.634L298.597 200.577L298.872 244.52L300.962 244.899C300.962 244.899 304.039 198.914 302.048 194.947C298.569 199.412 297.291 200.182 298.592 199.634Z" fill="#3B343F"/>
<path d="M309.875 188.54C312.646 193.103 299.35 200.028 299.35 200.028C299.35 200.028 277.389 198.894 274.773 194.417C272.321 190.22 272.321 182.818 272.321 182.818C273.52 182.875 265.941 177.653 265.941 177.653C284.131 177.653 307.772 185.077 309.875 188.54Z" fill="#544F5B"/>
<path d="M302.627 198.36C302.627 198.36 302.907 193.59 301.32 190.095C297.98 182.746 274.172 180.375 274.172 180.375L286.946 198.376C286.946 198.376 293.685 199.926 298.599 200.078C300.829 200.147 302.202 198.539 302.627 198.36Z" fill="#3B343F"/>
<path d="M298.791 241.815L298.237 245.122H310.663C310.663 245.122 306.787 241.82 302.45 241.815C302.501 242.246 299.979 242.963 298.91 241.877L298.791 241.815Z" fill="#F39428"/>
<path d="M298.237 246.058H310.663V245.122H298.237V246.058Z" fill="#E07E1B"/>
<path d="M298.315 191.547C299.823 195.966 284.69 244.281 284.69 244.281L281.372 244.584L283.316 199.219C283.316 199.219 296.988 187.657 298.315 191.547Z" fill="#544F5B"/>
<path d="M298.315 191.547C299.823 195.966 283.559 199.583 283.559 199.583C283.559 199.583 263.74 204.749 252.627 199.165C248.281 196.981 248.865 181.005 248.865 181.005C250.064 181.062 260.93 178.509 260.93 178.509C279.12 178.509 296.988 187.657 298.315 191.547Z" fill="#544F5B"/>
<path d="M281.548 241.816L280.993 245.123H293.42C293.42 245.123 289.793 241.821 285.455 241.816C285.506 242.247 282.736 242.963 281.668 241.878L281.548 241.816Z" fill="#F39428"/>
<path d="M280.993 246.059H293.42V245.123H280.993V246.059Z" fill="#E07E1B"/>
<path d="M258.804 143.215C258.804 143.215 267.519 145.187 274.172 152.477C274.172 152.477 266.149 159.23 266.11 162.234L261.293 160.604C261.293 160.604 255.318 151.571 258.804 143.215Z" fill="#EA5081"/>
<path d="M274.781 178.431C265.942 184.652 248.56 186.297 248.56 186.297C248.56 186.297 245.266 168.756 245.266 162.172C245.268 162.159 245.254 162.159 245.256 162.146C244.952 161.404 244.649 160.65 244.347 159.883C244.26 159.666 244.175 159.437 244.089 159.22C243.43 157.559 242.821 155.915 242.314 154.424C242.261 154.284 242.217 154.156 242.188 154.03C241.398 151.663 240.933 147.458 244.515 145.046C246.467 143.732 251.362 142.664 251.362 142.664C254.773 144.569 260.862 144.014 260.862 144.014C260.862 144.014 271.265 152.686 272.913 156.315C274.56 159.956 270.803 163.464 270.803 163.464C270.32 166.239 271.356 175.865 274.781 178.431Z" fill="#EA5081"/>
<path d="M261.682 134.827C261.101 138.262 260.693 141.821 260.862 144.014C263.534 148.619 251.018 142.807 251.018 142.807C251.214 141.91 251.19 141.676 251.288 140.584C251.491 138.346 251.511 136.107 251.508 135.459C251.514 135.417 251.695 131.928 251.693 131.897C251.7 131.844 252.791 130.611 252.791 130.611L261.682 134.827Z" fill="#F5B379"/>
<g opacity="0.67">
<path d="M252.594 134.179C252.623 134.539 252.649 134.876 252.654 135.188C252.707 136.26 252.661 137.063 252.569 137.663C252.507 138.463 252.349 139.695 252.28 140.534C254.29 142.342 259.475 140.321 261.351 138.45C261.638 136.183 262.179 133.736 262.179 133.736L252.594 134.179Z" fill="#F29866"/>
</g>
<path d="M267.612 120.82C267.612 120.82 265.838 132.28 264.181 135.144C262.523 138.008 256.038 141.342 253.023 140.999C250.008 140.657 246.73 133.006 246.316 130.455C245.902 127.903 247.28 119.918 247.724 118.091C248.167 116.262 250.449 111.357 251.309 110.672C252.17 109.986 266.241 112.915 267.612 120.82Z" fill="#F5B379"/>
<path d="M253.167 126.197C253.281 126.944 253.197 127.675 253.022 128.389C252.826 129.095 252.544 129.798 252.054 130.418L252.127 129.835C252.19 130.043 252.482 130.311 252.885 130.498C253.291 130.696 253.854 130.829 254.299 131.186C253.75 131.272 253.273 131.398 252.68 131.358C252.38 131.333 252.071 131.259 251.776 131.091C251.478 130.935 251.188 130.661 251.029 130.291L250.904 129.998L251.101 129.707C251.806 128.676 252.333 127.425 253.167 126.197Z" fill="#F29866"/>
<path d="M255.406 126.574C255.151 127.623 258.058 129.097 260.139 128.394C261.002 128.103 260.751 125.429 258.554 124.897C256.696 124.447 255.617 125.706 255.406 126.574Z" fill="white"/>
<path d="M258.819 126.926C258.88 126.12 258.275 125.418 257.467 125.358C256.661 125.297 255.959 125.903 255.898 126.709C255.838 127.516 256.442 128.217 257.249 128.278C258.055 128.339 258.758 127.733 258.819 126.926Z" fill="#80B2D5"/>
<path d="M257.75 125.626C257.77 125.352 257.565 125.115 257.293 125.096C257.019 125.074 256.782 125.28 256.762 125.553C256.741 125.826 256.947 126.063 257.219 126.083C257.492 126.103 257.729 125.898 257.75 125.626Z" fill="white"/>
<path d="M247.674 125.279C247.548 126.348 250.324 127.516 252.137 126.601C252.89 126.222 252.397 123.589 250.356 123.286C248.629 123.03 247.777 124.393 247.674 125.279Z" fill="white"/>
<path d="M250.787 125.239C250.761 124.432 250.084 123.796 249.275 123.823C248.466 123.849 247.831 124.526 247.857 125.333C247.884 126.141 248.56 126.778 249.368 126.751C250.177 126.725 250.813 126.048 250.787 125.239Z" fill="#80B2D5"/>
<path d="M249.535 124.141C249.527 123.868 249.298 123.655 249.024 123.663C248.752 123.673 248.538 123.9 248.546 124.174C248.555 124.446 248.783 124.66 249.056 124.651C249.329 124.643 249.545 124.415 249.535 124.141Z" fill="white"/>
<path d="M250.058 123.427C247.698 123.382 247.559 124.496 247.469 125.528C247.383 123.572 249.133 123.338 250.088 123.432C251.104 123.533 252.877 123.862 252.676 126.044C252.821 125.053 252.606 123.476 250.058 123.427Z" fill="#F5B379"/>
<path d="M258.652 125.023C256.395 124.33 255.955 125.362 255.584 126.329C256.041 124.425 257.788 124.682 258.679 125.036C259.628 125.414 261.241 126.218 260.447 128.261C260.859 127.348 261.088 125.772 258.652 125.023Z" fill="#F5B379"/>
<path d="M256.839 120.44C256.303 120.475 256.256 121.593 256.46 122.082C256.666 122.573 258.994 122.071 262.483 123.933C262.675 124.036 259.269 120.277 256.839 120.44Z" fill="#613D44"/>
<path d="M252.5 119.743C252.964 119.963 252.582 121.013 252.214 121.394C251.845 121.776 249.958 120.498 246.142 120.996C245.931 121.023 250.394 118.742 252.5 119.743Z" fill="#613D44"/>
<path d="M256.52 134.481C256.52 134.481 253.869 135 251.736 134.065C251.736 134.065 253.116 135.393 254.471 135.244C255.825 135.094 256.52 134.481 256.52 134.481Z" fill="white"/>
<path d="M252.193 124.679C251.903 124.252 251.525 123.901 251.095 123.676C250.659 123.458 250.165 123.367 249.681 123.424C249.187 123.448 248.75 123.652 248.392 123.998C248.043 124.334 247.738 124.764 247.674 125.279C247.625 124.756 247.873 124.231 248.227 123.837C248.569 123.423 249.119 123.167 249.653 123.122C250.191 123.083 250.749 123.186 251.209 123.472C251.669 123.76 252.002 124.201 252.193 124.679Z" fill="#534741"/>
<path d="M256.095 125.457C256.418 125.03 256.955 124.797 257.489 124.719C258.03 124.662 258.577 124.697 259.097 124.911C259.607 125.127 260.036 125.528 260.289 126.006C260.544 126.476 260.71 127.028 260.6 127.548C260.609 127.027 260.365 126.539 260.101 126.122C259.815 125.713 259.445 125.354 258.983 125.184C258.533 125.01 258.01 124.934 257.514 124.966C257.019 124.994 256.504 125.125 256.095 125.457Z" fill="#534741"/>
<path d="M270.8 163.445C267.206 164.906 259.227 166.093 255.118 164.244C255.118 164.244 260.243 168.281 270.8 167.688C270.8 167.688 270.567 165.801 270.8 163.445Z" fill="#D64579"/>
<path d="M248.56 186.297C248.56 186.297 245.267 170.55 245.267 162.171C245.964 162.999 245.608 156.087 248.43 152.04C251.865 155.381 252.763 178.198 255.601 184.601C253.176 185.774 248.56 186.297 248.56 186.297Z" fill="#D64579"/>
<path d="M264.72 127.511C265.739 126.93 268.669 127.312 269.036 128.984C269.498 131.083 265.408 134.759 263.606 131.908C262.856 130.721 263.838 128.014 264.72 127.511Z" fill="#F5B379"/>
<path d="M265.609 128.76C265.609 128.76 267.879 128.159 267.755 129.249C267.569 130.881 265.88 131.61 265.285 131.602C265.285 131.602 266.109 130.948 266.074 130.093C266.039 129.237 265.609 128.76 265.609 128.76Z" fill="#F29866"/>
<path d="M243.553 147.014C240.476 146.356 236.171 159.84 234.615 183.135C234.217 189.104 243.608 185.293 244.23 181.8C244.853 178.309 248.866 159.961 248.866 159.961C248.866 159.961 249.296 148.241 243.553 147.014Z" fill="#F5B379"/>
<path d="M246.586 145.931C246.586 145.931 240.679 143.719 235.43 158.522C235.43 158.522 247.712 162.822 248.865 165.595L250.408 159.94C250.408 159.94 252.927 152.394 246.586 145.931Z" fill="#EA5081"/>
<path d="M234.632 182.533C234.473 183.424 234.861 187.58 238.355 187.994C247.004 189.015 264.388 185.296 264.388 185.296C264.388 185.296 265.616 182.205 264.336 181.839C256.011 179.466 241.79 177.529 238.93 178.039C236.066 178.551 235.026 180.333 234.632 182.533Z" fill="#F5B379"/>
<path d="M234.951 184.99C234.951 184.99 238.519 186.34 243.78 186.244C249.041 186.149 264.387 185.297 264.387 185.297C264.387 185.297 243.725 189.84 237.309 187.725C236.459 187.445 235.284 186.628 234.951 184.99Z" fill="#F29866"/>
<path d="M263.623 182.004C263.856 181.253 264.113 180.362 264.854 179.957C265.263 179.734 265.759 179.69 266.208 179.59C266.814 179.457 267.412 179.295 268.008 179.119C268.443 178.989 268.769 179.508 268.642 179.878C268.396 180.587 267.924 181.153 267.233 181.462C266.787 181.662 266.26 181.696 265.843 181.946C265.423 182.196 265.154 182.666 264.81 183.016C264.459 183.377 264.015 183.078 263.925 182.688C263.694 182.568 263.524 182.321 263.623 182.004Z" fill="#F5B379"/>
<path d="M273.183 180.542C271.825 180.135 270.339 179.535 268.884 179.537C267.311 179.541 265.132 181.462 263.706 181.92C263.13 182.103 263.687 182.332 263.884 182.7C263.97 183.092 264.384 183.466 264.99 183.371C265.828 183.24 266.548 182.151 267.356 181.935C268.144 181.724 268.893 181.408 269.714 181.286C269.851 181.267 269.958 181.226 270.049 181.174C270.97 181.351 271.425 181.416 272.278 181.671C273.369 181.997 274.266 180.866 273.183 180.542Z" fill="#F5B379"/>
<path d="M273.577 182.295C272.224 181.761 270.7 181.192 269.186 181.052C267.545 180.901 265.843 182.375 264.289 182.687C263.662 182.814 263.485 183.307 263.632 183.691C263.663 184.087 264.039 184.498 264.684 184.463C265.576 184.416 266.356 183.41 267.229 183.274C268.082 183.143 268.911 182.903 269.784 182.864C269.93 182.858 270.049 182.828 270.15 182.785C271.083 183.05 271.382 183.13 272.231 183.466C273.318 183.895 274.656 182.721 273.577 182.295Z" fill="#F5B379"/>
<path d="M272.165 183.637C271.029 183.072 269.817 182.306 268.499 182.11C267.071 181.898 265.534 183.271 264.135 183.502C263.573 183.595 263.367 184.058 263.46 184.429C263.448 184.804 263.738 185.213 264.309 185.207C265.1 185.199 265.781 184.234 266.562 184.141C267.325 184.052 268.076 183.859 268.849 183.859C268.976 183.859 269.085 183.837 269.179 183.799C269.973 184.09 270.194 184.263 270.908 184.617C271.822 185.071 273.072 184.086 272.165 183.637Z" fill="#F5B379"/>
<path d="M270.5 184.73C269.527 184.2 268.241 183.461 267.09 183.248C265.845 183.016 264.482 184.283 263.241 184.441C262.739 184.506 262.536 184.904 262.6 185.234C262.57 185.562 262.829 186.118 263.321 186.199C264.959 186.471 267.353 184.718 267.603 184.752C268.287 185.032 268.618 185.273 269.23 185.606C270.011 186.034 271.275 185.153 270.5 184.73Z" fill="#F5B379"/>
<path d="M271.826 154.588L267.206 149.687C267.206 149.687 270.741 151.165 272.859 153.633L271.826 154.588Z" fill="#D64579"/>
<path d="M265.873 119.602C264.563 123.75 265.144 127.723 265.144 127.723C266.2 126.945 268.274 127.301 268.274 127.301C268.274 127.301 275.419 120.931 272.968 115.293C272.97 115.281 272.957 115.281 272.958 115.269C271.887 112.831 270.41 111.231 268.799 110.183C263.986 107.076 257.975 109.006 257.975 109.006C247.692 105.16 242.819 111.351 244.963 114.863C247.907 119.679 265.873 119.602 265.873 119.602Z" fill="#613D44"/>
</g>
</g>
</g>
<defs>
<clipPath id="clip0_4_2504">
<rect width="413" height="262" fill="white"/>
</clipPath>
</defs>
</svg>
