<svg width="24" height="26" viewBox="0 0 24 26" fill="none" xmlns="http://www.w3.org/2000/svg">
<path fill-rule="evenodd" clip-rule="evenodd" d="M12.6624 0.501868C14.2384 0.472759 15.7652 0.785373 17.2438 1.33036C19.3594 2.1101 20.9502 3.6463 22.0684 5.69739C24.6458 10.4236 24.6618 15.2476 22.0086 19.8916C20.0363 23.3429 17.0178 25.2012 13.2292 25.464C11.1678 25.6073 9.15912 25.3226 7.20159 24.6124C4.73503 23.7178 2.92049 21.9567 1.66443 19.5385C-0.782616 14.8295 -0.486331 10.204 2.2562 5.76394C3.41426 3.89012 4.96476 2.46762 7.02166 1.82199C8.33326 1.41035 9.63946 0.974957 10.9649 0.625396C11.5079 0.482462 12.0956 0.537073 12.6624 0.501868ZM22.258 12.914C22.2981 12.9084 22.3384 12.9031 22.3786 12.8972C22.2416 11.8439 22.1853 10.7689 21.9484 9.74259C21.5461 7.99927 20.6069 6.56246 19.4837 5.26473C18.6219 4.26929 17.6156 3.53048 16.3918 3.13689C13.9558 2.35255 11.5087 2.36424 9.04895 2.959C7.92383 3.23118 6.78792 3.47849 5.84742 4.28409C4.35177 5.56478 3.29928 7.18196 2.67401 9.13179C1.88647 11.5889 1.75061 14.0667 2.56488 16.5389C3.41816 19.1289 4.79493 21.3093 7.15305 22.522C9.13743 23.5419 11.2582 24.093 13.4696 24.0123C16.5578 23.9001 18.9921 22.4869 20.6413 19.5927C21.8093 17.5425 22.3352 15.3163 22.258 12.914Z" fill="white"/>
<path fill-rule="evenodd" clip-rule="evenodd" d="M7.65868 9.76134C7.65558 7.66795 9.24384 5.81901 11.3069 5.58863C13.105 5.38772 14.7084 5.82138 15.7604 7.61235C16.5242 8.91219 16.4125 10.2711 15.9536 11.6322C15.6087 12.657 14.9609 13.4637 14.2624 14.231C13.6517 14.9009 13.0692 15.6006 12.4853 16.2984C12.2335 16.5992 11.9733 16.8416 11.5764 16.6507C11.1761 16.4585 11.0913 16.0909 11.1449 15.6555C11.2576 14.7319 11.615 13.9676 12.3352 13.4221C12.7186 13.1316 13.096 12.8305 13.4597 12.512C14.1023 11.9489 14.5525 11.2487 14.7128 10.3506C14.9067 9.26698 14.5045 8.30288 13.5871 7.81624C12.5127 7.24674 11.4094 7.1563 10.2978 7.72468C9.15021 8.31097 8.63268 9.64067 9.04475 10.9377C9.13678 11.2282 9.2396 11.5247 9.26771 11.826C9.28469 12.006 9.19645 12.3345 9.10132 12.3605C8.93677 12.4054 8.64725 12.3317 8.55396 12.1933C8.05847 11.4586 7.61955 10.6834 7.65868 9.76134Z" fill="white"/>
<path fill-rule="evenodd" clip-rule="evenodd" d="M11.2941 19.3023C11.3003 18.8161 11.5783 18.3846 11.9781 18.2928C12.4858 18.1768 12.6862 18.5423 12.8751 18.9487C13.0775 19.3841 13.2902 19.8499 12.8276 20.1978C12.6057 20.3645 12.2242 20.4486 11.9738 20.3645C11.5745 20.2309 11.2629 19.896 11.2941 19.3023Z" fill="white"/>
</svg>
