<svg width="100" height="99" viewBox="0 0 100 99" fill="none" xmlns="http://www.w3.org/2000/svg">
<path d="M10.8125 49.5C10.8125 31.0268 10.8125 21.7903 16.5514 16.0514C22.2903 10.3125 31.5268 10.3125 50 10.3125C68.473 10.3125 77.7097 10.3125 83.4488 16.0514C89.1875 21.7903 89.1875 31.0268 89.1875 49.5C89.1875 67.973 89.1875 77.2097 83.4488 82.9488C77.7097 88.6875 68.473 88.6875 50 88.6875C31.5268 88.6875 22.2903 88.6875 16.5514 82.9488C10.8125 77.2097 10.8125 67.973 10.8125 49.5Z" stroke="white" stroke-width="4"/>
<path d="M41.75 37.125C41.75 32.5686 45.4435 28.875 50 28.875C54.5565 28.875 58.25 32.5686 58.25 37.125C58.25 38.7674 57.7703 40.2977 56.9428 41.5833C54.4773 45.415 50 49.0685 50 53.625V55.6875" stroke="white" stroke-width="4" stroke-linecap="round"/>
<path d="M49.9668 70.125H50.0039" stroke="white" stroke-width="4" stroke-linecap="round" stroke-linejoin="round"/>
</svg>
