<svg xmlns="http://www.w3.org/2000/svg" version="1.1" xmlns:xlink="http://www.w3.org/1999/xlink" width="512" height="512" x="0" y="0" viewBox="0 0 512 512" style="enable-background:new 0 0 512 512" xml:space="preserve" class=""><g><path fill="#a8ebfa" d="M256 449.043c-29.472 0-57.797 57.951-84.168 48.745C71.893 462.899 0 367.687 0 256 0 114.841 114.841 0 256 0c32.933 0 64.433 6.251 93.377 17.628 95.117 37.39-6.249 165.627-6.249 165.627S510.712 285.6 508.242 299.853c-15.644 90.255-78.715 164.46-162.517 195.922-27.935 10.487-58.172-46.732-89.725-46.732z" opacity="1" data-original="#a8ebfa" class=""></path><path fill="#7dd5f4" d="M343.128 183.255s101.366-128.237 6.249-165.627C320.434 6.251 288.934 0 256.002 0v449.043c31.552.002 61.789 57.219 89.723 46.732 83.803-31.462 146.873-105.667 162.517-195.922 2.47-14.253-165.114-116.598-165.114-116.598z" opacity="1" data-original="#7dd5f4" class=""></path><path fill="#bee75e" d="m349.375 17.633-61.491 32.922c-16.226 8.688-26.92 6.632-39.306 4.252-15.957-3.065-35.818-6.883-59.755 15.435-17.9 16.69-11.65 40.66-6.628 59.92 2.83 10.853 5.741 22.016 3.653 28.187-2.546-.71-5.948-1.888-8.685-2.835-20.099-6.957-57.511-19.908-95.838 12.442-21.934 18.513-17.049 40.272-12.324 61.315 3.433 15.292 7.324 32.625 4.147 55.054-.778 5.494-1.647 10.856-2.488 16.042-2.849 17.581-5.54 34.188-3.441 49.458 2.558 18.61 11.89 32.99 28.528 43.962 13.119 8.651 27.693 8.982 40.552 9.275 17.268.393 26.618 1.153 33.905 13.065 9.246 15.116 6.335 40.001 3.52 64.067-.675 5.769-1.361 11.667-1.886 17.576C198.21 506.977 226.528 512 256 512c31.382 0 61.458-5.688 89.266-16.068 4.538-15.164 2.018-27.307.174-36.161-1.46-7.012-2.099-10.527-.684-13.783 2.569-5.91 10.001-10.924 17.869-16.231 13.408-9.045 33.67-22.714 28.821-49.361-4.037-22.18-25.873-35.159-46.989-47.71-27.613-16.412-45.774-28.742-46.594-49.748-.054-1.391-.219-5.623 6.016-11.19 12.629-11.279 38.08-16.62 53.247-14.424.848 2.125 1.542 7.038 2.019 10.418 2.015 14.271 5.387 38.157 33.396 46.88 25.238 7.86 47.589-1.792 65.548-9.549 9.425-4.07 18.347-7.906 24.173-7.625 8.827.435 17.455 1.269 25.967 2.403A256.651 256.651 0 0 0 512 256c0-108.226-67.508-200.977-162.625-238.367z" opacity="1" data-original="#bee75e" class=""></path><path fill="#00cb75" d="m349.375 17.633-61.491 32.922c-12.919 6.917-22.331 7.022-31.882 5.577V512c31.382 0 61.457-5.689 89.264-16.068 4.538-15.164 2.018-27.307.174-36.161-1.46-7.012-2.099-10.527-.684-13.783 2.569-5.91 10.001-10.924 17.869-16.231 13.408-9.045 33.67-22.714 28.821-49.361-4.037-22.18-25.873-35.159-46.989-47.71-27.613-16.412-45.774-28.742-46.594-49.748-.054-1.391-.219-5.623 6.016-11.19 12.629-11.279 38.08-16.62 53.247-14.424.848 2.125 1.542 7.038 2.019 10.418 2.015 14.271 5.387 38.157 33.396 46.88 25.238 7.86 47.589-1.792 65.548-9.549 9.425-4.07 18.347-7.906 24.173-7.625 8.827.435 17.455 1.269 25.967 2.403A256.651 256.651 0 0 0 512 256c0-108.226-67.508-200.977-162.625-238.367z" opacity="1" data-original="#00cb75" class=""></path><path fill="#ff6b6b" d="M369.466 159.345c-30.097-30.098-79.069-30.098-109.166 0l-4.3 4.301-4.301-4.301c-14.531-14.531-33.915-22.534-54.582-22.534-.001 0 0 0 0 0-20.666 0-40.052 8.004-54.583 22.534-30.096 30.097-30.096 79.068.03 109.195l102.86 102.285c2.925 2.909 6.751 4.364 10.577 4.364s7.651-1.455 10.577-4.364l102.89-102.315C383.997 253.98 392 234.596 392 213.928c0-20.667-8.002-40.052-22.534-54.583z" opacity="1" data-original="#ff6b6b" class=""></path><path fill="#ff405c" d="M369.466 159.345c-30.097-30.098-79.069-30.098-109.166 0l-4.299 4.299v211.545a14.95 14.95 0 0 0 10.575-4.364l102.89-102.315C383.997 253.98 392 234.596 392 213.928c0-20.667-8.002-40.052-22.534-54.583z" opacity="1" data-original="#ff405c" class=""></path></g></svg>