<svg width="318" height="377" viewBox="0 0 318 377" fill="none" xmlns="http://www.w3.org/2000/svg">
<g clip-path="url(#clip0_4_2101)">
<mask id="mask0_4_2101" style="mask-type:luminance" maskUnits="userSpaceOnUse" x="-261" y="-83" width="658" height="566">
<path d="M397 -83H-261V483H397V-83Z" fill="white"/>
</mask>
<g mask="url(#mask0_4_2101)">
<mask id="mask1_4_2101" style="mask-type:luminance" maskUnits="userSpaceOnUse" x="-182" y="-14" width="500" height="500">
<path d="M-182 -14H318V486H-182V-14Z" fill="white"/>
</mask>
<g mask="url(#mask1_4_2101)">
<mask id="mask2_4_2101" style="mask-type:luminance" maskUnits="userSpaceOnUse" x="-190" y="9" width="516" height="356">
<path d="M-189.5 9.73999H325.5V364.74H-189.5V9.73999Z" fill="white"/>
</mask>
<g mask="url(#mask2_4_2101)">
<path d="M-84.7996 130.13C-86.014 125.263 -83.049 120.326 -78.1826 119.112L343.948 13.7689C348.814 12.5545 353.752 15.5196 354.966 20.3859L410.8 244.126C412.015 248.993 409.05 253.93 404.183 255.144L-17.9474 360.487C-22.8137 361.701 -27.7507 358.736 -28.9651 353.87L-84.7996 130.13Z" fill="#F7FAFD"/>
<path d="M-78.1829 119.113C-83.0523 120.328 -86.015 125.261 -84.7999 130.131L-78.4738 155.48L361.292 45.7367L354.966 20.3868C353.751 15.5174 348.817 12.5547 343.948 13.7698L-78.1829 119.113Z" fill="#E5F8F8"/>
<path d="M12.6366 179.525C11.4981 174.962 14.2778 170.334 18.84 169.196L151.1 136.19C155.662 135.051 160.291 137.831 161.429 142.393C162.568 146.955 159.788 151.584 155.226 152.722L22.9657 185.728C18.4035 186.867 13.7751 184.087 12.6366 179.525Z" fill="white"/>
<path d="M18.8247 204.324C17.7622 200.065 20.3566 195.746 24.6146 194.683L128.219 168.829C132.477 167.766 136.796 170.36 137.859 174.618C138.922 178.876 136.327 183.196 132.069 184.259L28.4653 210.113C24.2072 211.176 19.8873 208.582 18.8247 204.324Z" fill="white"/>
<path d="M24.6006 227.47C23.538 223.211 26.1325 218.892 30.3905 217.829L133.994 191.975C138.252 190.912 142.572 193.506 143.635 197.764C144.697 202.022 142.103 206.342 137.845 207.405L34.2411 233.259C29.9831 234.322 25.6632 231.728 24.6006 227.47Z" fill="white"/>
</g>
<path d="M278.897 191.024C278.897 191.024 291.185 163.464 290.672 158.63C290.159 153.796 278.466 133.363 278.466 133.363C278.466 133.363 278.352 129.657 276.897 126.575C275.441 123.49 273.729 122.569 272.305 122.783C270.882 122.998 271.921 127.704 271.093 128.293C270.265 128.883 269.858 127.469 268.914 127.673C267.971 127.879 269.751 131.498 271.224 132.511C272.697 133.524 273.595 135.139 273.595 135.139C273.595 135.139 278.608 154.473 278.604 156.909C278.603 159.347 267.862 182.256 267.862 182.256L278.897 191.024Z" fill="#FFB27D"/>
<path d="M226.283 129.942C226.283 129.942 224.025 149.783 224.254 152.19C224.487 154.594 235.313 175.61 235.312 175.612L227.198 185.922C227.198 185.922 214.681 160.547 214.647 155.696C214.611 150.843 222.172 128.915 222.172 128.915C222.172 128.915 221.919 125.237 222.811 121.976C223.703 118.714 225.005 117.547 226.176 117.545C227.35 117.545 226.948 122.349 227.671 122.806C228.398 123.266 228.597 121.808 229.379 121.87C230.162 121.928 229.059 125.77 227.959 126.99C226.859 128.21 226.283 129.942 226.283 129.942Z" fill="#FFB27D"/>
<path d="M260.572 327.076L252.628 288.108C252.628 288.108 263.821 280.279 269.133 285.351C274.445 290.423 268.698 327.076 268.698 327.076H260.572Z" fill="#FFB27D"/>
<path d="M228.752 327.14L228.501 286.356C228.501 286.356 241.09 281.056 245.217 287.13C249.344 293.206 235.8 326.539 235.8 326.539L228.752 327.14Z" fill="#FFB27D"/>
<path d="M224.285 329.714C227.345 329.047 228.727 326.351 228.727 326.351L236.23 325.377C236.23 325.377 238.476 327.184 238.592 329.428C238.644 330.455 238.766 331.795 238.881 332.946C239.017 334.262 237.984 335.405 236.659 335.405H221.122C219.652 335.405 218.811 333.733 219.679 332.544C220.706 331.136 222.358 330.135 224.285 329.714Z" fill="#D3671E"/>
<path d="M258.066 292.433C260.296 291.447 261.557 288.942 262.003 285.52C263.166 276.615 258.828 261.488 251.747 250.736C243.911 238.836 235.814 236.138 229.888 237.339L224.665 289.171C224.665 289.171 228.974 291.365 235.05 292.965C236.248 293.282 237.512 293.576 238.825 293.824C244.83 294.961 251.863 295.175 258.066 292.433Z" fill="#35488B"/>
<path d="M258.067 292.433C260.297 291.447 261.557 288.942 262.004 285.519C261.627 275.852 252.683 258.401 244.729 246.325C242.243 249.237 233.857 270.194 235.052 292.964C236.249 293.281 237.514 293.575 238.827 293.823C244.831 294.96 251.863 295.175 258.067 292.433Z" fill="#2C3A64"/>
<path d="M255.968 329.713C259.028 329.046 260.41 326.352 260.41 326.352L269.025 324.876C269.025 324.876 270.162 327.183 270.278 329.427C270.33 330.453 270.451 331.795 270.567 332.946C270.699 334.262 269.666 335.404 268.345 335.404H252.808C251.335 335.404 250.494 333.733 251.362 332.544C252.389 331.136 254.041 330.134 255.968 329.713Z" fill="#D3671E"/>
<path d="M258.529 129.998C261.004 132.404 263.576 132.526 265.41 135.364C267.32 138.325 268.505 141.398 267.544 145.561C266.496 150.109 266.706 154.509 263.851 157.846C262.439 159.501 260.134 159.688 258.529 161.205C255.578 163.992 252.227 164.876 248.402 164.876C241.193 164.876 236.706 160.604 233.016 155.282C230.059 151.018 230.645 148.146 229.951 144.498C227.77 133.016 237.344 126.248 248.402 126.248C251.857 126.248 256.199 127.735 258.529 129.998Z" fill="#35488B"/>
<path d="M246.783 295.938L239.924 239.334C239.924 239.334 264.872 232.182 268.7 236.141C272.524 240.097 277.282 294.352 277.282 294.352C261.312 299.357 246.783 295.938 246.783 295.938Z" fill="#35488B"/>
<path d="M252.037 179.564L238.256 172.521C239.768 171.293 240.583 169.553 240.987 167.733C241.455 165.614 241.373 163.38 241.18 161.725C241.001 160.194 240.734 159.157 240.734 159.157L251.963 153.408C251.754 156.345 251.916 158.997 252.249 161.276C253.042 166.695 254.798 170.005 254.798 170.005L252.037 179.564Z" fill="#FFB27D"/>
<path d="M270.078 201L268.427 212.293L272.97 237.523C273.009 237.743 273.032 237.964 273.032 238.181C273.032 239.869 271.88 241.385 270.184 241.793C270.184 241.793 269.794 241.86 269.075 241.959C264.26 242.634 244.706 244.968 229.379 240.805C225.934 239.869 229.189 231.798 229.475 228.235L230.241 191.756C229.649 186.998 224.701 184.768 224.701 184.768C220.125 176.043 227.358 165.123 227.358 165.123L238.529 170.72C239.002 170.61 239.488 170.522 239.977 170.459C239.917 172.439 240.467 174.247 243.944 174.702C248.57 175.305 252.706 172.147 254.798 170.002C254.798 170.002 259.928 170.888 261.759 171.569C263.981 172.386 263.876 172.125 266.3 173.661L273.928 173.538C277.488 177.905 284.591 183.558 284.591 183.558C284.591 183.558 280.953 191.698 279.269 193.171C276.75 195.375 275.875 195.875 272.01 199.404L270.078 201Z" fill="#FFB93E"/>
<path d="M269.071 241.958C264.035 239.171 258.267 228.827 258.071 220.024C257.729 204.473 269.837 199.286 269.837 199.286C269.837 199.286 269.875 199.404 269.949 199.625L268.425 212.293L272.967 237.522C273.006 237.742 273.027 237.964 273.027 238.181C273.027 239.869 271.877 241.385 270.181 241.793C270.181 241.793 269.79 241.859 269.071 241.958Z" fill="#FFA412"/>
<path d="M252.249 161.277C252.249 161.277 247.372 167.563 240.987 167.733C241.457 165.614 241.372 163.38 241.182 161.725L252.249 161.277Z" fill="#E8945B"/>
<path d="M254.786 155.659C254.483 165.596 240.378 163.879 240.378 163.879C233.886 163.177 234.351 149.249 235.26 145.959C236.169 142.666 237.461 139.502 245.285 139.357C249.209 139.285 255.086 145.721 254.786 155.659Z" fill="#FFB27D"/>
<path d="M240.756 159.159C243.846 159.387 244.154 158.148 244.154 158.148C240.787 156.661 238.258 157.603 238.258 157.603C238.162 158.968 240.756 159.159 240.756 159.159Z" fill="white"/>
<path d="M251.076 147.716C253.845 139.439 241.791 139.447 241.791 139.447L256.177 138.869L257.929 145.384L255.134 153.743C255.134 153.743 249.33 152.933 251.076 147.716Z" fill="#35488B"/>
<mask id="mask3_4_2101" style="mask-type:luminance" maskUnits="userSpaceOnUse" x="209" y="72" width="54" height="54">
<path d="M209.303 72.918H262.303V125.918H209.303V72.918Z" fill="white"/>
</mask>
<g mask="url(#mask3_4_2101)">
<path d="M254.656 107.266C258.953 96.8909 254.026 84.9966 243.65 80.6996C233.275 76.4025 221.38 81.33 217.083 91.7056C212.786 102.081 217.714 113.975 228.089 118.272C238.465 122.57 250.359 117.642 254.656 107.266Z" fill="#B64C41"/>
<path d="M221.293 93.8618C221.293 105.016 230.334 114.058 241.488 114.058C245.758 114.058 249.715 112.73 252.975 110.47C249.36 116.097 243.044 119.827 235.858 119.827C224.63 119.827 215.524 110.724 215.524 99.4928C215.524 92.3032 219.253 85.9895 224.88 82.3714C222.62 85.6339 221.293 89.5939 221.293 93.8618Z" fill="#AA413E"/>
</g>
<mask id="mask4_4_2101" style="mask-type:luminance" maskUnits="userSpaceOnUse" x="60" y="230" width="59" height="101">
<path d="M60.8889 230.961H118.889V330.961H60.8889V230.961Z" fill="white"/>
</mask>
<g mask="url(#mask4_4_2101)">
<path d="M77.6016 323.09L85.5454 284.122C85.5454 284.122 74.3527 276.293 69.0409 281.365C63.7291 286.437 69.476 323.09 69.476 323.09H77.6016Z" fill="#FFB27D"/>
<path d="M109.422 323.154L109.673 282.37C109.673 282.37 97.0845 277.07 92.9575 283.144C88.8305 289.22 102.374 322.553 102.374 322.553L109.422 323.154Z" fill="#FFB27D"/>
<path d="M113.889 325.728C110.83 325.061 109.448 322.365 109.448 322.365L101.945 321.391C101.945 321.391 99.6989 323.198 99.5831 325.442C99.5308 326.469 99.4093 327.809 99.2934 328.96C99.1582 330.276 100.191 331.419 101.515 331.419H117.053C118.523 331.419 119.364 329.747 118.496 328.558C117.469 327.15 115.817 326.149 113.889 325.728Z" fill="#B64C41"/>
<path d="M80.1067 288.446C77.8768 287.46 76.6159 284.955 76.1694 281.533C75.0051 272.628 79.3422 257.501 86.4261 246.749C94.262 234.849 102.36 232.151 108.286 233.352L113.509 285.184C113.509 285.184 109.199 287.378 103.123 288.978C101.925 289.295 100.661 289.589 99.3478 289.837C93.343 290.974 86.3102 291.188 80.1067 288.446Z" fill="#35488B"/>
<path d="M80.1072 288.447C77.8773 287.461 76.6164 284.956 76.1699 281.533C76.5471 271.866 85.4906 254.415 93.4446 242.339C95.9313 245.251 104.317 266.208 103.122 288.978C101.925 289.295 100.66 289.589 99.3471 289.837C93.3424 290.974 86.3107 291.189 80.1072 288.447Z" fill="#2C3A64"/>
<path d="M82.2056 325.727C79.1465 325.06 77.764 322.366 77.764 322.366L69.1488 320.89C69.1488 320.89 68.0117 323.197 67.8958 325.441C67.8436 326.468 67.7232 327.809 67.6073 328.96C67.4755 330.276 68.5081 331.418 69.8293 331.418H85.3659C86.8393 331.418 87.6799 329.747 86.812 328.558C85.7851 327.15 84.1334 326.148 82.2056 325.727Z" fill="#B64C41"/>
<path d="M91.3877 291.952L98.2467 235.348C98.2467 235.348 73.3008 228.197 69.4737 232.153C65.6466 236.11 60.8892 290.365 60.8892 290.365C76.8586 295.37 91.3877 291.952 91.3877 291.952Z" fill="#35488B"/>
</g>
<path d="M84.9547 178.053L98.2069 171.28C96.7528 170.098 95.969 168.428 95.5805 166.677C95.1261 164.639 95.2091 162.491 95.3931 160.899C95.5635 159.426 95.8225 158.429 95.8225 158.429L85.0262 152.901C85.2296 155.726 85.0705 158.276 84.7513 160.467C83.9891 165.679 82.301 168.86 82.301 168.86L84.9547 178.053Z" fill="#FFB27D"/>
<path d="M56.3722 152.399C62.3224 157.315 74.5523 173.149 74.5523 173.149C74.5523 173.149 75.5576 184.044 68.6577 183.321C61.7578 182.602 51.9771 163.187 48.8248 157.402C45.6725 151.618 42.6826 132.105 42.6826 132.105C42.6826 132.105 46.9084 129.682 47.5696 131.003C48.2307 132.325 56.3722 152.399 56.3722 152.399Z" fill="#FFB27D"/>
<path d="M47.3869 127.157C47.0291 128.969 47.4732 130.974 47.4732 130.974L42.9134 132.353C42.9134 132.353 40.5472 128.95 39.526 125.285C38.507 121.62 39.0886 119.743 40.2201 119.066C41.3492 118.389 43.7336 123.256 44.6969 123.281C45.6602 123.306 45.0139 121.786 45.8045 121.392C46.5951 120.998 47.7447 125.345 47.3869 127.157Z" fill="#FFB27D"/>
<path d="M117.872 156.64C116.793 158.804 99.1521 174.543 99.1521 174.543L103.031 187.074C103.031 187.074 123.813 167.871 125.584 163.356C127.357 158.84 128.158 135.66 128.158 135.66L123.954 135.144C123.954 135.144 118.949 154.476 117.872 156.64Z" fill="#FFB27D"/>
<path d="M123.448 131.79C124.038 133.324 123.955 135.147 123.955 135.147L128.159 135.662C128.159 135.662 129.714 132.32 130.05 128.955C130.387 125.59 129.59 124.035 128.498 123.614C127.401 123.192 126.055 127.82 125.216 127.988C124.373 128.156 124.709 126.724 123.957 126.501C123.205 126.275 122.859 130.257 123.448 131.79Z" fill="#FFB27D"/>
<path d="M115.928 177.37C115.928 177.37 109.293 181.851 109.219 182.953C109.145 184.057 108.85 190.314 108.852 190.316L111.971 229.453C112.246 232.881 110.063 236.044 106.748 236.945C92.0065 240.948 73.2073 238.704 68.576 238.054C67.8819 237.958 67.507 237.894 67.507 237.894C65.8769 237.504 64.7682 236.045 64.7682 234.423C64.7682 234.214 64.7864 234.001 64.825 233.789L69.1951 209.527L67.7274 197.346L66.8936 191.401L65.2817 185.441C62.3759 181.249 57.4321 176.722 57.4321 176.722C58.6408 165.172 66.3041 162.961 66.3041 162.961L72.8461 168.84C74.5921 168.892 76.2268 169.729 76.2268 169.729C79.6051 168.627 82.3008 168.861 82.3008 168.861C84.3137 170.923 88.2896 173.958 92.7392 173.38C96.0824 172.945 96.5777 171.144 96.5197 169.239C96.5197 169.239 100.476 168.944 101.797 169.3C101.797 169.3 102.962 169.11 104.503 169.019L112.244 162.086C112.244 162.086 117.324 168.991 115.928 177.37Z" fill="#A8D29F"/>
<path d="M68.57 238.054C73.416 235.372 74.2441 228.196 74.5361 219.735C74.9076 208.895 67.8293 197.02 67.8293 197.02C67.8293 197.02 67.793 197.133 67.7214 197.345L69.1891 209.526L64.819 233.789C64.7827 234.002 64.7622 234.213 64.7622 234.422C64.7622 236.044 65.8709 237.503 67.501 237.894C67.501 237.894 67.8793 237.957 68.57 238.054Z" fill="#82B479"/>
<path d="M84.752 160.466C84.752 160.466 89.4401 166.511 95.58 166.676C95.1256 164.638 95.2097 162.491 95.3937 160.899L84.752 160.466Z" fill="#EA9C68"/>
<mask id="mask5_4_2101" style="mask-type:luminance" maskUnits="userSpaceOnUse" x="72" y="128" width="32" height="36">
<path d="M72.3799 128.969H103.38V163.969H72.3799V128.969Z" fill="white"/>
</mask>
<g mask="url(#mask5_4_2101)">
<path d="M82.1482 156.554C86.3718 166.29 98.6198 163.057 98.6198 163.057C105.377 161.334 102.774 146.686 101.318 143.346C99.858 140.003 95.0426 136.841 86.7489 137.872C82.5913 138.386 77.5885 146.044 82.1482 156.554Z" fill="#FFB27D"/>
<path d="M97.5065 158.129C94.277 158.839 93.7646 157.575 93.7646 157.575C97.0964 155.494 99.9125 156.107 99.9102 156.105C100.218 157.534 97.5065 158.129 97.5065 158.129Z" fill="white"/>
<mask id="mask6_4_2101" style="mask-type:luminance" maskUnits="userSpaceOnUse" x="72" y="128" width="32" height="32">
<path d="M72.4419 128.964H103.442V159.964H72.4419V128.964Z" fill="white"/>
</mask>
<g mask="url(#mask6_4_2101)">
<path d="M83.133 153.49C82.9592 155.739 84.3973 159.955 84.3973 159.955C70.4317 151.582 67.3532 134.816 82.4332 130.047C97.5109 125.272 106.41 137.63 102.742 140.793C99.074 143.957 90.7076 141.363 88.447 141.11C86.1864 140.857 85.5208 148.864 85.0936 149.338C84.6665 149.808 83.6623 147.399 81.8005 148.406C79.9363 149.414 83.133 153.49 83.133 153.49Z" fill="#2C3A64"/>
<path d="M75.0445 133.129C74.3117 134.583 74.9945 136.62 74.9945 136.62C74.9945 136.62 76.6541 136.915 75.8669 136.026C75.0797 135.134 75.0445 133.129 75.0445 133.129Z" fill="#2C3A64"/>
<path d="M72.5637 136.417C73.4418 134.982 75.3082 135.194 75.3082 135.194L75.2071 136.471C73.8769 135.527 72.5637 136.417 72.5637 136.417Z" fill="#2C3A64"/>
</g>
</g>
</g>
</g>
</g>
<defs>
<clipPath id="clip0_4_2101">
<rect width="318" height="377" fill="white"/>
</clipPath>
</defs>
</svg>
