<svg width="163" height="193" viewBox="0 0 163 193" fill="none" xmlns="http://www.w3.org/2000/svg">
<g clip-path="url(#clip0_579_2368)">
<mask id="mask0_579_2368" style="mask-type:luminance" maskUnits="userSpaceOnUse" x="-134" y="-43" width="338" height="291">
<path d="M203.494 -42.4907H-133.783V247.265H203.494V-42.4907Z" fill="white"/>
</mask>
<g mask="url(#mask0_579_2368)">
<mask id="mask1_579_2368" style="mask-type:luminance" maskUnits="userSpaceOnUse" x="-94" y="-8" width="257" height="257">
<path d="M-93.2893 -7.16711H163V248.801H-93.2893V-7.16711Z" fill="white"/>
</mask>
<g mask="url(#mask1_579_2368)">
<mask id="mask2_579_2368" style="mask-type:luminance" maskUnits="userSpaceOnUse" x="-98" y="4" width="265" height="183">
<path d="M-97.1335 4.98621H166.844V186.724H-97.1335V4.98621Z" fill="white"/>
</mask>
<g mask="url(#mask2_579_2368)">
<path d="M-43.4653 66.5769C-44.0883 64.0848 -42.5693 61.557 -40.0753 60.9358L176.271 7.04795C178.765 6.42673 181.296 7.94574 181.919 10.4378L210.567 125.018C211.19 127.51 209.671 130.038 207.176 130.659L-9.16988 184.547C-11.6639 185.168 -14.1948 183.649 -14.8178 181.157L-43.4653 66.5769Z" fill="#F7FAFD"/>
<path d="M-40.0747 60.9637C-42.5706 61.5856 -44.0887 64.1127 -43.4651 66.6076L-40.219 79.5961L185.191 23.429L181.945 10.4406C181.321 7.94564 178.792 6.42706 176.296 7.04898L-40.0747 60.9637Z" fill="#E5F8F8"/>
<path d="M6.47868 91.902C5.89449 89.5647 7.31876 87.1939 9.65715 86.6113L77.4489 69.7203C79.7873 69.1377 82.1602 70.5623 82.7444 72.8996C83.3286 75.237 81.9044 77.6077 79.566 78.1904L11.7742 95.0814C9.43578 95.664 7.06287 94.2394 6.47868 91.902Z" fill="white"/>
<path d="M9.65054 104.598C9.10529 102.416 10.4346 100.204 12.6171 99.66L65.7204 86.4292C67.9029 85.8854 70.1176 87.2151 70.6629 89.3965C71.2081 91.5779 69.8788 93.7905 67.6963 94.3343L14.593 107.565C12.4105 108.109 10.1958 106.779 9.65054 104.598Z" fill="white"/>
<path d="M12.6112 116.447C12.066 114.266 13.3953 112.053 15.5778 111.509L68.6811 98.2786C70.8636 97.7348 73.0783 99.0644 73.6235 101.246C74.1688 103.427 72.8395 105.64 70.657 106.184L17.5537 119.414C15.3712 119.958 13.1565 118.629 12.6112 116.447Z" fill="white"/>
</g>
<path d="M142.962 97.7937C142.962 97.7937 149.252 83.6859 148.989 81.2109C148.725 78.7359 142.731 68.2728 142.731 68.2728C142.731 68.2728 142.672 66.3756 141.926 64.7973C141.179 63.2179 140.302 62.7457 139.573 62.8553C138.844 62.965 139.377 65.3742 138.953 65.6761C138.529 65.9779 138.32 65.254 137.836 65.3581C137.353 65.4633 138.266 67.3166 139.021 67.8355C139.775 68.3543 140.236 69.1811 140.236 69.1811C140.236 69.1811 142.808 79.0803 142.806 80.3277C142.806 81.576 137.307 93.3027 137.307 93.3027L142.962 97.7937Z" fill="#FFB27D"/>
<path d="M115.993 66.5218C115.993 66.5218 114.832 76.6801 114.949 77.912C115.068 79.1432 120.61 89.9 120.61 89.901L116.45 95.1807C116.45 95.1807 110.042 82.1924 110.025 79.7093C110.008 77.2248 113.887 65.9968 113.887 65.9968C113.887 65.9968 113.758 64.1142 114.216 62.4442C114.674 60.7742 115.341 60.1763 115.941 60.1752C116.542 60.1747 116.335 62.6342 116.706 62.8685C117.078 63.1034 117.18 62.357 117.581 62.3885C117.982 62.4183 117.416 64.3852 116.852 65.0102C116.288 65.6351 115.993 66.5218 115.993 66.5218Z" fill="#FFB27D"/>
<path d="M133.564 167.442L129.492 147.493C129.492 147.493 135.229 143.485 137.952 146.082C140.675 148.678 137.729 167.442 137.729 167.442H133.564Z" fill="#FFB27D"/>
<path d="M117.253 167.475L117.125 146.596C117.125 146.596 123.578 143.883 125.693 146.992C127.808 150.103 120.866 167.167 120.866 167.167L117.253 167.475Z" fill="#FFB27D"/>
<path d="M114.964 168.793C116.532 168.451 117.241 167.071 117.241 167.071L121.087 166.572C121.087 166.572 122.238 167.498 122.297 168.646C122.324 169.172 122.386 169.858 122.446 170.447C122.515 171.121 121.986 171.706 121.307 171.706H113.342C112.589 171.706 112.158 170.85 112.603 170.241C113.129 169.521 113.976 169.008 114.964 168.793Z" fill="#D3671E"/>
<path d="M132.279 149.707C133.422 149.202 134.069 147.92 134.297 146.168C134.893 141.609 132.67 133.865 129.04 128.361C125.024 122.269 120.873 120.888 117.836 121.502L115.159 148.037C115.159 148.037 117.367 149.161 120.482 149.979C121.096 150.142 121.744 150.292 122.417 150.419C125.495 151.001 129.099 151.111 132.279 149.707Z" fill="#35488B"/>
<path d="M132.28 149.707C133.423 149.202 134.069 147.92 134.298 146.168C134.104 141.219 129.52 132.285 125.443 126.103C124.169 127.594 119.87 138.322 120.483 149.979C121.096 150.141 121.745 150.292 122.418 150.419C125.496 151.001 129.1 151.111 132.28 149.707Z" fill="#2C3A64"/>
<path d="M131.204 168.792C132.772 168.451 133.481 167.071 133.481 167.071L137.897 166.316C137.897 166.316 138.48 167.497 138.539 168.645C138.566 169.171 138.627 169.858 138.687 170.447C138.754 171.121 138.225 171.705 137.548 171.705H129.584C128.829 171.705 128.398 170.85 128.843 170.241C129.369 169.521 130.216 169.008 131.204 168.792Z" fill="#D3671E"/>
<path d="M132.517 66.5507C133.785 67.7824 135.104 67.8446 136.043 69.2979C137.023 70.8134 137.63 72.3865 137.138 74.5178C136.6 76.8463 136.708 79.0986 135.245 80.8072C134.521 81.6545 133.339 81.7499 132.517 82.5268C131.004 83.9534 129.286 84.4058 127.326 84.4058C123.63 84.4058 121.331 82.2192 119.439 79.4947C117.924 77.3116 118.224 75.8414 117.868 73.9735C116.75 68.0958 121.658 64.631 127.326 64.631C129.097 64.631 131.322 65.3922 132.517 66.5507Z" fill="#35488B"/>
<path d="M126.496 151.501L122.98 122.524C122.98 122.524 135.768 118.862 137.73 120.889C139.69 122.914 142.129 150.69 142.129 150.69C133.943 153.252 126.496 151.501 126.496 151.501Z" fill="#35488B"/>
<path d="M129.189 91.9256L122.125 88.32C122.9 87.6913 123.317 86.8004 123.525 85.8688C123.765 84.7836 123.723 83.6403 123.624 82.793C123.532 82.0091 123.395 81.4781 123.395 81.4781L129.151 78.5349C129.044 80.0388 129.127 81.3961 129.297 82.5633C129.704 85.3372 130.604 87.0319 130.604 87.0319L129.189 91.9256Z" fill="#FFB27D"/>
<path d="M138.436 102.899L137.59 108.681L139.919 121.597C139.939 121.709 139.95 121.822 139.95 121.933C139.95 122.798 139.36 123.574 138.491 123.783C138.491 123.783 138.291 123.817 137.922 123.868C135.454 124.213 125.431 125.408 117.575 123.277C115.809 122.798 117.477 118.666 117.624 116.842L118.017 98.1668C117.713 95.7313 115.177 94.5897 115.177 94.5897C112.831 90.1229 116.539 84.5325 116.539 84.5325L122.265 87.3977C122.508 87.3413 122.756 87.2966 123.007 87.264C122.976 88.2776 123.258 89.2034 125.041 89.4361C127.412 89.7449 129.532 88.1282 130.604 87.0302C130.604 87.0302 133.234 87.4838 134.172 87.8322C135.311 88.2509 135.257 88.1171 136.5 88.9034L140.41 88.8406C142.235 91.076 145.876 93.9698 145.876 93.9698C145.876 93.9698 144.01 98.1371 143.148 98.8914C141.856 100.02 141.408 100.275 139.427 102.082L138.436 102.899Z" fill="#FFB93E"/>
<path d="M137.92 123.867C135.339 122.44 132.382 117.145 132.282 112.638C132.107 104.677 138.313 102.022 138.313 102.022C138.313 102.022 138.332 102.082 138.37 102.195L137.589 108.68L139.917 121.596C139.937 121.709 139.948 121.822 139.948 121.933C139.948 122.797 139.358 123.574 138.489 123.783C138.489 123.783 138.289 123.816 137.92 123.867Z" fill="#FFA412"/>
<path d="M129.298 82.5632C129.298 82.5632 126.798 85.7815 123.525 85.8687C123.766 84.7836 123.722 83.6403 123.625 82.7929L129.298 82.5632Z" fill="#E8945B"/>
<path d="M130.598 79.6875C130.443 84.7748 123.212 83.8955 123.212 83.8955C119.885 83.5361 120.123 76.4058 120.589 74.7217C121.055 73.0358 121.717 71.4162 125.728 71.3417C127.739 71.3051 130.752 74.6001 130.598 79.6875Z" fill="#FFB27D"/>
<path d="M123.407 81.4792C124.99 81.5961 125.148 80.9617 125.148 80.9617C123.422 80.2004 122.126 80.6825 122.126 80.6825C122.077 81.3815 123.407 81.4792 123.407 81.4792Z" fill="white"/>
<path d="M128.696 75.621C130.116 71.3839 123.937 71.3879 123.937 71.3879L131.311 71.0919L132.209 74.4271L130.776 78.7067C130.776 78.7067 127.801 78.292 128.696 75.621Z" fill="#35488B"/>
<mask id="mask3_579_2368" style="mask-type:luminance" maskUnits="userSpaceOnUse" x="107" y="37" width="28" height="28">
<path d="M107.284 37.3293H134.451V64.462H107.284V37.3293Z" fill="white"/>
</mask>
<g mask="url(#mask3_579_2368)">
<path d="M130.529 54.9111C132.733 49.598 130.209 43.5089 124.892 41.3105C119.575 39.1121 113.479 41.6368 111.275 46.9499C109.071 52.2629 111.594 58.352 116.911 60.5504C122.228 62.7489 128.325 60.2241 130.529 54.9111Z" fill="#B64C41"/>
<path d="M113.43 48.0513C113.43 53.7614 118.064 58.3905 123.782 58.3905C125.97 58.3905 127.998 57.7107 129.67 56.5534C127.817 59.4344 124.579 61.3436 120.896 61.3436C115.141 61.3436 110.473 56.6837 110.473 50.934C110.473 47.2534 112.384 44.0212 115.269 42.1689C114.11 43.8391 113.43 45.8664 113.43 48.0513Z" fill="#AA413E"/>
</g>
<mask id="mask4_579_2368" style="mask-type:luminance" maskUnits="userSpaceOnUse" x="31" y="118" width="30" height="52">
<path d="M31.2104 118.237H60.94V169.431H31.2104V118.237Z" fill="white"/>
</mask>
<g mask="url(#mask4_579_2368)">
<path d="M39.777 165.402L43.8489 145.452C43.8489 145.452 38.1117 141.444 35.389 144.041C32.6663 146.638 35.612 165.402 35.612 165.402H39.777Z" fill="#FFB27D"/>
<path d="M56.0876 165.434L56.2163 144.556C56.2163 144.556 49.7635 141.842 47.6481 144.952C45.5327 148.062 52.4746 165.127 52.4746 165.127L56.0876 165.434Z" fill="#FFB27D"/>
<path d="M58.3774 166.752C56.8093 166.411 56.1007 165.031 56.1007 165.031L52.2548 164.532C52.2548 164.532 51.1036 165.457 51.0442 166.606C51.0174 167.131 50.9551 167.817 50.8958 168.407C50.8265 169.081 51.3558 169.666 52.0347 169.666H59.999C60.7525 169.666 61.1834 168.81 60.7385 168.201C60.2121 167.48 59.3655 166.968 58.3774 166.752Z" fill="#B64C41"/>
<path d="M41.0612 147.666C39.9182 147.161 39.2718 145.879 39.043 144.127C38.4462 139.568 40.6693 131.824 44.3004 126.32C48.3169 120.228 52.4679 118.847 55.5051 119.461L58.1824 145.996C58.1824 145.996 55.9732 147.119 52.8586 147.938C52.2449 148.101 51.5968 148.251 50.9237 148.378C47.8458 148.96 44.241 149.07 41.0612 147.666Z" fill="#35488B"/>
<path d="M41.0614 147.666C39.9184 147.162 39.272 145.879 39.0432 144.127C39.2365 139.178 43.8208 130.244 47.8979 124.062C49.1725 125.553 53.4708 136.281 52.8582 147.938C52.2445 148.101 51.5965 148.251 50.9233 148.378C47.8454 148.96 44.2412 149.07 41.0614 147.666Z" fill="#2C3A64"/>
<path d="M42.1371 166.751C40.569 166.41 39.8604 165.031 39.8604 165.031L35.4444 164.275C35.4444 164.275 34.8615 165.456 34.8022 166.605C34.7754 167.131 34.7136 167.817 34.6543 168.406C34.5867 169.08 35.116 169.665 35.7932 169.665H43.7569C44.5122 169.665 44.943 168.809 44.4982 168.201C43.9718 167.48 43.1252 166.967 42.1371 166.751Z" fill="#B64C41"/>
<path d="M46.8436 149.461L50.3594 120.483C50.3594 120.483 37.5726 116.822 35.6109 118.848C33.6493 120.873 31.2107 148.648 31.2107 148.648C39.3963 151.211 46.8436 149.461 46.8436 149.461Z" fill="#35488B"/>
</g>
<path d="M43.546 91.1519L50.3388 87.6842C49.5935 87.0794 49.1917 86.2245 48.9926 85.3278C48.7597 84.2845 48.8022 83.1848 48.8965 82.37C48.9838 81.6158 49.1166 81.1058 49.1166 81.1058L43.5827 78.2754C43.6869 79.7217 43.6054 81.0273 43.4418 82.1491C43.0511 84.8172 42.1858 86.4455 42.1858 86.4455L43.546 91.1519Z" fill="#FFB27D"/>
<path d="M28.8954 78.0187C31.9454 80.5351 38.2141 88.6412 38.2141 88.6412C38.2141 88.6412 38.7294 94.2188 35.1927 93.8484C31.656 93.4802 26.6426 83.5411 25.0268 80.5798C23.411 77.6186 21.8784 67.6294 21.8784 67.6294C21.8784 67.6294 24.0445 66.389 24.3834 67.0653C24.7222 67.7417 28.8954 78.0187 28.8954 78.0187Z" fill="#FFB27D"/>
<path d="M24.2896 65.0963C24.1061 66.0239 24.3338 67.0503 24.3338 67.0503L21.9966 67.7563C21.9966 67.7563 20.7837 66.014 20.2602 64.1379C19.7379 62.2619 20.036 61.3006 20.616 60.954C21.1948 60.6074 22.417 63.0993 22.9107 63.1121C23.4045 63.1249 23.0732 62.3468 23.4785 62.145C23.8837 61.9432 24.473 64.1687 24.2896 65.0963Z" fill="#FFB27D"/>
<path d="M60.4185 80.1897C59.8654 81.2976 50.8232 89.3549 50.8232 89.3549L52.8117 95.7699C52.8117 95.7699 63.4638 85.9395 64.3716 83.6278C65.2805 81.3162 65.691 69.4492 65.691 69.4492L63.536 69.1852C63.536 69.1852 60.9705 79.0819 60.4185 80.1897Z" fill="#FFB27D"/>
<path d="M63.2769 67.4681C63.5791 68.2532 63.5366 69.1866 63.5366 69.1866L65.6916 69.4501C65.6916 69.4501 66.4887 67.7391 66.6611 66.0166C66.8334 64.2941 66.4253 63.4979 65.8651 63.2822C65.3032 63.0664 64.6132 65.4357 64.1829 65.5217C63.7509 65.6078 63.9232 64.8745 63.5378 64.7605C63.1523 64.6448 62.9747 66.6831 63.2769 67.4681Z" fill="#FFB27D"/>
<path d="M59.4223 90.802C59.4223 90.802 56.0213 93.0962 55.9834 93.6603C55.9456 94.2256 55.7942 97.4287 55.7953 97.4299L57.3943 117.465C57.5352 119.22 56.4161 120.839 54.717 121.301C47.1608 123.35 37.5248 122.201 35.1508 121.869C34.7951 121.819 34.6029 121.787 34.6029 121.787C33.7673 121.587 33.199 120.84 33.199 120.009C33.199 119.902 33.2084 119.794 33.2282 119.685L35.4682 107.264L34.7159 101.028L34.2885 97.9852L33.4622 94.9339C31.9728 92.788 29.4387 90.4705 29.4387 90.4705C30.0583 84.5574 33.9863 83.4257 33.9863 83.4257L37.3396 86.4352C38.2346 86.4619 39.0724 86.8905 39.0724 86.8905C40.8041 86.3264 42.1859 86.4462 42.1859 86.4462C43.2177 87.5017 45.2556 89.0556 47.5364 88.7596C49.25 88.5369 49.5039 87.6146 49.4742 86.6393C49.4742 86.6393 51.5022 86.4887 52.1794 86.6707C52.1794 86.6707 52.7763 86.5736 53.5664 86.5271L57.534 82.9779C57.534 82.9779 60.1379 86.5125 59.4223 90.802Z" fill="#A8D29F"/>
<path d="M35.1476 121.868C37.6316 120.495 38.056 116.822 38.2057 112.49C38.3961 106.941 34.7679 100.862 34.7679 100.862C34.7679 100.862 34.7493 100.919 34.7126 101.028L35.4649 107.264L33.2249 119.685C33.2063 119.794 33.1958 119.902 33.1958 120.009C33.1958 120.84 33.7641 121.586 34.5997 121.786C34.5997 121.786 34.7936 121.819 35.1476 121.868Z" fill="#82B479"/>
<path d="M43.4421 82.1486C43.4421 82.1486 45.8452 85.243 48.9924 85.3273C48.7595 84.284 48.8026 83.1849 48.8969 82.3701L43.4421 82.1486Z" fill="#EA9C68"/>
<mask id="mask5_579_2368" style="mask-type:luminance" maskUnits="userSpaceOnUse" x="37" y="66" width="16" height="18">
<path d="M37.1006 66.0238H52.9905V83.9416H37.1006V66.0238Z" fill="white"/>
</mask>
<g mask="url(#mask5_579_2368)">
<path d="M42.1077 80.1455C44.2726 85.1299 50.5507 83.4748 50.5507 83.4748C54.0141 82.5926 52.6801 75.0936 51.9336 73.3839C51.1854 71.6724 48.7171 70.0539 44.466 70.5814C42.3348 70.8448 39.7705 74.765 42.1077 80.1455Z" fill="#FFB27D"/>
<path d="M49.9798 80.9519C48.3244 81.3154 48.0618 80.6681 48.0618 80.6681C49.7696 79.6027 51.213 79.9168 51.2119 79.9156C51.3697 80.6472 49.9798 80.9519 49.9798 80.9519Z" fill="white"/>
<mask id="mask6_579_2368" style="mask-type:luminance" maskUnits="userSpaceOnUse" x="37" y="66" width="17" height="16">
<path d="M37.1323 66.0212H53.0223V81.8913H37.1323V66.0212Z" fill="white"/>
</mask>
<g mask="url(#mask6_579_2368)">
<path d="M42.6122 78.5767C42.5231 79.7282 43.2603 81.8863 43.2603 81.8863C36.1018 77.5998 34.5238 69.0167 42.2535 66.5754C49.9821 64.1312 54.5436 70.4572 52.6634 72.0768C50.7833 73.6964 46.4948 72.3688 45.3361 72.2391C44.1774 72.1094 43.8362 76.2087 43.6172 76.4512C43.3983 76.692 42.8836 75.4585 41.9292 75.9743C40.9737 76.4902 42.6122 78.5767 42.6122 78.5767Z" fill="#2C3A64"/>
<path d="M38.4663 68.1536C38.0907 68.8979 38.4407 69.9407 38.4407 69.9407C38.4407 69.9407 39.2914 70.0919 38.8879 69.6365C38.4844 69.18 38.4663 68.1536 38.4663 68.1536Z" fill="#2C3A64"/>
<path d="M37.1948 69.8365C37.6449 69.102 38.6016 69.2108 38.6016 69.2108L38.5498 69.8644C37.8679 69.3811 37.1948 69.8365 37.1948 69.8365Z" fill="#2C3A64"/>
</g>
</g>
</g>
</g>
</g>
<defs>
<clipPath id="clip0_579_2368">
<rect width="163" height="193" fill="white"/>
</clipPath>
</defs>
</svg>
