<svg width="24" height="24" viewBox="0 0 24 24" fill="none" xmlns="http://www.w3.org/2000/svg">
<path d="M15.6001 10.8C15.6001 11.7548 15.2208 12.6705 14.5457 13.3456C13.8706 14.0207 12.9549 14.4 12.0001 14.4C11.0454 14.4 10.1297 14.0207 9.45455 13.3456C8.77942 12.6705 8.40013 11.7548 8.40013 10.8C8.40013 9.84522 8.77942 8.92955 9.45455 8.25441C10.1297 7.57928 11.0454 7.2 12.0001 7.2C12.9549 7.2 13.8706 7.57928 14.5457 8.25441C15.2208 8.92955 15.6001 9.84522 15.6001 10.8ZM14.4001 10.8C14.4001 10.1635 14.1473 9.55303 13.6972 9.10294C13.2471 8.65285 12.6367 8.4 12.0001 8.4C11.3636 8.4 10.7532 8.65285 10.3031 9.10294C9.85299 9.55303 9.60013 10.1635 9.60013 10.8C9.60013 11.4365 9.85299 12.047 10.3031 12.4971C10.7532 12.9471 11.3636 13.2 12.0001 13.2C12.6367 13.2 13.2471 12.9471 13.6972 12.4971C14.1473 12.047 14.4001 11.4365 14.4001 10.8ZM17.9401 16.746C19.5156 15.1697 20.4007 13.0323 20.4007 10.8036C20.4007 8.57494 19.5156 6.4375 17.9401 4.8612C17.1603 4.08081 16.2343 3.46174 15.2151 3.03937C14.1958 2.61699 13.1034 2.3996 12.0001 2.3996C10.8969 2.3996 9.80441 2.61699 8.7852 3.03937C7.76599 3.46174 6.83999 4.08081 6.06013 4.8612C4.48464 6.4375 3.59961 8.57494 3.59961 10.8036C3.59961 13.0323 4.48464 15.1697 6.06013 16.746L7.88533 18.5448L10.3369 20.9268L10.4965 21.0684C11.4265 21.822 12.7885 21.774 13.6645 20.9268L16.5865 18.0828L17.9401 16.746ZM6.90613 5.7072C7.57498 5.03805 8.36911 4.50724 9.24315 4.14509C10.1172 3.78293 11.054 3.59653 12.0001 3.59653C12.9462 3.59653 13.8831 3.78293 14.7571 4.14509C15.6312 4.50724 16.4253 5.03805 17.0941 5.7072C18.4078 7.02174 19.1631 8.79278 19.2024 10.6508C19.2418 12.5088 18.5622 14.3102 17.3053 15.6792L17.0941 15.9L15.5089 17.4648L12.8329 20.0676L12.7201 20.1636C12.5125 20.3198 12.2597 20.4041 11.9999 20.4039C11.7401 20.4037 11.4875 20.3189 11.2801 20.1624L11.1685 20.0664L7.59253 16.5804L6.90613 15.9L6.69493 15.6804C5.43811 14.3114 4.75847 12.51 4.79782 10.652C4.83717 8.79398 5.59247 7.02174 6.90613 5.7072Z" fill="#454545"/>
</svg>
