<svg width="126" height="116" viewBox="0 0 126 116" fill="none" xmlns="http://www.w3.org/2000/svg">
<g clip-path="url(#clip0_448_95)">
<mask id="mask0_448_95" style="mask-type:luminance" maskUnits="userSpaceOnUse" x="-75" y="-83" width="272" height="273">
<path d="M196.922 -82.7492H-74.6946V189.303H196.922V-82.7492Z" fill="white"/>
</mask>
<g mask="url(#mask0_448_95)">
<mask id="mask1_448_95" style="mask-type:alpha" maskUnits="userSpaceOnUse" x="9" y="-5" width="123" height="96">
<path d="M99.5926 -4.5342L20.3711 -3.40065L9.90249 10.1075L9.71387 82.5603L35.7438 90.4951L54.0402 76.1368C54.0402 76.1368 73.7513 56.3941 75.9205 69.241C78.0896 82.088 91.2932 82.7492 91.2932 82.7492L102.988 88.228L131.658 60.0782L99.5926 -4.5342Z" fill="#E2AAAF"/>
</mask>
<g mask="url(#mask1_448_95)">
<path d="M62.6503 19.3852C47.6763 19.3852 35.2612 30.0822 32.9852 44.0762C38.9472 44.7288 44.1759 48.8575 45.8225 54.8574L48.4142 64.2991C50.5611 72.1214 45.8063 80.1601 37.794 82.2599C29.7817 84.3547 21.5456 79.7113 19.3987 71.8894L16.8074 62.4473C15.1329 56.345 17.6578 50.1109 22.6525 46.6686C23.7405 26.0233 41.2322 9.61024 62.6503 9.61024C84.0688 9.61024 101.561 26.0237 102.649 46.6698C107.643 50.112 110.169 56.3461 108.493 62.448L105.902 71.8901C104.091 78.4885 97.9503 82.8221 91.2644 82.7601C88.9485 88.5851 86.27 92.568 82.6375 94.936C79.1582 97.2008 75.3846 97.5363 72.2384 97.5828C71.2089 100.431 68.4259 102.474 65.1537 102.474H55.1409C50.9931 102.474 47.631 99.1925 47.631 95.1423V90.2567C47.631 86.2069 50.9931 82.9256 55.1409 82.9256H65.1537C68.4165 82.9256 71.1927 84.9581 72.229 87.7957C74.7916 87.7342 75.9961 87.5067 77.0834 86.8001C78.2472 86.0418 79.9018 84.2515 81.8499 79.4222C77.4463 75.8783 75.3133 70.0315 76.8864 64.3003L79.4777 54.8578C81.1248 48.8575 86.3542 44.7295 92.3165 44.0766C90.0402 30.0829 77.6251 19.3852 62.6503 19.3852ZM30.019 53.9313C27.3484 54.63 25.7636 57.31 26.4796 59.9168L29.0709 69.3597C29.7862 71.9669 32.5318 73.5141 35.2027 72.8155C37.8732 72.1169 39.458 69.4368 38.7424 66.8292L36.1507 57.3875C35.4355 54.78 32.6899 53.2323 30.019 53.9313ZM89.1499 57.3879L86.5586 66.8296C85.8422 69.4375 87.4282 72.1172 90.0987 72.8159C92.7696 73.5149 95.5144 71.9672 96.2301 69.3601L98.8221 59.918C99.5374 57.3104 97.9526 54.6303 95.2817 53.9321C92.6108 53.233 89.8652 54.7807 89.1499 57.3879Z" fill="white"/>
</g>
<path d="M91.2647 82.7601C88.9488 88.5851 86.2703 92.568 82.6378 94.936C79.1585 97.2008 75.3849 97.5364 72.2387 97.5828C71.2092 100.431 68.4263 102.474 65.154 102.474H55.1412C50.9934 102.474 47.6313 99.1925 47.6313 95.1423V90.2567C47.6313 86.2069 50.9934 82.9256 55.1412 82.9256H65.154C68.4168 82.9256 71.193 84.9581 72.2293 87.7958C74.7919 87.7342 75.9964 87.5067 77.0837 86.8001C78.2475 86.0418 79.9021 84.2515 81.8502 79.4222C85.2574 67.2573 94.5943 76.3257 91.2647 82.7601Z" fill="white"/>
</g>
</g>
<defs>
<clipPath id="clip0_448_95">
<rect width="126" height="116" fill="white"/>
</clipPath>
</defs>
</svg>
