<svg width="100" height="100" viewBox="0 0 100 100" fill="none" xmlns="http://www.w3.org/2000/svg">
<mask id="path-1-inside-1_448_547" fill="white">
<path d="M95.5829 89.9567V47.2792C95.5829 45.0518 93.5979 43.246 91.1487 43.246H70.0911V31.6342C70.0911 30.5375 69.4377 29.5267 68.3852 28.9926L51.2873 20.3205C51.193 20.2725 51.0957 20.2305 50.9978 20.1918V15.2429H60.2049C60.9393 15.2429 61.5351 14.701 61.5351 14.0328V7.92084C61.5351 7.25264 60.9393 6.71076 60.2049 6.71076H50.9978V6.16393C50.9978 5.49573 50.4025 4.95386 49.6676 4.95386C48.9326 4.95386 48.3373 5.49573 48.3373 6.16393V20.1918C48.2394 20.2308 48.1421 20.2728 48.0476 20.3205L30.9496 28.9929C29.8961 29.5267 29.2432 30.5377 29.2432 31.6345V43.246H8.18511C5.73594 43.246 3.75095 45.0518 3.75095 47.2792V89.9564C1.86696 90.7318 0.555664 92.4552 0.555664 94.4577C0.555664 97.1866 2.9877 99.3983 5.98776 99.3983H93.3458C96.3458 99.3983 98.7779 97.1866 98.7779 94.4577C98.7776 92.4552 97.4666 90.7318 95.5829 89.9567ZM78.4423 57.3036C78.4423 56.0062 79.5989 54.9543 81.0265 54.9543H85.8565C87.2828 54.9543 88.4397 56.0062 88.4397 57.3036V61.6969C88.4397 62.9944 87.2828 64.0462 85.8565 64.0462H81.0267C79.5991 64.0462 78.4426 62.9944 78.4426 61.6969V57.3036H78.4423ZM78.4423 71.4193C78.4423 70.1219 79.5989 69.07 81.0265 69.07H85.8565C87.2828 69.07 88.4397 70.1219 88.4397 71.4193V75.8122C88.4397 77.1096 87.2828 78.1615 85.8565 78.1615H81.0267C79.5991 78.1615 78.4426 77.1096 78.4426 75.8122V71.4193H78.4423ZM62.9225 57.3036C62.9225 56.0062 64.0786 54.9543 65.5051 54.9543H70.3357C71.7615 54.9543 72.9186 56.0062 72.9186 57.3036V61.6969C72.9186 62.9944 71.7615 64.0462 70.3357 64.0462H65.5051C64.0786 64.0462 62.9225 62.9944 62.9225 61.6969V57.3036ZM62.9225 71.4193C62.9225 70.1219 64.0786 69.07 65.5051 69.07H70.3357C71.7615 69.07 72.9186 70.1219 72.9186 71.4193V75.8122C72.9186 77.1096 71.7615 78.1615 70.3357 78.1615H65.5051C64.0786 78.1615 62.9225 77.1096 62.9225 75.8122V71.4193ZM49.6668 31.6437C53.7079 31.6437 56.9839 34.6229 56.9839 38.2983C56.9839 41.9736 53.7081 44.9526 49.6668 44.9526C45.6257 44.9526 42.3499 41.9733 42.3499 38.298C42.3499 34.6227 45.6257 31.6437 49.6668 31.6437ZM42.3398 69.8459C42.3398 68.5484 43.4961 67.4965 44.9237 67.4965H54.4101C55.8369 67.4965 56.9933 68.5484 56.9933 69.8459V88.3547C56.9933 88.7782 56.8689 89.1751 56.6526 89.5184H42.6819C42.4657 89.1751 42.3406 88.7782 42.3406 88.3547L42.3398 69.8459ZM26.4145 57.3036C26.4145 56.0062 27.5708 54.9543 28.9973 54.9543H33.8277C35.2542 54.9543 36.4105 56.0062 36.4105 57.3036V61.6969C36.4105 62.9944 35.2542 64.0462 33.8277 64.0462H28.9973C27.5708 64.0462 26.4145 62.9944 26.4145 61.6969V57.3036ZM26.4145 71.4193C26.4145 70.1219 27.5708 69.07 28.9973 69.07H33.8277C35.2542 69.07 36.4105 70.1219 36.4105 71.4193V75.8122C36.4105 77.1096 35.2542 78.1615 33.8277 78.1615H28.9973C27.5708 78.1615 26.4145 77.1096 26.4145 75.8122V71.4193ZM10.8931 57.3036C10.8931 56.0062 12.0494 54.9543 13.4768 54.9543H18.3066C19.7336 54.9543 20.8902 56.0062 20.8902 57.3036V61.6969C20.8902 62.9944 19.7336 64.0462 18.3066 64.0462H13.477C12.0497 64.0462 10.8934 62.9944 10.8934 61.6969V57.3036H10.8931ZM10.8931 71.4193C10.8931 70.1219 12.0494 69.07 13.4768 69.07H18.3066C19.7336 69.07 20.8902 70.1219 20.8902 71.4193V75.8122C20.8902 77.1096 19.7336 78.1615 18.3066 78.1615H13.477C12.0497 78.1615 10.8934 77.1096 10.8934 75.8122V71.4193H10.8931Z"/>
</mask>
<path d="M95.5829 89.9567V47.2792C95.5829 45.0518 93.5979 43.246 91.1487 43.246H70.0911V31.6342C70.0911 30.5375 69.4377 29.5267 68.3852 28.9926L51.2873 20.3205C51.193 20.2725 51.0957 20.2305 50.9978 20.1918V15.2429H60.2049C60.9393 15.2429 61.5351 14.701 61.5351 14.0328V7.92084C61.5351 7.25264 60.9393 6.71076 60.2049 6.71076H50.9978V6.16393C50.9978 5.49573 50.4025 4.95386 49.6676 4.95386C48.9326 4.95386 48.3373 5.49573 48.3373 6.16393V20.1918C48.2394 20.2308 48.1421 20.2728 48.0476 20.3205L30.9496 28.9929C29.8961 29.5267 29.2432 30.5377 29.2432 31.6345V43.246H8.18511C5.73594 43.246 3.75095 45.0518 3.75095 47.2792V89.9564C1.86696 90.7318 0.555664 92.4552 0.555664 94.4577C0.555664 97.1866 2.9877 99.3983 5.98776 99.3983H93.3458C96.3458 99.3983 98.7779 97.1866 98.7779 94.4577C98.7776 92.4552 97.4666 90.7318 95.5829 89.9567ZM78.4423 57.3036C78.4423 56.0062 79.5989 54.9543 81.0265 54.9543H85.8565C87.2828 54.9543 88.4397 56.0062 88.4397 57.3036V61.6969C88.4397 62.9944 87.2828 64.0462 85.8565 64.0462H81.0267C79.5991 64.0462 78.4426 62.9944 78.4426 61.6969V57.3036H78.4423ZM78.4423 71.4193C78.4423 70.1219 79.5989 69.07 81.0265 69.07H85.8565C87.2828 69.07 88.4397 70.1219 88.4397 71.4193V75.8122C88.4397 77.1096 87.2828 78.1615 85.8565 78.1615H81.0267C79.5991 78.1615 78.4426 77.1096 78.4426 75.8122V71.4193H78.4423ZM62.9225 57.3036C62.9225 56.0062 64.0786 54.9543 65.5051 54.9543H70.3357C71.7615 54.9543 72.9186 56.0062 72.9186 57.3036V61.6969C72.9186 62.9944 71.7615 64.0462 70.3357 64.0462H65.5051C64.0786 64.0462 62.9225 62.9944 62.9225 61.6969V57.3036ZM62.9225 71.4193C62.9225 70.1219 64.0786 69.07 65.5051 69.07H70.3357C71.7615 69.07 72.9186 70.1219 72.9186 71.4193V75.8122C72.9186 77.1096 71.7615 78.1615 70.3357 78.1615H65.5051C64.0786 78.1615 62.9225 77.1096 62.9225 75.8122V71.4193ZM49.6668 31.6437C53.7079 31.6437 56.9839 34.6229 56.9839 38.2983C56.9839 41.9736 53.7081 44.9526 49.6668 44.9526C45.6257 44.9526 42.3499 41.9733 42.3499 38.298C42.3499 34.6227 45.6257 31.6437 49.6668 31.6437ZM42.3398 69.8459C42.3398 68.5484 43.4961 67.4965 44.9237 67.4965H54.4101C55.8369 67.4965 56.9933 68.5484 56.9933 69.8459V88.3547C56.9933 88.7782 56.8689 89.1751 56.6526 89.5184H42.6819C42.4657 89.1751 42.3406 88.7782 42.3406 88.3547L42.3398 69.8459ZM26.4145 57.3036C26.4145 56.0062 27.5708 54.9543 28.9973 54.9543H33.8277C35.2542 54.9543 36.4105 56.0062 36.4105 57.3036V61.6969C36.4105 62.9944 35.2542 64.0462 33.8277 64.0462H28.9973C27.5708 64.0462 26.4145 62.9944 26.4145 61.6969V57.3036ZM26.4145 71.4193C26.4145 70.1219 27.5708 69.07 28.9973 69.07H33.8277C35.2542 69.07 36.4105 70.1219 36.4105 71.4193V75.8122C36.4105 77.1096 35.2542 78.1615 33.8277 78.1615H28.9973C27.5708 78.1615 26.4145 77.1096 26.4145 75.8122V71.4193ZM10.8931 57.3036C10.8931 56.0062 12.0494 54.9543 13.4768 54.9543H18.3066C19.7336 54.9543 20.8902 56.0062 20.8902 57.3036V61.6969C20.8902 62.9944 19.7336 64.0462 18.3066 64.0462H13.477C12.0497 64.0462 10.8934 62.9944 10.8934 61.6969V57.3036H10.8931ZM10.8931 71.4193C10.8931 70.1219 12.0494 69.07 13.4768 69.07H18.3066C19.7336 69.07 20.8902 70.1219 20.8902 71.4193V75.8122C20.8902 77.1096 19.7336 78.1615 18.3066 78.1615H13.477C12.0497 78.1615 10.8934 77.1096 10.8934 75.8122V71.4193H10.8931Z" stroke="#5A4BB2" stroke-width="6" mask="url(#path-1-inside-1_448_547)"/>
</svg>
