<svg width="123" height="96" viewBox="0 0 123 96" fill="none" xmlns="http://www.w3.org/2000/svg">
<path d="M26.2726 75.8706C24.8017 78.7043 22.1037 80.2548 17.4778 80.2548C12.5847 80.2548 8.38196 77.9578 8.38196 71.6063C8.38196 65.1953 12.0347 61.469 17.1768 61.469C22.4003 61.469 25.0413 63.5545 26.0939 66.9245L21.17 69.4294C20.8392 67.3439 19.4728 66.1208 17.9586 66.1208C16.1831 66.1208 14.1745 67.6396 14.1745 70.6523C14.1745 73.8435 15.8108 75.3041 17.8665 75.3041C19.5379 75.3041 20.8702 74.291 21.4089 72.828L26.2726 75.8706Z" fill="#2F977E"/>
<path d="M26.2726 75.8706C24.8017 78.7043 22.1037 80.2548 17.4778 80.2548C12.5847 80.2548 8.38196 77.9578 8.38196 71.6063C8.38196 65.1953 12.0347 61.469 17.1768 61.469C22.4003 61.469 25.0413 63.5545 26.0939 66.9245L21.17 69.4294C20.8392 67.3439 19.4728 66.1208 17.9586 66.1208C16.1831 66.1208 14.1745 67.6396 14.1745 70.6523C14.1745 73.8435 15.8108 75.3041 17.8665 75.3041C19.5379 75.3041 20.8702 74.291 21.4089 72.828L26.2726 75.8706Z" stroke="#2F977E" stroke-width="1.5" stroke-miterlimit="10"/>
<path d="M26.7047 64.6617L32.1309 63.277C32.1309 63.277 33.1301 69.5797 33.9027 74.1685C34.1395 75.5833 35.0987 76.2382 36.8215 75.9509C38.6311 75.6502 39.4936 74.8464 39.2564 73.432C38.4834 68.84 37.3606 62.5305 37.3606 62.5305L43.192 60.9868C43.192 60.9868 44.0245 69.0247 44.8003 73.6307C45.4339 77.404 42.271 79.7045 37.998 80.4124C33.0808 81.2291 29.5134 79.7414 28.8958 76.0736C28.0978 71.3247 26.7047 64.6617 26.7047 64.6617Z" fill="#2F977E"/>
<path d="M26.7047 64.6617L32.1309 63.277C32.1309 63.277 33.1301 69.5797 33.9027 74.1685C34.1395 75.5833 35.0987 76.2382 36.8215 75.9509C38.6311 75.6502 39.4936 74.8464 39.2564 73.432C38.4834 68.84 37.3606 62.5305 37.3606 62.5305L43.192 60.9868C43.192 60.9868 44.0245 69.0247 44.8003 73.6307C45.4339 77.404 42.271 79.7045 37.998 80.4124C33.0808 81.2291 29.5134 79.7414 28.8958 76.0736C28.0978 71.3247 26.7047 64.6617 26.7047 64.6617Z" stroke="#2F977E" stroke-width="1.5" stroke-miterlimit="10"/>
<path d="M60.702 61.0213L60.0712 65.5843L52.301 65.613L52.2694 67.8804L59.2023 68.1479L59.1726 72.2631L52.301 71.9945L52.2413 74.4402L60.8832 75.0067L60.2216 80.1647L47.5245 79.3597L46.4731 61.648L60.702 61.0213Z" fill="#2F977E"/>
<path d="M60.702 61.0213L60.0712 65.5843L52.301 65.613L52.2694 67.8804L59.2023 68.1479L59.1726 72.2631L52.301 71.9945L52.2413 74.4402L60.8832 75.0067L60.2216 80.1647L47.5245 79.3597L46.4731 61.648L60.702 61.0213Z" stroke="#2F977E" stroke-width="1.5" stroke-miterlimit="10"/>
<path d="M67.9676 79.9859L62.3228 80.3722L63.8241 61.0498L68.8019 61.8854L74.7197 71.462L74.8104 61.5291L80.2124 61.1087L79.1627 79.9245L74.0392 80.7615L67.9954 69.774L67.9676 79.9859Z" fill="#2F977E"/>
<path d="M67.9676 79.9859L62.3228 80.3722L63.8241 61.0498L68.8019 61.8854L74.7197 71.462L74.8104 61.5291L80.2124 61.1087L79.1627 79.9245L74.0392 80.7615L67.9954 69.774L67.9676 79.9859Z" stroke="#2F977E" stroke-width="1.5" stroke-miterlimit="10"/>
<path d="M81.2941 61.7966L97.4127 60.4563L97.3222 65.4942L92.7023 65.7618L93.2711 79.5083L87.5069 79.0017L86.9664 65.8817L82.0444 66.4785L81.2941 61.7966Z" fill="#2F977E"/>
<path d="M81.2941 61.7966L97.4127 60.4563L97.3222 65.4942L92.7023 65.7618L93.2711 79.5083L87.5069 79.0017L86.9664 65.8817L82.0444 66.4785L81.2941 61.7966Z" stroke="#2F977E" stroke-width="2" stroke-miterlimit="10"/>
<path d="M97.0222 72.0156C97.0222 66.1395 100.569 62.5603 106.455 62.5603C112.363 62.5603 114.618 65.9607 114.618 72.8181C114.618 78.7776 111.33 81.3163 105.525 81.3163C99.9962 81.3163 97.0222 78.4254 97.0222 72.0156ZM102.731 72.0429C102.731 75.1184 104.172 76.6058 106.305 76.6058C108.137 76.6058 109.035 75.4256 109.035 71.984C109.035 69.4206 108.737 67.3324 106.635 67.3324C104.172 67.3326 102.731 69.0019 102.731 72.0429Z" fill="#2F977E"/>
<path d="M97.0222 72.0156C97.0222 66.1395 100.569 62.5603 106.455 62.5603C112.363 62.5603 114.618 65.9607 114.618 72.8181C114.618 78.7776 111.33 81.3163 105.525 81.3163C99.9962 81.3163 97.0222 78.4254 97.0222 72.0156ZM102.731 72.0429C102.731 75.1184 104.172 76.6058 106.305 76.6058C108.137 76.6058 109.035 75.4256 109.035 71.984C109.035 69.4206 108.737 67.3324 106.635 67.3324C104.172 67.3326 102.731 69.0019 102.731 72.0429Z" stroke="#2F977E" stroke-width="2" stroke-miterlimit="10"/>
<path d="M14.8347 19.6031L29.2526 14.641L38.2924 28.8774L43.2322 12.313L58.408 11.6562L46.8347 38.6151L49.1618 55.1967L36.4725 55.8502L33.9882 40.5734L14.8347 19.6031Z" fill="#490D7A"/>
<path d="M56.9268 35.0361C58.4808 23.2262 66.5526 16.966 78.3834 18.4997C90.2567 20.0403 93.8949 27.4626 92.0822 41.2483C90.5059 53.2212 83.2238 57.468 71.5575 55.9535C60.447 54.5114 55.2328 47.9228 56.9268 35.0361ZM68.3965 36.5864C67.5845 42.7632 70.0814 46.1322 74.3715 46.6884C78.0542 47.1632 80.1688 45.0292 81.0819 38.1102C81.76 32.9561 81.7119 28.6834 77.4854 28.1358C72.5375 27.4942 69.2009 30.473 68.3965 36.5864Z" fill="#490D7A"/>
</svg>
