<svg width="275" height="93" viewBox="0 0 275 93" fill="none" xmlns="http://www.w3.org/2000/svg">
<path d="M262.37 62.2786C262.065 63.0369 261.741 63.7124 261.481 64.4123C261.332 64.8159 261.157 65.0018 260.684 64.9991C256.81 64.9773 252.935 64.9868 249 64.9868C249 60.0539 249 55.142 249 50.166C249.623 50.166 250.292 50.166 251.031 50.166C251.031 54.3706 251.031 58.6261 251.031 62.9814C253.698 62.9814 256.301 62.9814 258.96 62.9814C258.96 63.5066 258.96 63.9332 258.96 64.6169C259.923 62.514 260.798 60.6548 261.63 58.7764C262.688 56.387 263.712 53.9821 264.75 51.5839C264.796 51.4779 264.842 51.3719 264.889 51.2666C265.376 50.19 266.241 49.774 267.356 50.1179C267.511 50.1656 267.658 50.3642 267.732 50.5279C269.113 53.5941 270.483 56.6647 271.851 59.7366C272.564 61.3371 273.269 62.941 273.97 64.5466C274.014 64.6475 273.992 64.7773 274 64.885C273.93 64.9246 273.883 64.9735 273.834 64.9754C271.592 65.061 271.591 65.0607 270.629 62.5538C270.485 62.1793 270.349 61.8019 270.199 61.4002C267.852 61.4002 265.528 61.4322 263.204 61.3803C262.525 61.3651 262.62 61.9035 262.37 62.2786ZM265.502 54.9438C264.873 56.412 264.245 57.8802 263.595 59.3988C265.535 59.3988 267.402 59.3988 269.357 59.3988C268.392 57.1749 267.438 54.9789 266.446 52.6935C266.12 53.5011 265.852 54.1647 265.502 54.9438Z" fill="white"/>
<path d="M173.387 84.0072C172.981 83.2026 172.62 82.4495 172.147 81.4622C172.147 85.4571 172.147 89.1903 172.147 92.9851C171.404 92.9851 170.728 92.9851 170 92.9851C170 87.3978 170 81.7788 170 76.0352C170.455 76.0352 170.949 75.9708 171.421 76.0629C171.65 76.1078 171.907 76.3987 172.035 76.6566C173.839 80.2836 175.623 83.924 177.491 87.7201C177.88 87.0087 178.247 86.3975 178.563 85.7522C180.002 82.8097 181.49 79.8961 182.826 76.8909C183.392 75.6187 184.212 76.2005 185 76C185 81.7137 185 87.3333 185 93C184.369 93 183.749 93 183.098 93C183.015 89.1815 182.931 85.3752 182.845 81.4361C182.111 82.9137 181.416 84.3058 180.728 85.7027C179.892 87.4002 179.072 89.1089 178.223 90.7975C177.944 91.3526 177.029 91.2508 176.735 90.6652C175.634 88.4633 174.532 86.261 173.387 84.0072Z" fill="white"/>
<path d="M76.1392 83.9612C75.5863 83.2088 75.0804 82.5017 74.4735 81.6536C74.4735 85.5037 74.4735 89.1935 74.4735 92.9454C73.622 92.9454 72.8417 92.9454 72 92.9454C72 87.6885 72 82.3885 72 77.0908C73.1794 76.8378 74.0278 77.0854 74.822 78.1898C77.2617 81.5826 79.8505 84.8627 82.3837 88.1847C82.4503 88.2721 82.5433 88.3383 82.7186 88.5036C82.7186 84.6325 82.7186 80.877 82.7186 77.0713C83.5077 77.0713 84.2288 77.0713 85 77.0713C85 82.3414 85 87.6194 85 92.9632C84.0324 92.996 83.1704 93.2077 82.3872 92.0767C80.557 89.4339 78.5158 86.9446 76.5568 84.3958C76.448 84.2541 76.3103 84.1357 76.1392 83.9612Z" fill="white"/>
<path d="M236.432 78.4106C238.86 81.73 241.241 85.0007 243.716 88.4008C243.716 84.2272 243.716 80.1998 243.716 76.1202C244.508 76.1202 245.229 76.1202 246 76.1202C246 81.6871 246 87.2596 246 92.9372C245.429 92.9372 244.787 93.106 244.288 92.89C243.781 92.6713 243.354 92.1238 242.998 91.6308C240.591 88.2961 238.212 84.9383 235.826 81.5853C235.689 81.3927 235.58 81.1771 235.458 80.9721C235.393 81.0312 235.328 81.0902 235.263 81.1492C235.263 85.033 235.263 88.9168 235.263 92.869C234.507 92.869 233.785 92.869 233 92.869C233 87.3261 233 81.7304 233 76.1751C234.947 75.443 235.518 77.1653 236.432 78.4106Z" fill="white"/>
<path d="M82 58.7683C82 55.8255 82 52.974 82 50.02C84.3571 50.02 86.6822 49.9575 89.0015 50.0535C89.824 50.0876 90.67 50.4158 91.4388 50.7728C92.6437 51.3323 93.2154 52.4636 93.264 53.8167C93.3137 55.2004 92.8568 56.4047 91.7524 57.297C91.7697 57.3323 91.7938 57.4594 91.8442 57.4728C93.6481 57.9493 94.1946 60.2912 93.9417 61.8157C93.6472 63.591 92.4702 64.8609 90.6636 64.9369C87.8125 65.0569 84.9537 64.9689 82 64.9689C82 63.0268 82 60.9431 82 58.7683ZM91.7432 60.876C91.5385 60.3501 91.4621 59.6546 91.0973 59.3404C90.6216 58.9307 89.9256 58.6532 89.3096 58.6186C87.6215 58.5238 85.9257 58.5859 84.2824 58.5859C84.2824 60.2491 84.2824 61.7813 84.2824 63.3271C85.4517 63.3271 86.563 63.374 87.669 63.3127C88.6064 63.2606 89.5649 63.1901 90.4636 62.9298C91.2702 62.6963 91.8249 62.0556 91.7432 60.876ZM90.1093 56.047C90.9915 55.4714 91.314 54.7897 91.0398 53.7072C90.8429 52.9302 90.3256 52.2908 89.5375 52.2235C87.7808 52.0734 86.016 52.0304 84.2766 51.9448C84.2766 53.6094 84.2766 55.0813 84.2766 56.5801C85.3822 56.5801 86.4368 56.6349 87.4837 56.5628C88.3321 56.5044 89.1712 56.2933 90.1093 56.047Z" fill="white"/>
<path d="M137.725 93C135.777 93 133.913 93 132 93C132 87.3628 132 81.7654 132 76.0484C134.168 76.0484 136.37 75.9106 138.551 76.1001C139.854 76.2134 141.222 76.6162 142.385 77.284C144.467 78.48 145.566 80.5591 145.914 83.2299C146.136 84.9404 145.915 86.5032 145.403 88.0755C144.533 90.7489 142.726 92.1658 140.388 92.7825C139.559 93.0013 138.671 92.9357 137.725 93ZM143.178 81.7404C142.991 81.4003 142.838 81.0259 142.609 80.7259C141.616 79.4217 140.417 78.5358 138.836 78.524C137.281 78.5125 135.726 78.5215 134.218 78.5215C134.218 82.6189 134.218 86.7406 134.218 90.9689C135.934 90.8728 137.604 90.9179 139.234 90.6518C141.161 90.3372 142.61 89.1633 143.354 86.9862C143.952 85.2354 143.806 83.5501 143.178 81.7404Z" fill="white"/>
<path d="M47.8108 82.585C48.304 85.3348 47.8436 87.7576 46.3053 89.9543C43.8091 93.5187 38.2459 93.8659 35.1878 91.4592C32.7843 89.5677 31.5967 86.2356 32.1231 83.0057C32.4006 81.303 33.0138 79.8349 34.0391 78.6117C35.2027 77.2234 36.7536 76.4449 38.4819 76.1327C40.0871 75.8427 41.6266 76.0321 43.1635 76.6616C45.5243 77.6285 46.9739 79.4088 47.6412 81.9877C47.6864 82.1624 47.7534 82.3305 47.8108 82.585ZM42.9416 79.1605C41.5873 78.3369 40.1629 78.1623 38.6406 78.5078C35.4809 79.2247 33.7412 82.8485 34.4437 85.9564C34.9798 88.3283 36.7351 90.373 38.9007 90.6553C41.2133 90.9568 43.289 90.3688 44.6717 88.1048C46.6117 84.9283 45.6679 80.9999 42.9416 79.1605Z" fill="white"/>
<path d="M220.3 92.6376C217.681 91.6382 215.924 89.7578 215.277 86.9214C214.151 81.984 216.512 77.2337 221.367 76.2032C224.215 75.5988 226.865 76.3222 228.939 78.6457C231.59 81.6157 231.693 87.017 229.194 90.1136C227.674 91.9957 225.823 93.0477 223.509 92.9983C222.462 92.976 221.419 92.764 220.3 92.6376ZM224.7 78.629C223.965 78.5662 223.228 78.4343 222.495 78.452C218.792 78.5414 216.538 82.9114 217.581 86.4547C218.308 88.9223 220.464 90.9449 223.396 90.7656C227.023 90.5437 229.21 86.9118 228.586 83.3487C228.175 81.0037 226.833 79.519 224.7 78.629Z" fill="white"/>
<path d="M17 86.5679C17 83.301 17 80.126 17 77.0033C19.3181 77.0033 21.6032 77.0116 23.8881 77.0001C25.2271 76.9934 26.4384 77.3466 27.5517 78.1097C28.9073 79.039 29.5219 80.3368 29.6247 81.9413C29.7454 83.8254 29.4192 85.5416 27.8414 86.7795C27.3822 87.1399 26.8559 87.4143 26.382 87.7143C27.5664 89.4425 28.7477 91.1664 30 92.9938C29.1589 92.9938 28.4145 93.0146 27.6726 92.98C27.4705 92.9706 27.2026 92.8461 27.0899 92.6858C26.2062 91.4293 25.3524 90.1515 24.4903 88.8796C24.181 88.4232 23.8315 88.1618 23.2024 88.1988C21.9635 88.2717 20.7173 88.2203 19.4031 88.2203C19.4031 89.8099 19.4031 91.3524 19.4031 92.944C18.5892 92.944 17.8449 92.944 17 92.944C17 90.8533 17 88.7565 17 86.5679ZM24.3624 79.2239C22.719 79.1377 21.0755 79.0515 19.4231 78.9648C19.4231 81.4126 19.4231 83.6873 19.4231 86.0169C21.0137 86.0169 22.5689 86.1196 24.1026 85.981C25.1374 85.8875 26.1354 85.4997 26.729 84.4426C27.8528 82.4414 27.2765 79.9904 24.3624 79.2239Z" fill="white"/>
<path d="M128.628 52.5521C129.608 53.8663 130.533 55.1428 131.479 56.4031C132.529 57.8027 133.597 59.1875 134.754 60.706C134.754 57.1094 134.754 53.6301 134.754 50.1181C135.562 50.1181 136.264 50.1181 137 50.1181C137 55.0615 137 59.9688 137 64.8487C135.647 65.3122 134.858 64.6595 134.084 63.5885C131.917 60.5884 129.65 57.6655 127.421 54.714C127.392 54.6761 127.335 54.6612 127.22 54.5939C127.22 58.0443 127.22 61.4506 127.22 64.9032C126.451 64.9032 125.748 64.9032 125 64.9032C125 59.995 125 55.088 125 50.1897C126.569 49.533 127.259 50.7103 128.017 51.75C128.203 52.0048 128.394 52.255 128.628 52.5521Z" fill="white"/>
<path d="M205 56.9087C205 59.6281 205 62.2577 205 64.9242C203.902 65.1062 203.069 65.0265 202.299 63.9379C199.982 60.664 197.517 57.5041 195.041 54.2075C195.041 57.8334 195.041 61.3674 195.041 64.9473C194.331 64.9473 193.688 64.9473 193 64.9473C193 60.0235 193 55.1019 193 50.1895C194.565 49.5307 195.242 50.7204 196.011 51.7526C197.845 54.2167 199.692 56.6704 201.533 59.1298C201.904 59.6265 202.267 60.13 202.735 60.768C202.735 57.13 202.735 53.6559 202.735 50.1317C203.502 50.1317 204.203 50.1317 205 50.1317C205 52.354 205 54.5865 205 56.9087Z" fill="white"/>
<path d="M215 57.7738C215 55.1095 215 52.5372 215 50.0379C217.307 50.0379 219.584 49.9255 221.845 50.0879C222.89 50.163 223.963 50.6431 224.92 51.1705C226.811 52.213 227.704 54.1266 227.933 56.3547C228.16 58.578 227.843 60.7001 226.478 62.5255C225.486 63.8513 224.235 64.7952 222.755 64.9024C220.211 65.0867 217.65 64.9534 215 64.9534C215 62.6867 215 60.2763 215 57.7738ZM221.686 52.067C220.193 51.9826 218.701 51.8982 217.198 51.8133C217.198 55.6722 217.198 59.362 217.198 63.1987C218.902 63.1066 220.606 63.2466 222.216 62.8783C225.381 62.1536 226.593 58.4822 225.638 55.5651C224.982 53.5622 223.638 52.5158 221.686 52.067Z" fill="white"/>
<path d="M113.17 50C114.836 50.1204 116.419 50.1916 117.989 50.3749C119.569 50.5593 121.47 52.5083 121.628 54.3564C121.787 56.2026 121.5 57.7724 120.18 59.0666C119.774 59.4649 119.242 59.7327 118.701 60.1063C119.752 61.663 120.832 63.2621 122 64.9908C121.191 64.9908 120.524 65.0203 119.862 64.9737C119.652 64.9589 119.388 64.7891 119.264 64.6095C118.452 63.4417 117.67 62.2529 116.882 61.0681C116.614 60.6644 116.324 60.4226 115.765 60.4557C114.64 60.5224 113.508 60.4756 112.307 60.4756C112.307 61.9698 112.307 63.4288 112.307 64.9388C111.509 64.9388 110.781 64.9388 110 64.9388C110 60.0023 110 55.0533 110 50C111.018 50 112.049 50 113.17 50ZM119.099 53.7383C118.7 52.9555 118.069 52.4496 117.211 52.3446C115.596 52.1468 113.972 52.0124 112.317 51.848C112.317 54.1904 112.317 56.3099 112.317 58.4887C113.752 58.4887 115.158 58.6004 116.537 58.4527C117.606 58.3382 118.619 57.9658 119.141 56.7505C119.575 55.7387 119.451 54.8106 119.099 53.7383Z" fill="white"/>
<path d="M78.2876 61.546C76.3752 65.9285 71.6509 66.9801 68.0047 65.1261C64.2161 63.1997 63.0071 58.3583 64.8442 54.2572C66.6397 50.2489 71.1584 48.9155 75.109 50.9249C78.6853 52.7439 79.9261 57.6214 78.2876 61.546ZM74.6651 53.2473C74.3984 53.0854 74.1433 52.894 73.8633 52.7663C71.7035 51.7809 69.6238 52.0056 67.9057 53.7067C66.5138 55.0847 65.7366 57.2983 66.4686 59.7842C67.3106 62.644 69.7389 64.1873 72.4923 63.6889C74.7105 63.2875 76.0382 61.8733 76.5855 59.5885C77.1773 57.118 76.5984 55.0059 74.6651 53.2473Z" fill="white"/>
<path d="M176.428 53.1118C177.605 51.6995 178.885 50.6558 180.607 50.2363C184.573 49.2706 188.816 51.2732 189.792 56.0897C190.691 60.5247 188.667 65.0411 183.919 65.857C179.618 66.5962 176.054 64.4706 175.147 59.4647C174.753 57.2899 175.141 55.0702 176.428 53.1118ZM180.843 52.4599C178.04 53.3037 176.613 56.9676 177.439 59.7738C178.31 62.7317 181.371 64.4537 183.919 63.6178C187.219 62.5355 188.415 59.2077 187.537 56.1102C186.675 53.0691 183.922 51.5887 180.843 52.4599Z" fill="white"/>
<path d="M90.1324 29.781C90.1324 27.8416 90.1324 25.9861 90.1324 24.0935C91.1207 24.0935 92.0412 24.0935 93 24.0935C93 28.0435 93 31.9635 93 35.9623C92.2888 35.9623 91.5782 36.0684 90.9232 35.9245C90.4973 35.8308 90.0861 35.4284 89.7826 35.069C88.2422 33.2454 86.7397 31.3902 85.2214 29.5481C85.1536 29.4659 85.0608 29.404 84.8731 29.2388C84.8731 31.5419 84.8731 33.7133 84.8731 35.9228C83.881 35.9228 82.9604 35.9228 82 35.9228C82 31.9775 82 28.0574 82 24.0555C82.7061 24.0555 83.4421 23.9034 84.0641 24.1027C84.5794 24.2679 85.0139 24.8029 85.391 25.2513C86.6405 26.7374 87.8463 28.2596 89.0726 29.7651C89.3779 30.14 89.6971 30.5039 90.1324 31.0173C90.1324 30.5022 90.1324 30.1836 90.1324 29.781Z" fill="white"/>
<path d="M233.596 29.8728C233.596 31.9098 233.596 33.8654 233.596 35.8819C232.738 35.8819 231.897 35.8819 231 35.8819C231 31.9934 231 28.0647 231 24.0075C231.632 24.0075 232.309 23.9823 232.982 24.0243C233.164 24.0356 233.378 24.2121 233.504 24.3787C234.982 26.3312 236.446 28.2952 237.91 30.2598C238.041 30.4357 238.144 30.6365 238.354 30.9796C238.354 28.5834 238.354 26.3556 238.354 24.0674C239.262 24.0674 240.103 24.0674 241 24.0674C241 27.9565 241 31.8853 241 35.9408C240.34 35.9408 239.59 36.1052 238.949 35.886C238.482 35.7261 238.135 35.0834 237.777 34.6168C236.442 32.8764 235.125 31.1202 233.803 29.3676C233.757 29.3071 233.739 29.2221 233.596 28.8838C233.596 29.3593 233.596 29.5754 233.596 29.8728Z" fill="white"/>
<path d="M64 30.6818C64 28.4316 64 26.2716 64 24.0049C64.6765 24.0049 65.3242 23.9869 65.9698 24.0198C66.1029 24.0266 66.2519 24.2018 66.3531 24.3361C67.8733 26.3531 69.3863 28.3767 70.9027 30.3973C71.0191 30.5524 71.1479 30.6963 71.3889 30.9885C71.3889 28.5553 71.3889 26.3254 71.3889 24.0507C72.2885 24.0507 73.123 24.0507 74 24.0507C74 27.9765 74 31.897 74 35.7944C72.2378 36.4564 71.2037 35.431 70.2415 33.9856C69.1574 32.3572 67.9384 30.8367 66.663 29.1139C66.663 31.4784 66.663 33.6465 66.663 35.8646C65.7621 35.8646 64.9276 35.8646 64 35.8646C64 34.174 64 32.4731 64 30.6818Z" fill="white"/>
<path d="M261.13 79.1515C258.473 79.1515 255.901 79.1515 253.288 79.1515C253.288 80.7467 253.288 82.2823 253.288 83.8913C255.779 83.8913 258.254 83.8913 260.768 83.8913C260.768 84.6464 260.768 85.3294 260.768 86.0858C258.275 86.0858 255.8 86.0858 253.287 86.0858C253.287 87.7549 253.287 89.3515 253.287 91.0211C256.192 91.0211 259.077 91.0211 262 91.0211C262 91.7152 262 92.3371 262 93C258.332 93 254.686 93 251 93C251 87.6649 251 82.3532 251 77C254.55 77 258.079 77 261.687 77C261.687 77.5868 261.721 78.1599 261.666 78.7236C261.65 78.8805 261.373 79.0096 261.13 79.1515Z" fill="white"/>
<path d="M155.4 93C153.562 93 151.804 93 150 93C150 87.6584 150 82.3561 150 77C153.201 77 156.416 77 159.678 77C159.678 77.6632 159.678 78.3454 159.678 79.101C157.173 79.101 154.652 79.101 152.083 79.101C152.083 80.7049 152.083 82.2381 152.083 83.8447C154.323 83.8447 156.577 83.8447 158.878 83.8447C158.878 84.5971 158.878 85.2794 158.878 86.035C156.638 86.035 154.383 86.035 152.083 86.035C152.083 87.7 152.083 89.2939 152.083 90.9612C154.698 90.9612 157.326 90.9612 160 90.9612C160 91.6524 160 92.2738 160 93C158.503 93 156.992 93 155.4 93Z" fill="white"/>
<path d="M12.2223 86.6329C10.9015 87.6081 9.52073 88.0792 7.99321 88.0372C6.76176 88.0033 5.52899 88.0303 4.22924 88.0303C4.22924 89.6817 4.22924 91.3089 4.22924 93C3.46198 93 2.76016 93 2 93C2 87.395 2 81.7485 2 76C4.8306 76.2053 7.66614 75.662 10.4652 76.5579C12.9684 77.3592 14.4383 80.2729 13.8832 83.1827C13.6232 84.5457 13.1322 85.6473 12.2223 86.6329ZM11.6927 81.6461C11.5585 79.9601 10.6804 78.8726 9.27449 78.6262C7.61419 78.3352 5.90967 78.3621 4.22987 78.2516C4.22987 80.8628 4.22987 83.2592 4.22987 85.6443C4.32724 85.6724 4.37972 85.7007 4.43226 85.7008C5.72133 85.7046 7.01103 85.7351 8.29931 85.7C10.3653 85.6439 11.706 84.2063 11.6927 81.6461Z" fill="white"/>
<path d="M3.23287 29.6924C3.06199 29.5001 2.94253 29.3525 2.74015 29.1026C2.74015 31.4257 2.74015 33.6393 2.74015 35.8887C1.79129 35.8887 0.914856 35.8887 0 35.8887C0 31.9673 0 28.077 0 24.1994C0.0814271 24.163 0.131363 24.1319 0.185987 24.1174C2.30807 23.5551 3.16818 25.1296 4.22445 26.3596C5.36152 27.6837 6.48674 29.0174 7.6108 30.3519C7.73957 30.5048 7.82764 30.6898 8.03918 31.0262C8.03918 28.6456 8.03918 26.4414 8.03918 24.1739C9.0549 24.1739 9.9944 24.1739 11 24.1739C11 28.0149 11 31.9054 11 35.9242C10.2699 35.9242 9.398 36.1296 8.72431 35.8642C8.09993 35.6181 7.66224 34.8892 7.18651 34.3373C5.87343 32.8139 4.58343 31.2719 3.23287 29.6924Z" fill="white"/>
<path d="M23.5273 27.9616C24.384 28.9406 25.1947 29.8719 26.0722 30.8799C26.0722 28.5807 26.0722 26.3515 26.0722 24.0844C27.0831 24.0844 28.0215 24.0844 29 24.0844C29 28.0301 29 31.9494 29 35.9489C28.278 35.9489 27.535 36.0898 26.8916 35.9036C26.3911 35.7588 25.9612 35.2508 25.5929 34.8275C24.1098 33.1225 22.6612 31.389 21.2055 29.6615C21.0765 29.5083 20.989 29.3218 20.777 28.9824C20.777 31.3787 20.777 33.5992 20.777 35.8842C19.8225 35.8842 18.9446 35.8842 18 35.8842C18 31.9941 18 28.0532 18 24.0452C18.6497 24.0452 19.3267 23.9201 19.9176 24.0861C20.3647 24.2116 20.7467 24.6713 21.079 25.0481C21.9037 25.9833 22.6835 26.9561 23.5273 27.9616Z" fill="white"/>
<path d="M160.954 33.6143C159.44 35.358 157.581 36.0583 155.376 35.9962C153.598 35.9462 151.817 35.9861 150 35.9861C150 31.9169 150 27.9164 150 24.0031C152.018 24.0031 154.021 24.0125 156.024 24.0001C157.626 23.9903 158.984 24.5358 160.208 25.5996C162.247 27.373 162.426 30.6333 161.348 32.8521C161.233 33.0904 161.119 33.3301 160.954 33.6143ZM158.886 30.8929C159.329 29.6699 158.959 28.592 158.199 27.6615C156.744 25.8803 154.748 26.495 152.935 26.4203C152.935 28.8783 152.935 31.2225 152.935 33.5902C153.78 33.5902 154.566 33.5921 155.351 33.5899C157.049 33.5851 158.5 32.6162 158.886 30.8929Z" fill="white"/>
<path d="M121.275 90.1928C121.197 89.3834 120.825 89.1437 120.095 89.1602C118.002 89.2075 115.906 89.2021 113.812 89.1609C113.212 89.1491 112.932 89.3677 112.725 89.9168C112.337 90.9486 111.884 91.9546 111.463 92.9577C110.636 92.9577 109.849 92.9577 109 92.9577C111.298 87.6141 113.574 82.323 115.849 77.0348C118.049 76.9322 118.052 76.9306 118.9 78.892C120.627 82.8877 122.349 86.8855 124.074 90.8817C124.36 91.544 124.654 92.2029 125 92.9909C124.211 92.9909 123.49 93.0225 122.775 92.9679C122.604 92.9548 122.401 92.6813 122.305 92.481C121.952 91.7501 121.638 90.9995 121.275 90.1928ZM119.031 84.6421C118.35 83.0607 117.668 81.4792 116.957 79.83C115.903 82.3281 114.906 84.6915 113.874 87.1378C115.99 87.1378 117.971 87.1378 120 87.1378C119.691 86.3205 119.398 85.5428 119.031 84.6421Z" fill="white"/>
<path d="M36.8349 24C38.6032 24.1768 40.1212 24.7029 41.3968 25.8594C43.2807 27.5673 43.4623 31.307 42.1622 33.2297C40.8767 35.1309 39.1042 35.8742 36.8766 35.9873C34.8221 36.0916 33.0046 35.5615 31.6241 34.0875C29.978 32.33 29.5958 30.1896 30.4202 27.9769C31.24 25.7768 32.9291 24.4738 35.3591 24.1757C35.8239 24.1187 36.2883 24.0586 36.8349 24ZM34.1589 32.725C35.0072 33.0431 35.8891 33.6893 36.697 33.6108C38.3695 33.4483 39.6011 32.8487 40.0391 30.8239C40.5928 28.264 38.671 26.3462 36.3078 26.4863C34.7329 26.5796 33.598 27.5046 33.1811 28.9557C32.8071 30.2572 32.9974 31.5821 34.1589 32.725Z" fill="white"/>
<path d="M175.984 29.9584C176.252 33.233 173.076 36.0369 169.941 35.9996C167.94 35.9758 166.141 35.6399 164.729 34.2006C163.102 32.5431 162.631 30.5496 163.283 28.3446C164.04 25.7856 165.857 24.4992 168.512 24.0926C170.318 23.8161 171.946 24.1621 173.417 25.0888C175.152 26.1828 176.011 27.8249 175.984 29.9584ZM168.26 26.6439C166.737 27.3007 165.839 28.5363 165.937 30.0695C166.066 32.077 167.338 33.8676 170.212 33.4867C171.598 33.3031 172.798 32.1431 173.082 30.6687C173.309 29.4879 172.602 27.6756 171.627 27.1011C170.59 26.4898 169.556 26.2752 168.26 26.6439Z" fill="white"/>
<path d="M195.975 91.6622C195.626 91.3821 195.324 91.1499 195 90.9013C195.304 90.2311 195.594 89.59 195.913 88.8882C197.386 90.2165 199.016 90.9032 200.811 90.8229C201.782 90.7795 202.825 90.6478 203.461 89.5567C204.156 88.3643 203.983 87.295 202.821 86.7307C201.523 86.1006 200.141 85.7028 198.796 85.2011C197.431 84.6917 196.148 84.0752 195.674 82.2901C194.919 79.4459 196.158 77.1685 198.512 76.3799C200.297 75.7817 202.127 75.9057 203.907 76.6409C205.633 77.3542 205.747 77.7773 204.596 79.5705C203.302 78.5886 201.862 78.1213 200.315 78.2441C198.981 78.3501 198.026 78.954 197.658 80.1663C197.339 81.2157 197.912 82.3088 199.079 82.7436C200.453 83.2553 201.85 83.6842 203.232 84.1682C205.204 84.8586 206.036 86.4901 205.999 88.2931C205.956 90.339 204.96 91.9137 203.138 92.5274C200.695 93.3505 198.295 93.1208 195.975 91.6622Z" fill="white"/>
<path d="M265.894 79.9985C265.574 81.2499 266.153 82.2966 267.428 82.73C268.933 83.2417 270.461 83.6779 271.975 84.1583C274.131 84.8425 275.057 86.5005 274.997 88.2879C274.927 90.4013 273.981 91.8303 271.858 92.5131C269.093 93.4023 266.383 93.0639 263.841 91.5769C263.515 91.3861 263.273 91.0368 263 90.7691C263.328 90.1249 263.637 89.5199 263.959 88.8866C265.61 90.2181 267.391 90.898 269.368 90.8222C270.491 90.7791 271.657 90.5758 272.323 89.4441C273.029 88.2431 272.776 87.2675 271.482 86.6943C270.086 86.0764 268.611 85.648 267.153 85.1973C265.523 84.6934 264.088 83.9289 263.574 82.09C262.888 79.6395 264.359 76.9789 266.757 76.3486C268.949 75.7728 271.134 75.8969 273.242 76.821C274.434 77.344 274.502 77.5631 273.936 78.8C273.824 79.0445 273.68 79.2731 273.515 79.575C272.066 78.5951 270.503 78.1157 268.814 78.2226C267.603 78.2992 266.536 78.7086 265.894 79.9985Z" fill="white"/>
<path d="M55.5238 62.8555C57.1421 63.3383 58.4985 62.7586 59.8986 62.0727C59.8986 60.55 59.8986 58.9973 59.8986 57.406C60.6107 57.406 61.2662 57.406 61.9991 57.406C61.9991 59.2472 62.0042 61.0676 61.9899 62.8877C61.9887 63.0383 61.8965 63.2448 61.7789 63.3291C60.4423 64.2879 58.9842 64.9099 57.3162 64.985C55.3591 65.0732 53.5169 64.7926 51.8883 63.5747C50.1052 62.2413 49.1772 60.4497 49.0292 58.2465C48.9094 56.4627 49.1315 54.7462 50.2072 53.2321C51.5036 51.4074 53.1911 50.3601 55.4461 50.0713C57.1845 49.8486 58.7601 50.1592 60.3122 50.8415C60.5919 50.9645 60.8274 51.1955 61.0744 51.3881C62.222 52.2829 62.2132 52.7122 60.973 53.4989C60.8161 53.5983 60.4129 53.5187 60.2595 53.3747C57.5686 50.8484 52.1843 51.8849 51.2667 56.4109C50.6653 59.3775 52.7795 62.4651 55.5238 62.8555Z" fill="white"/>
<path d="M39.0188 62.8165C39.3198 62.9493 39.616 63.0322 39.9126 63.0336C42.265 63.0443 44.6175 63.0396 47 63.0396C47 63.7317 47 64.3497 47 65C43.6538 65 40.3425 65 37 65C37 59.9866 37 55.0106 37 50C40.2321 50 43.4297 50 46.659 50C46.659 50.6547 46.659 51.2728 46.659 51.9631C44.1099 51.9631 41.5941 51.9631 39.0465 51.9631C39.0465 53.479 39.0465 54.9235 39.0465 56.4726C41.2732 56.4726 43.5258 56.4726 45.8083 56.4726C45.8083 57.1729 45.8083 57.7704 45.8083 58.4402C43.6001 58.4402 41.3685 58.4402 39.0142 58.4402C39.0142 59.9152 39.0142 61.3221 39.0188 62.8165Z" fill="white"/>
<path d="M102.029 50C103.938 50 105.753 50 107.622 50C107.622 50.6551 107.622 51.2727 107.622 51.9632C104.863 51.9632 102.088 51.9632 99.2599 51.9632C99.2599 53.4969 99.2599 54.9604 99.2599 56.497C101.707 56.497 104.168 56.497 106.682 56.497C106.682 57.1841 106.682 57.8017 106.682 58.4925C104.234 58.4925 101.773 58.4925 99.2591 58.4925C99.2591 60.0265 99.2591 61.4899 99.2591 63.0263C102.148 63.0263 105.048 63.0263 108 63.0263C108 63.7137 108 64.3311 108 65C104.358 65 100.706 65 97 65C97 60.0403 97 55.0722 97 50C98.6363 50 100.286 50 102.029 50Z" fill="white"/>
<path d="M231.543 64.9858C230.97 65.0741 231 64.7349 231 64.3819C231.005 59.6093 231.004 54.8367 231.004 50C234.21 50 237.403 50 240.657 50C240.657 50.5681 240.657 51.1859 240.657 51.8761C238.193 51.8761 235.68 51.8761 233.108 51.8761C233.108 53.4088 233.108 54.8728 233.108 56.4104C235.291 56.4104 237.519 56.4104 239.806 56.4104C239.806 57.0982 239.806 57.7159 239.806 58.4063C237.623 58.4063 235.394 58.4063 233.107 58.4063C233.107 59.9392 233.107 61.4032 233.107 62.9406C235.691 62.9406 238.317 62.9406 241 62.9406C241 63.6282 241 64.2459 241 64.9859C237.903 64.9859 234.764 64.9859 231.543 64.9858Z" fill="white"/>
<path d="M140.162 64.9831C139.762 64.9831 139.444 64.9831 139 64.9831C139.357 64.1138 139.659 63.3427 139.987 62.5832C141.714 58.5903 143.438 54.596 145.199 50.6185C145.319 50.3482 145.719 50.0589 146.008 50.0376C147.714 49.9114 147.715 49.9808 148.65 52.247C149.671 54.7239 150.762 57.1714 151.828 59.6293C152.539 61.268 153.261 62.9016 153.97 64.5409C154.014 64.6421 153.992 64.7727 154 64.881C153.931 64.9206 153.884 64.9698 153.835 64.9717C151.755 65.053 151.754 65.0528 150.9 63.0042C150.678 62.4711 150.462 61.9354 150.233 61.3758C147.91 61.3758 145.607 61.3622 143.304 61.3974C143.081 61.4008 142.763 61.6578 142.658 61.8795C142.242 62.7628 141.884 63.6751 141.522 64.584C141.251 65.2655 140.678 64.8787 140.162 64.9831ZM145.061 59.3917C146.476 59.3917 147.892 59.3917 149.405 59.3917C148.442 57.1241 147.506 54.92 146.529 52.6183C145.537 54.9677 144.621 57.1393 143.67 59.3917C144.133 59.3917 144.511 59.3917 145.061 59.3917Z" fill="white"/>
<path d="M97.3772 77.1149C98.8759 77.3875 100.001 78.221 101 79.248C100.47 79.813 99.9853 80.3299 99.5015 80.8456C97.323 78.3874 93.9234 78.6131 91.9239 80.6151C89.6912 82.8505 89.6329 86.441 91.5726 88.9545C93.2042 91.0689 96.7728 91.9019 99.6198 89.0609C100.063 89.5361 100.505 90.0104 100.979 90.5192C99.7907 92.1342 98.1595 92.8468 96.2468 92.9755C94.1544 93.1163 92.255 92.6668 90.5755 91.1972C89.3676 90.1403 88.6602 88.7851 88.2998 87.2235C87.5926 84.1588 88.0996 81.3458 90.2161 79.0786C91.397 77.8138 92.8685 77.0136 94.5991 77.0006C95.5067 76.9939 96.4145 77.0413 97.3772 77.1149Z" fill="white"/>
<path d="M55.1349 92.9566C54.7554 92.445 54.395 91.9602 54.1645 91.4199C52.4452 87.3908 50.7546 83.3494 49.0472 79.3152C48.7434 78.5974 48.4034 77.895 48 77.0095C48.8947 77.0095 49.6284 76.9768 50.3552 77.0327C50.5353 77.0465 50.7638 77.3175 50.8509 77.5213C52.1968 80.6699 53.5183 83.829 54.8568 86.9809C55.2312 87.8624 55.6421 88.7285 56.1083 89.7615C57.9572 85.4821 59.7762 81.2718 61.6068 77.0347C62.3407 77.0347 63.0878 77.0347 64 77.0347C63.6673 77.8727 63.3797 78.6435 63.0579 79.3997C61.2626 83.6191 59.4542 87.8329 57.6636 92.0542C57.3984 92.6796 57.0844 93.1231 56.297 92.9694C55.9485 92.9014 55.5759 92.9578 55.1349 92.9566Z" fill="white"/>
<path d="M260.074 24C260.974 24 261.786 24 262.648 24C262.648 24.7811 262.648 25.5246 262.648 26.3419C260.725 26.3419 258.787 26.3419 256.801 26.3419C256.801 27.2167 256.801 28.021 256.801 28.8991C258.492 28.8991 260.196 28.8991 261.949 28.8991C261.949 29.6518 261.949 30.3346 261.949 31.0911C260.257 31.0911 258.552 31.0911 256.799 31.0911C256.799 31.9659 256.799 32.7702 256.799 33.648C258.844 33.648 260.898 33.648 263 33.648C263 34.4616 263 35.2051 263 36C260.021 36 257.035 36 254 36C254 32.0399 254 28.0722 254 24C255.988 24 257.987 24 260.074 24Z" fill="white"/>
<path d="M220 25.9673C220 25.2687 220 24.6612 220 24C222.89 24 225.744 24 228.65 24C228.65 24.7279 228.65 25.4748 228.65 26.2956C226.741 26.2956 224.814 26.2956 222.836 26.2956C222.836 27.1746 222.836 27.9825 222.836 28.8647C224.514 28.8647 226.21 28.8647 227.955 28.8647C227.955 29.621 227.955 30.307 227.955 31.0669C226.276 31.0669 224.58 31.0669 222.835 31.0669C222.835 31.9454 222.835 32.7535 222.835 33.6357C224.864 33.6357 226.908 33.6357 229 33.6357C229 34.4532 229 35.2001 229 36C226.041 36 223.071 36 220 36C220 32.6944 220 29.3764 220 25.9673Z" fill="white"/>
<path d="M191.159 31.1003C190.667 31.1003 190.262 31.1003 189.749 31.1003C189.749 31.5462 189.749 31.9608 189.749 32.3753C189.749 32.7698 189.749 33.1643 189.749 33.6312C191.835 33.6312 193.891 33.6312 196 33.6312C196 34.4487 196 35.1961 196 36C193.032 36 190.043 36 187 36C187 32.0334 187 28.0452 187 24C189.849 24 192.721 24 195.649 24C195.649 24.7205 195.649 25.4678 195.649 26.289C193.735 26.289 191.796 26.289 189.803 26.289C189.803 27.1685 189.803 27.9769 189.803 28.8595C191.484 28.8595 193.19 28.8595 194.949 28.8595C194.949 29.6164 194.949 30.3027 194.949 31.1003C193.73 31.1003 192.488 31.1003 191.159 31.1003Z" fill="white"/>
<path d="M144.57 25.6848C145.686 28.2697 146.798 30.7829 147.903 33.2992C148.269 34.1314 148.617 34.9716 149 35.8712C147.968 35.8712 147.016 35.8712 146.013 35.8712C145.87 35.4972 145.666 35.1107 145.577 34.6982C145.339 33.5929 144.709 33.2523 143.63 33.3764C142.679 33.4858 141.703 33.4422 140.743 33.3835C140.151 33.3473 139.769 33.5476 139.667 34.1136C139.366 35.7913 138.334 36.2009 136.845 35.9174C136.591 35.8692 136.322 35.9106 136 35.9106C136.968 33.6713 137.923 31.4687 138.872 29.2634C139.55 27.687 140.219 26.1067 140.896 24.5294C140.942 24.423 141.001 24.318 141.074 24.2293C141.491 23.7214 143.986 24.1312 144.214 24.7394C144.324 25.0336 144.447 25.3229 144.57 25.6848ZM142.381 31.2467C142.925 31.2467 143.469 31.2467 144.114 31.2467C143.568 29.8709 143.067 28.6071 142.505 27.1911C141.93 28.5881 141.403 29.8708 140.837 31.2467C141.355 31.2467 141.785 31.2467 142.381 31.2467Z" fill="white"/>
<path d="M95.9049 31.115C96.86 28.7207 97.8123 26.3978 98.7881 24.0178C99.4068 24.0178 100.086 23.9638 100.752 24.0439C101.023 24.0766 101.395 24.3346 101.503 24.6009C102.909 28.0359 104.276 31.4905 105.649 34.942C105.773 35.254 105.871 35.5792 106 35.9544C105.057 35.9544 104.176 35.9544 103.247 35.9544C103.115 35.5767 102.926 35.1859 102.844 34.7689C102.622 33.6544 102.043 33.306 101.043 33.43C100.135 33.5426 99.2054 33.5006 98.2905 33.4362C97.7435 33.3977 97.5245 33.6873 97.3667 34.1733C97.2074 34.6639 97.0634 35.1644 96.8576 35.6302C96.7838 35.7971 96.553 35.9697 96.3874 35.9779C95.6405 36.015 94.8913 35.9941 94 35.9941C94.6673 34.3076 95.2847 32.747 95.9049 31.115ZM100.931 29.5879C100.639 28.8328 100.346 28.0778 100.006 27.2017C99.4761 28.6039 98.9871 29.8968 98.4822 31.2322C99.4939 31.2322 100.445 31.2322 101.507 31.2322C101.296 30.6787 101.117 30.2057 100.931 29.5879Z" fill="white"/>
<path d="M261.503 5.96486C262.502 8.63017 262.025 11.6914 259.805 13.0205C258.995 13.5059 258.031 13.8462 257.113 13.9241C255.434 14.0666 253.737 13.9647 252 13.9647C252 10.3328 252 6.74202 252 3.01495C254.378 3.24088 256.817 2.55727 259.157 3.59915C260.176 4.053 261.024 4.7454 261.503 5.96486ZM258.826 6.3765C257.601 4.91705 256.029 5.28396 254.495 5.28475C254.495 6.44103 254.495 7.4864 254.495 8.53177C254.495 9.5945 254.495 10.6572 254.495 11.7422C255.25 11.7422 255.901 11.7975 256.54 11.7303C257.736 11.6046 258.743 11.1594 259.27 9.80804C259.746 8.58858 259.673 7.507 258.826 6.3765Z" fill="white"/>
<path d="M46.3443 12.2153C45.1146 10.7241 43.9321 9.28174 42.5915 7.64656C42.5915 9.88075 42.5915 11.8574 42.5915 13.8813C41.6944 13.8813 40.872 13.8813 40 13.8813C40 10.2944 40 6.70879 40 3.09314C41.2891 2.87695 42.3331 2.95308 43.2173 4.24374C44.4233 6.00436 45.9212 7.56907 47.3822 9.32374C47.3822 7.19375 47.3822 5.14241 47.3822 3.05868C48.3193 3.05868 49.1414 3.05868 50 3.05868C50 6.68175 50 10.2675 50 13.8109C48.2905 14.3909 47.2292 13.5739 46.3443 12.2153Z" fill="white"/>
<path d="M112.549 26.6184C111.934 26.6188 111.35 26.4779 110.857 26.6628C110.438 26.8197 110.125 27.3529 109.765 27.7195C110.049 28.0951 110.273 28.6549 110.628 28.8098C111.512 29.1946 112.464 29.3588 113.371 29.6786C114.425 30.0502 115.428 30.5418 115.827 31.906C116.358 33.7229 115.654 35.7975 113.913 36.4754C111.779 37.3068 109.617 37.1543 107.538 35.987C106.942 35.6522 106.871 35.2879 107.178 34.6815C107.405 34.2341 107.6 33.765 107.846 33.2227C109.079 34.0197 110.326 34.6023 111.727 34.4322C112.014 34.3974 112.342 34.3959 112.569 34.2279C112.878 33.9981 113.31 33.6282 113.315 33.3102C113.32 32.9914 112.917 32.5008 112.603 32.367C111.398 31.8526 110.155 31.4569 108.929 31.0062C106.821 30.2309 106.721 26.9185 107.902 25.6049C109.241 24.1157 110.792 23.7643 112.531 24.1382C113.528 24.3525 114.515 24.6247 115.626 24.9006C115.285 25.9127 115.035 26.657 114.78 27.4125C114.018 27.1325 113.319 26.8755 112.549 26.6184Z" fill="white"/>
<path d="M44 35.3266C44.2885 34.6177 44.5486 33.9747 44.8553 33.2168C45.3208 33.4539 45.7241 33.6906 46.1495 33.8703C47.5787 34.4738 49.0336 34.8863 50.5131 34.0803C50.7331 33.9604 50.9396 33.5789 50.939 33.319C50.9384 33.0577 50.7253 32.6427 50.5121 32.5617C49.2508 32.0821 47.9586 31.6919 46.684 31.2491C45.0189 30.6707 44.2766 29.6898 44.2008 28.2765C44.0781 25.9877 45.2718 24.93 46.6696 24.4508C48.972 23.6615 51.2647 23.9259 53.4531 25.1085C53.4046 25.361 53.3956 25.6001 53.3119 25.8063C53.1068 26.3115 52.9808 27.0122 52.6062 27.2315C52.2998 27.4108 51.6884 26.9565 51.1982 26.8747C50.1439 26.6988 49.0719 26.1436 48.0232 26.8027C47.6682 27.0258 47.2727 27.4059 47.1745 27.7914C47.036 28.3351 47.4933 28.6414 47.9835 28.7905C49.19 29.1573 50.3968 29.5234 51.6016 29.8962C54.3662 30.7516 54.5079 33.5767 53.2035 35.3593C52.6155 36.1629 51.3897 36.7405 50.3864 36.8739C48.2573 37.1569 46.0913 37.0324 44.1651 35.7825C44.0627 35.716 44.0345 35.5254 44 35.3266Z" fill="white"/>
<path d="M268.545 24C269.988 24.0981 271.331 24.3102 272.568 25.1664C272.513 25.3008 272.467 25.3981 272.433 25.5009C272.246 26.0682 272.169 26.7425 271.853 27.181C271.344 27.8862 270.95 26.9277 270.471 26.8556C269.502 26.7096 268.521 26.1526 267.577 26.8699C267.291 27.0876 266.967 27.4973 266.943 27.8455C266.924 28.1299 267.277 28.6189 267.55 28.7308C268.654 29.1824 269.796 29.5067 270.915 29.9081C273.37 30.7878 273.423 33.8069 272.279 35.4015C271.727 36.1705 270.699 36.7555 269.832 36.8743C267.828 37.1489 265.791 37.0814 264 35.5538C264.272 34.8251 264.547 34.0862 264.866 33.2294C265.272 33.4595 265.632 33.6876 266.008 33.8734C267.255 34.4892 268.531 34.8409 269.834 34.1523C270.053 34.0362 270.276 33.6184 270.278 33.3378C270.281 33.0588 270.056 32.614 269.844 32.524C268.72 32.0475 267.576 31.6289 266.425 31.2498C265.127 30.8225 264.074 29.6484 264.282 27.3477C264.398 26.0623 265.478 24.7094 266.773 24.383C267.336 24.2409 267.905 24.1268 268.545 24Z" fill="white"/>
<path d="M197.575 34.1106C197.837 33.4078 198.004 33.104 198.776 33.6295C199.99 34.4561 201.447 34.5917 202.879 34.4119C203.406 34.3457 203.973 34.0934 204.054 33.3855C204.135 32.6828 203.629 32.4049 203.133 32.2382C201.998 31.857 200.831 31.5795 199.698 31.1934C197.994 30.6129 197.153 29.5787 197.332 27.3931C197.438 26.0919 198.542 24.7185 199.92 24.3453C201.91 23.8064 203.862 23.8751 205.779 24.7155C206.408 24.9915 206.567 25.3336 206.254 26.0112C205.608 27.4111 205.637 27.422 204.262 26.9267C203.318 26.5866 202.353 26.2244 201.366 26.6469C200.95 26.8248 200.457 27.1404 200.286 27.5316C200.016 28.1475 200.414 28.5576 201.032 28.733C202.154 29.0513 203.278 29.3651 204.381 29.7471C206.17 30.3674 207.12 31.4239 206.988 33.3894C206.879 34.9992 205.981 36.1849 204.325 36.6315C201.814 37.3089 199.294 37.1132 197 35.5339C197.186 35.0564 197.359 34.6128 197.575 34.1106Z" fill="white"/>
<path d="M104.005 12.8908C104 9.61726 104 6.42523 104 3C106.256 3.16714 108.484 3.1194 110.614 3.54917C112.788 3.98787 113.886 5.75613 113.992 7.86631C114.106 10.1323 112.929 11.8439 110.955 12.6623C110.485 12.8568 109.952 12.9823 109.446 12.9903C107.634 13.019 105.821 12.9835 104.005 12.8908ZM110.95 6.31588C109.703 4.85566 108.028 5.20855 106.374 5.19648C106.374 6.20909 106.374 7.15522 106.374 8.10135C106.374 9.07278 106.374 10.0442 106.374 11.0764C107.057 11.0764 107.67 11.0774 108.283 11.0762C110.924 11.0713 112.268 8.74991 110.95 6.31588Z" fill="white"/>
<path d="M163.005 3.22098C164.68 3.08464 166.356 2.93753 168.019 3.02774C169.11 3.08693 170.259 3.32343 171.246 3.77339C173.095 4.61557 174.274 6.75514 173.945 9.2949C173.533 12.4732 170.849 13.9597 168.003 13.9911C166.378 14.009 164.753 13.9943 163 13.9943C163 10.421 163 6.866 163.005 3.22098ZM165.628 6.82308C165.628 8.45525 165.628 10.0874 165.628 11.9352C166.963 11.7402 168.182 11.6473 169.356 11.367C170.539 11.0843 171.083 10.093 171.237 8.99335C171.4 7.81911 171.1 6.7422 170.06 5.96087C168.697 4.93674 167.165 5.28364 165.628 5.24587C165.628 5.77669 165.628 6.20818 165.628 6.82308Z" fill="white"/>
<path d="M0.991746 13.9601C0.623663 13.9601 0.339598 13.9601 0 13.9601C0 10.3451 0 6.75723 0 3.01535C2.45821 3.29748 5.02447 2.44181 7.4359 3.77331C8.93526 4.6012 9.7362 5.88873 9.94509 7.72599C10.2097 10.0533 9.52816 11.8977 7.68449 13.0611C6.83977 13.594 5.76198 13.8081 4.76529 13.9259C3.54897 14.0696 2.30677 13.9601 0.991746 13.9601ZM6.19786 5.79796C4.9812 5.04261 3.67139 5.28542 2.40329 5.2781C2.40329 7.49107 2.40329 9.59688 2.40329 11.739C3.13579 11.739 3.8244 11.8031 4.49879 11.725C5.73148 11.5823 6.98041 10.9985 7.41265 9.3604C7.74852 8.08746 7.3575 6.78583 6.19786 5.79796Z" fill="white"/>
<path d="M159.28 50.4847C162.035 49.4541 165.286 50.0614 167 52.3601C166.56 52.8369 166.119 53.3144 165.64 53.8336C164.547 52.4548 163.138 51.9078 161.494 52.0781C160.343 52.1972 159.251 52.6159 158.484 53.5494C156.693 55.7308 156.381 58.579 158.092 60.9667C159.925 63.5244 162.607 63.5964 165.78 61.2502C166.154 61.6995 166.533 62.1549 166.943 62.6474C165.811 64.2146 164.229 64.8978 162.353 64.9887C160.151 65.0956 158.22 64.4506 156.709 62.6521C155.669 61.4156 155.114 59.9229 155.021 58.2402C154.922 56.421 155.148 54.6829 156.155 53.1591C156.946 51.962 157.972 51.0757 159.28 50.4847Z" fill="white"/>
<path d="M33.2451 62.4161C34.2085 63.439 34.095 63.9976 32.7931 64.8174C29.7762 66.7171 25.2355 66.3747 22.853 63.4516C21.7383 62.0841 21.0708 60.5044 21.0096 58.6481C20.9464 56.7328 21.1773 54.8997 22.2757 53.3309C23.5681 51.4851 25.2566 50.3735 27.4878 50.0818C29.4727 49.8222 31.2547 50.1669 32.902 51.3141C34.3313 52.3094 34.3172 52.3304 33.1383 53.5797C32.9917 53.735 32.8564 53.9024 32.6972 54.0857C31.0235 52.1888 29.0556 51.7415 26.7793 52.5521C24.2825 53.4411 22.8403 56.1924 23.3065 58.9702C23.7017 61.3246 24.9422 62.7898 27.0193 63.5514C28.8312 64.2157 30.4401 63.7883 31.9524 62.603C32.269 62.3549 32.6453 61.5596 33.2451 62.4161Z" fill="white"/>
<path d="M236.958 8.2378C237.442 11.9997 233.624 14.6095 230.431 13.8763C227.531 13.2102 226.097 11.1649 226.005 8.70427C225.852 4.60942 229.447 2.46293 232.608 3.11548C234.78 3.56404 236.168 4.75353 236.831 6.92919C236.948 7.31156 236.92 7.74314 236.958 8.2378ZM234.559 8.65027C234.423 8.0313 234.392 7.35621 234.128 6.80518C233.6 5.70285 232.588 5.24087 231.486 5.26752C230.295 5.29633 229.337 5.83695 228.813 7.11634C228.299 8.36987 228.552 9.8835 229.382 10.798C230.252 11.7564 231.772 11.935 232.917 11.327C233.918 10.7949 234.388 9.91977 234.559 8.65027Z" fill="white"/>
<path d="M140.389 2.43221C142.734 1.57059 144.872 1.976 146.572 3.83949C147.742 5.12186 148.153 6.84261 147.951 8.85185C147.591 12.4252 144.642 14.2074 142.066 13.9808C139.776 13.7793 137.883 12.499 137.288 9.97268C136.57 6.92573 137.112 4.41576 139.871 2.68518C140.016 2.59391 140.169 2.51791 140.389 2.43221ZM144.915 5.7824C143.659 4.22079 142.086 4.28867 141.026 4.90897C139.949 5.53998 139.12 7.20729 139.637 9.07763C139.911 10.0702 140.918 11.2783 141.798 11.4422C143.189 11.7014 144.403 11.0958 145.005 9.96395C145.739 8.58449 145.6 7.25946 144.915 5.7824Z" fill="white"/>
<path d="M71.8866 7.80745C72.2324 9.35337 71.7584 10.664 70.8603 11.7813C68.8204 14.3189 65.1571 14.5892 62.5863 13.0534C60.6236 11.881 59.507 9.46355 60.2126 6.92813C61.0378 3.96326 64.4857 2.58162 67.1743 3.1108C69.4995 3.56846 71.0449 4.67874 71.7233 6.87691C71.8081 7.15178 71.8315 7.44441 71.8866 7.80745ZM67.2402 11.445C67.778 11.0039 68.4562 10.6507 68.8231 10.1027C69.5065 9.08182 69.4273 7.94622 68.8687 6.85298C68.2824 5.70555 67.1568 5.18288 66.0089 5.21814C64.8142 5.25485 63.654 5.70693 63.0785 7.019C62.4601 8.42885 62.662 9.69537 63.6569 10.7449C64.5508 11.6879 65.7945 11.8835 67.2402 11.445Z" fill="white"/>
<path d="M187.117 12.2755C187.117 12.8456 187.117 13.3268 187.117 13.8588C186.403 13.8588 185.724 13.8588 185 13.8588C185 10.3343 185 6.80048 185 3C186.884 3.17298 188.774 3.2568 190.642 3.54896C191.938 3.75169 192.618 4.95754 192.797 6.37213C192.985 7.86423 192.741 9.29246 191.472 10.1473C191.34 10.2359 191.235 10.3791 191.124 10.4904C191.767 11.6021 192.381 12.6652 193 13.7371C191.542 14.2987 190.614 13.9873 189.895 12.5447C189.264 11.2786 188.49 10.5683 187.117 11.1286C187.117 11.4198 187.117 11.8032 187.117 12.2755ZM189.122 5.34661C188.465 5.34661 187.808 5.34661 187.158 5.34661C187.158 6.55335 187.158 7.65749 187.158 8.80816C187.835 8.80816 188.474 8.84058 189.109 8.79975C189.86 8.75142 190.388 8.18815 190.515 7.38527C190.675 6.36795 190.364 5.86468 189.122 5.34661Z" fill="white"/>
<path d="M79.513 13.4103C79.2953 13.1405 79.091 12.9385 78.9805 12.6961C78.348 11.3104 77.3603 10.6042 75.6697 11.1248C75.6697 11.9716 75.6697 12.9167 75.6697 13.9255C74.7529 13.9255 73.9096 13.9255 73 13.9255C73 10.3643 73 6.75818 73 3.01915C75.3295 3.16057 77.7187 2.70375 80.0663 3.39603C81.7752 3.90001 82.5476 5.17461 82.6582 6.75442C82.755 8.13773 82.3516 9.46516 80.936 10.1933C80.4753 10.4302 80.526 10.5948 80.7889 10.9417C81.5136 11.8979 82.2004 12.8813 83 13.9895C81.9705 13.9895 81.0906 14.0251 80.2176 13.9652C79.9905 13.9497 79.785 13.6361 79.513 13.4103ZM79.8239 7.17316C79.9137 6.33567 79.5522 5.67182 78.7381 5.49192C77.751 5.2738 76.7146 5.26627 75.6522 5.16302C75.6522 6.45953 75.6522 7.58627 75.6522 8.78631C76.4119 8.78631 77.1381 8.82179 77.8591 8.77761C78.825 8.71842 79.5976 8.35747 79.8239 7.17316Z" fill="white"/>
<path d="M8.44427 58.4306C9.50147 55.8521 10.5462 53.3434 11.5189 50.8035C11.7651 50.1607 12.087 49.9459 12.6935 50.0112C13.083 50.0531 13.4797 50.019 14 50.019C13.593 51.0858 13.2347 52.0704 12.8442 53.0405C11.3162 56.8363 9.786 60.6313 8.22551 64.4121C8.12234 64.6621 7.7702 64.9323 7.51588 64.9539C5.80564 65.0988 5.77499 64.9996 5.08713 63.1931C4.02769 60.4108 2.9003 57.6575 1.78899 54.8976C1.22262 53.4911 0.622297 52.1 0.05473 50.6939C-0.0170242 50.5162 0.0173454 50.2901 0 50.0514C0.737819 50.0514 1.43906 50.0514 2.15924 50.0514C3.75273 53.9958 5.34717 57.9426 6.98553 61.9981C7.49634 60.7353 7.95074 59.612 8.44427 58.4306Z" fill="white"/>
<path d="M211.917 35.9906C211.045 35.6373 210.197 35.3727 209.47 34.9156C208.009 33.9967 207.267 32.6247 207.057 30.8799C206.644 27.4423 208.494 25.0084 211.471 24.2607C213.752 23.688 215.889 24.0135 217.685 25.6913C218.089 26.0683 218.154 26.3133 217.584 26.6796C217.112 26.9829 216.803 27.543 216.39 28.0275C215.556 27.0744 214.679 26.5383 213.604 26.4603C212.665 26.3922 211.811 26.6673 211.069 27.2962C209.398 28.7141 209.595 31.3185 210.746 32.4964C212.078 33.8593 214.343 34.2547 216.208 32.2503C216.582 32.5386 216.986 32.8068 217.34 33.1296C218.227 33.9382 218.202 34.2352 217.195 34.9096C216.132 35.6217 214.975 36.0457 213.671 35.9961C213.114 35.9749 212.555 35.9924 211.917 35.9906Z" fill="white"/>
<path d="M225 12.3536C225 12.9453 225 13.4439 225 13.999C224.146 13.999 223.326 13.999 222.43 13.999C222.43 12.5644 222.43 11.1059 222.43 9.59226C220.855 9.59226 219.352 9.59226 217.775 9.59226C217.775 11.0286 217.775 12.4869 217.775 14C216.82 14 215.938 14 215 14C215 10.3646 215 6.71125 215 3.00104C215.862 3.00104 216.744 3.00104 217.702 3.00104C217.702 4.37392 217.702 5.76963 217.702 7.22009C219.277 7.22009 220.78 7.22009 222.357 7.22009C222.357 5.84557 222.357 4.44997 222.357 3C223.25 3 224.07 3 225 3C225 6.07508 225 9.16776 225 12.3536Z" fill="white"/>
<path d="M270.286 11.7952C270.898 11.7952 271.423 11.7952 272 11.7952C272 12.5348 272 13.2392 272 14C269.363 14 266.708 14 264 14C264 10.3648 264 6.71106 264 3C266.576 3 269.172 3 271.823 3C271.823 3.67992 271.823 4.38428 271.823 5.1648C270.13 5.1648 268.413 5.1648 266.644 5.1648C266.644 5.87813 266.644 6.5197 266.644 7.23731C268.102 7.23731 269.584 7.23731 271.119 7.23731C271.119 8.01333 271.119 8.71775 271.119 9.49857C269.658 9.49857 268.176 9.49857 266.643 9.49857C266.643 10.2751 266.643 10.9794 266.643 11.7952C267.815 11.7952 269.007 11.7952 270.286 11.7952Z" fill="white"/>
<path d="M32.4702 14C31.6043 14 30.8281 14 30 14C30 10.3252 30 6.6904 30 3C32.5774 3 35.1709 3 37.8183 3C37.8183 3.68074 37.8183 4.38147 37.8183 5.15794C36.0839 5.15794 34.3293 5.15794 32.5223 5.15794C32.5223 5.86718 32.5223 6.50549 32.5223 7.21964C34.077 7.21964 35.652 7.21964 37.2787 7.21964C37.2787 7.99193 37.2787 8.69266 37.2787 9.46908C35.7223 9.46908 34.1475 9.46908 32.5214 9.46908C32.5214 10.2415 32.5214 10.9422 32.5214 11.7185C34.3197 11.7185 36.1343 11.7185 38 11.7185C38 12.4907 38 13.1914 38 14C36.1964 14 34.3782 14 32.4702 14Z" fill="white"/>
<path d="M199.453 9.53481C198.767 9.53481 198.171 9.53481 197.522 9.53481C197.522 10.2755 197.522 10.9798 197.522 11.7602C199.319 11.7602 201.133 11.7602 203 11.7602C203 12.5361 203 13.2403 203 14C200.361 14 197.707 14 195 14C195 10.3619 195 6.70905 195 3C197.577 3 200.171 3 202.819 3C202.819 3.68325 202.819 4.38746 202.819 5.1678C201.085 5.1678 199.33 5.1678 197.523 5.1678C197.523 5.88097 197.523 6.52237 197.523 7.23978C199.077 7.23978 200.652 7.23978 202.279 7.23978C202.279 8.01592 202.279 8.72013 202.279 9.53481C201.379 9.53481 200.461 9.53481 199.453 9.53481Z" fill="white"/>
<path d="M175 10.4758C175 7.9394 175 5.49708 175 3C177.614 3 180.19 3 182.82 3C182.82 3.68597 182.82 4.38978 182.82 5.16997C181.095 5.16997 179.352 5.16997 177.557 5.16997C177.557 5.883 177.557 6.52424 177.557 7.24146C179.103 7.24146 180.668 7.24146 182.284 7.24146C182.284 8.01722 182.284 8.72132 182.284 9.50159C180.736 9.50159 179.171 9.50159 177.556 9.50159C177.556 10.2777 177.556 10.9818 177.556 11.7617C179.344 11.7617 181.147 11.7617 183 11.7617C183 12.5375 183 13.2416 183 14C180.376 14 177.739 14 175 14C175 12.8653 175 11.7176 175 10.4758Z" fill="white"/>
<path d="M119.63 3C120.735 3 121.751 3 122.818 3C122.818 3.73922 122.818 4.43969 122.818 5.21585C121.08 5.21585 119.326 5.21585 117.521 5.21585C117.521 5.92536 117.521 6.5633 117.521 7.27684C119.081 7.27684 120.655 7.27684 122.279 7.27684C122.279 8.04897 122.279 8.74941 122.279 9.52552C120.718 9.52552 119.144 9.52552 117.52 9.52552C117.52 10.2978 117.52 10.9982 117.52 11.7742C119.323 11.7742 121.137 11.7742 123 11.7742C123 12.5464 123 13.2468 123 14C120.356 14 117.703 14 115 14C115 10.3746 115 6.74094 115 3C116.505 3 118.023 3 119.63 3Z" fill="white"/>
<path d="M14.3601 9.53855C14.2299 10.264 14.1753 10.9846 14.1145 11.787C15.8092 11.787 17.3911 11.787 19 11.787C19 12.5635 19 13.265 19 14C16.6549 14 14.3419 14 12 14C12 10.3196 12 6.67776 12 3C14.2925 3 16.5531 3 18.8433 3C18.8433 3.73933 18.8433 4.44085 18.8433 5.21711C17.2834 5.21711 15.7538 5.21711 14.1959 5.21711C14.1959 5.90729 14.1959 6.52473 14.1959 7.25027C15.5634 7.25027 16.9556 7.25027 18.3747 7.25027C18.3747 8.03651 18.3747 8.7166 18.3747 9.53366C17.0765 9.53366 15.7561 9.53366 14.3601 9.53855Z" fill="white"/>
<path d="M89.3809 13.9952C88.5927 13.9963 87.8843 13.9963 87 13.9963C88.6021 10.2415 90.1422 6.63202 91.6919 3C92.5584 3 93.4214 3 94.2824 3C95.8343 6.61686 97.3812 10.2222 99 13.9952C98.0411 13.9952 97.249 14.0139 96.4592 13.9777C96.3188 13.9713 96.139 13.7627 96.0621 13.6033C95.8302 13.1232 95.6826 12.5946 95.4166 12.1386C95.2726 11.8917 94.9601 11.6022 94.7141 11.5925C93.3686 11.5395 92.0202 11.5672 90.8193 11.5672C90.3324 12.4369 89.8965 13.2155 89.3809 13.9952ZM93.1686 9.51175C93.5495 9.51175 93.9304 9.51175 94.4241 9.51175C93.9335 8.2773 93.4849 7.14839 92.9851 5.89079C92.4602 7.1797 91.9919 8.32961 91.5105 9.51175C92.0422 9.51175 92.5211 9.51175 93.1686 9.51175Z" fill="white"/>
<path d="M58.2886 5.04004C57.3139 4.79201 56.4049 4.52438 55.4797 4.41598C54.6866 4.32306 54.0361 4.67375 53.7862 5.62471C54.5976 6.84669 55.9458 6.74202 57.0888 7.13589C58.2088 7.52187 59.3402 7.87672 59.7981 9.23745C60.5412 11.4455 59.1454 13.3421 57.0475 13.8135C54.9243 14.2906 52.9645 13.8282 51 12.7008C51.2845 11.9509 51.5665 11.2076 51.752 10.7188C53.1114 11.0447 54.374 11.3528 55.64 11.6444C55.8126 11.6841 56.0469 11.7144 56.1746 11.6228C56.5913 11.3242 56.9717 10.9671 57.3661 10.6325C57.0162 10.2775 56.7208 9.77405 56.3055 9.59696C55.2804 9.15984 54.2064 8.84863 53.1406 8.53118C51.9721 8.18312 51.3879 7.32841 51.2467 6.09044C51.0906 4.72188 51.5337 3.51848 52.6335 2.88214C54.7348 1.66639 56.9328 1.75647 59.0767 2.8504C59.2655 2.94678 59.4496 3.3933 59.4017 3.6198C59.2937 4.13103 59.0562 4.61608 58.8258 5.08586C58.7905 5.15778 58.5128 5.09175 58.2886 5.04004Z" fill="white"/>
<path d="M149 12.6401C149.18 11.8789 149.406 11.1698 149.558 10.6911C150.81 11.0259 151.917 11.3257 153.027 11.6139C153.157 11.6477 153.337 11.6815 153.429 11.6045C153.837 11.2623 154.22 10.8797 154.613 10.5117C154.23 10.1639 153.888 9.69439 153.457 9.49274C152.461 9.02629 151.365 8.82726 150.412 8.27042C148.635 7.23191 148.575 4.31037 150.241 3.01402C152.029 1.62235 153.906 1.83002 155.8 2.63852C156.07 2.75366 156.313 2.96016 156.589 3.13832C156.355 3.79867 156.121 4.45725 155.857 5.20124C155.286 4.97326 154.734 4.62133 154.159 4.55695C153.443 4.47663 152.701 4.58466 151.984 4.72029C151.796 4.75591 151.52 5.20923 151.537 5.44342C151.561 5.75649 151.78 6.20857 152.006 6.31057C152.763 6.65113 153.593 6.77243 154.334 7.14752C155.116 7.54305 156.036 7.93812 156.528 8.68031C157.489 10.1293 156.906 12.3956 155.472 13.2167C153.268 14.4789 151.113 14.1648 149 12.6401Z" fill="white"/>
<path d="M238.412 6.69943C237.815 4.70224 238.774 3.10964 240.406 2.44037C242.111 1.74119 243.843 1.951 245.531 2.537C246.562 2.89504 246.595 3.09028 246.158 4.20601C246.035 4.52168 245.911 4.83722 245.761 5.22145C244.372 4.61322 242.95 3.98342 241.435 4.64396C241.134 4.77499 240.963 5.24964 240.739 5.5564C241.628 6.83276 242.969 6.74265 244.121 7.12883C245.221 7.49775 246.353 7.87418 246.79 9.16548C247.501 11.2659 246.355 13.2703 244.115 13.7963C241.972 14.2996 239.97 13.849 238 12.6808C238.278 11.9512 238.552 11.2314 238.825 10.5123C239.676 10.8612 240.479 11.3228 241.333 11.5004C242.062 11.6519 242.865 11.5598 243.604 11.4063C243.908 11.3433 244.304 10.8564 244.337 10.5252C244.362 10.2746 243.924 9.82662 243.612 9.70655C242.436 9.25354 241.218 8.9267 240.033 8.497C239.258 8.21558 238.61 7.73266 238.412 6.69943Z" fill="white"/>
<path d="M122.209 26.0282C121.837 25.3712 121.472 24.7825 121 24.0217C122.086 24.0217 123.015 23.9517 123.922 24.063C124.206 24.0978 124.469 24.5973 124.678 24.927C125.112 25.614 125.507 26.3281 125.913 27.0339C126.313 27.7305 126.708 28.4307 127.153 29.2123C128.085 27.6304 129.004 26.1338 129.852 24.5962C130.111 24.1261 130.396 23.9833 130.883 24.0109C131.52 24.0471 132.16 24.0198 133 24.0198C132.451 25.0239 132.004 25.8915 131.512 26.7309C130.557 28.3597 129.565 29.9655 128.618 31.5994C128.466 31.8606 128.42 32.2168 128.413 32.531C128.39 33.6747 128.404 34.8192 128.404 36C127.44 36 126.543 36 125.572 36C125.572 35.1617 125.495 34.3421 125.589 33.5437C125.746 32.2145 125.287 31.1148 124.618 30.0443C123.802 28.7385 123.015 27.4134 122.209 26.0282Z" fill="white"/>
<path d="M208.05 11.1908C209.304 11.9409 210.851 11.8712 211.901 10.9479C212.379 10.5276 212.631 10.5404 213.059 10.9773C214.26 12.204 214.296 12.217 212.763 13.1799C209.658 15.1308 204.701 13.471 204.086 9.57894C203.362 5.00143 207.361 2.383 210.868 3.12476C211.904 3.34382 212.771 3.73939 213.596 4.33131C214.027 4.64141 214.196 4.98978 213.683 5.40382C213.452 5.59059 213.237 5.80731 213.052 6.04055C212.668 6.52552 212.342 6.54487 211.908 6.06193C211.004 5.05555 208.977 4.99447 207.732 5.99245C206.707 6.81489 206.242 8.56317 206.919 9.84213C207.178 10.3298 207.635 10.7106 208.05 11.1908Z" fill="white"/>
<path d="M248.857 26.7494C248.853 29.8789 248.853 32.92 248.853 36C247.987 36 247.181 36 246.311 36C246.311 32.8485 246.311 29.7247 246.311 26.5286C245.177 26.5286 244.104 26.5286 243 26.5286C243 25.6496 243 24.8438 243 24C246.007 24 248.987 24 252 24C252 24.8371 252 25.6429 252 26.4494C250.935 26.5211 249.898 26.591 248.857 26.7494Z" fill="white"/>
<path d="M25.1203 5.20214C24.7825 5.20214 24.5217 5.20214 24.2106 5.20214C24.2106 6.05972 24.2106 6.88974 24.2106 7.79599C25.5608 7.79599 26.9401 7.79599 28.3687 7.79599C28.3687 8.57331 28.3687 9.278 28.3687 10.0585C27.0171 10.0585 25.6377 10.0585 24.1957 10.0585C24.1957 11.4003 24.1957 12.6712 24.1957 14C23.4392 14 22.7443 14 22 14C22 10.371 22 6.7152 22 3C24.3013 3 26.6255 3 29 3C29 3.67448 29 4.37917 29 5.20214C27.7502 5.20214 26.4737 5.20214 25.1203 5.20214Z" fill="white"/>
<path d="M181.779 36C180.142 36 178.598 36 177 36C177 31.9914 177 28.0225 177 24C177.927 24 178.87 24 179.887 24C179.887 27.1633 179.887 30.3418 179.887 33.5927C181.954 33.5927 183.951 33.5927 186 33.5927C186 34.4071 186 35.1508 186 36C184.635 36 183.253 36 181.779 36Z" fill="white"/>
<path d="M135.202 11.7988C135.513 11.7988 135.745 11.7988 136 11.7988C136 12.5733 136 13.2559 136 14C133.687 14 131.37 14 129 14C129 10.3773 129 6.71963 129 3C129.731 3 130.493 3 131.32 3C131.32 5.86847 131.32 8.77287 131.32 11.7988C132.629 11.7988 133.876 11.7988 135.202 11.7988Z" fill="white"/>
<path d="M209 82.8038C209 80.8257 209 78.939 209 77C210.009 77 210.973 77 212 77C212 82.3078 212 87.6274 212 93C211.053 93 210.089 93 209 93C209 89.6402 209 86.2677 209 82.8038Z" fill="white"/>
<path d="M190 80.7908C190 79.4836 190 78.2679 190 77C190.674 77 191.314 77 192 77C192 82.308 192 87.6277 192 93C191.371 93 190.73 93 190 93C190 88.9688 190 84.9255 190 80.7908Z" fill="white"/>
<path d="M68 86.2811C68 88.5642 68 90.7558 68 93C66.99 93 66.0292 93 65 93C65 87.6926 65 82.3728 65 77C65.943 77 66.9038 77 68 77C68 80.0544 68 83.122 68 86.2811Z" fill="white"/>
<path d="M104 81.7057C104 80.0936 104 78.5729 104 77C104.674 77 105.314 77 106 77C106 82.3078 106 87.6275 106 93C105.371 93 104.73 93 104 93C104 89.274 104 85.5356 104 81.7057Z" fill="white"/>
<path d="M77 33.849C77 30.5227 77 27.2876 77 24C78.009 24 78.977 24 80 24C80 27.9748 80 31.961 80 36C79.0447 36 78.0767 36 77 36C77 35.3233 77 34.6317 77 33.849Z" fill="white"/>
<path d="M13 29.8166C13 27.8342 13 25.9434 13 24C14.0085 24 14.9766 24 16 24C16 27.974 16 31.9604 16 36C15.046 36 14.078 36 13 36C13 33.9786 13 31.9434 13 29.8166Z" fill="white"/>
<path d="M172 51.0607C172 55.7505 172 60.3516 172 65C171.318 65 170.681 65 170 65C170 60.0141 170 55.0305 170 50C170.639 50 171.276 50 172 50C172 50.3261 172 50.649 172 51.0607Z" fill="white"/>
<path d="M17.9956 64.7213C17.3394 64.8709 16.6877 64.9337 16 65C16 59.9258 16 54.9801 16 50C16.6479 50 17.2626 50 18 50C18 54.8624 18 59.7484 17.9956 64.7213Z" fill="white"/>
<path d="M86 10.4768C86 11.696 86 12.8211 86 14C85.3271 14 84.6832 14 84 14C84 10.3597 84 6.70704 84 3C84.634 3 85.2779 3 86 3C86 5.45209 86 7.91739 86 10.4768Z" fill="white"/>
<path d="M57.552 33.5592C58.5428 34.8423 57.6426 35.9075 57.2137 37.0069C57.1395 37.1972 57.0095 37.3709 56.9325 37.5605C56.307 39.1018 56.2284 39.142 54.2027 38.8728C54.4815 37.9834 54.7591 37.0977 55.0375 36.21C54.0808 35.6489 53.7301 34.6629 54.221 33.9012C54.7773 33.0381 55.9285 32.7577 57.0274 33.2229C57.2058 33.2984 57.3712 33.3972 57.552 33.5592Z" fill="white"/>
<path d="M86.5039 21.9871C86.0994 22.1869 85.7672 22.4162 85.435 22.6454C85.4788 22.7315 85.5227 22.8175 85.5665 22.9036C85.0613 22.9036 84.556 22.9036 84.0505 22.9035C83.8416 21.9445 84.2993 20.779 85.0796 20.2816C85.8413 19.7962 86.8672 19.9461 87.7444 20.671C88.6654 21.4321 89.0095 21.3401 89.4139 20.1937C89.7513 20.1937 90.1009 20.1937 90.4505 20.1937C90.6068 20.1937 90.7631 20.1937 91 20.1937C90.973 21.1834 90.8401 22.1159 90.0153 22.6446C89.2354 23.1446 88.3456 23.1051 87.5225 22.6012C87.2063 22.4076 86.8916 22.2115 86.5039 21.9871Z" fill="white"/>
<path d="M24.0602 20.5047C24.3031 20.7282 24.4842 20.9764 24.7035 21.0392C24.9344 21.1053 25.3961 21.0604 25.4231 20.9502C25.6789 19.9089 26.345 20.1743 26.9451 20.2027C27.1219 21.3381 26.8786 22.2523 26.1178 22.7079C25.3819 23.1485 24.6156 23.102 23.8932 22.4909C22.9091 21.6584 22.605 21.7548 22.2753 22.9341C22.0963 22.9341 21.9034 22.9341 21.7106 22.9341C21.5168 22.9341 21.3229 22.9341 21.0905 22.9341C20.8626 22.0015 21.0736 21.1899 21.6285 20.5632C22.3636 19.7331 23.1987 19.9136 24.0602 20.5047Z" fill="white"/>
<path d="M183.842 47.0003C184.576 47 185.242 47 185.907 47C185.938 47.0496 185.969 47.0992 186 47.1488C185.274 47.5673 184.467 47.9286 183.842 48.4187C183.083 49.014 182.223 49.0657 181 48.9507C182.006 48.244 182.89 47.6223 183.842 47.0003Z" fill="white"/>
<path d="M84 1.92686C84.844 0.460998 86.0609 -0.383115 88 0.171607C86.8543 1.10676 85.8694 2.31024 84 1.92686Z" fill="white"/>
<path d="M145.138 60C144.734 60 144.404 60 144 60C144.829 57.6723 145.628 55.428 146.492 53C147.344 55.3787 148.16 57.6566 149 60C147.681 60 146.447 60 145.138 60Z" fill="white"/>
</svg>
