<svg width="303" height="303" viewBox="0 0 303 303" fill="none" xmlns="http://www.w3.org/2000/svg">
<path d="M129.868 9.74319C141.475 -2.99722 161.525 -2.99722 173.132 9.74319V9.74319C180.833 18.1948 192.75 21.388 203.644 17.9188V17.9188C220.067 12.6892 237.43 22.7138 241.113 39.5512V39.5512C243.555 50.7207 252.279 59.4446 263.449 61.8874V61.8874C280.286 65.5698 290.311 82.9329 285.081 99.3557V99.3557C281.612 110.25 284.805 122.167 293.257 129.868V129.868C305.997 141.475 305.997 161.525 293.257 173.132V173.132C284.805 180.833 281.612 192.75 285.081 203.644V203.644C290.311 220.067 280.286 237.43 263.449 241.113V241.113C252.279 243.555 243.555 252.279 241.113 263.449V263.449C237.43 280.286 220.067 290.311 203.644 285.081V285.081C192.75 281.612 180.833 284.805 173.132 293.257V293.257C161.525 305.997 141.475 305.997 129.868 293.257V293.257C122.167 284.805 110.25 281.612 99.3557 285.081V285.081C82.9329 290.311 65.5698 280.286 61.8874 263.449V263.449C59.4446 252.279 50.7207 243.555 39.5512 241.113V241.113C22.7138 237.43 12.6892 220.067 17.9188 203.644V203.644C21.388 192.75 18.1948 180.833 9.74319 173.132V173.132C-2.99722 161.525 -2.99722 141.475 9.74319 129.868V129.868C18.1948 122.167 21.388 110.25 17.9188 99.3557V99.3557C12.6892 82.9329 22.7138 65.5698 39.5512 61.8874V61.8874C50.7207 59.4446 59.4446 50.7207 61.8874 39.5512V39.5512C65.5698 22.7138 82.9329 12.6892 99.3557 17.9188V17.9188C110.25 21.388 122.167 18.1948 129.868 9.74319V9.74319Z" fill="#2F977E"/>
</svg>
