<svg width="102" height="80" viewBox="0 0 102 80" fill="none" xmlns="http://www.w3.org/2000/svg">
<path d="M21.7871 63.2255C20.5673 65.5869 18.33 66.879 14.4938 66.879C10.4361 66.879 6.95093 64.9648 6.95093 59.6719C6.95093 54.3294 9.98002 51.2241 14.2442 51.2241C18.5759 51.2241 20.766 52.9621 21.6389 55.7704L17.5557 57.8578C17.2813 56.1199 16.1482 55.1006 14.8926 55.1006C13.4202 55.1006 11.7545 56.3663 11.7545 58.8769C11.7545 61.5363 13.1114 62.7534 14.8161 62.7534C16.2022 62.7534 17.307 61.9091 17.7537 60.69L21.7871 63.2255Z" fill="white"/>
<path d="M21.7871 63.2255C20.5673 65.5869 18.33 66.879 14.4938 66.879C10.4361 66.879 6.95093 64.9648 6.95093 59.6719C6.95093 54.3294 9.98002 51.2241 14.2442 51.2241C18.5759 51.2241 20.766 52.9621 21.6389 55.7704L17.5557 57.8578C17.2813 56.1199 16.1482 55.1006 14.8926 55.1006C13.4202 55.1006 11.7545 56.3663 11.7545 58.8769C11.7545 61.5363 13.1114 62.7534 14.8161 62.7534C16.2022 62.7534 17.307 61.9091 17.7537 60.69L21.7871 63.2255Z" stroke="white" stroke-width="1.5" stroke-miterlimit="10"/>
<path d="M22.1453 53.8847L26.645 52.7309C26.645 52.7309 27.4737 57.9831 28.1143 61.8071C28.3107 62.9861 29.1061 63.5319 30.5348 63.2924C32.0355 63.0418 32.7507 62.372 32.554 61.1934C31.913 57.3666 30.9818 52.1088 30.9818 52.1088L35.8176 50.8224C35.8176 50.8224 36.508 57.5206 37.1514 61.3589C37.6768 64.5034 35.0539 66.4204 31.5105 67.0104C27.4327 67.6909 24.4744 66.4512 23.9622 63.3947C23.3005 59.4373 22.1453 53.8847 22.1453 53.8847Z" fill="white"/>
<path d="M22.1453 53.8847L26.645 52.7309C26.645 52.7309 27.4737 57.9831 28.1143 61.8071C28.3107 62.9861 29.1061 63.5319 30.5348 63.2924C32.0355 63.0418 32.7507 62.372 32.554 61.1934C31.913 57.3666 30.9818 52.1088 30.9818 52.1088L35.8176 50.8224C35.8176 50.8224 36.508 57.5206 37.1514 61.3589C37.6768 64.5034 35.0539 66.4204 31.5105 67.0104C27.4327 67.6909 24.4744 66.4512 23.9622 63.3947C23.3005 59.4373 22.1453 53.8847 22.1453 53.8847Z" stroke="white" stroke-width="1.5" stroke-miterlimit="10"/>
<path d="M50.3384 50.8511L49.8152 54.6535L43.3717 54.6775L43.3455 56.567L49.0947 56.7898L49.07 60.2192L43.3717 59.9953L43.3222 62.0335L50.4886 62.5056L49.94 66.8039L39.4106 66.133L38.5388 51.3733L50.3384 50.8511Z" fill="white"/>
<path d="M50.3384 50.8511L49.8152 54.6535L43.3717 54.6775L43.3455 56.567L49.0947 56.7898L49.07 60.2192L43.3717 59.9953L43.3222 62.0335L50.4886 62.5056L49.94 66.8039L39.4106 66.133L38.5388 51.3733L50.3384 50.8511Z" stroke="white" stroke-width="1.5" stroke-miterlimit="10"/>
<path d="M56.3634 66.6549L51.6824 66.9768L52.9274 50.8749L57.0553 51.5712L61.9627 59.5517L62.038 51.2743L66.5177 50.924L65.6472 66.6038L61.3985 67.3013L56.3866 58.145L56.3634 66.6549Z" fill="white"/>
<path d="M56.3634 66.6549L51.6824 66.9768L52.9274 50.8749L57.0553 51.5712L61.9627 59.5517L62.038 51.2743L66.5177 50.924L65.6472 66.6038L61.3985 67.3013L56.3866 58.145L56.3634 66.6549Z" stroke="white" stroke-width="1.5" stroke-miterlimit="10"/>
<path d="M67.4146 51.4972L80.7812 50.3802L80.7062 54.5785L76.875 54.8015L77.3467 66.2569L72.5666 65.8348L72.1184 54.9014L68.0367 55.3988L67.4146 51.4972Z" fill="white"/>
<path d="M67.4146 51.4972L80.7812 50.3802L80.7062 54.5785L76.875 54.8015L77.3467 66.2569L72.5666 65.8348L72.1184 54.9014L68.0367 55.3988L67.4146 51.4972Z" stroke="white" stroke-width="2" stroke-miterlimit="10"/>
<path d="M80.4575 60.013C80.4575 55.1162 83.3985 52.1336 88.2796 52.1336C93.1791 52.1336 95.0492 54.9673 95.0492 60.6818C95.0492 65.648 92.3229 67.7636 87.5083 67.7636C82.9237 67.7636 80.4575 65.3545 80.4575 60.013ZM85.192 60.0358C85.192 62.5987 86.3863 63.8382 88.1555 63.8382C89.6748 63.8382 90.4197 62.8547 90.4197 59.9867C90.4197 57.8505 90.1719 56.1103 88.4295 56.1103C86.3867 56.1105 85.192 57.5016 85.192 60.0358Z" fill="white"/>
<path d="M80.4575 60.013C80.4575 55.1162 83.3985 52.1336 88.2796 52.1336C93.1791 52.1336 95.0492 54.9673 95.0492 60.6818C95.0492 65.648 92.3229 67.7636 87.5083 67.7636C82.9237 67.7636 80.4575 65.3545 80.4575 60.013ZM85.192 60.0358C85.192 62.5987 86.3863 63.8382 88.1555 63.8382C89.6748 63.8382 90.4197 62.8547 90.4197 59.9867C90.4197 57.8505 90.1719 56.1103 88.4295 56.1103C86.3867 56.1105 85.192 57.5016 85.192 60.0358Z" stroke="white" stroke-width="2" stroke-miterlimit="10"/>
<path d="M12.302 16.3359L24.2583 12.2008L31.7548 24.0645L35.8512 10.2608L48.436 9.7135L38.8387 32.1792L40.7684 45.9973L30.2456 46.5419L28.1854 33.8112L12.302 16.3359Z" fill="white"/>
<path d="M47.2077 29.1968C48.4964 19.3552 55.1901 14.1384 65.0009 15.4164C74.8471 16.7002 77.8642 22.8855 76.361 34.3735C75.0538 44.351 69.0149 47.89 59.3405 46.6279C50.1269 45.4261 45.8029 39.9357 47.2077 29.1968ZM56.7192 30.4887C56.0458 35.636 58.1164 38.4435 61.674 38.907C64.728 39.3026 66.4816 37.5243 67.2387 31.7585C67.8011 27.4634 67.7612 23.9028 64.2563 23.4465C60.1532 22.9118 57.3862 25.3942 56.7192 30.4887Z" fill="white"/>
</svg>
