<svg width="1024" height="1024" viewBox="0 0 1024 1024" fill="none" xmlns="http://www.w3.org/2000/svg">
<g clip-path="url(#clip0_2868_8116)">
<path d="M0 512V0H512H1024V512V1024H512H0V512ZM535 961.4C548.5 961.2 573 960.8 589.5 960.6C616.8 960.2 620.1 959.9 626.5 958C632.4 956.1 634.6 955.9 641 956.6C650.7 957.6 663.1 957.4 691 956C703.4 955.4 719.8 954.6 727.5 954.2C735.2 953.8 742 953.1 742.7 952.7C743.3 952.3 752.3 951.1 762.7 949.9C773 948.8 781.9 947.5 782.4 946.9C783 946.4 785.1 946 787.3 946C789.4 946 793.3 945 796 943.9C799.6 942.4 801.9 942 804.2 942.5C808.1 943.3 810.3 943.3 826.9 942.8C835.2 942.5 839.5 941.9 839.8 941.2C840 940.5 842.2 940 845.2 940C848.6 940 851.1 939.4 853 938C854.5 936.9 859.4 935.4 864.1 934.6C868.7 933.8 875 932.5 878 931.6C881 930.7 890 928.4 898 926.4C906 924.3 913.6 922.2 915 921.6C921.1 919 934.9 909.8 938.9 905.6C943 901.5 943.3 900.8 942.4 898.3C941.3 895.2 928.8 885.1 928.2 886.9C928 887.5 926.4 888 924.6 888H921.3L920.7 879.8C919.8 869.1 915.5 843.9 914.1 841.4C913.6 840.4 910.1 828 906.5 814C902.8 800 897.4 779.7 894.5 769C878.7 711.6 876 701 876 695.8C876 692.9 877.3 678.3 879 663.5C880.6 648.7 882.5 629.5 883.1 621C883.7 612.5 884.7 605.3 885.2 605.1C887.7 604.2 894.8 598 897.7 594.2C904.3 585.5 908.2 566.4 906 552.8C903.8 538.5 903.8 537.3 905.4 530.7C911.6 506.1 913.8 449.2 909.5 425.7C904.9 400.5 892.7 379.1 868.6 354.2C842.9 327.6 815.8 309.6 780 295.2C760.3 287.3 730.4 279 721.3 279C715.4 279 715.7 281.8 715.5 223.8C715.3 168.9 714.8 161.5 710.8 143C702.2 102.9 680.6 77.2 648 68C637.3 65 620.2 64.3 608 66.4C595.3 68.6 586.4 71.6 562 82C536.6 92.8 532 94.3 514.5 97C475.2 103.1 458.9 107.9 443.1 118C434.6 123.5 425.2 132.8 422.1 138.9C421 140.9 419.4 145.1 418.5 148.3C417 153.5 417 154.4 418.5 160.2C421.3 171.3 428.3 179.8 439.4 185.6L444.6 188.3V201.4C444.5 213.8 444.7 215 447.9 224.3C452.9 238.6 468.8 264.8 477.9 273.4C482 277.4 482 281.2 477.5 294.4C471 314.1 470.5 324.6 475.9 330.1L478.7 332.8L493.6 328.9C510.4 324.6 514.8 324.1 515.6 326.8C521.4 346.3 554.4 371.1 574.9 371.2C578.5 371.3 584.3 370.6 587.6 369.6C591 368.7 595.2 368 596.9 368C599.6 368 600 368.4 600 370.6C600 372.1 599.1 376.7 598 380.9C596.9 385.1 594.6 394.4 592.9 401.5C587.7 423.5 579 438 571 438C569.3 438 562 436 554.7 433.5C538.9 428.2 523.8 424.2 516.1 423.3C511 422.8 509.7 422.1 502.5 416C491.7 406.9 482.4 401 478.7 401C476.9 401 471.8 398.6 464.9 394.4C450.9 386 438.1 380 425 375.6C408.6 370.2 402.8 370.1 399.6 375.2C398.7 376.7 399.4 377.8 403.5 382C406.3 384.8 413.6 391 419.8 395.7C432.6 405.5 433 406.3 428.6 416.1C427.3 419.1 425.9 423.1 425.6 425C425.2 426.9 423.7 430.8 422.3 433.6C419.2 439.6 419.6 442.3 424.2 447.6C427 450.7 436.6 457.6 442.6 460.8C443.7 461.4 446.5 461.6 448.8 461.3C452.7 460.8 453.3 461.1 457.4 464.8C459.8 467.1 464.7 470.3 468.2 472.1C473.3 474.8 475.6 475.3 480.3 475.2C486 475.1 486.2 475.2 495.8 482.4C515.5 497.2 539 509.7 564.5 518.8C581.4 524.8 592.5 527.4 598.9 526.8C612.8 525.5 627.5 513.2 642.7 490.3L652.2 476H656.7H661.1L670.4 490.3C686.6 514.9 694.9 531.2 698.5 544.9C701 554.8 703.6 548 674.5 608C641.8 675.5 641.5 676.5 644.3 752.3C645.3 778.3 646.7 806.3 647.5 814.5C648.3 822.8 649 830.5 649 831.8C649 833.7 647.2 834.9 637.4 839.5C630.5 842.8 624.3 845 622.4 845C619.3 845 619 844.7 619 842.2V839.3L604.8 838.5C596.9 838 587.6 837.7 584 837.9C580.4 838 570.1 837.6 561 837C551.9 836.4 525.2 835.8 501.6 835.7C468.3 835.5 458.6 835.2 458.2 834.3C457.8 832.8 455 832.5 455 833.9C455 835.6 446 836.9 426.5 838C409.4 839 387.4 839.4 380.5 839C379.4 838.9 374.1 839.2 368.8 839.6L359 840.3V808.8C359 791.5 359.3 767.8 359.7 756.2C360.3 736.8 360.5 735 362.2 734.4C363.2 734.1 366.3 731.7 369 729C373.8 724.3 374 723.9 374 718.6C374 714.2 373.5 712.6 371.5 710.2C370.1 708.5 369 706.1 369 704.7C369 701.8 364.9 696.4 362 695.5C360.9 695.1 360 694 360 692.9C360 688.1 353.8 683 348.1 683C345.8 683 343.5 681.9 340.4 679.4C336.8 676.5 336 675.1 336 672.5C336 669.7 336.7 668.8 341.3 665.8C344.1 663.9 348.9 660.1 351.9 657.4C358.5 651.5 371.5 635.4 375.8 627.9C380 620.4 386.5 604.8 388.6 597C389.5 593.3 391.4 589.3 392.8 587.8C394.2 586.3 399.7 582.9 404.9 580.4C420.4 572.8 431.8 559.8 438.1 542.4C439.8 537.9 440.3 534.1 440.4 526C440.5 513.8 438.9 507.7 433.3 498C426 485.5 407.2 469.3 394.3 464.4C390.7 463 389.4 461.7 386.5 456.4C373.8 433.8 349.2 411.4 326.2 401.6C316.4 397.4 291.6 390.5 281 389C270.6 387.5 256.6 389.5 243.8 394.4C207.6 408 177.9 441.9 167.5 481.5C164.4 493.1 162 509.7 162 519.3C162 528.9 165.4 548.6 167.9 554.2C169 556.6 170.6 561.5 171.4 565.3C173.5 574.5 176.2 579.4 183.2 586.6C188.3 592 189.1 593.3 188.8 596.1C188.5 599.2 188.2 599.4 182 601.1C178.4 602.1 170.8 605.3 165 608.1C155.6 612.7 153.4 614.4 144.5 623.4C118.7 649.4 100.3 686.7 90.6 732.7C83.5 766.4 81.8 813.7 87.5 820C88.5 821.1 90.7 825.5 92.4 829.8C94.2 834.1 97.8 841.2 100.6 845.4C103.3 849.6 106.2 854.4 107.1 856C108 857.7 109.2 859.5 109.7 860.2C111.4 862.5 113.2 869.5 112.8 872.5C112.5 875.2 111.4 876 101.6 881C92.6 885.6 89.9 887.5 86.3 891.9C84 894.8 82 897.7 82 898.3C82 900.5 85.8 905.7 89.2 908.3C94 912 119 923.3 130 926.8C135.2 928.5 143.6 930.6 148.5 931.5C153.5 932.4 160.9 934.2 165 935.5C169.1 936.7 177 938.3 182.5 939C188 939.7 195.2 940.8 198.6 941.6C201.9 942.4 206.5 943 208.8 943C211 943 215.5 943.7 218.7 944.5C221.8 945.3 228.1 946 232.6 946C237.2 946 242.1 946.5 243.6 947.1C245.2 947.6 251.2 948.8 257 949.7C267 951.1 274.1 951.7 308 953.9C321.6 954.7 334.6 956.3 338 957.6C338.8 957.9 347.9 958.1 358.1 958C368.4 958 381 958.4 386.1 958.9C401.2 960.5 430.6 960.6 438.1 959.1C443.3 958 445.6 958 449.6 959C458.9 961.3 477.5 962.6 494 962.2C503.1 962 521.5 961.7 535 961.4ZM290.5 317.3C298.2 315.6 306.5 313.4 308.9 312.6C315.8 310.1 322.2 310.7 342.9 316C367.6 322.2 367.9 322.1 363.5 310C362.6 307.5 360.1 301.4 358 296.4C352.5 283.8 352.7 281.9 360 267.4C366.9 253.8 370.6 244.9 372.6 237C374.5 229.2 374.4 210.7 372.4 203.9C370.2 196.4 361 177.5 356.7 171.6C352.9 166.4 337.2 150 336 150C335.6 150 332.2 147.7 328.4 144.9C319.6 138.4 314.8 136 302.8 132.1C285.5 126.5 282.3 126 262.5 125.4C243.5 124.7 243.5 124.8 231.9 127.8C219.3 131.2 207.2 136 196.8 141.8C187.6 146.8 166.8 163.2 165 166.7C164.2 168.2 162 172 160.1 175C158.2 178 154.4 185.5 151.7 191.5L146.7 202.5L146.6 214C146.5 220.3 146.9 230.2 147.4 236C148.1 245.6 148.6 247.2 152.8 255.5C162.8 275.5 174.4 289.8 187.2 298.3C201.9 307.9 218.8 315.6 231.5 318.4C242.2 320.8 242.4 320.8 260 320.6C274.3 320.4 278.4 319.9 290.5 317.3Z" fill="#F8F4F0"/>
<path d="M804 860.1C804 859 795.4 856.4 785.5 854.5C778.9 853.3 751 849 749.5 849C749.2 849 749 849.9 749 851C749 852.6 748.3 853 745.7 853C742.5 853 742.3 852.8 741 847.8C739.5 841.6 738.5 798.9 738.5 739.5V699.5L742.4 690C747 679 755.7 662 760.6 654.3C763.6 649.5 764.3 649 767.5 649C770.4 649 771 649.4 771 651.2C771 657.8 774.3 693.9 775.6 702C776.5 707.2 779.7 719.8 782.7 730C789.8 754.1 809.5 812.1 817.6 832.7C821.1 841.6 824 849.9 824 851.2C824 854.3 812.7 861 807.6 861C805.6 861 804 860.6 804 860.1Z" fill="#F8F4F0"/>
<path d="M472.5 965.4C467 964.7 460.3 964.1 457.7 964.1C455 964 452 963.5 450.8 962.9C448 961.4 441.1 961.4 435.8 962.9C432.2 963.9 425.9 963.9 404.9 962.9C390.4 962.2 369.5 961.6 358.5 961.5C347.5 961.4 335.6 960.8 332 960.1C328.4 959.4 323 958.4 319.9 957.8C316.8 957.3 313.4 957.1 312.4 957.4C311.3 957.7 305.7 957.5 300 956.9C294.2 956.3 284.4 955.7 278.3 955.5C272.1 955.3 266.6 954.9 266.1 954.5C265.6 954.2 260.2 953.3 254.3 952.5C248.3 951.7 242.2 950.6 240.6 950.1C239.1 949.5 234.2 949 229.6 949C225.1 949 218.8 948.3 215.7 947.5C212.5 946.7 208 946 205.8 946C203.5 946 198.9 945.4 195.6 944.6C192.2 943.8 185 942.7 179.5 942C174 941.3 166.1 939.7 162 938.5C157.9 937.2 150.5 935.4 145.5 934.5C132.7 932.2 115.7 926.3 100 918.7C85.7003 911.8 81.6003 908.6 79.5003 902.4C77.8003 897.5 78.9003 894.1 84.0003 888C87.1003 884.3 90.2003 882.1 97.3003 878.7C110.1 872.5 110.3 872.3 108.7 867.9C108 865.9 106.9 863.6 106.3 862.9C105.7 862.1 104.9 860.5 104.6 859.3C103.3 855.1 107.8 856.6 114.1 862.5C121.3 869.1 131.3 875.1 139.7 877.9C147 880.4 162.5 883 169.5 883C175 883 187.9 880.8 195 878.6C197.5 877.8 203.5 876.7 208.3 876C214.2 875.2 219.1 873.8 222.8 871.9C226 870.3 229.7 869 231.3 869C233.8 869 234 869.3 234 873.5C234 878.9 238 890.3 241 893.5C243.7 896.3 246.4 897.4 255.5 899.5C268.9 902.6 283.7 904 306.5 904.6C325.4 905.1 331.2 904.9 339 903.6C350.8 901.5 358.1 898.1 361.1 893.3L363.3 889.7L375.4 890.2C382.3 890.5 388.8 890.3 390.5 889.7C396.6 887.7 401.6 881.1 400.4 876.4C399.3 872.2 389.3 862.3 381.6 857.8C368.4 850.3 364.9 847.7 362.4 844.1C360 840.6 359.1 834 361 834C361.6 834 362 834.7 362 835.6C362 837.1 362.8 837.2 368.8 836.4C372.5 836 377.8 835.7 380.5 835.7C393.9 836 402.2 836 410 835.6C414.7 835.3 424.4 834.8 431.5 834.5C444.9 833.8 450.4 832.8 452.9 830.3C454.5 828.6 459.9 829.3 461.2 831.3C461.7 832.2 466.6 832.5 479.2 832.5C488.7 832.5 498.3 832.4 500.5 832.3C502.7 832.1 518.9 832.5 536.5 833.1C554.1 833.6 575.3 834.3 583.5 834.5C591.8 834.8 605.7 835.3 614.5 835.7L630.5 836.5L626.2 838.8C620.1 842.1 621.7 842.7 627.9 839.6C631.9 837.5 633 837.3 633 838.5C633 839.3 631.2 840.9 629.1 842C626.9 843 625 844.3 624.8 844.7C624.7 845.2 618.5 849.1 611.3 853.4C595 863.2 591.8 865.8 589 871.5C586.9 875.9 586.8 876.1 588.7 879.3C589.8 881.2 592.5 883.5 595.5 885L600.5 887.5L634 887.2C683 886.8 724.6 883.7 735 879.8C742.3 877 744.6 871.1 743 858.5C742.4 853.8 742.3 848.2 742.7 846.2L743.4 842.5L744.6 846.5C745.4 849.2 745.9 849.8 745.9 848.3C746 845.4 748.3 845.3 766.7 848C791.5 851.6 807 855.1 807 857.2C807 857.7 807.9 857.8 809 857.5C810.6 857 811 857.3 811 859.2C811 861 808.8 863 801 868.4C789.3 876.4 780.9 885 778.5 891.5C776.8 895.9 776.8 896.2 778.6 900.2C782 907.8 791.1 909.8 814.2 908C841.4 905.9 865.1 901.9 895.4 894.4C913.9 889.8 918.5 887.7 919.6 883.4C919.9 882.1 920.6 881 921.1 881C921.6 881 922 880.3 922 879.5C922 876.2 924 878.3 924.1 881.8C924.2 884.2 924.4 884.7 924.7 883.2C925.2 880.7 926.7 880.8 932.1 883.6C941.7 888.4 948.1 896.8 946.5 902.2C945.3 906.1 937.9 912.9 929 918.3C918 925.1 918 925.1 901 929.4C893 931.4 884 933.7 881 934.6C878 935.5 871.7 936.8 867.1 937.6C861.1 938.6 857.6 939.8 855.3 941.6C852.4 943.8 851.3 944 847.5 943.4C844.7 943 843 943.2 843 943.8C843 945.4 833.9 947.2 830.5 946.2C827.4 945.3 825.6 945.4 813.2 947C807.2 947.8 805.6 947.7 804.4 946.6C803.2 945.3 802.4 945.4 798.7 947C796.4 948.1 792.7 949 790.4 949C788.2 949 786 949.4 785.4 949.9C784.9 950.5 776.2 951.8 766 952.9C755.8 954 745.7 955.5 743.5 956.1C741.3 956.8 734.3 957.4 728 957.5C721.7 957.6 712.9 958 708.5 958.3C704.1 958.7 689.3 959.5 675.7 960.1C655.6 961.1 649.6 961.1 644 960C637.6 958.8 636.5 958.9 629.6 960.9C621.8 963.2 618.5 963.4 540.5 964.6C502.8 965.2 485.6 965.7 484 966.2C483.2 966.5 478 966.1 472.5 965.4Z" fill="#E8E0F2"/>
<path d="M238 323.4C220 320.4 202.2 313.1 184.2 301.3C171.4 292.8 159.8 278.5 149.8 258.5C145.6 250.2 145.1 248.6 144.4 239C143.9 233.2 143.5 222 143.6 214L143.7 199.5L148.6 188.5C151.4 182.5 155.2 175 157.1 172C159 169 161.2 165.2 162 163.7C163.8 160.2 184.6 143.8 193.8 138.8C204.1 133.1 216.2 128.2 228.6 124.9C239.1 122.1 240.8 121.9 257.6 122C279.9 122.1 286.2 123 302.5 128.1C317.7 132.9 322.1 135 331.4 141.9C335.2 144.7 338.6 147 339 147C340.2 147 355.9 163.4 359.7 168.6C364 174.5 373.2 193.4 375.4 200.9C376.5 204.8 377 210.4 377 220.4C376.9 240.1 375.4 245.5 363.3 269.8L356.6 283L359.9 290.8C361.8 295 364.3 301.2 365.5 304.5C366.7 307.8 368.2 311.5 368.8 312.7C370.2 315.3 369.3 321 367.2 322.8C364.7 324.8 361.7 324.3 339.3 318.8L318.1 313.6L311.3 315.7C307.6 316.9 298.9 319.1 292 320.6C281.1 323 277 323.4 260 323.6C249.3 323.7 239.4 323.6 238 323.4ZM267.4 282.1C276.3 276.2 276 264.6 266.8 259C262.6 256.4 258.6 256.5 254.9 259.1C246.5 265 247.5 275.4 256.9 281.7C261 284.5 263.6 284.6 267.4 282.1ZM265.9 240.4C269.5 237.8 270.8 233.3 271.5 220.9C271.9 214.6 273.1 202.8 274.2 194.5C277.7 168 277.7 169.5 274.3 166.1C271.9 163.7 270.2 163.1 264.7 162.5C253.9 161.3 246 162.2 243.9 164.9C241.9 167.3 241.9 167 244.5 187C245.3 192.8 246.4 203.1 247 210C248.8 231.5 249 232.8 251.2 235.6C253.2 238 260 241.9 262.5 242C263.1 242 264.6 241.3 265.9 240.4Z" fill="#FEEBC4"/>
<path d="M319 690.4C317.6 689.7 315.7 689 314.8 689C313.9 689 311.8 687.8 310.1 686.4C307.8 684.5 307 683 307 680.5C307 677.7 307.5 677 310.5 675.6C312.8 674.5 315.9 674 319.3 674.2C324.3 674.5 324.6 674.7 326.4 678.4C327.5 680.6 328.5 684.5 328.8 687.2L329.3 692L325.4 691.9C323.2 691.8 320.4 691.2 319 690.4Z" fill="#B5DEE5"/>
<path d="M716 556.9C711.3 556.5 704.7 556 701.2 556C696.3 555.9 695.1 555.6 695.9 554.6C698.1 551.9 691.1 532.9 681.9 516.6C673.6 501.9 658.2 479 656.7 479C655.9 479 651 485.4 645.7 493.3C624.8 524.7 608.3 534 583.3 528.5C556.5 522.6 518.2 504.4 493 485.6C487.8 481.7 483 478.6 482.3 478.8C481.5 479 481 478 481 476.3C481 474.2 482.7 471.7 487.6 466.6C498.5 455.1 503.6 445.8 506 433C507.3 426.2 508.7 420.7 509.5 418.7C510.2 417.1 510.5 417.1 511.9 418.3C512.8 419.1 516 420 519.1 420.4C528.1 421.4 556.1 429.3 569.2 434.5C570.3 434.9 572.2 433.9 575 431.4C580.9 426 586.2 414.3 590 398C591.8 390.6 594 381.4 595 377.7C596.8 371 596.8 370.9 594.9 371.5C593.7 371.9 593 371.7 593 370.8C593 368.5 594.6 366.9 598.1 365.6C603.7 363.6 617.2 356.4 622.5 352.6C628.1 348.5 629.9 348.3 637.8 350.6C647.1 353.3 659.6 350.9 668.5 344.6C680.8 335.8 690.3 324 695 311.7C699 301 709.4 280.7 713.3 275.8C716.4 271.9 719 270.8 719 273.5C719 274.3 720 275.1 721.3 275.4C749.2 280.3 762.8 284.1 783 292.2C818.9 306.7 845.9 324.7 871.6 351.2C895.7 376.1 907.9 397.4 912.5 422.7C917 446.7 914.7 507.8 908.4 533.9L906.7 540.8L902.6 541.5C900.3 541.8 892 542.4 884 542.7C869.5 543.2 859.6 542.5 842.2 539.3L834 537.9L831.2 541.1C829.7 542.9 827.9 545.2 827.2 546.2C826.5 547.2 824.8 548 823.4 548C822.1 548 816.4 549.1 810.7 550.4C805.1 551.8 797.8 553.3 794.5 553.9C791.2 554.5 785.6 555.4 782 556.1C773.7 557.5 727.2 558.1 716 556.9ZM832.9 482.6C834 481.3 834 480.4 833.2 478.5C832.5 477.1 831.6 476 831 476C830.4 476 829.5 475 829 473.8C828.3 472.2 828.2 473.7 828.5 479C828.8 483.1 829 493.8 828.9 502.6C828.7 526.6 830.4 527.6 831 503.9C831.4 489.2 831.8 483.9 832.9 482.6ZM826.2 448.2C823.3 445.5 822.4 445.2 822.2 446.5C822 447.3 822.7 449.8 823.9 452C825 454.1 826.2 457.6 826.6 459.7L827.3 463.5L828.6 457.5L829.9 451.5L826.2 448.2ZM580.5 450.4C578.8 447 578.5 448.6 580.1 452.7C580.7 454.2 581.4 455 581.6 454.4C581.9 453.8 581.4 452 580.5 450.4ZM640.4 444.3C639.7 441.6 636.9 435 634.1 429.6C631.4 424.1 628.8 418.1 628.5 416.1C627.9 412.7 622 404.2 622 406.8C622 407.5 624.2 412.4 626.9 417.8C629.5 423.1 633 430.7 634.5 434.5C637.3 441.7 640.8 449 641.4 449C641.6 449 641.1 446.9 640.4 444.3Z" fill="#B8A6E3"/>
<path d="M254 284.8C244.2 278.1 242.5 265 250.5 257.4C254.3 253.9 259 252.8 264.6 254C272.8 255.9 277.2 261.8 277.2 271C277.2 281.2 271.8 287 262.2 287C258.8 287 256.3 286.3 254 284.8Z" fill="#B8A6E3"/>
<path d="M254.4 243.1C252.2 242.1 249.4 240 248.2 238.6C246 235.8 245.8 234.5 244 213C243.4 206.1 242.3 196 241.5 190.5C240.8 185 239.8 176.9 239.5 172.5C238.9 165.4 239 164.2 240.8 162C242.6 159.7 243.6 159.5 252 159.1C266.9 158.6 273.8 159.7 277.3 163.1C280.1 166 280.2 166.2 279.7 174.3C279.4 178.8 278.3 189.3 277.2 197.5C276.1 205.8 274.9 217.6 274.5 223.9C273.8 236.3 272.5 240.8 268.9 243.4C265.8 245.5 259.5 245.4 254.4 243.1Z" fill="#B8A6E3"/>
<path d="M705 560.1C703.6 559.1 700.8 557.7 698.6 557C694.8 555.8 694.8 555.8 696.8 553.8C698.7 551.9 699.2 551.9 710.1 553.1C716.4 553.8 731.3 554.5 743.2 554.5C764.8 554.5 765 554.5 765 556.7C765 558.7 764.5 558.8 750.3 559.5C742.1 559.8 731.8 560.2 727.3 560.4C722.8 560.5 718.8 560.9 718.4 561.3C716.9 562.8 707.5 561.9 705 560.1Z" fill="#D9B79F"/>
<path d="M225.4 778C216.9 776.8 211.4 775.2 205.5 772.3C196.8 767.8 183.8 758.6 175.6 750.9L167.8 743.6L168.3 738.4C168.6 735.5 169.6 731.5 170.6 729.5C173 724.5 186.6 710.2 194.9 704C202.5 698.4 219.4 690 223.1 690C226.9 690 238.6 694.9 244.7 699C249.8 702.4 250.6 702.6 254.4 701.8C256.6 701.4 265.9 700.7 275 700.4L291.5 699.7L304 694.8C310.9 692.1 317.8 689.2 319.4 688.4C321.6 687.4 322.6 687.3 323.7 688.1C325.9 690 326.1 688.6 324.5 684C321.9 676.5 319.9 675.5 313.3 678.6C310.9 679.8 310.2 680.6 310.9 681.3C312.8 683.2 312.1 684 308.7 684C306.8 684 301.6 685.2 297.1 686.6C289.1 689.1 288.6 689.1 276.8 688.1C260.9 686.6 248 683.7 240.1 679.9C224.7 672.3 199.7 638.1 188 608.5C186.3 604.1 184.2 599.8 183.4 598.9C182.1 597.4 182.2 597.2 184.2 596.7C186.2 596.1 186 595.6 180.3 589.8C173.2 582.4 170.5 577.5 168.4 568.3C167.6 564.5 166 559.5 164.8 557C160.7 548.2 164.3 534.6 174 522.5C180.6 514.2 185.1 512 195.3 512C204.2 512 208.4 513.4 214.6 518.5C219.4 522.5 224.3 531.3 226.2 539.8C226.9 542.6 227.8 545 228.1 545C228.4 545 230.8 543.2 233.4 540.9C239.7 535.3 246.2 526 251 515.6C254.6 507.7 255.2 507 257.9 507C259.4 507 264.1 508.5 268.1 510.4C272.2 512.3 279.7 514.6 284.8 515.6C292.8 517.2 295.3 517.2 303.3 516.2C308.4 515.6 314.5 514.4 316.9 513.5C326.5 510.1 334 512.6 334 519.2C334 522.8 332 524.5 322.5 529.3L317.6 531.7L320.5 533.3C331.4 538.8 353.1 539.5 364.7 534.7C368.2 533.3 373.6 530.3 376.8 528.1C381.3 524.9 383.5 524 386.8 524H390.9L393 531C396.8 543.6 398.8 555.2 400.1 570.6L401.3 585.8L397.4 589.3C394.2 592.1 393.1 594.1 391.7 599.7C389.6 607.6 383.1 623.2 378.8 630.9C374.5 638.4 361.5 654.5 354.9 660.4C351.9 663.1 347.1 666.9 344.1 668.9L338.8 672.4L343.1 676.2C346.3 678.9 348.4 679.9 350.9 680C356.9 680 363 685 363 689.9C363 691 363.9 692.1 365 692.5C367.9 693.4 372 698.8 372 701.7C372 703.1 373.1 705.5 374.5 707.2C376.6 709.7 377 711.2 377 716.3C377 722.4 376.9 722.6 373 725.4C370 727.7 369 729.1 369 731.2C369 733.9 366 738 364 738C363.5 738 363 739.1 363 740.4C363 743.2 362.3 743.4 349.5 745C341.4 746 339.1 746.8 326 753.5C300.8 766.2 282.2 773.2 265 776.5C255 778.5 234 779.2 225.4 778ZM367 624.5L369.5 623.1L366.4 623C364.7 623 360.7 621.7 357.6 620.1C351.3 616.9 349.7 617.4 353.8 621.3C358.5 625.8 362.8 626.9 367 624.5ZM299 600.5L301.5 599.1L298.2 599C294.1 599 289.1 596.9 284.5 593.4C279.9 589.9 280 591.7 284.8 596.2C291.1 602.2 294.3 603.2 299 600.5ZM305 570.4C305 570.2 303.1 570 300.8 570.1C297.3 570.2 297 570.3 299 570.9C301.3 571.6 305 571.3 305 570.4Z" fill="#FEB27E"/>
<path d="M840.6 619.5C834.6 617.4 831.5 614.7 831.2 611.4C830.5 603 830 602 827.1 602C822.7 602 815.2 598.2 813.6 595.2C812.8 593.7 810.8 591.2 809.1 589.6C806 586.7 806 586.5 806 576.6C806.1 564.8 806.9 562 813.4 552.3C817 546.8 818.7 545 820.4 545C823.3 545 829.5 537.5 829.5 534C829.5 532.2 830.1 531.4 831.8 531.2C833.2 531 834 531.4 834 532.4C834 534.5 840.5 536 863 539.1C871 540.2 887 539.9 901.1 538.4L906.8 537.8L908.1 543.2C909 546.4 909.5 553.6 909.5 561.5C909.4 575.8 907.1 586.7 902.5 594.6C899.9 599.1 893.3 605.5 889.5 607.2C888.2 607.8 887 608.9 886.8 609.7C886.5 611.1 880.7 613.4 865 618.5C856.4 621.3 846.7 621.7 840.6 619.5Z" fill="#FEB27E"/>
<path d="M471.899 478C466.899 476.5 457.299 470.9 453.999 467.5C451.099 464.5 450.499 464.3 447.799 465.2C444.299 466.5 441.399 465.3 431.099 458.6C420.499 451.6 416.999 447 416.999 440.1C416.999 434.5 417.799 433 420.799 433C423.299 433 423.299 432.9 421.499 431.6C419.899 430.4 419.699 429.8 420.699 427.9C421.399 426.6 422.199 423.9 422.599 422C422.899 420.1 424.299 416.1 425.599 413.1C426.899 410.2 427.999 407.6 427.999 407.5C427.999 407.4 422.899 403.4 416.699 398.7C396.199 383.1 391.599 376.5 397.599 370.9C399.899 368.8 400.999 368.5 408.299 368.6C421.999 368.7 444.599 377.4 467.899 391.4C474.799 395.6 479.899 398 481.699 398C485.299 398 494.599 403.8 505.299 412.8C511.599 418.2 512.999 419.8 512.499 421.5C511.499 424.5 509.999 431 508.999 436C506.699 448.7 501.499 458.2 491.099 469.1C487.699 472.6 484.399 476.3 483.899 477.3C482.899 479.1 476.799 479.5 471.899 478ZM469.899 445.6C472.099 443.3 472.099 443.1 470.499 440.7C468.999 438.4 468.499 438.3 466.399 439.2C464.899 439.9 464.099 440.9 464.499 441.8C464.799 442.5 464.999 444.3 464.999 445.6C464.999 448.7 466.999 448.7 469.899 445.6Z" fill="#FEB27E"/>
<path d="M567 374C547.5 370.6 519.1 348.4 513.4 332.1C512.7 330.1 511.5 328.5 510.8 328.6C510.1 328.7 502.7 330.4 494.3 332.6C477.6 336.8 475.4 336.7 471.7 331.8C470.2 329.8 469.6 327 469.2 321.2C468.7 312 469.7 306.6 474.7 291.2L478.3 279.9L474.3 275.7C463.9 264.9 449.8 241.7 444.9 227.3C441.8 218.2 441.6 216.6 441.5 204.5C441.5 192.6 441.3 191.4 439.5 190.3C435.5 188 440.9 187.6 450.9 189.5C468.2 192.8 493.9 191.3 514.7 185.9C531.1 181.6 542.1 177.3 559.9 168.3C576.7 159.8 578.8 159 583.9 159C587.8 159 590.7 159.7 593.5 161.3C598 163.8 599.9 167 608.3 187.2C614.4 201.7 618.8 209.4 624.5 215.7C629.3 221 631.4 220.8 633.1 214.6C638.6 194.4 643.2 186.6 652.5 181.7C655.7 180.1 658.3 179.6 665 179.7C674.9 179.7 677.4 180.6 683 185.6C688.1 190.2 691.3 195.6 694.5 205C699.1 218.5 697.3 237.1 690 252.8C687.9 257.2 687.4 259.2 688.3 259.5C690.3 260.3 704.1 263.9 711.6 265.6L718.7 267.3L718.8 271.4C718.8 274.4 718.1 276.4 716 279.1C712.3 283.8 701.9 304.4 698 314.7C692 330.5 676.6 346.9 662.7 352.2C655.7 354.9 641.1 355.7 634.8 353.7L630.2 352.2L624.8 356C614.5 363.2 596.6 371.4 586.5 373.5C578.9 375.1 574 375.2 567 374ZM542.8 337.5C550.7 330.6 555.9 327.6 563.5 325.5C566.8 324.5 570.3 323 571.3 322.2C573.1 320.6 573.1 320.5 571.3 319.9C563.6 316.8 547.6 324.7 537.9 336.5C530.9 344.9 533.7 345.5 542.8 337.5ZM517.4 273.9C519.2 271.2 517.9 266.8 514.3 264C510.8 261.3 509.3 261.5 507.6 264.8C506.3 267.4 506.3 267.9 507.9 270.3C509.9 273.4 512.9 275.9 514.7 276C515.3 276 516.5 275.1 517.4 273.9ZM492.6 252.4C495.8 250.5 503.1 244.3 508.8 238.7C521 226.7 523.7 223.3 522.2 221.8C521.5 221.1 519.5 223.1 515.7 228.1C508.5 237.7 500.2 245.8 491.5 251.4C483.3 256.8 484 257.5 492.6 252.4Z" fill="#FEB27E"/>
<path d="M827.5 855.3C818.3 853.9 815.3 852.7 818.7 851.6C820.5 851 820.3 850 815 836.7C807.6 818.2 786.6 756.6 779.7 733C773.1 710.7 771.5 701.8 769.5 674.5C768.6 663 767.8 653.1 767.6 652.5C766.9 649.9 752.4 676.3 745.4 693L741.5 702.5V739.5C741.5 759.9 741.7 790.5 742 807.7C742.3 824.8 742.2 839.1 741.9 839.4C738.6 842.8 686.7 843.7 669.7 840.7C664.3 839.7 657.2 838.1 654 837C650.7 835.9 647.2 835 646.1 835C643.5 835 642.4 833.2 644.3 831.7C645.6 830.6 645.6 828.7 644.4 816C642.9 799.3 640 729.7 640 709C640 693 642.1 675.2 645.1 665.4C648.8 653.1 655 639.1 671.8 604.5C680.9 585.8 690 566.8 692 562.4C694.1 557.9 696.3 553.9 696.9 553.6C698.3 552.7 704.6 554.7 708 557C710.8 558.9 713 559 717.4 557.2C719.6 556.2 721.1 556.2 723.6 557C725.4 557.6 728.4 557.8 730.2 557.5C732 557.1 740 556.4 748 556C756 555.5 764.5 554.8 767 554.5C785.4 551.9 792.9 550.8 798.3 549.6C817.9 545.2 821 544.7 821.6 545.2C821.9 545.6 821.4 547.3 820.4 548.9C808.9 567.3 809.7 565.6 809.2 574.7L808.7 583.2L812.3 586.8C814.2 588.8 816.3 591.5 816.9 592.7C818 594.8 827.8 600 830.6 600C832.2 600 833.9 603.7 834.4 608.4C834.9 613.3 843.3 618 851.6 618C853.2 618 859.3 616.4 865.1 614.4C880.2 609.2 885.9 607.6 886.6 608.3C887.5 609.2 885.6 633.2 881.9 668L878.7 697.5L885.4 722C889.1 735.5 894.5 755.3 897.5 766C900.4 776.7 905.8 797 909.5 811C913.1 825 916.6 837.5 917.2 838.7C917.8 839.8 918 841.2 917.7 841.7C916.4 843.8 901.4 850.3 892.8 852.4C874.7 857 846.4 858.3 827.5 855.3Z" fill="#DDB88F"/>
<path d="M288 907.3C270.5 906.1 247.1 902.1 241.8 899.4C240.4 898.6 238.3 896.9 237.2 895.5C234.5 892.1 231 881.6 230.8 876.2C230.7 873.3 230.3 872.3 229.6 873C228 874.6 227 874.2 227 871.8C227 869.3 231.5 854.2 232.9 852.1C233.9 850.6 238.1 850.9 247.5 853.4C260.3 856.7 286.6 853.8 298.8 847.6C306.8 843.6 308.4 844 317 851.9C322.6 857.1 327.3 860.3 335.8 864.6C342 867.8 348.1 871.3 349.4 872.4C356 878.3 356 878.3 356 874.8C356 873.1 356.7 870.9 357.6 869.9C359 868.4 359 867.8 357.7 865.4C356.8 863.7 356 863.1 355.6 863.9C354.2 866.1 348.6 865.1 345.3 862.2C342.6 859.6 341.2 859.2 333.5 858.7C324.6 858.1 322 857 322 854.1C322 853.2 320.8 851.4 319.5 850.1C316.8 847.6 316.1 842.7 318.3 840.6C319 839.8 323.6 839.1 329.8 838.7C343.6 837.9 358 834.4 358 831.8C358 830.7 358.7 830 360 830C361.6 830 362 830.7 362 833.1C362 834.8 363.3 838 365 840.4C367.9 844.7 371.2 847.1 384.5 854.8C391.9 859 401.3 868.1 403 872.5C405.3 878.5 403.7 885.3 398.8 889.6C394.7 893.4 390 894.2 377.6 893.4L366.1 892.7L364.8 888.7C364.1 886.5 362.9 884.4 362.2 884.2C361.1 883.9 361.2 884.5 362.4 886.8C367.7 897 361.4 903.2 342.6 906.5C334.4 907.9 303 908.4 288 907.3Z" fill="#8BAFE3"/>
<path d="M357 741.5C357 740.7 357.7 740 358.5 740C359.3 740 360 739.5 360 738.9C360 738.3 361.4 736.1 363.2 734.1L366.4 730.5L363.7 730.2C360.2 729.8 359.8 726 363.3 726C364.5 726 367.5 724.4 369.9 722.5C375.7 717.9 377 718 377 723.1C377 726.6 376.4 727.7 372 732C369.3 734.7 366.1 737.1 365 737.5C363.7 737.9 363 739 363 740.6C363 742.6 362.5 743 360 743C358 743 357 742.5 357 741.5Z" fill="#FAA470"/>
<path d="M362.2 713.6C362.9 710.3 359.4 708.5 354.1 709.4C350.3 710 350 709.9 350.3 707.8C350.9 703.9 353.1 703.5 360.6 705.9L367.4 708.2L369.2 705.9C371 703.8 371.1 703.8 372.9 705.4C374.8 707.1 374.7 707.2 371.2 710.4C367.6 713.6 363.9 716 362.4 716C362.1 716 362 714.9 362.2 713.6Z" fill="#FAA470"/>
<path d="M451.699 461.3C451.399 461 453.599 457.7 456.599 453.9C461.899 447.2 462.099 446.8 460.999 443.6C460.399 441.8 460.199 439.6 460.499 438.8C461.099 437.4 467.099 434 469.099 434C470.899 434 475.999 440.4 475.999 442.7C475.999 446 470.499 451.9 467.999 451.3C466.599 450.9 464.499 452.2 460.899 455.4C455.099 460.6 452.599 462.2 451.699 461.3Z" fill="#FAA470"/>
<path d="M417.799 445.4C416.199 443.9 416.999 434.9 418.999 431C420.099 428.8 421.199 427 421.399 427C423.299 427 430.999 432.7 432.899 435.5L435.399 439.1L436.599 436.8C437.799 434.7 437.899 435 437.999 440.3C437.999 445.3 437.799 446 435.999 446C434.599 446 433.999 445.3 433.999 443.9C433.999 440.6 430.299 437.8 424.399 436.7C420.899 436 419.299 438 418.799 443.3C418.599 444.9 418.199 445.8 417.799 445.4Z" fill="#FAA470"/>
<path d="M357.6 899.6C359.1 897.7 360.5 895.4 360.6 894.4C361 891.5 356.4 883.5 352.4 880.4C350.4 878.8 347.6 876.6 346.4 875.4C345.1 874.3 339 870.8 332.8 867.6C324.3 863.3 319.6 860.1 314.1 855C310 851.2 306.3 848.3 305.8 848.6C305.4 848.9 305 848.1 305 846.8C305 843 312.3 838 317.7 838C322.3 838 326 839.4 326 841C326 841.6 325.1 842 323.9 842C322.8 842 322.1 842.4 322.5 842.9C322.8 843.4 322.3 844 321.4 844.2C320 844.4 320.1 844.9 322.3 847C323.8 848.4 325 850.2 325 851.1C325 853.5 327.1 854.8 330.3 854.3C331.8 854.1 333 854.3 333 854.8C333 855.2 336 855.6 339.7 855.5C344.2 855.5 346.5 855.9 346.5 856.7C346.5 857.3 347.7 858.7 349.1 859.9L351.7 861.9L353.9 859.5C356.6 856.3 358.7 857.4 361.4 863.3C362.5 865.6 363.5 867.8 363.7 868.1C363.9 868.5 363 870.1 361.6 871.7L359.1 874.7L364.1 879.9C366.8 882.7 368.8 885.5 368.5 885.9C367 888.4 370.8 891.3 377 892.3C378.4 892.5 376.5 892.8 372.8 892.9C366.4 893 366.1 893.1 364.2 896.3C362.4 899.1 357.4 903 355.6 903C355.2 903 356.1 901.5 357.6 899.6Z" fill="#80A3DB"/>
<path d="M828.7 531.7C825.7 523.4 825.2 518.6 825.9 504.5C826.3 496.8 826.2 489.7 825.8 488.8C825.4 487.9 825 482.7 825 477.3C825 467.4 823.6 460 820.6 454.5C819.7 452.9 819 450.6 819 449.4C819 443.1 804 427.9 787.8 417.7C781.9 414 776.6 411 776.1 411C774.4 411 763 402.8 761.9 400.8C761.1 399.2 761.1 398.4 762.2 397.3C763.5 396.1 764.2 396.2 768.1 397.8C781.4 403.6 808.3 422.1 816.1 431C824.3 440.4 828.2 444.3 831.9 447.2C834.3 449 835 450.2 834.4 451.1C833.9 451.9 833.5 452.7 833.4 453C833.4 453.3 832.8 455.5 832.1 458C830.3 464.3 831.2 470.5 834.3 473.4C838.1 476.9 838.6 480.2 836.2 484.9C834.3 488.5 834.1 490.8 833.9 511.5C833.7 531.7 833.5 534.2 832 535C830.5 535.8 830 535.2 828.7 531.7Z" fill="#9F8ECF"/>
<path d="M651.7 476C648.5 472.3 643.7 463.8 641.4 458C640.4 455.5 638.6 452.1 637.5 450.4C636.3 448.6 633.9 443.5 632 438.9C630.2 434.3 626.3 425.7 623.4 419.8C620.4 413.9 618 408.1 618 407C618 404 619.8 401 621.7 401C624.3 401 630.8 409 631.5 413.1C631.9 415.1 634.5 421.4 637.4 427.2C640.3 432.9 643 439.1 643.3 440.9C643.7 442.8 647.2 450.9 651 459C654.9 467.1 658 474.9 658 476.4C658 480 654.9 479.8 651.7 476Z" fill="#9F8ECF"/>
<path d="M578.2 457.801C577.5 456.501 576.1 452.401 575.1 448.501C574.1 444.701 572.6 440.001 571.9 438.201C570.7 435.401 570.7 434.801 572 434.001C574.3 432.501 574.4 432.601 578.6 439.301C584 447.701 584.6 449.101 585.5 452.801C586.7 458.601 580.7 462.701 578.2 457.801Z" fill="#9F8ECF"/>
<path d="M765.7 649.2C765.4 648.8 764.9 644.2 764.5 639C763.9 630.4 763.1 626.8 759.8 616C759.3 614.1 757.3 609.5 755.4 605.7C751.7 598.3 751.2 595.3 753.6 594.3C756 593.4 760.7 598.7 762.6 604.4C763.5 607.2 764.9 610.8 765.7 612.3C768.6 618.1 771.1 644.1 769 647.9C767.9 650 766.5 650.6 765.7 649.2Z" fill="#CCA27E"/>
<path d="M85.0996 823.901C81.7996 819.601 80.5996 807.901 81.2996 784.501C83.2996 716.801 105.2 657.001 141.5 620.401C150.4 611.401 152.6 609.701 162 605.101C172.8 599.801 185.9 595.501 187.1 596.801C187.5 597.201 189.2 601.001 190.9 605.301C195.7 617.301 200.9 627.901 205.2 634.301L209.1 640.001H206.5H203.9L206.1 643.101C207.3 644.801 210.7 648.901 213.7 652.301C222.4 662.301 223.9 666.301 224.7 681.401C225.1 689.601 225 694.101 224.4 693.701C223 692.901 205.9 701.201 199.6 705.701C192.8 710.601 180.6 722.401 176.5 728.001C174.7 730.501 172.7 734.301 172.1 736.501C171 740.401 171.1 740.501 175.7 745.201C180.1 749.701 180.3 750.001 177.9 750.001C175.7 750.001 175.5 750.301 175.8 753.801C176.2 757.401 175.9 757.801 165.3 767.301C159.4 772.601 146.6 785.201 137 795.201C114 819.101 108.8 822.501 89.4996 826.601C88.1996 826.801 86.6996 826.001 85.0996 823.901Z" fill="#78CDA1"/>
<path d="M242.5 702.4C241.4 701.5 237.7 699.4 234.3 697.8C228.5 695 228 694.6 228 691.5C228 689.7 227.6 686.1 227.1 683.4C226.6 680.7 225.9 675.2 225.5 671.3C224.6 662.3 225.5 662 232.1 668.9C240.3 677.5 255.9 683.1 276.3 684.6C286.1 685.4 286.7 686.1 282.5 691.6C279.4 695.6 273.3 698 257.1 701.4C250.4 702.8 244.9 704 244.7 704C244.6 704 243.6 703.2 242.5 702.4Z" fill="#78CDA1"/>
<path d="M830.6 606.5C829.7 604.6 828.3 603 827.6 603C825.8 603 820.4 600.2 819 598.5C816.7 595.8 818.5 595.1 822.8 597C825.1 598 827 598.4 827 597.9C827 597.3 826.5 593.7 825.9 589.8C824.7 582.1 825.4 576 827.4 576C829.5 576 833.8 588.9 832.5 591.1C831.9 592 833.4 603.9 834.6 608.3C835.6 611.5 832.3 610.1 830.6 606.5Z" fill="#F8905B"/>
<path d="M445.5 422C446.5 420.9 447.5 420 447.7 420C447.8 420 448 420.9 448 422C448 423.4 447.3 424 445.8 424C443.8 424 443.7 423.9 445.5 422Z" fill="#F8905B"/>
<path d="M434.7 413.6C428.1 407.3 427.2 406.2 429 405.7C432.9 404.7 445 414.7 445 419.1C445 422.4 442.8 421.2 434.7 413.6Z" fill="#F8905B"/>
<path d="M329.4 520.6C331.2 519.1 331.2 519 328.9 517.1C327.6 516 325.7 515.1 324.8 515C321.6 515 322.7 511.3 326.4 509.6C328.3 508.7 330.4 508 331.2 508C332 508 333.1 507.5 333.8 506.8C334.4 506.2 337.7 505.7 341.2 505.6C347.1 505.5 347.5 505.6 347.8 507.9C348.4 512.2 347 518.5 345.1 519.7C344.2 520.3 339.8 521.1 335.4 521.5C328.2 522 327.7 522 329.4 520.6Z" fill="#E79260"/>
<path d="M205 555.8C202.7 539.8 200.3 535 194.4 535C190.4 535 189 533.2 191.5 531.3C198.2 526.5 209 536.8 209 548.1C209 553.8 208.3 556 206.4 556C205.6 556 205 555.9 205 555.8Z" fill="#F8804B"/>
<path d="M433.399 452.6C432.499 450.2 434.999 439.9 438.199 433C443.699 421.4 463.699 403.4 469.099 405.2C469.699 405.4 467.599 407.4 464.399 409.7C452.599 417.9 444.799 428.6 439.499 443.5C436.199 453 435.799 454 434.799 454C434.299 454 433.699 453.4 433.399 452.6Z" fill="#F8804B"/>
<path d="M635.6 349.1C635.2 348.6 637.7 345 641 341C651.3 328.7 658.6 317.9 664.5 306.3C667.6 300.1 670.6 295 671.1 295C672.3 295 672.3 295.2 670.4 302.3C667 315.6 653.8 335.7 641.8 345.8C636.3 350.4 636.4 350.4 635.6 349.1Z" fill="#F8804B"/>
<path d="M652.899 231.9C650.799 228.1 651.199 218.2 653.699 213.4C655.899 209.4 663.099 202 664.999 202C666.999 202 665.899 204.9 662.499 209.1C657.299 215.2 656.699 216.7 656.399 224.1C656.299 227.8 655.699 231.6 655.199 232.6C654.299 234.2 654.099 234.1 652.899 231.9Z" fill="#F8804B"/>
<path d="M397.5 587C398.5 585.4 396 559.4 394 549.8C391.2 536.9 388.1 527 386.8 527C386.1 527 383 528.8 379.8 531.1C376.6 533.3 371.2 536.4 367.7 537.8C361.9 540.3 360.6 540.5 345.5 540.5C332.8 540.5 328.3 540.1 323.8 538.7C317.9 536.8 311.7 533.2 311.6 531.5C311.5 531 315.3 528.4 320 525.8C324.7 523.3 330.2 520.2 332.2 519.1C334.4 517.9 337 517.2 338.2 517.5C341.2 518.2 343.6 516.2 344.4 512.2C345 509.6 344.8 508.9 343.4 508.3C342.4 507.9 341.5 508.1 341.3 508.7C341.1 509.3 340.1 509.6 339.1 509.3C338.1 509 336.9 509.3 336.6 509.9C336.2 510.5 335.2 511 334.4 511C333.6 511 330.5 512.1 327.7 513.5C309.6 522 283.8 522 265.2 513.4L257.9 510.1L254 518.6C247.5 532.8 238.2 544.1 228.6 549.8L225.4 551.7L223.7 544.6C219.3 526 208.8 515 195.3 515C188.3 515 182.9 518.1 177 525.5C169.6 534.8 166.8 541.8 166.6 551.2C166.6 555.5 166.2 559 165.9 559C164.8 559 162.1 548.8 160.5 539C156.7 515.2 160.6 484.2 170.2 461.5C191 412.4 239.9 379.8 283.5 385.9C294.5 387.5 319.1 394.3 329.2 398.6C352.2 408.4 376.8 430.8 389.5 453.4C392.4 458.7 393.7 460 397.3 461.4C410.2 466.3 429 482.5 436.3 495C442.3 505.4 443.5 510.5 443.4 526C443.4 537.2 443 540.5 441.2 545.4C437.5 555.5 431.9 564.2 424.6 571.6C419 577.2 415.5 579.7 408 583.4C398.1 588.1 396.4 588.7 397.5 587Z" fill="#DE7E4F"/>
<path d="M171.9 755.7C172.7 754.6 171.3 753.5 165.3 750.4C155.7 745.6 152.3 741.3 143.9 724C140.5 717.1 135.6 708.1 133 704C126.8 694.4 126.3 692.5 129.1 691C133.1 688.8 135.8 692.4 146.2 713C151.6 723.7 157.3 733.8 159.2 735.7C164 740.7 171.1 745.7 174.5 746.6C176.2 746.9 178.7 748.4 180.3 749.8L183 752.4L180.3 754.7C177.2 757.2 169.9 758.1 171.9 755.7Z" fill="#5DB393"/>
<path d="M226.3 694.5C224.6 693.8 222.9 693.4 222.6 693.7C221.9 694.5 221.8 693.8 221.4 681.8C221.1 671 219.5 666.3 213.9 659.4C212 657.1 208.1 652.3 205.2 648.7C202 644.7 197.1 640.3 193 637.5C189.1 635 186 632.3 186 631.4C186 630.6 186.4 630.1 186.9 630.4C187.4 630.8 188 630.5 188.2 629.8C188.8 628.2 196.3 631 201 634.5C202.9 635.9 204.9 637 205.6 637C206.3 637 210.4 641.8 214.6 647.8C218.9 653.7 224.2 660.4 226.4 662.8C228.6 665.1 230 667 229.4 667C228.2 667 228.4 669.1 230.6 682.8C232 691.5 231.8 696.1 230.2 696C229.8 695.9 228.1 695.3 226.3 694.5Z" fill="#5DB393"/>
<path d="M310 667.5C306 663.4 299.2 661 291.3 661C287.5 661 286 660.6 286 659.7C286 657.1 290 654.7 294.7 654.3C306.2 653.2 322.2 664.4 316.8 669.8C314.9 671.7 313.6 671.3 310 667.5Z" fill="#C87B4A"/>
<path d="M328.9 641.9C326.3 638.2 321.5 636 316.2 636C314 636 311.7 635.4 311 634.5C307 629.7 321.9 627.3 328.6 631.7C331.4 633.5 335 639.8 335 643C335 646.1 331.5 645.5 328.9 641.9Z" fill="#C87B4A"/>
<path d="M374.1 599C371.8 597.3 369.2 594.3 368.4 592.5C365.5 585.4 367.6 576.7 371.5 580C372.3 580.7 373 582.2 373 583.4C373 586.5 376.3 591.3 380.5 594.5C383 596.4 384 598 383.8 599.4C383.3 602.8 379.1 602.6 374.1 599Z" fill="#C87B4A"/>
<path d="M292.7 573.1C286.2 571 283 568.6 283 565.9C283 563.3 285.8 563.1 291.5 565.3C298.8 568.1 306.7 567.3 312.4 563.3C318.6 558.9 320.7 558.4 321.5 561.1C322.5 564.2 319.3 568 312.7 571.4C305.6 575 300.1 575.5 292.7 573.1Z" fill="#C87B4A"/>
<path d="M789.5 911.3C782.6 910.5 778 907.9 776 903.9C771.9 895.9 774.3 886.8 783 877.6C787.5 872.9 805.4 859.7 816.3 853.1L820.1 850.8L831.4 852.4C858.1 856.2 888.8 852.4 907.2 843C911.5 840.8 915.7 839 916.5 839C918 839 918.2 839.8 920.9 856.1C925 880.8 924.7 886.9 919.1 890.9C916.2 893 888.6 900.3 870 903.9C840.5 909.7 803.4 913.1 789.5 911.3Z" fill="#6269AE"/>
<path d="M598.3 889.999C585.8 887.399 581 878.899 586.1 868.299C587.2 865.899 589.7 862.699 591.6 861.199C597.4 856.399 619.8 843.399 633 837.099C646.8 830.599 646.7 830.599 658.5 834.499C676.7 840.299 722.6 841.699 737.8 836.899C739.6 836.299 741.3 835.999 741.6 836.199C741.8 836.499 742.9 840.199 744.1 844.599C745.5 849.999 746.2 856.099 746.3 863.699C746.5 873.499 746.3 875.199 744.4 877.699C739.9 883.899 728.9 886.199 693.5 888.399C665.4 890.199 604.1 891.199 598.3 889.999Z" fill="#6269AE"/>
<path d="M151.3 884.4C146.7 883.7 140.2 882.1 136.8 880.9C116.6 874.2 98.7996 856.1 89.2996 832.6L86.0996 824.5L88.2996 823.4C89.4996 822.8 93.0996 821.8 96.1996 821.1C105.9 819 114.5 812.5 134 792.2C150.7 774.8 169.3 757.3 176.6 752.1L180 749.7L183.2 752.4C189.9 757.8 204.3 767.2 210.2 770C215.4 772.5 220.3 773.6 233.8 775.6C235.7 775.9 237 776.7 237 777.5C237 778.3 236.6 779 236 779C235.4 779 235 782.2 235 786.8L235.1 794.5L237 789C238.1 786 239 782.4 239 780.9C239 778.2 240.5 777 244.1 777C245.2 777 246.8 776.6 247.8 776.1C248.7 775.6 254.3 774.5 260.1 773.6C276 771.1 295.7 764.2 316.4 753.8C320.7 751.6 324.5 750.1 324.8 750.5C325.1 750.8 324.9 754.3 324.3 758.3C323.2 765.9 323.8 768.2 326.1 765.4C327 764.3 327.3 761.5 327.1 756.1L326.8 748.5L331 746.1C333.8 744.5 339.1 743.2 347.4 741.9C354.1 740.9 360.3 739.8 361.3 739.5C362.8 738.9 362.9 741.9 362.4 783.7C362.1 808.3 361.7 830.3 361.4 832.6L360.9 836.7L351.7 839C344.7 840.8 339.3 841.4 328.8 841.6C315.5 841.8 314.9 841.9 311.9 844.5C302.2 852.6 282.4 858 262.2 858C252.4 858 240 856.3 238.5 854.8C238.3 854.6 237.8 850.2 237.4 845C236.7 837 236.5 836.1 235.9 839.5C235.5 841.7 234.5 843.9 233.4 844.5C232.5 845 230 846.9 228.1 848.7L224.5 851.8L229 851.4C236.5 850.6 236.7 851.3 233 863L229.7 873.2L224.6 875.6C221.8 876.8 215.2 878.5 210 879.3C201.5 880.5 200.4 880.5 199.8 879.1C199.2 877.7 199.1 877.8 199.1 879.3C199 881.5 196.7 882.4 185.9 884.4C175.7 886.3 162.6 886.3 151.3 884.4ZM315.9 825.5V819.5L314.3 824.2C313.4 827 313 830 313.4 831.6C314.5 836 316 832.5 315.9 825.5ZM236.2 809.4L235.2 804.5L235.1 810C235.1 813 235.4 817.3 235.8 819.5L236.5 823.5L236.8 818.9C237 816.4 236.7 812.1 236.2 809.4Z" fill="#5472B2"/>
<path d="M244.2 703.7L240.8 701.2L246.7 700C261.4 697.1 270.4 694.6 274.7 692.4C280.3 689.6 281.9 689.4 283.4 691.6C284.5 693 285 692.7 287.3 689.2C289.7 685.5 290.4 685.1 295.7 684.4C302.8 683.5 317.6 685.3 322.5 687.6C325.7 689.1 325.9 689.4 324.3 690.5C323.3 691.1 316.1 694.2 308.2 697.3L294 703H282.7C276.6 703.1 268.4 703.5 264.5 704C247.2 706.3 247.8 706.4 244.2 703.7Z" fill="#5472B2"/>
<path d="M531.6 345.4C528.5 342.4 530.4 337.9 537.7 330.4C548.9 318.9 561.5 314.1 573.9 316.6C576.4 317.1 577 317.7 577 320C577 323.8 573.6 326.4 565.5 328.8C558.6 330.9 553.7 333.9 543 342.8C537.5 347.2 534.2 348 531.6 345.4Z" fill="#7F6888"/>
<path d="M194.8 881.3C195.8 880.9 195.8 880.5 194.9 879.4C193.9 878.2 194.4 877.1 197.6 873.7C199.8 871.4 204.2 866.3 207.4 862.3C210.5 858.4 214.2 854.4 215.6 853.5C217 852.6 220.7 849.7 223.8 846.9C226.9 844.2 230.2 841.4 231.1 840.6C233.6 838.6 234.3 829.4 232.7 821.9C231.6 816.4 231.3 801.1 231.9 778.9C232 776.3 232 776.3 242.8 775.7C248.7 775.3 255.5 774.8 258 774.5L262.5 774L258.5 775.1C256.3 775.6 253.5 776.3 252.3 776.6C251 776.8 250 777.7 250 778.5C250 779.3 249.2 780.1 248.3 780.2C247.3 780.2 246.1 780.4 245.5 780.5C245 780.7 243.9 780.8 243.3 780.9C242.6 780.9 242 782.3 242 783.8C242 785.3 241.1 789.2 239.9 792.5C238.1 797.6 238 799.1 238.9 804.5C239.5 807.9 240 817.9 240 826.7C240 838.7 240.4 843.7 241.5 846.3C242.4 848.5 242.6 850.1 242 850.5C240.4 851.5 242.1 854 244.5 854C245.8 854 247 854.6 247.2 855.3C247.6 856.2 251.2 856.5 261 856.5C270.8 856.5 274.4 856.2 274.7 855.3C275 854.6 275.8 854 276.5 854C277.2 854 278.1 853.4 278.4 852.8C278.7 851.9 279.3 852.1 280.4 853.4C283.1 856.8 280.7 857.5 265.7 857.8C252.4 858.2 244 857.2 237.9 854.6C236.7 854.1 235.9 854.8 234.7 857.7L233.1 861.5V858.4C233 855.4 230.7 853.1 229.6 854.9C229.3 855.4 228 855.5 226.7 855.3C224.7 854.9 222.6 856.8 213.7 866.7C205.4 875.8 203.4 878.6 204.7 878.9C205.7 879.1 204.3 879.8 201.5 880.6C196.5 881.9 192.1 882.4 194.8 881.3Z" fill="#4B69AB"/>
<path d="M313.301 840.8C309.601 835.9 308.901 826.6 311.701 819.4C312.801 816.7 314.501 808.3 315.401 800.9C316.401 793.6 317.801 785.3 318.601 782.5C320.701 775.2 321.001 769.9 319.401 766.9C318.301 764.8 318.301 764 319.401 762.4C321.301 759.7 322.101 753.2 320.701 752.7C319.801 752.4 325.701 748.7 331.201 746.2C331.601 746 331.501 747.4 330.901 749.2C329.901 753 329.701 758.4 330.701 759.3C332.301 761 331.701 765.2 329.401 768C327.401 770.4 326.701 772.6 326.001 779.7C325.501 784.5 324.001 793.5 322.601 799.5C321.101 806.1 319.901 815.2 319.601 822.1C319.301 828.5 318.601 835 318.001 836.5C317.201 838.7 317.201 839.5 318.201 840.2C319.101 840.7 319.101 841 318.301 841C317.701 841 316.501 841.2 315.701 841.5C315.001 841.8 313.901 841.5 313.301 840.8Z" fill="#4B69AB"/>
<path d="M280 702C280 701.5 280.5 701 281 701C282.4 701 282.2 696.8 280.6 694.8C279.9 693.8 278.4 693 277.3 693C275.6 693 275.9 692.4 279.1 688.9C281.8 686 283.4 685 284.7 685.4C285.7 685.7 290 684.9 294.1 683.6C305.2 680.1 309 680 312.9 683.3C314.7 684.8 317 686 318 686C319 686 320.2 686.5 320.5 687C321.1 687.9 311.3 688.7 308.5 688C306.2 687.4 299.3 687.3 296.2 687.7C292.2 688.4 287 695.2 287 699.9C287 702.8 286.7 703 283.5 703C281.6 703 280 702.6 280 702Z" fill="#4B69AB"/>
<path d="M705.5 268C701.7 266.9 694.6 265.1 689.8 263.9C681.2 261.7 679.5 260.5 682.4 258.1C686.8 254.4 694 231.9 694 221.5C694 210.3 687.7 195.6 680 188.6C674.8 184 671.9 182.8 664.9 182.8C656.5 182.8 649.1 187.4 643.8 196C641.8 199.3 637.5 211.4 636.6 216.3C636.2 218.3 634.9 220.9 633.8 222C630.2 225.3 627.1 224.5 622.1 219.2C616 212.8 611.8 205.5 605.3 190.2C596.9 170 595 166.8 590.5 164.3C588.3 163 585.3 162 583.9 162C582.5 162 573 166.2 562.9 171.3C530 188 505 194.3 472 194.2C446.6 194.2 436.2 191.1 425.5 180.5C419.4 174.5 416.2 168.3 414.7 159.6C411.2 138.8 427.8 118 457.8 106C467.9 101.9 485.3 97.9998 511.5 93.9998C529 91.2998 533.6 89.7998 559 78.9998C594.4 63.9998 605 61.3998 629 62.2998C645.3 62.8998 653.9 64.7998 665.5 70.5998C690.3 82.7998 706.5 106.2 713.8 140C717.7 158.1 718.2 165.5 718.5 218.3L718.9 270L715.7 269.9C713.9 269.9 709.4 269 705.5 268Z" fill="#755678"/>
<path d="M481.5 258C480.4 254.6 481.8 252.6 487.6 249.1C495 244.7 506.8 233.4 512.6 225.3C517.9 217.9 521 216.1 524.6 218.5C529.9 222 527 227 510.4 243C495.6 257.3 483.3 263.7 481.5 258Z" fill="#755678"/>
<path d="M474.6 246.399C472.6 244.499 472.6 243.999 474.6 241.199C476.8 237.999 480.4 238.599 480.8 242.099C481.1 244.599 478.9 247.999 477 247.999C476.5 247.999 475.4 247.299 474.6 246.399Z" fill="#755678"/>
<path d="M509.6 278.1C503.5 274.1 501.5 267.8 504.5 262C506.5 258.2 510.2 257.2 514.6 259.3C518.8 261.4 521.1 264.9 521.7 270.3C522.6 278.4 516.3 282.5 509.6 278.1Z" fill="#5B4C80"/>
<path d="M356 627.9C351.6 626.1 348 621.9 348 618.5C348 616.8 348.5 614.9 349.2 614.2C350.7 612.7 354.7 612.6 355.6 614.1C356.7 616 366.3 620 369.7 620C373.3 620 374.4 621.1 373.5 624C372.1 628.3 362.4 630.4 356 627.9Z" fill="#6E4164"/>
<path d="M287.5 603.8C286.4 603.2 283.8 601.1 281.8 599.2C278.7 596.3 278 594.9 278 591.8C278 589.1 278.5 587.8 280 587C281.7 586.1 282.7 586.5 286.4 589.4C292 594.1 297.3 596.2 302.4 595.8C306.2 595.6 306.5 595.7 306.5 598C306.5 601.7 300.9 605 294.6 605C291.8 605 288.6 604.4 287.5 603.8Z" fill="#6E4164"/>
</g>
<defs>
<clipPath id="clip0_2868_8116">
<rect width="1024" height="1024" fill="white"/>
</clipPath>
</defs>
</svg>
