<?xml version="1.0" encoding="UTF-8"?>
<svg version="1.1" viewBox="0 0 2000 2000" width="1280" height="1280" xmlns="http://www.w3.org/2000/svg">
<path transform="translate(328,847)" d="m0 0 13 1 10 3 9 5 10 9 6 9 4 9 1 4v26l-2 6h-2l-2-24-5-15-6-9-10-8-12-5-4-1h-20l-12 4-11 7-12 11-9 12-8 14-8 18-8 25-7 30-5 32-2 26v27l2 26 3 21 4 16 5 11 6 9 9 8 16 7 12 3 22 2 43 2 49 1v-70l1-5-22-3-26-5-5-3-1-3v-28l2-23 3-18 1-11 6 2 2 2-1 14-3 22-2 31v7l38 6 7 1v-11l-3-8-6-7-13-5-1-5 3-6 2-1 228-2h248l80 1 99 2-1 4-7 8-6 12-3 10 5-1 9-7 7-10 6-12v-8l-4-11-1-6 7 1 4 5 3 10v8l-4 12-6 11-9 10-5 4-13 5v90l37 3 129 12 53 6-2-31-4-23-31-124-12-40-10-27-11-24-8-17-10-18-10-14-9-9-9-6-12-4-11-1-14 2-12 6-8 8-5 11-3 14-6 5-1-1v-18l4-11 8-10 9-7 10-5 8-2h21l13 4 11 7 12 11 11 15 12 21 11 23 13 33 11 34 14 52 23 93 3 17 2 29v9l12 1v-115l1-30 3-43 4-39 6-38 7-35 3-11 14 1 18 2 1 3-6 32-5 36-4 33-3 31-3 45-1 22v79l2 42 3 42 6 54 6 42v6l-2 1-17 1h-11l-7-21-6-22-1-1h-142l-5 27-2 13-2 3-25 2-4-5-2-10-4-151v-6l-37-3-24-3v150l-1 19-1 6-2 1h-42l-1-1-1-10-1-185-1-36v-18h-520v249l-16 2-28 2-2-1-2-25-1-35v-126h-30l-1 19-4 55-2 42-1 67-19-1-8-3-5-8-3-9-4-22-10-1-29-1h-50l-53 1-2 10-9 29-3 6h-23l-3-3-1-3v-15l6-58 6-55 2-34 1-35v-34l-2-53-3-44-6-56-9-66v-9l6-4 6-2h18l3 9 8 39 7 47 4 51 1 23 2 100 12 4 13 2h47l-12-9-8-8-7-11-5-10-5-16-3-19-2-22v-32l2-28 4-28 5-24 7-25 9-25 8-16 9-14 11-12 10-8 16-8 11-3zm-82 380-49 3-2 1-3 28-3 38 2 1 136-1 1-35v-32l-7-1-39-2zm932 0-33 2-13 1-3 1v64l26 3 14 1h60l28-3 14-3 2-1-2-22-4-35-1-4-2-1-31-2-23-1z"/>
<path transform="translate(1611,650)" d="m0 0h15l23 2 19 3 22 6 17 6 20 9 17 10 16 11 16 13 8 8 6 5 7 8 11 13 16 24 12 23 9 24 6 22 3 16 2 19v37l-3 24-7 28-8 22-9 19-10 17-10 14-13 16-22 22-20 15-16 10-12 7h-4l-8-19-9-17-3-4v-3l12-6 12-8 7-5h2l-4-6-17-17v-2l-7-2h-21l-2-5v-16l1-5-34-34 1 32 1 22-2 5-4 1h-22l-2-2-1-4v-15l2-66-7-8-17-17-2 14-9 77-3 19-2 2-5 1h-64l-4-2-2-11-5-40-7-46-1-8v-16l1-1 9-1 81-1-19-19-7-8-35-35-7-8-49-49-2-1-2 4-12 19-8 14-8 19-7 24-3 19-1 12v19l3 24 5 21 6 18 8 17 11 18 11 14 9 10 14 14 15 11 16 10 14 8 1 2-4 9-2 17v21l-6-1-25-12-18-11-14-10-14-12-21-21-13-17-10-15-9-16-8-17-9-27-5-21-3-23-1-12v-16l3-31 5-24 8-24 11-24 9-16 11-16 8-10 9-10 7-8 13-12 17-13 18-12 17-9 19-8 22-7 23-5 16-2zm-5 48-24 3-17 4-18 6-21 10-16 10-10 7 1 4 42 42 7 8 39 39 7 8 16 16 8 7 6 6h2l-1-30-10-7-5-7-2-7v-16l1-10v-28l4-9h6l2 5h2l3-5 5 1 3 3h3l1-5 6 2 4 3 3-4h7l2 6 1 35v26l-4 8-5 4-7 4v53l11 11 7 8 17 17 4 3h2v-22l-9-7-4-7-1-4-1-13v-95l3-11 5-9 5-5 8-3h8l8 3 2 4v196l6 7h2l1 3 5 5h2l2 4h2l2 4 31 31 5-5 8-11 11-19 8-19 7-23 4-24v-37l-4-25-6-21-6-15-12-23-9-13-9-11-9-10-13-12-15-11-18-11-17-8-27-9-21-4-10-1zm88 64-6 3-5 6-2 5-1 6v100l2 8 3 5 9 6v31l7 8 4 3 1-32v-34l-1-111-1-3-2-1zm-71 9 1 2zm0 3 1 4zm0 5v5h1v-5zm26 3v17h2l-1-17zm-25 2m13 0v17l2-1v-16zm-13 5 1 2zm-6 3 1 3zm6 0v5h1v-5zm34 8-5 8h-6l-3-2h-3l-1 2h-6l-4-2-3 2h-6l-3-7h-1l-1 6v11l3 7 6 5 7 3v37l3 5 7 6v-48l10-5 4-6 3-14v-8zm-150 97-5 2 3 24 7 49 4 33 1 2h59l3-7 7-56 4-37v-10zm124 43-2 44v22l1 1h10l3-1v-24l-1-31-4-6-5-5zm60 62 1 5h4l-1-4z"/>
<path transform="translate(630,888)" d="m0 0 8 1 6 7 6 8 5 4 8 3 6 1h113l11-4 7-6 4-7 3-4 3-1h19l1 135-1 2-62 3-39 1h-20l-50-2-34-2-8-1-1-5 1-128 9-4z"/>
<path transform="translate(624,1122)" d="m0 0 13 1 7 8 2 11 2 49h149l1-18 4-44 3-3 11-2h13l5 5 1 2v15l-2 35v102l2 64-2 8-3 5-5 3h-17l-4-3-8-40-1-1-155-3 2 26v19l-3 1h-21l-3-3-2-6-1-28-1-59-1-22v-24l3-67 1-28 5-2zm90 105-31 2-26 4-8 2-1 55 1 7h149l2-17v-24l-2-22-6-2-25-3-35-2z"/>
<path transform="translate(1560,1125)" d="m0 0h5l1 5-7 9-13 23-15 27-14 25-9 16v9l5 6 11 3 69 11 7 1h8l8-4 3-4 1-6-2-7-6-4-22-4-32-5-5-3 1-7 10-19 6-8 4-1 3 3-8 17-5 8-1 3 11 1 32 5 11 3 8 6 4 7v12l-4 6-7 6-5 2-11 1-19-2h-7l-1 17-2 63-2 46-3 83v31l3 5 6 5 6 2h13l9-4 5-6 2-9 13-156 2-8 1-6-4-2 1-11 4-26 1-2h2l1 2v28l6 2-1 9-1 6v22l9 100 4 43 2 9 5 5 5 3 4 1h12l10-4 5-6 1-4v-35l-4-148v-19l7-2 2 4 5 189v9l-2 8-4 6-7 6-7 3-5 1h-15l-10-4-8-6-4-8-2-12-5-56-4-39-1-6-4 52-5 56-3 9-7 8-7 4-7 2h-16l-10-4-8-7-4-7-1-3v-28l3-72 5-142-45-7-13-4-5-5-4-6-1-3v-9l10-19 10-17 13-24 20-35 7-8z"/>
<path transform="translate(323,879)" d="m0 0h15l9 4 6 7 5 10 5 12 8 11 9 9 13 8 17 6 17 3 11 1h62l8 3 8 5 7 10 2 7-1 11-4 8-10 9-15 5-21 2h-34l-23-2-25-5-21-7-16-8-14-9-10-9-8-8-10-14-9-19-3-11-1-12 2-11 4-6 7-6zm3 7-8 4-7 8-2 4-1 11 4 16 9 17 10 13 10 10 14 10 17 9 17 6 21 5 14 2 13 1h39l21-3 12-5 5-4 2-3 1-10-3-9-4-5-8-4-16-1h-47l-24-3-15-4-17-7-10-7-8-7-8-13-8-18-8-10-6-3z"/>
<path transform="translate(1109,886)" d="m0 0 10 1 8 4 6 8 2 5v15l-5 15-8 14-14 17-11 10-14 9-15 7-17 5-15 2h-20l-37-3-21-3-13-4-7-5-5-8-1-4v-10l4-8 7-6 9-4 5-1h17l24 3 7 1h27l16-4 11-6 10-9 8-11 9-17 7-8 9-4zm-5 8-5 3-7 8-11 21-7 8v2l-4 2-10 7-15 6-15 3-18 1-29-3-16-2h-9l-10 4-7 8-1 2v8l3 5 6 4 15 4 44 5 13 1h16l17-3 16-6 13-7 12-9 11-10 10-13 6-12 5-15v-11l-7-8-7-3z"/>
<path transform="translate(1044,675)" d="m0 0h12l19 3 15 5 12 6 11 8 9 9 7 11 6 14 2 12v17l-3 15-5 13-6 11-8 10-9 9-14 9-13 5-9 2-9 1h-11l-14-2-16-6-12-7-12-11-9-12-7-15-4-15-1-9v-9l2-14 4-13 5-10 8-11 7-8 13-9 14-6zm-4 9-15 4-12 6-10 9-7 8-8 16-4 14-1 15 2 14 4 13 5 10 10 13 12 10 14 7 11 3 6 1h15l14-3 12-5 14-9 6-5v-2h2l8-10 6-12 4-12 1-6v-19l-4-15-7-14-8-10-10-8-16-8-13-4-6-1z"/>
<path transform="translate(391,683)" d="m0 0h26l17 5 14 7 11 9 7 7 9 14 5 11 4 16 1 15-3 19-6 16-7 11-9 10-10 9-10 6-14 5-10 2h-23l-16-4-17-8-10-8-11-11-7-11-5-11-3-9-1-6v-23l3-13 6-14 8-12 10-12 12-9 14-7zm4 8-16 4-14 7-13 10-9 11-6 10-5 14-1 6v20l4 16 8 16 9 11 9 8 16 9 14 4 16 1 14-2 14-5 14-9 10-9 8-11 6-14 3-12v-22l-4-16-8-16-9-11-9-8-10-6-11-4-9-2z"/>
<path transform="translate(1622,1037)" d="m0 0h22l13 4 11 6 10 9 6 8 5 10 3 9 2 17-2 16-5 14-9 12-9 8-16 8-15 3h-15l-14-3-15-8-8-7-8-11-7-16-2-10v-14l4-16 7-13 11-12 10-7 12-5zm3 10-9 2-14 7-10 9-7 11-4 10-1 6v15l4 14 6 10 8 8 11 7 12 4 5 1h11l16-4 11-7 10-10 6-12 3-14v-9l-3-15-6-12-7-8-10-7-10-4-9-2z"/>
<path transform="translate(1698,1125)" d="m0 0 5 1 6 7 8 18 36 92 2 6v9l-4 10-9 8-16 5-29 8-30 8-5 1h-11l-8-4-7-8-3-6-1-8 2-10 4-6 7-6 13-5 35-10-2-9-6-20v-2l6-2 4 5 8 25v8l-4 3-41 12-10 4-4 4-2 5v8l4 8 6 4h11l35-9 36-10 8-5 3-5v-9l-10-27-23-58-11-27-5-7v-5z"/>
<path transform="translate(1976,997)" d="m0 0h20v39l-1 11-1 1-19-1v-48z"/>
<path transform="translate(1983,923)" d="m0 0h10l3 30v20l-8 1h-12l-1-1-2-49z"/>
<path transform="translate(948,1975)" d="m0 0h33l16 1 1 1v19h-39v-2l-11 2-1-8z"/>
<path transform="translate(1775,376)" d="m0 0 5 1 10 13 14 18 4 6v3l-9 6-5 4-4-2-11-15-11-14-5-7 1-4 10-8z"/>
<path transform="translate(247,1626)" d="m0 0 3 1 8 10 10 11 7 8 6 7-13 13-4-1-13-14-18-22 1-3 9-7z"/>
<path transform="translate(93,1377)" d="m0 0h3l16 35 4 8v3l-16 8-3-1-15-33-4-9v-4l14-6z"/>
<path transform="translate(1495,134)" d="m0 0 6 1 28 17 10 7-1 4-8 13-6-2-17-11-20-12 1-5 5-8z"/>
<path transform="translate(296,1680)" d="m0 0 4 2 7 8 8 8 16 14 1 4-12 13-4-2-6-5v-2l-4-2-23-23 2-4z"/>
<path transform="translate(124,1444)" d="m0 0 4 1 18 33 4 7v3l-15 9-3-1-16-29-7-15z"/>
<path transform="translate(249,337)" d="m0 0 4 2 8 7 4 4-13 15-18 22-2 1-14-11-1-2 9-11 12-14z"/>
<path transform="translate(405,1777)" d="m0 0 5 2 13 10 16 11 7 5-1 4-8 13-4-1-16-11-18-13-4-3 1-4z"/>
<path transform="translate(1607,1762)" d="m0 0 5 5 8 10-5 5-16 13-18 13-4-2-9-13 5-5 15-11 16-13z"/>
<path transform="translate(349,1731)" d="m0 0 4 2 14 12 16 13 4 3-1 5-8 10-1 2-5-2-14-12-11-9-10-9 3-5z"/>
<path transform="translate(120,520)" d="m0 0 5 1 13 7-1 5-20 40-5-1-14-7 2-6 11-20z"/>
<path transform="translate(1618,218)" d="m0 0 5 1 14 12 11 9 10 9-2 4-9 11-4-1-14-12-13-11-9-7 6-8z"/>
<path transform="translate(465,1820)" d="m0 0 5 1 18 11 17 10 4 4-9 16-6-2-17-10-17-11-4-3 2-5z"/>
<path transform="translate(202,1568)" d="m0 0 3 1 7 11 11 14 10 13-5 5-9 8h-2v-2h-2l-20-26-8-12 5-5z"/>
<path transform="translate(161,1507)" d="m0 0 5 5 16 25 7 11-1 3-11 7-4 2-7-9-20-32v-3l14-8z"/>
<path transform="translate(1878,1423)" d="m0 0 7 1 12 6-2 6-18 36-2 3-5-1-13-7 1-5 10-19 8-16z"/>
<path transform="translate(59,656)" d="m0 0 6 1 12 4 1 4-12 36-4 9-18-6 1-7 12-35z"/>
<path transform="translate(1859,499)" d="m0 0h4l13 24 10 18-1 3-16 8-6-9-12-23-6-10v-3z"/>
<path transform="translate(415,187)" d="m0 0 5 5 7 9-2 4-19 14-16 13-3 1-11-13v-4l13-10 18-14z"/>
<path transform="translate(1051,1974)" d="m0 0h20l2 18-1 1-7 1-34 2h-9l-1-7v-13l1-1z"/>
<path transform="translate(1727,319)" d="m0 0 4 1 11 12 7 8 9 10 4 5-1 4-9 7-3 3-4-2-11-12-9-11-9-9-1-4 7-7z"/>
<path transform="translate(1558,174)" d="m0 0 5 1 19 13 17 12 1 4-10 14-8-4-16-12-17-12 1-4z"/>
<path transform="translate(1844,1487)" d="m0 0 6 2 11 6v4l-10 18-11 17-3 5-5-1-12-8v-4l10-15 11-19z"/>
<path transform="translate(16,1021)" d="m0 0 4 1 2 39v10l-6 1h-14l-2-20v-30z"/>
<path transform="translate(1894,565)" d="m0 0h4l16 35 3 7v4l-15 7-4-2-19-42v-2z"/>
<path transform="translate(1821,435)" d="m0 0 5 5 13 20 10 16v3l-12 7-4 2-6-8-21-33 1-3 10-6z"/>
<path transform="translate(201,395)" d="m0 0 4 1 10 7 3 3-7 11-13 18-8 11-2 1-2-1v-2l-4-2-9-6 2-5 10-13 13-19z"/>
<path transform="translate(476,146)" d="m0 0 4 1 5 10 3 3-2 4-20 13-18 12h-3l-7-11-3-5 11-8 16-10z"/>
<path transform="translate(945)" d="m0 0h29v19l-2 1-38 2h-9l-2-6v-13l16-2z"/>
<path transform="translate(300,283)" d="m0 0 4 2 11 11-1 3-8 7-14 15-10 11-4-1-7-7-5-4 2-4 13-13 7-8z"/>
<path transform="translate(542,109)" d="m0 0 3 2 3 8 4 6v2l-28 15-13 8-4-1-9-15 3-3 24-13z"/>
<path transform="translate(528,1857)" d="m0 0 5 1 19 10 20 10 1 4-5 9-2 6-5-1-15-8-16-8-9-5-1-3z"/>
<path transform="translate(1548,1806)" d="m0 0 3 1 6 10 3 3v3l-25 16-16 10-4-2-6-10-2-4 11-8 18-11z"/>
<path transform="translate(1662,1715)" d="m0 0 4 2 6 7 4 3-1 4-7 7-7 6h-2v2l-11 9-9 8-5-5-8-10 6-7 11-9 12-11z"/>
<path transform="translate(1761,1608)" d="m0 0 4 1 12 9v3l-10 13-12 14-9 10-4-2-11-9 1-4 9-10 18-22z"/>
<path transform="translate(1908,1355)" d="m0 0 10 3 9 4-9 24-9 21-3 2-17-8 2-6 8-18 8-21z"/>
<path transform="translate(87,587)" d="m0 0 5 1 13 5 1 3-11 25-7 18-4 1-15-6 1-7 12-28z"/>
<path transform="translate(159,456)" d="m0 0 4 1 11 7 2 1-2 6-11 17-11 19-4 1-14-8-1-2 13-22z"/>
<path transform="translate(1675,266)" d="m0 0 4 2 8 8 8 7 17 17-1 4-10 9-3 2-6-5-7-8-13-12-9-9 2-4 7-7z"/>
<path transform="translate(355,233)" d="m0 0 4 2 10 11-1 4-13 11-15 13-6 6-4-1-7-7-4-5 2-4 10-9 11-9z"/>
<path transform="translate(1713,1663)" d="m0 0 4 1 12 11-3 5-14 15-7 8-6 5-4 4-4-2-11-11 1-3 8-7 15-15 7-8z"/>
<path transform="translate(1805,1549)" d="m0 0 4 1 12 8v4l-15 22-11 15-4 1-13-10 1-4 12-17 10-14z"/>
<path transform="translate(1951,1215)" d="m0 0 12 2 7 2-1 10-9 36-1 3-8-1-11-3-1-2 9-35z"/>
<path transform="translate(997)" d="m0 0h51v12l-1 8-1 1-38-1-11-1z"/>
<path transform="translate(67,1309)" d="m0 0 4 1 12 34 4 9-1 3-14 6h-4l-8-20-8-24v-4z"/>
<path transform="translate(1933,1286)" d="m0 0 12 3 6 2-1 7-13 40-4 2-15-6-1-4 12-34 3-9z"/>
<path transform="translate(1950,703)" d="m0 0 3 2 8 30 4 14v3l-17 5h-2l-5-16-8-29v-4z"/>
<path transform="translate(1429,99)" d="m0 0 6 1 38 19 2 2-1 4-7 14-19-9-19-10-7-4 2-6z"/>
<path transform="translate(593,1890)" d="m0 0 7 1 23 10 17 7-1 6-5 12-2 1-29-12-15-7-1-4 5-11z"/>
<path transform="translate(1485,1845)" d="m0 0 4 1 8 16-17 10-20 11-6 3-3-1-7-14 1-4 25-13z"/>
<path transform="translate(37,727)" d="m0 0 11 2 8 3-4 16-7 30-1 2-8-1-11-3 1-9 9-36z"/>
<path transform="translate(1924,633)" d="m0 0 4 1 16 44-1 3-17 6-3-5-13-37-1-6z"/>
<path transform="translate(608,78)" d="m0 0h4l5 13 1 4-4 3-33 15-8 3-3-5-6-12 3-3 18-8z"/>
<path transform="translate(19,799)" d="m0 0 17 3 3 3-8 44-1 3-11-1-8-2 1-13z"/>
<path transform="translate(1361,69)" d="m0 0 7 1 26 11 14 7-1 5-6 13-6-2-40-17 1-5z"/>
<path transform="translate(1291,44)" d="m0 0 6 1 36 12 7 3-6 18-6-1-41-14-1-4z"/>
<path transform="translate(1973,1071)" d="m0 0h12l8 1-1 18-4 32-2 1-18-3 1-13z"/>
<path transform="translate(731,1940)" d="m0 0 9 1 39 10 1 4-4 16-10-2-32-8-7-3 1-7z"/>
<path transform="translate(44,1239)" d="m0 0h6l12 43 1 4-10 4-9 2-3-7-11-40v-2z"/>
<path transform="translate(663,1917)" d="m0 0 37 12 9 4-2 10-3 8-2 1-40-14-6-2 1-6 4-11z"/>
<path transform="translate(1419,1880)" d="m0 0h5l5 12 2 5-14 7-21 9-11 5-8-16 1-3 19-9z"/>
<path transform="translate(1965,1144)" d="m0 0 16 1 4 2-7 41-2 8-8-1-11-3-1-2 8-44z"/>
<path transform="translate(1978,849)" d="m0 0h7l6 46-1 4-18 2-2-5-5-41 1-4z"/>
<path transform="translate(1352,1909)" d="m0 0 5 1 5 13v4l-20 8-23 8h-5l-5-14 1-5 32-11z"/>
<path transform="translate(1,947)" d="m0 0 19 1 1 5-1 34-1 10-1 1h-18v-50z"/>
<path transform="translate(30,1167)" d="m0 0h4l3 13 6 29 1 7-13 3h-7l-5-22-4-23v-4z"/>
<path transform="translate(1146,11)" d="m0 0 11 1 34 6 5 2-2 13-2 6-12-2-33-6-4-2 2-16z"/>
<path transform="translate(1283,1933)" d="m0 0h4l5 16-1 3-27 8-18 5h-3l-5-18 9-4z"/>
<path transform="translate(21,1094)" d="m0 0 3 1 2 11 4 31v7l-15 3h-4l-2-9-4-33v-9z"/>
<path transform="translate(7,873)" d="m0 0 14 1 6 2-4 46-1 3-18-1-2-3 4-40z"/>
<path transform="translate(750,30)" d="m0 0h2l5 18-5 3-39 11-5-1-5-15 1-3z"/>
<path transform="translate(1965,776)" d="m0 0h6l4 16 5 27v6l-14 3h-5l-2-8-7-36v-5z"/>
<path transform="translate(677,52)" d="m0 0h4l5 14-1 5-29 10-14 6-3-1-6-14v-4l26-10z"/>
<path transform="translate(803,1957)" d="m0 0 10 1 35 6 4 2-2 18h-8l-39-7-4-2 2-10z"/>
<path transform="translate(1219,25)" d="m0 0 9 1 32 8 8 3-2 11-3 8-48-12 1-7z"/>
<path transform="translate(1073,2)" d="m0 0 41 4 7 1 2 3-2 15-1 2-45-4-5-2 2-18z"/>
<path transform="translate(1140,1965)" d="m0 0 4 1 3 15v3l-9 2-38 5-4-1-2-14v-5z"/>
<path transform="translate(1211,1952)" d="m0 0h5l2 7 2 11-9 3-25 5-16 2-3-14v-5z"/>
<path transform="translate(821,15)" d="m0 0h4l3 13v6l-8 2-30 6-4 1h-7l-3-12v-7l29-6z"/>
<path transform="translate(891,5)" d="m0 0h8l2 13v5l-6 2-38 5h-5l-2-6-2-12 4-2z"/>
<path transform="translate(876,1968)" d="m0 0 48 5 1 4-1 15-2 1-42-4-7-2 1-13z"/>
<path transform="translate(840,1014)" d="m0 0 9 3 11 3 18 2h33l45-3 1 6-1 2h-91l-25-1z"/>
<path transform="translate(487,1018)" d="m0 0 6 1 28 3 16 1h32l20-2 15-3 1 1v7l-31 1h-92l-7-3v-3z"/>
<path transform="translate(1637,1296)" d="m0 0 4 2 9 10 3 4 6 2 6 8 8 14 2 3-1 3-16-16-6-3-4-5-11-21z"/>
<path transform="translate(1623,1295)" d="m0 0h2l-2 6-6 10-3 7 2 3-7 8-11 13-4 4-2-1 10-17 1-5-1-4 7-8 9-10z"/>
<path transform="translate(1524,657)" d="m0 0h2l-1 2z" fill="#000"/>
</svg>
