<?xml version="1.0" encoding="UTF-8"?>
<svg version="1.1" viewBox="0 0 2000 2000" width="1280" height="1280" xmlns="http://www.w3.org/2000/svg">
<path transform="translate(525,770)" d="m0 0h23l61 7 20 3 13 4 56 22 39 16 20 8 5 1h14l62-17 21-5h9l24 4 9 4 6 5 5 10 1 6v9h92l1 3v14l-1 3-2 1-2 13-1 1h-14l-1-5 1-8h-4v9l-1 4h-9l-1-1v-13h-57l-2 15-6 10-7 6-9 3h-10l-9-3-5-4h-7l-55 16-40 11-14 1-12-3-35-14-29-11-19-7-2 13-8 59-7 54-7 50 1 10 10 27 18 46 22 57 14 37 2 7v224l-4 14-7 12-9 10-11 7-10 4-12 2h-9l-12-2-13-5-9-7-7-7-6-10-4-10-2-9-1-28v-91l-1-66-5-16-12-28-16-38-4-9v-2l-2 1-10 36-10 38-10 36-5 12-8 11-9 9-7 8-21 21-7 8-15 15-7 8-17 17-7 8-19 19-7 8-21 21-13 9-14 5-6 1h-15l-10-2-16-8-12-11-7-10-6-14-1-5v-21l4-13 8-13 9-11 13-13 3-4h2l2-4 17-17 7-8 9-9 7-8 7-7 7-8 12-12 7-8 7-7 4-6 4-16 12-75 13-81 9-49 24-121 3-13-26 12-6 4-8 13-7 14-12 22-14 26-13 23-8 9-10 6-11 3h-15l-13-4-9-6-9-10-5-11-1-5v-15l4-13 13-24 13-23 13-24 9-16 10-17 9-10 14-10 25-14 104-60 15-7zm4 23-14 5-27 15-17 10-23 13-26 15-23 13-25 15-7 6-8 14-13 24-13 23-12 22-10 18-3 8v8l5 10 9 6 3 1h10l6-3 5-5 6-9 13-24 24-44 7-12 5-10 4-5 23-12 33-15 34-16 8-3h10l4 5 1 2v6l-5 6-23 11-10 5-3 7-9 42-17 83-9 48-8 49-9 56-7 41-3 19-3 22-5 12-6 10-12 14-22 22-7 8-15 15-7 8-10 10-7 8-16 17-3 3v2l-3 1-9 11-5 12v14l4 11 7 10 11 7 10 3h12l12-5 8-7 24-24 7-8 14-14 7-8 21-21 7-8 12-12 7-8 29-29 8-10 5-10 6-19 20-74 19-70 10-35 4-5 2-1 9 1 5 6v9l-9 41v12l10 25 13 30 20 48 4 11 1 4 1 184 3 13 7 10 9 7 12 4h11l12-5 7-6 6-9 2-5 1-6v-208l-2-13-6-17-38-98-16-41-5-15v-13l7-53 12-84 5-33 3-23 3-7 3-3 9 1 17 8 58 22 23 9 4 1h7l29-8 54-16 15-5 1-38-10 2-63 17-16 4-10-1-16-6-34-14-30-12-32-13-20-7-16-3-42-4-24-3zm344 45-1 2v22l2 1 4-4 1-4v-10l-3-5zm23 36-5 5-6 5v3l5-1 5-5 2-4z" />
<path transform="translate(1053,334)" d="m0 0h35l1 1v1325l-1 1h-35z"/>
<path transform="translate(1435,1149)" d="m0 0h23l12 3 16 8 12 8 15 13 14 12 13 11 11 9 13 11 14 12 10 9 8 7 12 11 11 14 8 16 4 14v21l-4 15-6 11-7 9-9 10-7 7-7 8-12 11-8 7 65 2 13 3 11 6 11 9 7 10 4 10 1 4v21l-4 13-7 10-8 7-9 3-8 1h-53l-71 7-14 1h-15l-20-3-26-6-29-2-11-3-9-6-7-11-4-13v-16l4-14 7-12 11-13 47-47 7-8 9-10 1-3-4-2-9-7-16-13-14-11-16-12-5 2-12 9-18 12-19 11-20 8-18 4-35 5-56 10-11 1h-9l-13-2-10-5-7-7-7-12-3-10v-16l5-12 6-8 11-7 13-5 31-6 48-6 17-4 15-5 16-8 14-8 10-7 14-10 2-6 3-16 5-14 8-13 9-10 12-9 11-5 6-2zm1 14-12 4-9 5-10 9-6 7-7 15-3 12-1 12-9 10-17 13-16 10-17 9-19 7-21 5-56 7-23 5-10 4-9 8-4 9v14l3 7 7 8 7 4 3 1h24l51-10 41-6 20-5 16-7 17-11 20-14 16-11 6 1 16 12 16 13 14 11 18 14 8 7 2 2-1 5-9 11-12 14-8 8v2l-3 1-5 6-7 6-5 5v2l-4 2v2l-4 2-14 14-11 14-6 12-1 5v10l3 11 6 8 6 3 6 1 23 1 15 3 17 5 7 1h35l81-8h29l17 1 8-2 6-4 5-8 3-11v-11l-3-10-6-9-7-6-8-4-10-3-7-1-81-1-1-9 7-8 19-19 8-7 16-16 11-14 7-14 3-11v-15l-4-12-6-11-11-12-13-13-11-9-42-36-13-12-8-7-13-11-15-11-16-8-10-3z" />
<path transform="translate(572,560)" d="m0 0h18l16 3 15 6 11 7 11 9 9 10 8 13 6 14 3 13 1 13-2 19-5 15-8 15-8 10-9 9-10 7-16 8-17 4h-28l-13-3-14-6-13-9-14-14-7-11-7-14-4-13-1-6v-23l4-16 8-16 9-13 9-9 12-9 16-8 14-4zm2 23-14 3-12 6-10 8-7 7-8 13-5 14-1 6v16l3 13 8 15 9 10 9 8 16 8 13 3h14l15-4 13-7 9-7 7-8 6-9 5-10 3-14v-11l-3-14-8-16-7-9-8-8-13-8-12-4-6-1z" />
<path transform="translate(1337,969)" d="m0 0h22l16 3 16 6 14 8 14 11 11 12 9 14 6 12 5 17 2 13v15l-2 14-5 16-8 16-8 11-11 12-11 9-9 6-19 8-12 3-7 1h-25l-18-4-15-6-14-8-13-10-9-9-10-14-8-17-4-16-1-7v-17l3-20 5-15 8-16 9-12 9-10 10-8 15-9 14-5 12-3zm1 14-21 5-16 8-14 10-9 9-10 15-6 14-4 15-1 9v9l2 15 6 18 6 11 7 9 11 11 15 10 14 6 15 4 8 1h16l14-3 14-5 16-10 12-11 9-10 8-14 4-10 3-13 1-15-2-14-5-16-7-14-8-11-11-12-14-10-15-7-11-3-7-1z" />
<path transform="translate(1200,932)" d="m0 0h7l10 4 10 9 9 12 6 12 1 7-2 8-6 7-7 3-10-1-10-6-12-12-9-14-2-6v-8l4-8 6-5zm1 14-1 1v7l6 9 3 4h2l2 4 8 7 6 1 1-1-1-8-8-11-12-12z" />
<path transform="translate(1286,889)" d="m0 0h11l6 3 6 7 4 9 3 19v13l-3 5-9 8-4 2h-8l-8-5-7-10-4-11-1-4v-18l4-9 6-7zm5 14-3 3-1 5v13l3 10 3 5h6l2-3v-11l-3-15-3-6z" />
<path transform="translate(1149,1018)" d="m0 0h9l24 5 10 5 7 8 4 9-2 6-9 8-7 3-5 1-16-1-13-4-8-5-6-8-2-6v-6l5-8zm3 15-1 1v6l6 5 17 4 9-1 2-5-5-5-10-3-11-2z" />
<path transform="translate(1976,997)" d="m0 0h20v39l-1 12-20-1v-48z" />
<path transform="translate(1982,923)" d="m0 0h11l3 26v24l-10 1h-10l-1-1-2-49z" />
<path transform="translate(948,1975)" d="m0 0h32l17 1 1 1v19h-38l-4-1-8 1-1-8z" />
<path transform="translate(1775,376)" d="m0 0 5 1 10 13 14 18 4 6v3l-9 6-5 4-4-2-11-15-11-14-5-7 1-4 10-8z" />
<path transform="translate(247,1626)" d="m0 0 3 1 8 10 10 11 7 8 6 7-13 13-4-1-13-14-18-22 1-3 9-7z" />
<path transform="translate(1495,134)" d="m0 0 6 1 28 17 10 7-1 4-8 13-6-2-17-11-20-12 1-5 5-8z" />
<path transform="translate(1607,1762)" d="m0 0 5 5 8 10-5 5-16 13-18 13-4-2-9-13 5-5 19-14 13-11z" />
<path transform="translate(120,520)" d="m0 0 5 1 13 7-1 5-20 40-5-1-14-7 2-6 11-20z" />
<path transform="translate(249,337)" d="m0 0 4 2 8 7 4 4-13 15-18 22-2 1-14-11-1-2 9-11 12-14z" />
<path transform="translate(349,1731)" d="m0 0 4 2 14 12 16 13 4 3-1 5-8 10-1 2-5-2-14-12-11-9-10-9 3-5z" />
<path transform="translate(296,1680)" d="m0 0 4 2 7 8 8 8 16 14 1 4-12 13-4-2-17-16-16-16 2-4z" />
<path transform="translate(1878,1423)" d="m0 0 7 1 12 6-2 6-18 36-2 3-5-1-13-7 1-5 10-19 8-16z" />
<path transform="translate(93,1377)" d="m0 0h3l16 35 4 8v3l-16 8-3-1-18-40-1-6 14-6z" />
<path transform="translate(59,656)" d="m0 0 6 1 12 4 1 4-12 36-4 9-18-6 1-7 12-35z" />
<path transform="translate(1618,218)" d="m0 0 5 1 14 12 11 9 10 9-2 4-9 11-4-1-14-12-13-11-9-7 6-8z" />
<path transform="translate(415,187)" d="m0 0 5 5 7 9-2 4-19 14-16 13-3 1-11-13v-4l13-10 18-14z" />
<path transform="translate(405,1777)" d="m0 0 6 3 18 13 13 9 4 3-1 4-8 13-4-1-16-11-18-13-4-3 1-4z" />
<path transform="translate(124,1444)" d="m0 0 4 1 12 22 10 18v3l-14 8h-4l-16-29-7-15z" />
<path transform="translate(1894,565)" d="m0 0h4l15 33 5 13-16 7-4-2-19-42v-2z" />
<path transform="translate(1859,499)" d="m0 0h4l13 24 10 18-1 3-16 8-6-9-12-23-6-10v-3z" />
<path transform="translate(1051,1974)" d="m0 0h20l2 18-1 1-7 1-34 2h-9l-1-7v-13l1-1z" />
<path transform="translate(465,1820)" d="m0 0 5 1 18 11 17 10 4 4-9 16-6-2-17-10-17-11-4-3 2-5z" />
<path transform="translate(1662,1715)" d="m0 0 4 2 4 4v2h2v2l4 2-1 4-7 7-8 7-14 12-8 6-9-11-3-5 12-11 8-7 14-12z" />
<path transform="translate(202,1568)" d="m0 0 3 1 7 11 11 14 10 13-5 5-9 8h-2v-2h-2l-10-13-13-17-5-9 11-8z" />
<path transform="translate(161,1507)" d="m0 0 5 5 16 25 7 11-1 3-11 7-4 2-7-9-20-32v-3l14-8z" />
<path transform="translate(1727,319)" d="m0 0 4 1 11 12 7 8 9 10 4 5-1 4-9 7-3 3-4-2-11-12-9-11-9-9-1-4 7-7z" />
<path transform="translate(1558,174)" d="m0 0 5 1 19 13 17 12 1 4-10 14-8-4-16-12-17-12 1-4z" />
<path transform="translate(17,1021)" d="m0 0 3 1 2 38v11l-6 1h-14l-2-20v-30z" />
<path transform="translate(1821,435)" d="m0 0 5 5 13 20 10 16v3l-12 7-4 2-6-8-21-33 1-3 10-6z" />
<path transform="translate(201,395)" d="m0 0 4 1 10 7 3 3-7 11-13 18-8 11h-3l-10-7-4-3 2-5 10-13 13-19z" />
<path transform="translate(1844,1487)" d="m0 0 6 2 11 6v4l-10 18-11 17-3 5-5-1-12-8v-4l10-15 11-19z" />
<path transform="translate(300,283)" d="m0 0 4 2 11 11-1 3-8 7-14 15-10 11-4-1-7-7-5-4 2-4 13-13 7-8z" />
<path transform="translate(1675,266)" d="m0 0 4 2 7 7 8 7 18 18-1 4-10 9-3 2-6-5-7-8-13-12-9-9 2-4 7-7z" />
<path transform="translate(476,146)" d="m0 0 4 1 5 10 3 3-2 4-20 13-18 12h-3l-7-11-3-5 11-8 16-10z" />
<path transform="translate(946)" d="m0 0h28v19l-2 1-38 2h-9l-2-6v-13l16-2z" />
<path transform="translate(528,1857)" d="m0 0 5 1 19 10 20 10 1 4-5 9-2 6-5-1-15-8-16-8-9-5-1-3z" />
<path transform="translate(1548,1806)" d="m0 0 3 1 6 10 3 3v3l-25 16-16 10-4-2-6-10-2-4 11-8 18-11z" />
<path transform="translate(1761,1608)" d="m0 0 4 1 12 9v3l-10 13-12 14-9 10-4-2-11-9 1-4 9-10 18-22z" />
<path transform="translate(1973,1071)" d="m0 0h12l8 1-1 19-4 31-2 1-18-3 1-14z" />
<path transform="translate(87,587)" d="m0 0 5 1 13 5 1 3-11 25-7 18-4 1-15-6 1-7 12-28z" />
<path transform="translate(159,456)" d="m0 0 4 1 11 7 2 1-2 6-11 17-11 19-4 1-14-8-1-2 13-22z" />
<path transform="translate(355,233)" d="m0 0 4 2 10 11-1 4-13 11-15 13-6 6-4-1-7-7-4-5 2-4 10-9 11-9z" />
<path transform="translate(1713,1663)" d="m0 0 4 1 12 12-9 11-14 14-2 3h-2l-1 3-6 5-4-2-11-11 1-3 8-7 15-15 7-8z" />
<path transform="translate(1908,1355)" d="m0 0 10 3 9 4-9 24-9 21-5 1-15-7 2-6 8-18 8-21z" />
<path transform="translate(1951,1215)" d="m0 0 12 2 7 2-1 10-9 36-1 3-8-1-11-3-1-2 9-35z" />
<path transform="translate(542,109)" d="m0 0 3 2 3 8 4 6v2l-28 15-13 8-4-1-8-13 1-4 21-12z" />
<path transform="translate(997)" d="m0 0h51v12l-1 8-1 1-38-1-11-1z" />
<path transform="translate(1933,1286)" d="m0 0 12 3 6 2-1 7-13 40-4 2-15-6-1-4 12-34 3-9z" />
<path transform="translate(1429,99)" d="m0 0 6 1 40 20-1 5-7 14-19-9-19-10-7-4 2-6z" />
<path transform="translate(1805,1549)" d="m0 0 4 1 12 8v4l-15 22-8 11-4 5-5-1-11-9 1-4 12-17 10-14z" />
<path transform="translate(37,727)" d="m0 0 10 2 9 3-4 16-7 30-1 2-8-1-11-3 1-9 9-36z" />
<path transform="translate(1950,703)" d="m0 0 3 2 8 30 4 14v3l-17 5h-2l-5-16-8-29v-4z" />
<path transform="translate(19,799)" d="m0 0 17 3 3 2-5 29-4 19-11-1-8-2 1-13z" />
<path transform="translate(1924,633)" d="m0 0 4 1 16 44-1 3-14 5-5-1-10-29-5-13v-4z" />
<path transform="translate(608,78)" d="m0 0h4l5 13 1 4-4 3-33 15-8 3-3-5-6-12 3-3 18-8z" />
<path transform="translate(594,1890)" d="m0 0 6 1 23 10 17 7-1 6-5 12-2 1-29-12-15-7-1-4z" />
<path transform="translate(1485,1845)" d="m0 0 4 1 8 16-17 10-20 11-6 3-3-1-7-14 1-4 25-13z" />
<path transform="translate(67,1309)" d="m0 0 4 1 10 29 6 14-1 3-14 6h-4l-8-20-8-24v-4z" />
<path transform="translate(44,1239)" d="m0 0h5l3 7 8 29 3 11-10 4-9 2-3-7-11-40v-2z" />
<path transform="translate(1,947)" d="m0 0 19 1 1 1-1 41-1 7-1 1h-18v-50z" />
<path transform="translate(1361,69)" d="m0 0 7 1 26 11 14 7-1 5-6 13-6-2-40-17 1-5z" />
<path transform="translate(1291,44)" d="m0 0 6 1 36 12 7 3-6 18-6-1-41-14-1-4z" />
<path transform="translate(1966,1143)" d="m0 0 15 2 4 2-7 41-2 8-8-1-10-2-2-3 8-44z" />
<path transform="translate(731,1940)" d="m0 0 9 1 39 10 1 4-4 16-10-2-32-8-7-3 1-7z" />
<path transform="translate(30,1167)" d="m0 0h4l3 13 6 29 1 7-13 3h-7l-5-22-4-23v-4z" />
<path transform="translate(663,1917)" d="m0 0 37 12 9 4-2 10-3 8-2 1-40-14-6-2 1-6 4-11z" />
<path transform="translate(1419,1880)" d="m0 0h5l5 12 2 5-14 7-21 9-11 5-8-16 1-3 19-9z" />
<path transform="translate(1352,1909)" d="m0 0h4l6 14v4l-20 8-23 8h-5l-5-14 1-5 32-11z" />
<path transform="translate(7,873)" d="m0 0 14 1 6 2-2 21-2 24-1 4-18-1-2-4z" />
<path transform="translate(1978,849)" d="m0 0h7l6 46-1 4-18 2-2-6-5-40 1-4z" />
<path transform="translate(22,1094)" d="m0 0 2 1 2 11 4 31v7l-15 3h-4l-2-9-4-33v-9z" />
<path transform="translate(1965,776)" d="m0 0h6l4 16 5 27v6l-14 3h-5l-2-8-7-36v-5z" />
<path transform="translate(750,30)" d="m0 0h2l5 18-5 3-39 11-5-1-5-15 1-3z" />
<path transform="translate(1146,11)" d="m0 0 11 1 34 6 5 2-2 13-2 6-12-2-33-6-4-2 2-16z" />
<path transform="translate(677,52)" d="m0 0h4l5 14-1 5-29 10-14 6-3-1-6-14v-4l26-10z" />
<path transform="translate(1219,25)" d="m0 0 9 1 32 8 8 3-2 11-3 8-48-12 1-7z" />
<path transform="translate(803,1957)" d="m0 0 10 1 35 6 4 2-2 18h-8l-39-7-4-2 2-10z" />
<path transform="translate(1283,1933)" d="m0 0h4l5 16-1 3-34 10-11 3h-3l-5-18 9-4z" />
<path transform="translate(1073,2)" d="m0 0 41 4 7 1 2 3-2 15-1 2-45-4-5-2 2-18z" />
<path transform="translate(1140,1965)" d="m0 0 4 1 3 15v3l-9 2-38 5-4-1-2-14v-5z" />
<path transform="translate(1211,1952)" d="m0 0h5l2 7 2 11-9 3-25 5-16 2-3-14v-5z" />
<path transform="translate(821,15)" d="m0 0h4l3 13v6l-8 2-30 6-4 1h-7l-3-12v-7l29-6z" />
<path transform="translate(891,5)" d="m0 0h8l2 13v5l-6 2-38 5h-5l-2-6-2-12 4-2z" />
<path transform="translate(876,1968)" d="m0 0 48 5 1 4-1 15-2 1-42-4-7-2 1-13z" />
</svg>
