<svg width="1024" height="1024" viewBox="0 0 1024 1024" fill="none" xmlns="http://www.w3.org/2000/svg">
<g clip-path="url(#clip0_2870_9033)">
<path d="M421.6 900.4C420 896.3 421.1 893.1 425.6 888.1C428.1 885.3 431 883 432.1 883C433.7 883 434 882.2 434 877.5C434 872.3 434.1 872 436.5 872C439.7 872 440.1 868.1 437 867.3C435.4 866.9 435 865.9 435 862.8V858.8L439 859.1C442 859.4 443.5 858.9 445.4 857.1C447.6 855 448.5 854.9 453.7 855.5C460.3 856.2 461.4 856.7 462.3 859.2C462.6 860.2 463.6 861 464.5 861C465.7 861 466 862.2 466 866.4C466 871 465.6 872 463.5 873.4C462.2 874.3 459 875 456.5 875C452 875 452 875 452 878.5C452 881.4 451.5 882.2 449.5 883C447.5 883.8 447 884.6 447 887.5C447 889.4 446.6 891 446.1 891C445.6 891 444.8 891.9 444.5 893.1C443.9 894.8 443.2 895.1 439.9 894.8C437.8 894.6 436 894.8 436 895.2C436 895.7 435.3 896 434.5 896C433.7 896 433 896.4 433 897C433 900.8 422.9 903.9 421.6 900.4Z" fill="#72494A"/>
<path d="M442.8 863.2C440.5 862.9 440 862.4 440 860.3C440 858.8 440.6 856.9 441.4 856.1C442.4 854.9 442.5 853 441.9 848.5C441.5 845.2 440.8 840.1 440.4 837.2L439.7 831.9L445.1 832.2C450.5 832.5 450.5 832.5 451.6 836.5C452.9 841.4 455.7 847.7 456.7 848.2C457.2 848.3 458.5 850.4 459.7 852.7C462.4 857.6 462.8 863 460.5 863C459.7 863 459 862.3 459 861.5C459 860.2 457.9 859.8 451.8 858.5C450.8 858.3 449 859.4 447.8 860.8C446.1 862.8 444.7 863.4 442.8 863.2Z" fill="#6B506A"/>
<path d="M380.2 928.8C378.6 927.2 378.7 921.9 380.4 919.7C381.3 918.5 383.7 917.7 387.3 917.3C392.6 916.8 393 916.6 395.2 912.4C397.1 908.8 398 908 400.2 908C402.9 908 406.2 910.4 407.3 913.1C407.6 914 407.9 913.7 407.9 912.4C408 911.2 407.3 910 406.5 909.6C405.7 909.3 405 908.4 405 907.5C405 906.7 404.1 906 403 906C401.2 906 401 905.3 401 900.6C401 892.8 402.5 889.4 406.2 888.6C412.2 887.4 414.6 887.9 416 890.5C417 892.4 418.1 893 420.7 893C422.5 893 424 893.3 424.1 893.8C424.1 894.2 424.4 895.4 424.6 896.5C425.1 899 423.3 908.4 421.4 912.8C420.2 915.6 419.6 916 416.2 916H412.4L412.5 921.8V927.5L400 928.7C383.6 930.2 381.6 930.2 380.2 928.8Z" fill="#855855"/>
<path d="M340 913.9C340 913.3 339.1 911.6 337.9 910.2C336 907.8 335.1 907.5 329.1 907.5H322.5L322.2 903.5C322 900.2 322.6 898.3 325.8 893.5C328 890.2 331.6 885.4 333.9 882.8C337.4 878.9 338.8 878 341.5 878C344.2 878 344.9 878.4 345.2 880.3C345.4 881.8 346.3 882.6 348.2 882.8C349.6 883 351.1 883.9 351.5 884.8C352.6 887.4 353.2 901.8 352.5 908.8L351.8 915H345.9C342.3 915 340 914.6 340 913.9Z" fill="#855855"/>
<path d="M445.8 889.3C444.9 888.3 443.9 886.1 443.6 884.4C442.9 881.5 443.2 881.1 446.1 880.1L449.4 879L446.7 876.2C445.2 874.6 444.3 873 444.7 872.5C445.2 872.1 444.8 871.9 444 872.2C443.2 872.5 442.5 873.3 442.4 874.1C442.2 877.2 441.9 877.4 440.5 875C438.5 871.6 438.5 865 440.5 865C441.3 865 442 865.7 442 866.6C442 867.9 442.7 868.1 445 867.7C447.2 867.2 448 867.4 448 868.4C448 869.2 447.5 870 446.9 870.2C446.2 870.4 446 871.5 446.4 872.8C447.2 875.2 449 875.8 449 873.7C449 871.7 454.2 869.1 454.7 870.8C455.3 872.5 457.6 872.3 460.6 870.3C462.5 869.1 462.8 868.5 461.8 867.8C460.8 867 460.8 866.7 461.8 866.3C463.5 865.6 463.3 864 461.6 864C459.9 864 459.5 863.5 458.6 859.8C458 857.3 458.2 857 460.6 857C462 857 464.4 857.9 465.9 858.9C467.4 860 469.9 861.1 471.6 861.5C473.2 861.8 476.3 862.5 478.5 863C480.7 863.5 483.8 864.2 485.3 864.5C488 865 488.1 865.3 487.8 869.8L487.5 874.5L482.8 874.4H478L477.4 879C476.9 882.7 476.2 884 474 885.3C470.2 887.6 461 887.6 461 885.4C461 884.6 460.6 884.2 460 884.5C459.5 884.8 459 886 459 887.1C459 888.1 458.3 889 457.5 889C456.7 889 456 889.5 456 890C456 891.8 447.4 891.2 445.8 889.3Z" fill="#855855"/>
<path d="M384 879.9C384 879.3 382.7 877.5 381 876C377.7 872.9 376.9 867.9 379.4 865.5C381.3 863.6 402.1 862.9 402.7 864.8C403 865.4 403.8 866 404.6 866C405.7 866 406 867.6 406 872.5C406 877.8 405.7 879.1 404.1 880C401.4 881.4 384 881.3 384 879.9Z" fill="#855855"/>
<path d="M403.299 443C396.699 439 393.199 425.5 395.899 414.2C397.699 406.8 400.599 404.6 408.799 404.2C420.499 403.6 424.899 408.3 425.799 422.5C426.399 432.6 424.299 439.9 419.999 443C416.199 445.7 407.699 445.7 403.299 443Z" fill="#855855"/>
<path d="M509 439.6C504.6 437.2 501.8 430.8 501.3 421.7C500.6 411.5 502.1 405.7 506.3 401.9C509.1 399.3 510.1 399 516.4 399C523.1 399 523.4 399.1 527 402.9C531.8 407.9 533.5 414 532.6 422.7C531.8 430.7 530.1 434.9 526.4 438.4C523.9 440.6 522.7 441 517.5 441C514.2 440.9 510.4 440.3 509 439.6Z" fill="#855855"/>
<path d="M432.6 939.4C424.3 937.9 416 934.1 410 929C406.8 926.2 406.7 925.9 408.4 924.7C410.8 923 409.6 918 406.9 918C405.8 918 404.6 917.2 404.3 916.3C403.9 915.4 402.9 913.9 401.9 912.9C400.2 911.2 400.1 911.2 399.6 912.8C399.3 913.7 399 914.8 399 915.3C399 917.4 394.7 919.9 389.9 920.4C384.3 921.1 381.3 923.4 383.2 925.7C383.8 926.4 384.9 927 385.6 927C386.4 927 387 927.6 387 928.4C387 931.4 338.9 931.8 328.6 928.9C326.4 928.3 323.4 926.5 321.8 925C319.2 922.4 319 921.5 319 914.9C319 905.1 320.6 900 323.6 900C325.5 900 325.9 900.5 325.7 902.3C325.5 904.6 325.5 904.5 331.7 903.6C332.4 903.5 333.3 903.1 333.6 902.7C334 902.3 334.7 902 335.1 902C336.5 902 343 909.2 343 910.8C343 912 343.3 912 344.5 911C345.5 910.1 346 910.1 346 910.9C346 911.5 346.6 912 347.3 912C348.1 912 348.6 911.1 348.5 909.8C348.4 908.5 348.7 906.9 349.3 906.2C350 905.3 350 904.2 349.2 902.7C347 898.2 346.8 896 348.5 896C349.8 896 350 895.4 349.5 892.8C348.3 886.7 347.9 886.1 345.2 885.8C343.3 885.6 342.4 884.9 342.2 883.2C341.9 881.3 341.6 881.1 340.4 882.1C339.2 883 339 882.7 339 880.1C339 877.5 339.9 876.3 345.1 872.5C356.2 864.3 370.3 859.4 372.5 863C372.8 863.5 376 864 379.6 864C384.6 864 386 864.3 386 865.5C386 866.3 385.5 867 384.9 867C384.3 867 383.2 867.7 382.3 868.5C381 869.9 381.2 870.3 383.9 872.9C385.6 874.5 387 876.3 387 876.9C387 878.2 391.5 878.3 394.5 877.1C395.6 876.6 397 876.7 397.7 877.2C399.8 878.8 402.3 876.5 402.7 872.6C403 869.9 402.7 869 401.5 869C400.7 869 400 868.6 400 868C400 867.5 399.3 867 398.5 867C397.7 867 397 866.4 397 865.6C397 864.2 399.9 863 403.8 863C405 863 406 862.6 406 862C406 861.5 407.6 861 409.5 861C411.4 861 413 861.5 413 862.1C413 862.8 414.3 863 416.8 862.6C435.9 859.8 443 859.6 444.6 862.2C445.1 862.9 444.1 863.1 441.6 862.8C439.6 862.6 438 862.8 438 863.2C438 863.6 438.6 864 439.4 864C440.2 864 441.1 864.4 441.4 864.9C442.5 866.6 442.9 875.9 442 876.5C441.4 876.8 441 876.6 441 876.1C441 875.5 440.1 875 438.9 875C437.6 875 437 875.5 437.3 876.3C437.6 876.9 438.1 878.3 438.5 879.2C438.9 880.3 438.8 881 438 881C437.4 881 437.1 881.8 437.5 882.9C438.1 884.9 435.7 887.6 434.1 886.6C432.8 885.7 424 895.8 424.6 897.5C425.4 899.5 428.9 897.2 429.6 894.3C430 893 430.7 892.3 431.5 892.6C432.2 892.9 433.1 892.3 433.4 891.2C434.1 889.2 438.4 886.7 439.4 887.7C439.7 888.1 440 889.3 440.1 890.4C440.1 892.4 440.2 892.4 441.2 890.3C441.8 889 442.7 888 443.3 888C443.8 888 443.9 886.5 443.6 884.5C443.2 882.3 443.3 881 444 881C444.5 881 445 881.9 445 883.1C445 884.3 445.4 884.8 446.1 884.5C446.7 884.1 447.8 884.7 448.6 885.9C450.2 888.1 453 888.8 453 887C453 886.5 453.7 886 454.5 886C455.3 886 456 885.2 456 884.2C456 883.2 456.7 881.5 457.5 880.4C458.7 878.8 459.1 878.7 459.9 880C460.5 880.8 461.2 881.1 461.6 880.7C462.5 879.8 465.1 882 464.4 883.1C463.5 884.6 468.1 884.1 471.1 882.3C473.2 881 474 879.8 474.1 877.5C474.3 872.8 474.4 872.5 476.3 870.5C478.1 868.8 478.3 868.8 481.1 870.4C483.8 872 484.1 872 484.7 870.5C485.4 868.4 483.4 867 479.6 867C478 867 476.9 866.7 477.2 866.4C477.6 866.1 490 866.4 504.9 867.1C526.4 868 533.2 868 537.3 867.1C540.2 866.4 548.4 865.8 555.5 865.7L568.5 865.5L569.3 875C569.8 880.2 570.2 890.9 570.2 898.8C570.1 911.1 569.8 913.7 568.1 917.3C564.6 924.6 554.2 929.4 532.5 933.8C501.6 940.1 452 942.9 432.6 939.4ZM418.4 909.8C420.2 905.5 421.7 898.7 421.2 897.2C421 896.5 419.4 896 417.6 896C415.1 896 414 895.4 413 893.5C411.5 890.7 410 890.2 410 892.5C410 893.3 409.6 894 409 894C408.5 894 408 893.6 408 893C408 892.5 407.6 892 407.1 892C406 892 405 894.7 404.4 899.5C404.1 902.4 404.3 902.9 406.2 903.2C407.5 903.4 408.4 904.1 408.2 904.8C408.1 905.5 408.7 906.3 409.5 906.6C410.3 907 411 908.2 411 909.4C411 912.3 411.8 913 414.7 913C416.4 913 417.4 912.1 418.4 909.8Z" fill="#8B5F5C"/>
<path d="M453.1 514.1C451.2 512.9 452.1 505 454.5 501.9C457.3 498.1 464.3 493.3 468.6 492.1C479.7 489 494.5 491.7 503.3 498.4C507.7 501.7 508.9 505.3 507.6 510.6C506.8 513.6 503 513.8 496.9 511.1C494.5 510 489.5 508.4 485.7 507.4C479.3 505.8 478.7 505.8 474.2 507.5C471.6 508.5 467.5 510.6 465.1 512.2C460.6 515 455.8 515.8 453.1 514.1Z" fill="#B46638"/>
<path d="M565.8 872.8L565.5 868.5H559.7C556.4 868.5 553.6 868.8 553.4 869.2C553.1 869.6 552.3 869.7 551.5 869.3C549.1 868.4 549.7 863.1 552.3 861C554.1 859.5 554.6 858.4 554.2 856.1C554 854.4 554.4 851.5 555.3 849.7C557.4 845.2 558.3 839.3 557 838.5C556.5 838.2 556 835.7 556 832.9C556 829.1 555.6 828 554.4 828C553.2 828 552.9 827.1 553.1 823.8C553.4 820.3 553.1 819.5 551.1 818.6C548.9 817.6 548.8 817.2 549.5 811.5C549.9 808.2 550.1 803.6 550 801.3C549.8 794.5 551.6 793.4 563.8 792.5L574 791.8V795.8C574 798.9 574.4 800 575.9 800.5C576.9 800.8 578.1 802.1 578.4 803.3C579.3 806.7 579.1 812 578.1 812C577.5 812 577.4 814.4 577.7 817.5C578.2 822.6 578.1 823 576.1 823C574.4 823 574 823.6 574 826.5C574 828.8 574.5 830 575.4 830C576.1 830 577.5 831.6 578.4 833.5C579.3 835.4 580.5 837 581 837C582.7 837 582.2 845 580.5 845.6C579.7 846 579 847.1 579 848.1C579 849.5 578.3 850 576.5 850C574.2 850 574 850.4 574 854.5C574 857 574.5 859 575 859C576.1 859 576.3 864.6 575.4 870.3C575 872.5 574.2 874 573.4 874C572.6 874 572 874.7 572 875.5C572 876.5 571 877 569.1 877C566.3 877 566.1 876.7 565.8 872.8Z" fill="#7A6080"/>
<path d="M431 860.9C431 858.4 432.1 856.6 435.9 852.9C441.8 847.1 444.5 846.6 445.8 851.3C446.4 853 447.1 855.3 447.5 856.3C448 857.5 447.7 858 446.7 858C445.9 858 444.7 858.7 444 859.5C443 860.7 443 861 444.4 861C445.3 861 446 861.6 446 862.4C446 863.4 445.1 863.6 442.2 863C440.1 862.7 437.5 862.7 436.4 863.1C432.3 864.7 431 864.2 431 860.9Z" fill="#7A6080"/>
<path d="M439 837.501C439 836.101 438.4 835.001 437.6 835.001C436.3 835.001 435 830.201 435 824.801C435 823.201 434.4 822.001 433.7 822.001C430.1 822.001 427.2 812.901 430.4 811.701C431.1 811.401 435.5 810.801 440 810.401C446.5 809.901 448.4 810.001 449.1 811.101C450.3 813.001 450.2 818.801 449 819.201C448.3 819.401 448.3 821.201 449 824.901C449.5 827.901 450 832.001 450 834.101C450 838.001 448.7 839.301 447.6 836.501C447.3 835.701 446.1 835.001 445 835.001C443.3 835.001 443.1 835.401 443.6 837.501C444.1 839.701 443.9 840.001 441.6 840.001C439.5 840.001 439 839.501 439 837.501Z" fill="#7A6080"/>
<path d="M422 715C422 713.9 421.5 713 420.8 713C419.4 713 420.5 694.1 422 692.6C423.3 691.3 423.3 687 422 687C421.5 687 421 685.4 421 683.5C421 681.1 421.5 680 422.5 680C423.5 680 424 678.9 424 676.5C424 673.6 424.5 672.8 426.5 672C427.9 671.5 429 670.3 429 669.3C429 668.3 430.1 665.7 431.5 663.5C432.8 661.3 434 658.7 434 657.7C434 656.7 435.2 655.5 436.7 654.9C438.3 654.3 440.2 653.2 441.1 652.4C442.1 651.5 445.3 650.6 448.4 650.3L454 649.7V653.7C454 656.7 453 659.3 450 663.9C447.8 667.3 446 670.6 446 671.3C446 672 445.1 673.6 444 675C442.9 676.4 442 678 442 678.7C442 679.3 441.6 680 441.2 680.2C439.6 680.8 437.1 699.8 438.1 703.3C439.5 708.2 439.2 713.7 437.4 715.4C436.3 716.6 433.9 717 428.9 717C422.7 717 422 716.8 422 715Z" fill="#7A6080"/>
<path d="M547.2 704.7C547.5 699.4 548.3 694.4 548.9 693.6C549.6 692.7 550.1 688.8 550.1 683.6C550.1 676.9 550.4 675 551.5 675C552.2 675 553.2 674.1 553.5 673C553.9 671.6 555 671 556.8 671C561.9 671 564 672.1 564 674.6C564 675.9 564.5 677 565 677C565.7 677 566 682.9 565.9 693.1L565.8 709.2L561.2 711.2C558.6 712.3 554.3 713.5 551.6 713.8L546.7 714.3L547.2 704.7Z" fill="#7A6080"/>
<path d="M601.4 414.5C598 412.2 596.4 407.7 590.7 384.9L585.3 363.5L574.9 353C567 344.9 563.5 340.5 560.3 334.5C555.1 324.5 552.2 314.1 551.3 302.7C551 297.9 550.4 294.1 550.1 294.2C549.8 294.4 543.4 297.5 536 301.2C516 311.2 496.2 315.8 477.4 314.8C465.7 314.2 463 312.7 463 306.9V302.9L454.3 307.6C449.4 310.2 444.4 313.1 443 314C436.3 318.6 401.9 337.9 398 339.4C395.1 340.5 391.3 341 387.6 340.8C379.5 340.4 377.7 338 377 326.7L376.5 318.5L372.6 326.1L368.8 333.8L368.9 359.9V386L366.4 386.6C365 387 362.5 387 360.8 386.6C351.5 384.8 345.3 374.6 334 342.5C332.2 337.6 330.4 333.1 330 332.6C329.5 332.2 328.1 332.5 326.9 333.4C320.9 337.6 314.6 333.8 311.5 324.2C309.4 317.8 309.9 302 312.4 292.5C314.5 284.6 322.6 268.1 328.4 260L333 253.5L329.8 253C325 252.2 322 247.3 322 239.9C322 230.9 323.7 229.5 338.7 226.5C345.3 225.2 352.4 223.4 354.3 222.6C356.2 221.8 366.7 216 377.7 209.7C420.8 184.7 451.3 174 492 169.4C508.4 167.5 528.9 168 542.7 170.4C551.6 172 576 180 578 182C579 183 583 185 583.9 185C584.5 185 588.5 187.8 593 191.2C597.4 194.5 601.3 197 601.7 196.6C603.3 195 597.7 187.2 591.6 182.5C589.8 181.1 589 179.6 589 177.3V174H594.4C604 174 610.4 177.8 617.9 187.9C624.2 196.4 627 205.2 627 216.5V224.9L631.8 225.5C644.2 227.1 655.3 231.3 661 236.7C662.9 238.5 665.1 240 665.8 240C666.4 240 667 240.6 667 241.3C667 241.9 668.5 244.1 670.3 246.1C675.4 251.7 678.8 259.6 679.7 268C680.3 274 679.2 275.9 673.8 277.6L671.2 278.5L673.5 285.5C676.9 296.1 677.9 302.8 679.2 323.3C680.4 344 680 347 675.6 347H673.2L673.8 361.9C674.4 380.4 674.1 382 669.6 382C667.7 382 665.7 381.3 664.9 380.3C662.7 377.8 653.9 374 649.9 374C643.2 374 636 376.9 630.9 381.7C625.8 386.5 624.4 389.3 620.9 402.8C617.9 414.2 616.4 416 609.1 416C605.8 416 602.6 415.4 601.4 414.5Z" fill="#976373"/>
<path d="M377 386.999C375.1 385.099 374.4 380.699 375.5 377.799C375.8 376.999 380.8 373.899 386.5 370.999C393 367.599 399.8 363.199 404.2 359.199C411.4 352.899 411.4 352.899 417 353.199L422.5 353.499L422.8 360.399C423 364.199 422.6 368.599 421.9 370.199C418.4 378.699 398.2 388.999 385 388.999C380.3 388.999 378.6 388.599 377 386.999Z" fill="#9F6B61"/>
<path d="M508.7 377.4C493.7 374.7 486 368.5 486 359.2C486 354.4 487.6 352.9 493.3 352.3C496.8 351.9 498.7 352.4 503.1 354.8C510.2 358.7 519.2 361.5 531.5 363.5C542.6 365.3 544 366.2 544 372.1C544 378.1 541.8 379 528 378.9C521.7 378.9 513 378.2 508.7 377.4Z" fill="#9F6B61"/>
<path d="M581.3 666.3C573.4 658.7 568 651.1 568 647.6C568 644 569.3 643 573.6 643C575.2 643 576 642.4 576 641.3C576 640.3 577.1 638.5 578.5 637.2C579.8 635.9 581.5 633.6 582.2 632C582.9 630.3 583.8 629 584.2 629C584.5 629 585.8 626.4 587 623.3C589.1 617.3 590.6 613.8 592.1 610.8C592.6 609.8 593 608.1 593 607C593 605.9 593.5 605 594 605C594.6 605 595 604.4 595 603.7C595 602.1 599.1 598 600.7 598C601.3 598 602.5 596.9 603.4 595.5C604.7 593.6 605.9 593 608.7 593H612.3L611.6 598.7C610.7 605.6 610.7 606.2 611.6 612.3C612 615.5 611.9 617 611.1 617C610.5 617 610 617.9 610 618.9C610 620 609.1 621.2 608 621.5C606.9 621.8 606 622.8 606 623.7C606 624.5 605.1 625.9 603.9 626.9C602.5 628 601.6 630.2 601.3 633.5C601 636.3 600.4 638.7 600.1 639C598.8 640.1 596.7 646.8 596 652C595.6 655 594.5 660.3 593.5 663.8C591.7 669.7 591.5 670 588.5 670C586.1 670 584.2 669 581.3 666.3Z" fill="#DC7A2F"/>
<path d="M578.5 916.3C577.4 916.1 574.1 915.4 571.3 914.9L566.1 913.9L566.5 906.2C566.8 902 567.2 897.3 567.4 895.7C567.6 894.2 567.3 892.7 566.9 892.4C566.4 892.1 566.2 890.2 566.5 888.2C566.7 886.2 566.6 882.9 566.2 881C565.2 876.6 565.7 874 567.6 874C568.4 874 569 873.3 569 872.5C569 871.7 569.7 871 570.5 871C571.4 871 572 870.4 571.9 869.8C571.8 869.1 572 867.2 572.5 865.7C573.1 863.6 572.8 862.6 571.5 861.6C570.5 860.9 570 859.8 570.4 859.2C570.7 858.7 570.4 857.9 569.8 857.7C568.8 857.3 568.9 856.9 570 856C571.1 855.1 571.2 854.7 570.3 854.3C569.6 854.1 569 852.7 569 851.4C569 850 569.4 849.2 570 849.5C570.6 849.8 571 849.4 571 848.6C571 847.6 571.9 847 573.5 847C575.5 847 575.9 846.5 575.7 844.8C575.6 843.4 576.1 842.5 576.9 842.5C578.6 842.5 579.7 840 578.1 840C577.4 840 576.5 838.9 576 837.5C575.3 835.7 574.6 835.2 573.3 835.7C571.7 836.3 571.6 836.2 573 834.5C574.4 832.9 574.3 832.8 572.3 833.4C570.2 834.1 570.1 833.9 570.2 827.1C570.2 820.3 570.3 820 572.6 820C573.9 820 575 819.6 575 819C575 818.5 574.3 818 573.5 818C572.7 818 572 817.6 572 817C572 816.5 572.5 816 573 816C573.6 816 573.4 815 572.6 813.8C570.7 810.9 570.8 805 572.7 805C573.4 805 574 805.9 574 807C574 808.1 574.5 809 575.1 809C575.7 809 575.9 808.1 575.4 806.8C574.7 804.4 573.2 803 571.4 803C570.7 803 570.3 801.5 570.4 799C570.6 795.7 570.3 795 568.7 795C566.6 795 566.8 793 569.1 791.9C569.9 791.5 573.7 790.6 577.5 790C594.4 787.1 620.5 776.3 631.1 767.9C633.4 766.1 636 765 637.8 765C640.7 765 641.4 765.9 649.3 779.3C654 787.1 660.7 798.7 664.4 805.1C672.1 818.5 673.7 820.3 681.6 823.5L687.5 825.9V839.7C687.5 853.2 687.4 853.6 684.2 860.5C678.4 872.6 665.6 887.6 653 897C640.9 905.9 623 913.7 609 915.9C602.7 917 582.6 917.2 578.5 916.3Z" fill="#8E759A"/>
<path d="M506.6 871.5C506.1 870.1 505.7 870 504.5 871C503.5 871.9 503 871.9 503 871.1C503 870.5 502.3 870 501.5 870C500.7 870 500 870.4 500 870.9C500 872 496.1 871.8 494.3 870.7C493.7 870.3 493 870.6 492.7 871.2C492.4 872.2 491.8 872.1 490.4 870.9C488.1 869 483 867.5 468.7 864.5C464.2 863.6 458.4 859.2 456.4 855.2C455.3 853.2 454.2 851.4 453.8 851.2C449.9 849.4 442.4 816 445.8 816C446.4 816 446.7 815.3 446.4 814.5C446 813.7 444.9 813 443.9 813C442.7 813 442 812.3 442 811C442 809.9 442.5 809 443.1 809C445.2 809 457.5 803.7 463.4 800.2C466.7 798.2 471.3 794.9 473.7 792.7C478.6 788.2 477.7 788.2 497.4 791.9C506.4 793.6 512.6 794 532.9 794.1C546.4 794.2 558.6 794.6 560 795C562.2 795.7 562.2 795.8 560.5 796.1C559.4 796.2 558.1 796.4 557.5 796.5C557 796.7 556.1 796.9 555.5 797C555 797.1 555.6 797.6 557 798C559.4 798.8 559.3 798.8 556.2 798.9C553.2 799 553 799.2 553.6 801.7C554.5 805 554.5 806 553.5 808.3C553.1 809.3 553.2 810 553.9 810C554.5 810 555 810.9 555 812C555 813.3 554.5 813.8 553.5 813.4C550.9 812.4 551.9 814.6 554.6 815.9C556.9 816.9 557.2 817.5 556.8 821C556.6 823.7 556.8 825 557.7 825C559.1 825 560.5 831.2 559.7 833.5C559.3 834.3 559.5 835.2 560.1 835.6C561.7 836.5 560.9 847.1 558.9 851.2C558 853.3 557.6 855.2 558.1 855.6C560.1 856.8 559 861.5 556.2 863.4C554.6 864.4 553.4 866.1 553.4 867.3C553.5 869 552.9 869.3 548 869.2C545 869.2 541.5 869.6 540.1 870.1C537.2 871.2 512.7 871.6 511 870.5C510.4 870.1 509.3 870.6 508.6 871.5C507.4 873.2 507.3 873.2 506.6 871.5Z" fill="#8E759A"/>
<path d="M369.5 866C369.1 865.3 367.7 865.1 366.5 865.4C362.1 866.5 358.9 859.7 354 838C348 811.6 342 780 342 774.5C342 771.1 342.1 771 345.9 771C348 771 352.9 772 356.6 773.2C361.1 774.6 365.8 775.3 369.9 775.2C376.2 775.1 376.5 775.2 381.9 779.9C390.2 787 405.4 797.9 415.1 803.9C421.6 807.9 425.3 809.4 430.4 810.3C437.2 811.4 439 813.3 434.5 814.4C432 815 432 815.1 433.8 817C434.9 818.2 436.4 818.8 437.3 818.4C439.3 817.7 440.8 822.6 439.1 824.3C437.7 825.7 437.7 827.3 439.2 826.4C440 825.9 440.1 826.6 439.7 829C439.1 831.6 439.3 832.1 440.5 831.6C441.6 831.2 442 831.8 442 834C442 835.7 442.5 837 443 837C443.6 837 444 837.7 444 838.5C444 839.3 444.8 840 445.8 840C447.1 840 447.2 840.2 446.1 840.9C445.1 841.5 444.9 843.2 445.2 846.9C445.5 849.7 445.3 851.7 444.9 851.4C444.4 851.1 441.7 853.1 438.9 855.9L433.9 860.9L437.2 861.2L440.5 861.6L436 862.9C433.5 863.7 431.1 864.7 430.6 865.1C430.1 865.6 428.9 865.5 427.8 864.9C426.6 864.2 425.3 864.3 423.9 865.1C420.5 866.9 410.1 866.8 409.6 865C409.3 863.7 409.2 863.7 409.1 865.1C409 866.4 406.3 866.7 389.6 866.9C375.9 867 370 866.8 369.5 866Z" fill="#8E759A"/>
<path d="M694 784.1C694 780.6 686.1 736.9 682.5 721.1C681.1 714.8 680 707.9 680 705.7V701.8L685.4 702.2L690.9 702.7L691.5 699.1C694.3 681.4 694.9 641.1 692.5 622.5C687.9 587 678.3 566.2 657.3 545.9C640.1 529.3 621.5 519.6 597.5 514.7L590.5 513.3L590.3 507.4L590 501.5L595.1 497.5C604.2 490.2 612.7 477.6 616.5 466C617.5 463 618.5 460.2 618.9 459.8C619.3 459.4 624.6 458.6 630.9 458.1C644.6 456.9 650.5 454.4 658.5 446.9C669.6 436.4 677.1 419.8 677.2 405.3C677.3 399.1 676.8 397.1 674.1 391.5C672.3 387.9 670 384.5 668.9 384C667.7 383.3 667 381.9 667 379.8C667 377.3 667.2 377 668.4 377.9C669.5 378.9 669.9 378.7 670.4 377.3C671 375.1 670.5 356.7 669.5 348.2L668.7 341.9L671.6 343C676.1 344.8 677.3 342.3 676.5 333C676.1 328.9 675.7 321.7 675.4 317C674.8 303.1 671.1 286.9 666.5 278L665.1 275.3L669.1 274.7C674.4 274 677.1 271.5 676.4 268.1C674.8 260.7 671.3 253.5 667.3 249.1C665.5 247.1 664 244.9 664 244.3C664 243.6 663.6 243.1 663.1 243.3C662.6 243.4 660.5 241.9 658.4 240C651.9 234.1 640.7 229.8 628.2 228.5C622.8 227.9 622 227.5 622.6 226.1C623 225.2 623.5 221.7 623.8 218.3C625.1 200.1 608.6 177 594.3 177H591.7L594.4 179.5C595.9 180.9 597.5 182 597.9 182C599.2 182 605.3 191.9 605.3 193.8C605.3 194.8 606 196 606.8 196.6C608.3 197.7 608.7 202.3 607.5 206C606.9 207.9 606.9 207.9 604.8 206C603.5 204.8 602.9 203.4 603.3 202.1C603.6 200.9 603.4 200 603 200C602.5 200 602 200.7 601.8 201.5C601.6 202.5 598.6 200.7 591.7 195.5C586.3 191.4 581.6 188 581.2 188C579.7 188 575 185.5 575 184.8C575 184.3 574.1 184 573 184C571 184 571 183.3 571 142.4C571 96.1004 571 96.4004 577.8 91.2004L581.3 88.5004L757.2 88.2004C906.1 88.0004 933.5 88.2004 936.4 89.4004C938.7 90.4004 940.4 92.1004 941.9 95.2004L944 99.7004L943.8 438.8L943.5 777.9L940.6 780.9C934.4 787.4 943.1 787 812.6 787H694V784.1ZM889.7 440.5C904 434.5 912.2 416.4 907.4 401.4C903.6 389.3 890.6 380.4 880.7 383.1C870.3 385.9 861.9 395.4 859 407.8C854.3 427.8 872.8 447.5 889.7 440.5Z" fill="#8E759A"/>
<path d="M481 721.5C472.9 717.2 472 717 461.5 716.3C455.5 715.9 446.3 715.7 441.3 715.8C436.2 715.9 432 715.7 432 715.2C432 714.8 432.9 713.6 434.1 712.6C435.5 711.4 436 710.2 435.6 708.7C435.3 707.5 435 705.9 435 705.3C435 704.6 434.2 704 433.3 704C432 704 431.9 703.7 432.7 703.2C433.4 702.7 434 699.9 434.1 696.5C434.3 693.2 434.6 690.1 434.9 689.6C435.1 689 435.5 687.7 435.6 686.6C435.7 685.4 436.1 683.6 436.5 682.4C436.9 681.1 436.6 679.7 435.6 678.7C433.4 676.6 433.6 676.2 436.5 676.8C438.2 677.1 439 676.8 439 675.9C439 675.1 439.9 673.4 441 672C442.1 670.6 443 669 443 668.3C443 667.6 444.8 664.3 447 660.9C449.2 657.5 451 654.3 451 653.8C451 652.7 445.9 653.9 444 655.6C443.2 656.3 441.3 657.3 439.7 657.9C438.2 658.5 437 659.7 437 660.7C437 661.7 435.8 664.3 434.5 666.5C433.1 668.7 432 671.3 432 672.3C432 673.3 430.9 674.5 429.5 675C428.1 675.5 427 676.4 427 676.9C427 677.5 427.6 677.7 428.4 677.4C429.6 677 429.7 677.4 429.1 679.6C428.6 681.4 427.5 682.7 425.9 683.1C424.3 683.6 424.1 683.8 425.3 683.9C426.8 684 427 684.6 426.4 689.3C426 692.1 425.4 695 425 695.5C423.7 697.2 422.8 710 423.9 710C424.5 710 425 710.9 425 712C425 713.5 425.7 714 427.5 714C429.4 714 430 714.5 430 716.1C430 718.2 429.7 718.2 416.3 717.8C400.3 717.2 394.2 715.6 378.4 707.8C366.7 702 347.1 688.3 338.7 680.2C331.5 673.1 331.4 671.1 337.4 657.7C354.2 620.5 391.2 602.8 430.6 613.1C439.1 615.3 447.3 619.4 455.8 625.8L461.1 629.8L469.6 625.5C485.3 617.5 489.8 616.5 511.5 616.5C532.3 616.5 534.5 616.9 548.3 623.6C557 627.8 563.6 632.7 569.9 639.6C574.4 644.5 576.6 648.1 574.2 646.6C573.8 646.4 572.8 646.5 572.1 646.9C570.7 647.8 577.2 656.4 584.4 663.3C588.2 667 588.4 667.1 589.2 665C589.6 663.8 590.4 663.2 591 663.5C592.5 664.4 592.2 671.2 590.4 678.3C589.5 681.7 588.4 686.4 587.8 688.8C585.9 696.3 570.6 709 563.3 709C560.1 709 558.7 707.6 561.2 706.8C563 706.2 563.2 680 561.3 680C560.4 680 560.1 679.3 560.6 677.6C561.3 674.6 557.4 673.1 556.5 676.1C556.1 677.1 555.3 678 554.7 678C553.9 678 553.5 680.6 553.6 686.7C553.7 693.7 553.4 695.7 552.1 696.7C550.7 697.8 550.8 697.9 553 698L555.5 698.1L553.3 699.2C549.6 701 549 706 552.5 706C553.4 706 553.7 706.6 553.4 707.5C552.9 708.7 552.4 708.8 551.4 707.9C550.4 707.1 550.1 707.3 550.3 708.9C550.4 710.1 550.9 710.9 551.5 710.7C555.8 709.1 557 708.9 556.5 710.2C555 713.6 548.4 716.3 532.5 719.9C515.8 723.6 506.5 725.2 498 725.5C489.6 725.9 489.4 725.9 481 721.5Z" fill="#8E759A"/>
<path d="M684.8 830.9C684.6 829.5 682.8 828.2 678.6 826.5C670.7 823.3 669.1 821.5 661.4 808.1C642.5 775.1 637.9 767.9 636.4 769.1C635.3 770 635 769.8 635 767.7C635 765.9 637 763.1 642 758.2C653.7 746.4 663.7 729.3 667.5 714.5C668.3 711.3 669 707.9 669 707C669 705.4 663.5 703.3 643 697.5C636.7 695.6 626.8 692.8 621 691.1C611.6 688.3 609.1 688 597.3 688H584.1L584.9 685.3C585.4 683.7 586.5 678.9 587.4 674.5C588.4 670.1 589.9 663.6 590.8 660C591.7 656.4 592.3 652.3 592.2 650.8C592 649.3 592.8 646 593.9 643.4C595.1 640.8 596 638.1 596 637.4C596 636.6 596.5 636 597.1 636C597.7 636 598 635.4 597.7 634.6C596.8 632.4 598.9 625.7 601 623.9C602 623 602.8 621.5 602.7 620.5C602.6 619.5 603.3 618.6 604.3 618.4C606.8 618.1 607.8 617 605.7 617C603 617 603.7 615.3 606.8 614.4C608.8 613.9 609.1 613.6 607.8 613.3C605.8 612.8 605.3 611 607.1 611C607.9 611 607.9 610.6 607.3 609.8C606.6 608.9 606.7 606.5 607.5 602.5C608.2 599.2 608.6 596.3 608.5 596.2C608.3 596 607.4 597 606.5 598.4C605.5 599.8 604.2 601 603.6 601C602 601 598 605.2 598 606.8C598 607.5 597.6 608 597 608C596.5 608 596 608.9 596 610C596 611.1 595.6 612.8 595.1 613.8C593.6 616.8 592.1 620.3 590 626.3C588.8 629.4 587.5 632 587.2 632C586.8 632 585.9 633.3 585.2 635C584.5 636.6 582.8 638.9 581.5 640.2C580.1 641.5 579 643.3 579 644.3C579 646.2 579 646.2 574.2 646.6C571.4 646.8 570.2 646.1 566.3 641.9C560.3 635.4 553.7 630.7 545.3 626.6C531.9 620.1 529 619.5 511.5 619.5C492.7 619.5 487.6 620.7 470.7 629.4L460.5 634.7L455.5 630.8C429.3 610.4 399.7 607.8 373 623.6C360.2 631.2 349 643.1 342.7 655.7L339.6 661.9H329.3L319 662V658.2C319 648.7 346 613.1 373.3 586.7C385.4 574.9 405.2 557.1 419.8 544.8C430.5 535.7 431.2 535.6 444.7 539.6C449.6 541 456.5 542.4 460.3 542.7C464 543 467 543.7 467 544.1C467 544.6 472.9 545 480.1 545C494.8 545 495.9 545.5 496 551.8C496 553.5 496.4 555 496.8 555C497.2 555 498 556.5 498.5 558.2C499.7 562.1 507.3 568.2 513.1 569.9C518.2 571.4 531.7 571.4 537.2 569.9C539.6 569.2 542.2 567.9 543.2 566.9C544.1 565.8 545.8 565 547 565C550.8 565 563.9 555 570.6 547C578.1 538.2 585.3 524.4 587.8 514.3C589 508.9 589.9 507 591.1 507C592 507 593 507.8 593.2 508.8C593.6 510 595.5 510.8 600.4 511.8C623.5 516.1 643.1 526.3 660.3 542.9C681.6 563.4 690.9 584 695.6 620.5C698.4 642.2 696.5 702.9 693 706.4C692.4 707 690.5 706.9 687.9 706.1C685.7 705.4 683.6 705.1 683.3 705.3C683.1 705.6 684.2 712.1 685.9 719.7C689.8 737.8 697 777.5 697 781.2C697 783.3 697.5 784 699 784C700.1 784 701 784.1 701 784.3C701 784.4 701.7 789.9 702.5 796.5C704.5 812.1 704.4 821.9 702.4 827C700.3 832.1 698.6 833 691.1 833C685.9 833 685.1 832.8 684.8 830.9Z" fill="#ED8E3C"/>
<path d="M458.5 803.6C452 801.4 445 798 442.9 795.9C441.8 794.8 441 792.6 441 790.5C441 787.1 441.1 787 445.1 787C447.7 787 451.1 788 454.3 789.8C457.2 791.3 461.5 793.2 464 793.9C468.5 795.2 468.5 795.2 471.2 791.9C474.8 787.6 474.9 785 471.5 785C470.1 785 467.5 784.4 465.7 783.7C463.9 782.9 460.9 782 458.9 781.6C456.9 781.3 454.2 780.1 453 779C451.7 777.9 449.6 777 448.3 777C447.1 777 446 776.6 446 776C446 775.5 445.6 775 445.1 775C444.5 775 442.1 773.8 439.6 772.3C435.5 769.8 435.1 769.1 435 765.6V761.7L440.3 762.3C443.1 762.6 450.7 764.9 457 767.5C463.3 770 470.2 772.7 472.3 773.5C476 774.8 476 774.7 475.4 772.6C474 768 466.1 759.8 456.8 753.1C452.7 750.2 452 749.2 452 746.3C452 743.1 452.1 743 456.1 743C458.9 743 461.1 743.7 463 745.3C470.3 751 474.8 754 476.3 754C481.2 754 487.2 765.1 487.7 775C488.2 783.3 485.3 792.5 482.1 792.5C481 792.5 478.6 793.9 476.8 795.7C473.6 798.7 464.2 805.1 463.1 804.9C462.7 804.9 460.7 804.3 458.5 803.6Z" fill="#ED8E3C"/>
<path d="M464.4 739.2C463.8 738.8 463.1 737.9 462.8 737.1C462.6 736.3 460.8 735.1 458.9 734.5C456 733.5 455.5 732.8 455.2 729.7L454.9 726H460.9C467.8 726 478.9 723.8 475.2 723.2C473.9 723 472 722 470.9 720.9C469.9 719.9 468 719 466.8 719C462.6 719 460 717.8 460 715.9C460 711.1 474.4 712.9 485.7 719C489.8 721.2 494.5 723 496.1 723C498.6 723 499 723.4 499 725.8C499 728.2 498.4 728.7 493.7 730.3C490.7 731.2 486.7 732 484.7 732C482.7 732 480.8 732.5 480.5 733C480.2 733.6 478.8 734 477.4 734C475.5 734 475 734.5 475 736.4C475 738 474.3 739 472.8 739.4C469.7 740.2 465.7 740.1 464.4 739.2Z" fill="#ED8E3C"/>
<path d="M545 544.5C545 543.7 544.3 543 543.4 543C541 543 538.1 538.9 538 535.5C538 532.6 538.5 532.2 548.1 528C553.7 525.5 560.5 522 563.3 520.2C573 513.8 576.7 512 579.8 512C582.9 512 583 512.1 583 516.5C583 519 582.5 521 581.9 521C580.5 521 578 523.6 578 525.1C578 526.3 575.1 529.1 571.3 531.7C570 532.6 569 533.9 569 534.6C569 535.4 568.3 536 567.5 536C566.7 536 566 536.7 566 537.5C566 538.3 565.4 539 564.7 539C563.9 539 561.1 540.6 558.4 542.5C554.7 545.2 552.5 546 549.3 546C546.1 546 545 545.6 545 544.5Z" fill="#ED8E3C"/>
<path d="M447.2 483.199C441.4 481.299 438.9 479.299 434.4 472.899C431.8 469.099 431.5 467.899 431.5 460.999C431.5 456.099 432 452.299 433 450.499C435.2 446.399 442 442.199 447.7 441.399C454.6 440.499 457 441.899 457 446.799C457 450.499 454.2 454.999 451.9 454.999C450.3 454.999 446 460.099 446 462.099C446 465.299 456.7 469.999 463.8 469.999H469.7L470.4 473.799C471.7 481.599 471.3 482.599 467.1 483.799C461.9 485.399 453.6 485.099 447.2 483.199Z" fill="#ED8E3C"/>
<path d="M631.9 435.3C631.3 433.7 631 428.7 631.2 424C631.6 416.5 632.1 414.6 635.7 407.5C638 403.1 641.3 397.7 643.2 395.6C646.4 392 647.1 391.6 652.8 391.2C660.4 390.7 662.9 391.3 666.3 394.4C668.8 396.7 669 397.6 669 404.5V412H665C661.4 412 660.8 411.6 659.3 408.5C658.4 406.6 657 405 656.3 405C654.1 405 647.6 412.5 644.9 418.2C642.7 422.7 642.4 424.5 642.8 430.1C643.2 436.4 643.1 436.7 640.9 437.3C635.6 438.7 633 438.1 631.9 435.3Z" fill="#ED8E3C"/>
<path d="M428.1 811.8C427.6 810.5 425.3 807.9 423 806C420.7 804.1 417.3 801.2 415.4 799.6C412.6 797.3 412 796.1 412 792.9V789H417C420.9 789 422.6 789.6 425.2 791.8C432.3 797.7 432 797.7 432 793.4C432 790.1 431.5 789.2 428.9 787.8C427.2 786.8 425.3 786 424.6 786C422.6 786 414.3 777.5 413.6 774.7C413.3 773.2 412.5 772 412 772C411.4 772 411 770.3 411 768.1V764.3L417.1 763.6C427 762.6 427 762.6 427 766C427 767.7 427.4 769 427.9 769C428.5 769 429 770.5 429.2 772.3C429.5 775.4 429.6 775.5 435 776C440.1 776.5 440.5 776.7 440.8 779.3C441 781.2 441.7 782 443.1 782C444.1 782 445 782.6 445 783.4C445 784.2 445.4 785 445.9 785.2C446.4 785.4 447.2 786.7 447.5 788.2C448.1 790.6 447.9 790.8 446 790.3C444 789.8 443.9 789.9 444.9 791.8C445.5 792.9 446.5 794 447.2 794.3C448.2 794.7 448.3 795 447.3 796.1C446.6 796.8 446 798.8 446 800.5C446 803.3 446.5 803.9 450 805.3C452.2 806.1 454 807.5 454 808.2C454 810.2 441.4 814 434.7 814C429.7 814 428.8 813.7 428.1 811.8Z" fill="#F19F50"/>
<path d="M444.5 743.7C439.5 740 438.1 737.8 438 733.3C438 730.2 438.6 728.4 440.1 726.9C442.1 724.9 443 724.8 451.3 725.4C456.2 725.7 460.8 726.4 461.4 726.9C462 727.4 463.9 728 465.5 728.3C467.4 728.5 466.4 728.8 463.1 728.9C459.1 729 457.9 729.3 458.7 730.1C459.3 730.7 461 731.3 462.4 731.3C464.3 731.5 465.3 732.2 465.6 733.7C465.9 734.9 466.8 736.1 467.7 736.4C470.4 737.5 467.9 739 463.4 739C459.3 739 458.9 739.2 458.4 741.9C457.4 746.5 449.7 747.6 444.5 743.7Z" fill="#F19F50"/>
<path d="M499.5 559.6C499 559.4 497.3 558.9 495.8 558.6C493.5 558.1 493 557.4 493 554.7C492.9 551.3 491 548 489.1 548C488.5 548 488 547.4 488 546.6C488 545.6 490.4 544.9 496.1 544.1C504.6 542.8 526.3 537.2 532.5 534.6C534.6 533.7 538.3 533 540.9 533C545 533.1 545.3 533.2 543.3 534.3C541.2 535.5 541.2 535.5 543.1 537.8C544.4 539.5 545.5 540 547.1 539.5C549 538.9 549.2 539.1 548.7 541C548.2 542.8 548.5 543.1 550.1 542.7C551.5 542.3 552 542.7 552 544.3C552 547.2 548.1 549.5 533.5 554.8C522.7 558.8 520.5 559.3 511 559.6C505.2 559.8 500.1 559.8 499.5 559.6Z" fill="#F19F50"/>
<path d="M874.9 444.7C862.6 440.1 856.4 431.5 855.3 417.4C854.3 405.3 857.5 395.7 865.2 387.9C872.9 379.9 882.1 377.4 892.4 380.4C906.9 384.7 915.5 401.6 911.5 418.5C908.7 430.8 902.1 439.6 892.9 443.4C887.6 445.6 879 446.2 874.9 444.7Z" fill="#FDBF5A"/>
<path d="M423.9 812.6C416.7 810.7 394.5 796.1 379.3 783.3C374.4 779.1 373.8 778.9 366.8 778.5C362.8 778.3 356.6 777.2 353.2 776.1C345.6 773.6 345 773.6 345 775.6C345 777.7 341.5 776.9 328.7 771.6C310 763.8 302.3 757.4 295.6 743.7C291.1 734.4 289 724.9 289 713.3C289 710.9 288.6 709 288 709C286.4 709 286.8 702 288.4 701.4C289.2 701.1 290.1 699.5 290.4 697.8C290.7 696.1 293.1 690.5 295.6 685.4C299.2 678.1 302.2 674 309.1 666.6C314 661.4 318 656.7 318 656.1C318 655.5 319.2 655 320.6 655C322.7 655 323 655.4 322.5 657C321.9 658.9 322.2 659 331.4 658.5C336.7 658.2 341 658.2 341 658.5C341 658.8 339.8 661.8 338.4 665.2L335.9 671.3L341.1 676.6C348.3 683.9 368.9 698.4 380.2 704.3C399.7 714.2 414.3 716.8 432.6 713.5C443.6 711.5 455.7 711.9 463 714.5C465.3 715.3 468.3 716 469.6 716C470.9 716 472.9 716.9 473.9 717.9C475 719 476 719.4 476.2 718.9C476.4 718.3 479 719 482 720.3L487.5 722.8L481.5 725.6C475.7 728.4 475 728.5 459.6 728.6C445.3 728.6 443.6 728.8 442.4 730.5C441.6 731.5 441 732.9 441 733.4C441.1 735 444 738.2 447.7 740.8C451.1 743.2 452.5 743.6 451.4 741.9C451 741.1 451.4 741 452.9 741.5C454.4 742 455 741.7 455 740.6C455 739.7 454.6 739 454 739C453.5 739 453 738.5 453 737.9C453 737.3 453.7 737.1 454.6 737.4C455.8 737.9 456 737.5 455.5 735.9C454.9 734.1 455.1 733.9 457.2 734.6C458.4 735 461.1 735.4 463 735.6C464.9 735.7 467 735.9 467.5 736C470.5 736.7 471.7 735.9 471.5 733.5C471.2 731.4 471.6 731 474 731C475.6 731 477.2 730.6 477.5 730C477.8 729.5 480 729 482.4 729C484.7 729 487 728.7 487.4 728.3C487.8 727.8 488.5 727.5 488.8 727.4C493.4 726.6 495.8 725.6 495.4 724.5C495 723.6 496.2 723 499.2 722.6C530.1 718 555.6 710.7 568.5 702.9C575.7 698.6 582.8 691.7 584.2 688C585.2 685.1 585.4 685 591.8 684.9C610.5 684.6 612.5 684.8 623.5 688C643 693.7 644 693.9 644 692.7C644 692.1 644.6 692.3 645.3 693.2C645.9 694.1 648.5 695.4 651 696C653.5 696.6 659.7 698.5 664.8 700.2C673.4 703 675.7 704.8 673 706.5C672.5 706.8 672 708.1 672 709.3C672 717.3 665.4 733.5 657 746.3C640 772.2 615.1 786.4 572.7 794.6C566.9 795.8 556.2 796.4 535.8 796.7C507 797.2 497.3 796.5 483.8 792.9L480.2 792L482.1 786.8C483.1 784 483.7 781.3 483.4 780.9C483.1 780.4 483.4 780 484.1 780C485.9 780 484.7 772.4 482 766.5C479.6 761.3 475.5 756.6 474 757.5C473.3 757.9 467.5 754.1 459.7 748C458.2 746.8 456.5 746 455.9 746.2C455.4 746.4 457.8 748.7 461.4 751.3C473.3 760.1 480 769.2 480 776.6C480 780.6 479.8 780.6 473.4 778.1C442.2 765.7 438 764.3 438 765.7C438 766.7 446.2 771.5 447.3 771.2C447.7 771.1 448.3 771.7 448.6 772.5C448.9 773.3 449.6 773.7 450.1 773.4C451.1 772.8 454.7 774.6 456.8 776.6C457.5 777.3 458.7 777.7 459.5 777.4C460.3 777 461 777.3 461 778.1C461 778.8 461.3 779.1 461.6 778.7C461.9 778.4 464.4 779 467.1 780.1C469.9 781.1 473.1 782 474.3 782C475.5 782 477.1 782.4 477.9 782.9C480.1 784.3 477.5 791.1 473 796.3L469.4 800.3L463.4 798C455.7 795 444.9 789.8 443.3 788.3C442.6 787.7 442 786.6 442 786C442 785.4 441.6 785.1 441.1 785.5C439.9 786.2 436.8 783.1 437.5 781.9C437.9 781.4 437.8 780.5 437.4 779.9C436.9 779.1 436.5 779.2 436 780C435.5 780.8 434.5 781 433.4 780.5C432.3 780.1 430.8 779.6 430 779.4C429.2 779.2 427.6 778.6 426.4 777.9C424.6 777 424.3 776.3 425 774.5C425.6 772.8 425.5 772 424.6 771.7C423.7 771.4 423.4 770.2 423.7 768.6C424.3 765.4 422.5 765.2 420.9 768.1C420.1 769.8 419.6 770 419 769C418.3 767.8 414 766.7 414 767.7C414 767.9 414.9 769 416 770.2C417 771.4 417.7 772.7 417.4 773.1C416.8 774.2 425.9 783 427.7 783C428.7 783 435.9 786.9 437.8 788.5C438 788.7 437.4 790 436.4 791.5C435 793.7 434.8 794.7 435.7 797.1C436.6 799.4 436.5 800 435.5 800C434.8 800 434 800.5 433.8 801.1C433.3 802.6 428.2 800 423.5 795.9C420.3 793 415 791.3 415 793.1C415 793.5 416.8 795.4 419.1 797.2C421.4 799 424.8 802 426.8 803.8C428.8 805.5 430.8 807 431.2 807C431.6 807 431.7 807.6 431.4 808.3C431.1 809.1 431.6 810.3 432.5 811C436.2 814.1 432.3 814.9 423.9 812.6Z" fill="#FEBB75"/>
<path d="M444 807.2C439.4 805.3 438.1 804.4 439.7 804.2C442.3 803.8 443.2 801.7 442 798.6C441.3 796.8 441.5 795.8 442.9 794.6C444.6 793.1 445.2 793.2 451.1 796.1C454.6 797.9 459.9 800.1 462.9 800.9L468.2 802.5L460.6 806.3C456.5 808.3 452.5 810 451.8 809.9C451.1 809.9 447.6 808.6 444 807.2Z" fill="#FEBB75"/>
<path d="M516.5 574.1C513.2 573.7 508.7 572.5 506.5 571.4C501.4 569 493.6 561.4 494.4 559.4C494.7 558.6 494.5 558 494 558C493.4 558 493 556.7 493 555C493 553.4 493.4 552 493.9 552C494.4 552 494.7 552.8 494.6 553.7C494.5 555.7 496.8 556.1 509 556.4C516.7 556.5 518.6 556.1 530 552C542.7 547.5 544.1 546.8 555.4 539.3C558.9 537 562 535.4 562.4 535.7C562.7 536.1 563 535.6 563 534.7C563 533.8 563.7 533 564.5 533C565.3 533 566 532.4 566 531.6C566 530.9 567 529.6 568.3 528.7C573 525.6 575 523.2 574.4 521.6C574 520.5 574.3 520 575.5 520C576.4 520 576.8 519.6 576.5 519C576.2 518.5 576.8 518 577.9 518C579.1 518 580 517.3 580 516.5C580 514.6 578.7 515.2 568.7 521.7C550 533.9 515 545.8 492.5 547.7C481.6 548.7 462.7 548.3 463.4 547.1C463.7 546.7 460.9 546 457.2 545.7C453.5 545.4 446.5 543.9 441.5 542.5C434.3 540.4 432.2 540.1 430.4 541C427.2 542.8 407.7 532.5 399.3 524.6C395.8 521.3 393 518.1 393 517.3C393 516.6 392.4 516 391.6 516C389.7 516 386 511.3 386 508.9C386 507.8 385.6 507 385.1 507C383.4 507 374.8 489.7 372.8 482.1C369.5 469.5 367.3 459 366.1 450C364.7 439.2 362.3 407.8 362.1 398C362 393.9 361.7 388.8 361.4 386.7C360.9 383.8 361.1 382.9 362.2 383.1C362.9 383.2 364 383.2 364.5 383.1C365.1 383 365.5 373.5 365.6 357L365.7 331L369.4 323.8C371.7 319.2 374.8 315 377.7 312.5C381.9 308.8 382.3 308.7 381.6 311C381.2 312.4 380.6 317.3 380.3 322C379.9 329.8 380 330.8 382.2 334C385.1 338.2 388.4 338.9 394.9 336.4C399 334.9 433.5 315.4 440 311C442.5 309.2 465.4 297 466.1 297C466.3 297 466.3 299.4 466.2 302.4C465.9 307.3 466.1 308 468.3 309.4C474 313.2 490.8 312.4 510 307.4C520.5 304.7 542.7 294.3 550 288.7L554.5 285.3V296.4C554.6 318 561.2 333 577.9 350L588.3 360.5L593.7 381.9C596.6 393.7 599.8 404.9 600.7 406.7C603.8 413.2 610.2 415.1 613.8 410.5C614.9 409.1 616.7 404.3 617.9 399.8C621.4 386.3 622.8 383.5 627.9 378.7C633.5 373.5 640.7 370.9 649.8 370.7C660.6 370.5 672.6 378.7 677.8 389.8C680.1 394.8 680.4 396.6 680.3 405.5C680.1 422.9 673.5 438.6 661.5 449.9C653.5 457.4 647.6 459.9 633.9 461.1C627.6 461.6 622.3 462.4 621.9 462.8C621.5 463.2 620.5 466 619.5 469C615.7 480.6 607.2 493.2 598.1 500.5C595.1 502.9 593.1 505.3 593 506.6C592.9 511.6 588.6 525.3 584.5 533.5C578.4 545.6 569.3 556.3 558.8 563.4C552.7 567.5 549.9 568.9 548.5 568.4C547.4 567.9 546.9 568 547.3 568.7C549.5 572.2 529.5 575.7 516.5 574.1ZM468.5 505.7C474.5 502.7 481.4 502.4 490.4 504.9C494.7 506.1 499.5 507.7 501 508.5C503.7 509.9 503.9 509.8 504.5 507.9C505.5 505 502 501.6 494.2 497.8C483.2 492.4 471.7 493 463.6 499.3C458.7 503.1 457.3 504.7 455.9 507.9C454.4 511.5 456.7 512.4 461 509.8C462.9 508.6 466.3 506.8 468.5 505.7ZM457.8 480.8C458.6 480 459 479.9 459 480.7C459 481.9 459.4 481.9 464.8 480.6C467.2 480 468 479.4 467.6 478.3C467.3 477.5 467 476 467 474.9C467 473.2 466.2 473 461 473C456.3 473 453.6 472.3 449.1 470C443.3 467.1 442 465.6 442 461.8C442 458.6 445.7 453.4 448.8 452.1C450.3 451.5 452.2 450 452.9 448.8C454 447 454 446.5 452.6 445.5C449.3 443.1 440 447.3 436.4 452.9C433.5 457.3 433.9 464.9 437.4 469.9C441.9 476.3 444.4 478.3 450.2 480.2C456.9 482.2 456.4 482.2 457.8 480.8ZM417 440C422.8 435.9 424.6 422 420.4 413.9C417.1 407.3 407.5 405.3 402.5 410C399.6 412.7 397.5 420.8 398.4 426.2C399.8 434.9 405.8 442 411.8 442C413.1 442 415.5 441.1 417 440ZM522.6 436.2C526 433.3 527.9 429.7 529 423.9C530.4 416.7 528.8 410.9 524 405.9C520.9 402.7 519.6 402 516.4 402C505.6 402 500.3 418.9 507.3 431.3C510.9 437.7 518.1 440 522.6 436.2ZM639.4 427.9C638.7 421.2 639.6 418.3 644.7 410.3C648.6 404.3 653.9 400.6 657.5 401.2C658.8 401.5 660.1 401.2 660.4 400.6C660.6 400 660.9 400.3 660.9 401.3C661 403.8 663.8 409 665 409C665.6 409 666 407 666 404.5C666 397.3 660.3 393 652.5 394.4C648.2 395.2 643.7 400.6 638.5 411C632.9 422 632.6 435.7 638 434.3C639.9 433.8 640 433.3 639.4 427.9ZM392.7 384.4C406.3 379.8 416.4 373.2 419 367.1C419.6 365.5 420 362.5 419.8 360.4C419.5 357.1 419.1 356.5 417 356.2C415 356 412.7 357.4 407.2 362.2C402.8 366.2 396 370.6 389.5 374C383.8 376.9 378.8 380 378.6 380.7C377.8 382.8 381.7 386 385 386C386.6 386 390.1 385.3 392.7 384.4ZM539 374.2C540.9 372.6 541.1 372 540.1 370.2C539.5 369 538.6 368 538.2 368C537.8 368 532.6 367.1 526.5 366.1C514.3 363.9 505.8 361.2 499.4 357.5C496 355.5 494.6 355.2 492.7 355.9C489.2 357.2 488.6 358.7 490 362C493.5 370.3 508.2 375.7 528.1 375.9C535.1 376 537.2 375.6 539 374.2Z" fill="#FEBB75"/>
<path d="M468.7 978.3C467.4 977 468 970.6 469.7 968.8C470.6 967.8 471.1 966.8 470.9 966.5C470.6 966.3 466.2 966.1 461 966.2C445.6 966.3 437.2 966.1 424.2 965.5C416.7 965.1 411.4 965.2 410.7 965.8C410 966.3 407.1 967.1 404.2 967.5C399.7 968.1 398.2 967.8 394.3 965.9C391 964.1 389.6 963.8 389.3 964.8C388.6 966.5 381 966.4 381 964.6C381 963.8 380.3 962.9 379.4 962.6C376.8 961.6 365.5 961.9 358.2 963.2C352 964.2 350.9 964.2 347.4 962.5C342.7 960.3 334 959.2 334 960.9C334 961.5 332.4 962 330.5 962C328.2 962 327 961.5 327 960.6C327 958.7 324.5 958.3 300.5 956.5C289 955.6 276 954.1 271.6 953.3C264.3 951.7 263.7 951.7 262.8 953.3C261.6 955.5 255 955.7 255 953.6C255 952.7 253.3 951.8 250.8 951.1C248.4 950.6 244.7 949.7 242.5 949.1C240.3 948.6 232.2 947 224.5 945.5C216.8 944 207.4 941.7 203.6 940.4C199.8 939.1 195.2 938 193.5 938C189.5 938 172 929.4 172 927.4C172 926.6 171.6 926 171 926C169.3 926 169.8 918 171.5 917.4C172.5 917 173 915.5 173 913.1C173 909.5 173.1 909.5 180.3 906.7C184.2 905.1 188.2 903.4 189 902.9C189.8 902.4 191.2 901.7 192 901.4C192.8 901.1 194.3 900.4 195.2 899.9C196.2 899.4 198.6 899 200.5 899C202.4 899 207.3 898.1 211.3 897C215.2 895.8 221.4 894.5 225 894C228.6 893.5 234.6 892.4 238.5 891.5C242.3 890.7 247.5 890 250 890C252.6 890 255.1 889.5 255.8 888.8C256.5 888.1 261.8 887.6 271.2 887.6C279.1 887.5 285.7 887.3 286 887C287.5 885.5 291.4 884 295 883.4C297.3 883 299.4 882.1 299.7 881.4C300 880.5 304.5 880.2 319.1 880.4C329.5 880.5 338.3 880.9 338.6 881.3C339.5 882.2 338.6 883.7 332.7 891.3C325.5 900.3 322.7 906.3 322.2 913.2C321.8 918.5 322 919.2 324.7 921.9C329.5 926.7 334.1 927.5 357.5 927.4C375.7 927.4 402 925.8 408.6 924.5C410 924.2 412.2 925.1 414.6 927.1C429.5 938.9 454.4 940.9 507 934.4C541.9 930.1 560.6 923.6 565.1 914.2C566.7 911 567.7 910 568.9 910.5C569.8 910.9 573.8 911.8 577.8 912.6C596.3 916.2 615.5 912.9 635.5 902.9C645.6 897.8 651.6 893.4 661.2 884.2L668.9 876.8L672 879C674.3 880.7 678 881.6 685.8 882.6C702.8 884.9 722.3 886.1 723.4 885C725.3 883.1 731 883.9 733.8 886.5C735.6 888.2 737.7 889 740 889C741.9 889 748.5 890 754.5 891.1C760.6 892.2 768.2 893.4 771.6 893.7C777.2 894.2 777.8 894 778.3 892.1C778.7 890.5 779.6 890 782.4 890C784.4 890 786 890.5 786 891C786 891.6 787.1 892 788.4 892C789.7 892 791 892.7 791.4 893.5C791.7 894.4 793.2 895 795 895C796.6 895 798 895.4 798 895.9C798 897.6 805.9 901.9 811.1 902.9C819.9 904.7 825.9 906.5 827.2 907.8C827.9 908.5 829.8 909 831.6 909C834.5 909 834.8 909.3 835.5 912.8C835.9 914.8 836.3 918.9 836.4 921.9C836.5 926.2 836.1 927.5 834.6 928.4C833.6 929 830.5 931 827.8 932.8C825 934.5 822 936 821 936C820 936 815.2 937.3 810.3 938.9C805.5 940.4 797.1 942.5 791.6 943.5C784.9 944.8 781.2 946 780 947.3C778.4 948.9 777.3 949.1 771.5 948.5C767.6 948 763.9 948.2 762.7 948.7C755 952.2 744 954.3 744 952.2C744 951.2 731.9 952.5 727 954C725.1 954.5 719.4 955 714.3 955C709.2 955 702.5 955.7 699.3 956.5C696.2 957.3 690 958 685.7 958C681.4 958 673.7 958.4 668.7 959C641.4 961.8 632.2 962.5 619 962.6C611 962.6 598.7 963.2 591.5 963.9C573.2 965.7 557.3 966.3 536.9 966C524.9 965.9 519 966.1 518.6 966.9C518.2 967.5 516.4 968 514.5 968C512.6 968 510.8 968.5 510.5 969C510.2 969.6 508.1 970 505.9 970C503 970 502 969.6 502 968.4C502 967.1 501.4 966.9 499.3 967.5C497.7 967.9 494.4 968.3 491.8 968.4C489.1 968.4 487 969 487 969.6C487 970.2 485.9 971.7 484.5 973C483.1 974.3 482 976.2 482 977.2C482 978.7 481.1 979 475.7 979C472.2 979 469 978.7 468.7 978.3Z" fill="#FFD0A3"/>
<path d="M282.4 684.8C277.7 680.2 272.4 675.6 270.6 674.5C265.8 671.6 264.4 669.9 263.7 666.2C263.2 663.9 260.5 660.5 254.5 654.4C249.7 649.7 244.8 645.5 243.4 645C242 644.4 241 643.2 241 642.1C241 641 239.9 638.8 238.5 637.2C237.1 635.5 236 633.8 236 633.2C236 632.6 234.4 630.5 232.4 628.5C230.4 626.4 228 623.1 227.1 621.1C225.1 616.6 222.3 612.3 219.5 609C218.3 607.6 215.3 602.7 212.9 598C210.5 593.3 208.2 589.4 207.8 589.2C207.3 589 207 588.3 207 587.5C207 586.2 202.2 577 196.3 566.6C193.7 562.2 193 559.9 193 555.5C193 552.5 192.6 550 192.2 550C191.7 550 190.8 548.5 190.2 546.8C189.6 545 188.2 540.8 187.1 537.6C185.9 534.3 185 530 185 527.8C185 525.7 184.6 523.2 184.1 522.2C177.4 509 176.2 505.3 175.6 496C175.2 490.8 174.5 484.7 174 482.5C173.5 480.3 173 475.7 173 472.3C173 468.8 172.3 461.9 171.4 457C170.2 449.5 170.1 446.6 171 440.3C171.7 436.1 171.9 430.3 171.5 427.5C171.2 424.6 171.6 414.7 172.4 405.4C173.3 396.1 174.2 385.8 174.4 382.5C175.6 368.7 176.3 365.2 178.7 360C180.1 357 182.1 353.8 183.1 353C184.5 351.9 185.1 349.5 185.6 343C185.9 338.3 186.8 332.8 187.6 330.7C188.4 328.7 189 325.2 189 323.1C189 320.7 189.7 318.7 190.9 317.6C193.1 315.6 196.6 308.8 197.8 303.9C199.3 298.3 204.8 292 208.3 292C209.6 292 211.5 291.3 212.6 290.5C214.4 289.1 214.4 289.1 211.8 289C209.2 289 209 288.7 209 285C209 282.8 209.5 281 210 281C210.6 281 211 279.7 211 278.1C211 276.5 211.7 274.7 212.5 274C213.3 273.3 214 272.1 214 271.4C214 270.6 214.5 270 215 270C215.6 270 216.5 268.8 217 267.3C219.3 261 222.6 255.7 226.1 252.5C228.2 250.7 230.4 248.2 231 247C231.7 245.8 234.5 242.2 237.3 239.1C240.2 236 244.5 231 247 228C249.5 225.1 253.1 221.2 255 219.3C258.3 216.1 258.8 215.9 264.2 216.2C269.9 216.6 269.9 216.6 270.2 213.6C270.4 211.2 271.1 210.5 273.8 209.8C275.6 209.3 277 208.3 277 207.5C277 206.7 277.9 206 279 206C280.1 206 281 205.3 281 204.5C281 203.7 280.6 203 280 203C279.5 203 279 201.4 279 199.5C279 197.6 279.5 196 280.1 196C280.7 196 283.3 193.7 285.8 191C288.3 188.2 290.7 186 291.1 186C291.4 186 294.5 183.3 297.9 180C301.3 176.7 304.6 174 305.2 174C307.2 174 318.6 167.9 321.3 165.4C322.8 164.1 324.4 163 325 163C325.5 163 326 162.6 326 162.1C326 161.6 329.7 159.3 334.3 157.1C338.8 154.8 349 149.6 356.9 145.5C369.9 138.7 371.9 138 377 138C381.6 138 384.2 137.3 389.8 134.5C398.5 130.1 407 127.1 413.5 126C420.6 124.9 434.9 121.1 438.7 119.4C440.5 118.6 445 118 449.3 118C453.5 118 459.7 117.4 463.2 116.6C467.4 115.6 475.7 115.1 488 115.1C508 115 518 114.3 518 112.9C518 111.8 521.9 111.8 528.4 112.6C531.3 113 533 113.8 533 114.6C533 115.4 533.8 116 534.8 116C540.5 116.2 568 119 570.5 119.8L573.5 120.6L573.8 152.3C573.9 174 573.7 184 573 184C572.4 184 570.3 183.2 568.2 182.1C562.7 179.3 548.6 175 539.7 173.5C504.2 167.2 456.4 175.3 414 194.9C406.6 198.4 391.6 206.3 380.7 212.7C369.7 219 359.2 224.8 357.3 225.6C355.4 226.4 348.3 228.2 341.7 229.5C331.5 231.5 329.1 232.4 327.3 234.5C324.4 237.8 324.4 241.8 327.3 246.1C329.4 249.2 330 249.5 334.8 249.5C337.7 249.5 340 249.9 340 250.3C340 250.7 337 255.2 333.4 260.3C325.9 270.7 317.8 286.5 315.5 295.5C311.6 310.3 312.9 323.7 318.9 329.4C321.5 331.9 321.6 331.9 324.4 330.1C325.9 329.1 328 327 329.1 325.4C330.4 323.4 331 323 331.4 324C332.7 327.9 340.5 349.4 343.2 356.5C347.6 367.7 353.4 377.4 357.8 380.7C359.8 382.2 361.7 383.8 361.8 384.3C362 384.7 362.8 385 363.6 385C366 385 365.5 393.2 363 394.8C361.9 395.5 361 396.8 361 397.7C361 398.6 360 400.4 358.8 401.8C356.9 403.8 356.4 405.5 356.1 412.6C355.9 418.4 356.1 421 356.9 421C359.5 421 362.2 425 362.7 429.3C363.2 433.2 363 433.8 361.1 434.3C359.2 434.8 359 435.5 359 442.4C359 448.5 358.7 450 357.5 450C356.7 450 356 450.9 356 451.9C356 453 355.6 454 355.1 454.2C354.7 454.4 353.9 455.5 353.6 456.8C353 458.6 353.3 459 354.9 459C358.1 459 360 460.1 360 462C360 463.1 360.4 464.1 360.9 464.4C361.4 464.7 362.1 466.6 362.4 468.5C363.1 471.9 363.2 472 367.9 472C370.7 472 373.2 472.6 373.8 473.3C374.4 474 375.6 477.3 376.3 480.6C377.7 486.6 386.5 504 388.1 504C388.6 504 389 504.8 389 505.9C389 508.3 392.7 513 394.6 513C395.4 513 396 513.6 396 514.3C396 517.5 408.8 527.6 420.3 533.5C430 538.5 431.7 539.7 430.7 540.9C430 541.7 424.5 546.5 418.3 551.7C376.3 586.7 343.8 621.5 326.5 649.9C323.5 655 321 659.3 321 659.6C321 659.9 317.1 664.4 312.2 669.5C306.4 675.8 302.4 681.1 300 685.9C295.1 695.7 293.7 695.6 282.4 684.8Z" fill="#FFD0A3"/>
<path d="M283.4 894.4C283.2 893.6 282.8 892.3 282.5 891.5C282.2 890.6 281.5 890 280.8 890.1C277.2 890.5 276 889.9 276 887.5C276 886.1 276.7 884.7 277.5 884.4C278.4 884 279 882.5 279 880.8V877.8L284.5 878.2C287.5 878.3 290 878.2 290 877.8C290 877.3 292 877 294.5 877H299V881.4C299 885.2 298.7 886 296.8 886.5C293.5 887.4 289.6 889.3 288.8 890.5C287.5 892.2 287.9 894 289.5 894C290.3 894 291 894.4 291 894.8C291 896.3 283.9 895.9 283.4 894.4Z" fill="#FFD7B2"/>
<path d="M370.001 475.9C370.001 475.5 367.801 475.3 365.001 475.5C360.601 475.8 360.001 475.6 360.001 473.9C360.001 472.9 359.501 472 358.901 472C358.301 472 358.101 471.2 358.501 470.1C358.801 469.1 358.401 467.7 357.501 467C356.701 466.3 356.301 465.3 356.601 464.8C357.401 463.5 355.101 462 352.201 462C351.001 462 349.701 461.3 349.401 460.5C349.001 459.5 348.101 459.2 346.801 459.6C345.101 460.1 344.901 459.9 345.501 457.8C346.501 454.8 347.201 454.2 347.701 455.8C348.101 456.8 348.501 456.6 349.501 455.3C350.501 454 350.501 453.3 349.701 452.8C348.901 452.3 349.301 451.8 350.801 451.4C352.101 451 353.001 450 353.001 448.9C353.001 447.8 353.701 447 354.501 447C355.301 447 356.001 446.3 356.001 445.5C356.001 444.7 355.501 444 354.901 444C354.101 444 354.201 443.5 355.001 442.5C356.101 441.2 356.001 440.7 354.401 439.5C352.601 438.1 352.601 438.1 354.401 438C355.901 438 356.101 437.5 355.701 435C355.101 432.5 355.401 431.9 357.501 431.4C359.201 431 359.701 430.3 359.301 429.2C358.401 426.6 355.301 424 353.101 424C352.101 424 350.901 423.2 350.501 422.3C349.701 420 349.901 419.4 351.401 419.8C352.301 419.9 352.701 417.7 352.901 411.9C353.101 403.2 353.901 400.2 356.401 398.1C357.301 397.4 357.701 396.3 357.401 395.8C356.601 394.6 359.901 391 361.701 391C362.501 391 363.001 390.4 362.701 389.8C362.501 389.1 361.601 388.6 360.701 388.6C359.701 388.7 358.801 387.4 358.201 384.8C357.601 382.7 357.501 381.1 357.801 381.3C358.201 381.5 360.001 382.2 361.801 382.9C364.901 384.1 365.001 384.4 365.101 389.8C365.301 405.2 367.301 434.1 369.101 447C370.101 454.8 373.501 471.5 374.501 474.2C374.901 475.3 374.401 475.9 372.601 476.2C371.201 476.5 370.001 476.4 370.001 475.9Z" fill="#FFD7B2"/>
<path d="M181.3 357C180.8 355 179.1 354.3 173.5 353.8C170.8 353.5 170.5 353.1 170.2 349.7C169.9 346.5 170.4 345.4 173.2 342.6C175 340.7 177 338.4 177.6 337.3C178.9 335.2 185.4 334.3 187.4 335.9C189.2 337.4 190.3 345.9 188.9 347.6C188 348.7 188.2 349 189.6 349.1C190.7 349.1 191 349.4 190.3 349.7C188.4 350.4 188.7 351.8 190.8 352.2C192 352.5 191.4 353.1 188.7 354.5C186.5 355.5 184.6 356.9 184.3 357.7C183.5 359.6 181.9 359.3 181.3 357Z" fill="#FFD7B2"/>
<path d="M204.001 298C204.001 297.5 203.501 297 202.901 297C202.201 297 200.701 295.9 199.401 294.4C196.001 290.8 196.001 283.9 199.401 282.1C202.001 280.6 214.001 281.5 214.001 283.1C214.001 283.6 213.601 284 213.001 284C212.501 284 212.001 284.4 212.001 284.8C212.001 285.3 213.001 285.6 214.201 285.5C215.501 285.4 217.101 286 217.801 286.7C218.901 287.8 219.501 287.8 220.601 286.9C221.401 286.2 222.301 286 222.601 286.3C223.201 286.8 217.001 292.8 214.401 294.3C213.501 294.8 213.101 296 213.501 297.3C214.101 299.5 214.101 299.5 212.101 297.2C210.401 295.3 209.701 295.1 208.001 296C206.901 296.6 206.001 297.5 206.001 298C206.001 298.6 205.601 299 205.001 299C204.501 299 204.001 298.6 204.001 298Z" fill="#FFD7B2"/>
<path d="M267.3 220.5C264.8 219.5 264 219.4 264 220.3C264 221.1 263.7 221 263.1 220.1C262.6 219.4 261.8 219 261.2 219.3C260.6 219.7 260.2 216.8 260.2 211.7C260 200 260.9 194 262.6 194C263.4 194 264.3 193.3 264.6 192.5C265 191.5 266.5 191 268.9 191C273.1 191 274.3 191.7 275.9 194.7C276.7 196.4 278.1 197 281.8 197.2C286.2 197.5 286.3 197.6 284 198.7C282 199.6 281.9 199.9 283.3 199.9C284.9 200 285.1 200.5 284.5 204.3C283.6 209.5 283.3 210.1 281.5 209.3C280.6 209 280 209.4 280 210.3C280 211.8 277.6 213.3 275 213.4C274 213.5 273.4 214.8 273.2 217.8C272.9 222.4 272.2 222.7 267.3 220.5Z" fill="#FFD7B2"/>
<path d="M0 512V0H512H1024V512V1024H512H0V512ZM479 974.8C479 974.4 478.4 974 477.8 974C477.1 974 478.3 972.6 480.4 970.9C482.7 969 484 967.1 483.7 966.1C483.4 964.8 484.2 964.5 487.7 964.3C490 964.2 492 964.6 492 965.1C492 965.7 492.8 965.7 493.9 965C495 964.5 498.1 964 500.9 964C505 964 505.8 964.3 505.4 965.5C504.6 967.4 506.6 967.5 507.7 965.7C508.7 963.9 512.8 962.9 513.6 964.1C513.9 964.7 514.7 964.6 515.6 963.9C516.5 963.2 522.4 962.8 534.2 962.9C550.8 963.1 564 962.6 580 961.5C584.1 961.2 589.7 960.8 592.4 960.6C595.5 960.3 597.8 959.6 598.6 958.6C600.1 956.5 601.1 956.5 600.3 958.6C599.8 959.8 600.1 960.1 601.6 959.7C604.6 958.8 614.1 958.7 619.2 959.5C621.8 959.9 627.7 959.7 632.7 959C637.5 958.4 645.3 957.6 650 957.4C654.7 957.1 662.1 956.5 666.5 955.9C670.9 955.4 678.1 955 682.5 955C687 955 693 954.4 696.1 953.6C699.1 952.8 705.8 952.1 711 952C716.2 951.8 723 951.2 726 950.5C734.8 948.4 746.2 947.6 747 949.1C747.5 949.8 748.3 949.9 749.1 949.4C749.9 948.9 750.7 948.5 751 948.4C753.6 947.9 757.9 946.7 759.5 945.9C762.2 944.7 775 944.2 775 945.2C775 945.7 775.5 945.8 776 945.5C776.6 945.1 776.8 944.5 776.5 944C776.1 943.3 777.5 942.8 783 941.5C783.3 941.4 786.9 940.8 791 940.1C795.1 939.3 802.5 937.5 807.3 935.9C812.2 934.3 817 933 818 933C819 933 822 931.5 824.8 929.8C827.5 928 830.5 926 831.4 925.5C833.3 924.4 833.5 922 832.4 915.7C831.9 912.6 831.5 912 829.8 912.6C828.7 912.9 826.8 912.4 825.2 911.4C822.4 909.5 813.7 906.7 811 906.8C810.2 906.8 808.6 907 807.5 907.2C806.3 907.4 805.6 907 805.7 906.3C805.9 905.6 805.3 905 804.5 905C802.6 905 795 900.1 795 898.9C795 897.6 792.2 897.8 791.8 899.2C791.4 900.4 787.7 899 787.9 897.7C788.2 895.8 787.9 895 787 895C786.5 895 786 895.9 786 897C786 899.2 785.9 899.3 783.7 898.4C782.8 898.1 782.5 897 782.8 895.3C783.1 893.5 782.9 892.9 782.1 893.4C781.5 893.8 781 895 781 896.1C781 897.9 780.5 898 773.8 897.4C769.8 897.1 764.7 896.5 762.5 896C758.9 895.2 746.5 893.1 741.5 892.4C740.4 892.3 738.1 892.1 736.5 892.1C734.7 892 732.3 890.9 730.8 889.5C728.1 887 727.9 887 725.5 888.6C723.2 890.1 722 890.2 716.2 889.2C712.5 888.6 705.7 887.8 701 887.5C696.3 887.2 691.2 886.8 689.5 886.5C687.9 886.3 684 885.8 681 885.5C674.1 884.8 672.2 884.2 668.8 881.8L666.1 879.9L672.3 871.7C681.9 859.1 684.3 852.8 684.8 839.7L685.2 829L688.6 829.6C694.4 830.7 696.9 829.4 699.2 824.3C701 820.2 701.2 818.5 700.6 810.1C700.2 804.8 699.3 796.8 698.6 792.3L697.4 784H812.8C939.8 784 931.4 784.4 937.6 777.9L940.5 774.9L940.8 438.8L941 102.7L938.9 98.2C937.4 95.1 935.7 93.4 933.4 92.4C930.5 91.2 903.5 91 757.2 91.2L584.3 91.5L580.8 94.2C575.3 98.4 574 102.2 574 113.9C574 125.2 574.4 124.7 566.2 122.6C563.3 121.8 555.5 120.8 548.7 120.4C542 120 536.1 119.6 535.5 119.5C535 119.4 533.5 119.2 532.3 119.2C530.9 119.1 530 118.3 530 117.4C530 116 529.7 116 528.5 117C527.2 118 526.6 118 525.2 116.6C523.2 114.8 521.4 114.5 520.8 115.9C520.3 117.3 510.3 118.2 490.5 118.5C480.1 118.6 471.3 118.9 471 119C469.8 119.5 464.8 120 454 120.8C447.7 121.2 441.6 122.1 440.5 122.8C438.2 124.1 423.9 127.8 416.5 129C409.9 130.1 401.4 133.1 392.7 137.6C386.8 140.6 384.5 141.2 380 141.1C374.9 141 373.2 141.6 360 148.5C352 152.6 341.8 157.8 337.3 160.1C332.7 162.3 329 164.6 329 165.1C329 165.6 328.5 166 328 166C327.4 166 325.8 167.1 324.3 168.4C321.6 170.9 310.2 177 308.2 177C307.6 177 304.3 179.7 300.9 183C297.5 186.3 294.5 189 294.1 189C293.7 189 291.4 191.1 289 193.8C281.4 201.8 276.2 203.2 273.2 198C271.1 194.4 268.9 193.4 267.8 195.5C267.3 196.3 266.2 197 265.4 197C264.6 197 264 197.6 264.1 198.3C264.2 198.9 264 200.7 263.6 202.2C263.1 203.8 263.1 205.8 263.5 206.7C264 207.7 264.2 209 264.1 209.7C264 210.3 264.4 211.1 265 211.5C267 212.7 265.9 215.2 261.8 218.8C256.5 223.5 255.5 224.6 250 231.1C247.5 234 243.2 239 240.3 242.1C237.5 245.2 234.7 248.8 234 250C233.4 251.2 231.2 253.7 229.1 255.5C225.6 258.7 222.3 264 220 270.3C219.5 271.8 218.6 273 218 273C217.5 273 217 273.6 217 274.4C217 275.1 216.3 276.3 215.5 277C214.7 277.7 214 278.8 214.1 279.4C214.5 282.5 213.7 283.9 211.1 285C208.9 285.9 207.6 285.9 206.1 285.1C203.8 283.8 200 285.5 200 287.7C200 289.6 204.5 294 206.4 294C207.9 294 207.9 294.5 205.9 298C204.6 300.2 203.3 302 202.9 302C202.4 302 201.6 303.9 201 306.3C199.6 311.7 196.2 318.5 193.9 320.6C192.7 321.7 192 323.7 192 325.9C192 329.8 189.1 339.1 187.5 340.2C187 340.6 185.7 340.2 184.7 339.3C183.3 338 182.7 337.9 181.7 338.9C181.1 339.5 180.5 340.4 180.5 340.8C180.4 341.2 178.7 343.2 176.6 345.2C172.6 349.2 172.6 351.4 176.6 350.4C179.8 349.6 183.7 351.6 184.4 354.3C184.7 355.5 183.7 358.8 182.1 362.2C180.5 365.4 179.4 368.9 179.7 370C180 371.1 179.5 374.1 178.7 376.7C176.8 382.7 176.5 395 178.3 395C179.1 395 179 395.4 178 396C177.2 396.5 176.5 397.7 176.5 398.7C176.4 399.7 176.1 404.2 175.6 408.8C175.2 413.3 174.6 423.6 174.4 431.8C174.2 439.9 174 447 174 447.5C173.9 448.1 174.2 450.3 174.5 452.5C174.8 454.7 175.1 457.3 175.1 458.2C175.1 459.2 175.4 460.2 175.8 460.4C176.2 460.6 176.5 464.3 176.4 468.6C176.3 472.8 176.8 478.8 177.6 481.8C178.4 484.8 178.8 488.1 178.5 489.1C178.2 490 178.4 491.1 178.9 491.4C179.5 491.8 179.7 494.1 179.3 496.9C178.8 501 179.2 502.7 182 508.4C183.8 512 185.7 515 186.2 515C186.8 515 186.9 515.7 186.6 516.6C186.3 517.5 186.7 519.1 187.5 520.3C188.3 521.5 189 522 189.1 521.5C189.1 520.9 189.5 521.4 189.9 522.5C190.5 523.9 190.2 524.9 189.2 525.6C187.8 526.6 187.8 527.4 188.9 531.1C190.8 538 194.4 546.4 195.6 547.2C196.2 547.6 196.6 550.2 196.5 553.2C196.3 557.5 196.8 559.5 199.4 563.8C201.1 566.7 203.1 570.3 203.9 571.8C204.6 573.3 206.4 576.5 207.8 579C209.3 581.5 210.3 584.1 210.2 584.7C210 585.5 210.5 585.7 211.6 585.3C212.9 584.8 213.1 585.1 212.5 586.8C212.1 588.3 212.3 589 213.1 589C213.8 589 214.1 589.3 213.7 589.6C213 590.3 219.5 602.6 222.5 606C225.3 609.2 228.1 613.6 230.1 618C232.4 622.9 237.5 628.6 238.4 627.1C239.7 625.1 241 626.9 240 629.4C239.3 631.3 239.6 632.2 241.1 633.6C242.2 634.5 243.4 636.7 243.9 638.4C244.3 640.1 245.2 641.4 245.8 641.3C246.4 641.2 251.2 645.3 256.4 650.5C263.5 657.4 266.2 660.7 266.7 663.2C267.3 666.3 271.1 671 273 671C273.4 671 276.3 673.3 279.4 676.1C282.4 678.9 285.4 680.9 285.9 680.6C286.4 680.2 287.1 680.4 287.5 681C287.8 681.5 287.6 682 286.9 682C285.4 682 288.4 685.4 292.4 688.3C295.2 690.3 295.3 690.3 296.6 688.5C298.8 685.6 298.2 688.5 295.5 695C294.1 698.3 293 701.5 293 702.1C293 702.8 292.2 703.9 291.3 704.6C290.2 705.4 290 705.9 290.8 706C291.6 706 292 707.5 292 710.3C292 721.9 294.1 731.4 298.6 740.7C303.3 750.3 308.5 756.1 317.5 761.8C321.7 764.5 341.5 773 343.5 773C344.1 773 345.4 777.1 346.4 782.8C355.3 831.9 360.8 853.8 366.3 862.1L368 864.6L361.7 867.5C354.4 870.8 344.9 877.3 340.1 882.4C337 885.6 334 887.4 335.4 885.2C336.6 883.3 308.2 883.5 306.3 885.4C305.1 886.6 304.1 886 304.6 884.5C305 883.7 304.8 883 304.2 883C303.7 883 303 883.6 302.7 884.4C302.4 885.1 300.8 886 299.1 886.2C296 886.7 295.4 885.7 295.9 881.3C296 880.6 295.4 880 294.5 880C293.7 880 293 880.5 293 881C293 881.6 292.1 882 291.1 882C290 882 289 882.5 288.8 883.1C288.5 883.9 287.8 883.7 286.8 882.6C284.4 880.3 281.6 880.5 282.3 883C282.6 884.2 281.9 885.9 280.6 887.3C278.7 889.3 277.1 889.8 269.1 890.3C263.9 890.7 259.2 891.4 258.6 891.9C258 892.4 254.6 893 251 893.3C243.7 893.9 234.4 895.6 232.7 896.7C232.1 897.1 230.3 897.3 228.7 897.2C227.1 897 220.6 898.3 214.3 900C208 901.7 202.4 902.8 201.9 902.4C201.3 902.1 199.8 902.2 198.7 902.8C197.5 903.4 195.8 904.1 195 904.4C194.2 904.7 192.8 905.4 192 905.9C191.2 906.4 187.2 908.1 183.2 909.7C176.5 912.3 175.9 912.7 176.3 915C176.9 917.9 175.8 921.2 174.5 921C174 920.9 173.4 921.3 173.2 921.9C173 922.6 173.5 922.7 174.5 922.3C175.9 921.8 176.1 922.1 175.6 923.8C175 925.6 176 926.4 183.6 930.1C188.3 932.4 193.8 934.4 195.8 934.5C197.9 934.6 202.2 935.7 205.5 937C211.1 939 215.3 940.1 219 940.2C219.8 940.2 221 940.6 221.5 941C222.1 941.4 227 942.5 232.5 943.5C238 944.4 244.5 945.8 247 946.5C249.5 947.2 252.9 948.1 254.7 948.5C256.4 948.8 258.1 949.9 258.3 950.8C258.7 952.2 258.9 952.1 259.5 950.3C260.1 948.4 260.8 948.2 264.7 948.6C267.2 948.8 271.1 949.5 273.4 950.1C275.6 950.7 280.9 951.4 285 951.6C289.1 951.8 294.3 952.2 296.5 952.5C298.7 952.7 305.7 953.4 312.1 954C327.3 955.3 330 955.9 330 957.9C330 959.2 330.2 959.2 330.9 958.1C332.1 956.2 345.4 957 349.9 959.3C352 960.3 353.7 960.7 354.4 960.1C355.7 959.1 378.6 958.6 382.4 959.6C384 960 384.7 960.7 384.3 961.6C384 962.4 384.3 963 384.9 963C385.5 963 386 962.4 386 961.6C386 959.5 393.4 960.5 397.8 963.1C401.1 965 401.1 965 400.5 963.1C400 961.4 400.4 961.1 403 961.2C405 961.3 406 961.8 406 962.9C406.1 964.4 406.2 964.4 407.3 962.9C408.7 961.1 414 959.5 414 960.9C414 961.5 418.2 961.8 423.8 961.8C429.1 961.7 435.9 962.3 438.8 963C442.8 964.1 444.8 964.1 447 963.3C448.6 962.7 453.8 962.4 458.7 962.5C463.5 962.7 469.1 962.9 471 962.9C474.3 963 474.5 963.2 474.5 966.4C474.5 968.3 473.7 970.7 472.6 971.8C471.6 973 471.1 974.3 471.4 974.8C472.1 976 479 976 479 974.8Z" fill="#FFDCBD"/>
</g>
<defs>
<clipPath id="clip0_2870_9033">
<rect width="1024" height="1024" fill="white"/>
</clipPath>
</defs>
</svg>
