<svg width="60" height="61" viewBox="0 0 60 61" fill="none" xmlns="http://www.w3.org/2000/svg">
<path d="M41.8597 13.7473C40.8917 13.3794 39.8088 13.8659 39.441 14.8339C39.0731 15.8019 39.5596 16.8848 40.5276 17.2527C41.4294 17.5954 42.3707 18.176 43.3164 19.1136C44.5208 20.3077 45.283 21.6164 45.7079 22.9943C46.0131 23.9839 47.0627 24.5387 48.0522 24.2335C49.0418 23.9284 49.5966 22.8788 49.2914 21.8893C48.6824 19.9142 47.5925 18.0725 45.9567 16.4506C44.6661 15.1711 43.2866 14.2895 41.8597 13.7473Z" fill="white"/>
<path fill-rule="evenodd" clip-rule="evenodd" d="M27.0024 9.28148C24.7818 7.87291 21.7416 6.40848 18.3656 6.16134C14.8959 5.90733 11.2012 6.95439 7.88224 10.339C3.96405 14.3347 2.73476 19.2673 3.22839 24.2567C3.71633 29.1886 5.87964 34.2022 8.76491 38.6446C11.6579 43.0989 15.3534 47.0981 19.0608 50.002C22.6866 52.842 26.6317 54.875 29.9996 54.875C33.3676 54.875 37.3127 52.842 40.9386 50.002C44.646 47.0981 48.3414 43.0989 51.2344 38.6446C54.1197 34.2022 56.283 29.1886 56.771 24.2567C57.2646 19.2673 56.0353 14.3347 52.1171 10.339C48.7982 6.95443 45.1035 5.90738 41.6338 6.16138C38.2579 6.40852 35.2176 7.87292 32.9971 9.28148C31.246 10.3923 28.7535 10.3923 27.0024 9.28148ZM10.5597 12.9645C13.0763 10.3981 15.678 9.72462 18.0919 9.90133C20.5995 10.0849 23.03 11.2025 24.9936 12.4481C27.9709 14.3367 32.0285 14.3367 35.0058 12.4481C36.9694 11.2025 39.3999 10.0849 41.9076 9.90137C44.3214 9.72467 46.923 10.3982 49.4396 12.9645C52.4477 16.0321 53.4436 19.7997 53.0392 23.8875C52.6291 28.0327 50.7711 32.4733 48.0895 36.6021C45.4157 40.719 41.9988 44.4081 38.6262 47.0498C35.172 49.7553 32.0694 51.125 29.9996 51.125C27.9299 51.125 24.8273 49.7553 21.3731 47.0498C18.0005 44.4081 14.5837 40.719 11.9098 36.6021C9.22829 32.4733 7.37028 28.0327 6.96017 23.8875C6.55575 19.7997 7.55167 16.0321 10.5597 12.9645Z" fill="white"/>
</svg>
