<svg width="60" height="61" viewBox="0 0 60 61" fill="none" xmlns="http://www.w3.org/2000/svg">
<path fill-rule="evenodd" clip-rule="evenodd" d="M25.9983 10.8648C21.8142 8.21064 15.0568 5.7008 9.22132 11.6518C-4.63119 25.7784 19.1246 53 30 53C40.8753 53 64.6312 25.7784 50.7787 11.6518C44.9432 5.70087 38.1859 8.21067 34.0018 10.8648C31.6376 12.3645 28.3625 12.3645 25.9983 10.8648ZM41.8599 13.7473C40.8919 13.3794 39.809 13.866 39.4411 14.8339C39.0733 15.8019 39.5598 16.8849 40.5278 17.2527C41.4296 17.5954 42.3709 18.176 43.3166 19.1136C44.521 20.3077 45.2832 21.6164 45.7081 22.9943C46.0133 23.9839 47.0628 24.5387 48.0524 24.2336C49.0419 23.9284 49.5968 22.8789 49.2916 21.8893C48.6825 19.9142 47.5927 18.0725 45.9568 16.4506C44.6663 15.1711 43.2868 14.2895 41.8599 13.7473Z" fill="white"/>
</svg>
