<?xml version="1.0" encoding="UTF-8"?>
<svg version="1.1" viewBox="0 0 2000 2000" width="1280" height="1280" xmlns="http://www.w3.org/2000/svg">
<path transform="translate(1274,1033)" d="m0 0h200l22 1 19 3 13 4 14 7 14 10 6 5v2h2l9 11 7 11 7 15 4 17 1 12 1 94v329h55l5 1 1 2v48l-2 3-4 1h-1272l-5-4-4-2 1-8 4-10 1-26 2-4 9-2 5-10 15-39 16-40 14-36 10-23 8-13 9-10 8-6 13-6 15-3 2-1-10-9-7-10-7-14-4-12-2-16 1-17 4-16 8-16 7-10 9-10 5-4 1-3-10 2-8 6-10 10h-8l-16-6-16-8-2-5 1-14 4-13 7-11 9-8 8-4 12-3h12l13 3 9 5 8 7 7 11 7 16 34 1 15 4 13 7 11 9 9 10 9 16 5 17 1 7v16l-2 14-5 15-9 16-11 12-11 8-14 7-9 3-21 3 10 9 7 10 6 15 4 18 4 27v5l-3 2 2 5 13 15 11 13 9 11 12 14 9 11 12 14 2 2 593 1v-27l2-70 3-175v-158l-3-6-5-2-3 3-3 8-1 17-2 5-11 1-361 12h-31l-2-7-2-50v-17l2-3 43-5 103-10 66-8 181-26 23-2zm-8 10-30 1-35 4-110 16-52 7-50 6-86 9-69 7-6 2 1 40 1 17h16l240-8 125-4 6-1 1-15 3-10 5-6 5-2h8l6 3 5 6 2 6v202l-3 150-2 63v18h113l5-12 1-3 5-2h12l6 3 5 7 3 7h100v-355l2-10 4-7 6-3 10-1 7 3 4 5 2 8v360h51l-1-421-3-19-5-15-8-15-9-11-11-10-15-9-21-7-21-3-27-1zm-787 142-13 3-10 7-6 8-5 12v10l8 5 15 6 5-1 7-7 10-7 7-2h7l8 3 5 5 1 4-7 8-10 9-8 10-6 10-5 15-2 10v21l4 15 5 9 10 13 10 8 12 7 15 5h23l15-5 10-6 10-8 10-11 8-14 4-11 2-11v-13l-3-16-7-16-7-10-9-9-9-6-14-5-10-2h-34l-6-13-7-14-5-6-9-6-8-3zm1035 2-6 5-2 8 1 354h15l1-308v-49l-4-9zm-1020 191-11 3-10 5-10 9-9 14-11 25-15 39-30 75-2 6h147l-4-6-12-14-27-33-12-14-7-10-1-3v-9l2-3h5l11 9 11 12 8 10 12 14 8 10 12 14 8 10 10 12 2 1h60l-4-6-12-14-9-11-12-14-13-16-12-14-9-11-11-13-9-11-4-6 1-3 7-2 9 1 8 7 5 5v-7l-5-20-5-12-6-9-9-9-16-8-12-3zm882 168-3 1-1 6 1 1h12l-1-6-3-2z" />
<path transform="translate(658,440)" d="m0 0h421l17 1 14 3 14 5 15 8 14 11 11 11 9 13 8 15 6 18 3 17v24l-4 19-6 16-7 13-9 12-9 10-14 11-14 8-12 5-21 5-8 1h-58l1 57-2 1-13-10-11-9-17-17-11-8-16-8-15-4-20-2h-18l-58 1h-130l-68-1-18-3-18-6-17-9-14-11-10-10-10-14-8-15-5-15-4-20v-18l3-18 7-21 10-18 11-13 10-10 16-11 17-8 15-4 6-1zm93 41-9 2-10 6-8 8-6 12-1 4v16l4 10 9 10 10 6 13 4 9 1-4 6-24 24-7 8-8 9-1 6 4 6 5 4h8l10-9 21-21 8-7 5-5v-2h2l4 17 6 12 6 7 10 6 6 2h17l12-5 10-9 5-8 3-8 1-6v-9l-4-11-6-8-9-6-16-8-9-3 5-6 8-7 28-28 3-6-1-6-5-6-4-2-7 1-8 7-15 15-3 2v2l-4 2-18 18-1-2-2-13-6-15-9-10-6-4-12-3zm335 0-6 3-3 4-1 7v115l2 8 4 4 2 1h9l5-4 2-4 1-14v-106l-3-9-4-4zm-126 1-7 4-6 7-5 15v5h-25l-7 2-3 3-2 3v8l4 6 3 2h23l-7 23-4 6-18 1-9 7-2 2 1 6 6 7 7 3h10l-4 16 1 9 6 5 2 1h9l6-8 6-17 4-6 6-1 17 2-3 11 1 6 7 11 5 1 9-6 3-9 4-9 6-5 6-2h14l8-6 3-5-1-5-8-7-6-2-13 1 4-17 4-7 11-4 12-3 6-5 2-4-1-4-6-7-5-3-4-1h-9l3-7 1-9-5-10-5-4-6 1-7 7-6 16-6 5-7 2h-15l3-14v-11l-4-5zm-288 2-7 3-13 12-35 35-6 8-1 7 4 6 8 4h26l-13 17-10 11-10 13-3 6 1 11 3 4 11-1 6-4 12-13 9-11 12-14 4-5v-2h2l12-16 3-5v-7l-5-6-6-2-12-1h-10l3-7 8-7 14-13 4-5 1-9-1-8-10-1z" />
<path transform="translate(1363,779)" d="m0 0h19l16 3 13 5 13 7 12 9 10 9 10 12 8 13 7 15 6 21 2 16v18l-2 16-5 19-7 16-8 13-8 10-9 10-11 9-13 8-15 6-11 3-7 1h-21l-15-3-17-6-14-8-11-9-12-12-7-10-8-14-6-15-5-17-2-14v-25l3-18 5-16 9-19 10-14 10-11 16-12 17-9 16-5zm-3 11-16 4-13 5-12 8-10 9-7 7-9 13-8 15-6 16-3 14-1 9v16l3 18 6 20 10 19 9 12 5 6 8 7 13 9 12 6 15 4 8 1h15l16-3 13-5 14-8 11-9 9-9 10-14 8-16 6-18 2-10 1-20-3-23-7-21-8-16-9-13-15-15-14-9-11-5-16-4z" />
<path transform="translate(1258,606)" d="m0 0h40l9 1 1 3-4 11-20 41-3 6 28 1 12 1 3 2-2 7-24 34-26 36-10 14-11 15-5 5h-5l-4-4 1-22 4-42 1-5h-37l-1-1v-7l13-41 14-43 5-8 5-3zm14 10-26 1-4 6-19 57-6 17v3l35 2v16l-4 40 1 4 6-7 12-17 13-18 13-19 9-12 5-7v-2l-38-1-2-1 1-6 9-20 13-27 3-5v-4z" />
<path transform="translate(1518,606)" d="m0 0h44l7 1-1 8-22 46-4 7 32 1 10 1 1 5-10 16-11 15-10 14-13 18-8 11-12 17-9 12-5 5-7-2-2-3 3-42 2-21 1-5h-37l-1-1v-8l12-36 14-44 4-8 5-5 3-1zm14 10-24 1-4 5-6 17-12 36-8 23v2l25 1 9 1 1 1v16l-4 43 4-2 8-12 13-18 14-20 12-17 8-11v-3h-40l2-10 20-41 5-10v-2z" />
<path transform="translate(1412,472)" d="m0 0h15l27 1 1 5-7 16-11 23-9 17v1l39 1 4 1-1 6-9 14-13 18-10 14-13 18-12 17-14 19-5 5-7-1-3-4 3-38 3-29h-36l-2-1v-7l12-37 14-41 4-11 5-5 4-1zm-18 11-5 8-22 65-3 10 36 1-1 20-3 34v7l5-5 36-51 13-18 5-8-41-1 2-10 11-23 9-17 5-12z" />
<path transform="translate(771,1087)" d="m0 0h30l1 1 2 37 1 18v17l-11 2-35 2-13-1-11-4-8-7-7-11-2-6v-16l4-11 6-8 9-6 11-4 12-2zm1 10-19 2-10 3-9 6-5 8-1 4v12l4 9 5 6 10 5 12 2 26-1 9-1 1-2-2-43-1-10z" />
<path transform="translate(968,532)" d="m0 0 16 1 7 2v13l-3 14-6 8-5 2h-15l-11-2-2-4 2-18 4-10 4-4zm-3 11-3 7-1 10 7 2 7-1 3-4 2-9v-4l-2-1z" />
<path transform="translate(1976,997)" d="m0 0h20v39l-1 12-20-1v-48z" />
<path transform="translate(1982,923)" d="m0 0h11l3 29v21l-7 1h-13l-1-1-2-49z" />
<path transform="translate(948,1975)" d="m0 0h33l16 1 1 1v19h-39v-2l-11 2-1-8z" />
<path transform="translate(1775,376)" d="m0 0 5 1 10 13 14 18 4 6v3l-9 6-5 4-4-2-11-15-11-14-5-7 1-4 10-8z" />
<path transform="translate(247,1626)" d="m0 0 3 1 8 10 10 11 7 8 6 7-13 13-4-1-13-14-18-22 1-3 9-7z" />
<path transform="translate(120,520)" d="m0 0 5 1 13 7-1 5-20 40-5-1-14-7 2-6 11-20z" />
<path transform="translate(202,1568)" d="m0 0 3 1 7 11 11 14 10 13-5 5-9 8-4-2-14-18-11-15-3-6 11-8z" />
<path transform="translate(124,1444)" d="m0 0 4 1 18 33 4 7v3l-15 9-3-1-16-29-7-15z" />
<path transform="translate(1495,134)" d="m0 0 6 1 28 17 10 7-1 4-8 13-6-2-17-11-20-12 1-5 5-8z" />
<path transform="translate(349,1731)" d="m0 0 4 2 14 12 11 9 10 8-3 5-8 11-5-2-14-12-11-9-10-9 2-4z" />
<path transform="translate(93,1377)" d="m0 0h3l16 35 4 8v3l-16 8-3-1-18-40-1-6 14-6z" />
<path transform="translate(59,656)" d="m0 0 6 1 12 4 1 4-12 36-4 9-18-6 1-7 12-35z" />
<path transform="translate(249,337)" d="m0 0 4 2 8 7 4 4-13 15-18 22-2 1-14-11-1-2 9-11 12-14z" />
<path transform="translate(1618,218)" d="m0 0 5 1 14 12 11 9 10 9-2 4-9 11-4-1-14-12-13-11-9-7 4-6z" />
<path transform="translate(405,1777)" d="m0 0 5 2 13 10 16 11 7 5-1 4-8 13-4-1-16-11-18-13-4-3 1-4z" />
<path transform="translate(1607,1762)" d="m0 0 5 5 8 10-5 5-16 13-18 13-4-2-9-13 5-5 15-11 16-13z" />
<path transform="translate(1662,1715)" d="m0 0h3l5 6v2h2v2l4 2-1 4-7 7-8 7-14 12-8 6-9-11-3-5 5-5 13-11 11-10z" />
<path transform="translate(296,1680)" d="m0 0 4 2 7 8 8 8 16 14 1 4-12 13-4-2-17-16-16-16 2-4z" />
<path transform="translate(161,1507)" d="m0 0 5 5 16 25 7 11-1 3-11 7-4 2-7-9-20-32v-3l14-8z" />
<path transform="translate(1878,1423)" d="m0 0 7 1 12 6-2 6-18 36-2 3-5-1-13-7 1-5 10-19 8-16z" />
<path transform="translate(1859,499)" d="m0 0h4l13 24 10 18-1 3-16 8-3-3-8-16-13-23v-3z" />
<path transform="translate(415,187)" d="m0 0 5 5 7 9-2 4-19 14-16 13-3 1-11-13v-4l13-10 18-14z" />
<path transform="translate(1051,1974)" d="m0 0h20l2 18-1 1-23 2-18 1h-9l-1-7v-13l1-1z" />
<path transform="translate(465,1820)" d="m0 0 5 1 18 11 17 10 4 4-9 16-6-2-17-10-17-11-4-3 2-5z" />
<path transform="translate(1894,565)" d="m0 0h4l16 35 4 11-16 7-4-2-19-42v-2z" />
<path transform="translate(201,395)" d="m0 0 4 1 10 7 3 3-7 11-13 18-8 11-2 1-2-1v-2l-5-2-8-6 2-5 10-13 13-19z" />
<path transform="translate(1727,319)" d="m0 0 4 1 12 13 9 11 7 7 3 4-1 4-9 7-3 3-4-2-11-12-9-11-9-9-1-4 7-7z" />
<path transform="translate(1844,1487)" d="m0 0 6 2 11 6v4l-10 18-11 17-3 5-5-1-12-8v-4l10-15 11-19z" />
<path transform="translate(17,1021)" d="m0 0 3 1 2 38v11l-6 1h-14l-2-20v-30z" />
<path transform="translate(1821,435)" d="m0 0 5 5 13 20 10 16v3l-12 7-4 2-6-8-21-33 1-3 10-6z" />
<path transform="translate(1558,174)" d="m0 0 5 1 19 13 17 12 1 4-10 14-8-4-16-12-17-12 1-4z" />
<path transform="translate(1548,1806)" d="m0 0h3l5 10 4 4v3l-17 11-22 14-4 1-6-9-4-7 11-8 18-11z" />
<path transform="translate(1908,1355)" d="m0 0 10 3 9 4-9 24-9 21-3 2-16-7-1-3 8-17 10-26z" />
<path transform="translate(87,587)" d="m0 0 5 1 13 5 1 3-10 23-8 20-4 1-15-6 1-7 12-28z" />
<path transform="translate(476,146)" d="m0 0 4 1 5 10 3 3-2 4-20 13-18 12h-3l-7-11-3-5 11-8 16-10z" />
<path transform="translate(945)" d="m0 0h29v19l-2 1-38 2h-9l-2-6v-13l16-2z" />
<path transform="translate(1713,1663)" d="m0 0 4 1 12 12-9 11-14 14-5 6-6 5-4-2-11-11 1-3 8-7 15-15 7-8z" />
<path transform="translate(300,283)" d="m0 0 4 2 11 11-1 3-8 7-14 15-10 11-4-1-7-7-5-4 2-4 13-13 7-8z" />
<path transform="translate(1675,266)" d="m0 0 4 2 7 7 8 7 18 18-1 4-10 9-3 2-6-5-7-8-13-12-9-9 2-4 7-7z" />
<path transform="translate(355,233)" d="m0 0 4 2 10 11-1 4-13 11-15 13-6 6-4-1-7-7-4-5 2-4 10-9 11-9z" />
<path transform="translate(542,109)" d="m0 0 3 2 3 8 4 6v2l-28 15-13 8-4-1-9-15 3-3 24-13z" />
<path transform="translate(528,1857)" d="m0 0 5 1 19 10 20 10 1 4-5 9-2 6-5-1-15-8-16-8-9-5-1-3z" />
<path transform="translate(1761,1608)" d="m0 0 4 1 12 9v3l-10 13-12 14-9 10-4-2-11-9 1-4 9-10 18-22z" />
<path transform="translate(1805,1549)" d="m0 0 4 1 13 8-1 4-15 22-8 11-4 5-5-1-12-10 6-9 14-19z" />
<path transform="translate(67,1309)" d="m0 0 4 1 10 29 6 14-2 4-13 5h-4l-8-20-8-24v-4z" />
<path transform="translate(44,1239)" d="m0 0h5l3 7 8 29 3 11-10 4-9 2-4-10-10-36v-3z" />
<path transform="translate(1973,1071)" d="m0 0h12l8 1-1 19-4 31-2 1-18-3 1-14z" />
<path transform="translate(159,456)" d="m0 0 4 1 11 7 2 1-2 6-11 17-11 19-4 1-14-8-1-2 13-22z" />
<path transform="translate(1933,1286)" d="m0 0 9 2 9 3-1 7-13 40-4 2-15-6-1-4 12-34 3-9z" />
<path transform="translate(1951,1215)" d="m0 0 12 2 7 2-1 10-9 36-1 3-8-1-11-3-1-2 9-35z" />
<path transform="translate(37,727)" d="m0 0 11 2 8 3-4 16-7 30-1 2-8-1-11-3 1-9 9-36z" />
<path transform="translate(997)" d="m0 0h51v12l-1 8-1 1-38-1-11-1z" />
<path transform="translate(1950,703)" d="m0 0 3 2 8 30 4 14v3l-17 5h-2l-5-16-8-29v-4z" />
<path transform="translate(1429,99)" d="m0 0 6 1 40 20-1 5-7 14-19-9-19-10-7-4 2-6z" />
<path transform="translate(1485,1845)" d="m0 0 4 1 8 16-17 10-20 11-6 3-3-1-7-14 1-4 25-13z" />
<path transform="translate(608,78)" d="m0 0h4l5 13 1 4-4 3-33 15-8 3-3-5-6-12 3-3 18-8z" />
<path transform="translate(593,1890)" d="m0 0 7 1 23 10 17 7-1 6-5 12-2 1-29-12-15-7-1-4 5-11z" />
<path transform="translate(19,799)" d="m0 0 17 3 3 2-5 29-4 19-11-1-8-2 1-13z" />
<path transform="translate(1924,633)" d="m0 0 4 1 16 44-1 3-14 5-5-1-10-29-5-13v-4z" />
<path transform="translate(1,947)" d="m0 0 19 1 1 1-1 41-1 7-1 1h-18v-50z" />
<path transform="translate(1361,69)" d="m0 0 7 1 26 11 14 7-1 5-6 13-6-2-40-17 1-5z" />
<path transform="translate(1291,44)" d="m0 0 6 1 36 12 7 3-6 18-6-1-41-14-1-4z" />
<path transform="translate(1966,1143)" d="m0 0 15 2 4 2-7 41-2 8-8-1-11-3-1-2 8-44z" />
<path transform="translate(731,1940)" d="m0 0 9 1 39 10 1 4-4 16-10-2-32-8-7-3 1-7z" />
<path transform="translate(663,1917)" d="m0 0 37 12 9 4-2 10-3 8-2 1-40-14-6-2 1-6 4-11z" />
<path transform="translate(1419,1880)" d="m0 0h5l5 12 2 5-14 7-21 9-11 5-8-16 1-3 19-9z" />
<path transform="translate(30,1167)" d="m0 0h4l3 13 6 29 1 7-13 3h-7l-5-22-4-23v-4z" />
<path transform="translate(7,873)" d="m0 0 14 1 6 2-2 21-2 25-1 3-18-1-2-1 4-42z" />
<path transform="translate(659,1189)" d="m0 0h7l5 3 3 6-1 5-4 6-11 11-11 7-2 1-9-1-4-4-1-7 3-7 12-12 10-7z" />
<path transform="translate(1352,1909)" d="m0 0 5 1 5 13v4l-20 8-23 8h-5l-5-14 1-5 32-11z" />
<path transform="translate(1978,849)" d="m0 0h7l6 46-1 4-18 2-2-6-5-40 1-4z" />
<path transform="translate(1146,11)" d="m0 0 11 1 34 6 5 2-2 13-2 6-12-2-33-6-4-2 2-16z" />
<path transform="translate(1283,1933)" d="m0 0h4l5 16-1 3-27 8-18 5h-3l-5-18 9-4z" />
<path transform="translate(22,1094)" d="m0 0 3 3 5 40v7l-15 3h-4l-2-9-4-33v-9z" />
<path transform="translate(677,52)" d="m0 0h4l5 14-1 5-34 12-9 4-3-1-6-14v-4l26-10z" />
<path transform="translate(749,30)" d="m0 0h3l5 18-5 3-39 11-5-1-5-15 1-3z" />
<path transform="translate(1965,776)" d="m0 0h6l4 16 5 27v6l-14 3h-5l-2-8-7-36v-5z" />
<path transform="translate(1219,25)" d="m0 0 9 1 32 8 8 3-2 11-3 8-48-12 1-8z" />
<path transform="translate(803,1957)" d="m0 0 10 1 35 6 4 2-2 18h-8l-39-7-4-2 2-11z" />
<path transform="translate(1073,2)" d="m0 0 41 4 7 1 2 3-2 15-1 2-45-4-5-2 2-18z" />
<path transform="translate(1140,1965)" d="m0 0 4 1 3 15v3l-9 2-38 5-4-1-2-14v-5z" />
<path transform="translate(1211,1952)" d="m0 0h5l2 7 2 11-9 3-24 5-17 2-3-14v-5z" />
<path transform="translate(892,5)" d="m0 0h7l2 13v5l-6 2-38 5h-5l-2-6-2-12 3-2z" />
<path transform="translate(821,15)" d="m0 0h4l3 13v6l-8 2-30 6-4 1h-7l-3-12v-7l29-6z" />
<path transform="translate(876,1968)" d="m0 0 48 5 1 4-1 15-3 1-41-4-7-2 1-13z" />
<path transform="translate(689,1266)" d="m0 0h9l8 2 5 4 1 7-4 6-3 3-13 3-9 1h-11l-7-8 1-7 5-5 8-4z" />
<path transform="translate(584,1145)" d="m0 0h5l7 6 2 6-4 20-4 8-7 6-5 1-5-5-3-6v-14l4-12 4-6z" />
<path transform="translate(814,566)" d="m0 0h11l10 6 5 8v9l-7 11-6 5-2 1h-8l-6-5-7-11-2-9 3-8 7-6zm3 10-4 4 1 6 6 8 5-1 4-4v-7l-5-5z" />
<path transform="translate(754,501)" d="m0 0h7l7 3 5 6 1 2v12l-6 10-7 7-8 1-5-3-7-8-3-6-1-7 5-10 9-6zm3 10-6 3-3 4v5l5 7h5l5-6 1-2v-7l-2-3z" />
</svg>
