<svg width="1024" height="1024" viewBox="0 0 1024 1024" fill="none" xmlns="http://www.w3.org/2000/svg">
<g clip-path="url(#clip0_2868_8339)">
<path d="M0 512V0H512H1024V512V1024H512H0V512ZM457 981.8C467.3 982.3 475.6 982.2 489 981.6C495.9 981.3 517.7 981 537.5 980.9C557.3 980.9 581.2 980.4 590.5 979.9C599.9 979.4 615.6 978.8 625.4 978.5C644 977.9 671.5 975 678.7 972.9C682 971.9 683.9 971.9 688.3 973C694.1 974.3 697 974.2 725 971.5C756.6 968.4 770.3 966.9 788.5 964.4C816.3 960.6 818.2 960.5 821.8 962.4C823.5 963.3 826 964 827.5 964C829.6 964 830 963.5 830 961C830 958.4 830.4 958 833.8 957.4C835.8 957 838.9 956.1 840.7 955.4C842.4 954.6 849 953.8 855.2 953.6C861.4 953.4 867.9 952.7 869.5 952C875.1 949.7 876.5 949.2 884 947C900.2 942.1 912.7 937.7 919 934.5C927.6 930.2 935.8 923.6 936.6 920.5C936.9 919.1 937.6 918 938.1 918C940.2 918 938.6 915.8 931.9 909.4C922.4 900.1 918.2 897.7 905.9 894.5C892 890.8 883 889.7 880.9 891.6C880.1 892.4 877.7 893 875.7 893C872.2 893 872 892.8 872 889.7C872 887.6 872.8 885.6 874 884.5C877.3 881.5 886 868.2 889.1 861.5C892.5 853.8 896 840.3 896 834.3C896 831.2 896.4 830 897.5 830C902 830 901.2 796.2 895.9 760.5C894.8 753.4 893.7 742.1 893.3 735.5L892.7 723.5L896.8 721.7C902.4 719.2 910.6 711.6 915 704.8C919.6 697.8 921.5 689.4 920.6 680.5C919.3 667.3 910.8 643.2 903.2 631C898.3 623 882.1 605.7 870.8 596.3L864 590.6V584.8C864 579.8 865 576.5 870.6 563.2C879.3 542.5 880 540.1 879.3 532.3C878.8 527.3 879 525.6 880.3 524.2C883.4 520.8 888.2 508.9 890.1 499.8C896.8 467.3 890.8 436.7 874.5 420.4C868.1 414 856.6 407.2 845.1 403.1C836.2 399.9 836.1 399.9 831.8 393.2C819.8 374.8 795.5 357.8 771 350.7C725.2 337.5 666.8 353.7 630.6 389.7C610.4 409.8 601.4 433.4 608 448.9C610.8 455.2 615.9 460 620 460H623V496.5C623 530.2 622.8 533.6 621 540.3C619.8 544.2 618.5 550.7 618.1 554.7C617.3 560.9 616.4 563.3 611.2 572.2C592.4 604.5 582 631.5 581.8 648.7C581.7 654.7 582.2 656.8 584.5 661.5C590.4 673.1 600.5 679.2 624.3 685.6C636.7 688.9 639 689.8 639.4 691.6C639.7 692.8 640.8 694.1 641.7 694.5C644.7 695.6 678.9 698.9 688.1 699C693.8 699 697.1 699.4 697.7 700.3C699.3 702.2 704.8 719.3 705.9 725.7C706.5 728.9 707.2 734.8 707.6 738.8L708.3 746H704.5C702.4 746 697.7 744.8 694.1 743.3C684.3 739.3 674.8 739.5 665.8 743.7C650.7 750.8 642.2 765.8 639.1 791.1C638.1 798.5 638.3 806.4 640.6 852.3L641.3 866H637.7C634.5 866 634 865.7 634 863.8C634 862.5 633.6 861 633.2 860.4C632.3 859 624 857.3 614 856.5C595 855.1 500.1 854.4 467.5 855.4C409.1 857.3 374.6 858.9 355.9 860.6L348.3 861.3L347.7 819.9C347.1 783.8 345.5 742.3 343.5 712.5C341.9 689.7 337.1 647.7 329.9 593.5C327.5 574.8 327 568.9 327.8 566.6C328.6 564.6 328.6 553.2 328 528C327 491 327.4 481.7 330.7 471.4C332.3 466.1 332.4 466 336.2 466C339.1 466 340.3 466.6 341.5 468.4C345.5 474.4 373.6 489.3 395.3 496.9C407.5 501.1 432.2 508.1 442.1 510L447.7 511.1L455.6 521.6C473.4 545.6 484.6 550.6 505 543.8C509.1 542.4 514.2 541 516.4 540.7C520.6 540 523.3 538 525.9 533.8C528.4 529.8 537.6 524 541.4 524C543.2 524 547.3 524.9 550.6 526C553.8 527.2 559.2 528.4 562.5 528.7C567.5 529.1 568.9 528.9 571 527.2L573.4 525.2L571 521.6C566.3 514.7 514.1 471.3 506.2 467.8C500.2 465.1 489.6 463 481.7 463C475.2 463 474.8 462.9 468.7 458.1C460.1 451.4 451.3 446.8 423.7 434.6C410.6 428.8 398.6 423.2 397.1 422C394.3 420.1 386 407.1 380.7 396.5C379.4 393.8 375.8 385.4 372.7 378C366.7 363.2 357.3 343.3 355.9 342.4C355.4 342.1 355 340.3 355 338.4C355 335.1 355.1 335 358.9 335C368.5 335 384.6 326.9 389.4 319.5C391 317.1 391 316.4 389.9 314.3C389.2 312.9 387.3 310.9 385.8 309.8C381.9 307.1 380 303 380 297.5C380 290.7 382.3 286.8 390 280.5C397.7 274.4 400 273.9 405.5 277.1L409.2 279.3L416 272.5L422.7 265.8L429.1 266C438.6 266.3 438.9 266.3 442.1 263.1C446.1 259.1 445.8 256.2 440.5 249.2C438 245.9 436 242.5 436 241.5C436 239.2 434 235.8 431.8 234.2C430.3 233.1 430 231.5 430 225.6C430 219.8 430.8 216.1 434 206.6C439.2 191.4 440.4 180.6 438.8 165.7L437.6 155L442.7 150.2C446 147.3 448.9 143.3 450.6 139.7C453 134.3 453.1 133.5 452 129.4C450.5 124 443.6 116 437.4 112.4C435 111 429.5 108.3 425.2 106.5C420.9 104.7 414.5 101.1 411 98.4C401.8 91.4 381.5 79.5 371.2 74.9C352.4 66.7 332.8 62.7 310.5 62.6C293 62.5 284.8 63.8 269.3 68.9C255.4 73.6 243.8 80.4 234.5 89.5C223.1 100.8 217.8 109.4 209 131.5C197.5 160.3 193.8 165.6 173.6 183C155.6 198.4 144.6 209.5 139.5 217.5C127 236.9 127.8 257.1 141.6 272.8C146.7 278.6 155.1 284 159.1 284C161.6 284 170.1 279.2 171.4 277.1C171.8 276.5 173.7 276 175.6 276C178.8 276 179 276.2 179 279.4C179 287.4 184.1 296.4 192 302.4C196.1 305.6 197 306.8 197 309.4C197 312.4 196.7 312.6 190.7 314.3C169.5 320.5 133.8 342.9 90.5 377.5C67.7 395.7 60.2 404.4 55.9 417.5C53.7 423.9 53.7 424.8 54.8 435.1C57.4 458.1 71.6 488.1 91.1 511.5C95.3 516.5 100.2 521.9 102.1 523.5C104 525.2 106.8 529 108.4 532C115.7 545.6 124.6 554 135.1 557.1L139.3 558.4L138.7 573.5C138 590.1 135.6 646.2 134 684C132 729.4 128.5 783.5 123.5 843C121.9 862 121.4 872.8 122 873.4C123.1 874.5 123.3 885 122.4 889.6C121.9 892.2 121.1 892.7 113.7 895C109.2 896.3 103 898.7 99.9 900.2C92.8 903.7 83 913.2 83 916.5C83 921.6 93.3 930.1 105.3 934.9C110.1 936.9 111.3 937.9 112.6 940.9C113.4 942.9 114.9 945.4 115.9 946.5C116.9 947.6 118 949.2 118.2 950C118.5 951 119.4 950.3 121.1 947.8C123.2 944.5 124 944 127.5 944C129.7 944.1 135.6 945.2 140.5 946.6C171 955.2 190.7 959.2 205.5 959.9C212.9 960.2 219.4 961 220.5 961.7C223.7 963.7 234.7 966 240.7 966C243.8 966 250.4 966.6 255.4 967.4C260.4 968.2 272.6 969.6 282.5 970.4C292.4 971.3 305.7 972.4 312.1 973C318.4 973.5 328.2 974 333.7 974C339.7 974 346.4 974.7 350 975.6C353.9 976.6 360.2 977.1 366.9 977.1C394.8 976.9 426.1 978.5 429.4 980.2C430.5 980.8 434.4 981.2 438.1 981.1C441.9 981 445.1 981.4 445.5 982C445.9 982.7 447 982.8 448.3 982.3C449.5 981.9 453.4 981.6 457 981.8ZM693.3 298.5C728.6 290.6 745.4 282.5 764.1 264C771.9 256.4 781.2 244.2 783.5 238.6C784.2 236.9 785.7 234.4 786.8 233C790.1 228.8 791.7 224.9 793.8 216C801.7 183.3 792 151.2 766.8 126.3C745.8 105.6 714.7 88.7 695 87.3C691.4 87 686.1 85.9 683.1 84.8C679.1 83.2 675.9 82.7 670.1 82.9C659.5 83.2 648.8 83.2 636.3 82.9C623.2 82.6 606.1 86.1 593.5 91.7C589.1 93.6 583.3 96.2 580.5 97.4C557.9 107.1 535.4 128.2 525.1 149.5C519.9 160.2 517.3 168.4 515.9 178.8C514 192.9 514.9 198.4 522.6 220.5C524.5 225.9 527.8 231.8 531.6 236.3C533.2 238.2 534 240.4 534 242.8C534 246.7 533.6 247.1 509.1 274.1L502.6 281.2L509.6 280.7C524 279.8 540.8 277.8 548.5 276C552.9 275 559.3 273.9 562.8 273.5L569 272.8L581.8 280.3C593.1 287.1 605 292.2 616 295.1C639.6 301.3 642.1 301.7 662.7 301.9C676.6 302 679 301.7 693.3 298.5Z" fill="#F8F4EF"/>
<path d="M200 876.5C200 872.2 204.8 839.6 214 782C216.2 768 220.5 740.8 223.5 721.5C226.5 702.3 230.1 679.8 231.5 671.6C232.9 663.4 234 656.5 234 656.3C234 656.1 235.5 656 237.4 656C241.4 656 241 655.1 244.4 671.5C249.9 698.6 267.1 817.1 272.7 866.5L273.2 871.6L257.4 873.3C248.6 874.3 239.5 875.5 237 876C226.8 878.1 207.7 881 204 881H200V876.5Z" fill="#F8F4EF"/>
<path d="M142 479.3C129.3 452.7 125.2 439 130 439C131.1 439 139.1 435.4 147.7 431C158.3 425.6 164.6 423 166.9 423H170.3L169.6 429.8C168.1 444 161.6 467.8 155.3 482.3C152.9 487.5 152.5 488 149.5 488C146.4 488 146 487.6 142 479.3Z" fill="#F8F4EF"/>
<path d="M469 988.5C467.2 985.1 457.7 983.8 448.8 985.7C445 986.5 443.8 986.4 442.9 985.4C442.3 984.6 441.1 984 440.4 984C439.6 984 439 983.1 439 982C439 980.9 439.7 980 440.5 980C441.3 980 442 979.6 442 979.1C442 977.1 448.9 975.5 458 975.5C466.5 975.5 468 975.8 472.4 978.3C475.1 979.8 478.4 981 479.6 981C483.2 981 482.7 984.3 478.9 985.7C477.1 986.4 475.3 986.7 474.9 986.4C474.4 986.1 474 986.5 474 987.2C474 987.9 473.2 989 472.1 989.7C470.6 990.7 470.1 990.5 469 988.5Z" fill="#EEE9EF"/>
<path d="M819.5 965.7C817.3 964.7 814.5 964.1 813.3 964.3C810.5 964.8 810.3 962.8 812.6 958.2C814.3 954.6 816.3 954.1 828.5 953.7L836.5 953.5L836.8 956.8C837.1 959.5 836.7 960.3 835.1 960.7C833.6 961.1 833.2 961.9 833.5 964.1C833.7 965.7 833.4 967.1 832.9 967.1C828.2 967.8 822.9 967.2 819.5 965.7Z" fill="#EEE9EF"/>
<path d="M114.2 961.1C113.2 960.5 113.2 960.1 114.4 959C116.4 957.4 115.6 952.3 113 949.5C111.9 948.4 110.4 945.8 109.6 943.9C108.8 941.9 107.4 940 106.5 939.7C104.1 938.7 104.8 937.2 108 936.5C109.6 936.1 111 935.4 111 934.9C111 934.4 113.7 934 117 934C122.1 934 123 934.3 123 935.8C123 936.7 124.6 938.8 126.5 940.4C130.3 943.6 131.2 947 128.2 947C127.2 947 125.7 948.3 124.8 949.8C123.9 951.3 122 953.7 120.7 955.1C119.3 956.4 118.1 958.4 117.9 959.4C117.4 961.6 116 962.3 114.2 961.1Z" fill="#EEE9EF"/>
<path d="M639 304C634.2 303.4 628.5 302.1 613 298.1C602.6 295.4 589.2 289.7 579.1 283.5C565.9 275.6 565.9 275.6 549.5 279.4C544 280.6 536.8 281.8 533.5 281.9C530.2 281.9 524.6 282.5 521 283.1C517.4 283.7 511.1 284 507 283.8C496.5 283.4 496.4 281.8 506.4 270.8C510.6 266.2 517.9 258.1 522.6 252.7C531 243.2 531.2 242.9 529.6 240.7C524.6 234 521.1 227.9 519.6 223.5C513.3 205.2 512.7 203.1 512.3 194C511.3 176.8 514.3 162.4 522.1 146.5C532.4 125.2 554.9 104.1 577.5 94.3997C580.3 93.1997 586.1 90.5997 590.5 88.6997C599.6 84.6997 617.1 80.4997 630.6 79.1997C637.6 78.4997 641.3 78.5997 646.6 79.6997C652.3 80.8997 654.7 80.9997 660.2 79.8997C668.3 78.3997 680.3 79.2997 686.3 81.8997C688.6 82.8997 693.7 83.8997 697.5 84.1997C717.8 85.6997 748.6 102.4 769.8 123.3C791 144.2 801.3 170.6 799.6 199.5C798.6 215.9 795 229.3 789.8 236C788.7 237.4 787.2 239.9 786.5 241.6C784.2 247.2 774.9 259.4 767.1 267C748.4 285.5 731.6 293.6 696.3 301.5C681.5 304.8 680 305 662.7 304.9C652.7 304.8 642 304.4 639 304ZM727.9 252.5C746.1 248.2 760.4 233.1 765.6 212.9C767.9 203.9 767 195.6 762.7 186.6C752.7 165.6 730.9 154.7 711.1 160.9C693.6 166.3 678.3 184.3 675 203.3C671.1 225.2 685.4 246.3 708.3 252.5C715.1 254.3 720.1 254.3 727.9 252.5ZM626.2 223.9C628.3 222.8 630 221.7 630 221.4C630 221.2 629 221.5 627.8 222.2C625.2 223.5 613 223.9 608.8 222.7C604.5 221.6 604.9 216.7 609.8 211.6L613.5 207.6L609.1 211.3C605.5 214.3 603.8 215 600.4 215C596.3 215 595.9 214.8 591.6 208.6C586.1 200.9 584 196.3 584 191.5V187.8L594.1 188.6C604.2 189.3 604.3 189.3 608.2 193.1C610.4 195.2 613 197.2 614.1 197.5C615.5 198 616 199.1 616 201.9C616 203.9 615.4 206.2 614.8 207C614.1 207.8 615.9 206.3 618.9 203.7C624.1 199.1 624.4 199 630.7 199H637.2L636.8 205.3C636.6 208.7 635.7 213 634.8 214.8C633.9 216.6 633.6 217.8 634.1 217.4C635.9 216.3 639.8 207.4 640.5 202.7C641.1 198.9 641.6 198 643.2 198C646.5 198 653.6 190.1 655 185C656.9 177.8 653.4 165.7 646.4 154.8C644.8 152.4 644.8 151.5 645.9 145.3C647.4 137.6 646.5 134.5 641.9 130.5L639.5 128.5L641.8 131.1C644 133.7 644.7 139.6 643.4 144.8C642.6 147.6 638.4 147.8 633.1 145C628.6 142.7 623 133.8 623 128.9V125.8L628.3 126.2C631.1 126.5 634.4 127 635.5 127.4C636.6 127.7 635.7 127.1 633.5 126C630.4 124.4 628.5 124.1 625 124.6C619.2 125.4 613.8 125.4 607.3 124.5C593.7 122.6 573.8 134.9 566.5 149.7C563.5 155.9 563 160.5 564.5 169.7C565.1 174.1 564.9 175.8 563 180.2C558.6 190.2 560.5 198.4 569.5 208.7C575.9 216 584.2 220 594.6 220.7C598.9 221 603.4 221.8 604.6 222.5C611.9 227.1 619 227.6 626.2 223.9Z" fill="#FDEBC8"/>
<path d="M719.399 235.2C717.299 233.6 714.899 231.6 714.099 230.7C712.299 228.4 711.299 228.6 707.799 231.5C704.599 234.2 699.299 234.9 697.199 232.8C695.199 230.8 695.799 224.6 698.199 221.5C700.999 217.9 705.799 216 712.199 216C717.599 216 721.999 217.9 726.699 222.3C728.299 223.7 730.399 224.3 734.199 224.4L739.499 224.5L739.799 229.7C740.199 236.4 738.199 238 729.399 238C724.299 238 722.699 237.5 719.399 235.2Z" fill="#FDEBC8"/>
<path d="M703.5 214C703.1 213.4 701.9 213.2 700.9 213.5C699.8 213.9 696.7 213.9 693.9 213.5L689 212.8V207C689 196.6 689.2 196.4 701 195.6C706.6 195.2 711.4 195.1 711.7 195.4C712 195.6 711.9 200.2 711.5 205.4L710.8 215H707.4C705.6 215 703.8 214.5 703.5 214Z" fill="#FDEBC8"/>
<path d="M722.199 208.2C722.999 197.2 723.299 197 734.999 197H744.999V200.2C744.999 202 744.399 205.9 743.799 208.8L742.499 214.2L736.399 213.5C732.399 213.1 729.999 213.2 729.499 213.9C729.199 214.5 727.299 215 725.299 215H721.699L722.199 208.2Z" fill="#FDEBC8"/>
<path d="M579.499 215.1C575.199 213.2 568.099 206.1 565.599 201.2C563.799 197.6 563.399 183 564.999 179.9C565.699 178.7 567.099 178 568.799 178C571.399 178 571.499 177.8 571.199 173.9C570.799 170 571.099 169.5 577.599 162.9C583.299 157.2 584.999 156 587.699 156C590.799 156 590.999 156.2 590.999 159.8C590.999 162.6 589.999 164.9 586.999 168.9C584.799 171.8 582.699 175.3 582.399 176.7C581.799 178.9 581.299 179.1 577.299 178.8C572.899 178.5 572.899 178.5 575.199 180.2C579.599 183.6 579.999 184.1 579.999 186.4C579.999 190.3 582.699 196.7 587.499 204C590.299 208.4 591.999 212.2 591.999 214C591.999 216.9 591.799 217 587.799 217C585.399 217 581.699 216.1 579.499 215.1Z" fill="#FDEBC8"/>
<path d="M611.8 194.599C610.8 193.899 610 191.999 610 190.299C610 187.899 610.9 186.699 614.4 184.199C619.5 180.499 624.7 179.999 627.3 182.799C629.6 185.399 629.5 192.199 627.2 194.299C624.9 196.399 614.3 196.599 611.8 194.599Z" fill="#FDEBC8"/>
<path d="M636.2 192.4C633.5 188.3 633.6 187 636.5 173C639.3 159.6 639.6 159 644 159C647.5 159 647.9 159.3 649.8 163.8C652.5 169.9 653.4 177.4 652.5 184.6C651.6 192 648 196 642.3 196C639 196 638.2 195.5 636.2 192.4Z" fill="#FDEBC8"/>
<path d="M601.8 184.3C600 182.2 598 175.7 598 171.8C598 169.1 598.2 169 602.8 169C605.8 169 609.3 169.9 612 171.3C616.2 173.3 616.5 173.8 616.5 177.5C616.5 180.8 616 181.8 613.1 183.7C609.1 186.4 603.9 186.7 601.8 184.3Z" fill="#FDEBC8"/>
<path d="M615.1 170.6C614.4 169.8 612.7 168.9 611.2 168.6C609.7 168.2 606.1 167.2 603.3 166.4C598.3 165 598 164.8 598 161.7C598 156.5 600.9 148 603.5 145.4C605.7 143.2 606.7 143 615.8 143C623.4 143 626 143.4 627 144.5C629 146.9 627.8 161.5 625.2 167.3C623.3 171.6 622.8 172 619.7 172C617.8 172 615.7 171.4 615.1 170.6Z" fill="#FDEBC8"/>
<path d="M566.299 159.1C566.999 150.3 570.199 144 576.899 137.7C584.599 130.5 595.999 126 606.599 126C609.799 126 609.999 126.2 609.999 129.3C609.999 133.4 602.399 143.3 597.099 146C592.499 148.3 584.399 154.7 577.799 161.1C573.699 165.1 572.099 166 569.299 166H565.699L566.299 159.1Z" fill="#FDEBC8"/>
<path d="M427.5 983.5C425.3 982.7 420.8 982 417.5 981.9C414.2 981.9 410.5 981.5 409.2 981.2C408 980.8 401.7 980.8 395.2 981.1C388.8 981.4 381.9 981.3 380 980.8C378.1 980.3 371.2 980 364.7 980C357.6 980 350.4 979.5 346.7 978.6C343.3 977.8 332.9 976.9 323.5 976.5C314.2 976.2 304.3 975.7 301.5 975.4C298.8 975.2 289.1 974.3 280 973.5C270.9 972.6 261.1 971.8 258.2 971.5C255.2 971.2 252.4 970.8 251.9 970.5C251.4 970.1 246 969.5 239.8 969C233.6 968.5 227.8 968 227 967.8C226.2 967.5 223.9 967 222 966.6C220.1 966.1 217.6 965.2 216.5 964.4C215.2 963.6 210.6 963.1 202.7 963.1C196.3 963.1 190.5 962.8 189.9 962.4C188.8 961.8 181.2 960 162 956C156.2 954.8 148.1 952.8 144 951.5C139.9 950.2 134.4 948.6 131.9 948C127.1 946.8 120 941.4 120 938.9C120 937.2 114.9 936.9 113.8 938.4C110.7 942.8 91.1997 934.7 83.2997 925.6C76.9997 918.5 77.5997 913.4 85.6997 905.5C92.1997 899.1 98.9997 895.5 110.7 892C115.4 890.6 119 888.9 119 888.3C119 887.6 119.7 887 120.5 887C122.2 887 122.4 891.8 121 904.5C120.1 913.5 121.1 921.4 123.6 924.2C129.2 930.3 168.4 937.7 200.6 938.7C218 939.3 219 939.2 223.4 937C229.4 934.1 231.7 930.1 229.9 925.6C227.6 919.9 221.1 912.4 207.5 900.1C195.2 889 194 887.6 194 884.5C194 882.1 194.9 880.3 197.1 878.1C200.4 874.8 203 874.1 203 876.5C203 877.3 203.3 878 203.8 878C206.5 878 231.5 873.6 235.6 872.3C238.5 871.5 241.2 871 241.7 871.3C242.2 871.6 247.7 871.2 253.8 870.4C259.9 869.6 266 868.9 267.4 868.8C269.4 868.6 269.9 868.2 269.4 866.7C268.9 865.2 269.3 864.9 271.7 865.2L274.5 865.5V886.5C274.5 918 273.7 917.3 312.5 920.5C334.4 922.4 375.5 923 386.4 921.7C392.1 921 393.8 920.3 396.8 917.5C400.2 914.4 400.3 914.2 399 911.1C396 903.8 382.5 893.6 356 878.7C344.3 872.1 344 871.8 344 868.4C344 866.3 344.8 864.2 346 863C347.1 861.9 348 859.7 348 858C348 856 348.5 855 349.5 855C350.3 855 351 855.7 351 856.6C351 858 351.7 858.1 354.8 857.6C365.7 855.7 474.4 851.4 509.5 851.5C576.1 851.8 619.7 853 630.1 855.1C635.3 856.1 636.1 856.6 636.6 858.9C637.6 863.7 637.8 863.5 638 858C638.1 853 638.2 852.7 639.3 855C639.9 856.4 640.7 857.7 641 858C641.7 858.6 644 871.6 644.7 878.6C645.2 883.2 645 883.9 643.2 884.4C639.7 885.5 628.7 893 624.2 897.3C618.8 902.5 613.5 909.7 611.5 914.3C610.2 917.6 610.2 918 612.1 920.4C614.9 924 619 925.5 629.6 927C640.8 928.6 666.9 927.7 673.2 925.5C680.7 922.9 682.6 923.4 684.9 928.4C689.8 939.6 712.6 945.5 741.9 943.1C768.8 940.9 790.4 936 797.9 930.3C802.2 927 803.9 922.8 804.6 913.7L805.3 906.3L819.9 906.4C834 906.5 834.8 906.4 844 903.2C853.9 899.7 860.6 896.1 867.6 890.4C869.9 888.5 872.1 887 872.5 887C873 887 874.6 885.8 876.1 884.4C880.3 880.4 881.9 881.9 878 886.3C874.5 890.4 875.3 891.5 878.9 887.6C881.1 885.3 881.4 885.2 885.1 886.5C887.3 887.3 890.5 887.9 892.3 887.8C894.1 887.8 899.6 888.9 904.5 890.3C909.5 891.6 914.8 893.1 916.3 893.4C920.7 894.4 927.2 898.9 934.4 905.9C943.2 914.3 944.7 917.2 941.6 920.2C940.9 921 939.9 922.6 939.6 923.8C938.6 926.8 930.2 933.4 922 937.5C915.7 940.7 903.2 945.1 887 950C878.2 952.6 877.1 953 870.7 955.9C868 957.1 865.4 957.7 864.8 957.4C862.9 956.2 847.1 957 843.3 958.5C841.2 959.3 838.2 960.1 836.5 960.2C834.1 960.4 833.5 960.1 833.5 958.6C833.5 955.9 831 955.3 829.3 957.6C828.5 958.7 827.6 959.1 827.2 958.5C826.2 957.1 820.3 956.7 819.5 958C819.2 958.6 818.4 958.8 817.9 958.5C817.4 958.1 816.6 959 816 960.4C815.5 961.8 814.2 963.4 813.1 963.9C810.8 965.2 780.7 969.2 752.5 972C741.5 973.1 728.3 974.4 723.1 975C706.6 976.8 689.5 977.4 686.1 976.2C683.7 975.4 682.1 975.4 679.1 976.5C676.9 977.2 672.3 978.1 668.8 978.5C665.3 978.8 658.7 979.6 654 980.1C649.3 980.7 636.7 981.4 626 981.6C615.3 981.8 605.2 982.2 603.5 982.6C600.4 983.2 576.7 983.6 513 984.2L475.4 984.5L469.5 981.5C464.8 979.1 462.5 978.5 457.4 978.6C451.4 978.7 445 980.4 445 982C445 982.9 437 985 433.8 985C432.5 984.9 429.7 984.3 427.5 983.5Z" fill="#E3DCEE"/>
<path d="M711.6 945.9C696 943.9 685 938.6 681.9 931.5L680 927.2L675.8 928.7C669.7 930.8 638.7 931.7 626.9 930C616.1 928.6 611.9 927 609.1 923.4C604.8 917.9 607.8 909 617.8 898C623.1 892.1 635.5 882.9 640 881.5C641.1 881.1 642 880.2 642 879.3C642 877.5 643 877.7 655.5 882.1C664.3 885.2 664.9 885.3 690.5 886.2C716 887.1 716.7 887.2 727 890.5C743.9 895.9 747.5 896.2 779.5 895.9L808.5 895.5L809.7 899C811.4 903.9 811.3 909 809.6 909C808.7 909 808.1 911.2 807.7 916.5C806.9 925.8 805.2 930 800.9 933.3C788.9 942.4 739.1 949.4 711.6 945.9Z" fill="#8CB7E5"/>
<path d="M865.501 727.7C851.501 724 840.301 712.9 830.501 693.1C822.601 677.1 814.101 649.2 810.401 627C809.501 621.2 808.401 616.1 808.001 615.7C807.601 615.2 805.001 619.1 802.201 624.3C792.901 642 781.601 655 771.401 659.7C766.301 662 765.001 662.2 754.701 661.8C745.001 661.5 742.801 661.1 738.401 658.7C735.501 657.3 731.301 653.9 728.901 651.2L724.501 646.2L716.201 645.5C702.301 644.4 680.801 638.4 669.001 632.5C666.501 631.2 661.401 628.2 657.801 625.7L651.201 621.3L647.101 635.9C640.301 660.6 637.501 678.1 638.701 689.3C639.201 694.2 639.001 695 637.601 695C636.701 695 636.001 694.4 636.001 693.8C636.001 693 630.301 691 621.401 688.6C597.401 682.1 587.401 676.1 581.401 664.3C578.701 658.9 578.501 657.7 578.701 648.5C579.001 628.4 588.301 603.4 608.201 569.2C613.401 560.3 614.301 557.9 615.101 551.7C615.501 547.7 616.801 541.2 618.001 537.3C619.801 530.6 620.001 527.2 620.001 496.5C620.001 467.4 619.801 463 618.501 463C617.701 463 617.001 462.4 617.001 461.7C617.001 461 619.401 459.9 622.801 459.1C629.001 457.7 670.701 443.9 677.801 440.8C680.201 439.8 683.701 439 685.601 439C688.801 439 689.001 439.2 689.001 442.4C689.001 445.1 687.801 447 682.901 452.4C679.501 456.1 675.501 459.7 673.901 460.6C672.301 461.4 671.001 462.4 671.001 462.8C671.001 464.1 686.201 462.9 696.001 460.9C718.801 456.1 735.601 450 750.901 440.8C754.901 438.4 758.401 437 760.601 437H764.001L763.901 444.3C763.801 451.5 765.001 456.2 768.801 463.6C772.401 470.6 776.901 475.4 787.801 483.5C797.601 490.9 798.801 492.1 802.201 498.8C805.601 505.3 806.001 505.8 807.001 503.9C808.501 501.1 813.901 498 817.301 498C819.101 498 821.201 496.8 823.401 494.5C826.601 491.2 827.201 491 833.401 491C839.601 491 840.001 491.2 842.301 494.3C843.701 496 845.001 499.5 845.401 502C845.701 504.5 846.301 508.3 846.701 510.5C847.401 514.5 847.401 514.5 848.001 511.5C848.301 509.9 848.201 506.6 847.701 504.3C847.301 502 847.001 498.4 847.201 496.3C847.501 492.7 847.701 492.5 851.301 492.2C855.601 491.8 861.101 494.7 863.701 498.6C864.801 500.4 866.101 501 868.701 501C873.201 501 876.701 504.7 880.901 513.6C884.001 520.1 884.901 526.3 883.001 527.5C882.501 527.8 882.301 530.7 882.701 534.3C883.401 541.9 882.401 545.4 873.601 566.2C870.001 574.8 867.001 583.2 867.001 584.8C867.001 587 867.901 588.5 870.601 590.5C872.601 592 874.901 594.9 875.701 596.9C877.901 602.1 890.601 624.6 902.201 643.9C919.101 672 921.001 676.8 921.001 691.9C921.001 699.1 920.501 702.5 919.101 705.6C915.201 714.3 905.201 722.4 893.501 726.4C886.801 728.6 871.901 729.3 865.501 727.7ZM707.001 600C706.201 599.5 703.001 599.1 700.001 599.2L694.501 599.3L700.001 600C709.101 601.1 708.701 601.1 707.001 600ZM797.701 570.8C797.501 569.5 797.301 570.3 797.301 572.5C797.201 574.7 797.401 575.7 797.701 574.8C797.901 573.8 797.901 572 797.701 570.8ZM736.401 547C737.101 546.3 736.101 546 733.201 546C729.101 546 729.001 545.9 729.001 542.7C729.001 540.3 729.601 539 731.001 538.4C732.401 537.8 730.601 537.5 725.101 537.5L717.101 537.4L719.401 541.4C722.401 546.5 727.301 549.3 731.901 548.6C733.801 548.3 735.801 547.6 736.401 547ZM657.301 545.9C660.601 544.2 664.001 540.8 664.001 539.3C664.001 538.3 661.301 538 651.901 538H639.801L641.201 540.3C644.901 545.8 652.301 548.4 657.301 545.9ZM848.701 518.8C848.501 517 848.301 518.2 848.301 521.5C848.301 524.8 848.501 526.3 848.701 524.8C848.901 523.3 848.901 520.6 848.701 518.8ZM746.901 506.6C746.701 506.4 744.501 506 742.001 505.7C739.001 505.3 738.201 505.4 739.501 506C741.401 506.8 747.801 507.4 746.901 506.6Z" fill="#F8AE7A"/>
<path d="M140.3 569C137.9 566.4 136 563.6 136 562.8C136 561.9 134.3 560.8 131.9 560.1C121.6 557 112.6 548.5 105.4 535C103.8 532 101.8 529 101 528.3C99.1004 526.8 98.9004 527 113.4 517.5C125 509.9 129.4 506.1 140.9 493.6L146.3 487.8L153.9 488.2C160.3 488.6 162.7 489.3 168.8 492.5C177 496.8 181.1 501.2 185.8 510.6C192.4 523.8 193.7 537.1 189.6 548.5C186.9 556 183.7 560 180.5 560C178.9 560 177.8 561.3 176.1 565.5L173.8 571H168.3C165.3 571 162.1 570.6 161.1 570C159.7 569.3 158.8 569.6 157.2 571.5C155.4 573.6 154.2 574 149.8 573.9C144.8 573.8 144.3 573.5 140.3 569Z" fill="#F8AE7A"/>
<path d="M478.8 548.599C469.9 545.099 462 537.699 450.8 522.299C447.5 517.699 444.1 513.999 443.2 513.999C441.9 513.999 441.8 512.799 442.3 505.599C443.5 490.299 449.5 475.599 458.3 466.199C465.7 458.499 472.8 455.199 475.7 458.099C476.4 458.799 480.1 459.399 484 459.599C492.9 460.099 503.6 462.299 509.2 464.799C516.9 468.199 569.3 511.699 573.7 518.199C577 523.099 577.4 526.199 575.3 528.899C571.5 533.499 561.6 533.499 547.4 528.899L541.3 526.899L535.9 530.499C533 532.499 529.9 535.299 528.9 536.799C526.3 540.999 523.6 542.999 519.4 543.699C517.2 543.999 512.1 545.399 508 546.799C498.7 549.899 484.4 550.699 478.8 548.599ZM491.7 530.399C491.5 530.099 490.5 530.199 489.6 530.599C487.5 531.399 487.6 533.499 489.8 536.499L491.5 538.799L491.8 534.799C492 532.599 491.9 530.599 491.7 530.399Z" fill="#F8AE7A"/>
<path d="M281.5 353.7C278.8 352.9 274.5 351.3 272 350C262.3 345 250 328.7 250 320.7C250 317.8 250.6 316.9 253.8 314.7C263.3 308.4 271 287.7 271 268.6V261.5L265.7 259.2C249 251.9 240 237.7 240 218.5C240 188.2 263.7 170.7 284.8 185.2C289.6 188.5 295.8 197.3 297.9 203.8C299.7 209.2 301.3 209.2 311.7 204C318 200.9 321.3 198.3 327.6 191.7C331.9 187.2 336.9 181 338.5 178.1L341.5 172.8L351 173.4C369.8 174.4 397.7 170.6 413.5 164.9C421.8 161.9 432.2 156 434.9 152.7C436.5 150.7 443.6 150.4 444.3 152.3C444.5 152.9 443.9 154.4 442.9 155.6C441.1 157.5 441.1 158.3 442.1 165.6C443.2 173.7 442.7 189 440.9 196.7C440.4 199.1 438.4 205.6 436.5 211.1C434.6 216.7 433 223.1 433 225.3C433 227.9 432.4 229.7 431.3 230.5C429.6 231.8 429.6 231.9 431.3 233.7C432.2 234.8 433 237.1 433 238.8C433 240.6 433.5 242 434 242C434.6 242 435 241.6 435 241C435 240.5 435.9 240 436.9 240C438.1 240 440.6 242.4 443.4 246.1C447.5 251.5 448 252.8 448 257.5C448 266.7 442.3 270.8 431.2 269.5L425.5 268.9L418 276.4C413.9 280.6 410.1 284 409.6 284C409.1 284 406.6 282.7 404 281.1C399.8 278.5 399.1 278.4 397.8 279.6C396.5 280.9 395.9 280.9 392.7 279C387.3 275.8 379.3 275.3 374.4 277.8C366.2 282 360.8 291.1 362.9 297C364.7 302.2 369 306.9 374.5 309.6C380.3 312.4 382.7 312 386.2 307.7L387.8 305.6L390.8 308.8C395.1 313.4 395.7 317.1 392.9 321.6C388 329.7 372.1 338 361.8 338C358.1 338 357.9 338.2 359.1 339.7C360.4 341.2 359.6 341.3 348.5 340.7C341.9 340.4 334.4 339.5 331.8 338.7L327 337.2V340C327 343.4 321.4 348.7 314.1 352.1C308.3 354.8 289.5 355.7 281.5 353.7ZM407 230C409.1 225.9 409.6 220.5 408.1 218.2C406.1 215 400.6 228.6 402.1 232.8C403.2 235.7 404.5 234.9 407 230Z" fill="#F8AE7A"/>
<path d="M323 340.5C323.7 339.6 324 338.7 323.7 338.3C323.3 338 319 335.8 314 333.6C306.1 329.9 304.3 328.6 299.6 322.9C295 317.4 291.9 312 293.3 312C293.5 312 295.9 314 298.6 316.5C303.4 320.9 309.8 325 312 325C312.6 325 315.4 326.5 318.3 328.3C321.2 330.1 325.9 332.5 328.8 333.5C331.6 334.5 334 335.9 334 336.4C333.9 338.1 327.1 342 324.3 342C322.1 342 321.9 341.8 323 340.5Z" fill="#EBA07A"/>
<path d="M429.999 242.1C429.999 239.6 429.299 237.7 427.999 236.5C425.199 234 425.599 228.9 428.799 227.5C429.999 227 430.999 225.7 430.999 224.8C430.999 223.8 431.499 223 431.999 223C432.599 223 432.999 224.5 432.999 226.3C432.999 228.6 433.799 230.3 435.499 231.8C436.799 233 438.199 235.2 438.499 236.7C438.899 238.2 439.499 240.3 440.099 241.3C440.799 242.5 440.599 243 439.599 243C438.799 243 437.999 243.5 437.799 244.1C437.599 244.7 435.799 245.3 433.699 245.5C429.999 245.8 429.999 245.8 429.999 242.1Z" fill="#EBA07A"/>
<path d="M748.501 644.3C744.601 643.3 745.001 642.3 750.101 640.7C752.901 639.7 755.801 639 756.601 639C757.301 639 761.201 637.5 765.201 635.6C769.201 633.8 773.501 631.9 774.801 631.6C776.001 631.2 780.601 628.9 785.001 626.4C793.701 621.6 794.001 621.5 794.001 623C794.001 625.1 787.401 631.2 780.401 635.6C774.701 639.2 770.601 640.8 762.901 642.6C752.601 645 752.001 645.1 748.501 644.3Z" fill="#ED9761"/>
<path d="M641.5 608.8C634.5 602.6 625.2 589.5 623.4 583.2C621.1 575.4 620.3 564.4 621.6 558C622.5 553.6 622.8 553 623.3 555C628.7 578.9 629.7 582.4 634.1 591.8C636.8 597.5 640.8 604.4 643.1 607.1C645.4 609.8 647 612.3 646.8 612.6C646.5 612.8 644.1 611.1 641.5 608.8Z" fill="#ED9761"/>
<path d="M806.4 601.4C801.9 596.5 795.1 582.4 794.1 576.4C793.2 570.4 794 567.2 800.1 551.5C804.3 540.8 804.4 540.1 804.8 526.7C805.1 515.8 805.5 513 806.6 513C807.4 513 808 513.7 808 514.5C808 515.3 808.4 516 808.9 516C809.4 516 810.1 519.9 810.5 524.7C811.2 533.8 810.8 536.4 805 556.5C800.6 571.8 800.5 572.9 802.8 581.1C804 585.2 806.1 591.8 807.5 595.8C808.9 599.9 810 603.6 809.8 604.1C809.6 604.6 808.1 603.4 806.4 601.4Z" fill="#ED9761"/>
<path d="M174.8 558.3C176 556 174.6 543.3 172.5 537C170.7 531.6 164.5 521.6 161.2 518.6C158.7 516.4 158.3 513.5 160.4 512.7C162.3 512 172.3 524.1 176.1 531.6C179.6 538.7 180.9 547.9 179.1 553.1C177.7 557.1 178.4 557.9 181 555.5C183 553.7 183 553.7 181.9 556.8C181 559.6 180.3 560 177.4 560C174.4 560 174.1 559.8 174.8 558.3Z" fill="#ED9761"/>
<path d="M490.2 543.399C485.5 538.199 485 537.299 485 533.099C485.1 528.799 485.3 528.299 489 525.999C493.2 523.499 494.1 521.999 491.5 521.999C490.7 521.999 490 521.499 490 520.999C490 520.299 492.4 519.999 496.2 520.199C501.2 520.399 502.5 520.799 502.8 522.299C503 523.199 502.6 523.999 501.9 523.999C499.1 523.999 494.7 532.499 495.2 537.099C495.4 539.799 496.5 541.199 500.2 543.999C505.3 547.699 505 548.799 498.5 548.899C496 548.999 494.4 547.899 490.2 543.399Z" fill="#ED9761"/>
<path d="M641.8 545.7C638.6 544.3 633.8 537.5 634.2 535.1C634.5 533.9 635.4 533.6 638 533.8C639.9 534 647.7 534.2 655.3 534.3C667.8 534.4 669 534.5 669 536.2C669 537.2 668.6 538 668 538C667.5 538 667.3 538.7 667.6 539.5C668 540.5 667.6 541 666.2 541C665.1 541 663.6 541.7 662.9 542.7C659.5 546.7 647.8 548.4 641.8 545.7Z" fill="#ED9761"/>
<path d="M718.6 543.3C714.8 540 714.1 539 714.1 535.6C714 532.1 714.2 531.8 716.3 532.5C723.1 534.5 725.7 534.9 728.5 534C730.2 533.5 734 533.2 737 533.3C744.7 533.6 744.9 535.9 737.5 539.6C734.4 541.2 732.4 542.6 732.9 542.8C733.5 543 735.7 542.2 737.9 540.9C740.2 539.6 742.5 539 743.6 539.4C745 539.9 744.6 540.5 741.4 542.1C739.3 543.3 737 544.8 736.4 545.6C735.7 546.5 733.2 547 729.2 547C723.7 547 722.7 546.7 718.6 543.3Z" fill="#ED9761"/>
<path d="M845 535.8C845 524.6 843.9 511.5 842.6 507.5C841.7 504.8 841.2 502 841.4 501.3C841.7 500.6 841.5 499.8 841 499.5C839.9 498.8 840.7 496.2 842.8 493.8C843.9 492.5 845.8 492 849.2 492C853.2 492 854 492.3 854 493.9C854 495.1 853.3 495.7 852.3 495.6C850.9 495.5 850.6 496.2 850.8 498.5C850.9 500.2 851.3 507.6 851.6 515C852.2 530.5 851.1 536.3 847.2 536.8C845.9 537 845 536.6 845 535.8Z" fill="#ED9761"/>
<path d="M539.9 523.1C532.6 522.3 523.8 518.5 520.2 514.7C518.1 512.5 518.1 512.2 519.5 511C520.9 509.8 521.7 509.9 524.7 511.6C526.7 512.6 533.4 515.3 539.8 517.5C554.9 522.8 554.9 524.6 539.9 523.1Z" fill="#ED9761"/>
<path d="M680.7 928.7C679.1 924.5 685.5 911.7 692.7 904.9C702.8 895.4 709.7 891.6 715.3 892.3C720.8 893 722 894.6 718.4 896.1C707.5 900.6 704.3 902.6 698.8 907.7C693 913.3 682.8 925.9 681.8 928.9C681.5 930.1 681.2 930.1 680.7 928.7Z" fill="#6A9FD5"/>
<path d="M719 891.8C717.6 891.3 714.3 890.4 711.5 890L706.5 889.2L712.7 889.1C719.1 889 724 890.2 724 892C724 893.2 722.3 893.2 719 891.8Z" fill="#6A9FD5"/>
<path d="M228.5 581C210 578.9 161.5 568.2 169.7 568C170.3 568 171.8 565.5 173.1 562.5C174.8 558.3 175.9 557 177.5 557C178.7 557 180.7 555.9 181.9 554.6C184.8 551.6 189 540.1 189 535.3C189 526.7 183.1 511.6 176.4 503.4C172.3 498.3 160.9 492.1 154.2 491.3L149.3 490.8L143.9 496.6C132.4 509.1 127.9 513 115.9 520.9C109.1 525.3 103.1 529 102.4 529C99.8002 529 82.7002 508.9 74.5002 496.1C68.8002 487.3 60.3002 469.5 56.2002 457.9C50.9002 442.7 49.5002 424.3 53.1002 413.8C57.3002 401.2 65.0002 392.4 87.5002 374.5C130.7 340 164.3 318.8 186.8 311.6C193.5 309.5 193.8 309.3 192.3 307.7C189 304.4 195.9 305.7 204 309.9C212.8 314.4 223.2 318.3 231.2 319.9C235.8 320.9 237.9 320.8 242.8 319.6C246.1 318.7 250.5 318 252.6 318C256 318 256.2 318.1 254.5 319.3C252.8 320.6 252.9 321 256.1 327.1C260.3 335 268.9 343.9 275.5 347.2C282.6 350.8 291.1 352.4 299.7 351.6C308.9 350.9 314.4 348.3 322.7 340.8C328.5 335.5 329.6 334.9 332.4 335.3C344.2 337.5 348.1 338 352.6 338C355.9 338 358.2 338.5 359 339.5C361.1 342 370 360.9 375.7 375C378.8 382.4 382.4 390.8 383.7 393.5C389 404.1 397.3 417.1 400.1 419C401.6 420.2 413.6 425.8 426.7 431.6C453.8 443.6 463 448.4 471.4 454.8C477 459.1 477.2 459.4 474.9 460C470.2 461.3 466.4 463.9 461.3 469.2C452.9 478.2 446.9 492.4 445.4 506.9L444.7 514L441.1 513.4C421.9 510 386 498.5 368.5 490.1C353.9 483.1 339.4 473.9 338.5 471C338.1 469.8 338.1 466.1 338.3 462.7L338.9 456.5L337.8 462.5C337.2 465.8 336.4 468.7 336 469C335.6 469.3 334.5 472 333.5 475C332.5 478 331.2 480.8 330.6 481.2C329.9 481.7 329.9 482 330.6 482C331.2 482 331.4 484 330.9 487.8C330.5 490.9 330.6 510 331.2 530.2C331.8 555.3 331.7 567.6 331 568.9C330.5 570 330.3 571.5 330.6 572.3C331 573.5 328.7 574.3 319.8 576.4C313.6 577.8 305.6 579.5 302 580.1C293.8 581.5 239.2 582.2 228.5 581ZM157.8 464.5C161.7 452.8 167.9 426 166.7 426C166.6 426 159.4 429.6 150.7 434C142.1 438.4 134.1 442 133 442C131.9 442 131 442.5 131 443C131 444.5 140.1 465.9 145.1 476.4L149.4 485.2L151.6 480.9C152.8 478.5 155.6 471.1 157.8 464.5ZM347 432.8C347 430.7 347.5 430 349 430C351.4 430 351.5 428.3 349.4 425.5C347.9 423.5 347.9 423.5 345.9 425.9C344.8 427.2 344.2 429 344.5 429.7C344.8 430.5 345 432.8 345 434.8C345 437.6 345.3 438.1 346 437C346.5 436.2 347 434.3 347 432.8ZM182.6 416.2C184.8 413.6 184.8 413.5 182.8 413.2C179.9 412.7 178.5 413.5 175.9 417.1L173.6 420.3L177 419.6C179 419.3 181.4 417.8 182.6 416.2Z" fill="#9281C9"/>
<path d="M897.3 836.3C896.6 836.1 892.4 832 887.8 827.3C840 778 810.8 756 779.8 746.1C762.7 740.7 753 740 743.8 743.7C739.8 745.3 728.6 756.5 727.5 759.9C727 761.5 726 762 723.6 762C721.1 762 719.4 761 716 757.4C713.5 754.9 709.5 751.4 707 749.7C704.5 748.1 702.4 746.6 702.4 746.6C702.3 746.5 701.9 745.5 701.6 744.3C701 742.5 701.2 742.3 702.9 742.7C705.1 743.3 705.1 743.3 702.9 729.3C701.9 722.7 696.5 705.4 694.7 703.3C694.1 702.4 690.9 702 685.5 702C678.3 702 655.6 700.1 643.3 698.4C640.9 698.1 638.4 697.2 637.6 696.4C634.1 693 634.8 672.1 639 652.8C640.9 644.1 648.7 616 649.4 615.2C649.6 615 652.6 616.9 656.1 619.5C672.9 631.9 697 640.7 719.2 642.5L727.5 643.2L731.9 648.2C738.1 655.2 744.6 658.2 754.6 658.8C761.8 659.2 763.5 658.9 768.3 656.7C774.8 653.8 781.1 648.2 787.1 640.2C789.5 637.1 793.6 632.3 796.2 629.7C798.8 627 802.1 622.2 803.6 618.9C805.9 613.9 806.7 613 808.9 613C811.5 613 811.6 613.2 813.4 623.8C818 651.5 827.9 681.4 838.4 699.3C841.1 703.9 841.2 704.4 840.5 712.6L839.8 721.1L843.5 719.6C849.4 717.1 853.5 717.6 859.3 721.5C866.8 726.5 869.5 728.4 869.8 729.1C869.9 729.4 873.8 729 878.3 728.3C882.8 727.6 888.6 726.7 891.1 726.4L895.7 725.8L896.4 735.1C896.8 740.3 897.9 750.6 899 758C901.9 778 903.3 794.8 903.4 810.5C903.5 826.7 902.6 834.2 900.5 833.4C899.7 833.1 899 833.6 898.8 834.8C898.6 835.8 898 836.5 897.3 836.3Z" fill="#74BD9D"/>
<path d="M905 717.7C905 717 906.9 714.6 909.1 712.5C915.1 706.7 918 700 918 691.9C918 680.1 915.3 673.5 899.2 647C881.8 618 867.1 590.6 868.4 589.3C869.1 588.6 883.7 601.9 893 611.6C903.1 622.1 909.6 632.1 914.4 644.6C925.3 673 926.9 692.6 919.2 705.9C914.1 714.9 905 722.4 905 717.7Z" fill="#74BD9D"/>
<path d="M164 887.3C150.6 886 140 884.8 130.8 883.3C121.6 881.9 120 881.3 120 879.8C120 878.8 119.5 877.1 118.8 876.1C118 874.7 118.4 865.3 120.8 835.4C126.4 766.5 128.9 728.4 131 681.5C134.4 602.2 135.3 580.4 135.4 570.8C135.4 564.8 135.8 560 136.3 560C136.7 560 139.6 562.5 142.7 565.5C145.8 568.5 149.2 571 150.2 571C152.5 571 156 567.1 156 564.5C156 563.3 156.7 561.5 157.5 560.4C158.3 559.4 159 557.6 159 556.5C159.1 553.2 160.8 556.8 161.6 561.8C162 564.4 162.9 566.4 164.1 567C166.5 568.3 170.7 568.3 171.2 566.9C171.4 566.2 175 566.7 181.5 568.4C197.8 572.4 221.7 576.8 234.5 578.1C248.3 579.4 288.8 578.8 299 577.1C302.6 576.5 310.6 574.8 316.8 573.4C323 572 328.6 571 329.3 571.3C330.2 571.6 331.2 576.4 332.3 585.1C333.3 592.5 335.8 612.5 337.9 629.5C344.2 679 346 698.8 348.5 746.5C350 775.3 351 808.6 351 834.8C351 863.4 351 864 348.8 866.2C346.8 868.2 346.8 868.4 348.5 869.6C350.2 870.9 350.1 871.1 346.9 872.4C339.2 875.6 330.7 876.4 304.5 876.3C290.2 876.3 277.2 875.8 275.5 875.3C273.4 874.7 272.4 873.6 272.2 871.9C272 870.6 271.2 868.8 270.5 868C269.7 867.1 267.6 853.6 265.1 833.5C255.1 754 239.7 657 237.4 659.3C236.8 659.8 232.9 683.6 226.5 724.5C223.5 743.8 218.2 778 214.6 800.5C211 823.1 206.9 849.8 205.3 860C202.8 877.1 202.4 878.7 199.8 881.4C197.7 883.5 197.2 884.6 198 885.5C198.8 886.4 198.6 886.9 197.4 887.4C195.8 888 170.5 888 164 887.3ZM247.6 632.3L248 627.5L246.5 632C244.7 637.5 244.5 639.9 246.1 638.3C246.7 637.7 247.4 635 247.6 632.3Z" fill="#E48952"/>
<path d="M720 611.4C706.2 601.4 694.5 600.8 681 609.4C675 613.3 671.3 613.9 670.3 611.3C669.8 610.1 671.1 608.3 674.7 605C681.2 599 689.9 596 700.6 596C707.4 596 708.9 596.4 714.9 599.5C723.5 604.1 728.9 609.3 727.4 611.8C725.8 614.3 723.9 614.2 720 611.4Z" fill="#E48952"/>
<path d="M676.701 575.199C669.801 567.999 672.101 559.099 682.201 553.899C686.901 551.499 687.001 551.499 687.001 554.499C687.001 556.199 686.601 556.799 685.601 556.399C683.801 555.699 680.001 562.699 680.001 566.799C680.001 568.399 680.901 570.499 682.001 571.499C683.201 572.599 684.001 574.299 683.801 575.399C683.301 578.599 679.801 578.499 676.701 575.199Z" fill="#E48952"/>
<path d="M862.4 533.8C863.9 526.5 864.2 516.1 862.9 510.4C862.2 507.2 861.5 503.8 861.4 503C861 500.8 854.9 496 851.7 495.3C848.9 494.7 848.9 494.7 849.6 489.1C850.4 481.9 852.7 479.7 858.9 480.4C862.5 480.7 864 481.5 866.2 484.1C867.7 486 869 488.1 869 488.8C869 489.4 869.4 490 869.9 490C870.4 490 871.3 491.4 872 493C872.7 494.7 873.6 496 874.1 496C874.6 496 875 498.5 875 501.5C875 507.4 874.4 507.9 870.5 505.4C867.7 503.6 867.7 503.3 869 511.9C869.6 516 869.5 521.2 868.9 525.9C867.6 536.2 867.3 537 864.3 537C862 537 861.8 536.7 862.4 533.8Z" fill="#E48952"/>
<path d="M487.9 520.4C479.2 516.2 475 511.4 475 505.5C475 498.4 477.2 498.8 482.3 506.7C487.5 514.8 500.7 520.1 506.8 516.4C512.8 512.9 513.5 507.3 509 499.3C507.3 496.3 506.2 493.5 506.5 493C508 490.5 510.7 492.4 514.5 498.7C516.7 502.4 520 506.9 521.8 508.8C523.7 510.6 525 512.2 524.9 512.3C524.7 512.5 523.7 513.2 522.8 513.9C521.4 514.9 520.7 515 519.6 514.1C518.5 513.2 517.8 513.7 516.2 516.5C511.2 524.8 500.3 526.4 487.9 520.4Z" fill="#E48952"/>
<path d="M743.5 510.3C734.2 509.2 724.8 505.3 716.8 499.2C711.5 495.2 710.4 493.1 712 490C713.5 487.1 715.4 487.5 721.3 492C728 497 736.5 500.9 744.1 502.3C749.8 503.4 750 503.6 750 506.6C750 508.6 749.4 510 748.4 510.4C747.5 510.7 746.8 510.9 746.7 510.9C746.6 510.8 745.2 510.5 743.5 510.3Z" fill="#E48952"/>
<path d="M629.8 509.399C629.3 508.999 629 507.699 629 506.399C629 504.099 630.7 502.999 634.3 502.999C638.9 502.999 644 500.799 650.6 495.899C657.9 490.499 661.3 489.899 661.8 493.799C662.2 496.799 655.6 502.999 648 506.699C642.6 509.399 631.4 511.099 629.8 509.399Z" fill="#E48952"/>
<path d="M329.199 492.3C329.399 487.2 329.199 485 328.399 485C327.799 485 326.699 484.3 325.999 483.5C325.299 482.6 323.199 481.2 321.299 480.3C317.899 478.7 317.899 478.7 319.899 476.9C322.099 474.8 323.999 474.4 323.999 476C323.999 476.7 324.599 476.7 325.999 476C327.599 475.1 327.999 475.2 327.999 476.5C327.999 477.3 328.599 478 329.399 478C331.499 478 333.899 469.6 334.199 461.3C334.399 456.4 334.899 454 335.699 454C339.099 454 344.099 434.4 341.099 432.6C339.599 431.6 340.599 426 342.999 422.8C345.099 420 345.099 419.5 343.999 413.4C343.299 409.9 342.399 406.7 341.899 406.4C339.499 405 342.199 397 345.099 397C346.099 397 347.199 397.5 347.599 398.1C348.599 399.8 350.999 413 350.999 417.2C350.999 419.8 351.799 421.7 353.499 423.6C355.999 426.3 356.899 430 354.999 430C354.499 430 353.999 430.9 353.999 431.9C353.999 433.3 353.499 433.7 351.999 433.3C350.499 432.9 349.999 433.3 349.999 434.7C349.999 435.8 348.299 442.1 346.099 448.6C343.999 455.2 341.899 463.1 341.599 466.2C340.999 471.2 341.199 472 343.099 473.3C344.299 474.2 344.999 475.4 344.799 476.1C344.499 476.9 342.799 475.7 340.199 473C337.799 470.7 335.799 468.9 335.599 469.1C334.299 470.7 331.799 481.1 330.899 489C329.499 500.5 328.599 502.2 329.199 492.3Z" fill="#8475C1"/>
<path d="M166.5 426C165.5 424.4 166.9 421.1 169.1 420C170.1 419.4 171 418.4 171 417.7C171 417 172.3 414.9 173.8 412.9C176 410 177.2 409.3 180 409.3C184.5 409.3 189.4 408.2 192.8 406.4C197.4 404 200.7 404.9 199.5 408.2C199.2 408.9 196.5 411 193.5 412.8C190.5 414.6 187 417.4 185.7 419.2C183.7 421.7 182.4 422.4 178.2 422.8C175.2 423 172.3 424 171.1 425.1C168.8 427.2 167.4 427.5 166.5 426Z" fill="#8475C1"/>
<path d="M895.2 733.1C895 728.9 894.9 728.8 892.3 729.4C890.7 729.8 884.7 730.8 878.9 731.7C870.9 732.9 867.9 733 866.9 732.2C854.5 721.8 851.3 720.2 847.8 722.2C846.5 722.9 845.2 723.3 844.8 723.2C844.3 723.1 844 723.3 844 723.8C844 724.2 842.2 724.4 840.1 724.2L836.1 723.8L836.5 717.7C836.7 714.3 837.2 710.3 837.5 708.7C837.8 707.2 837.6 705.2 837.2 704.2C836.7 703.3 836 700.5 835.6 698L835 693.5L839 700.2C844 708.4 853.7 718.3 859.9 721.4C872.8 728 887.2 726.7 901.8 717.9C905.2 715.8 908 714.5 908 715.1C908 715.6 908.8 716 909.8 716C912.2 716.1 904.9 722.5 899.9 724.7C896.2 726.3 896.1 726.5 895.7 731.9C895.4 736.9 895.4 737 895.2 733.1Z" fill="#65B297"/>
<path d="M790 637.3C790 637 791.5 634.4 793.4 631.6C795.2 628.8 798.3 623.4 800.3 619.5C803.4 613.3 809.4 605.9 810.4 607.1C810.6 607.3 811 609.4 811.4 611.8C811.9 615 811.7 616 810.6 616C809.9 616 808.1 618.6 806.6 621.8C805.2 624.9 803 628.7 801.7 630.1C799.5 632.7 790 638.6 790 637.3Z" fill="#65B297"/>
<path d="M580.8 201.3C579.1 198.4 578.5 196 578.5 191.2C578.5 185.4 578.8 184.6 581.5 182.1C583.2 180.6 585.2 177.4 586 175C587.4 170.9 587.8 170.5 591.1 170.2C595.1 169.9 594.7 169.3 596.6 178.8C596.9 180.5 597.6 182 598.1 182C598.6 182 599 183.1 599 184.5C599 186.3 599.5 187 601 187C602.5 187 603 187.7 603 189.8V192.6L595.3 191.9C591 191.5 587.3 191.4 587.2 191.5C586.9 191.8 589.5 197.8 591.8 202.3C592 202.7 591 203 589.6 203C588.2 203 587 203.5 587 204C587 206.5 583 204.7 580.8 201.3Z" fill="#8B76A4"/>
<path d="M621 179C621 176.3 620.5 174.7 619.5 174.4C618.6 174 618 172.5 618 170.8C618 169.1 618.4 168.1 619 168.5C620.6 169.5 624 160.7 624.8 153.7L625.5 147.5L630 147.6C632.5 147.7 635.8 148.2 637.4 148.9C640.2 150 640.2 150.1 639.6 156.8C638.2 170.7 637.9 171.7 635.4 172.9C633.6 173.7 633 174.8 633 177.1C633 179.3 632.5 180.3 631 180.7C629.9 181 629 181.6 629 182.1C629 182.6 627.2 183 625 183H621V179Z" fill="#8B76A4"/>
<path d="M599 152.1C599 150.5 598.3 147.9 597.3 146.3L595.7 143.4L601.1 136.7L606.5 130L613.5 130.6C617.4 131 620.8 131.5 621.3 131.7C621.7 131.9 622 133.7 622 135.6C622 138.3 621.6 139 620 139C617.2 139 617.5 140.7 620.5 141.4C622.1 141.8 623 142.7 623 144C623 145.8 622.3 146 616.2 146C608.6 146 606 147.3 604 152C602.3 156.1 599 156.2 599 152.1Z" fill="#8B76A4"/>
<path d="M240 668C239.3 665.5 238.7 661.5 238.7 659C238.6 649.4 245.7 617.1 248.5 614.1C249.3 613.3 250.6 613 251.6 613.4C253 613.9 253.1 614.8 252.5 618.8C252 621.4 251.6 626.4 251.5 630C251.4 636.5 250.1 641.2 248.1 642.5C246.6 643.4 246.7 648 248.3 648C249.2 648 249.2 648.2 248.2 648.9C247.5 649.3 246.2 652.6 245.5 656.1C244.7 659.6 243.4 664.8 242.6 667.5L241.2 672.5L240 668Z" fill="#D57748"/>
<path d="M881.6 533.9C881.3 532.2 881 529 881 527C881 522.8 876.7 513 872.6 507.5C871.1 505.6 870.4 504 870.9 504C871.5 504 872 502.9 872 501.5C872 500.1 871.6 499 871.1 499C870.6 499 869.7 497.7 869 496C868.3 494.4 867.4 493 866.9 493C866.4 493 866 492.5 866 492C866 490.2 861.6 484.8 859.5 484C856.5 482.9 853 485.6 853 489C853 493.3 852 495 849.5 495C847.2 495 844 497.8 844 499.8C844 502 842.3 501.1 839.6 497.5C837.4 494.7 836.2 494 833.4 494C830.6 494 829.1 494.8 826.4 497.5C824.2 499.8 822.1 501 820.3 501C817 501 811.5 504.1 810.1 506.8C809.5 507.9 808.5 512.9 807.9 518C806.7 527.6 805.7 528.1 804.7 519.5C803.9 512.4 801.5 505.4 798 499.2C795.6 495.1 792.6 492.2 784.7 486.4C779.1 482.3 773 477 771.2 474.7C763.9 465.6 759.3 452.4 760.5 444.4C760.8 442 760.9 440 760.7 440C760.4 440 757.3 441.7 753.9 443.8C742.7 450.5 732.3 455 718.7 458.9C698.1 464.9 677.4 467.8 666.3 466.3C660.6 465.6 660.8 463.7 666.7 460.2C672.3 457 678.9 451.1 683.3 445.6C685.8 442.4 686.1 441.8 684.5 442.4C678.6 444.9 642.1 457.5 633.4 460C620.4 463.8 615.2 463.9 611 460.4C604.3 454.7 601.2 443.8 602.9 431.4C608.1 394.1 652 357.3 705 346C718.2 343.1 743.1 342.2 756.4 344C788.2 348.3 819.6 366.8 834.8 390.2C839.1 396.9 839.2 396.9 848.1 400.1C877.3 410.5 890.9 427.2 895 457.8C896.6 469.6 895.8 490.3 893.1 502.8C891.2 512 885.9 525 883.3 527.2C882.3 528 882.1 529.5 882.6 532.7C883.3 537.6 882.6 538.6 881.6 533.9Z" fill="#DE7E4F"/>
<path d="M705.3 255.5C686.6 250.4 674.5 236.9 671.8 218C669.3 201.3 674.4 185.1 685.9 172.8C697.2 160.7 707.5 156 722.6 156C741.8 156 757.3 166 765.8 183.8C768.8 190.1 769.4 192.5 769.8 200.3C770.3 210.9 768.7 218.5 763.8 228.9C760.1 236.7 750.2 247 742.4 251.2C732.3 256.7 716.4 258.5 705.3 255.5ZM734.8 233.4C737.1 231.8 737.7 228.6 736 227.5C735.4 227.2 733.4 227.4 731.6 228.1C728.3 229.3 728 229.2 724.1 225.7C721.9 223.7 718.7 221.4 716.9 220.5C711.5 217.6 704.1 219.9 700.4 225.6C698.9 227.8 698.9 228.3 700.2 229.6C701.5 230.9 702.1 230.7 705.5 228C710.4 224.1 713.1 224.2 717.7 228.3C725.7 235.4 730.1 236.7 734.8 233.4ZM708.7 198.4C708.6 198.4 705.2 198.5 701.2 198.8C694.5 199.2 693.8 199.5 692.9 201.7C692.4 203 692 205.4 692 207C692 209.4 692.5 209.9 694.8 210.2C696.3 210.4 698.8 210.2 700.5 209.8C702.4 209.3 704.1 209.5 705.5 210.4C707.4 211.7 707.5 211.5 708.2 205.2C708.6 201.5 708.8 198.5 708.7 198.4ZM733.9 210.2C739.8 210.5 739.8 210.5 740.4 207.5C740.7 205.9 741.2 203.5 741.6 202.3C742.2 200.1 742 200 735.2 200C727.2 200 726.6 200.5 725.4 208.1C724.7 212.1 724.8 212.4 726.3 211.2C727.4 210.3 729.9 209.9 733.9 210.2Z" fill="#80699F"/>
<path d="M608.1 228.4C605.6 227.5 602.7 226.2 601.6 225.5C600.4 224.8 595.9 224 591.6 223.7C577.7 222.7 566.1 214.8 559.7 202C556.6 195.7 556.6 184.5 559.8 177.6C561.7 173.4 561.8 172.3 560.9 168.3C558.2 157.6 562.3 144.9 571.5 135.9C582.9 124.7 593.5 120.4 607.3 121.4C617.3 122.1 616 122.1 625 121.4C632.1 120.9 632.9 121 639 124.2C647.4 128.5 650 132.2 649.9 139.9C649.8 143 649.5 146.6 649.1 148C648.6 149.8 649.1 151.7 651.2 155C657.6 165.1 660.5 179 658 188C656.6 193.1 649.5 201 646.2 201C644.6 201 644.1 201.9 643.5 205.7C642.2 214.8 636.3 223.2 628.5 227.2C623.2 230 613.8 230.5 608.1 228.4ZM626.4 218.1C629.7 216.3 632.8 210.9 633.7 205.6C634.3 202 634.2 202 630.7 202C627.8 202 625.8 203.2 618.1 210.1C613 214.6 609.1 218.5 609.4 218.8C610.4 219.8 617.5 220.7 620.5 220.2C622.2 220 624.8 219 626.4 218.1ZM585.4 208.5C581.9 203.3 581.8 203 583.6 201.3C587 197.8 589.8 198.9 594.6 205.7C597.1 209.2 599.6 212 600.3 212C601.6 212 612.3 203.5 612.8 202.1C613 201.6 612.2 200.9 611.1 200.5C610 200.2 606.9 197.7 604.1 195C601.4 192.4 598.3 190 597.3 189.8C596.3 189.6 595.5 188.6 595.5 187.5C595.6 186.4 595.1 185.2 594.6 184.8C594.1 184.5 593.5 183.1 593.4 181.8C593.3 180.6 592.7 177.9 592.2 176L591.3 172.5L589.6 176.2C588.7 178.3 588 180.4 588 181.1C588 181.7 586.8 183.1 585.4 184.2C582.3 186.7 580.9 190 582.2 191.7C583.3 193.1 581.3 200.3 580.1 199.5C579.4 199.1 578.2 195.4 576.5 188C576.2 186.6 574.4 184.5 572.5 183.3C569.1 181.2 569 181.2 568 183C566.5 185.9 566.8 194.7 568.6 198.2C572.3 205.3 582.7 213.9 587.8 214C588.5 214 587.5 211.6 585.4 208.5ZM624.2 191.3C626.5 189.2 626.5 187.7 624.1 185.6C622.2 183.9 621.9 183.9 617.6 187.1C613.5 190 613.2 190.4 614.8 191.6C617.2 193.5 622 193.3 624.2 191.3ZM645.5 190.8C648.6 188.1 650.4 181.3 649.4 175.5C648.7 171 645.1 162 644 162C643 162 641 166.7 641 169.3C641 170.5 640.1 174.8 639.1 178.9L637.2 186.4L639.4 189.7C640.5 191.5 641.8 193 642.2 193C642.6 193 644.1 192 645.5 190.8ZM612.8 178.7C614.3 177 613.1 175.8 607.7 173.5C601.8 171.1 601 171.4 602.2 175.8C602.7 177.8 603.9 180.3 604.7 181.2C606.1 182.7 606.6 182.8 608.9 181.5C610.4 180.8 612.2 179.5 612.8 178.7ZM626 179.1C626 178.6 626.9 178 628 177.7C629.5 177.3 630 176.3 630 174.1C630 171.7 630.6 170.7 632.5 169.8C634.7 168.8 635.6 166.3 635.1 162.8C635.1 162.4 635.4 160 635.9 157.5C636.7 153.1 636.6 152.8 634.1 151.8C632.7 151.2 630.1 150.8 628.5 150.8C626.3 150.9 625.2 150.3 624.5 148.8C623.9 147.7 621.5 145.9 619 145C616.1 143.9 614.5 142.7 614.6 141.6C614.8 136.5 615.1 136 617.2 136C618.8 136 619.1 135.7 618.3 134.9C617.5 134.1 616.6 134.1 615.1 134.9C613.9 135.6 613 135.7 613 135.1C613 134.6 611.2 133.9 609 133.5C604.7 132.8 604.2 132.2 606.3 130.1C608.7 127.6 595.7 130.6 588.6 134.2C583 137 575.2 144.7 572.5 150C570.4 154.2 568.2 163 569.3 163C569.6 163 572 160.9 574.7 158.3C581.5 151.6 587.6 146.7 593.8 143.1C599.3 139.9 600.5 139.4 599.6 140.8C599.3 141.3 600 142.9 601 144.5C602.2 146.4 602.7 148.3 602.3 149.9C601.9 151.6 602.1 152.1 602.9 151.6C604.3 150.7 604.3 150.5 602.5 156.4C600.7 162.3 600.6 162.2 610.2 164.5C613.9 165.5 617.4 166.8 618.1 167.6C618.7 168.4 619.6 168.7 620.1 168.4C620.6 168.1 621 168.4 621 168.9C621 169.5 621.9 170.9 623.1 172.1C624.7 173.7 625.1 175 624.6 177.1C624.3 178.7 624.5 180 625 180C625.6 180 626 179.6 626 179.1ZM579.4 173.6C579.7 172.3 581.8 168.8 584 165.9C590.1 157.8 588.8 157.7 580.8 165.8C573.8 172.8 573.6 173.2 575.4 174.5C578.1 176.5 578.7 176.4 579.4 173.6ZM640.9 138.4C641 135.6 637.4 132.4 632.1 130.5C629.7 129.7 627.3 129 626.9 129C626.4 129 627.3 131.4 628.9 134.3C632.4 140.5 639 145.1 640.2 142.2C640.6 141.3 640.9 139.6 640.9 138.4Z" fill="#80699F"/>
<path d="M809.8 909.4C808.8 909.1 808 908.1 807.9 907.2C807.9 906.3 807.4 904 806.7 902.1L805.5 898.7L776.4 898.9C744.4 899.1 740.5 898.7 724 893.5C713.7 890.2 713 890.1 687.5 889.2C663.8 888.3 660.8 888 653.5 885.6C649.1 884.2 644.7 882.5 643.8 881.8C640.2 879.1 637.6 859.3 636 822.1C634.2 781.7 638.3 762.4 651.7 748.5C667.6 731.9 697 733.8 717 752.7C723.2 758.5 723.9 758.9 724.5 757C725.7 753.2 736.8 742.3 741.2 740.5C750.9 736.7 765.3 737.6 782.8 743.1C813.7 753 842.7 774.7 890.3 823.7C898.6 832.3 899 833 899 837.1C899 843.3 895.6 856.8 892.1 864.5C887.9 873.6 879.6 885.3 873.1 891.1C865.2 898.2 857.8 902.4 846.9 906.1C838.5 909 836.1 909.4 824.5 909.6C817.4 909.8 810.7 909.6 809.8 909.4ZM803.8 883C803.8 879.6 803.6 879 803 880.5C802.5 881.6 802.2 885 802.2 888C802.2 892.5 802.4 893 803 890.5C803.4 888.9 803.8 885.5 803.8 883ZM804.7 868.8C804.5 867.5 804.3 868.3 804.3 870.5C804.2 872.7 804.4 873.7 804.7 872.8C804.9 871.8 804.9 870 804.7 868.8ZM715.7 857.8C715.5 856 715.3 857.4 715.3 861C715.3 864.6 715.5 866 715.7 864.3C715.9 862.5 715.9 859.5 715.7 857.8ZM805.7 854.3C805.5 852.2 805.3 853.9 805.3 858C805.3 862.1 805.5 863.8 805.7 861.8C805.9 859.7 805.9 856.3 805.7 854.3ZM714.8 835.3C714.2 831.8 713.3 829 713 829C712.6 829 712 831.9 711.6 835.4C711.1 840.5 711.3 842.4 712.7 844.9L714.5 848L715.2 844.7C715.6 843 715.4 838.7 714.8 835.3ZM808.8 829.5C808.8 825.7 808.7 825.6 808 828.5C807.6 830.2 807.2 833.1 807.2 835C807.2 838.2 807.3 838.3 808 836C808.4 834.6 808.8 831.7 808.8 829.5ZM715.5 797.3C715.8 790.2 715.6 788.2 715.1 791.5C714.4 796.4 712.3 801 710.7 801C709.8 801 710.5 804.3 712.2 807.8C714.2 811.7 715.2 808.6 715.5 797.3ZM717.9 776.7C718 775 717.6 774.1 717 774.5C716.5 774.8 716.1 777.5 716.1 780.3C716.2 784.8 716.3 785.1 717 782.5C717.4 780.9 717.8 778.2 717.9 776.7Z" fill="#5177B6"/>
<path d="M797 897.901C793.8 897.301 793.7 897.301 796.4 897.101L799.2 897.001L798.8 889.801C798.5 885.401 798.8 881.001 799.6 878.801C800.3 876.801 801.1 869.601 801.5 862.801C801.8 856.001 802.5 847.801 802.9 844.501C803.4 841.201 803.5 837.201 803.3 835.701C803.1 834.201 803.3 831.501 803.9 829.701C805.6 824.101 806.1 818.901 806.1 805.701C806 794.001 806.2 792.901 807.8 793.201C809.9 793.601 810.9 800.501 811.6 820.501C812 830.801 811.7 836.101 810.6 840.801C809.7 844.701 809.3 851.001 809.4 857.501C809.5 863.201 809.3 868.101 808.9 868.201C808.4 868.401 807.9 873.201 807.6 879.001C807.4 884.801 806.9 890.201 806.7 891.001C806.4 891.801 805.9 893.701 805.6 895.101C804.9 898.101 802.5 898.901 797 897.901Z" fill="#4067AA"/>
<path d="M713.5 880.6C713.2 876.7 712.5 870.2 711.9 866.1C711.4 862 711.2 857.2 711.6 855.4C712 853 711.6 851 709.8 847.8C708.6 845.4 707 843.2 706.3 842.7C705.4 842.2 705.5 841.3 706.5 839.3C707.5 837.5 707.6 836.4 706.9 835.9C706.2 835.5 706.4 835.1 707.3 834.7C708.3 834.3 708.6 833.4 708.3 832.1C708 830.9 708.2 828.8 708.8 827.2C710.6 822.9 711 813.4 709.6 811.3C708.4 809.6 707.2 805.9 706.3 801.6C706.1 800.6 707.1 798.6 708.5 797.2C709.9 795.8 711.2 793.7 711.5 792.6C712.5 787.2 712.8 781.3 712.1 780.2C711.1 778.5 713 772.9 715.3 770.5C716.3 769.5 716.9 768.1 716.6 767.4C716.3 766.6 716.7 766 717.6 766C718.4 766 719.3 765.4 719.6 764.6C719.9 763.8 720.8 762.9 721.7 762.6C722.9 762.1 723.1 763 722.8 768.2C722.5 771.7 721.6 778.3 720.6 782.9C719.7 787.4 719.1 793.2 719.4 795.8C719.6 798.3 719.2 803.3 718.4 806.9C717.7 810.5 717 815.2 717 817.2C717 819.2 716.6 821 716.1 821.2C715.5 821.4 715.8 823.9 716.7 827C718.2 832.3 718.7 841.2 719.4 869C719.7 885.6 719.4 887.8 716.5 887.8C714.4 887.8 714.1 887.2 713.5 880.6Z" fill="#4067AA"/>
<path d="M224.1 322C209 318 193.2 309.9 185 301.8C179.8 296.7 176 288.6 176 282.5V279L171.5 282.5C165.8 286.8 160.2 288.4 155.4 287.1C146.4 284.6 136.3 275.4 131.4 265.3C128 258.1 126.5 246.1 127.9 237.1C130.9 218.2 139.6 206.5 170.6 180C190.8 162.6 194.5 157.3 206 128.5C214.8 106.4 220.1 97.8003 231.5 86.5003C240.8 77.4003 252.4 70.6003 266.3 65.9003C282.5 60.5003 289.8 59.5003 310.5 59.6003C335.9 59.7003 354.5 63.3003 374.2 71.9003C384.5 76.5003 404.8 88.4003 414 95.4003C417.5 98.1003 423.9 101.7 428.2 103.5C439.4 108.3 444.2 111.3 449.2 116.9C456.9 125.4 458 134 452.8 144.1C449 151.2 442.5 157.3 441 155C440.3 153.9 439.5 154.3 436.6 156.8C424.8 167.2 404.1 173.5 373.5 176C365.8 176.6 356.2 176.9 352 176.5L344.5 175.9L341.5 181.2C339.9 184.1 334.9 190.2 330.6 194.7C320.8 205 310.1 211 301.5 211H296.3L294.9 206.8C291.2 195.5 281.9 186.1 272.1 183.8C267.5 182.8 266.8 182.9 261.6 185.4C257.5 187.4 254.9 189.7 251.6 194.1C235.3 215.8 243.4 245.2 268.7 256.2L274 258.5V268.6C274 280.2 272.9 287.5 269.4 298.2C264.8 312.3 258.1 319.4 246.3 322.4C238.5 324.5 233.2 324.3 224.1 322Z" fill="#905B5C"/>
<path d="M371 312.301C351.9 302.201 356.9 276.201 378.6 272.601C383.3 271.801 392.6 273.801 396.8 276.601L399.4 278.301L395 281.901C387.5 287.901 384.1 291.901 383.5 295.401C382.7 299.201 384.8 304.001 388.1 306.401C392.5 309.401 387 315.001 379.7 315.001C377.8 315.001 373.9 313.801 371 312.301Z" fill="#905B5C"/>
<path d="M419.3 212C416.1 209.2 410.2 204.2 406.2 200.8C399.3 195 397 191.4 398.5 189.1C400.5 185.7 409.1 190.9 422.8 203.7C429.1 209.7 430.5 213.1 427.8 215.8C426 217.6 425.6 217.4 419.3 212Z" fill="#905B5C"/>
<path d="M185.5 941.4C184.4 941.3 178.8 940.6 173 940C159 938.4 134.6 933.6 127.8 931C124.7 929.9 121.5 928.1 120.6 927.1C117.3 923.5 116.7 914.9 118.5 896.1C119.4 886.4 120.3 878.4 120.4 878.3C120.5 878.1 124.4 878.7 129.1 879.5C146.8 882.7 162.1 884.2 179.3 884.6L197 884.9L210.5 897.1C228.4 913.3 234 920.8 234 928.6C234 933.8 231.6 937.5 226.7 939.9C222.8 941.8 220.8 942 204.9 941.9C195.3 941.8 186.6 941.6 185.5 941.4Z" fill="#655781"/>
<path d="M337.5 925.4C286.5 922.5 277 920.7 273.4 913.8C271.2 909.8 270.4 895.8 271.5 880.6L272.2 870.2L276.7 871.6C288 875 329.4 874.2 341.2 870.3L346.5 868.5L359 875.7C377.5 886.2 390.4 894.8 395.6 899.7C400.8 904.8 404.1 911.3 403.3 915.2C402.6 919 397.8 923.1 392.8 924.2C388.4 925.1 348.1 926 337.5 925.4Z" fill="#655781"/>
<path d="M400.6 238.5C396.7 234.5 397.9 223.1 403.1 216C406.7 211.1 408.8 211.1 411.3 216C414.4 222.1 411.4 234.5 405.8 238.4C403 240.4 402.5 240.4 400.6 238.5Z" fill="#655781"/>
<path d="M722.2 550.3C718.9 548.7 714 541.7 714 538.7C714 535.9 718 536.8 722.1 540.5C726.9 544.8 730.7 545 736.9 541.5C742.3 538.4 743.8 538.4 745.2 541.5C746.2 543.7 746 544.4 744 546.5C738.9 551.9 729 553.7 722.2 550.3Z" fill="#654156"/>
<path d="M646.7 549.501C641.7 547.801 638 544.301 638 541.401V539.101L642.6 541.501C645.2 542.901 648.4 544.001 649.7 544.001C653 544.001 658.1 541.701 660.4 539.101C663.4 535.801 668 536.901 668 541.001C668 544.601 658.2 551.101 652.8 551.001C651.5 550.901 648.8 550.301 646.7 549.501Z" fill="#654156"/>
</g>
<defs>
<clipPath id="clip0_2868_8339">
<rect width="1024" height="1024" fill="white"/>
</clipPath>
</defs>
</svg>
