<svg width="60" height="61" viewBox="0 0 60 61" fill="none" xmlns="http://www.w3.org/2000/svg">
<path d="M23.3622 21.2864L28.9385 12.2249C29.5982 11.153 30.7667 10.5 32.0253 10.5C34.2467 10.5 35.9454 12.48 35.6076 14.6756L35 18.625C34.3427 22.8972 37.6482 26.75 41.9706 26.75H43.695C50.0375 26.75 54.1627 33.4247 51.3262 39.0976L48.4549 44.8402C46.3375 49.075 42.0092 51.75 37.2746 51.75H30C26.6303 51.75 23.6498 50.0833 21.8381 47.5293C21.8625 47.2728 21.875 47.0128 21.875 46.75V26.75C21.875 25.9225 21.7513 25.1239 21.5214 24.3717C21.9644 23.5578 22.5543 22.5992 23.3622 21.2864Z" fill="white"/>
<path d="M18.125 46.75C18.125 49.1662 16.1662 51.125 13.75 51.125C11.3338 51.125 9.375 49.1662 9.375 46.75V26.75C9.375 24.3338 11.3338 22.375 13.75 22.375C16.1662 22.375 18.125 24.3338 18.125 26.75V46.75Z" fill="white"/>
</svg>
