<?xml version="1.0" encoding="UTF-8"?>
<svg version="1.1" viewBox="0 0 2000 2000" width="1280" height="1280" xmlns="http://www.w3.org/2000/svg">
<path transform="translate(643,917)" d="m0 0h412l12 1 6 3 4 5 1 2v62l-4 6-3 3-13 2h-483l-1 12-9 76-8 68-11 95-10 84-6 53-9 76h222l17 1 5 3 4 5 1 3v72l-5 8-7 3h-327l-5-2-5-6-1-2-1-9v-608l2-8 7-6 3-1z" />
<path transform="translate(1359,587)" d="m0 0 26 2 17 4 16 6 15 8 13 10 11 11 10 14 8 16 7 19 3 14 1 7v22l-4 20-7 22v8l11 24 12 26 12 27 7 15 19 42 12 28 4 15v16l-3 14-6 15-9 13-6 7-14 10-19 8-5 3-1 62v50l2 30 4 35 11 84 12 86 10 71 2 15v24l-4 16-7 14-8 10-9 8-12 7-16 5-6 1h-21l-15-4-14-7-13-11-8-10-8-16-3-12-8-65-3-28v-4h-2l-2 23-4 44-2 27-3 15-5 12-9 13-9 9-13 8-12 5-13 3h-18l-16-4-17-9-13-12-8-11-6-13-2-9v-34l4-46 8-78 9-88 5-52 2-45v-55l-2-96v-28l-26 3h-10l-16-3-14-6-14-10-7-7-9-13-6-14-3-11-1-18 2-13 4-12 8-14 9-12 13-16 8-10 36-44 12-14 10-13 2-5v-10l-2-12v-23l3-17 5-15 8-16 12-17 7-8h2l2-4 8-7 13-9 15-8 16-5 12-2zm-5 24-18 4-15 6-14 8-14 12-10 11-8 13-7 16-3 13v23l6-1 15-5 11-2h25l16 4 16 8 11 8 13 13 5 6 26-3h12l18 3 14 4 4-1 5-12 4-18v-19l-3-15-6-16-7-13-7-9-9-10-14-11-14-8-12-5-17-4zm-42 118-12 4-11 7-16 16-7 8-9 10-7 8-11 12-9 10-9 11-7 7-7 8-10 11-7 8-8 9v2h-2l-9 11-7 11-4 12v11l4 12 5 9 6 7 9 6 9 4 8 2h20l11-3 10-5 10-9 13-14 7-8 12-14 15-16 12-14 11-12 7-8 9-10 5-8v-21l4-18 8-17 11-15-2-4-12-10-14-8-7-2zm92 40-11 4-11 8-7 7-7 12-2 7v15l5 15 14 30 18 39 15 32 22 48 8 11 8 8 12 6 4 1h12l15-4 12-7 8-8 5-8 3-11v-12l-4-14-12-28-18-40-16-36-18-40-7-13-9-10-10-7-14-5zm-59 80-10 12-9 11-11 14-8 9-11 14-11 13-6 8-3 5-1 4v26l2 121v88l-4 54-7 66-9 99-7 66-2 27v16l3 10 6 9 9 8 11 5 8 2h8l12-3 11-7 8-10 4-12 4-27 4-42 4-47 7-72 6-63 3-12 5-6 8-3 9 1 7 4 4 7 3 13 18 146 10 87 3 16 5 10 6 7 11 7 10 3h16l12-5 8-6 7-8 4-9v-25l-5-44-18-132-16-112-3-28v-139l-3-3-17-9-11-8-7-6-10-14-8-16-16-34-15-33-17-36-8-16z" />
<path transform="translate(578,493)" d="m0 0h9l3 6 28 136 27 131 14 68 4 19 1 1 365 1 3 2 1 3v32l-1 4-5 2h-396l-4-3-6-25-39-192-33-161-1-13 2-4 7-3z" />
<path transform="translate(1976,997)" d="m0 0h20v39l-1 12-20-1v-48z" />
<path transform="translate(1982,923)" d="m0 0h11l3 25v25l-9 1h-11l-1-1-2-49z" />
<path transform="translate(948,1975)" d="m0 0h33l16 1 1 1v19h-38l-4-1-8 1-1-8z" />
<path transform="translate(1775,376)" d="m0 0 5 1 10 13 14 18 4 6v3l-9 6-5 4-4-2-11-15-11-14-5-7 1-4 10-8z" />
<path transform="translate(246,1626)" d="m0 0 4 1 8 10 10 11 7 8 6 7-13 13-4-1-13-14-18-22 1-3 9-7z" />
<path transform="translate(120,520)" d="m0 0 5 1 13 7-1 5-20 40-5-1-14-7 2-6 11-20z" />
<path transform="translate(405,1777)" d="m0 0 5 2 13 10 16 11 7 5-1 5-8 12-4-1-16-11-18-13-4-3 1-4z" />
<path transform="translate(124,1444)" d="m0 0 4 1 18 33 4 7v3l-15 9-3-1-16-29-7-15z" />
<path transform="translate(1495,134)" d="m0 0 6 1 28 17 10 7-1 4-8 13-6-2-17-11-20-12 1-5 5-8z" />
<path transform="translate(296,1680)" d="m0 0 4 2 7 8 8 8 16 14 1 4-12 13-4-2-6-5v-2l-4-2-23-23 2-4z" />
<path transform="translate(202,1568)" d="m0 0 3 1 7 11 11 14 10 13-5 5-9 8-4-2-10-13-13-17-5-9 11-8z" />
<path transform="translate(249,337)" d="m0 0 4 2 8 7 4 4-13 15-18 22-2 1-14-11-1-2 9-11 12-14z" />
<path transform="translate(1607,1762)" d="m0 0 5 5 8 10-5 5-16 13-18 13-4-2-9-13 5-5 15-11 16-13z" />
<path transform="translate(349,1731)" d="m0 0 4 2 14 12 16 13 4 3-1 5-8 10-1 2-5-2-14-12-11-9-10-9 3-5z" />
<path transform="translate(161,1507)" d="m0 0 5 5 16 25 7 11-1 3-11 7-4 2-7-9-20-32v-3l14-8z" />
<path transform="translate(1878,1423)" d="m0 0 7 1 12 6-2 6-18 36-2 3-5-1-13-7 1-5 10-19 8-16z" />
<path transform="translate(93,1377)" d="m0 0h3l16 35 4 8v3l-16 8-3-1-18-40-1-6 14-6z" />
<path transform="translate(59,656)" d="m0 0 6 1 12 4 1 4-12 36-4 9-18-6 1-7 12-35z" />
<path transform="translate(415,187)" d="m0 0 5 5 7 9-2 4-19 14-16 13-3 1-11-13v-4l13-10 18-14z" />
<path transform="translate(465,1820)" d="m0 0 5 1 18 11 17 10 4 4-9 16-6-2-17-10-17-11-4-3 2-5z" />
<path transform="translate(1859,499)" d="m0 0h4l13 24 10 18-1 3-16 8-6-9-12-23-6-10v-3z" />
<path transform="translate(1618,218)" d="m0 0 5 1 14 12 11 9 10 9-2 4-9 11-4-1-14-12-13-11-9-7 6-8z" />
<path transform="translate(1051,1974)" d="m0 0h20l2 18-1 1-7 1-34 2h-9l-1-7v-13l1-1z" />
<path transform="translate(17,1021)" d="m0 0 3 1 2 38v11l-5 1h-15l-2-20v-30z" />
<path transform="translate(1821,435)" d="m0 0 5 5 13 20 10 16v3l-12 7-4 2-6-8-21-33 1-3 10-6z" />
<path transform="translate(1727,319)" d="m0 0 4 1 11 12 7 8 9 10 4 5-1 4-9 7-3 3-4-2-11-12-9-11-9-9-1-4 7-7z" />
<path transform="translate(1558,174)" d="m0 0 5 1 19 13 17 12 1 4-10 14-8-4-16-12-17-12 1-4z" />
<path transform="translate(476,146)" d="m0 0 4 1 5 10 3 3-2 4-20 13-18 12h-3l-7-11-3-5 11-8 16-10z" />
<path transform="translate(528,1857)" d="m0 0 5 1 19 10 20 10 1 4-5 10-2 5-5-1-15-8-16-8-9-5-1-3z" />
<path transform="translate(1662,1715)" d="m0 0 4 2 4 4v2h2v2l4 2-1 4-7 7-7 6h-2v2l-11 9-9 8-5-5-8-10 6-7 11-9 12-11z" />
<path transform="translate(87,587)" d="m0 0 5 1 13 5 1 3-10 23-8 20-4 1-15-6 1-7 12-28z" />
<path transform="translate(945)" d="m0 0h29v19l-2 1-38 2h-9l-2-6v-13l16-2z" />
<path transform="translate(1894,565)" d="m0 0h4l15 33 4 9v4l-15 7-4-2-19-42v-2z" />
<path transform="translate(201,395)" d="m0 0 4 1 10 7 3 3-7 11-13 18-8 11h-3l-10-7-4-3 2-5 10-13 13-19z" />
<path transform="translate(300,283)" d="m0 0 4 2 11 11-1 3-8 7-14 15-10 11-4-1-7-7-5-4 2-4 13-13 7-8z" />
<path transform="translate(1675,266)" d="m0 0 4 2 7 7 8 7 18 18-1 4-10 9-3 2-6-5-7-8-13-12-9-9 2-4 7-7z" />
<path transform="translate(355,233)" d="m0 0 4 2 10 11-1 4-13 11-15 13-6 6-4-1-7-7-4-5 2-4 10-9 11-9z" />
<path transform="translate(1548,1806)" d="m0 0 3 1 6 10 3 3v3l-25 16-16 10-4-2-6-10-2-4 11-8 18-11z" />
<path transform="translate(1761,1608)" d="m0 0 4 1 12 9v3l-10 13-12 14-9 10-4-2-11-9 1-4 9-10 18-22z" />
<path transform="translate(1844,1487)" d="m0 0 6 2 11 6v4l-9 16-12 19-3 5-5-1-12-8v-4l10-15 11-19z" />
<path transform="translate(1908,1355)" d="m0 0 10 3 9 4-9 24-9 21-3 2-17-8 2-6 8-18 8-21z" />
<path transform="translate(44,1239)" d="m0 0h5l3 7 8 29 3 11-10 4-9 2-4-10-10-36v-3z" />
<path transform="translate(159,456)" d="m0 0 4 1 11 7 2 1-2 6-11 17-11 19-4 1-14-8-1-2 13-22z" />
<path transform="translate(1805,1549)" d="m0 0 4 1 13 8-1 4-15 22-8 11-4 5-5-1-12-10 6-9 14-19z" />
<path transform="translate(1951,1215)" d="m0 0 12 2 7 2-1 10-9 36-1 3-8-1-11-3-1-2 9-35z" />
<path transform="translate(37,727)" d="m0 0 11 2 8 3-4 16-7 30-1 2-8-1-11-3 1-9 9-36z" />
<path transform="translate(542,109)" d="m0 0 3 2 3 8 4 6v2l-28 15-13 8-4-1-8-13 1-4 21-12z" />
<path transform="translate(997)" d="m0 0h51v12l-1 8-1 1-38-1-11-1z" />
<path transform="translate(1933,1286)" d="m0 0 12 3 6 2-1 7-13 40-4 2-15-6-1-4 12-34 3-9z" />
<path transform="translate(1973,1071)" d="m0 0h12l8 1-1 19-4 31-2 1-18-3 1-14z" />
<path transform="translate(1429,99)" d="m0 0 6 1 40 20-1 5-7 14-19-9-19-10-7-4 2-6z" />
<path transform="translate(1713,1663)" d="m0 0 4 1 12 12-9 11-25 25-4-2-11-11 1-3 8-7 15-15 7-8z" />
<path transform="translate(67,1309)" d="m0 0 4 1 10 29 6 14-1 3-14 6h-4l-8-20-8-24v-4z" />
<path transform="translate(1950,703)" d="m0 0 3 2 8 30 4 14v3l-17 5h-2l-5-16-8-29v-4z" />
<path transform="translate(608,78)" d="m0 0h4l5 13 1 4-4 3-33 15-8 3-3-5-6-12 3-3 18-8z" />
<path transform="translate(1485,1845)" d="m0 0 4 1 8 16-17 10-20 11-6 3-3-1-7-14 1-4 25-13z" />
<path transform="translate(19,799)" d="m0 0 17 3 3 2-5 29-4 19-11-1-8-2 1-13z" />
<path transform="translate(594,1890)" d="m0 0 6 1 23 10 17 7-1 6-5 12-2 1-29-12-15-7-1-4z" />
<path transform="translate(0,947)" d="m0 0 20 1 1 1-1 40-1 8-1 1h-18z" />
<path transform="translate(1924,633)" d="m0 0 4 1 16 44-1 3-14 5-5-1-10-29-5-13v-4z" />
<path transform="translate(1291,44)" d="m0 0 6 1 36 12 7 3-6 18-6-1-41-14-1-4z" />
<path transform="translate(1966,1143)" d="m0 0 15 2 4 2-7 41-2 8-8-1-10-2-2-3 8-44z" />
<path transform="translate(731,1940)" d="m0 0 9 1 39 10 1 4-4 16-10-2-32-8-7-3 1-7z" />
<path transform="translate(1361,69)" d="m0 0 7 1 26 11 14 7-1 5-6 13-6-2-40-17 1-5z" />
<path transform="translate(663,1917)" d="m0 0 37 12 9 4-2 10-3 8-2 1-40-14-6-2 1-6 4-11z" />
<path transform="translate(30,1167)" d="m0 0h4l3 13 6 29 1 7-13 3h-7l-5-22-4-23v-4z" />
<path transform="translate(7,873)" d="m0 0 14 1 6 2-2 21-2 25-1 3-18-1-2-1 4-42z" />
<path transform="translate(1419,1880)" d="m0 0h5l5 12 2 5-14 7-21 9-11 5-8-16 1-3 19-9z" />
<path transform="translate(1283,1933)" d="m0 0h4l5 16-1 3-27 8-18 5h-3l-5-18 9-4z" />
<path transform="translate(1352,1909)" d="m0 0 5 1 5 13v4l-20 8-23 8h-5l-5-14 1-5 32-11z" />
<path transform="translate(1146,11)" d="m0 0 11 1 34 6 5 2-2 13-2 6-12-2-33-6-4-2 2-16z" />
<path transform="translate(1978,849)" d="m0 0h7l6 46-1 4-18 2-2-6-5-40 1-4z" />
<path transform="translate(677,52)" d="m0 0h4l5 14-1 5-34 12-9 4-3-1-6-14v-4l26-10z" />
<path transform="translate(749,30)" d="m0 0h3l5 18-5 3-39 11-5-1-5-15 1-3z" />
<path transform="translate(22,1094)" d="m0 0 2 1 2 11 4 31v7l-15 3h-4l-2-9-4-33v-9z" />
<path transform="translate(1965,776)" d="m0 0h6l4 16 5 27v6l-14 3h-5l-2-8-7-36v-5z" />
<path transform="translate(1219,25)" d="m0 0 9 1 32 8 8 3-2 11-3 8-48-12 1-7z" />
<path transform="translate(803,1957)" d="m0 0 10 1 35 6 4 2-2 18h-8l-39-7-4-2 2-10z" />
<path transform="translate(1073,2)" d="m0 0 41 4 7 1 2 3-2 15-1 2-45-4-5-2 2-18z" />
<path transform="translate(1140,1965)" d="m0 0 4 1 3 15v3l-9 2-38 5-4-1-2-14v-5z" />
<path transform="translate(891,5)" d="m0 0h8l2 13v5l-6 2-38 5h-5l-2-6-2-12 3-2z" />
<path transform="translate(1211,1952)" d="m0 0h5l2 7 2 11-9 3-24 5-17 2-3-14v-5z" />
<path transform="translate(821,15)" d="m0 0h4l3 13v6l-8 2-30 6-4 1h-7l-3-12v-7l29-6z" />
<path transform="translate(876,1968)" d="m0 0 48 5 1 4-1 15-2 1-42-4-7-2 1-13z" />
</svg>
