<svg width="1024" height="1024" viewBox="0 0 1024 1024" fill="none" xmlns="http://www.w3.org/2000/svg">
<g clip-path="url(#clip0_2870_8629)">
<path d="M0 512V0H512H1024V512V1024H512H0V512ZM862 909.6V897.2L872.6 896.8L883.2 896.5L886.6 892.8C889.8 889.3 890 888.6 890 882.3C890 877.3 889.5 874.6 888 872.3C884.1 865.8 885.7 866 826 866H772V862.8C772 859.8 772.5 859.2 778.4 856.2C793.7 848.3 802.4 832.1 806.6 804C808.3 792 808.2 777.7 806 756.5C805.5 751 804.7 742.9 804.4 738.5L803.7 730.4L810.1 728.9L816.5 727.4L816.2 720.5C815.8 713.3 811.7 684.1 809.9 676C809.3 673.5 808.5 669.7 808 667.5C804.8 653.1 803.3 647.9 798.9 634.6C793 617.2 785.6 601.8 777.5 590.5C770.2 580.3 766.6 576.5 755.5 567.6C742.6 557.2 736 553 720.4 545.1C701.9 535.8 691.7 532.4 678.3 531C661.6 529.2 663.4 530.5 662.5 519.3L661.8 509.6L665.6 506.6C678.8 496.5 696 475.2 701.9 461.7L704.4 455.8L715 456.5C726.6 457.2 732.1 456.3 740.5 452.3C747.3 449.1 749.2 447.9 753.1 444.5C770.4 429.1 776.8 410.6 770.6 393.6C769.3 390 767.1 385.5 765.6 383.6C762.4 379.4 762.3 375.8 765.1 369.3C768.4 361.7 772.7 347 775.6 333.5C777.9 323.3 778.2 291.2 776.1 280C772.6 260.2 765.8 244.6 755.5 232.9C750 226.6 749 224.9 749 221.8C749 218.1 749.1 218 752.6 218C754.5 218 757 218.5 758 219C760.7 220.4 765 218.6 765 216C765 210.9 750.3 205.6 739.3 206.7L733 207.3V201.8C733 198.8 732.6 195 732.1 193.4C731.6 191.8 730.6 188.5 729.9 186C728.5 180.9 726.1 177 721.6 172.2C716.2 166.5 713.1 168.8 713 178.8V185H709.7C707.1 185 705.5 184 701.1 179.5C690.9 168.9 681 161.7 667.3 155C648.7 145.8 629.6 141.3 600 139C585 137.8 555.3 139.8 539.5 143.1C500.9 151 468.6 169.8 453.5 193C448.9 200 444 209.6 444 211.6C444 212.3 441.1 213.8 437.5 214.9C418.8 221 407.6 230.5 403.7 243.8C400.6 254 405.5 267 415.4 275.3C420.5 279.5 421.3 282.7 418.5 288.1C416.2 292.4 415.5 305.2 417 314C419.7 330.2 431.4 352.1 444.8 366.2L448.3 369.9L448.5 402.7C448.6 430.1 448.9 437 450.4 444.4C456.2 473.2 468.9 493.9 491.5 511.5C498.3 516.8 516.1 527 518.5 527C518.9 527 520.6 527.6 522.3 528.4C528.6 531.1 539.3 533.8 550.3 535.5C553.7 536 554 536.4 554 539.3C554 542.5 553.9 542.5 544.7 545.4C522.7 552.2 498.3 567.1 482.7 583.2C471.6 594.6 464.8 602 461.7 605.9L458.8 609.5L294.7 610L130.5 610.5L124.7 613.8C114 620.1 113 623.7 117.5 641.3C119.3 648.6 123.8 666 127.4 680C130.9 694 136 713.6 138.6 723.5C141.1 733.4 144.1 745.1 145.1 749.5C146.1 753.9 147.4 759.1 148 761C148.6 762.9 149.5 766.3 149.9 768.5C150.4 770.7 151.7 776.1 153 780.5C154.2 784.9 157.6 798 160.5 809.5C170 846.6 169.8 846.1 173.9 851C176 853.5 179.5 856.4 181.8 857.5C185.3 859.2 185.9 860 186 862.8V866H156C123.3 866 121 866.3 117.6 871.5C114.7 876 114.4 884 116.9 889.3C119.7 895.2 124.1 897 135 897H143V909.5V922H502.5H862V909.6ZM835.6 462.1C835.3 461.6 832.2 458.9 828.8 456L822.5 450.8L828.8 456.9C834.5 462.5 837 464.4 835.6 462.1ZM865.3 404C858.4 401.2 825.1 396.8 826.4 398.8C827.2 400.2 835.9 402 842.3 402C845.2 402.1 850.4 402.7 854 403.4C857.6 404.2 862.1 404.8 864 404.8C867 404.9 867.2 404.8 865.3 404ZM258.2 352.5C281.2 347.2 299.1 338.4 315.6 324.3C341.8 301.8 357.8 270.4 360.5 235.9C361.5 224.1 358.6 206.6 353.4 191.6C351.2 185.4 342.8 168 340.8 165.5C340.3 165 337.7 161.5 335 157.8C319.8 137.4 295.7 120.8 270.7 113.6C225.9 100.6 176 116.9 143.9 155C132 169.2 123.9 185.2 118.8 204.8C116 215.6 115.8 217.8 115.8 233C115.8 249 115.9 249.9 119.4 262C133.4 310.3 167.4 342.2 215.3 351.9C227 354.3 249.1 354.6 258.2 352.5ZM860.2 337C865 333.5 862.2 332.4 856.2 335.4C851.5 337.8 838 346.8 838 347.5C838 348.2 857.4 339.1 860.2 337Z" fill="#FCF6EE"/>
<path d="M218.3 326.6C197.1 322.5 182.8 314.8 168.5 299.8C157.9 288.7 157.6 288.1 151.9 276.4C144.9 262 142.9 253.5 142.4 235.7C141.6 211.7 146.3 194.2 158.2 176.8C161.8 171.4 162.3 171 166 171C170.1 171 170.1 171 187.5 191.9C191.8 197.1 203.3 210.4 203.9 211C204.4 211.4 211.3 219.5 216.5 225.9C218.3 228.2 224.3 235 231 242.5C232.5 244.2 236.3 248.7 239.5 252.5C242.7 256.4 245.6 259.7 246 260C246.3 260.3 248.5 263 251 266C253.5 269 255.7 271.7 256 272C256.3 272.3 258 274.3 259.9 276.5C265.7 283.3 273.2 292 280.7 300.4C286.8 307.2 288 309.1 288 312.1C288 316 287.6 316.3 278 320.1C262.5 326.1 258.1 327 241.5 327.5C230.3 327.8 223.3 327.6 218.3 326.6Z" fill="#FCF6EE"/>
<path d="M302.3 287.3C299.6 284.1 296.3 280.2 294.9 278.5C284.7 266.9 278.9 259.9 274.6 254.6C272 251.3 269.5 248.3 269.1 248C268.7 247.7 266 244.6 263.1 241C260.1 237.4 255.6 232 252.9 229C250.3 226 243.5 218.1 237.9 211.5C232.3 204.9 226.8 198.4 225.6 197C224.5 195.7 222.5 193.2 221.3 191.7C220.1 190.1 216.9 186.5 214.2 183.6C211.5 180.8 204.5 172.8 198.7 165.7C189.8 155.1 188 152.4 188 149.6C188 146.4 188.3 146.2 195.5 143.1C208.1 137.8 221.8 135 234.8 135C263 135 285.4 142.8 303.4 159C309.5 164.5 309.9 165 315.5 172.4C321.8 180.9 325.9 188.8 329.5 199.3C334.7 215 335.6 238.8 331.6 255.5C328.8 266.8 322.7 280.9 317.4 288.1C314.4 292.3 313.3 293 310.5 293C307.6 293 306.4 292.2 302.3 287.3Z" fill="#FCF6EE"/>
<path d="M668 862.8C668 860.7 668.9 858.6 670.7 856.8C674.7 852.6 674.6 846.7 670.5 843.4L667.5 841H594.9H522.2L520.6 834.5C518.2 825.1 518.5 823.9 523.1 820.6C525.3 819.1 526.9 817.5 526.5 817.2C526.2 816.9 525.4 817.2 524.8 817.8C524.1 818.5 522.2 819 520.4 819C516.9 819 517.1 819.4 513 802C508.9 784.5 509.9 783.4 534 779.5C546.5 777.4 577.1 777.9 591 780.3C599.4 781.8 629.4 791.3 631.7 793.2C632.9 794.1 654.7 792 663.5 790C665.7 789.5 672.5 788.4 678.5 787.4C695.1 784.9 708.3 782.1 709.1 780.9C709.9 779.6 711.1 762.8 711.8 744.9L712 739.2L716.3 738.6C718.6 738.3 730.2 737.3 742 736.5C760.4 735.3 788.2 732.5 805.3 730.4C809.2 729.8 810 730 810 731.4C810 732.3 809.3 733 808.5 733C806.7 733 806.7 734.2 808.1 743.5C809.6 753.5 810 759.3 810.6 778.5C811.5 804.7 808.1 824.1 799.9 840C795.2 849.1 789.7 854.8 781 859.5L774.5 863H778.5C782.5 863.1 782.5 863.1 780 864.5C777.9 865.7 768.3 865.9 722.8 866H668V862.8Z" fill="#FEBC7A"/>
<path d="M584.5 594.4C569.9 591.3 559.1 584.1 554.4 574.2C551.8 568.9 551.6 567.6 551.5 555.8V543.1L547.5 542.4L543.5 541.7L547.5 540.4C549.7 539.7 550.8 539.1 550 539C549.2 538.9 547 538.6 545.2 538.4C539.2 537.7 525.4 533.9 519.3 531.3C517.6 530.6 515.9 530 515.5 530C513.1 530 495.3 519.8 488.5 514.5C470.4 500.4 459.5 485.5 452.2 465C446.3 448.3 445.7 442.7 445.4 406.1C445.2 378.4 444.9 372.5 443.6 371.1C442.4 369.8 442.3 368.1 443.1 361.5C443.6 357.1 444.5 349.9 445 345.5C446.7 329.7 451 298.4 451.8 295.5C452.6 292.6 453 292.5 459.6 291.8C478.7 289.7 507.2 276.3 524.5 261.3C528.2 258.1 530.3 257 532.7 257C535.8 257 536 257.2 536 260.4C536 262.2 534.6 266.7 533 270.4C530.2 276.4 530 277.6 531 280.6C532.4 284.6 536.3 287 541.5 287C550.1 287 568.3 278.4 578.7 269.4C583.4 265.2 585.6 264 588 264H591.3L590.8 270.8C590 281.1 592.2 286.5 599.4 291.4C609.9 298.5 632.8 290.4 655.1 271.9C658.3 269.2 660.7 268 662.9 268C664.6 268 666 268.3 666 268.8C666 272 668.5 289.3 670.1 297.3C674.9 321.3 681.5 341.8 690 359C694.8 368.6 704.5 384 705.8 384C706.3 384 707.5 382 708.4 379.6C710.6 374 716.1 368.2 722.5 365C727 362.7 728.7 362.5 739.5 362.5C750.4 362.5 752 362.7 757 365.2C760 366.6 763.8 368.9 765.4 370.2C767.9 372.3 768.1 372.9 767.1 374.8C766.1 376.6 766.4 377.6 768.9 381C777.9 393.4 778.7 413.5 771 429C767.1 436.6 757 447.9 750.6 451.7C738.1 459.1 727.3 461.3 712.7 459.5L707.4 458.8L704.9 464.7C699 478.2 683.2 498.2 670.6 507.9L665.1 512.2L665.7 518.8C666.1 522.8 666.8 525.8 667.6 526.3C669.8 527.6 669.2 533 665.6 543.6C655.7 573 641.9 587.4 618 593.3C608.5 595.6 593 596.1 584.5 594.4ZM604.5 553.5C620.9 549.9 633.4 544.7 644 536.8C650.5 531.9 658 524.6 658 523.2C658 522.6 654.4 523.9 650 526.1C645.6 528.2 641.4 530 640.7 530C640 530 638.6 530.6 637.5 531.3C634.6 533.3 624.8 536.8 617.2 538.6C602 542.2 597.7 542.8 581.7 543.5L564.9 544.2L565.2 546.8C566.1 554.7 584.6 557.8 604.5 553.5ZM538.5 481.4C548.9 475.6 565.7 474.5 578.9 478.9C585.5 481.1 586.7 481.3 584.9 479.9C582.1 477.7 575.8 475.5 567.4 473.9C556.9 471.8 543.5 475.1 535 481.9C531.6 484.7 532.9 484.5 538.5 481.4ZM726 415.9C726 413.2 724.3 412.7 723.6 415.3C722.5 419.3 722.8 420.4 724.5 419C725.3 418.3 726 416.9 726 415.9ZM619.5 405.5C622.4 399.3 622.3 399.7 620.9 393C619.8 387.9 614.5 381 611.7 381C609.8 381 606.6 383.9 604.1 388C598 398.1 606.5 417.6 614.7 412.3C615.9 411.5 618.1 408.4 619.5 405.5ZM506.2 410C509.3 407.6 512.1 401 512.2 396C512.3 390.1 507.5 382.4 502.8 380.7C498.8 379.3 492.1 388.8 492 396C492 397.9 493.1 401.8 494.4 404.6C497.9 412.1 501.5 413.7 506.2 410ZM626.5 351.9C634 349.6 634.9 348.5 628 350.2C620.5 351.9 602 350.4 594.9 347.6C587.9 344.7 587.8 345.5 594.7 349C604.6 354.1 616.1 355.1 626.5 351.9ZM514.3 342.1C517.8 340.4 521.5 338.1 522.6 336.9L524.5 334.7L522 336.3C513.4 341.7 498 344.8 488 343.1C483 342.3 479.8 342.4 483.1 343.3C483.9 343.6 485.9 344.2 487.5 344.8C489.2 345.4 494.3 345.8 499.2 345.5C506.3 345.2 509.1 344.6 514.3 342.1Z" fill="#FEBC7A"/>
<path d="M666.4 907.5C666 906.7 665 906 664 906C663 906 661.7 905.3 661 904.5C660 903.3 657.3 903 648.9 903C642.8 903 638 902.6 638 902.1C638 901.6 637.1 900.8 636 900.5C634.9 900.2 634 899.3 634 898.6C634 897.5 632 897.4 624.8 897.8C616.1 898.3 613 899.3 613 901.8C613 902.4 584.2 902.8 537.3 902.8C483.7 902.8 461.5 903.1 461.2 903.9C460.7 905.3 454 905.4 454 904C454 903.3 439.6 903 410.8 903.1C350.8 903.3 253.8 903.4 246 903.3C221.5 903 211.5 903.2 211.2 904C210.7 905.5 204.3 905.2 203.7 903.8C203.3 902.8 202.9 902.8 202.3 903.6C200.8 905.6 190.2 906.3 186.6 904.6C184 903.4 179.6 903.2 161.7 903.4C141.2 903.7 140 903.6 140 901.8C140 900.2 139.1 900 132 900C121.1 900 116.7 898.2 113.9 892.3C112.1 888.6 111.8 886.6 112.2 879.7C112.5 873.9 113.2 870.7 114.5 868.6C118 863.3 120.1 863 153.2 863C179.7 862.9 183.1 862.7 180.5 861.5C177.9 860.4 213.6 860.1 420.5 860.1C554.2 860 666 859.7 669 859.3L674.5 858.7L672.6 860.8L670.7 862.9L684.1 863.2L697.5 863.5L697.8 867.6C698 870.4 697.6 872.3 696.6 873.3C695.7 874.2 695 875.6 695 876.4C695 877.3 694.6 878 694.1 878C693 878 692.1 882.9 691.4 892.8C691 896.7 690.4 900 689.9 900C689.4 900 689 900.6 689 901.4C689 902.2 687.5 903.1 685.5 903.4C683.4 903.8 682 904.7 682 905.5C682 906.5 680.9 907 678.6 907C676.7 907 674.8 907.5 674.5 908C673.5 909.6 667 909.2 666.4 907.5Z" fill="#D29686"/>
<path d="M508.4 860.5C508.1 859.1 507.4 858 506.9 858C506.4 858 506 854.3 506 849.8C506 842.3 503.4 828.5 500 817.5C499.5 815.9 498.8 812.8 498.5 810.8C498.1 808.4 497.4 807 496.5 807C495.5 807 495 805.9 495 803.8C495 797.8 492.8 783.5 491.5 781C490.8 779.6 489.9 775 489.5 770.8C489.1 766.5 488.4 763 488 763C487.5 763 486.9 759.5 486.5 755.3C486.1 751 485.4 747.1 485 746.5C483.7 744.8 480.2 730.9 479 722.6C478.3 718.2 477.4 714 476.9 713.1C475.7 710.9 469.2 685.2 467.5 676C466.8 671.9 465.7 666.7 465.1 664.5C464.5 662.3 464 658.9 464 656.9C464 655 463.6 653 463.1 652.4C462.7 651.9 461.7 649.4 461 646.8C460.3 644.2 458.9 641.3 457.9 640.4C456.8 639.5 456 637.6 456 636.3C456 635.1 455.6 634 455 634C454.5 634 454 633.4 454 632.6C454 631.8 453 630.8 451.8 630.4C450.5 630 449.1 629.1 448.5 628.5C446.5 626 429 624.1 425.5 626C424 626.8 421.6 627 419.1 626.6C416.6 626.2 415 626.4 415 627C415 628.7 408.3 628.2 407.6 626.4C407 624.9 403.9 624.8 374.7 625.5C335.1 626.3 313.1 626.2 279.5 625.3C265.2 624.8 250.7 624.8 247.3 625.2C240.7 626 233.6 626 210.9 625.7C199.1 625.5 196.9 625.7 195.3 627.3C193 629.3 188.2 629.5 186.6 627.6C185.4 626.1 176 624.7 176 626.1C176 626.6 174.2 627 172 627C169.8 627 168 626.6 168 626C168 624.6 156.3 624.8 153.7 626.2C150.7 627.8 136.7 627.7 133.5 626C128.1 623.1 118.2 629.2 117.3 636C116.9 639.1 116.3 640 114.9 640C113.7 640 113 639.3 113 638.1C113 637 112.6 635.9 112.1 635.6C111.6 635.3 111.2 632.1 111.2 628.6C111.2 619.9 113.7 615.7 121.5 611L127.5 607.5L291.5 607.2C435.1 607 455.6 606.8 456.6 605.5C457.6 604.2 458.3 604.2 462.7 605.5C471.7 608.2 477.2 615.5 480.4 629C481.2 632.6 483.9 644.1 486.4 654.5C488.9 665 492.5 680.7 494.4 689.5C496.4 698.3 499.9 714.3 502.4 725C506.6 743.3 508.4 751.2 514.5 777C516.6 786.1 516.7 787.6 515.5 789C514.2 790.4 514.3 791.7 516 799C519.7 814.7 520.1 816.1 521.5 815C523.2 813.6 523.9 814.7 524.6 820.4C525.1 824 524.9 825.1 523.8 825.5C522.4 826.1 522.4 826.8 523.7 832C524.7 835.8 525.8 838 526.9 838.3C528.6 838.7 530.5 846.7 531.7 858.3L532.2 863H520.6C509.1 863 509 863 508.4 860.5Z" fill="#9487C9"/>
<path d="M832.2 465.3C829.4 463.2 822.9 457.7 817.8 453C810.8 446.6 808.5 443.9 808.5 442C808.5 440.5 809.1 439.4 810.1 439.2C814 438.5 840 458.3 842 463.4C843 466.1 841.5 469 839.1 469C838.1 469 835 467.3 832.2 465.3Z" fill="#9E7CC8"/>
<path d="M857 407.5C852.9 406.7 846.1 405.7 842 405.4C831 404.6 824.1 403.1 821.9 400.9C819.6 398.6 820.4 396.2 823.7 395.4C829.6 393.9 861.8 398.2 869.7 401.5C871.5 402.3 873 403.5 873 404.2C872.9 408.6 868 409.6 857 407.5Z" fill="#9E7CC8"/>
<path d="M814.3 363.3C813.6 363.1 813 361.8 813 360.6C813 358.8 814.9 357.1 821.6 352.9C826.3 349.9 834.2 344.7 839.1 341.2C848.8 334.5 856.6 330.2 860.2 329.6C864 329 867 331 867 334.1C867 337.5 862.9 341.1 855.7 344.2C852.8 345.4 845.8 348.8 840 351.8C827.2 358.4 816 364 815.7 363.9C815.6 363.9 814.9 363.6 814.3 363.3Z" fill="#9E7CC8"/>
<path d="M217 355.9C214.5 355.4 211.2 354.8 209.5 354.6C203.9 353.8 187.5 347.9 179.5 343.9C148.6 328.2 126.9 301.1 116.4 265C112.8 252.5 112.8 252.4 112.7 233C112.7 214.4 112.9 213 115.8 201.8C122.4 176.6 133.2 158.4 152.1 140.2C164.1 128.7 183.1 117.3 199 112.2C215.9 106.6 237.7 104.7 256.3 107C287.5 110.8 319.1 129.4 338 154.8C340.7 158.5 343.3 162 343.8 162.5C345.6 164.8 354.3 182.5 356.2 187.8C358.6 194.8 361.7 207.4 362.8 214.3C363.9 222 363.5 243.5 362.1 251.3C354.9 292.1 327.3 328.4 290.4 345.6C282.4 349.4 270.6 353.3 261.2 355.5C254.1 357.2 224.7 357.4 217 355.9ZM263.5 321.1C273.7 317.7 280.6 315 283.5 313.3C285.5 312.2 285.5 312.1 283 309.3C272.1 297.3 265.8 290.1 256.9 279.5C255 277.3 253.3 275.3 253 275C252.7 274.7 250.5 272 248 269C245.5 266 243.3 263.3 243 263C242.6 262.7 239.7 259.4 236.5 255.5C233.3 251.7 229.5 247.2 228 245.5C221.3 238 215.3 231.2 213.5 228.9C208.3 222.5 201.4 214.4 200.9 214C200.3 213.4 188.8 200.1 184.5 194.9C172.5 180.5 166.8 174 166 174C163.5 174 153.3 192.3 149.6 203.4C144.8 217.6 144.1 240.1 147.9 254.9C150 263.2 157.9 281.1 161.6 285.9C166.4 292.1 180 305.6 185 309C201.7 320.4 219.5 325.3 241.5 324.5C252.4 324.1 255.9 323.6 263.5 321.1ZM321 273.2C336.9 240.6 333.7 203.7 312.4 175.3C307.8 169.2 305 166.1 297.6 159.5C294.7 156.8 288.9 153 283 149.8C263.1 138.8 237.7 135.3 216.2 140.5C207.8 142.5 192.7 147.9 191.2 149.5C190.8 149.9 210.6 173.6 217.2 180.6C219.9 183.5 223.1 187.1 224.3 188.7C225.5 190.2 227.5 192.7 228.6 194C229.8 195.4 235.3 201.9 240.9 208.5C246.5 215.1 253.3 223 255.9 226C258.6 229 263.1 234.4 266.1 238C269 241.6 271.7 244.7 272.1 245C272.5 245.3 275 248.3 277.6 251.6C281.9 256.9 287.7 263.9 297.9 275.5C299.3 277.2 302.7 281.2 305.4 284.4L310.3 290.3L313.2 286.9C314.8 285 318.3 278.9 321 273.2Z" fill="#9E7CC8"/>
<path d="M535.5 839C534.2 838.4 536.4 838.2 542 838.2C547.9 838.2 549.6 838.5 547.5 839C543.4 840 537.9 840 535.5 839Z" fill="#E59368"/>
<path d="M538.8 836.3C536.9 835.8 536.5 834.3 537.8 832.4C538.5 831.3 543.4 827.1 561.8 811.8C572.9 802.5 576 801.5 576 807.1C576 808.7 575.5 810 574.9 810C574.4 810 574.1 810.4 574.4 810.9C575 811.7 569 817.5 560 825C557.6 826.9 554.6 829.5 553.1 830.7C551.7 832 550.2 833 549.8 833C549.4 833 548.5 833.6 547.8 834.3C546.3 835.8 541.4 836.9 538.8 836.3Z" fill="#E59368"/>
<path d="M521.3 821.3C520 816 520.7 814.6 524.6 813.6C526.1 813.2 528.3 811.6 529.6 810C534.9 803.7 546 801 546 806.1C546 808.4 545.3 809.2 538.7 814C536.1 815.9 531.5 819.4 528.6 821.8C525.7 824.1 523.1 826 522.8 826C522.6 826 521.8 823.9 521.3 821.3Z" fill="#E59368"/>
<path d="M570.6 557C563.5 554.2 561.6 552 561.4 546.1L561.3 541.2L578.4 540.5C594.7 539.8 598.9 539.2 614.2 535.6C621.8 533.8 631.6 530.3 634.5 528.3C635.6 527.6 637 527 637.7 527C638.8 527 645.4 523.9 657 518L660.5 516.2L661 519.8C662 526.8 659.6 530.2 647 539.7C631.6 551.3 611.7 557.6 588.5 558.4C577.4 558.8 574.8 558.6 570.6 557Z" fill="#E59368"/>
<path d="M532.3 445.2C526.7 442.6 525.3 434.8 529.3 429C532.2 424.8 541.9 418.9 546.2 418.7C548.9 418.5 549.6 418.9 549.8 420.8C550.2 423.6 548.7 425.6 544.6 427.5C539.6 429.9 534 435 534 437.1C534 439.5 537.3 440.9 545.1 441.7C551.9 442.4 553 444.4 547.3 445.5C540.7 446.8 535.5 446.7 532.3 445.2Z" fill="#E59368"/>
<path d="M721.9 425.3C719.7 424.8 718.9 420.3 720.1 415C721.4 409.1 724.2 404.9 728.2 402.6C730 401.6 733.4 398.8 735.8 396.4C738.1 394 740.2 392 740.3 392C740.5 392 740.7 393.3 740.8 394.9C741.1 398.7 737.3 403.2 731.5 406L727.1 408.1L729 412.2C730.6 415.8 730.7 416.7 729.5 418.9C727.6 422.5 723.8 425.7 721.9 425.3Z" fill="#E59368"/>
<path d="M610.8 921.3C608.4 920.9 608.1 920.4 607.5 914.9C607.1 911.3 606.2 908.7 605.3 908.2C604.4 907.6 604 906.2 604.2 903.9C604.4 901 604.9 900.5 607.2 900.2C609.1 900 609.7 899.4 609.3 898.4C609 897.5 609.4 897 610.5 897C611.4 897 611.8 896.6 611.5 896C610.9 895.1 617.2 894.5 624.5 894.8C626.2 894.8 626.9 894.6 626.2 894.4C625.4 894 625.7 893.3 627.2 892C629.7 890 632 890.4 632 892.7C632 893.8 632.7 894 634.3 893.7C635.5 893.3 637.2 893.5 638 894C639.3 894.9 639.3 895.1 638.1 895.9C636.9 896.7 637.2 897 639.3 897.5C640.8 897.9 641.7 898.6 641.4 899.1C641.1 899.6 641.8 900 642.9 900C644.1 900 645 900.4 645 900.8C645 902.3 642.6 904 640.4 904C639.1 904 638 904.8 637.7 906C637.4 907.2 636.3 908 635.1 908C633.7 908 633 908.6 633 909.9C633 911.3 632.2 912 630.3 912.2C628 912.4 627.4 913 627.2 915.8C626.9 918.7 626.6 919 623.4 919C621 919 620 919.5 620 920.5C620 922 617.1 922.3 610.8 921.3Z" fill="#C68679"/>
<path d="M144.7 920.3C144.3 920 144 917.7 144 915.3C144 911.7 144.6 910.3 146.9 907.9C148.5 906.3 150.5 905 151.3 905C152 905 153.2 903.9 154 902.6C155.4 899.8 158.8 898.6 160.7 900.1C161.3 900.7 162.3 900.9 162.8 900.6C163.2 900.3 164.8 901.2 166.3 902.6C167.7 903.9 169.8 905 170.8 905C173.1 905 174 906.8 174 911.3C174 914.1 173.5 914.8 170.1 916.2C167.9 917.2 165 918.2 163.6 918.6C162.2 918.9 160.7 919.6 160.4 920.1C159.8 921.1 145.7 921.3 144.7 920.3Z" fill="#C68679"/>
<path d="M855.5 905.3C854.4 905 853 904.3 852.3 903.8C850.5 902.4 793.1 902.7 791.4 904.1C790.5 904.8 788.6 904.9 786.3 904.5C784.2 904.1 762.5 903.7 738 903.5C679.6 903.2 683 903.3 683 901.5C683 900.7 683.7 900 684.5 900C685.3 900 686 899.3 686 898.5C686 897.7 686.5 897 687 897C687.6 897 688 895.8 688 894.4C688 892.5 687.6 891.9 686.5 892.4C685.7 892.7 685 892.5 685 892.1C685 891.6 685.8 890.9 686.7 890.6C688.1 890 688.2 889.7 687 889C685.9 888.3 685.9 887.9 686.9 886.7C687.8 885.5 687.8 885.1 686.8 884.7C686 884.3 686.1 884.1 687.3 884.1C688.2 884 688.9 883.7 688.9 883.3C688.8 882.8 688.8 882.3 689 882C689.1 881.7 689.3 880.2 689.5 878.6C689.7 877 690.4 875.3 691.1 874.9C691.8 874.5 692 873.5 691.7 872.6C691.3 871.6 691.6 871 692.4 871C694.5 871 695.3 867.8 693.5 866.8C690.8 865.2 694.3 863 699.5 863C704.5 863 707 864 710.9 867.6C714.3 870.7 714.6 870.6 716 866.5L717.2 863L767.8 863.2L818.5 863.5L818.8 865.8C819 867.1 820.1 868.5 821.3 869C822.5 869.4 824.3 870.8 825.2 871.9C828.7 876.1 832.9 872.9 832.2 866.7L831.8 863H857.6C881.5 863 883.7 863.2 886.7 865C889.9 866.9 893 871.6 893 874.4C893 875.3 891.8 876 889.8 876.2C887 876.5 886.4 877 885.5 880.1C885 882.1 884 884.3 883.4 885.1C882.7 885.9 881.6 888.3 880.9 890.5C880.1 892.7 878.5 895.8 877.4 897.3C875.5 899.6 874.5 900 870.2 900C865.4 900 865.1 900.2 864.8 902.8C864.5 905.1 864 905.5 861 905.7C859.1 905.7 856.6 905.6 855.5 905.3Z" fill="#C68679"/>
<path d="M628.5 796.1C627.2 794.9 597.7 785.1 593.6 784.5C591.9 784.3 588.3 783.6 585.5 783C578.5 781.4 543.4 780.6 542.5 782C542.2 782.6 541.5 782.8 540.9 782.5C538.6 781 519.3 785.6 516.3 788.3C513.7 790.6 514.1 791.6 510.6 776.5C509.2 770.5 506.9 760.6 505.5 754.5C502.9 743.6 497.5 720.1 492.6 698C491.2 691.7 489.8 685.5 489.5 684.3C489.1 682.4 489.4 682 491.4 682C493.5 682 494 681.4 494.4 678.8C497 662.3 497.3 658 496.1 658C495.5 658 495 659 495 660.1C495 661.3 494.3 664.3 493.5 666.9C492.7 669.4 491.8 672.7 491.5 674.3C491.2 675.8 490.4 677 489.6 677C488.4 677 485.7 667.2 477.4 632C474.2 618.8 468.5 610.9 460.3 608.7C458 608.1 456 607.3 456 606.9C456 605.4 464 596.4 479.7 580.2C490.5 569 504.7 558.9 519.5 551.6C535.1 544 548.6 539.4 553.7 539.9C554.6 540 554.8 543.5 554.7 552.8C554.6 564.8 554.8 565.8 557.4 571.2C563.8 584.5 579.7 592.3 600.1 592.1C625.2 591.8 645 579.4 656.1 557C659.8 549.5 666 531.6 666 528.5C666 526.5 666.4 526.3 671.3 526.7C684.5 527.8 695.2 530 704.5 533.5C715.6 537.7 734.3 547.2 743.5 553.3C751.5 558.7 766.6 570.9 771.2 575.6C777.4 582.3 786 595.1 791.5 606.1C797 617 805.6 641 808.5 653.5C809.4 657.4 810.5 662.3 811.1 664.5C812.3 669.4 812.6 671.1 814.6 682.5C816.7 694.8 816.6 694.4 817.9 704.5C820.3 723.9 820.7 729 819.5 730C818 731.2 799.9 734.8 791.5 735.5C787.7 735.8 783.2 736.3 781.5 736.5C776.6 737.3 768.9 737.9 732 740.6C724.6 741.1 715.6 742.1 715.4 742.3C715.3 742.4 715 748.1 714.6 755C714 768.9 713.1 779.4 712.5 782.7C712.1 784.4 710.9 785.1 706.8 786C699.9 787.5 673.2 792.2 670 792.5C668.6 792.6 667.5 792.9 667.5 793C667.5 793.1 666.4 793.4 665 793.5C634.9 797.3 630.1 797.7 628.5 796.1ZM702.8 731.8C703.2 730 703.2 726.3 702.8 723.6C701 712.4 700 699.7 699.7 683.2C699.5 673.8 699 665.7 698.7 665.3C698.3 664.9 697.3 665.5 696.5 666.6C695.4 668 695.2 670.9 695.4 678.5C695.7 684 696.1 690.1 696.4 692C696.7 693.9 697.5 704 698 714.3C698.6 724.7 699.4 733.8 699.7 734.6C700.5 736.6 701.8 735.4 702.8 731.8Z" fill="#F58B44"/>
<path d="M140 913V901.1L143.3 900.5C148.2 899.7 159.9 899.2 160.5 899.9C160.8 900.2 166.8 900.3 173.8 900.2C183.5 900 187.2 900.3 189.3 901.4C190.9 902.3 192 902.5 192 901.8C192 901.3 192.7 901 193.5 901.3C194.3 901.7 195.2 901.5 195.6 900.9C196 900.3 196.7 900.3 197.6 901.1C198.6 901.9 199 901.9 199 901.1C199 900.5 200.7 900 203 900C205.5 900 207 900.5 207 901.3C207 902.2 207.2 902.2 207.8 901.3C208.5 900.2 225.7 899.7 248.4 900.1C251.4 900.1 253.6 899.6 254.1 898.8C254.7 898 255.3 897.9 255.8 898.5C256.7 899.9 263 900.4 263 899.2C263 898.6 262.4 898 261.8 897.7C261.1 897.5 260.8 896.9 261.2 896.5C261.6 896.1 263.1 896.8 264.7 898C266.3 899.2 267.6 899.7 267.8 899.1C268.3 897.7 271 897.7 271 899.1C271 899.9 288.3 899.9 296.5 899.1C297.1 899 301 899.2 305.4 899.5C309.7 899.7 313 899.6 312.6 899.3C311.9 898.6 313.8 896 315.1 896C315.6 896 315.6 896.7 315.3 897.7C314.9 898.7 315.1 899.1 315.7 898.7C316.3 898.3 318.2 898.5 320.1 899C322.5 899.7 323.6 899.6 324.2 898.7C324.8 897.8 325 897.8 325 898.9C325 900.2 328.2 900.1 341.9 898.5C344.4 898.3 346.7 898.5 347 899C347.3 899.5 356 900 367.2 900.1C382.5 900.3 387.3 900 388.5 899C389.8 898 390.3 897.9 390.9 898.8C391.4 899.7 398.5 900 417.6 899.9C451 899.7 456.3 899.9 457.1 901.2C457.5 901.9 457.9 901.8 458.2 901C458.5 900.1 462.6 899.7 473 899.6C483.7 899.5 487.4 899.2 487.8 898.2C488 897.4 488.6 897.2 489.3 897.8C491.1 899.3 501 899.9 501 898.6C501 898 501.4 898.1 501.9 898.9C502.6 900 505.3 900.2 515.8 899.8C523 899.5 529.4 898.9 530.1 898.4C531.9 897.3 535 897.1 535 898.1C535 899 535.8 899.1 545.8 899C549.8 899 553.5 898.8 554 898.5C554.5 898.2 555.2 898.5 555.5 899.1C556.4 900.4 573.2 900 574.3 898.5C574.7 897.9 575.3 898 575.9 898.9C576.6 900 579.2 900.1 589.6 899.4C596.7 899 603 898.8 603.5 899C604.1 899.2 606 899.5 607.8 899.8L611.1 900.2L609 902.5L606.9 904.8L609.8 905.8C612.7 906.8 613.9 910 611.3 910C609.1 910 609.8 912 612.5 913.2C613.8 913.8 614.7 914.7 614.4 915.2C614.1 915.6 613.5 915.8 613 915.5C612.6 915.2 611.9 915.7 611.6 916.6C611.1 917.8 611.5 918 613.1 917.5C614.4 917 615.6 917.3 616.2 918.1C616.9 919.1 617 918.8 616.6 917C616.4 915.6 616.7 913.7 617.4 912.7C618.7 911.1 618.9 911.1 620.4 912.5C621.3 913.4 622 914.6 622 915.1C622 915.6 622.4 916 623 916C623.5 916 623.7 915.3 623.4 914.5C622.4 912.1 625.8 907.8 628.1 908.5C629.2 908.9 630 908.7 630 908.1C630 907.5 629.4 907 628.8 907C628.1 907 628.4 906.3 629.5 905.4C630.6 904.6 632 904.2 632.7 904.4C633.4 904.7 634.2 904.5 634.5 904C634.9 903.4 634.5 903 633.8 903C632.9 902.9 633.1 902.5 634.3 901.6C635.2 900.9 638.1 900.2 640.6 900.2C643.1 900.1 645.8 899.6 646.5 899C647.4 898.3 648.6 898.3 650.4 899C651.9 899.5 655.3 900 657.9 900C661.1 900 663.2 900.5 664.1 901.6C664.8 902.4 666.1 902.9 667.1 902.7C668.2 902.4 669 902.9 669.3 904.2C669.8 905.8 670.2 905.9 671.9 905.1C673.1 904.5 674.9 903.5 676 903C677.5 902.2 678 902.3 678.1 903.2C678.1 903.9 678.5 903.6 679 902.4C679.6 900.9 680.8 900.3 684.3 900.2L688.8 899.9L689.5 906.4C689.9 910 689.8 915.6 689.4 918.7L688.5 924.5L414.3 924.8L140 925V913ZM151 917C151 916.5 152.1 916 153.5 916C154.9 916 156 916.4 156 916.9C156 917.4 157.5 917.1 159.3 916.2C161 915.3 163.2 914.5 164 914.3C165.2 914.2 166.9 913.4 170.8 911.4C170.9 911.3 170.8 910.5 170.4 909.6C170.1 908.7 168.7 908 167.5 908C166.2 908 165 907.7 164.8 907.3C164.6 906.8 163.3 905.5 161.8 904.2L159.2 901.8L157.4 904.9C156.4 906.5 154.8 908 153.8 908.2C152.8 908.4 151.9 909 151.9 909.5C151.9 910.1 150.8 911.1 149.4 911.8C146 913.6 146.2 918 149.7 918C150.4 918 151 917.6 151 917Z" fill="#C27F73"/>
<path d="M872.5 897.9C872.9 896.6 874 894.6 874.9 893.5C875.8 892.4 877.2 889.7 877.9 887.5C878.6 885.3 879.8 882.8 880.6 882C881.3 881.2 881.9 880.1 881.9 879.5C882.2 876 887 869 887 872.1C887 872.8 888.1 873.1 890 872.8L893 872.3V882.2C893 892 893 892 889.6 895.7C886.4 899.2 885.8 899.4 879 899.8C871.8 900.2 871.8 900.2 872.5 897.9Z" fill="#C27F73"/>
<path d="M826.1 882C825 881.4 825 881.2 826.1 880.8C828 880.2 820.1 872.2 817 871.6C815.6 871.4 814.3 871.1 814 871.1C813.7 871 814.1 870.6 814.9 870.1C816 869.4 816 868.6 815.2 866.1L814.1 863H824.4H834.6L835.8 866.3C837.5 871.1 837.3 872.3 834.2 875C832.7 876.4 830.5 878.7 829.4 880.2C828.1 881.9 826.9 882.6 826.1 882Z" fill="#C27F73"/>
<path d="M710.6 876.7C709.9 871.9 705.8 867.5 701 866.3C699.6 865.9 697.9 865.1 697.2 864.3C696.1 863.2 697.9 863 707.9 863C714.9 863 720.1 863.4 720.5 864C721.3 865.3 718 873 716.7 873C716.2 873 716.3 873.7 717 874.4C717.6 875.2 718 876.9 717.8 878.2C717.6 880 716.8 880.6 714.4 880.8C711.4 881.1 711.2 880.9 710.6 876.7Z" fill="#C27F73"/>
<path d="M179.2 860.9C172.8 857.7 166.8 850.1 165.5 843.7C165.3 842.7 164.8 841 164.5 840C164.2 839 163.7 837.3 163.5 836.3C163.3 835.3 161 826.4 158.5 816.5C155.9 806.6 153.7 797.8 153.5 797C153.3 796.2 152 791 150.5 785.5C149 780 147.4 773.7 146.9 771.5C146.5 769.3 145.6 765.9 145 764C144.4 762.1 143.1 756.7 142 752C140.9 747.3 138.6 738.3 136.9 732C135.2 725.7 133.7 719.8 133.5 719C133.3 718.2 130.9 708.5 128 697.5C125.2 686.5 122.7 676.8 122.5 676C122.3 675.2 120.1 666.5 117.6 656.7C113.6 640.8 113.2 638.3 114 633.8C115.1 628.1 117.7 625.5 124.9 622.8C129.2 621.3 134.1 621.3 136.5 622.9C137.1 623.3 138.9 623.6 140.5 623.5C142.2 623.4 143.8 623.8 144.2 624.4C144.7 625.1 145 625.1 145 624.2C145 623.3 145.7 623.1 147 623.5C148 623.8 149.8 623.7 150.8 623.1C153.9 621.5 170 621.5 171.1 623.1C171.8 624.2 172.2 624.2 172.8 623.2C173.4 622.3 176 622 181.3 622.2C187.7 622.4 189.1 622.8 189.6 624.3C190.1 625.9 190.3 625.9 192.6 624.1C194.6 622.5 196.8 622.2 207.2 622.1C213.9 622 219.6 621.7 220 621.5C220.4 621.3 222.4 621.6 224.6 622.2C226.7 622.8 229 623.2 229.5 623.1C230.1 622.9 233.3 622.6 236.6 622.4C240 622.2 243.9 621.6 245.4 621.1C246.8 620.5 248.1 620.4 248.4 620.9C248.7 621.3 261.2 621.7 276.2 621.8C291.2 621.9 304.9 622.3 306.5 622.8C309.5 623.7 313.1 623.6 324.3 622.6C328.1 622.2 330 622.4 330 623.1C330 623.9 330.5 623.8 331.5 623C332.6 622.1 333.7 622 335.3 622.7C336.7 623.3 340.2 623.4 345 622.8C349.1 622.4 356.8 621.8 362 621.7C367.3 621.5 372.1 621 372.8 620.6C373.5 620.2 374 620.3 374 620.8C374 621.3 382 621.7 391.7 621.8C407.3 621.9 409.6 622.1 410.7 623.6C411.4 624.6 412 624.9 412 624.3C412 623.7 414 623 416.5 622.8C419 622.6 421 622.8 421 623.2C421 623.6 422 623.3 423.3 622.7C425 621.8 428.3 621.7 435.1 622.3C448.9 623.4 453.5 624.4 452.5 626C452.2 626.4 453.1 627.1 454.5 627.4C455.9 627.8 457 628.7 457 629.6C457 630.4 457.4 630.9 457.9 630.5C459 629.9 460.5 633.8 459.6 634.8C459.3 635.1 459.8 636.3 460.9 637.4C461.9 638.6 463.3 641.3 464 643.5C465.8 649.6 467.4 653 468.4 653C468.8 653 468.7 653.7 468 654.5C467.1 655.6 467.1 657 468 660.7C468.6 663.3 469.8 668.9 470.5 673C472.5 683.8 474.1 689.3 475.7 690.6C476.5 691.3 476.7 692 476.2 692.1C474.8 692.7 479.2 709.7 481.4 712.2C482.5 713.4 482.9 714.5 482.3 714.7C481.6 715 481.7 717.7 482.5 722.8C484.5 735.3 486.9 742.2 489.8 744.7C492 746.5 492.1 747 490.8 747C489.4 747 489.1 747.7 489.4 749.8C489.6 751.3 490.1 753.3 490.5 754.3C490.9 755.2 491 756.9 490.7 758C490.4 759.1 490.5 760 491 760C491.7 760 492.7 765.8 493.3 773.6C493.5 775.4 494.1 777.4 494.8 778.2C495.5 779 496.2 781.9 496.5 784.6C497.3 792 497.7 794.2 498.9 798C500.3 802.3 500.3 803.3 499 802.5C498.4 802.2 498 802.4 498 802.9C498 803.5 498.6 804 499.4 804C500.2 804 501.1 805.2 501.4 806.8C501.7 808.3 502.2 810.6 502.4 812C503.5 817.4 507.4 831.5 507.9 832C508.6 832.6 508.9 836 509.2 846.8C509.4 851.3 509.8 855 510.1 855C510.5 855 511.1 856.1 511.4 857.4C511.7 858.7 512.3 860.5 512.6 861.4C513.2 862.9 498.8 863 348.4 863H183.5L179.2 860.9ZM327 779.3C332 777 336.7 771.5 339 765.1C341.1 759.7 341 754 338.8 754C338.2 754 338 751.6 338.5 747C339.2 740.3 339.1 739.9 336.4 736.7C333.9 733.9 329.9 728.8 328 726.1C327.7 725.7 325.5 724.3 323 722.9C320.5 721.6 318.3 720.2 318 719.9C316.8 718.3 308.3 716.9 304.2 717.5C301 718 299.6 718.7 299.3 720.1C298.9 721.3 297.9 722 296.3 722C294.9 722 292.6 722.6 291.2 723.4C289.7 724.2 287.7 725.1 286.7 725.4C285.8 725.7 284.7 727.3 284.4 729C284 730.6 283.4 732 282.9 732C282.4 732 282 733.2 282 734.6C282 736 281.3 737.8 280.5 738.6C278.6 740.6 278.6 745.9 280.5 751.9C281.3 754.4 282.2 757.6 282.4 759C283.1 762.4 294.1 774.3 299.8 777.7C303.4 779.9 306.2 780.6 312 781.1C320.4 781.7 322 781.5 327 779.3Z" fill="#8275B1"/>
<path d="M528.7 858.9C528.4 856.6 527.8 854.4 527.3 854.1C526.9 853.8 526.5 852.2 526.5 850.5C526.4 848.9 526.1 845.4 525.6 842.8L524.9 838H597.7H670.5L673.2 840.3C678.8 844.9 678.6 855.6 672.8 860.5L669.8 863H599.6H529.3L528.7 858.9Z" fill="#8275B1"/>
<path d="M697.6 738.399C696.7 737.599 696 736.599 696 736.199C695.4 717.699 693.1 690.699 692.2 690.099C691.4 689.599 691.3 684.699 692 681.499C692.6 678.999 691.8 677.099 690 676.499C687.5 675.699 687.3 673.999 689.8 674.599C691.2 674.999 691.5 674.399 691.6 670.999C691.8 663.599 695 660.199 700.3 661.499C702.8 662.199 703.3 663.899 703.2 671.499C703 686.799 703.1 699.199 703.5 702.499C703.8 704.699 704.2 708.699 704.4 711.499C704.7 714.199 705.3 716.599 705.8 716.799C706.4 716.999 706.6 718.899 706.3 721.099C705.8 724.499 706 724.899 707.4 724.399C708.3 724.099 709 724.299 709 724.899C709 725.499 708.6 725.999 708.1 725.999C707.5 725.999 707.2 726.799 707.2 727.799C707.4 731.299 704.9 737.999 703 738.999C700.4 740.399 699.4 740.299 697.6 738.399Z" fill="#E1733F"/>
<path d="M493.2 691.8C492.5 691.1 492 689.9 492 689C492 688.2 491.2 686.3 490.3 685C488.9 683.1 488.5 680.8 488.7 675C488.9 666.7 489.1 665.4 490.7 662.5C491.6 660.7 493 653.9 493.6 648.7C493.8 646.4 495 645.2 495 647.3C495 649.5 496.6 649.5 497.8 647.3C498.7 645.9 498.9 645.9 500 647.9C500.9 649.7 500.8 650.6 499.6 652.5C498.4 654.3 498.4 655 499.3 655.3C500.8 655.8 500.6 668 499.1 670.9C498.5 672 497.9 676.3 497.8 680.5C497.8 684.6 497.3 688 496.9 688C496.4 688 496.3 688.6 496.6 689.3C497.3 691.3 494.7 693.3 493.2 691.8Z" fill="#E1733F"/>
<path d="M647.9 923.6C649.7 922.6 651 922.5 652.6 923.2C654.1 923.9 655.4 923.8 656.9 923.1C659.2 921.8 659.7 920 657.8 920C656.9 920 657 919.6 658 919C660.3 917.5 661 917.8 661 920C661 921.1 661.3 922 661.8 922.1C662.2 922.2 666.1 922.4 670.5 922.6C674.9 922.8 679.6 923 680.9 923.1C684.4 923.3 685.9 921.1 686.3 915C686.7 910.6 686.3 909 684.6 906.7C682.6 904 682.6 903.8 684.3 902.9C685.2 902.3 685.8 901.5 685.5 900.9C685.1 900.4 685.8 900 686.9 900C688 900 689.2 899.5 689.5 899C689.8 898.4 690.6 898 691.1 898C691.7 898 691.9 898.4 691.5 898.9C690.7 900.2 701 901.4 705.9 900.5C708.2 900.1 710 899.3 710 898.7C710 897.8 710.2 897.8 710.8 898.6C711.5 899.8 715.5 899.9 755.5 899.9C785.4 899.8 783.7 899.8 786 901C787.3 901.7 788.1 901.7 788.5 901C788.8 900.5 790 900 791.1 900C792.2 900 792.8 899.6 792.5 899C791.7 897.7 792.6 897.7 795 899.2C796.6 900.2 797.4 900.2 799 899.3C800 898.6 801.2 898.4 801.5 898.9C801.8 899.4 813.6 899.8 827.9 899.7C848 899.6 854.1 899.9 855.4 900.9C856.3 901.6 857.6 902 858.4 901.7C859.2 901.4 860.1 901.6 860.4 902.3C860.6 903 860.9 902.7 860.9 901.8C861 899.9 863 899.2 863 901.1C863 901.6 863.4 901.8 864 901.5C864.6 901.1 865 905.2 865 912.9V925H755.3C662.4 924.9 645.9 924.7 647.9 923.6Z" fill="#B16E68"/>
<path d="M700.7 384.8C689.2 369.4 678.1 345 672 321.3C668.6 308.3 665.3 292.7 664.5 285.5C664.2 282.8 663.7 278.4 663.4 275.7L662.8 271L658.2 274.8C635.9 293.4 610.9 301.9 597.9 295.4C590.2 291.5 586.2 282.7 587.4 272.3L588 266.8L581.8 272.3C569.8 282.7 553.2 290 541.5 290C533.5 290 529.6 288.2 528.1 283.9C526.3 278.7 526.8 274.4 530 267.3C531.7 263.7 532.9 260.5 532.7 260.4C532.5 260.2 530.2 262 527.4 264.4C510.2 279.4 481.6 292.7 462.5 294.8L455.5 295.5L454.4 300.7C453.8 303.6 452.9 308.7 452.6 312.1C452.2 315.5 451.2 323 450.4 328.9C448.4 343.3 445.8 367.8 445.8 371.4C445.9 373.1 445.7 373 443.3 370.9C439.7 367.6 428 351.7 424.3 345C413.1 325.3 409.1 297.3 415.6 284.8C417 282.2 416.9 282 412.4 278.3C398.2 266.4 395.1 245.2 405.5 230.8C411.9 222.1 420.6 216.5 434.7 211.9C438.2 210.7 441 209.3 441 208.6C441 207.9 442.2 204.9 443.6 201.9C458.4 171.2 491.2 149.4 536.5 140.1C550.6 137.2 582.9 134.7 597 135.5C624.1 136.9 647 141.7 665.8 149.8C680 155.9 692.9 164.9 704.3 176.5L710 182.4V175.9C710 170.7 710.4 168.9 712 167.2C718.5 160.2 730.5 171.3 734.7 188.2C735 189.5 735.4 193.5 735.7 197.1L736.2 203.7L741.1 203.2C751.1 202.3 765.3 206.9 768.1 212.1C769.9 215.5 768.3 220.9 765.2 222.1C762.4 223.2 756.8 222.9 753.8 221.6C750.7 220.2 751.9 222.3 758.5 229.9C768.5 241.4 775.4 256.7 779 276C781.6 289.9 781.3 322.9 778.5 337.5C776.4 348.3 768.4 373.8 766.4 375.9C766.2 376.1 764.2 374.8 762 373C755 367.5 747.7 365.1 738.5 365.3C732.2 365.5 729.4 366 725.6 368C718.9 371.3 714.2 376.2 711.4 382.7C709.3 387.4 708.7 388 706.1 388C703.9 388 702.5 387.1 700.7 384.8Z" fill="#976373"/>
<path d="M591.5 490C586.5 486 578.9 482.5 570.8 480.4C559.9 477.5 546.6 480.4 535.5 487.9C527.5 493.4 524.3 486.2 531.7 479.4C540.3 471.4 556.8 468.3 574 471.3C584.8 473.3 602.2 485.3 600.6 489.7C600.2 490.5 600 491.6 600 492.1C600 494 595.1 492.9 591.5 490Z" fill="#B05F57"/>
<path d="M601.5 355.6C591.7 353.4 577 343.8 577 339.5C577 334.5 582.1 334.5 588.7 339.6C592.8 342.7 600.3 345.9 605.5 346.8C613.6 348.1 626.3 347.5 630.2 345.6C634.4 343.6 637.6 344.1 638.5 347.1C640.8 354.3 618.6 359.4 601.5 355.6Z" fill="#B05F57"/>
<path d="M491.5 348.8C482.3 347.5 480.1 346.8 477.5 344.4C472.1 339.4 475.8 336.1 484.1 338.6C492.2 341.1 501.2 340.6 509.5 337.5C513.4 336.1 517.4 334.3 518.5 333.6C522 331.3 527 331.1 528.1 333.2C529.4 335.5 528 338.2 523.7 341.4C515.5 347.7 503.2 350.5 491.5 348.8Z" fill="#B05F57"/>
<path d="M312.1 785.1C311.4 784.6 309 784.2 306.9 784.2C299.8 784.1 291.1 777.7 280.5 764.9C279.4 763.6 278.6 761.5 278.8 760.4C279 759.2 278.3 756.5 277.4 754.4C276.5 752.2 275.7 749.2 275.7 747.5C275.7 739.7 276.1 737 277.3 735.8C277.9 735.1 278.5 733.2 278.5 731.5C278.5 729.6 279 728.6 279.8 728.8C280.5 728.9 281 728.5 280.8 727.8C280.4 725.6 283 722 285.1 722C286.2 722 287.3 721.3 287.6 720.5C288 719.7 288.6 719.2 289 719.5C289.5 719.8 290.3 719.2 290.9 718.3C291.7 717 291.9 716.9 292 717.9C292 719 292.4 718.8 293.5 717.4C294.9 715.5 294.9 715.5 295 717.5C295 719.3 295.2 719.2 296.3 717C297.6 714.4 298.9 714 307 713.9C311.5 713.8 320 715.6 321 716.9C321.3 717.2 323.5 718.6 326 719.9C328.5 721.3 330.7 722.7 331 723.1C332.8 725.5 336.9 730.8 339.1 733.4C341.1 735.8 341.8 738 342.3 743.3C342.8 748.2 342.6 750 341.7 750C340.9 750 341 750.3 341.9 750.9C344.4 752.5 344.5 761.8 342.1 768.1C338.5 777.5 332.8 782.3 321.9 785.1C317.7 786.2 316.6 786.2 316.2 785.2C315.9 784.3 315.4 784.2 314.6 784.9C314 785.4 312.8 785.5 312.1 785.1Z" fill="#665E96"/>
<path d="M607 415.7C599.4 411.9 595.8 395.3 600.5 386C602.2 382.7 605 379.6 607.6 378.2C610.6 376.6 616.6 378.3 619.6 381.5C623.1 385.3 624.2 388.4 624.7 396C625.7 410.4 616.6 420.5 607 415.7Z" fill="#804848"/>
<path d="M497.2 414.5C490 411.4 486.5 395.1 490.9 385.4C493.7 379.3 497.5 376.7 502.8 377.3C507.7 377.8 510.4 379.9 513.3 385.5C517.8 393.9 515 409 508.2 413.8C504.7 416.3 501.8 416.5 497.2 414.5Z" fill="#804848"/>
</g>
<defs>
<clipPath id="clip0_2870_8629">
<rect width="1024" height="1024" fill="white"/>
</clipPath>
</defs>
</svg>
