<svg width="1024" height="1024" viewBox="0 0 1024 1024" fill="none" xmlns="http://www.w3.org/2000/svg">
<g clip-path="url(#clip0_2870_8827)">
<path d="M513.3 850C510.9 849 498.7 846.5 475 842C415.6 830.7 397.4 827.1 381.8 823.4C373.7 821.5 365.2 819.2 362.8 818.4C360.4 817.5 351.8 815.1 343.5 813L328.5 809.2L328.2 804.4C328.1 801.7 328.3 799 328.7 798.5C329.8 797 337.6 791.6 350.1 783.7C359.2 778 361.4 777 365.2 777C369.4 777 369.9 776.7 372.5 772.8C376.5 766.7 391.9 751.9 401.3 745C410 738.5 412.7 737.9 421.5 740C423.7 740.5 432 742.1 440 743.5C448 744.9 464 747.9 475.5 750.1C487.1 752.3 500.7 754.9 505.8 755.8C515.9 757.6 515.8 757.5 514.4 764.9C513.9 767 513.2 768 511.9 768C510.8 768 510 768.7 510 769.5C510 770.3 510.7 771 511.5 771C512.3 771 513 771.5 513 772C513 772.6 513.7 773 514.5 773C515.3 773 516 773.4 516 773.9C516 774.4 516.9 775 518 775.3C519.5 775.7 520 776.7 520 779.5C520 781.5 519.5 784 519 785.1C516.8 789.1 524 795 531.2 795C533 795 538.5 793.2 543.5 791C548.4 788.8 553.9 787 555.7 787C558.7 787 559 787.3 559 789.9C559 791.4 557.7 795.4 556.1 798.6C554.5 801.8 551.5 808.6 549.4 813.5C545.4 823.2 535.9 837.7 528.2 845.9C524 850.4 522.9 851 519.4 850.9C517.3 850.9 514.5 850.5 513.3 850Z" fill="#FDEED6"/>
<path d="M327 393C327 382.5 331.2 377.1 340 376.2C344.1 375.8 344.8 376 345.3 377.9C345.6 379 346.5 380 347.2 380C348 380 349.2 381.1 349.8 382.5C351.2 385.5 351.4 392 350.2 392C349.7 392 348.3 392.9 347 394C345.7 395.1 343.3 396 341.4 396C339.6 396 338 396.5 337.8 397.1C337.6 397.7 335.1 398.5 332.2 398.8L327 399.3V393Z" fill="#FDEED6"/>
<path d="M237.5 302.5C226.2 301.1 218.2 299.1 207.7 295.3C198.2 291.8 183.1 283.8 175 278.1C155.7 264.4 137.7 239.4 132.5 219C131.6 215.4 130.3 210.8 129.5 208.7C128.5 206.3 128 201.3 128 194.7C128 159.9 138.8 132.2 161 110C180.5 90.5002 209.1 75.8002 238.4 70.2002C251.2 67.8002 291.3 67.9002 299.8 70.4002C328 78.8002 337.9 83.0002 353.5 93.3002C378.5 109.9 396 137.2 400.1 165.8C401.9 178.5 400.8 205.5 398.1 214.9C395.1 224.9 387.3 241.3 381 250.4C374.6 259.7 360.9 273 350.6 280C334.1 291 308 300.8 289 303C277.7 304.3 249.9 304 237.5 302.5ZM270 253.7C271.9 252.5 274.3 250 275.3 248.2C277 245.4 277 244.5 276 242C275.3 240.3 273.4 237.8 271.7 236.4C266.1 231.7 257.5 234.9 255 242.6C253.5 247.1 255.7 251.1 261.2 253.9C266.5 256.5 266 256.5 270 253.7ZM270.4 217.5C272.6 216.1 273.9 213.6 277.1 205.1C278.7 200.9 283.3 194.1 292 183C299.1 174.1 304.4 165.3 305.4 160.8C306.2 157.2 302.9 146.9 298.3 139.1C292.1 128.7 282.7 123.5 267.5 122.3C248.8 120.8 228.6 135.3 225 152.7C223.5 159.6 224.8 163.2 229.6 165.5C232.7 167 233.2 166.9 236.8 165.1C241.1 162.9 242.3 160.9 244 152.4C245.6 144.4 246.5 143.1 251.3 140.9C256.3 138.7 273.1 138.3 276.6 140.3C280.3 142.4 283.6 145.5 284.8 147.7C287.6 152.9 285 167.7 279.9 175.2C278.5 177.2 273.5 182.9 268.7 187.9C260.1 197 257.4 200.9 255 208.3C253.6 212.7 254.7 214.6 260.3 217.4C264.4 219.4 267.5 219.4 270.4 217.5Z" fill="#FDEED6"/>
<path d="M516.3 780.8C516.4 779.1 516 778.5 514.8 778.6C513.8 778.7 513 778.2 513 777.4C513 776.6 512.3 776 511.5 776C510.7 776 510 775.6 510 775.1C510 774.6 509.1 774 508.1 773.7C506.6 773.3 506.2 772.5 506.4 770.4C506.6 768.8 506.8 766.7 506.9 765.7C507 764.3 507.5 764 509.3 764.5C511.1 765.1 511.3 765 510.3 763.9C509.3 762.9 509.4 762.4 510.8 761.4C512.3 760.2 512.1 760.1 509 760C506.4 760 505.9 759.7 507 759C509.6 757.3 518 757.9 529.2 760.6L540 763.2V766.5C540 769.5 539.5 770 533.3 773.3C529.5 775.3 525 778.3 523.2 779.9C519.2 783.7 515.9 784 516.3 780.8Z" fill="#FDE8CB"/>
<path d="M296.3 641.8C294.5 640.9 294 639.8 294 636.9C294 633.4 294.3 633 299.2 630.6C303.5 628.5 305.8 628 312.2 628H320V632.1C320 637.6 318.8 639.5 314 641.4C309.5 643.2 299.7 643.4 296.3 641.8Z" fill="#FDE8CB"/>
<path d="M334.2 406.3C332.4 405.4 330 403.6 329 402.2C326.6 399.2 326.3 393.5 328.5 392.6C329.5 392.2 330 392.7 330 394C330 396.1 331.5 396.7 332.5 395C332.9 394.4 333.6 394.2 334.1 394.5C334.6 394.9 335 394.6 335 394.1C335 393.5 336.5 393 338.3 393C340.2 393 342.7 392.1 343.9 391.1C345.2 390 346.6 389 347.2 388.8C347.8 388.6 347.7 387.4 346.9 385.7C346 383.7 345.4 383.3 344.8 384.2C344.3 385.1 343.7 384.5 342.8 382.2C342.1 380.3 341 379.2 340.3 379.4C339.5 379.7 339 379.2 339 378C339 376.2 339.7 376 347.5 376C355.6 376 356 376.1 357.6 378.8C358.6 380.3 360.4 383.1 361.7 385.1C366 391.7 364.1 402.2 357.8 406C353.5 408.6 339.3 408.8 334.2 406.3Z" fill="#FDE8CB"/>
<path d="M287 368C277.5 363.6 273 356 273 344.6C273 337.5 274.2 334 278.6 328.2C284.2 320.8 289.3 318.5 300 318.5C307.3 318.5 309.3 318.9 314.2 321.3C320.8 324.5 326.2 330.3 327.8 335.9C328.5 338 329 343.1 329 347.1C329 357.6 327.3 360.3 317.7 365.3C310.6 368.9 309.1 369.3 300.7 369.7C292.9 370 290.8 369.8 287 368Z" fill="#FDE8CB"/>
<path d="M352.5 768.5C349.8 767.8 344.9 766.9 341.8 766.5C336.2 765.9 336 765.7 336 762.9C336 760.9 337.2 758.8 339.8 756.1C343.9 751.8 346.5 746.7 347.5 740.8C348 737.7 348.6 736.9 350.8 736.4C360.5 734.4 367.3 729.6 368.5 724C369.1 721.3 369.5 721 373 721C376.8 721 376.9 721 377.6 725.6C379.2 736.4 376.1 748.8 368.7 762C364.7 768.9 364.2 769.5 361 769.7C359.1 769.8 355.3 769.3 352.5 768.5Z" fill="#EFD1EA"/>
<path d="M0 512V0H512H1024V512V1024H512H0V512ZM465.5 966.9C466 966.4 467.9 966 469.7 966C472.1 966 473 965.5 473 964.4C473 963 474.2 962.9 481.8 963.4C495 964.2 513.2 964 515.1 962.9C517.4 961.7 528.5 961.8 538 963.1C557.7 965.8 558.5 965.9 559.3 964.5C560.4 962.5 572 961.6 579.3 963C585.2 964.1 586 964 590.4 961.9C594.9 959.8 595.6 959.8 601.6 960.9C605.5 961.7 610.2 961.9 614 961.5C619.1 960.9 620.3 960.4 621.2 958.4C622.1 956.4 623.1 956 626.7 956C629 956 631 956.5 631 957C631 957.6 631.8 958 632.8 958C633.8 958 635.1 958.5 635.7 959.1C637.2 960.6 651.7 960.4 655.6 959C657.2 958.4 658.8 957.4 659.2 956.7C660.2 955.1 670.7 955.2 675.8 956.9C679.8 958.2 680.3 958.2 683.9 956.2C687.6 954.1 695 953.2 695 954.8C695 955.2 699.7 955.4 705.5 955.2C713.9 954.9 716 955 716 956.1C716 957.8 721.3 960.5 721.8 959C722 958.5 723 958 723.9 958C724.9 958 726.5 957 727.6 955.9C729.2 954.1 730.3 953.9 734.7 954.3C739.1 954.8 739.9 954.6 740.3 952.9C740.7 951.4 741.7 951 745.8 951C751.1 951 757 949.4 757 947.9C757 946.8 763.7 946.7 764.2 947.8C764.8 949.4 777.8 946.5 780.3 944.2C782.2 942.4 783.8 942 788.6 942C794.4 942 811 938.5 812 937C812.7 936 819.1 933 820.5 933C822.1 933 826 927.4 826 925C826 923.9 825.6 923 825 923C824.5 923 824 922.1 824 921C824 919.3 823.3 919 820.1 919C817 919 815.5 918.3 812.7 915.5C809.4 912.2 808.8 912 802.8 912C799.4 912 792.9 911.3 788.5 910.4C774 907.6 769.6 907.1 765.2 907.7C762.2 908.1 760.6 907.9 760 907C759.6 906.3 755.5 905.4 749.9 904.9C735.1 903.5 735.6 903.8 736.3 897.9C736.9 892.8 735.2 889 732.3 889C729.8 889 730.8 882.5 733.6 879.9C738.3 875.5 748 862.9 750.6 857.7C754.5 850.2 756 844.4 756.7 835C757.4 824.5 754.9 814.3 748.9 803.2C745.2 796.3 743.8 790 746 790C747.1 790 746.1 779.9 744.9 778.6C743.7 777.2 743.8 771.9 745.1 768.2C745.8 766.2 747 765 748.8 764.5C751.5 763.8 753 762.4 753 760.5C753 758.6 748.2 754 746.2 754C742 754 741 753 741 748.4C741 744.5 741.3 744 743.3 744C744.5 744 746.7 742.8 748.3 741.5C750.7 739.3 751 738.4 751 732.5C751 727.9 750.5 725.4 749.5 724.4C747.7 722.6 747.5 714.9 749.2 713.2C750.1 712.3 750.1 711.2 749.1 708.5C747.4 703.7 748.6 694.9 751.3 691.9C752.7 690.4 753 689.5 752.2 689.2C749.6 688.4 748 685.7 748 682.1C748 678.1 748.4 677.7 756.1 674.7C758.8 673.6 760.9 671.4 764.1 666.6C766.5 663 769.2 659.8 770.1 659.5C770.9 659.2 772.3 657.8 773 656.5C773.7 655.1 774.9 654 775.6 654C777.6 654 782 646.9 782 643.8C782 641.3 782.3 641.1 787.8 640.5C797.4 639.4 797 639.8 796.3 632.4C795.9 627.9 796.1 626 796.9 626C797.5 626 798 625.3 798 624.5C798 623.7 798.7 623 799.5 623C800.4 623 801 622.1 801 620.6C801 619.3 801.7 618 802.5 617.6C803.3 617.3 804 616.4 804 615.6C804 614.9 805.6 613.5 807.6 612.5C809.6 611.6 811.5 609.9 811.7 608.9C812 607.9 812.9 607 813.6 607C814.6 607 815 605.7 815 603C815 600.8 815.3 599 815.8 599C816.2 599 817.5 596.8 818.8 594C820.1 591.3 821.5 589 821.9 589C822.4 589 823.1 587.9 823.4 586.5C824.1 583.8 827.8 579 829.3 579C830.8 579 833 576.2 833 574.1C833 573 833.5 571.8 834 571.5C834.6 571.2 835 567.1 835 562.5C835 553.5 836.2 549.6 839.7 546.7C840.9 545.7 843.8 543 846.1 540.7C850.6 536.1 850.6 535.9 848.4 520.8C847.8 516.7 848 516 849.4 516C850.3 516 851 515.2 851 514.1C851 513 851.4 511.9 851.9 511.6C852.4 511.3 853.1 509.1 853.4 506.8C854 503.2 854.6 502.2 857.6 500.8C859.5 499.8 863 499 865.4 499H869.7L870.4 494.4C871.1 488.7 870.7 488 866.7 488C858.9 488 858.9 487.9 859 476.6C859 471.1 858.8 464.4 858.4 461.8C857.9 457.9 858 456.9 859.4 456.4C860.4 456 861 454.6 861 452.9C861 450.4 861.4 450 863.9 450C866.4 450 867 449.5 867.5 447C867.9 445.4 868.7 443.7 869.4 443.3C870.1 442.8 871 440.6 871.3 438.3C871.7 434.7 871.5 434 869.9 433.5C868.9 433.1 868 432.4 868 431.9C868 431.4 867.3 431 866.5 431C865.6 431 864.7 430.3 864.4 429.5C864 428.7 862.6 428 861 428C858.6 428 858.2 427.5 857.6 424.3C856.8 419 856.9 415 857.8 415C858.3 415 859.1 411.3 859.7 406.8C860.3 402.2 861.1 397.3 861.5 395.7C862.1 393.6 861.6 392 859.7 389.2C857.8 386.3 857.2 383.8 856.8 378.1C856.5 372.6 856 370.6 854.7 369.9C853.8 369.3 853 368 853 367C853 366 852.6 364.9 852.1 364.6C851.6 364.2 850.9 362.1 850.5 359.9C850 357 849.2 355.6 847.9 355.3C846.5 354.9 846 353.9 846 351.4C846 349.5 846.4 348 846.8 348C847.9 348 846.5 338.4 844.5 331.6C842.3 324.3 842.5 321.5 845.5 320.2C846.9 319.6 848 318.4 848 317.6C848 316.8 848.6 315.7 849.4 315.3C850.1 314.9 851 313.5 851.4 312.4C852 310.5 851.6 310.2 847.8 309.7C845.5 309.4 841.4 309.4 838.8 309.7C830.2 310.7 829.2 309.5 827.1 296C826 289.1 823.8 283.9 821.1 282C819.9 281.2 819 280 819 279.3C819 278.6 818.6 278 818 278C817.5 278 817 276.9 817 275.5C817 272.4 815.3 269.3 811.9 266.3C810.4 265 808.9 262.9 808.6 261.5C808.2 260.1 807.5 259 806.9 259C805.3 259 803 256.4 803 254.6C803 253.7 802.6 253 802 253C801.5 253 801 252.3 801 251.5C801 250.7 800.3 250 799.5 250C798.7 250 798 249.1 798 248.1C798 247.1 796.9 245.2 795.5 243.9C794.2 242.6 793 241.1 793 240.6C793 240.2 791.6 238.2 789.9 236.2C788.2 234.2 786.1 231.2 785.4 229.4C784.6 227.5 782.8 225.6 781 224.9C779.4 224.1 778 222.9 778 222.3C778 221.6 777.6 221 777.2 221C776.7 221 775.5 219.5 774.5 217.7C772.4 213.8 767 210 763.5 210C761.5 210 760.8 209.4 760.4 207.1C760 205.4 758.9 203.3 757.9 202.4C756.8 201.5 756 200.2 756 199.5C756 197 746.2 191 742 191C740.9 191 740 190.6 740 190C740 189.5 739.2 189 738.2 189C733.7 189 732.4 182.1 736.2 178.8C738.1 177.2 738.2 176.6 737.2 175C736.5 173.9 736 172.3 736 171.5C736 170.7 735.6 170 735 170C734.5 170 734 169.2 734 168.3C734 167.1 733.2 167.5 731.2 169.8C728.6 172.7 727.8 173 722.7 173C718.7 173 717 172.6 717 171.7C717 168.8 710.5 164.2 704.8 162.9C701.4 162.1 699 161 699 160.2C699 159.5 698.2 158.6 697.3 158.3C696.3 157.9 695.3 157.4 695 157C693.8 155.6 682 150 680.1 150C678.9 150 678 149.4 678 148.5C678 147.7 677.1 147 676 147C674.9 147 674 146.7 674 146.2C674 145.3 669.5 143.4 665.3 142.5C663.5 142.1 662 141.3 662 140.6C662 139.9 660.9 138.1 659.5 136.6C658.1 135.1 657 133.5 657 132.9C657 132.4 656.3 132 655.5 132C654.7 132 654 131.6 654 131C654 130.5 653.6 130 653 130C652.5 130 652 130.7 652 131.5C652 133.5 642.2 133.5 637.3 131.5C635.4 130.7 632.8 130 631.6 130C630.5 130 628.4 128.8 627.1 127.5C625.7 125.9 623.6 125 621.6 124.9C619.9 124.9 612.2 124.6 604.6 124.4C595.2 124.2 590.2 124.4 589.3 125.2C587.8 126.4 573 125.6 572.1 124.1C571.1 122.6 567 121.8 560 121.9C556.2 121.9 551 121.6 548.5 121.1C546 120.6 544 120.6 544 121.1C544 121.6 542.2 122 540 122C535.9 122 531.5 118.8 530.8 115.3C530.3 112.6 527.3 112.6 524.8 115.3C523.5 116.6 521.7 117.9 520.8 118.3C519.7 118.7 519 120 519 121.5C519 124.4 517.9 125.8 513.7 127.9C511.4 129.1 509.9 129.2 505.6 128.3C502.1 127.5 498.1 127.5 493.9 128C484.7 129.3 473.7 131.8 473.1 132.9C472.8 133.3 470 134.2 467 134.8C460.2 136.1 454 138.2 454 139.2C454 139.7 452.8 140 451.4 140C449.9 140 448.2 140.7 447.6 141.5C447 142.3 444 143.2 440.7 143.6L437.5 144L438 146L436 147C436 147 427.2 150.5 420.2 152.1C415.3 153.3 415 153.4 406.1 156.9C396.4 160.7 396 160.4 392.1 149.2C380.6 116.1 350.9 89.8 312 78C306.2 76.3 299.3 74.1 296.5 73.3C288.9 71 253.4 71 241.4 73.2C195.2 82 155.5 111.2 140.5 147.5C132.3 167.1 128.5 195.4 132.5 205.7C133.3 207.8 134.6 212.4 135.5 216C140.7 236.4 158.6 261.3 178 275.1C181.6 277.7 188.7 281.9 193.8 284.5C202.6 289.1 203 289.4 203 292.6C203 294.8 202.4 296.4 201.1 297.1C198.9 298.5 199.4 301.6 202.1 303.1C206 305.1 204 313.8 198.6 318.9C197 320.4 196 322.4 196 324.1C196 325.6 195.7 327 195.3 327.2C194.3 327.6 191.6 332.2 189.4 337.3C188.1 340.3 187.3 341 184.9 341C183 341 182 341.5 182 342.5C182 343.3 181.1 344 180 344C178.9 344 178 344.5 178 345.1C178 345.7 176.9 347.6 175.5 349.2C173.1 352 173.1 352.4 174.5 354C176.2 355.9 176.5 363.1 175 366C174.3 367.3 174.3 368.1 175 368.5C175.5 368.8 176 370.8 176 372.8C176 375.8 175.4 376.9 173 378.5C170.9 379.9 170 381.3 170 383.3C170 384.9 169.5 386 168.7 386C167.3 386 163 393.2 163 395.6C163 396.4 163.5 397 164 397C164.6 397 165 400.2 165 404.5C165 408.8 164.6 412 164 412C163.5 412 163 413.3 163 415C163 417.6 162.6 418 159.3 418.5C153.2 419.6 152 420.1 152 421.5C152 422.3 151.3 423.3 150.4 423.8C148.5 424.9 149 428.9 151.3 431.2C152.1 431.9 153.2 433.5 153.8 434.7C155.2 437.3 155.3 450.9 154 456.6C153.5 458.9 152.9 466.4 152.7 473.3C152.3 483.7 151.9 486.6 150.1 490C147.6 494.8 147.6 495 149.3 495C149.9 495 151.3 496.2 152.4 497.6C153.8 499.6 154.1 501.2 153.6 504.8C153.3 507.3 153.5 513.2 154.2 517.8C155.1 524.6 155.1 526.6 154 528.3C153 530 153 530.5 154.2 531.4C156.2 532.9 158 536.4 158 538.9C158 540.1 158.5 541 159 541C159.6 541 160 542.3 160 544C160 548.8 166.2 573.4 167.7 574.3C168.4 574.7 169 575.5 169 576.1C169 576.6 170.1 578.1 171.5 579.4C172.9 580.7 174 582.2 174 582.9C174 583.5 174.5 584 175 584C175.6 584 176 586.2 176 588.9C176 595.1 177.6 599.8 180.1 600.5C181.3 600.9 182 602 182 603.6C182 605 183.1 607.1 184.5 608.4C185.9 609.7 187 611.5 187 612.4C187 613.3 187.8 614 189 614C190.8 614 191 614.7 191 619.5C191 624.1 191.4 625.4 193.5 627.2C195.1 628.5 196 630.4 196 632.2C196 633.7 196.4 635 196.9 635C197.4 635 199.2 636.3 200.9 637.9C203.6 640.4 204.1 641.8 204.7 647.3L205.3 653.7L209.7 653.2C214.1 652.7 214.1 652.8 221 660C227.8 667.1 228 667.5 228 672.4C228 679.6 228.7 681.2 232.3 683.6C235.4 685.5 235.6 685.5 237.2 683.8C239.5 681.4 244.1 681.5 248.7 684C250.8 685.1 253 686 253.6 686C254.3 686 255.8 688.4 257 691.3C258.5 694.8 260.7 697.8 264 700.5C266.7 702.7 269.1 705.3 269.5 706.3C269.8 707.2 270.7 708 271.4 708C272.1 708 273.3 709.8 274 711.9C275.6 716.8 274.7 723.1 271.8 727.8L269.8 731.1L272 733.5C274.9 736.6 275.7 742.8 273.6 746.8C272.7 748.5 271.6 753.8 271.1 758.4C270.4 765.4 269.7 767.8 267.1 771.8C263.4 777.6 263.2 779 266.3 779C267.6 779 269.5 779.9 270.4 780.9C271.4 781.9 273.7 783.1 275.6 783.4C278.5 784 279 784.5 279 787C279 788.6 277.7 792.2 276.1 794.9C270.4 804.5 269.7 808 270.5 823.6L271.1 837.8L265.1 838.5L259 839.2V843C259 847.4 261.1 850 264.6 850C266 850 267.3 850.7 267.6 851.5C268 852.4 269.5 853 271.1 853C272.7 853 274 853.4 274 853.9C274 854.4 274.8 855 275.8 855.2C276.9 855.5 278.3 858.2 279.8 863.3C281.1 867.6 282.6 871 283.1 871C283.6 871 284 873.1 284 875.6C284 880.1 285.3 883.8 287.4 885.2C288 885.6 292.7 886 297.8 886C306.6 886 307.2 886.2 309.5 888.6C311.5 890.8 312 892.4 312 896.6C312 901.5 311.8 902 309.4 902.6C308 903 304.7 903 301.9 902.8C299.2 902.5 296.7 902.6 296.5 903C295.8 904.1 280.8 905.4 266.5 905.4C254.8 905.5 253.1 905.7 250 907.8C248.1 909 245.3 910 243.8 910C242.3 910 240.8 910.5 240.5 911C240.2 911.6 238.3 912 236.4 912C233.9 912 232.3 912.8 230.3 915C227.4 918.3 223.5 918.9 220 916.8C218.4 915.8 217.4 915.9 214.7 917.3C210.2 919.7 206 923.7 206 925.6C206 926.4 207.1 927.5 208.5 928C209.9 928.5 211 929.3 211 929.7C211 930.8 217.5 933.7 222.8 935C225.1 935.6 227 936.5 227 937C227 937.5 228 938.2 229.3 938.5C230.5 938.9 232.9 939.8 234.5 940.5C236.2 941.2 240 942.1 243 942.5C248.1 943.1 256.9 945.7 258 946.9C258.3 947.3 262.6 947.6 267.5 947.6C291.7 948 296.3 948.5 301.6 951.3C306.1 953.6 308 954 315.3 954C320.6 954 324.2 953.6 324.6 952.9C325.5 951.4 333.8 952.4 338.2 954.4C343.7 956.9 349.6 957.4 352.2 955.6C354.6 953.9 361.6 953.4 362.2 954.8C362.6 956 393.8 959.9 408 960.5C421 961.2 431 962.7 432.5 964.4C433.1 965 437 965.5 441.5 965.6C446.5 965.6 450.5 966.2 452.1 967.1C454.8 968.6 463.8 968.5 465.5 966.9Z" fill="#DDBBDD"/>
<path d="M806.1 924.1C805.2 923.5 804.9 921.7 805.1 918.1C805.3 915.3 805.1 913 804.7 913C804.2 913 804 912 804.2 910.9C804.4 909.4 805.3 908.6 807.2 908.4C808.8 908.3 810.9 907.8 812.1 907.5C813.8 906.9 814.1 907.2 813.8 908.6C813.4 910.7 818.5 916 820.9 916C821.9 916 823.1 915.5 823.7 914.9C825.3 913.3 827 914.7 827 917.6C827 918.9 827.5 920 828 920C828.6 920 829 920.5 829 921C829 921.6 827.3 922 825.3 922C823.2 922 820.2 922.7 818.6 923.5C815.5 925.1 808.3 925.5 806.1 924.1Z" fill="#DDBBDD"/>
<path d="M307.5 902.8C306.1 900.7 306.1 900.4 307.5 899.4C309.7 897.8 309.3 894.7 306.5 891.6C304.4 889.4 303.3 889 300.3 889.3C298.2 889.5 295.7 890.1 294.8 890.5C293.8 890.9 292.2 890.9 291.3 890.5C290.3 890 289.1 889.6 288.5 889.6C283.5 889 281.1 885.6 280.8 878.5C280.7 876.2 279.9 873.7 278.8 872.6C277.8 871.5 277.1 870.1 277.3 869.5C277.9 867.8 274.3 858.6 272.8 858.1C272.1 857.9 271.2 857.2 270.8 856.7C270.4 856 269.7 856 268.6 856.9C267.4 857.9 266.8 857.7 265.4 855.5C264.3 853.8 263 853 261.8 853.3C258.8 854.1 255.5 849.8 255.8 845.6C256.1 842.6 255.8 842 254.2 842C253.1 842 251.7 841.3 251 840.5C250 839.3 250.1 838.9 251.6 838.4C252.7 838 254.1 837.2 254.9 836.6C255.6 836 257.4 835.5 258.9 835.4C260.3 835.4 263 835.2 264.8 835.2C266.9 835.1 268 834.5 268 833.5C268 832.7 268.8 832 269.8 832C271.1 832 272.1 833.2 272.9 836.3C278.2 854 302.6 877 327.5 887.5C333.8 890.2 334 890.4 334 893.9C334 899 333.2 899.8 327 900.6C323.6 901 320.9 902 319.9 903.2C317.4 906 309.6 905.7 307.5 902.8Z" fill="#DDBBDD"/>
<path d="M722.6 904.1C722.3 903.6 719.8 902.7 717 902C712.3 900.9 712 900.6 712 897.6C712 895 712.6 894.1 714.8 893.1C716.3 892.4 720.5 889.8 724.1 887.4C727.9 884.9 731.9 883 733.5 883C735.8 883 736.1 883.2 735 884.5C734 885.7 734 886 735.3 886C736.2 886 737.3 886.7 737.8 887.6C738.6 889 738.8 889 740.3 887.5C742.3 885.6 742.4 886.5 740.9 890.9C740.1 893.3 740 894.4 740.9 895.3C741.7 896.1 741.5 896.9 740.3 898.2C738.6 900.1 739.3 900.5 743 900C744.2 899.9 744.3 900.1 743.2 901.2C741 903.5 723.7 905.9 722.6 904.1Z" fill="#DDBBDD"/>
<path d="M741.8 792.7C740.4 790.9 736.5 787.5 733.1 785C728.1 781.3 727 780 727 777.7C727 775.8 727.9 774.1 729.5 772.8C732.6 770.4 735.1 765.6 737.6 757.5C740.3 748.4 740.1 721.7 737.2 705.2C736 698.4 735 690.5 735 687.7C735.1 682.7 735.2 682.4 738.9 680.8C742.9 678.9 753 678.3 753 680C753 680.6 752.6 681 752 681C751.5 681 751 681.4 751 681.9C751 683.2 754 686.1 754.9 685.6C755.2 685.4 756.3 686.4 757.2 688C758.7 690.7 758.7 690.8 755.3 694C752.7 696.5 751.9 697.9 752.3 699.7C752.5 701 752.3 702.3 751.9 702.6C750.8 703.3 754 709 755.5 709C756 709 755.7 709.5 754.8 710.1C753.8 710.6 753 712.1 753 713.4C753 714.6 752.7 716 752.3 716.4C751.2 717.5 751.1 720 752.1 720C752.7 720 752.9 720.4 752.6 720.9C752.2 721.4 752.5 722 753.1 722.2C753.8 722.4 754.3 725.6 754.5 730.1C754.6 734.3 755 738.1 755.3 738.7C756.2 740.2 755.1 743 753.5 743C752.9 743 751.5 743.9 750.5 745C749.5 746.1 747.6 747 746.3 747C743.7 747 743.1 749.5 745.6 750.4C747.7 751.2 747.6 751.2 749.4 749.5C750.7 748.2 750.9 748.2 751.6 750.2C751.9 751.4 753.1 753.3 754.1 754.4C755.2 755.5 756 756.9 756 757.6C756 758.3 756.8 759.4 757.8 759.9C759.3 760.8 759.3 761.1 758 762C757.2 762.5 756.9 763 757.4 763C759.2 763 754.2 766.9 751.5 767.6C749.5 768.1 749.2 768.5 750.2 769.1C751.2 769.8 751.1 770 749.7 770C748.6 770 748.2 770.5 748.6 771.1C748.9 771.7 748.7 772.6 747.9 773C747 773.6 746.9 774.2 747.7 775.2C748.3 775.9 749.1 778.8 749.4 781.5C749.7 784.3 750.7 787 751.6 787.7C752.9 788.6 752.9 789.1 751.8 790.9C751.1 792.1 750 793 749.3 793C748.6 793 748.3 793.7 748.6 794.5C749.1 795.6 748.5 796 746.7 796C745.1 796 743.4 794.9 741.8 792.7Z" fill="#D6B6DE"/>
<path d="M275 788.499C276 787.299 276 786.999 274.9 786.899C271.6 786.699 269.6 785.999 267.6 784.199C266.5 783.099 264.9 782.499 264.2 782.699C263.5 782.999 261.8 781.999 260.5 780.599C258.4 778.399 258.3 777.799 259.6 776.599C260.4 775.799 261 774.799 261 774.399C261 773.999 262.3 771.599 263.9 769.099C267.5 763.499 268.4 759.599 266.4 757.899C265.2 756.899 265.2 756.599 266.6 755.499C267.6 754.799 268.3 752.799 268.4 750.199C268.4 747.899 268.8 745.999 269.2 745.999C270.1 745.999 271.5 741.899 271.1 739.999C271 739.199 270 737.599 269 736.499C265.8 732.899 265.6 730.299 268.5 725.399C270 722.899 270.9 720.599 270.6 720.299C270.3 719.899 270.5 719.099 271 718.499C272.1 717.199 269.9 710.399 268.8 711.599C268.4 711.899 267.6 711.099 266.9 709.799C266.2 708.599 265 706.999 264.2 706.399C263.3 705.799 262.9 704.599 263.3 703.599C264.3 701.099 273.6 701.299 275.2 703.999C276.2 705.599 277.6 705.999 281.5 705.999C284.3 705.999 287.5 706.599 288.5 707.399C290.3 708.699 290.4 709.299 289.2 715.899C286.1 734.199 289.3 747.599 299.2 757.099C302.9 760.699 304 762.399 304 764.799C304 767.499 303.3 768.399 299.3 770.899C294.7 773.799 280 787.699 280 789.199C280 789.599 278.6 789.999 276.9 789.999C274.2 789.999 273.9 789.799 275 788.499Z" fill="#D6B6DE"/>
<path d="M231.6 688.5C230.2 687.2 228.4 685.7 227.6 685.3C225.5 684.1 223 675.8 224.2 674.3C224.9 673.4 224.9 673 224 673C223 673 223 672.7 223.9 671.6C224.8 670.5 224.7 669.9 223.5 668.7C222.1 667.2 222.1 667 223.9 666C225 665.5 227.7 665 230 665C232.7 665 234.3 664.5 234.6 663.5C235 662.6 236.5 662 238.6 662H242V667.5C242 672.3 242.2 673 244 673C245.6 673 246 673.7 246 676.1C246 678.1 246.8 680 248.1 681.1C249.5 682.3 250 683.8 249.8 685.9L249.5 689L245.7 687L241.9 685L239.7 687.3C236.3 690.9 234.5 691.2 231.6 688.5Z" fill="#D6B6DE"/>
<path d="M782.6 647.2C780.4 643.5 781 633 783.6 633C784.6 633 785 631.8 785 628.9V624.8L792.3 625.5C798.7 626.2 802.7 627.9 800 628.8C798.6 629.3 798.8 631.4 800.2 632.8C801.8 634.4 802.3 638 800.9 638C800.3 638 800 638.9 800.3 640C800.6 641.3 800.3 642 799.4 642C798.6 642 798 642.4 798 642.9C798 643.4 795.9 643.8 793.3 643.8C785.6 643.9 784.9 644.1 785.6 646.2C785.9 647.4 785.6 648 784.6 648C783.8 648 782.9 647.7 782.6 647.2Z" fill="#D6B6DE"/>
<path d="M825.1 580.2C822 576.9 821.8 576.3 822.5 572.1C822.9 569.5 823.3 564.8 823.3 561.6C823.5 555.8 823.6 555.6 826.8 554.8C828.6 554.3 830 553.3 830 552.5C830 551.4 831.2 551 834.8 551C840.6 551 843.1 552.3 840.4 553.8C839 554.6 838.6 556.2 838.5 561.4C838.4 565 838.7 568 839.2 568C840.6 568 840 570.4 838 573C836.9 574.4 836 576.3 836 577.3C836 578.3 835.4 579.7 834.7 580.3C833.4 581.5 829.2 584.1 828.8 583.9C828.6 583.9 827 582.2 825.1 580.2Z" fill="#D6B6DE"/>
<path d="M853.7 503.799C851.6 487.199 851.4 488.599 855.4 484.599C859.2 480.799 862 479.899 862 482.499C862 483.299 862.8 484.099 863.8 484.099C865.6 484.199 870.4 484.699 873.3 485.099C874.5 485.299 875 486.099 874.9 487.899C874.8 489.299 875 491.199 875.4 492.099C875.8 493.099 875.4 494.399 874.4 495.499C873 496.799 872.9 497.299 874 497.999C876.3 499.399 872.8 501.799 867.9 502.099C862.9 502.399 857.1 504.899 857 506.799C857 507.399 856.4 507.999 855.6 507.999C854.7 507.999 854 506.499 853.7 503.799Z" fill="#D6B6DE"/>
<path d="M149.7 503.3C151 502.4 148 498 146.1 498C145.5 498 145 497.5 145 496.9C145 496.4 144.6 496.1 144.1 496.4C143.6 496.7 143 496.3 142.6 495.5C141.9 493.5 139 494.7 139 497.1C139 498.1 138.3 499 137.5 499C136.7 499 135.1 499.6 134 500.2C132.5 501.2 131.8 501.2 130.8 500.2C129.9 499.3 130 499 131.6 499C133.3 498.9 133.3 498.8 131.2 497.7L129 496.4L131.6 494.1C133.7 492.3 134.7 492 136 492.8C137.3 493.6 137.9 493.3 138.9 491.8C139.8 490.3 140.5 490.1 141.3 490.9C141.9 491.5 142.9 492 143.5 492C144.7 492 149 484.2 149 482.1C149 481.5 149.7 481 150.5 481C151.3 481 152 481.5 152 482C152 482.6 152.7 483 153.6 483C155.3 483 160 487.4 160 489C160 489.5 161.1 490.2 162.5 490.6C164.6 491.1 165 491.8 165 495.1C165 497.8 164.6 499 163.5 499C162.8 499 161.7 499.6 161.3 500.4C160.9 501.1 159.2 502 157.5 502.3C155.9 502.6 153.2 503.2 151.5 503.5C149.8 503.9 149 503.8 149.7 503.3Z" fill="#D6B6DE"/>
<path d="M862.2 456.8C861.5 456.1 861 455 861 454.3C861 453.6 860.6 453 860 453C858.4 453 858.7 431.3 860.3 430.7C861.3 430.3 861.3 430.1 860.3 430.1C858.3 430 858.6 421.1 860.5 420.3C862.6 419.6 863.7 420.7 862.2 422.2C861.5 422.9 861 423.9 861 424.4C861 425 861.5 424.9 862.2 424.2C864.1 422.3 866 422.8 867 425.5C867.5 426.9 868.4 428 869 428C869.6 428 870.8 428.6 871.6 429.4C872.3 430.2 873.9 430.6 875 430.3C876.3 430 877 430.3 877.1 431.1C877.4 434.1 876.8 436.4 875.4 437.7C874.6 438.5 874 440.6 874 442.5C874 444.6 873.4 446 872.4 446.4C871.5 446.8 871 447.3 871.3 447.7C871.7 448 871.5 448.9 870.9 449.7C870 450.6 870.1 451 870.9 451C871.5 451 872 451.5 872 452C872 452.6 871.1 453 870.1 453C869 453 868 453.6 867.7 454.3C867.4 455.2 866.9 455.1 865.5 454C863.8 452.7 863.7 452.7 864.2 454.1C865.1 456.4 863.7 458.3 862.2 456.8Z" fill="#D6B6DE"/>
<path d="M151.1 438.5C150.4 436.6 149.2 435 148.4 435C147.6 435 147.1 434.6 147.4 434.1C147.7 433.6 147.1 432.1 146 430.7C143.9 428.1 143.3 424 145 424C145.5 424 145.7 423.4 145.4 422.6C145.1 421.8 145.7 421 146.9 420.7C148.2 420.4 148.8 419.6 148.4 418.7C147.9 417.3 150.4 415.9 154.5 415.5C155.6 415.4 157.3 415.3 158.2 415.2C159.1 415.1 160 414.2 160.2 413.3C160.9 409.7 165.8 420.2 166.6 426.8C167.2 432.5 167.1 433 165.3 433C164.2 433 162.5 433.9 161.5 435C160.5 436.1 159.1 437 158.3 437C157.6 437 156.4 438.1 155.8 439.5C154.2 443 152.6 442.6 151.1 438.5Z" fill="#D6B6DE"/>
<path d="M172.5 361.1C172.8 359.4 172.5 357.8 171.9 357.5C171.4 357.1 170.5 355.7 169.9 354.3C168.9 351.6 169.9 349 173.2 345.3C174.3 344.1 174.9 342.7 174.5 342.1C174.1 341.4 174.9 341 176.4 341C177.9 341 179 340.4 179 339.6C179 338.9 179.7 337.7 180.6 336.9C181.9 335.9 182.3 335.9 183.1 337.1C183.9 338.3 184.1 338.3 185.1 337C185.9 335.9 186 336.5 185.7 339.6C185.4 341.8 185.7 344.5 186.2 345.4C186.8 346.4 186.9 350 186.5 354.1C185.8 360.5 185.6 361 183.4 361C181.9 361 181 361.6 181 362.5C181 363.6 179.8 364 176.5 364C172 364 172 364 172.5 361.1Z" fill="#D6B6DE"/>
<path d="M841.6 324.499C840.7 323.099 838.3 321.599 836.1 320.999C831.8 319.899 831 318.399 831 310.799C831 305.799 832.2 304.099 834.5 305.999C835.4 306.699 836.7 306.899 837.7 306.399C838.7 305.999 839.9 305.599 840.3 305.599C840.7 305.499 841.5 304.799 842 303.999C842.8 302.799 843.1 302.799 844.7 304.199C847.5 306.699 850.7 307.299 851.7 305.599C852.4 304.299 852.9 304.399 855.3 306.399C858.3 308.999 858.7 309.999 856.6 309.999C855.8 309.999 855 311.599 854.6 313.899C854.3 315.999 853.3 317.999 852.5 318.399C851.7 318.699 851.3 319.599 851.6 320.299C851.9 321.199 851 322.199 849 322.999C846.6 323.999 846.2 324.499 847.1 325.599C848 326.699 847.7 326.999 845.7 326.999C844.2 326.999 842.6 326.099 841.6 324.499Z" fill="#D6B6DE"/>
<path d="M200.5 309C200.9 307.6 200.6 306.8 199.5 306.4C197.8 305.7 195.9 302.1 195.4 298.3C195.3 296.9 196 295.6 197.6 294.5C199.1 293.6 200 292 200 290.5C200 288.1 201.3 287.1 202.3 288.8C202.6 289.2 206 290.6 209.9 292C217.2 294.5 218.5 296.1 215 298.2C213.9 298.9 213 300.2 213 301C213 301.8 212.1 304.4 211 306.8C209.2 310.9 208.9 311 204.5 311C200.3 311 199.9 310.8 200.5 309Z" fill="#D6B6DE"/>
<path d="M731.4 184.499C731 183.699 730 182.999 729 182.999C728 182.999 726.3 181.999 725.3 180.699C724.3 179.399 722.7 178.099 721.8 177.699C720.5 177.299 720 175.999 720 173.499C720 170.399 720.3 169.999 722.7 169.999C725.7 169.999 731.8 164.099 729.9 162.999C729.2 162.499 729.3 162.099 730.3 161.699C731.1 161.399 732.1 161.399 732.5 161.799C732.9 162.199 733.6 162.599 734.1 162.599C734.6 162.699 735.5 162.799 736 162.899C736.6 162.899 737 163.899 737 164.999C737 166.099 737.5 166.999 738 166.999C738.6 166.999 739 167.599 739 168.299C739 169.099 739.7 171.099 740.5 172.799C742.1 175.899 741.7 180.999 739.8 180.999C739.3 180.999 739.2 181.499 739.5 181.999C739.8 182.599 739.4 182.999 738.4 182.999C737.1 182.999 737 183.299 738 184.499C739.1 185.799 738.7 185.999 735.6 185.999C733.3 185.999 731.7 185.499 731.4 184.499Z" fill="#D6B6DE"/>
<path d="M516.3 127.8C511.5 126.8 511 125.6 514.1 122.9C515.2 121.9 515.9 120.7 515.6 120.1C514.6 118.5 516.2 115.9 518.8 114.9C520.2 114.4 521 113.7 520.6 113.3C519.5 112.2 525.7 109.1 528.9 109.2C532 109.3 533.6 110.4 534.2 112.9C534.6 114.6 538.8 119 540 119C540.6 119 541 119.9 541 121C541 122.3 540.3 123 539 123C538 123 536.6 123.9 536 125C535.3 126.4 533.9 127 531.5 127C529.7 127 527.8 127.5 527.5 128C526.8 129.2 522.1 129.1 516.3 127.8Z" fill="#D6B6DE"/>
<path d="M286.3 712.5C287 710.8 285.7 709.8 282.3 709.4C281 709.3 280 709.7 280 710.4C280 712.7 276.5 711.7 273.7 708.6C270.8 705.4 268.5 704.8 266.2 706.4C265.3 707 263.7 706.2 260.7 703.4C258.4 701.3 256.4 699.2 256.2 698.7C256 698.3 255.2 697.3 254.3 696.5C253.5 695.7 253.2 694.6 253.5 694C253.8 693.5 253.6 693 253.1 693C252.5 693 252.1 692.7 252.1 692.3C252.5 690.1 251.8 689.2 249.5 688.6C248.1 688.2 247 687.5 247 686.8C247 686.2 246.1 684.9 244.9 683.9C243.8 682.9 242.8 680.9 242.8 679.1C242.7 677.4 242.4 676.3 241.9 676.5C240.8 677.3 237.9 675.9 238.6 674.9C238.9 674.4 238.6 674 238 674C237.3 674 237.2 673.4 238 672.1C238.5 671 239 668.9 239 667.3C238.9 664.9 238.8 664.8 237.9 666.3C237.4 667.2 237.2 668.5 237.5 669C237.8 669.6 237.4 670 236.6 670C235.7 670 235 669.4 235 668.8C235 667.8 234.7 667.9 234.1 668.9C233.4 669.9 232.8 670 231.1 669.1C229.5 668.2 228.5 668.2 226.9 669.1C225 670.1 224.2 669.6 219.1 664.1C216 660.7 212.9 658 212.2 658C211.4 658 211.2 657.5 211.6 656.8C212.1 656 211.8 655.9 210.6 656.3C209.6 656.7 208.4 657 207.8 657C207.2 657 207.3 657.6 208 658.5C209.8 660.7 208.6 661.5 206.6 659.5C205.2 658.1 204.9 658 204.4 659.3C203.9 660.6 203.5 660.5 201.8 658.8C200.6 657.6 200.1 656.2 200.5 655.2C202 651.6 202 648 200.5 648C199.7 648 199 647.6 199 647C199 646.5 199.4 646 200 646C202.6 646 198.4 640.4 194.1 638C192.4 637.1 191.9 636.2 192.3 634.4C192.8 631.8 190.8 629.4 189 630.5C188.4 630.9 187.9 630.6 188.1 629.9C188.6 626.2 187.9 624 186.3 624C184.8 624 184.7 623.8 186 623C187.2 622.3 187.2 621.8 186.3 620.9C185.3 619.9 185.4 619.4 186.8 618.3C188.2 617.2 188.2 617 187 617.1C183.8 617.4 182.8 617 183.4 615.5C184 613.9 181.1 609.8 179.9 610.5C179 611.1 177.7 606.2 178.5 605C178.8 604.5 178.1 603.9 177 603.5C174.7 602.8 171.9 594.2 172.4 589.8C172.6 588.2 172.3 587 171.9 587C171.4 587 171 586.5 171 585.9C171 585.2 170 583.8 168.7 582.6C167.4 581.4 166.1 579.7 165.7 578.7C165.4 577.8 164.3 577 163.4 577C162.4 577 162 576.5 162.3 575.6C163.1 573.5 157.4 550.9 155.8 549.9C154.8 549.2 154.8 549 155.8 549C156.4 549 157 547.9 157 546.5C157 545.1 156.6 544 156 544C155.5 544 155 543.1 155 541.9C155 539.5 153.2 535.9 151.3 534.5C149.3 533 148.9 527.8 150.7 525.8C151.8 524.6 151.9 523.7 151.1 522.2C150.6 521.2 150.4 519.4 150.7 518.2C151 517 150.8 516 150.2 516C149.6 516 149.3 514.4 149.4 512.5C149.6 510.5 149.4 508.7 149 508.5C148 507.9 149 503 150.2 503C150.7 503 150.8 502.5 150.4 501.9C149.5 500.5 151.8 499 155 499C156.4 499 158.1 498.1 158.8 497C159.5 495.8 160.5 495.2 161 495.5C161.6 495.8 162 495.7 162 495.2C162 494.6 160.9 493.9 159.5 493.6C158.1 493.2 157 492.5 157 492C157 490.5 152.4 486 150.7 486C149 486 148 481.2 149.2 478.1C149.6 476.9 149.5 476 149 476C148.4 476 148.4 475.1 149 473.5C149.5 472.2 149.5 470.8 149.1 470.6C148.6 470.3 148.6 467.9 149.1 465.3C149.6 462.7 149.8 459.8 149.5 458.9C149.2 457.9 149.3 456.9 149.8 456.6C150.3 456.3 150.5 454.9 150.2 453.5C149.9 451.8 150.2 451 151.1 451C152.2 451 152.2 450.8 151.2 450.2C150.2 449.5 150.2 448.7 151 446.6C151.8 444.4 151.7 443.5 150.5 442.3C149.6 441.5 149.2 440.5 149.5 440.2C149.8 439.8 150.5 440.2 151 441C151.7 442.1 152 441.8 152.1 439.5C152.2 437.9 152.2 436.2 152.1 435.8C152.1 435.4 153.1 434.8 154.4 434.4C155.8 434.1 157.6 433 158.6 431.9C159.5 430.9 161.3 430 162.4 430C163.6 430 164 429.7 163.4 429.2C161.9 428.2 160.4 423.5 161.9 424.4C163.6 425.5 163.2 424 160.5 419.3C159.1 417 158.4 415 159 415C159.5 415 160 413.4 160 411.4C160 409.2 160.4 408.1 161 408.5C162.3 409.3 161.2 404.1 159.7 402.3C159 401.3 159.3 401 160.6 401C162.2 401 162.2 400.8 161 400C159.5 399.1 158.7 390 160.1 390C160.6 390 161.7 388.4 162.6 386.5C163.5 384.6 165 383 165.9 382.9C166.8 382.9 167 382.6 166.3 382.4C165.4 382 165.4 381.3 166.2 379.4C166.8 378.1 167.6 377 167.9 377C168.2 376.9 169.5 376.1 170.7 375.1C172.8 373.3 172.9 373 171.5 370.4C170.3 368.1 170.3 367.2 171.5 364.4C172.2 362.6 172.6 360.9 172.2 360.6C171.9 360.3 173.1 360.2 174.8 360.4C176.6 360.6 178 360.3 178 359.9C178 359.4 177.2 359 176.3 358.9C175.3 358.9 175.8 358.5 177.3 358C178.9 357.5 180.7 357.3 181.4 357.6C182.7 358.1 182.9 355.3 181.7 353.3C181.3 352.7 181.7 352 182.5 351.6C184.4 350.9 184.4 349.5 182.5 347.6C180.6 345.8 181.4 339.2 183.5 338.3C184.3 338.1 185.6 336.2 186.5 334.2C188.6 329.4 191.3 324.7 192.4 323.9C192.8 323.5 192.7 322.9 192.1 322.5C191.2 322 191.2 321.5 192.1 320.4C192.7 319.6 193 319 192.7 319C192.3 319 195.1 315.8 202.2 308.2C203.8 306.6 204.6 306.3 205.1 307.2C206 308.7 209.9 300.7 210 297.3C210 296 210.3 295.1 210.7 295.2C211.2 295.2 212.2 295 213.1 294.6C214 294.2 218 294.8 222.1 296C237.7 300.4 266.9 302.2 286 300C305 297.8 331.1 288 347.6 277C357.9 270 371.6 256.7 378 247.4C384.3 238.3 392.2 221.9 395 211.9C398.7 199.2 398.9 176.5 395.4 159.3C394.9 156.7 395.1 156 396.3 156C397.1 156 400 155 402.7 153.8C402.7 153.8 408 151.6 408.5 151.5L414 148.6C414 147.9 414.3 147.9 414.8 148.8L424.2 145.8L428.5 144L432 142.7L435 141.5H436.5H437.5H438.5V142L439.5 140.5H440.5H441.5C441.6 140 442.8 139.8 442.8 139.8C442.8 139.8 444.3 139.3 444.6 138.5C445 137.6 446.5 137 448.1 137C449.7 137 451 136.6 451 136C451 135.5 451.9 135 453.1 135C454.3 135 454.9 134.6 454.4 133.9C454 133.2 454.3 132.9 455.1 133.2C455.9 133.5 457.3 133.3 458.3 132.8C460.2 131.8 465.3 130.8 468.3 130.9C469.2 130.9 470 130.3 470 129.7C470 129 471.4 128.4 473.2 128.3C474.9 128.2 476.6 127.7 476.9 127.3C477.2 126.8 478.9 126.4 480.5 126.3C484.9 126.1 493.3 124.9 495 124.3C495.8 123.9 496.8 123.7 497.1 123.8C499.8 124.3 506.8 124.1 508.3 123.5C509.6 123 509.9 123.2 509.4 124.3C508.9 125.7 509.2 125.7 511.4 124.7C512.8 124 514 123.1 514 122.5C514 122 514.4 122.1 514.9 122.9C515.4 123.7 517.4 124.4 519.4 124.4C521.4 124.5 523 124.9 523 125.4C523 125.9 523.7 125.7 524.6 124.9C525.4 124.2 527.4 123.6 528.8 123.6C530.3 123.5 531.6 123.1 531.7 122.6C531.9 121.4 534.5 120 537.8 119.4C539.2 119.1 540.7 118.5 541 118C541.8 116.6 547.3 115.9 548 117.1C548.6 118 552.9 118.2 561.5 118C562.6 117.9 566 118.4 569 118.9C573.1 119.7 574.6 119.6 575.3 118.7C575.9 117.9 576 118.3 575.7 119.9C575.2 122 575.4 122.2 578.1 121.8C579.7 121.5 581 121.7 581 122.2C581 123.5 583.8 123.1 584.3 121.8C584.7 120.8 584.9 120.9 584.9 121.9C585 122.9 585.3 123 586.3 122.2C587 121.6 590.7 120.9 594.6 120.6C598.4 120.4 601.5 120.1 601.5 120C601.5 119.9 602.7 119.6 604.3 119.4C606.1 119.2 607 119.6 607 120.6C607 122.2 609.1 122.5 610.6 121.1C611.1 120.6 613.9 120.5 616.7 120.9C620.1 121.4 622.1 121.3 622.5 120.6C622.8 119.9 623.2 119.9 623.6 120.8C623.9 121.4 624.9 122 625.9 122C626.8 122 628.1 122.5 628.8 123.2C629.7 124.1 630 124.1 630 123C630 122.3 630.3 122 630.7 122.4C631.1 122.8 631.5 123.9 631.5 124.8C631.5 125.9 632.7 126.7 635 127.1C636.9 127.4 639.8 128.2 641.3 128.9C646.2 130.8 648.4 130.3 650 126.7C650.9 124.6 651.5 124 651.8 125.1C652 126.2 652.8 126.6 654.5 126.2C656.3 125.9 657 126.2 657 127.3C657 128.1 658 129 659.2 129.3C660.4 129.7 661.1 130.2 660.8 130.6C660.4 130.9 661.4 132.4 662.9 133.9C664.4 135.4 665.4 137.2 665.2 137.9C664.9 138.8 665.4 139 667 138.5C668.5 138 669 138.1 668.6 138.9C668.1 139.6 668.7 140 670 140C672.1 140 676 141.8 677.1 143.4C677.5 143.9 678.3 143.9 679 143.5C679.7 143.1 680.3 143.6 680.7 144.8C681 145.9 681.8 146.6 682.4 146.4C683.1 146.1 686.5 147.5 689.9 149.5C693.4 151.4 696.6 153 697.1 153C697.6 153 698 153.5 698 154.1C698 154.7 698.9 154.9 700 154.5C701.1 154.1 702 154.2 701.9 154.7C701.4 157.8 702.3 158.8 706.3 159.5C708.6 159.9 710.9 160.2 711.4 160.1C712.7 159.8 720 167.1 720 168.7C720 169.4 721.1 170 722.4 170C725.2 170 726.7 172.7 724.2 173.3C722.7 173.6 722.8 173.8 724.5 174.5C725.6 175 727.3 176.4 728.2 177.6C729.3 179 730.7 179.6 731.9 179.3C733.2 179 733.9 179.5 734.4 181.2C734.9 183 735.2 183.2 735.9 182.1C736.5 181.2 737.5 181 738.6 181.5C740.4 182.2 740.4 182.2 738.6 182.9C737 183.5 736.9 183.8 738.1 184.5C738.9 185 740.1 185.5 740.9 185.7C741.7 185.8 742.7 186.5 743.1 187.2C743.8 188.2 744 188.2 744 187.3C744 185.6 745.5 185.7 747.3 187.5C748.1 188.3 749 188.6 749.4 188.3C749.7 187.9 750 188.2 750 188.8C750 189.4 750.9 190.2 752.1 190.5C754.8 191.4 759 195 759 196.5C759 197.2 759.8 198.5 760.9 199.4C761.9 200.3 763 202.5 763.4 204.1C763.9 206.9 764.2 207.1 767 206.5C768.8 206.1 770 206.2 770 206.9C770 207.4 771.3 208.6 772.8 209.6C774.4 210.5 776.5 212.8 777.5 214.6C778.5 216.5 779.7 218 780.2 218C780.6 218 781 218.6 781 219.3C781 219.9 782.4 221.1 784 221.9C785.8 222.6 787.6 224.5 788.4 226.5C789.2 228.3 791.5 231.6 793.5 233.9C795.6 236.2 796.9 238 796.5 238C796.1 238 797.2 239.4 798.9 241.2C800.6 243 801.8 245 801.6 245.7C801.3 246.4 801.7 247 802.5 247C803.3 247 804 247.7 804 248.5C804 249.3 804.5 250 805 250C805.6 250 806 250.7 806 251.6C806 253.6 808.2 255.8 809.7 255.3C810.3 255.1 811.1 256.3 811.5 257.9C811.8 259.6 813.4 262 814.8 263.3C818.3 266.3 820 269.3 820 272.4C820 273.7 820.7 275.1 821.6 275.4C822.5 275.8 823 276.3 822.7 276.7C822.3 277 823.1 278.2 824.4 279.4C827.2 282 830 289 830.2 293.9C830.2 295.9 831.1 299 832.1 300.8C833.3 302.9 833.5 304 832.7 304C832.1 304 832.6 304.7 833.8 305.6C835.6 306.9 835.9 307.5 834.9 308.6C834 309.7 834 310 834.9 310C835.7 310 835.8 310.5 835 311.9C834.3 313.3 834.3 314.1 835 314.5C835.6 314.9 835.8 315.5 835.5 316C835.2 316.5 836.8 317.4 839 318C842.1 318.8 843.7 320 845.3 322.8C846.5 324.8 847.4 326.8 847.3 327.2C847.1 327.6 847.5 329.1 848 330.5C849.3 333.9 850 337.5 850.6 343.5C850.8 346.3 851.3 349.1 851.5 349.8C851.7 350.4 851.2 351 850.2 351C849 351 849.2 351.4 851 352.3C852.5 353.1 853.4 354.3 853.2 355.3C853 356.2 853.3 357 853.9 357C854.4 357 854.6 357.8 854.3 358.9C854 359.9 854.3 361.1 854.9 361.4C855.5 361.8 856 363 856 364.1C856 365.2 856.7 366.3 857.5 366.6C858.3 367 859 367.8 859 368.6C859 369.4 859.5 370 860 370C860.7 370 860.9 372.3 860.6 376.2C860.2 382 860.4 382.8 863.4 387C866.5 391.5 866.5 391.5 865.2 396.5C863.8 401.6 863.6 407.5 864.7 409.3C865.1 409.9 864.7 410.1 863.7 409.7C861.6 408.9 861.5 410.6 863.5 412.6C865.2 414.4 865.5 416 863.9 416C863.4 416 863.2 416.5 863.5 417C864.1 417.9 862.7 418.4 860.8 418.1C860.3 418.1 860 418.5 860 419C860 419.6 860.7 420 861.5 420C863.2 420 863.5 421.6 862 422.5C860.8 423.3 860.8 424.1 862 426C862.9 427.3 863.1 427.3 864 426C864.7 424.9 865 425.4 865 428.2C865 430.2 864.4 432.5 863.6 433.2C862 434.8 861.9 441.1 863.5 442.3C864.2 442.9 864.1 443.3 863.3 443.7C861.5 444.4 861.7 446 863.5 446C864.3 446 865 446.7 865 447.6C865 448.6 864.4 449 863.5 448.6C862.7 448.3 862 448.5 862 448.9C862 449.4 862.4 450 862.9 450.2C863.4 450.3 864 452.4 864.3 454.7C864.6 458.2 864.4 458.9 862.6 459.4C861.1 459.8 860.9 460.2 861.7 460.8C862.6 461.4 862.9 464.6 862.6 472.7L862.2 483.9L858.7 487.4C856.6 489.4 855.3 491.7 855.5 492.7C855.7 493.7 855.9 494.5 856 494.5C856.5 494.5 857.1 499.2 857 503C856.9 511.2 856.5 513.5 855.3 514.3C854.6 514.7 854 516 854 517C854 518.2 853.3 519 852.4 519C851.1 519 851 519.3 852 520.5C852.6 521.3 852.9 522.4 852.5 523C852.2 523.5 852.3 524 852.8 524C853.3 524 853.5 526.1 853.2 528.6C852.9 532 853 533.1 853.9 532.6C854.5 532.2 855 532.2 855.1 532.7C855.1 533.1 855.3 534.3 855.5 535.2C855.8 536.9 850 543.4 843.1 549.3C841.3 550.8 840.4 552 841.2 552C842 552.1 841.8 552.6 840.6 553.5C839.5 554.4 837.6 554.7 835.8 554.3C832.9 553.7 832.8 553.8 833.9 555.9C835.3 558.5 834.2 561.1 832.8 558.6C832.2 557.5 831.4 557.2 830.2 557.9C829.3 558.4 828.1 558.9 827.5 559C825.9 559.3 825.5 560 827 560C827.7 560 828.1 560.3 827.7 560.6C827.4 560.9 827.6 562.5 828.2 564.1C829 566.4 828.8 567.3 827.6 568.6C826.7 569.4 826.3 570.6 826.6 571.2C827 571.8 826.7 572.6 826.1 573C825.2 573.5 826 574.9 828.5 577.4C832.1 581.1 832.1 581.2 830.3 583.3C829.3 584.5 828.1 585.8 827.6 586.2C827.1 586.5 826.7 588.2 826.7 590C826.7 592 826.2 592.9 825.4 592.6C823.6 591.9 822.8 593.1 824.1 594.7C825 595.7 824.9 596 823.7 596C822.9 596 821.6 597.4 820.8 599C820.1 600.7 819.2 602 818.7 602C818.3 602 818.4 602.9 819 604C819.7 605.4 819.7 606 819 606C818.5 606 818 606.9 818 608C818 609.1 817.4 610 816.7 610C816.1 610 814.9 611.3 814.2 612.9C813.5 614.6 812.3 615.7 811.7 615.5C810 614.9 807.4 617.1 806.6 619.8C806.2 621 805.4 621.8 804.9 621.5C804.4 621.1 804 622 804 623.4C804 625 803.4 626 802.5 626C801.7 626 801 626.7 801 627.5C801 628.3 800.6 629 800 629C799.5 629 799 629.8 799 630.8C798.9 632.4 798.9 632.4 797.6 630.8C796.8 629.7 795.6 629.3 794.3 629.6C793.1 629.9 791.3 629.7 790.1 629.1C787.9 627.9 787.3 628.9 789.1 630.7C790.5 632.1 788.5 636 786.3 636C785 636 785 636.3 786 637.5C787 638.7 786.9 639 785.6 639C784.6 639 784.2 639.5 784.6 640.1C785 640.8 785.4 642.8 785.5 644.7C785.7 648.5 781 657 778.7 657C777.9 657 776.7 658.1 776 659.5C775.3 660.9 774.3 662 773.9 662C772.6 662 768.1 667.3 768.6 668.2C768.9 668.6 768.7 669 768.2 669C767.6 669 766.3 670.6 765.1 672.5C764 674.4 761.8 676.6 760.3 677.2C758.8 677.9 757.2 678.9 756.9 679.4C756.5 679.9 755.8 680 755.3 679.7C754.7 679.3 753.4 679.9 752.4 680.9C751.3 681.9 749.2 682.6 747.5 682.5C745.8 682.4 743.9 682.8 743.3 683.3C742.3 684 742 683.4 742 680.6C742 676.8 735.2 653.9 729.3 638C724.5 624.9 712.3 600.1 703.7 586C698.3 577 679.2 554.9 672.5 549.7C661.5 541.2 615 520.6 603.8 519.3L599 518.7V514.9C599 511.6 599.5 510.8 602 509.5C603.7 508.6 612.6 500.5 621.9 491.5C637.5 476.2 639 475 642.4 475C644.8 475 646.3 475.5 646.6 476.5C647.6 478.9 655.2 482.9 660.1 483.6C671.3 485.1 689.8 477.8 700.6 467.8C713.4 455.8 719.4 435.5 713.5 423.8C710.7 418.1 711.5 414.7 717.6 406.8C727.4 394.1 737.4 375.9 741.8 362.5C746.9 347.2 747.3 323.9 742.6 309.5C741.2 305.1 740 300 740 298.1V294.7L746.1 295.4C752.1 296.1 752.2 296.1 751.5 293.8C749.1 286.2 740.1 272.2 734 266.7C731.4 264.3 726.5 260.9 723.1 259.1L717 255.9V247.5C717 242.1 716.3 237 715 232.9C713 226.1 707.8 217 706 217C705.3 217 705.2 220.1 705.6 226.5L706.3 236H702.8C699.8 236 698.3 234.9 690.4 226.7C676.9 212.8 650.5 193.8 630.4 183.7C610 173.5 580.8 166.5 552 165.1C523.7 163.6 503.2 166.6 486.3 174.6C476.2 179.4 467.6 190.3 466.3 200L465.8 203.5L456 205.8C450.3 207.1 444.5 209.2 441.9 210.9C436.9 214.1 424.2 227.8 421.5 233C418.8 238.1 419.1 245.4 422.3 251.9C423.8 254.9 425 258.5 425 259.8C425 261.2 423.5 267.1 421.6 272.9C414.8 294 414.7 309.5 421.2 328C425.4 340 425.6 342.2 422.5 351.5C418.9 362.5 412.7 386.5 410.4 398C407.8 410.9 407.8 436.4 410.2 446.6C413.8 461.2 419.6 471.4 430.7 482.4C444.3 496.1 461.7 505.5 491.6 515.6C498.8 518 505.7 520 506.9 520C508.9 520 509.1 520.4 508.8 525.2L508.5 530.4L497.5 532.6C474.4 537.3 463.3 542.9 448.3 557.3C424.6 580 399.3 617.3 387 647.5C383.3 656.7 383.1 657.5 384.6 659.1C385.5 660.1 387.1 661.2 388.1 661.5C393.1 663.1 386.7 679.3 377.4 688.6C373.8 692.3 372.4 693 369.2 693C367 693 363.9 692.3 362.1 691.4C356.6 688.7 348.8 687 341.3 687H334.1L332.5 679.3C329.2 663.2 326.7 655.3 321.7 645.6C318.8 640 316.7 634.5 316.8 633.3C317 631.8 316.5 631 315.6 631C314.7 631 312.7 628.4 311 625C307.6 618.3 303.6 615.4 298.9 616.4C294.8 617.2 291 619.9 291 622.1C291 624.4 300.1 647.3 304.5 656C306.3 659.6 309.9 665.7 312.5 669.5C319 679.2 321 683.4 321 687.3C321 690.7 321 690.7 314.3 691.9C304.9 693.6 298.8 697.2 294.6 703.4C292.7 706.2 290.8 709.7 290.4 711.3C290 713.1 289.1 714 287.8 714C286.4 714 286 713.5 286.3 712.5ZM355.1 402.7C357.3 401.3 359 398.9 359.9 396.3C361.3 392.3 361.3 392 358.9 388.3C357.5 386.2 355.5 383.2 354.6 381.6C352.9 378.9 352.6 378.8 345.7 379.2C337.6 379.6 334.1 381.4 331.5 386.7C326.7 396.5 333.4 404.9 346.1 405C350.3 405 352.6 404.4 355.1 402.7ZM314.9 362.2C323.4 357.8 326 354.3 326 347.1C326 336.9 320.9 329.1 311.3 324.3C303.9 320.7 296.4 320.5 290 323.8C284.1 326.8 277.3 335.7 276.4 341.5C275.5 347.6 278.1 355.7 282.2 359.7C291 368.2 301.7 369 314.9 362.2Z" fill="#C9AADB"/>
<path d="M258.2 256.899C253.4 254.499 251 250.799 251 245.599C251 237.599 254.9 232.599 262.5 230.899C267.2 229.899 268.2 229.999 271.6 231.599C282.2 236.799 282.8 250.899 272.8 256.999C268.5 259.599 263.6 259.499 258.2 256.899Z" fill="#C9AADB"/>
<path d="M257.5 220.399C251.7 217.399 250.8 215.899 251.2 210.499C251.9 202.199 255.8 195.299 265.6 185.099C276.6 173.599 279.4 169.399 281.6 161.399C284 152.399 282.6 148.999 274.5 143.899C268.3 139.999 251.9 142.499 249.2 147.699C248.7 148.699 247.7 152.199 247 155.399C245.3 163.899 244.1 165.899 239.8 168.099C232.9 171.599 224.3 169.599 222 163.899C220.2 159.499 221.4 148.699 224.4 142.499C229.2 132.899 240.5 123.699 251.5 120.499C258.6 118.399 274.6 118.899 282.7 121.399C294.5 125.099 302.5 134.199 307.2 149.299C310.9 161.599 308.5 168.999 295 185.999C286.3 197.099 281.7 203.899 280.1 208.099C276.9 216.599 275.6 219.099 273.4 220.499C270.4 222.499 261.4 222.399 257.5 220.399Z" fill="#C9AADB"/>
<path d="M539 825.4C539 824.9 539.7 823.6 540.6 822.5C541.4 821.4 543.3 817.9 544.7 814.8C546.8 810.1 547.7 809 549.6 809C550.9 809 552 809.5 552 810.1C552 810.9 557.8 807.3 563 803.2C563.2 803 561.8 801.4 559.7 799.6C557 797.3 555.9 795.5 555.7 793.2C555.6 791.4 555.2 790 554.8 790C554.3 790 554 789.4 554 788.6C554 787.4 552.7 787.7 547.8 789.6C537.4 793.7 534.6 795.2 533.2 797.2C532.4 798.2 531.1 798.9 530.2 798.6C529.2 798.4 526.8 797.9 524.8 797.5C519.5 796.7 515 791.9 515 787.2C515 781.1 519.7 775.7 529.5 770.7C537.9 766.3 537.9 766.4 529.6 764.4C523.5 763 522 762.3 522 760.8C522 758.6 523.9 757.8 537 754.4C542.2 753 549.6 750.9 553.4 749.8C562.9 747.1 581.3 744.3 595 743.5C610.5 742.6 613.2 742 629.7 736.2C648.7 729.5 656.4 726 655 724.6C654.5 724.1 654 722.2 654 720.5C654 718.9 653.6 716 653.1 714.2C652.5 712.4 651.8 707.8 651.4 704.1L650.8 697.3L657.6 696.6C667.4 695.6 709.9 688.5 720.4 686C732.2 683.3 741 682.3 741 683.9C741 684.5 740.3 685 739.5 685C737.5 685 737.6 687.5 740.2 702.2C743.2 718.9 743.4 751.2 740.6 760.5C738.1 768.6 735.6 773.4 732.5 775.8C730.1 777.7 730 777.9 731.7 778.9C735.4 781.1 727.3 780 721.9 777.6C712.7 773.6 706.7 772.7 694.1 773.3C671.2 774.4 642.1 783.3 626.5 794C624.3 795.5 618.1 799.1 612.7 802C603 807.2 602.9 807.2 596.5 806.5C592.1 806.1 590 806.2 590 806.9C590 807.5 588.2 808 585.9 808C582.5 808 581.3 807.4 578.3 804.3C576 801.8 575.1 801.3 575.9 802.8C576.6 804.1 577.8 805.4 578.6 805.7C579.6 806 580 807.8 580 811.5C580 817.2 580.5 816.7 571.3 820C560 824 539 827.5 539 825.4Z" fill="#FDBC7A"/>
<path d="M310.5 771C302.2 769.7 297.4 767.1 300 765.5C300.7 765.1 299.2 762.9 296.3 760.2C288 752.2 285 743.3 285 727.1C285.1 704.6 293 692.5 310.3 689C315.6 687.9 316.3 688 319.5 690C321.4 691.2 324.4 693.9 326.1 696.1C330.3 701.4 337 719.4 341.7 737.7C342.2 739.9 345 741.8 345 740C345 739.4 346.5 739 348.4 739H351.7L350.7 743.3C349.1 750.4 346.8 755 342.8 759.1L339 763H341.8L344.5 763.1L341.7 765.4C335.6 770.4 321.7 772.9 310.5 771Z" fill="#FDBC7A"/>
<path d="M382.5 762.1C381.4 761.6 377.2 760.7 373.2 760C369.2 759.4 366.1 758.5 366.2 758.2C372.4 746.6 375.6 735.4 374.6 728.6C373.8 723.2 372.9 722.8 371.3 727C370.3 729.7 369.7 730 366.1 730C363.8 730 362 729.6 362 729C362 728.5 361.1 728 360 728C358.9 728 357.7 727.3 357.3 726.4C357 725.6 355.7 724.4 354.4 723.9C352.7 723.3 352 722.3 352 720.5C352 718.7 351.5 718 350.1 718C348.8 718 348 717.1 347.5 715.1C347.2 713.5 345.6 710.8 343.9 709.1C342.3 707.4 341 705.3 341 704.4C341 703.5 340.4 701.6 339.6 700.2C335.9 692.9 333.6 681 335.9 681C336.5 681 337 681.7 337 682.5C337 683.7 338.5 684 344.3 684C351.9 684 359.2 685.6 365.3 688.5C369 690.2 369 690.2 372.4 687.7C375.9 685 381.1 677.7 385 670.1C387 666.1 387 665.6 385.6 664.8C382.5 663.1 383.9 661.7 388.3 662.2C390.8 662.5 394.8 664.2 398.2 666.4C401.3 668.4 404.2 670 404.5 670C404.8 670 406.7 671 408.8 672.3C414.3 675.7 423.9 679.8 438.5 685.1L451.5 689.7L451.4 693.6C451.4 695.7 450.8 704.9 450.1 714C449.4 723.1 448.6 734.4 448.3 739.3C447.8 746.4 447.4 748 446.1 748C444.2 748 425.4 744.6 419 743.1C416.5 742.5 414 742 413.5 742C412 742 400.3 750.7 392.8 757.3C386.3 763.2 385.8 763.4 382.5 762.1Z" fill="#FDBC7A"/>
<path d="M540 571C527.7 569.6 518 565.5 509.5 558.2C502.5 552 501 548.7 501 538.8V530H504.5C506.9 530 508 530.5 508 531.4C508 534.2 513.7 538.5 520.4 540.9C526.5 543 528.3 543.2 537.7 542.7C543.5 542.4 548.7 541.7 549.3 541.2C550 540.6 552.8 539.5 555.6 538.7C558.4 537.9 562.7 536.3 565.3 535.1C567.8 533.9 570.2 533 570.5 533C570.9 533 572.3 532.1 573.7 531C575.1 529.9 577.6 529 579.1 529C583.7 529 596 531.3 596 532.2C596 532.6 596.7 533 597.5 533C598.6 533 599 534.1 599 536.6C599 542.6 593.6 551.2 584.5 559.8C578 566 575.3 567.9 570.6 569.3C563.9 571.5 550.5 572.2 540 571Z" fill="#FDBC7A"/>
<path d="M515 528.7C507.4 527.6 506.5 527.3 506.2 525.3C506 523.7 505.2 523 503.8 523C502.7 523 495.8 521 488.6 518.6C458.7 508.5 441.3 499.1 427.7 485.4C419.5 477.3 416 472.3 412 463.4C404.4 446.5 402.7 420.2 407.6 394.5C409.5 384 415.8 359.8 419.4 348.8C421.5 342.6 421.8 340.5 420.9 338.7C419.7 336.1 422 327.8 430 306.5C437.1 287.4 442.4 277.6 449.4 270.6C458.2 261.7 474 253 481.1 253C483.8 253 484 253.3 484 256.9C484 259 483.3 262.7 482.5 265.1C481.6 267.5 481.2 270.5 481.5 271.7C482.1 274.2 487.7 277.5 493 278.5C497.8 279.4 525.7 276.4 535.5 273.9C544.4 271.7 555 268.1 556.5 266.8C557 266.4 559.1 266 561.2 266C564.8 266 565 266.2 565 269.1C565 270.7 563.5 275.1 561.6 278.8C559.7 282.5 558 286.7 557.8 288.1C557.4 291.9 559.8 295.7 563.8 297.6C568.5 299.8 580.2 299 593 295.6C598.2 294.2 604 293 605.8 293C608.9 293 609 293.1 609 297.4C609 303.8 611.9 311.7 615.2 314.6C619.2 317.9 624.9 317.7 635.2 314C639.7 312.3 645.1 311 647.2 311C650.9 311 651 311.1 651 314.8C651 316.8 650.3 322.3 649.5 327C647.3 339.4 646.4 369.7 647.9 380.1C649.4 389.8 652.1 398.6 655.6 404.7L658.1 408.9L662.8 405.9C669.2 401.9 672.9 401 684.6 401C696 401 703.1 402.9 710.3 407.9C716.4 412 717.6 413.6 716 415.5C715 416.7 715.1 417.7 716.6 420.7C720.8 429.6 719.1 447.5 712.8 459.2C704 475.7 680.7 488 660.5 486.8C653 486.3 648.2 484.4 644.4 480.3L642 477.7L625 494.3C615.7 503.5 606.7 511.6 605 512.5C601.6 514.3 601.1 515.7 603.8 516.2C605.3 516.5 605.5 517.1 604.7 520.8C603.9 524.7 603.7 525 600.6 525C598.1 525 597.1 524.5 596.7 523C596.4 521.6 595.3 521 593.6 521C591.6 521 591 520.5 591 518.9C591 516.6 587.4 513.1 584.9 513C583.7 513 583.1 514.2 582.6 517C582.3 519.3 581.3 521.3 580.5 521.6C579.7 522 579 522.7 579 523.4C579 525.2 574 527 568.9 527C566.4 527 562.1 527.4 559.4 527.9C551.2 529.5 524.2 529.9 515 528.7ZM677.5 438.1C677.2 437.8 675.7 438.9 674.2 440.4L671.5 443.3L674.7 441C676.5 439.7 677.7 438.4 677.5 438.1ZM592.3 438.3C592.8 437.5 595 437 598.4 437C602.9 437 603.8 436.7 604.3 435C604.6 433.9 605.5 433 606.4 433C607.5 433 608 432.1 608 430C608 427.7 608.4 427 610 427C612.5 427 612.6 424.2 610.3 422.4C609.3 421.7 606.6 421 604.3 421C601.9 421 599.5 420.3 598.6 419.4C597.4 418.2 595.8 418 591.7 418.5C587.9 419 585.7 418.7 583.5 417.6C579.4 415.4 570.8 415.5 568.1 417.8C565.9 419.6 564 428 565.8 428C566.4 428 567.1 429.3 567.5 430.9C568.1 433.9 571.8 436 576.2 436C577.3 436 578.8 436.7 579.6 437.5C580.5 438.3 582 439 583 439C584 439 585.2 439.5 585.5 440C586.3 441.3 591.3 440.1 592.3 438.3ZM484.8 400.2C485.5 400 486 399.4 486 398.8C486 397 482.9 400.2 481.6 403.4C480.6 405.7 480.6 406.9 481.4 407.9C482.3 409 482.6 408.4 483.1 405C483.4 402.6 484.2 400.4 484.8 400.2ZM442.8 403.9C443 403.4 444.6 402.8 446.5 402.4C448.9 402 450 401.1 450.4 399.5C451 397 450.3 394 449 394C448.6 394 448 393.1 447.7 392C447.4 390.8 446.3 390 445.1 390C443.8 390 442.6 389.1 442.1 387.6C441.4 386 440.1 385.1 437.5 384.7C435.5 384.4 433.3 384.3 432.7 384.6C431.2 385.2 427 394.2 427 396.7C427 397.7 426.1 399.1 425 399.8C422.6 401.3 423.4 404 426.4 404C427.5 404 429.2 404.5 430 405C431.7 406.1 442.3 405.2 442.8 403.9ZM568.9 390.1C571.9 384.4 572.4 379.7 570.6 376.2C568.3 371.7 566.2 371.4 562.3 375.2C558.2 379.1 555 385.6 555 389.7C555 392 555.9 393.5 558.1 395.4L561.2 398L564.1 395.9C565.7 394.8 567.9 392.2 568.9 390.1ZM467.2 373.3C472.8 367.3 474.4 360.6 471.5 355.1C469.4 351 467.5 350.7 463.9 353.8C460.8 356.3 456 365 456 368C456 368.8 456.9 371 458 372.8C460.5 376.8 463.7 377 467.2 373.3ZM598.4 356.8C593.6 351.2 586.9 345.9 580.7 342.5C568.4 335.8 571.4 339.2 589.4 352.5C598.4 359.1 601.8 360.7 598.4 356.8ZM471.5 323.1C485.6 321.2 490.7 319 484.4 317.4C479.3 316.1 460.8 319.4 457.3 322.2C455 324.1 455.9 325.2 459.3 324.7C461 324.4 466.6 323.7 471.5 323.1Z" fill="#FDBC7A"/>
<path d="M574 816C574 815.4 574.7 814.7 575.5 814.4C577.7 813.5 577.3 810.4 574.6 807.7C570.5 803.6 569.5 803.8 561.7 809.4C557.6 812.3 553.9 815 553.3 815.3C552.8 815.7 551.3 815 550.2 813.9C548 812 548 812 546.8 814C546.1 815.1 545.2 816 544.9 816C544 816 552.3 796 554.7 792.4C556.4 789.8 556.4 789.6 554.7 790.3C549.8 792.3 549.5 792.3 550.8 790.9C551.4 790.2 552 788.8 552 787.8C552 786.4 552.8 786 556.2 786C560.2 786 560.3 786 558.5 788C557.5 789.1 557.2 790 557.8 790C558.5 790 559 790.8 559 791.8C559 793.5 559.8 794.4 565.3 798.7L568.2 800.9L571.8 798.5C575.9 795.7 579 795.3 579 797.5C579 798.3 580.3 800.3 582 802C584.9 804.9 587 805.9 587 804.1C587 803.2 590.3 801.8 593 801.6C593.8 801.5 595.7 802.1 597.2 802.8C598.7 803.5 600.4 803.9 601 803.5C601.6 803.2 602 803.9 602 805.3C602 807.2 601.1 808.1 598.3 809.3C596.2 810.2 591.2 812.3 587.1 813.9C579.8 817 574 817.9 574 816Z" fill="#FCB574"/>
<path d="M348 735.2C348 730.8 347.6 729.1 346.5 728.6C344.4 727.8 344.6 721 346.7 716C348.4 712.1 351 710.6 351 713.5C351 715.3 351.9 715.4 355.4 714C357.7 713.2 358 713.3 358 715.1C358 716.2 357.6 716.9 357.1 716.6C356 715.9 354.8 718.8 355.6 720.1C355.9 720.6 356.5 720.8 357 720.5C357.5 720.2 358.7 721.1 359.6 722.5C361.4 725.2 363.5 725.8 364.3 723.8C364.6 723.1 364.9 723.5 364.9 724.8C365 727.4 366.5 727.7 367.9 725.3C368.7 723.8 368.9 724.2 368.9 727C368.9 730 368.2 731 363.8 734.4C361 736.5 357.3 738.6 355.6 739.1C353.9 739.5 351.5 740.2 350.3 740.5C348.1 741.2 348 741 348 735.2Z" fill="#FCB574"/>
<path d="M595.6 537.501C596 536.601 595.6 536.001 594.6 536.001C593.7 536.001 593 535.501 593 535.001C593 534.301 592.4 534.301 591.1 535.001C588.3 536.401 587 536.301 587 534.501C587 533.201 586.6 533.101 585 534.001C583.4 534.801 582.8 534.801 582.4 533.601C582.1 532.701 580.6 532.201 578.5 532.301C576.6 532.401 574.9 532.201 574.7 531.901C574.5 531.701 574 529.401 573.7 526.801C573.2 522.901 573.3 522.001 574.5 522.001C575.3 522.001 576 521.401 576 520.601C576 519.801 576.7 519.001 577.5 518.601C578.3 518.301 578.9 517.701 578.9 517.301C578.8 516.901 579 515.701 579.5 514.701C579.9 513.801 580 512.001 579.7 510.901C579.2 509.101 579.5 508.901 581.6 509.301C583 509.501 584.4 509.201 584.8 508.401C585.7 506.701 590 507.701 590 509.601C590 510.401 590.9 511.501 592 512.201C593.1 512.901 594 514.601 594 515.901C594 518.001 594.3 518.201 597 517.701C598.6 517.301 599.9 517.401 599.9 517.801C599.8 518.201 599.9 519.401 600 520.501C600.1 521.901 600.5 521.501 601.4 519.001C602.6 515.701 602.7 515.601 603.3 518.001C604.4 522.101 602 521.3 599.9 528.5C598.791 532.301 597 531.901 597.5 539.001C595.7 539.001 595.2 538.601 595.6 537.501Z" fill="#FDBC7A"/>
<path d="M595 437.4C595 435.6 595.8 433.6 597 432.5C598.4 431.3 599.1 428.8 599.6 423.8C600.2 417.5 600.5 416.9 602.2 417.4C603.3 417.6 605.3 417.5 606.5 417C608.3 416.3 609.5 416.6 611.3 418.1C612.7 419.1 614.5 420 615.3 420C617.8 420 618.2 421.7 616.4 424.5C615.5 425.9 615 427.7 615.4 428.5C615.8 429.6 615.2 430 613.4 430C611.1 430 610.8 430.3 611.3 432.6C611.6 434.6 611.2 435.3 609.4 436C606.9 437 606.1 439 608.2 439C608.8 439 609 439.3 608.6 439.8C608.2 440.2 604.9 440.5 601.4 440.5H595V437.4Z" fill="#FDBC7A"/>
<path d="M424 400.1C424 399 423.4 397.9 422.8 397.7C421.8 397.3 421.8 396.9 422.9 396.2C423.9 395.5 423.9 395.1 423 394.8C422.3 394.6 422.1 393.5 422.6 391.6C423 389.9 423.5 389.3 424 390C424.5 390.8 425 390.4 425.5 388.8C425.9 387.6 426.2 386.2 426.1 385.8C426 385.3 426.5 385 427 385C427.6 385 428 384.4 428 383.7C428 383 429.8 381.4 432 380.2C435.3 378.5 436 378.4 436 379.6C436 380.5 436.5 380.8 437.1 380.4C437.7 380.1 438.6 380.3 439 381.1C439.7 382.1 440.2 382.1 441.3 381.2C442.5 380.2 443 380.6 444.4 383.5C445.3 385.4 446.5 387 447 387C447.6 387 448 387.5 448 388C448 388.6 447.2 389 446.2 389C445.2 389 443.4 390.1 442.2 391.5C441 392.9 438.6 394.3 437 394.7C434.9 395.1 434 395.8 434 397.3C434 400 431.2 401.9 427.3 402C424.7 402 424 401.6 424 400.1Z" fill="#FDBC7A"/>
<path d="M587.5 445C587.2 444.5 586.3 444.3 585.6 444.6C584.9 444.9 583.7 444.4 583 443.5C582.3 442.7 580.9 442 579.9 442C579 442 577.4 441.3 576.5 440.4C575.6 439.5 574.7 439 574.4 439.3C574.1 439.6 571.9 439.2 569.5 438.3C566 437.1 565 436.3 564.5 433.9C564.1 432.3 563.4 431 562.9 431C562.3 431 562.2 431.5 562.6 432.1C563 432.8 562.7 433.1 561.9 432.8C561.1 432.5 560.7 431.4 560.8 430.4C561 429.4 561.3 427.4 561.4 426C562.1 419 563.3 416 566.5 413.5C568.6 412 570.1 411.4 570.5 412C570.9 412.6 571.6 412.8 572.1 412.4C572.6 412.1 572.8 411.4 572.5 410.9C571.6 409.5 574.3 409.9 576.3 411.5C577.4 412.2 578.7 412.7 579.4 412.4C580.1 412.1 582.4 412.7 584.6 413.6C588.6 415.4 595.2 415.5 595.8 413.9C596.1 413.1 599.4 414.6 601.7 416.7C602.4 417.3 603.5 418.1 604.2 418.4C605.2 418.9 605.2 419.1 604.3 419.6C603.5 419.9 603.2 421.1 603.6 422.5C603.9 423.8 603.6 425.8 603 427C602 428.8 602.1 429.4 603.1 430.1C604 430.7 604.1 431.3 603.5 431.8C603 432.2 601.4 433.8 600 435.3C597.9 437.7 597.8 438.3 599 439C600.2 439.8 600 440 598.2 440C596.7 440 595.6 440.7 595.3 441.9C595 443.2 594.2 443.6 592.9 443.3C591.8 443 590.8 443.4 590.4 444.4C589.7 446.2 588.4 446.5 587.5 445Z" fill="#FEAB70"/>
<path d="M429.5 408.9C427.9 408.3 425.5 407.9 424.3 407.9C421.2 408 418.6 403.1 420 399.5C420.5 398.1 421.7 396.7 422.6 396.3C423.7 395.9 423.8 395.5 423 395C422.1 394.4 422 393.4 422.7 391.4L423.7 388.5L424.4 391.8C424.8 393.5 425.8 395 426.5 395C427.3 395 427.6 395.7 427.3 397.1C426.8 399 426.9 399.1 428.7 398C429.9 397.2 430.6 395.8 430.4 394.4C430.2 392.6 430.7 392 432.2 392C434.7 392 438 390.2 440.1 387.7C441.6 385.7 442.1 385.7 447.5 386.9C451.2 387.7 452.8 388.5 452 389C450.9 389.7 451 390.2 452.3 391.5C453.3 392.4 454 393.4 454.1 393.8C454.1 394.2 454.3 396.2 454.6 398.3C454.9 400.4 454.6 402 454 402C453.5 402 453 402.6 453 403.4C453 404.2 451.5 405.1 449.3 405.5C446.6 406 446 406.4 447.1 407.1C448.3 407.9 448.3 408.1 447 409C445.1 410.2 443 410.3 443 409.1C443 408.3 441.5 408.3 435.5 409.4C433.9 409.7 431.2 409.4 429.5 408.9Z" fill="#FEAB70"/>
<path d="M348.8 744.3L349.3 741.6L347 743.8C344.2 746.4 343.6 746.5 342 744.5C341.3 743.7 340.2 743 339.6 743C339 743 338.4 742 338.3 740.8C338.1 737.5 333.7 722.9 330.1 713C325.4 700.5 321.2 695.1 312.5 690.6L309.6 689.1L313.8 688.4C316.1 688 318 687.6 318 687.3C318 686.3 313.7 678.8 309.5 672.5C303.8 664 299.9 656.4 295 644.3C291 634.3 291 634 297.3 634C300.3 634.1 300.4 634.1 298.6 635.5C296.5 637.1 296.5 637.2 299.7 638.9C305.6 641.9 317 637.5 317 632.1C317 631.5 316.3 631 315.4 631C314.6 631 314.2 630.6 314.5 630C316.1 627.4 318.2 629.9 323.7 640.8C330.1 653.2 332.1 658.7 334.6 672.2C335.4 676.8 337.2 683.2 338.6 686.6C339.9 689.9 341 693.2 341 693.9C341 694.5 341.8 696.2 342.7 697.7C343.6 699.1 344.5 701.2 344.5 702.3C344.6 703.4 345.7 705.2 346.9 706.2C350 708.6 352.4 716.4 350.5 718C348.3 719.8 347.6 724.3 349.4 725.5C350.3 726.2 351 728.7 351.2 732.3C351.5 737.9 352.5 739.1 354.8 736.8C355.7 735.9 356 736 356 737.2C356 738.1 354.9 739.1 353.5 739.4C351.7 739.9 350.9 740.9 350.4 743.5C350.1 745.4 349.4 747 349 747C348.6 747 348.5 745.8 348.8 744.3Z" fill="#FCAE4D"/>
<path d="M529.2 798.3C527.1 797.5 530.8 792.5 534.9 790.7C543.5 787 563.9 779 564.8 779C565.3 779 566 779.9 566.3 780.9C566.9 783.4 564.1 785.4 551 791.7C538 798 532.6 799.7 529.2 798.3Z" fill="#F3965A"/>
<path d="M517 543.7C508.9 540.5 507.5 539.4 505.7 535.8L504 532.5V536.3C504 538.6 503.6 539.9 503 539.5C502.5 539.2 502 536.5 502 533.6C502 529.1 502.3 528.2 504 527.7C505.1 527.4 506 526.5 506 525.6C506 523.8 507.8 523.9 522.4 526.1C528.9 527 546.1 526.5 556 525C559.6 524.4 564.6 523.8 567.3 523.6C569.9 523.4 572.3 523 572.7 522.6C573 522.3 577.6 522 577.6 522L580.5 523L583.5 525L584.5 526L585.5 527.5L584.4 529L582.5 531L578.8 532.8C577.5 533.5 575.8 534.4 575 535C572.6 536.5 562.7 540.6 559.5 541.4C557.9 541.8 554.8 543 552.5 543.9C549.4 545.4 545.7 545.8 535.5 545.9C524.2 545.9 521.8 545.7 517 543.7Z" fill="#F3965A"/>
<path d="M318 760.4C306.4 758.8 301.2 756.3 296 749.7C291 743.5 290.9 741.8 295.5 745.9C297.5 747.6 299.7 749 300.5 749C301.2 749 302 749.3 302.2 749.8C302.6 750.8 315.1 754.5 323 756C330.6 757.4 335 758.9 335 760.1C335 760.6 334 761 332.8 761.1C331.5 761.1 329.8 761.3 329 761.4C328.2 761.5 323.2 761.1 318 760.4Z" fill="#F08F51"/>
<path d="M338 756.1C338 755.6 333 752.3 326.9 748.8C312 740.4 301.4 730.8 299.6 724C298.9 721.5 298.9 721.5 300.7 723.5C302.6 725.7 313.5 734 314.5 734C315.1 734 331.5 745.1 334 747.2C338.4 750.9 341.5 757 339 757C338.5 757 338 756.6 338 756.1Z" fill="#F08F51"/>
<path d="M661.6 458.4C660.5 455.5 661 452.8 663.6 447.6C666.5 441.9 672.6 435 675 435C675.8 435 677.4 434.3 678.4 433.5C681.4 431.3 699 431.7 699 434C699 434.4 696 435.5 692.4 436.5C687.9 437.7 683.5 439.9 678.2 443.7C669.4 450 668.3 451.1 665.1 456.3C662.5 460.5 662.4 460.6 661.6 458.4Z" fill="#F08F51"/>
<path d="M508.5 760C500.8 758.5 483.3 755.2 469.5 752.5C455.8 749.9 444.4 747.7 444.4 747.7C444.3 747.6 444.6 743 445.1 737.5C445.5 732 446.4 720.1 447 711C447.7 701.9 448.2 694.1 448.3 693.6C448.4 693.2 442.7 690.7 435.5 688.1C420.8 682.8 411.2 678.7 405.8 675.3C403.7 674 401.8 673 401.5 673C401.2 673 398.5 671.5 395.7 669.6C392.8 667.8 388.8 665.8 386.9 665.1C384.9 664.5 382.2 662.8 380.9 661.4C378.6 658.9 378.6 658.9 380.3 654C387.9 632.7 401.6 607.9 417.9 586C432 566.9 449 549.1 459.5 542.5C469 536.4 486.1 530.5 500.1 528.5C504.2 527.9 504.8 528 505.3 529.9C505.6 531.1 505.4 532.3 504.9 532.6C504.4 532.9 504 535.7 504 538.8C504 545.4 506.2 549.7 512.5 555.2C522.6 564 534.3 568 550.5 568.2C566.4 568.5 571 566.8 581.6 556.8C591.3 547.6 596.7 538.2 600.2 524.5L602.4 515.8L607 516.3C618 517.6 664.6 538.3 675.5 546.7C682.2 551.9 701.3 574 706.7 583C722.9 609.6 736.3 641.6 744.1 671.9C747 683.4 745.7 684.4 722 689.4C707.2 692.5 670.3 698.6 660.8 699.6L654.2 700.3L654.7 703.9C655 705.9 655.6 709.1 656.1 711C656.6 712.9 657 716 657 717.8C657 719.7 657.6 721.3 658.4 721.6C660.8 722.5 657.1 730 654.3 730C653 730 652 730.5 652 731C652 732.2 651.2 732.5 632.5 739.2C616.3 745 612.5 745.8 597.5 746.6C578.2 747.6 568.1 749.5 537 758.2C531.2 759.8 526.1 761.5 525.6 762.1C524.4 763.2 525.5 763.3 508.5 760ZM636.7 661.5L635.3 656.5L634.6 660.7C634 663.8 634.3 665.8 635.4 668.1C636.3 669.9 637.1 672.5 637.2 673.9C637.3 675.3 637.5 674.3 637.7 671.5C637.9 668.8 637.4 664.3 636.7 661.5ZM452 654.6C450.5 653.1 450.2 653.9 449.6 661.5L449 668.5L451 662C452.3 657.9 452.6 655.2 452 654.6ZM631 629.3C630 627.7 629.9 627.9 630.4 630C630.7 631.4 631.1 634.1 631.2 636C631.3 639.2 631.4 639.2 631.7 635.3C631.9 632.9 631.6 630.2 631 629.3Z" fill="#F78738"/>
<path d="M355.5 736.1C357.2 734.3 360.6 731.3 363.2 729.4C365.8 727.5 368.5 724.6 369.2 723C369.9 721.4 371.1 719.8 371.9 719.5C373.7 718.8 372.9 724.3 370.4 729.5C368.5 733.6 362.1 737.8 356.3 738.7L352.5 739.3L355.5 736.1Z" fill="#E68244"/>
<path d="M488.5 418.1C485.2 416.5 481.2 413.9 479.6 412.2C476.8 409.2 476.6 407.8 478.2 400.9C479.8 393.9 492.3 390.8 501.5 395L505.5 396.9H499.5C493.2 397 489 398.9 489 401.6C489 402.4 488.6 403 488.1 403C486.3 403 485.9 406.9 487.4 409.9C488.3 411.5 490.6 414.1 492.5 415.6C494.4 417 496 418.9 496 419.6C496 421.5 495.5 421.4 488.5 418.1Z" fill="#E68244"/>
<path d="M647 733C647 732.5 647.4 732 647.9 732C648.4 732 648.6 730.8 648.4 729.3C648.2 727.7 648.4 725.8 648.9 725C649.8 723.8 650.1 723.8 651.7 725.3C653.5 726.9 653.7 726.8 654.9 723.5C655.9 720.7 656.4 720.2 657.8 721C658.7 721.5 660.7 722.1 662.3 722.5C663.8 722.8 665 723.6 665 724.3C664.9 726.2 647 734.9 647 733Z" fill="#E47831"/>
<path d="M635.9 686.8C635.5 680.5 633.8 673.5 632.2 671.8C631.4 670.8 631.1 670 631.5 670C632 670 631.3 668.8 629.9 667.4C627.6 664.9 627.6 664.8 629.5 663.8C631.4 662.7 631.4 662.7 629.5 661.9C627.8 661.2 627.7 661.1 629.3 661.1C630.2 661 631 660.2 631.1 659.3C631.3 655.9 630.8 651.6 629.9 649.3C629.4 648 629.4 647 629.9 647C630.4 647 630.3 645.9 629.7 644.5C629 643.1 628.3 642 628 642C627.7 642 627.5 640.2 627.7 638C627.8 635.8 627.5 634 627 634C626.5 634 626.4 632.1 626.6 629.8C626.9 627.4 627.2 623.9 627.3 622C627.5 619.2 628 618.4 630.2 617.6C631.7 617.1 633.2 616.8 633.4 617.1C634.2 617.9 635.4 630.2 635.4 638.5C635.5 642.9 636 647 636.5 647.6C637.1 648.2 638.2 651.7 638.9 655.4C639.6 659 640.6 662.2 641 662.5C641.5 662.8 641.6 664.6 641.3 666.5C640.9 668.8 641.1 670 641.9 670C642.7 670 642.7 670.6 641.8 672C640.7 673.7 640.8 674.2 642 675C643 675.6 643.1 676 642.3 676C641.6 676 641.1 676.8 641.2 677.8C641.6 683 641 685 638.9 685C637.4 685 637 685.5 637.4 686.5C637.7 687.3 637.5 688 637 688C636.4 688 636 687.4 635.9 686.8Z" fill="#E47831"/>
<path d="M444.7 678.3C444.3 677.7 444.5 674.9 445.1 672C445.7 669.2 446 664.9 445.8 662.4C445.6 660 445.8 658 446.2 658C446.6 658 446.6 656.9 446.1 655.7C445.4 653.8 445.6 653 447.1 651.9C449.4 650.3 451.6 645.9 452.4 641.1C452.7 639.2 453.9 637 455.1 636.2C457 634.9 457 634.8 455.3 633.2C453 631.1 453 626.1 455.3 622.7C456.2 621.3 457.2 619 457.6 617.6C457.9 616.1 458.5 615.2 458.8 615.4C459.8 616.4 459.8 622.3 458.8 631C457.4 644.3 457.2 645.3 456 648.5C455.1 651 455.2 651.6 456.6 652.7C458 653.7 458.1 654.2 457.1 655.4C456.4 656.3 455.8 658.5 455.7 660.5C455.6 662.4 455.3 664 454.9 664C454.5 664 453.9 665.2 453.6 666.8C452.6 670.7 450.6 675 449.8 675C449.3 675 449 675.7 449 676.6C449 677.6 448.4 678 447.6 677.7C446.8 677.4 446 677.6 445.7 678.3C445.5 679.1 445.2 679.1 444.7 678.3Z" fill="#E47831"/>
<path d="M428 855.6C428 855.3 428.7 854.5 429.5 853.6C430.9 852.2 430.8 851.8 428.2 849.5C425.8 847.4 425.4 846.2 425.4 842.5C425.5 840 425.2 838 424.8 838C423.2 838 424.1 832.9 425.8 832.3C426.7 831.9 427.8 831.2 428.2 830.6C429 829.4 447.3 832.5 447.8 834C448 834.5 448.8 835 449.6 835C450.8 835 451 836.7 450.8 844.4C450.6 849.6 450.3 854 450 854.3C449.3 854.9 428 856.2 428 855.6Z" fill="#8368A7"/>
<path d="M405.8 836.999C405.8 835.599 405.7 833.899 405.7 833.299C405.8 832.599 405.5 831.999 405.1 831.999C404.7 831.999 404.5 830.699 404.8 828.999C405.2 826.399 404.9 825.999 402.9 825.899C401.5 825.899 401.1 825.599 401.9 825.299C402.7 824.999 407.8 825.499 413.2 826.499C422.9 828.299 423 828.399 423 831.199C423 833.899 422.8 833.999 419.5 833.699C416 833.299 413.9 834.399 416.2 835.299C417 835.599 416.8 835.899 415.8 835.899C414.8 835.999 414 836.699 414 837.499C414 838.299 413.6 838.999 413 838.999C412.5 838.999 412 838.299 412 837.499C412 836.699 411.5 835.999 410.9 835.999C410.4 835.999 410.2 836.499 410.6 837.199C411.1 837.899 410.8 838.099 409.8 837.699C408.9 837.399 407.7 837.699 407.1 838.299C406.3 839.099 406 838.799 405.8 836.999Z" fill="#8368A7"/>
<path d="M331.3 799.7C331.6 798.8 331.6 798 331.1 798C330.6 798 329.9 796.9 329.6 795.6C329.3 794.3 328.1 793 326.9 792.7C325.7 792.4 325.1 791.7 325.5 791C326.6 789.2 324 787 320.6 787C318.8 787 316.8 786.4 316.2 785.8C315.2 784.8 314.8 784.8 314.1 785.8C313.7 786.5 312.4 787.2 311.2 787.3C309.5 787.4 309.2 787.9 309.6 790C310.1 792 309.9 792.2 309 791C308.1 789.9 307.7 789.8 307.3 790.8C307.1 791.4 306.4 792 305.9 792C305.3 792 305.2 791.5 305.5 791C305.9 790.4 304.8 789.7 303.1 789.4C301.4 789 300 788.1 300 787.4C300 786.5 298.9 786 297.1 786C295.4 786 294 785.4 293.6 784.4C293.3 783.6 292.6 783.2 292 783.5C290.7 784.3 290.7 780.9 292.1 777.3C293.1 774.4 295.6 771.7 300 768.7C302.6 766.9 310 766.3 310 767.9C310 768.4 311 769 312.3 769.2C314.1 769.4 314.6 770.2 314.8 773.3C315.1 776.2 314.8 777 313.5 777C312.3 777 312 777.6 312.6 779.3C313.4 782.1 313.2 781.9 316 782.2C317.9 782.4 318.5 781.9 319.2 779.1L320.1 775.8L325.7 776.2C329.9 776.6 331.8 777.2 333.1 778.8C334 780 335.8 781 336.9 781C338.6 781 339 780.4 339 778C339 775.7 339.5 775 340.9 775C342 775 343 774.1 343.3 772.9C343.8 771.2 344.5 770.9 347.9 771.1C350.2 771.3 352.5 770.9 353.2 770.2C354.9 768.5 361 768.6 361 770.4C361 771.2 362.4 772.1 364 772.5C367.2 773.2 369 775.5 369 779C369 780.7 368.6 780.9 366.5 780.4C364.6 779.9 361.7 781.3 353.3 786.6C347.3 790.4 341.2 794.4 339.5 795.6C337.9 796.8 335.2 798.6 333.5 799.6C330.8 801.3 330.6 801.4 331.3 799.7Z" fill="#8368A7"/>
<path d="M712.6 415.1C709.7 411.9 702 407.4 696.1 405.5C692.1 404.2 688.6 403.9 682.1 404.2C673 404.7 668.2 406.4 662.1 411.6C658.3 414.8 656.9 414.3 653.5 409C645.8 396.8 643.6 383.8 644.3 355C644.6 342.2 645.5 329.7 646.4 324.1C647.3 318.9 647.8 314.5 647.6 314.2C647.3 314 643.1 315.2 638.3 317C627.3 321.1 617.6 321.6 613.3 318.4C609.4 315.5 606.8 309.6 606.2 302.2C605.8 297.1 605.4 296 604.1 296.4C585.9 301.8 567.2 303.6 560.9 300.6C553 296.9 552.2 288.2 558.6 275.8C561.7 269.6 562 267.5 559.5 269.8C558 271.1 547.4 274.7 538.5 276.9C528.5 279.4 500.4 282.4 492.9 281.7C485.7 281.1 479.6 278 478 274.1C477 271.5 477.1 270.1 478.9 264.1C480.1 260.3 481 256.9 481 256.7C481 256.4 478.6 257.1 475.8 258.3C459 265.1 448.5 274.9 441.2 290.2C436.1 300.8 430.3 316 425.4 331.3C423.8 336.1 422.3 340 421.9 340C421.1 340 417.5 330.3 415.5 322.5C411.6 307.6 412.7 288.1 418.5 270.2L421.8 260L419.2 254.7C417 250.4 416.6 248.1 416.5 241.5C416.5 231.7 417.6 229.5 427.4 218.6C436.6 208.3 441 205.6 453 202.8L462.8 200.5L463.3 197C464.6 187.3 473.2 176.4 483.3 171.6C500.9 163.3 522.6 160.3 553.6 162C578.3 163.3 597.2 166.9 617.6 174.1C641.1 182.4 674.6 204.3 693.7 224L703 233.5L702.3 224.3C701.8 216.5 702 214.7 703.4 212.4L705.2 209.8L708.2 212.6C715.5 219.6 720 231.7 720 244.5V252.9L726.1 256.1C737.7 262.3 746.6 272.8 753.4 288.3C757.8 298.1 756.4 300.9 748 299.3C745.2 298.7 743 298.4 743 298.5C743 298.6 743.9 301.3 745 304.4C748 313.2 749.2 321.5 749.2 333.3C749.1 353.4 745.9 366.4 736.8 384C731.3 394.5 723 407.5 717.8 413.3L714.5 417.2L712.6 415.1Z" fill="#9B636E"/>
<path d="M440.5 865.9C433.3 865.4 427.4 864.6 427.2 864C427 863.5 425.1 863 423 863C419.1 863 416.9 860.7 418.9 858.7C419.6 858 420.1 858.2 420.6 859.3C421.2 861.1 427 861.8 427 860.1C427 859.7 425.9 859.5 424.6 859.7C423 860 422.1 859.6 421.6 858.4C421.3 857.5 421.1 856.7 421.2 856.6C421.4 856.5 422.5 856 423.7 855.3C425.2 854.4 426 854.4 426.2 855.2C426.5 855.9 427.1 855.8 428 854.9C430.4 852.7 436.1 851.2 441.7 851.4C446.1 851.5 447 851.3 447.4 849.5C448.3 846.4 448.1 846 446.4 846C445 846 445 845.7 446 844.5C446.7 843.6 447 842.7 446.7 842.3C446.3 842 446.5 840.9 447.1 839.9C447.9 838.3 447.7 838 446.1 838C443.4 838 442.4 836.1 444.2 834.4C445.5 833.1 448.1 833.4 464.6 836.4C497.1 842.5 514.9 846.2 518.3 847.5C520.6 848.4 527.7 841.2 535.1 830.4C540 823.4 540.2 823.2 545.3 822.6C549.6 822 562.7 818.7 570.3 816.3C571.2 816 572 816.3 572 816.9C572 817.5 572.7 818 573.5 818C574.3 818 575 818.4 575 818.8C575 819.5 573.5 819.9 569.3 820.2C568.6 820.3 567.9 820.9 567.6 821.7C567.3 822.4 565.9 823 564.6 823C563.2 823 561.7 823.7 561.2 824.6C560.6 825.7 560.1 825.9 559.6 825.1C559.1 824.3 558.1 824.4 555.9 825.5C554.3 826.4 553 826.7 553 826.3C552.9 825.8 552.2 826.4 551.2 827.5C549.4 829.6 546.4 830.1 544.2 828.6C541.8 827.1 541.7 828.9 544.1 830.9C545.4 832 546 832.9 545.3 833C544.6 833 544.3 833.6 544.6 834.4C544.9 835.1 544.4 836 543.6 836.3C542.7 836.7 542 837.6 542 838.4C542 839.4 541.4 839.7 540.3 839.4C538.7 838.9 538.7 839 540.3 840.3C542.1 841.8 542 842 539 844.9C537.3 846.5 535.3 847.7 534.7 847.4C534 847.2 532.4 848.6 531.1 850.5C529.8 852.4 528.2 854 527.4 854C526.7 854 525.9 854.8 525.7 855.8C525.3 857.4 525.2 857.4 525.1 855.8C525 853.9 523 853.2 523 855.1C523 855.7 522.4 855.8 521.8 855.3C520.4 854.5 514.8 854.8 514 855.9C513.1 857 508.9 857.2 507.7 856.1C507 855.6 503.1 855 499 854.8C494.9 854.6 490.9 854.1 490.3 853.7C489.5 853.2 489 853.3 489 853.9C489 855.5 485.3 855.2 484.7 853.6C484.4 852.8 484.6 852 485.2 851.8C486 851.5 485.9 850.8 485.1 849.2C484.1 847.4 483.7 847.2 482.6 848.2C481.8 848.9 481.4 849.8 481.7 850.3C481.9 850.7 481.6 851 481 851C480.3 851 480.1 851.7 480.4 852.6C480.9 853.8 480.5 854 478.9 853.5C477.4 853 477 853.1 477.4 853.9C477.8 854.6 477.3 855.1 476.1 855.2C474.9 855.2 473.4 855.3 472.8 855.4C472.1 855.5 471.3 855.7 471 856C469.6 857.4 463.7 859.9 462.9 859.4C462.4 859.1 462 859.4 462 859.9C462 860.5 462.5 861 463 861C463.6 861 464 862.4 464 864C464 867 463.9 867 458.8 866.9C455.9 866.8 447.7 866.3 440.5 865.9Z" fill="#8368A7"/>
<path d="M425.2 840.5C425.5 839.1 425.3 838 424.9 838C424.4 838 424 838.5 424 839.1C424 839.6 423.6 839.8 423 839.5C422.5 839.2 422 837.8 422 836.4C422 834.1 421.1 833.6 418.3 833.9C417.5 834 417.3 833.4 417.6 832.5C417.9 831.7 418.7 831 419.2 831C419.8 831 420 830.3 419.6 829.5C419.3 828.7 419.4 828 419.8 828C420.6 828 435.5 830.8 438.8 831.5L441 832L438.6 834.5C436.1 837 434.4 837.8 435.5 836C435.8 835.4 435.3 834.7 434.3 834.3C433.3 833.9 432.2 833.2 431.8 832.6C431.3 832 431 832.5 431 833.7C431 835.2 430.5 835.8 429.6 835.4C428.8 835.1 427.9 835.3 427.5 835.9C427.2 836.5 427.3 837 427.9 837C428.4 837 428.2 838.4 427.4 840C425.5 843.7 424.6 843.9 425.2 840.5Z" fill="#8368A7"/>
<path d="M334.6 785.8C334.2 784.1 333.8 783.8 333.2 784.8C332.5 785.9 332.1 785.9 331.2 784.8C330.7 784.1 330.2 783.1 330.2 782.5C330.3 780.9 325.7 778.9 324.9 780.2C324.5 780.9 324.1 780.8 323.8 779.9C323.5 779.1 322.8 780.1 322.3 782C321.4 785.1 321 785.5 317.9 785.4C316 785.4 314.2 785.9 313.8 786.4C313.3 787.1 313 787.1 313 786.3C313 785.5 311.7 785 309.8 785C306.7 784.9 306.6 784.9 308.4 783.5C310.2 782.2 310.2 782 308.7 782C307.3 782 307.1 781.6 308 780.1C308.5 779 309 777.2 309 776.1C309 774.9 309.7 774 310.6 774C311.4 774 311.8 773.6 311.5 773C311.2 772.4 310 772 309 772C308 772 307 771.4 306.8 770.8C305.9 768.2 296.5 775.9 295 780.4C294.4 782.5 293.3 783.6 292 783.7C290.9 783.8 290 783.5 290 782.9C290 782.4 289.1 782 288.1 782C287 782 285.9 781.6 285.5 781C285.2 780.5 284.2 780.4 283.2 780.7C281.7 781.3 281.6 781.2 283 779.5C285.6 776.2 292.1 770.6 297.1 767.3C301.8 764.3 302.1 764.2 305 765.6C312.7 769.5 325.3 769.2 334.4 765C339.3 762.6 345.7 762.8 355.9 765.5C361.5 767 361.5 767 364.9 760.2C366.2 757.6 367.7 756 368.8 756C371.5 756 382 757.9 385.8 759.1L389 760.2L382.7 767.3C379.3 771.3 375.2 776.2 373.7 778.3C372.1 780.3 370.5 782 369.9 782C369.4 782 367.7 780.8 366.2 779.3C364.7 777.8 362.9 776.7 362.3 776.8C361.6 777 361 776.6 361 776C361 775.5 360.3 775 359.5 775C358.7 775 358 774.2 358 773.3C358 771.9 357.6 772 355.7 773.8C353.4 775.9 348 776.6 348 774.7C348 774.3 347.5 774.2 346.9 774.5C346.3 774.9 346.1 775.8 346.4 776.6C346.8 777.6 346.2 778 344.5 778C342.4 778 342 778.5 342 781C342 782.9 341.5 784 340.6 784C339.8 784 339.3 784.8 339.4 785.7C339.6 788.6 335.4 788.6 334.6 785.8Z" fill="#8368A7"/>
<path d="M513.7 471.6C511.4 469.1 507.1 465.5 504.1 463.6C499.4 460.4 498.1 460 492.5 460C488.4 460 484.5 460.7 481.4 462C478.8 463.1 476.3 463.9 475.7 463.7C475.2 463.6 476.8 461.6 479.3 459.3C483 455.9 484.7 455.1 489.2 454.5C499.4 453.2 513.6 458.5 520.6 466.2C525.1 471.2 525 473.9 520.2 475.4C518.3 476 517.2 475.3 513.7 471.6Z" fill="#9F583E"/>
<path d="M555.2 398.5C549.2 393.5 550.5 382.3 558 373.8C562.6 368.5 565.8 367.3 569.9 369.4C573.8 371.5 575.4 375.8 574.7 382.9C573.5 397.1 563.3 405.3 555.2 398.5Z" fill="#834E4B"/>
<path d="M457.7 378.999C452.7 375.899 451.6 366.499 455.4 358.499C459.2 350.199 465.5 346.299 471.5 348.599C474.2 349.699 476 354.599 476 360.999C476 367.699 473.9 372.899 469.7 376.799C466.9 379.499 460.4 380.599 457.7 378.999Z" fill="#834E4B"/>
<path d="M593.3 360.299C571.2 345.499 565.3 339.099 570.9 336.099C575.7 333.499 592.5 343.199 601.1 353.499C603.8 356.699 604.3 359.599 602.5 361.399C600.2 363.699 598 363.399 593.3 360.299Z" fill="#834E4B"/>
<path d="M452.3 326.9C446.7 321.2 458.6 315.2 477.2 314.2C487.8 313.7 492 315 492 319C492 322.2 487.6 324.2 477.2 325.7C460.9 328 453.7 328.3 452.3 326.9Z" fill="#834E4B"/>
<path d="M447 915.4C447 914.6 445.7 912.5 444 910.9C442.4 909.3 441.1 907.7 441.1 907.5C441 905.2 439.6 902.1 438.9 902.6C438.4 902.9 438 902 438 900.7C438 899.3 437.3 897.7 436.5 897C434.4 895.2 434.5 891.9 436.7 892.7C438 893.2 438.2 892.9 437.7 891.6C437.3 890.7 437.6 889.3 438.3 888.6C439.3 887.5 439.8 887.6 441.1 889.1C442.7 891 442.9 890.9 447.4 888.4C449.9 887 452 886.1 452 886.5C452 886.9 452.6 886.7 453.4 886C454.6 885.1 455.5 885.3 457.9 887.1C461.4 889.7 462.3 894.3 459.3 893.8C458.3 893.7 456.3 894.4 454.8 895.4C453.3 896.4 451.6 896.9 451 896.5C448.8 895.1 451.5 905.8 453.9 907.6C455.5 908.9 454.8 913.4 452.5 915.6C450.6 917.5 447 917.4 447 915.4Z" fill="#724F64"/>
<path d="M422.4 895.9C422.9 893.4 422.7 892.9 421.4 893.4C419.2 894.3 414.9 889 416.1 886.8C416.6 885.9 417 883.5 417 881.5C417 876.9 418.9 875 423.5 875C426.4 875 427.1 875.3 426.6 876.5C426.3 877.3 426.5 878 427.1 878C428.8 878 430.2 883.2 429.1 885.5C428.6 886.6 427.9 888.4 427.7 889.5C427.5 890.6 426.9 891.4 426.3 891.3C425.7 891.2 425 892 424.7 893C424.4 894.1 424.6 895 425.1 895C425.6 895 425.5 895.9 424.8 897C422.9 900 421.7 899.4 422.4 895.9Z" fill="#724F64"/>
<path d="M417.5 868.1C416.4 867.6 415.2 867.4 414.9 867.6C414.5 867.8 413.7 867.3 413 866.5C412.3 865.7 411.2 865 410.4 865C408.7 865 406 862.2 406 860.5C406 859.5 411 859.5 411 859.5C413.7 859.5 417.3 859.9 417.5 860.1H421.187L426.5 860.6L428 861H429.5H431L433.5 864.6C433.5 864.6 428.9 867.5 425.1 868.1C422 868.6 419.5 869 419.5 868.9C419.5 868.9 418.6 868.5 417.5 868.1Z" fill="#724F64"/>
<path d="M290.9 634.4C287.5 626.3 286.5 621.4 287.7 618.7C289.2 615.5 294.8 613 300.5 613C307.8 613 310.5 615 315 624C317.3 628.6 318.6 632.2 318 632.5C317.4 632.8 317 632.6 317 632.1C317 631.5 314.9 631 312.2 631C307.5 631 302.3 633 295.8 637.4L293 639.2L290.9 634.4Z" fill="#6B4A63"/>
<path d="M831 929C831 953.301 689.746 973 515.5 973C341.254 973 200 953.301 200 929C200 904.699 341.254 885 515.5 885C689.746 885 831 904.699 831 929Z" fill="#C9AADB"/>
<path d="M486.9 945.9C481.6 945.1 477.6 943.2 473.1 939.4C470.8 937.5 469.3 937 467.5 937.4C465.4 937.9 464.8 937.5 463.5 934.4C462.7 932.4 461.5 928.2 461 925.1C460.5 922 459.5 916.6 458.9 913C457.6 905.6 458.3 874.8 459.9 868.5C460.5 866 460.6 864.4 460 864.2C459.4 864 459 862.2 459 860.1C459 856.6 459.2 856.4 463.5 855.1C466 854.4 468 853.4 468 852.9C468 852.4 469.4 852 471 852C472.7 852 474 851.6 474 851C474 850.5 474.7 850 475.5 850C476.3 850 477 849.6 477 849.2C477 846.9 480.9 844 484 844C486.6 844 487.4 844.5 488.3 846.9C489.5 850.2 490.4 850.4 503.5 851.8C507.4 852.2 512.3 852.2 514.5 851.8C516.7 851.4 520.1 851.1 522.1 851.1C525.1 851 526.2 850.4 528.1 847.5C529.6 845.4 531.3 844 532.6 844C535 844 536 842.3 536 838.4C536 836.9 536.6 836 537.5 836C539.1 836 539.3 835.5 539 829.3L538.8 825H542.9C545.2 825 547.8 824.6 548.8 824C551 822.8 559.7 820 561.3 820C562 820 564.3 819.1 566.5 818C568.7 817 574.3 814.7 579 813C589.9 809 613.7 797.4 621.8 792.1C635.2 783.4 649.3 777.8 670.3 772.8C677.8 771.1 682.7 770.6 697 770.6C716.8 770.5 721.2 771.5 731.8 778.7C745.2 787.8 753.8 799.8 758.1 815.5C759.9 822.4 760.2 825.1 759.7 835C759.1 847.5 757.7 853 753 861.8C748.9 869.6 737.1 883.2 730 888.4C724.3 892.6 701.5 904.3 693.6 907.1C691.1 908 689 909.7 687.8 911.6C685.8 915.1 685.4 915.2 652.5 923C643.2 925.3 632.1 928 628 929.1C619.3 931.5 613.5 932.6 603 934C598.9 934.6 594.3 935.5 592.7 936.1C590.6 937 588.5 937 584.2 936.1C574.9 934.2 569.3 934.5 553 937.7C521.3 944 495.2 947.3 486.9 945.9Z" fill="#8368A7"/>
<path d="M339.8 897.401C339.6 896.501 336.4 894.801 331.5 893.101C313.6 886.901 299 877.201 283.8 861.501C273 850.301 268.7 840.501 267.1 823.701C265.5 806.601 268.8 795.801 279.5 783.101C284.2 777.501 287.1 775.801 288.4 777.901C288.7 778.401 290.6 779.101 292.5 779.401C294.5 779.801 296.4 780.801 296.7 781.601C297 782.401 298.5 783.001 300.1 783.001C302 783.001 303 783.501 303 784.501C303 785.301 303.7 786.001 304.5 786.001C305.3 786.001 306 785.601 306 785.001C306 784.501 307.1 784.001 308.5 784.001C309.9 784.001 311 783.601 311 783.001C311 781.701 318.7 781.701 319.5 783.001C319.8 783.601 321.6 784.001 323.4 784.001C327 784.001 329 785.501 329 788.201C329 789.201 329.7 790.001 330.5 790.001C331.3 790.001 332.2 791.101 332.6 792.501C332.9 793.901 333.6 795.001 334.1 795.001C335.8 795.001 335 798.601 332.9 800.301C331.8 801.301 331 803.001 331.2 804.101C331.5 805.901 333.6 806.701 346.5 810.001C354.8 812.101 363.4 814.501 365.8 815.401C370.6 817.101 397.1 823.501 403.7 824.601C407.6 825.201 407.9 825.501 408.5 829.101C409.2 833.001 411.3 834.301 412.4 831.501C412.8 830.501 414.4 830.001 417.4 830.001C423.1 830.001 425 830.801 425 833.101C425 834.301 425.7 835.001 427 835.001C428.7 835.001 429 835.701 429 839.801C429 843.701 429.5 845.101 431.5 846.801C434.7 849.601 434.9 854.901 432 857.001C430.8 857.901 430 859.601 430 861.401V864.301L417.8 863.401C411 862.901 399.7 862.501 392.5 862.601C376.8 862.701 369.3 864.401 359.8 870.101C351.5 875.101 347.1 881.401 344.4 891.801C342.7 898.501 340.6 901.101 339.8 897.401Z" fill="#8368A7"/>
<path d="M610 941C604.2 939.9 594.1 938 587.5 936.6C576.7 934.4 576 934.2 580.5 934C583.3 933.8 586.4 933.6 587.5 933.4C588.6 933.2 592 932.6 595 932C598 931.5 604.3 930.4 609 929.6C613.7 928.8 620.9 927.3 625 926.2C645.6 920.7 652.7 918.9 655.3 918.5C660.8 917.7 682.4 911.9 685.2 910.5L688.1 909.1L687.5 912.3C686 919.5 678.6 928.7 670.5 933.5C655.3 942.5 633.5 945.2 610 941Z" fill="#724F64"/>
<path d="M392 942.9C367.4 940.7 348.4 929.3 342.7 913.2C338.3 901.1 339.9 886.7 346.7 876.3C350.7 870.2 360.2 864 369.5 861.4C376.2 859.6 409.9 859.9 409.9 859.9L419 860.5L425.5 861H431.5C431.5 861 432 861.2 432.9 861.5C432.9 861.5 441.6 862.8 454.7 863.4C461.6 863.7 463 863.5 463.4 862.1C464.2 859.8 463.3 870.3 462 878C460.8 885.8 460.8 904.8 462 911C462.4 913.5 463.3 918.4 464 921.9C464.6 925.4 466 930.1 467 932.3C468.5 935.3 468.7 936.6 467.8 937.1C465.8 938.4 445.1 941.9 434.5 942.8C421.6 944 404 944 392 942.9Z" fill="#724F64"/>
</g>
<defs>
<clipPath id="clip0_2870_8827">
<rect width="1024" height="1024" fill="white"/>
</clipPath>
</defs>
</svg>
