<svg width="60" height="61" viewBox="0 0 60 61" fill="none" xmlns="http://www.w3.org/2000/svg">
<path fill-rule="evenodd" clip-rule="evenodd" d="M55 30.5C55 44.3071 43.8071 55.5 30 55.5C16.1929 55.5 5 44.3071 5 30.5C5 16.6929 16.1929 5.5 30 5.5C43.8071 5.5 55 16.6929 55 30.5ZM16.6369 33.8355C17.5562 33.3588 18.6879 33.7176 19.1645 34.6369C19.8373 35.9344 21.2369 37.5841 23.1793 38.9048C25.1046 40.214 27.4522 41.125 30 41.125C32.5478 41.125 34.8954 40.214 36.8207 38.9048C38.7631 37.5841 40.1627 35.9344 40.8355 34.6369C41.3121 33.7176 42.4438 33.3588 43.3631 33.8355C44.2824 34.3121 44.6412 35.4438 44.1645 36.3631C43.1706 38.2799 41.3202 40.3802 38.9293 42.0059C36.5213 43.6432 33.4522 44.875 30 44.875C26.5478 44.875 23.4787 43.6432 21.0707 42.0059C18.6798 40.3802 16.8294 38.2799 15.8355 36.3631C15.3588 35.4438 15.7176 34.3121 16.6369 33.8355ZM22.5 23C23.8807 23 25 21.8807 25 20.5C25 19.1193 23.8807 18 22.5 18C21.1193 18 20 19.1193 20 20.5C20 21.8807 21.1193 23 22.5 23ZM37.5 23C38.8807 23 40 21.8807 40 20.5C40 19.1193 38.8807 18 37.5 18C36.1193 18 35 19.1193 35 20.5C35 21.8807 36.1193 23 37.5 23Z" fill="white"/>
</svg>
