<svg width="61" height="60" viewBox="0 0 61 60" fill="none" xmlns="http://www.w3.org/2000/svg">
<path fill-rule="evenodd" clip-rule="evenodd" d="M20.0895 10.689C23.3664 0.603673 37.6344 0.603673 40.9113 10.689C41.8748 13.6542 44.638 15.6618 47.7558 15.6618C58.3601 15.6618 62.7692 29.2315 54.1901 35.4645C51.6678 37.2971 50.6123 40.5455 51.5757 43.5107C54.8527 53.596 43.3096 61.9825 34.7305 55.7495C32.2082 53.9169 28.7926 53.9169 26.2703 55.7494C17.6912 61.9825 6.14815 53.596 9.42507 43.5107C10.3885 40.5455 9.33307 37.2971 6.81072 35.4645C-1.76836 29.2315 2.6407 15.6618 13.245 15.6618C16.3628 15.6618 19.126 13.6542 20.0895 10.689ZM37.2762 19.1135C36.944 18.1327 35.8795 17.607 34.8987 17.9392C33.918 18.2714 33.3922 19.3358 33.7244 20.3166C34.8022 23.4983 37.8589 25.5842 41.2315 25.5842C42.267 25.5842 43.1065 24.7447 43.1065 23.7092C43.1065 22.6736 42.267 21.8342 41.2315 21.8342C39.3828 21.8342 37.8119 20.6951 37.2762 19.1135Z" fill="white"/>
</svg>
