<svg width="1024" height="1024" viewBox="0 0 1024 1024" fill="none" xmlns="http://www.w3.org/2000/svg">
<g clip-path="url(#clip0_2870_8505)">
<path d="M0 512V0H512H1024V512V1024H512H0V512ZM461 944.4C466.5 942.9 467.8 942.8 472.4 944C478.7 945.7 507.7 945.6 515.9 943.9C520.1 943 522.6 943.1 526.4 944C531.6 945.2 548.6 944.3 560.5 942.1C563.3 941.6 574.5 940.9 585.5 940.5C596.5 940.1 608.2 939.2 611.5 938.4C617.4 937.1 631.4 935.4 646 934.3C650.1 934 654 933.4 654.5 933C655.9 932 663.5 930.4 676.5 928.4C687.7 926.7 697.3 924.1 704.5 920.9C706.7 919.9 709.8 919 711.4 919C714.5 919 721 916 727.9 911.4C730.3 909.8 733.5 907.8 734.9 906.9C736.3 906.1 738.1 904.2 738.9 902.8C740.2 900.5 740.1 900 738.1 897.1C735.4 893.4 732 891.5 726.1 890.5C723.1 890 721.6 889.2 721.3 887.9C721 886.9 719 885.4 716.6 884.5C708.6 881.5 696.4 878 690.5 876.9C687.2 876.3 682.6 875.2 680.3 874.5C678 873.8 671.9 872.4 666.7 871.4L657.3 869.6L656.6 832.6C656.3 812.2 655.7 789 655.4 781L654.8 766.5L659.9 764.7C662.6 763.6 666.3 761.5 667.9 759.8L670.9 756.8L685 758.3C697 759.5 700.2 759.6 706.8 758.4C714.8 757 726.7 751.8 732 747.4L735 744.8L731.3 742.1C720.4 734.1 716.7 727.3 716.2 714C715.7 702.5 716.3 700.6 728.9 670.7C733.8 659.1 739.3 644.7 741.1 638.9L744.5 628.3L758 620C784.2 603.9 796 596.6 823.3 579.1C830.3 574.7 836.2 571 836.4 571C836.6 571 842.8 567.2 850.1 562.5C857.5 557.9 866.9 552 871 549.4C894.1 535 901 530.4 901 529.5C901 528.6 893 508.7 877.5 471C872.1 457.8 862.8 433.6 857.9 419.7C857.2 417.7 856.2 416.1 855.8 416.2C855.4 416.4 848 423.1 839.3 431.1C830.6 439.1 820.6 448.1 817 451.1C805.1 461.1 780.7 481.5 768 491.9C761.1 497.6 754.4 503.1 753.1 504.2C751.8 505.4 744.8 510.7 737.6 516.1C727.3 524 723.9 526 721.3 526C718.3 526 718 525.7 718 523C718 521.4 717.5 517.7 716.9 514.8C711.9 490.4 700.6 469.9 683.7 455.1C671 443.9 659.8 438.1 643.3 434.1C635.6 432.2 633.4 431.1 629.1 427.5C626.3 425.1 623.6 423 623 422.8C622.5 422.7 621.7 420.4 621.4 417.9C620.9 414 621.2 412.7 623.4 409.3C626.6 404.5 637.7 377 641.3 365C646.3 348.5 648.2 336.4 648.8 319C650.3 268.5 634.8 227.8 601.1 193.9C564.8 157.6 527.6 140.2 477 135.9C440.3 132.8 393.4 141.5 356.5 158.2C326.1 172.1 296.8 198.3 276.6 229.9C252.7 267.1 244.5 310.2 254.4 346.5C258 359.5 267.6 375.7 280 389.5C281.6 391.4 283.5 395.6 285 400.9C287.2 408.8 287.3 409.7 286 418.7C284.6 429.1 285.1 440 287.6 456.5C291.9 484.3 310.8 512.6 336 528.9C351.6 539.1 361.9 543.3 385.5 549.3L394.5 551.5L394.8 555L395.1 558.6L385.8 562.5C374.7 567.1 349.7 579.4 342 584C328.5 592 312.6 607.5 303.1 621.9C289.7 642.3 276.9 681.6 269.5 724.5C268.6 729.5 267.5 735.5 267 738C266.5 740.5 265.9 744.2 265.5 746.2L264.9 749.9L271 752.1C276.8 754.2 277 754.4 277 757.9C277 761.8 275.9 782.6 273.4 823.5C272.5 837.8 271.6 853.6 271.4 858.5C271.1 863.5 270.7 868.9 270.4 870.6L270 873.7L257.7 873.6C247.9 873.5 243.8 873.9 236.5 875.8C229.3 877.7 225.9 878 219.7 877.6C212.9 877.1 211.8 877.3 211.3 878.8C210.9 879.7 208 883 204.8 886.1C199.5 891.2 198.5 891.8 192 892.9C186.3 893.9 184.6 894.7 182.5 897.2C181.1 898.8 180 900.6 180 901.2C180 903.4 184.9 908.5 188.6 910.4C190.8 911.5 194.5 913.6 197 915.1C199.5 916.7 204 918.4 207 919.1C210 919.7 213.8 920.9 215.4 921.7C221.2 924.7 240.4 927.9 249 927.3C256 926.8 257.5 927 259.8 928.7C263.5 931.4 267.1 932.5 277 934.4C290.3 936.8 297 937.1 297 935.4C297 934.6 297.6 934 298.4 934C299.1 934 300.5 932.9 301.4 931.5C303.4 928.5 306.5 928.3 313.5 930.7C318.2 932.4 322 935.1 322 936.8C322 937.7 326.9 940 329 940C329.9 940 331 940.4 331.6 941C332.1 941.5 339.5 942 348.5 942C362.7 942.1 373.5 943 382.3 944.9C383.9 945.2 400.8 945.6 420 945.8C450.7 946.1 455.6 945.9 461 944.4ZM806.8 671.3C805.8 671.1 804 671.1 802.8 671.3C801.5 671.5 802.3 671.7 804.5 671.7C806.7 671.8 807.7 671.6 806.8 671.3ZM790 670.4C781.8 669.6 770 669.6 770 670.3C770 670.7 775.3 670.9 781.8 670.8C788.2 670.7 791.9 670.5 790 670.4Z" fill="#FBF6F0"/>
<path d="M572.5 551.1C569.8 550.1 559.6 547.4 550 545C517 536.9 516.7 536.8 513.8 533.9C511.4 531.5 511 530.4 511.1 525.3V519.5L523.7 509.5C535.4 500.1 548.8 486.5 556.9 475.8C560 471.6 560.9 471 564.2 471C567.8 471 568 471.2 568.6 475C569 477.2 569.9 479.5 570.6 480.1C571.4 480.7 572 481.9 572 482.7C572 485.2 592 522.9 601.8 539C603 540.9 604 543.9 604 545.5C604 548.5 603.8 548.6 595.3 550.8C584.9 553.4 579.3 553.5 572.5 551.1Z" fill="#FBF6F0"/>
<path d="M560.2 919.2C559.3 918.6 558.8 912.3 558.5 895.4C558.2 882.8 557.5 853.2 557 829.7C556.4 806.2 556 784.3 556 781.1V775.3L573.8 774.7C591.5 774 611.7 772.3 637 769.4C660.7 766.7 661 766.7 661 767.9C661 768.5 660.3 769 659.5 769C658.2 769 658 770.9 658.5 782.8C659.3 805.5 660 833.5 660 850.8C660 863.8 660.3 867 661.4 867C663.3 867 664 873.5 664 890.5C664 904.5 664 904.8 661.8 905.3C660.5 905.5 655.2 906.7 650 907.8C630.1 912.2 596.4 917 568 919.5C564.4 919.8 560.9 919.7 560.2 919.2Z" fill="#FEBE81"/>
<path d="M301.5 911.9C280.3 908.6 265.5 905.8 264.1 904.6C263 903.7 262.9 900.4 263.5 886.5C263.9 877.2 264.4 869.3 264.6 869C264.9 868.8 265.5 869.2 266 870C266.6 871 267 870.4 267.4 867.9C267.8 864.9 269.3 842 269.2 838C269.2 837.2 269.6 832 270.1 826.5C270.5 821 271.4 806.4 272 794C272.5 781.6 273.3 768.3 273.6 764.4C274 758.5 273.8 757.1 272.6 756.7C271.7 756.3 271 755.5 271 754.9C271 753.5 277.7 754.1 291.5 756.9C297 758.1 307.3 759.9 314.4 761C321.5 762.1 327.5 763.2 327.8 763.4C328 763.7 327.4 780 326.5 799.7C325.6 819.4 324.5 844.1 324 854.5C323.5 865 322.6 882.6 321.9 893.8L320.7 914L317.1 913.9C315.1 913.8 308.1 912.9 301.5 911.9Z" fill="#FEBE81"/>
<path d="M587.3 666C585 665.5 581.8 664.4 580.1 663.6C576.9 661.9 570 655.3 570 653.8C570 653.4 567.8 654.1 565 655.5C561.3 657.3 558.5 658 554 658C542.5 658 536.9 653.3 536.2 642.8C535.8 637.4 535.6 637 533.3 637C528.9 637 524 633.9 522 629.9C520.5 627.1 520 624 520 618.5C520 609.8 522.1 604.4 526.9 600.9L529.8 598.8L527.3 596.5C525.2 594.8 524.6 593.2 524.2 588.9C523.6 581.3 525.4 575.6 530 570.6C535.2 564.9 550.8 556.5 564.5 551.8C574.3 548.4 576.1 548.1 578.9 549.1C581.7 550.1 583.8 549.9 591.5 547.9C599.6 545.9 600.7 545.4 600 543.9C598.7 541.6 602.9 541 622.3 541C636.1 541 674.4 544.4 685.1 546.6C688 547.2 693.9 542.6 710.8 526.8C715.4 522.5 719.5 519 720 519C720.5 519 721 519.9 721.2 521C721.5 522.8 723.4 521.7 734.6 513.2C741.8 507.7 748.8 502.4 750.1 501.2C751.4 500.1 758.1 494.6 765 488.9C780.8 475.9 798.9 460.8 810.5 451.1C815.5 446.9 828 435.7 838.3 426.1C848.7 416.5 857.5 409.1 857.9 409.6C858.4 410.1 861.3 417.7 864.5 426.5C867.7 435.3 873.1 449.5 876.5 458C887.2 484.4 899.7 515.1 903.3 523.6L906.7 531.8L894.1 539.7C887.2 544.1 878.1 549.8 874 552.4C869.9 554.9 860.5 560.9 853.1 565.5C845.8 570.2 839.6 574 839.4 574C839.2 574 833.3 577.7 826.3 582.1C799 599.6 787.3 606.9 760.9 623L747.4 631.4L745.5 637.7C743.3 644.8 741.8 646.8 735.8 650.6C729.8 654.4 721.8 656.9 710.1 658.5C695.8 660.5 682.7 660.4 666.2 658C650.2 655.7 646.3 656 626.5 660.9C613.1 664.3 598.1 667.1 594.1 666.9C592.7 666.8 589.6 666.4 587.3 666Z" fill="#FEBE81"/>
<path d="M425.5 617.6C404.3 612.1 392.3 595.6 390.4 569.4C390.1 564 389.3 559 388.8 558.3C388.2 557.5 388.6 556.9 390 556.5C393.3 555.4 391.4 554.4 381.5 552C359.5 546.5 348.6 542 333 531.9C307.6 515.4 287.8 485.6 284.4 458.5C284.1 456.3 283.5 452 283 449C282.1 443.4 282.3 416.2 283.3 412.4C284 409.8 279.9 395.6 277.7 393.2C275.4 390.7 273.6 372.3 274.4 360.6C275.2 350.5 277.2 339.2 279.8 330.8L281.5 325.1L292 320C308.5 311.9 323.6 302.3 344.4 286.6C361.3 273.8 381.4 256.3 393.3 244.1C403.8 233.3 405.4 232 408.4 232C411.7 232 412 232.3 415.6 239.7C428.4 266.4 451.1 290.2 480.4 307.5C492.1 314.4 508.3 321.8 519.4 325.4L529.5 328.7L531.1 338.6C533 350 536.5 360.1 542.3 371.4C546.3 379.1 551.9 386 554.2 386C556.3 386 561.9 379 563.5 374.2C567.1 363.3 576.2 351.4 585 346.2C589.1 343.7 590.4 343.5 600.5 343.5C610.5 343.5 612 343.8 616.7 346.3C619.6 347.8 623.5 350.4 625.5 352.1C633.1 358.8 639 370.8 639 379.8C639 383.6 631.2 404.2 627.2 411C624.6 415.4 624.2 418.9 626.2 420.1C627.5 421 624.3 425.9 618.2 432.4C607.7 443.5 597.8 450.2 585.6 454.5C579.2 456.8 578.3 457.8 569 473C566.5 477.1 565 478.1 565 475.5C565 472.9 563.6 473.8 559.9 478.8C551.8 489.5 538.4 503.1 526.7 512.5C512.1 524.1 511.3 525.7 517.6 531.7L521.3 535.1L520.7 544.8C519.7 560 516.1 570.5 507.2 583.8C503.1 589.9 495.6 599 494.7 599C494.5 599 492.1 601.2 489.2 604C483.4 609.5 475.3 614 466.4 616.5C458.5 618.7 432.5 619.4 425.5 617.6ZM457 561.7C460.6 560.3 464.6 558.9 466 558.5C469 557.6 483 550.9 488.5 547.8C492.6 545.4 506 535.2 506 534.4C506 534.1 503.2 535.4 499.8 537.3C471.7 552.1 447.4 558.7 420 559C407.9 559.1 407.6 559.1 411 560.6C418.8 564 425.3 565 438 564.6C448.5 564.3 451.6 563.8 457 561.7ZM399.3 491.3C396.9 491.1 393.1 491.1 390.8 491.3C388.4 491.5 390.3 491.7 395 491.7C399.7 491.7 401.6 491.5 399.3 491.3ZM367 443.8C366.9 439.7 366.7 438.9 365.9 440.2C365 441.8 365.6 449 366.6 449C366.8 449 367 446.6 367 443.8ZM338.7 424.2C339.4 423.8 340.9 421.2 342.1 418.6C345.5 410.9 343.5 400.1 337.6 393.7C334.1 390 331.8 390.2 329.3 394.8C324.7 403.2 326 414.7 332.5 421.6C335.9 425.1 336.7 425.5 338.7 424.2ZM453.6 423.2C456.7 421.2 459 415.3 459 409.4C459 399.4 452.4 388.8 447.2 390.4C444.8 391.2 440.4 399.3 439.7 404.3C438.9 409.4 441.5 417.7 445 421.2C447.8 423.9 451.3 424.8 453.6 423.2ZM463.8 362.3C463.5 359.8 462.9 359.5 453 357C447.2 355.6 441.2 353.8 439.5 353.2C437.9 352.5 434.1 351 431.2 349.8C428.3 348.7 424.2 346.5 422 344.9C417 341.3 416.9 342.1 421.6 346.5C429.2 353.7 440.5 359.4 454.5 363C464 365.5 464.2 365.5 463.8 362.3ZM334.3 356.5C339.8 354.9 345.2 351.9 349.3 348.2C353.9 343.9 352.3 343.7 346.9 348C339.2 354.1 333.7 356.2 324 356.8C317.9 357.2 316.2 357.6 318 358.1C321 359 327.8 358.4 334.3 356.5Z" fill="#FEBE81"/>
<path d="M422 924.9C393.2 923.4 367.2 920.9 334 916.5C314.3 913.8 315 914 315 911.9C315 910.8 315.5 910.3 316.4 910.6C317.9 911.2 318 910.3 321 849.5C322.3 823.4 324.9 770 325 767.8C325 766.5 323.4 765.9 317.8 765.1C291.2 761 269.4 756.3 263.9 753.4C261.3 752.1 261.1 751.5 261.6 748.7C261.9 746.9 262.5 743.3 263 740.5C273.9 677.9 284.8 642.2 300.1 618.9C309.6 604.5 325.5 589 339 581C351.7 573.4 386.2 557.3 393.4 555.4C395.6 554.9 396 555.1 396 556.9C396 558.2 395.4 559 394.4 559C393 559 392.9 560.1 393.5 567.7C396.2 600.5 415.5 617.6 447.3 615.7C464.8 614.6 476.8 610 486.2 601C489.1 598.2 491.5 596 491.7 596C492.6 596 500.1 586.9 504.2 580.8C513.5 566.9 517.1 556.2 517.3 541.9L517.5 532.4L522 534.1C524.5 535 531 536.8 536.5 537.9C549 540.6 567.5 545.4 575.9 548.2L582.3 550.3L574.4 552.6C557.3 557.5 539.5 566.5 533 573.6C526.8 580.3 525.5 589.4 530 593.5C531.6 594.9 532.3 595 533.4 594.1C534.5 593.1 535.3 593.2 536.9 594.2C539.4 595.7 539.3 597.9 536.5 599.4C524.4 606.1 519.9 617 525 626.9C527.4 631.7 533.7 635.2 535.2 632.6C535.7 631.7 537.2 631 538.5 631C540.5 631 541 631.5 541 633.5C541 634.9 540.5 636 539.9 636C539.1 636 538.9 637.6 539.2 640.9C540 649.4 546.1 655 554.2 655C556.1 655 561.1 653.1 566 650.5C573.8 646.3 574.6 646.1 575.8 647.7C576.9 649.2 576.7 649.6 574.9 650.2L572.8 651L574.9 653.6C578.9 658.7 583.8 661.7 590.5 662.9C595.9 663.9 604.9 662.5 625.5 657.5C641.6 653.6 650.7 652.5 658.4 653.4L663.7 654.1L664.3 660.8C664.6 664.5 666 675.2 667.5 684.5C673.9 726 677.5 762 675.1 760.6C674.3 760.1 672.7 760.9 670.9 762.8C666.2 767.6 655.7 770.9 639.6 772.6C609.7 775.8 593.9 777 576.8 777.7C562.9 778.2 559 778.6 559 779.7C559 781.2 558 781.3 554.7 780.1C552.9 779.4 552.1 778.2 551.6 775.1C551.3 772.9 550.3 770.5 549.5 769.6C548.7 768.8 548 767.7 548 767.2C548 766.7 546.9 765.9 545.5 765.6C544 765.2 542.8 764.1 542.6 762.7C542.3 761.5 541.9 748.6 541.7 734.1C541.3 709.6 541.1 707.6 539.4 706.3C537.7 705 537.5 705.2 537 708.2C536.5 710.7 538.4 775.6 538.9 776.8C539 776.9 541.3 777 544.1 777H549.2L548.8 781C548.6 783.8 548.8 785 549.7 785C550.4 785 551 785.5 551 786C551 786.6 552.8 787 554.9 787H558.8L559.4 801.3C559.7 809.1 560.2 828.1 560.5 843.5C561.9 915.8 562.1 918.3 565.2 916.4C565.6 916.1 566 916.7 566 917.8C566 919.4 564.7 919.8 556.8 920.9C526.1 924.9 459.6 926.9 422 924.9ZM331 744.4C331.6 737.3 332.3 725.7 332.6 718.5C332.8 711.4 333.5 703 334 700C335.4 691.7 336.2 679.1 335.2 681.5C334.3 683.6 333.2 692.8 330.5 723C329.7 732.6 328.5 744.1 328 748.5C327.4 752.9 327 757.6 327 759C327 761.4 327 761.4 328.5 759.4C329.4 758 330.3 752.5 331 744.4Z" fill="#87B58B"/>
<path d="M684 761.499C678.2 760.799 673.4 760.199 673.4 760.099C673.3 759.999 673 756.099 672.6 751.299C671.2 733.699 664.1 681.099 660.7 663.099C659.7 658.099 659.6 655.999 660.4 655.999C661 655.999 660.8 655.499 660 654.999C657.9 653.599 660.3 653.699 672.5 655.499C685.3 657.299 694.1 657.399 707.1 655.499C724.6 653.099 734.5 648.499 742.3 639.299C744.3 636.899 746 635.099 746 635.499C746 637.899 738.4 658.599 731.9 673.799C727.6 683.799 722.9 695.299 721.6 699.199C715.7 716.199 721.3 731.499 736.8 740.699C739.1 742.099 741 743.499 741 743.999C741 744.399 739.1 746.499 736.7 748.699C730.5 754.399 719 759.799 709.5 761.499C700.1 763.199 698 763.199 684 761.499Z" fill="#7F6180"/>
<path d="M664.5 547.4C643.9 544.7 611.4 543.2 605.9 544.8C601.8 545.9 601.2 545.6 598.7 541.8C590.7 529.2 569 488.2 569 485.7C569 484.9 568.3 483.7 567.5 483C564.8 480.8 565.9 479.2 571.3 477.5C574.1 476.5 578.6 474.5 581.3 472.9C583.9 471.3 586.4 470 586.9 470C588.1 470 605 454 605 452.9C605 452.3 605.8 451 606.9 449.9C607.9 448.8 612.3 440.9 616.6 432.4C621 423.8 624.6 417.5 624.8 418.4C625 419.3 625.5 420 626 420C626.5 420 629.2 422 632 424.4C636.4 428.2 638.6 429.2 646.3 431.1C662.8 435.1 674 440.9 686.7 452.1C703.6 466.9 714.9 487.4 719.9 511.8C721.9 521.7 721.7 522.3 713.8 529.9C709.8 533.6 703 539.7 698.7 543.4C689.4 551.2 691.5 550.9 664.5 547.4Z" fill="#7F6180"/>
<path d="M270 383.9C259 370.1 252.8 357 248.9 339.5C248.5 337.3 247.8 329.4 247.4 322C245.1 274.6 264 229.7 302.1 191.9C325.3 168.8 343.6 157.6 375.9 146.6C383.3 144 390.2 141.8 391.4 141.5C397.4 140 422 134.9 425 134.5C464.6 128.9 506 133 538.3 145.9C561.7 155.2 583.1 169.9 604.1 190.9C622.4 209.3 634 227.4 642.1 250.1C649.7 271.7 652.5 291.1 651.8 319C651.3 339.6 649.7 350.1 644.3 368C641.9 375.8 636.3 390.9 635.4 391.9C635.1 392.2 635.2 389.7 635.6 386.4C637 371.7 628.3 356.8 613.7 349.3C609.4 347 607.2 346.6 600.5 346.6C593.6 346.5 591.9 346.9 588 349.2C579.2 354.4 570.1 366.2 566.5 377.2C565.6 379.8 563.3 383.6 561.5 385.5C558.8 388.4 557.5 389 554.2 389C548.8 389 544.8 385.1 539.3 374.4C533.5 363.1 530 353 528.1 341.6L526.5 331.7L516.4 328.4C505.3 324.8 489.1 317.4 477.4 310.5C448.1 293.2 425.4 269.4 412.6 242.7C410.5 238.5 408.7 235 408.4 235C408.2 235 402.7 240.5 396.3 247.1C384.4 259.3 364.3 276.8 347.4 289.6C332.4 300.9 328.9 303.4 316 311.3C310.2 314.9 300.8 320.1 295 323L284.5 328.1L282.8 333.8C277.4 351.2 276.1 373.6 279.4 391.3C279.7 392.8 279.5 394 279 394C278.5 394 274.4 389.5 270 383.9Z" fill="#7F6180"/>
<path d="M451.5 366C447.6 365 441.5 363 438 361.6C418.3 353.6 404.3 336.5 415.1 333.7C416.6 333.3 417.4 333.8 418.2 335.6C419.7 338.8 428 344.4 436 347.5C439.6 348.9 443.4 350.5 444.5 351C445.6 351.5 450.8 352.9 456 354.1C466.6 356.6 468 357.3 468 360.4C467.9 361.5 468.1 363.6 468.2 365C468.5 367.3 468.2 367.5 463.5 367.7C460.8 367.8 455.3 367 451.5 366Z" fill="#7F6180"/>
<path d="M313.5 360.599C307.3 358.299 300.6 349.799 306.3 351.399C322.2 355.999 332.6 353.999 345.1 343.999C351.9 338.499 353.4 338.099 355 340.899C357.5 345.599 354.5 350.799 346.5 355.499C337 360.999 321.3 363.399 313.5 360.599Z" fill="#7F6180"/>
<path d="M383.5 948.8C376.4 946.8 365.3 945.7 348.1 945.5C336.5 945.3 329.4 944.8 328.7 944.1C328.1 943.5 326.8 943 325.9 943C324 943 318.9 940.5 318.9 939.6C319 938.7 315.1 935 314.2 935.2C313.8 935.2 311.9 934.6 310 933.7C306.6 932.1 306.5 932.1 304.5 934.5C303.3 935.9 301.8 937 301.1 937C300.3 937 300 937.6 300.4 938.6C301 940.1 300 940.1 290.8 939.5C281.3 938.8 266.2 936.2 261.5 934.4C260.4 934 258.7 933 257.7 932.1C256 930.7 248 929.8 248 931C248 932.9 218.1 927.6 212.4 924.7C210.8 923.9 207 922.7 204 922.1C201 921.4 196.5 919.7 194 918.1C191.5 916.6 187.7 914.5 185.6 913.4C181.4 911.3 176 904.8 176 901.8C176 898 181 891 183.7 891C184.5 891 185.9 890.3 186.8 889.4C187.7 888.4 188.6 888.2 188.8 888.8C189 889.4 190.5 889.6 192.5 889.3C194.9 888.9 197.8 887 202 883C205.3 879.8 208 876.7 208 876.1C208 873.7 212 872.9 217.8 874C223.1 875.1 224.7 874.9 234.2 872.6C240 871.1 246.2 870 248.1 870C250 870.1 254.7 869.9 258.7 869.6C267.7 869 267.5 868.6 266.5 887C266 897.8 266.1 900.8 267.2 901.7C271.1 904.7 358.3 917.2 395.5 920C434.3 923 484.3 923.7 505 921.6C507.5 921.3 517.8 920.6 528 920C538.2 919.4 549.4 918.5 553 918C564.1 916.4 566.2 916.1 575 915.5C579.7 915.1 583.7 914.7 584 914.5C584.3 914.3 588.1 913.9 592.4 913.5C596.8 913.2 600.6 912.7 600.9 912.6C601.2 912.4 604.2 911.9 607.5 911.6C616.4 910.6 636.2 907.2 647 904.8C652.2 903.7 657.6 902.5 658.9 902.2L661.2 901.7L660.7 884.4C660.2 869.4 660.3 867 661.6 867C663.6 867 677.4 869.8 683.5 871.5C686.3 872.2 691 873.4 694 874C700.8 875.3 718.6 880.8 722.2 882.6C723.8 883.4 724.9 884.6 724.7 885.3C724.6 886 725.5 886.5 726.8 886.4C728 886.4 729 886.8 729 887.3C729 887.8 729.7 887.9 730.5 887.6C732.8 886.8 739.4 891.3 741.9 895.4C743.8 898.4 744 899.4 743 902.8C742 906.6 740.7 908.3 737 910.5C736.1 911 733.3 912.8 730.9 914.4C724.2 918.9 717.5 922 714.6 922C713.1 922 709.4 923.1 706.2 924.4C696.4 928.4 683.2 931.6 668 933.4C663.3 934 658.7 935.1 657.5 936C657 936.4 653.1 937 649 937.3C634.7 938.4 620.5 940.1 614 941.5C610.4 942.2 600.8 943.1 592.5 943.5C565.8 944.5 562.6 944.8 558.3 945.9C550.3 948.1 528.6 948.9 524 947.2C522.6 946.7 520.1 946.7 518 947.2C512.1 948.7 476.2 949 471.6 947.6C468.3 946.6 466.6 946.6 463 947.7C459.4 948.8 451.4 949 424.5 948.7C405.8 948.4 389.6 948.6 388.5 949C387.4 949.4 385.2 949.3 383.5 948.8Z" fill="#E9E1F0"/>
<path d="M572.3 649.501C571.7 647.701 572.7 646.001 574.5 646.001C575.2 646.001 576 645.701 576.2 645.301C576.8 643.801 593.5 633.201 600.5 629.701C604.4 627.701 609.3 625.701 611.5 625.001C613.7 624.401 616.4 623.401 617.5 622.901C629.7 617.301 643.3 615.101 644.6 618.501C645.2 620.001 643.2 623.501 642.3 622.601C641.6 621.901 621.9 627.601 616.5 630.101C613.8 631.301 611.3 632.301 611 632.201C610.1 632.101 588.5 643.401 584.2 646.401C578.8 649.901 573.1 651.401 572.3 649.501Z" fill="#E79259"/>
<path d="M538 636.3C538 634.9 537.4 634 536.5 634C533.9 634 534.8 632.3 539.3 628.9C541.6 627 543.7 625.3 544 625C547.4 621.4 565.6 607.7 572.7 603.2C594.2 590 617.3 582.2 619.4 587.7C620.3 590 619.6 590.5 610.5 593.5C589.7 600.3 571.5 611 554.1 626.5C551.6 628.8 547.3 632 544.5 633.5C541.8 635.1 539.2 636.9 538.8 637.5C538.4 638 538 637.5 538 636.3Z" fill="#E79259"/>
<path d="M534.2 597.6L532 595.4L534.7 592.9C543.7 584.6 567.9 571.9 582.9 567.6C599.5 562.8 602.2 562.4 604.4 564.9C606.9 567.7 605.9 568.6 599.3 569.4C593 570.1 575.9 575.6 567 579.7C559 583.4 544.1 592.7 540 596.5L536.5 599.8L534.2 597.6Z" fill="#E79259"/>
<path d="M429 568.6C428.7 568.4 426.3 568 423.5 567.7C417.6 567.2 407.7 563.9 402.7 561C400.7 559.8 398.5 559 397.8 559.1C394.6 559.5 393 558.9 393 557.2C393 555.5 394 555.4 409.3 555.8C423.2 556.2 436 555.4 444.5 553.6C452.9 551.8 471.3 546.4 475.4 544.5C490.2 537.9 498.3 533.7 505.3 529.1C509.6 526.3 513.2 524 513.4 524C513.6 524 514 525 514.3 526.3C514.5 527.5 515.1 529.3 515.5 530.3C516 531.4 515.8 532 514.8 532C514 532 512.3 533.4 511 535C507.9 538.7 496.9 547.7 491.5 550.8C486 553.9 472 560.6 469 561.5C467.6 561.9 463.8 563.2 460.5 564.5C457.2 565.8 451.1 567.1 447 567.5C442.9 567.8 437.2 568.3 434.5 568.6C431.7 568.9 429.2 568.9 429 568.6Z" fill="#E79259"/>
<path d="M368 458.2C363.9 454.2 362 449.1 362 442.3C362 438.2 364.4 434.2 369.5 429.8C372.1 427.5 380.3 427.4 382.4 429.6C385.2 432.3 384.4 434 380.2 434C376.7 434 372.5 436 370.8 438.4C369.3 440.5 370 451.1 371.7 454.1C373.5 457.1 375.1 457.5 381.8 457.1C384.2 456.9 385 457.3 385 458.4C385 460.5 381.1 462 375.8 462C372.5 462 371.1 461.3 368 458.2Z" fill="#E79259"/>
<path d="M578 402.8C578 400.5 579 396.7 580.1 394.2C583 388.3 596.4 375 602.2 372.2C611.5 367.9 611.2 369.3 600.9 380.1C587.4 394.1 585.8 396.4 585.2 402C584.8 406.9 584.7 407 581.4 407C578.1 407 578 406.9 578 402.8Z" fill="#E79259"/>
<path d="M329.5 424.6C322.7 417.4 321.1 401 326.2 391.8C330.8 383.7 340.1 386.4 344.7 397C347.1 402.7 347.6 415.2 345.6 420.5C343.2 426.6 341.6 428 336.8 428C333.5 428 332.2 427.4 329.5 424.6Z" fill="#604A5D"/>
<path d="M444.2 426C439.1 422.8 436.5 416.3 436.6 406.5C436.7 398 438.7 392.2 443.2 388C448.1 383.5 455.3 386.8 459.5 395.5C461.9 400.3 462.3 402.4 462.3 409.4C462.3 416.2 461.9 418.4 460 421.8C456.5 428 450.2 429.7 444.2 426Z" fill="#604A5D"/>
<path d="M545.1 781.3C546.4 779.8 546.1 779.7 541.8 780.2C538.8 780.5 536.7 780.3 536.2 779.6C535.7 779 535.2 775.6 535.1 772C534.9 764.1 534.3 742.4 533.5 719.3C532.9 703 533 702.1 534.9 701.5C535.9 701.2 538.5 701.6 540.7 702.5L544.6 704.1L544.8 710.8C544.9 714.5 545 727.1 545 738.8C545.1 758.6 545.2 760.1 547.1 761.8C548.9 763.6 548.9 763.9 547.5 768C545.8 772.9 545.6 776 547 776C547.6 776 548 777.6 548 779.5C548 782.4 547.6 783 545.9 783C544 783 543.9 782.8 545.1 781.3Z" fill="#70917B"/>
<path d="M323.5 761.6C324 758.7 323.8 757 323 756.5C322.3 756 322.2 755.4 322.9 754.6C324.2 753.1 325.7 742.5 326.5 730.3C326.8 725.3 327.2 720.5 327.4 719.8C327.9 718.5 330.2 692.9 330.5 685.5C330.8 678.6 334.6 670.7 337.9 670.2C339.5 669.9 339.8 670.3 339.4 671.4C339 672.3 339.3 673 340 673C341 673 341 673.3 340 674.4C339.3 675.4 339 678.6 339.2 683.5C339.4 687.6 339.2 691 338.9 691C338.6 691 338 694 337.6 697.8C337.2 701.5 336.7 706.1 336.5 708C336.2 709.9 335.8 717.6 335.5 725C335 739 334.3 749.3 333.6 754.5C333.3 756.2 333.1 758.2 333.1 759.1C333 761.6 328 766 325.3 766C323 766 322.9 765.8 323.5 761.6Z" fill="#70917B"/>
<path d="M566.6 481.7C564.1 472.7 564.1 473 566.2 469.7C576.1 453.9 576.2 453.8 582.6 451.5C590.5 448.7 599.3 443.8 605.2 438.8C611.7 433.5 619.9 424.7 622.6 420.3C624.7 416.8 624.7 416.7 625.2 419.3C625.5 420.7 624.9 423.9 623.9 426.4C621.5 432.8 609.9 454 608.9 454C608.4 454 608 454.6 608 455.4C608 456.9 591.4 473 589.8 473C589.4 473 587.1 474.2 584.8 475.6C579 479.3 567 483.3 566.6 481.7Z" fill="#AD83B6"/>
<path d="M773.9 717.7C754.6 706 754.1 705.6 754 703.5C754 698.4 755.3 698.7 772.4 708.2C781.7 713.3 789.5 718.1 789.8 718.9C790.3 720.2 786.8 724 785 724C784.6 724 779.6 721.2 773.9 717.7Z" fill="#755584"/>
<path d="M782.8 674.3L767 673.9V669.9V665.8L773.2 666.4C776.7 666.7 787.5 667.2 797.3 667.6L815 668.3V670.7C815 673.8 811.6 675.1 804.2 674.8C801.1 674.7 791.4 674.4 782.8 674.3Z" fill="#755584"/>
<path d="M426 503.9C411.6 497.4 406.3 495.7 398.4 495.2C388.5 494.7 382 496.5 375.9 501.6C373.7 503.5 371.4 505 370.9 505C370.4 505 370 503.2 370 501.1C370 497.7 370.6 496.6 374 493.7C379.3 489.2 384.7 487.7 395.5 487.8C406.1 487.9 417 490.5 425.9 494.9C431.8 497.9 432 498.1 432 502C432 504.2 431.7 506 431.3 506C430.8 506 428.5 505 426 503.9Z" fill="#D87759"/>
<path d="M558 792.8C558 790.5 557.7 789.9 557.1 790.9C556.6 791.6 555.8 792 555.2 791.6C554.6 791.3 554 791.4 553.8 792C553.7 792.5 552.4 792.7 551.2 792.3C549.4 791.9 549.2 791.5 550.2 790.9C551.2 790.2 551.1 790 549.8 790C548.8 790 548 789.6 548 789C548 788.5 547.3 788 546.5 788C545.7 788 545 787.5 545 786.9C545 786.3 544.2 786.1 543.1 786.5C542 786.8 540.9 786.6 540.5 786C540.2 785.5 540.5 785 541.3 785C543 785 546.2 780.6 545.3 779.6C544.9 779.3 543.9 779 542.9 779C541.4 779 541.2 778.6 542 776.6C542.6 775 542.5 773.9 541.7 773.1C540.9 772.3 540.8 771.7 541.6 771.2C543.5 770 544.1 767 542.5 767C541.7 767 541 766.6 541 766C541 765.5 541.9 765 543 765C544.1 765 545 764.3 545 763.5C545 761.3 550.2 762 550.8 764.3C551 765.3 551.8 765.9 552.5 765.6C553.3 765.3 553.8 766.1 553.8 767.7C553.8 769.1 554.3 770.6 555 771C555.8 771.5 556 772.7 555.7 774C555.3 775.6 555.6 776.4 557.1 776.7C558.8 777.2 559 778.2 559 786.6C559 791.8 558.8 796 558.5 796C558.2 796 558 794.5 558 792.8Z" fill="#7DA985"/>
</g>
<defs>
<clipPath id="clip0_2870_8505">
<rect width="1024" height="1024" fill="white"/>
</clipPath>
</defs>
</svg>
