<?xml version="1.0" encoding="UTF-8"?>
<svg version="1.1" viewBox="0 0 2000 2000" width="1280" height="1280" xmlns="http://www.w3.org/2000/svg">
<path transform="translate(346,698)" d="m0 0h25l13 4 11 6 18 13 14 10 16 12 10 8 13 11 9 9 8 14 7 19 4 16 3 25 3 26 6 23 9 21 11 19 14 22 16 27v2l66 8 98 11 70 7h23l28-3-9-36-1-6v-16l3-10 7-10 8-7 21-10 18-7 15-4 8-1h9l12 2 9 5 6 5 7 11 10 26 14 40 18 52 6 21 1 16 35 2 16 2 10 4 9 8 5 10 2 15 1 103-7 2-30 2-10 1-4 16-5 14-7 11-8 9-11 7-10 4-14 3-8 1h-29l-24-4-20-7-16-9-13-10-16-16-9-11-26-26-6-1-13 5-10 7-6 5-9 11-12 14-11 8-10 4h-16l-11-4-13-7-14-10-11-9-10-7-191-1-2-6-1-7-1-29v-48l1-18 2-11 6-12 7-6 13-5 19-2 29-1 10-1-4-10-12-22-9-16-5-8-12-4-10-6-10-9-10-13-11-16-12-17-8-15-6-16-10-38-7-31-1-6-5 4-10 15-8 14-13 25-7 10 1 7 16 45 10 31 10 40 4 27 2 37v62l-1 30-2 14-5 12-6 8-9 8-8 3-6 1h-9l-10-2-9-4-8-6-7-10-3-11-1-13-1-36v-43l1-33-3-17-5-16-7-17-16-36h-2l-4 11-12 38-5 18-8 19-9 16-10 13-11 12-15 16-8 8-7 8-14 14-1 2h-2l-2 4-24 24-10 7-9 4-11 2-13-1-10-4-9-6-6-8-5-10-2-10v-8l3-12 6-11 9-10 7-8 18-20 35-35 9-12 6-12 4-14 4-24 8-51 7-40 6-23 8-20 8-17 13-22 13-20 13-19 7-11h-16l-18 2-11 4-11 6-11 8-10 9-8 7-12 11-13 10-15 9-12 4h-14l-9-3-10-9-5-8-3-7v-18l6-12 9-10 14-12 13-12 11-9 17-14 17-12 14-8 10-4 18-5 42-8zm7 15-50 8-70 12-15 4-12 7-11 9-16 13-13 11-10 8-14 12-10 9-6 7-3 7v7l3 7 7 8 8 3 10-1 10-5 18-14 16-13 12-11 13-13 14-9 14-5 10-2 11-1 49-2h11l12 3 3 3v4l-11 3-26 5-3 3-16 27-9 15-16 26-10 16-8 15-8 21-5 20-11 67-9 54-4 11-6 10-22 24-21 21-7 8-9 9-7 8-9 10-6 9-3 10v9l3 9 5 6 9 6 6 2h11l12-6 23-23 7-8 15-15 7-8 17-17 7-8 10-10 11-15 7-12 8-20 19-65 16-53 6-12 1-1 7-1-6 36-2 10 1 5 10 16 12 25 7 22 5 23 3 27 1 15v93l2 10 4 8 8 8 8 3h13l10-5 7-8 3-9 1-7 1-21v-74l-3-39-6-37-6-25-7-23-11-27-8-19-3-14 2-13 6-12 10-15 15-24 15-25 8-14v-2l8 4 6 15 8 36 8 44 4 11 6 11 14 22 12 17 12 16 6 7 8 5 7-1 8-7 6-10-1-7-11-18-10-15-14-23-8-16-5-16-3-17-8-58-3-12-9-17-11-13-15-15-14-11-19-14-16-12-12-7-11-3zm567 204-18 3-25 7-13 5-9 6-7 8-3 10v7l4 13 5 9h4l6-7 10-17 6-7 9-5 5-1-12 25-13 23-12 20-9 3-61 14-12 5-4 5-1 7 3 7 4 4 3 1h8l75-19 9-4 8-6 8-9 8-13 16-27 7-10 1-3 4-2 8-3v7l-5 12-7 14-12 19-13 21-3 5v3l11 9 13 11 15 9 12 5 3 1h19l15-4 5-3 1-2v-14l-9-29-18-52-14-39-7-14-7-6zm-368 85-12 14 2 5 15 26 17 28 12 20 11 17 8 12 11 16 12 16 13 17 11 13 9 11 10 10 7 8 10 9 16 12 13 8 6 3 10 1 10-5 10-10 11-14 13-14 13-9 10-4 8-1 9 2 10 5 10 9 7 7 9 11 9 10 7 8 10 10 14 10 16 8 13 4 12 2h29l20-4 11-4 10-7 6-7 4-9 1-5v-14l-5-19-8-20-8-15-12-18-9-12-11-13-11-12-14-14-8-7-17-14-16-12-19-13-7-1-50 13-21 5-12 2h-9l-10-3-8-7-4-9v-18l5-14v-2l-113-12-91-10zm-43 95-13 2-6 4-4 6-2 7-1 10v23l1 19h130l-4-7-34-51-8-11-2-2zm449 1 6 8 8 9 11 14 13 16 13 17 4 5 2 1h48l1-1v-51l-3-10-6-6-3-1-11-1zm64 89 1 6 9 17 4 1 27-2 1-4-2-17-1-1zm-538 1v14l1 7h159v-3l-11-16-2-2z" />
<path transform="translate(1452,565)" d="m0 0h11l8 4 4 5 3 8-2 10-11 23-27 54-9 19-31 62-11 23-19 38-9 19-39 78-11 23-23 46-9 19-9 17-11 23-17 34-11 23-21 42-10 21-36 72-11 23-21 42-9 19-9 17-11 23-19 38-11 23-19 38-11 23-9 17-11 23-16 32-4 5-6 3h-8l-7-3-5-5-4-7v-8l5-12 22-44 11-23 22-44 11-23 35-70 11-23 19-38 10-21 38-76 11-23 21-42 11-23 37-74 11-23 17-34 11-23 29-58 9-19 31-62 11-23 23-46 9-19 9-17 11-23 17-34 11-23 10-19 4-5z" />
<path transform="translate(1437,1153)" d="m0 0 7 2 8 6 5 5-24 7-18 8-16 10-11 9-6 5-7 8-8 9-11 16-9 16-8 16-9 23-7 21-12 44-11 40-15 57v11l2 5 9 3h45l4-11 30-90 4-7 5-1 9 4-1 10-14 43-17 51v1l305 1-20-61-12-37v-5l4-5 5-2 4 1 5 8 32 96 1 4h47l9-3 5-5v-7l-10-33-22-70-9-28-1-4v-7l6-10 4-6 2 1 18 55 20 64 9 30 1 4v14l-5 10-4 5-10 6-8 2-10 1h-423l-15-2-9-4-8-7-4-6-2-6v-14l26-97 14-51 8-24 10-24 12-23 14-21 11-13 9-10 8-7 13-10 17-10 15-7z" />
<path transform="translate(1695,1073)" d="m0 0 6 2 5 5-3 10-15 28-13 23-5 6-3 2-25 4-11 5-10 7-9 8-7 8-7 7-14 9-10 6-16 8-3 1v6l3 4 8-1 27-11 9-3 9 1 5 4v8l-7 14-9 14-28 44-4 7v4l7 1 6-8 14-22 12-19 13-21 6-6 6 1 7 6-2 6-8 14-9 14-36 57-6 10-1 4 1 2h5l7-10 10-16 14-22 24-38 8-12 7-1 6 3 1 1v7l-5 10-14 22-9 14-12 19-8 13-1 6v2l4 1 5-5 7-10 16-26 10-16 11-18 5-7 3-2 5 1 6 4 1 5-6 11-11 18-14 22-1 6 2 2 4-1 16-24 10-16 11-17 12-19 8-16 3-11 1-7v-15l-2-12v-6l7-11 14-18 13-18 10-13 7-8 2-2 7 1 6 6-1 5-13 18-14 18-14 19-4 6v35l-4 16-5 13-7 13-11 17-13 20-7 11-11 17-10 13-7 4h-11l-12-4-2 5-9 11-4 3-7 2-10-1-7-4h-5l-10 5-7 1-9-3-7-6-4-9 1-9 4-11-1-4-6-4-5-7-1-3v-11l7-14 12-19 11-17 7-12-15 6-9 2h-7l-8-3-5-4-5-8-2-7 1-10 5-8 7-6 16-8 16-9 13-12 7-8 7-7 15-10 16-6 18-3 5-5 12-23 13-23 4-6z" />
<path transform="translate(919,752)" d="m0 0h9l9 2 10 6 6 5 7 10 6 14 7 23 6 8 10 7-3 5-10 9-12 6-12 1-11-3-16-8-13-8-5-3 1 2 1 18-2 19-4 13-9 13-10 8-10 5-9 3-6 1h-17l-12-3-15-8-14-11-10-10-1-2-3-1v15l-3 12-6 12-10 10-10 6-14 5-6 2h-5l-3-7-10-37-5-21v-18l4-11 6-9 9-6 11-4h18l15 4 12 5 9-16 9-11 12-9 11-5 15-3h13l13 1 12-14 7-8 8-7 10-5zm5 14-16 8-9 7-4 6-1 4v7l5 5 17 11 20 13 6 3 11 1 7-2-1-5-5-12-7-24-6-12-9-8-5-2zm-82 38-12 3-11 8-7 8-6 12-1 5v12l3 12 6 11 5 6 8 6 8 4 7 2h11l13-4 10-6 6-5 7-10 4-10 1-5v-13l-4-12-7-10-7-6-10-5-7-2-8-1zm-91 35-12 6-9 8-1 3v12l4 12 13 25 3 6 3 1 10-8 6-12 5-24 5-10 3-5-7-7-12-7z" />
<path transform="translate(1504,951)" d="m0 0h24l16 3 16 6 16 9 11 9 10 10 10 14 8 17 5 17 1 7v27l-3 16-5 13-7 14-9 12-4 5-16 14-14 8-14 6-17 4-7 1h-18l-14-2-16-5-12-5-14-9-12-11-8-9-9-14-7-16-4-14-1-6v-31l4-17 7-16 7-12 9-11 10-10 13-9 15-8 16-5zm4 17-20 4-14 6-12 8-10 9-9 10-8 14-6 16-2 11v21l5 21 8 16 10 13 7 7 13 9 14 7 14 4 6 1h23l17-4 14-6 13-9 11-10 10-14 6-12 4-13 2-12v-15l-3-17-5-14-7-12-9-11-7-7-13-9-15-7-15-4-8-1z" />
<path transform="translate(463,588)" d="m0 0h14l12 2 12 5 9 6 10 9 9 14 5 15 1 8v10l-2 12-5 12-6 10-8 9-10 7-10 5-15 4h-20l-12-3-12-6-10-8-6-7-6-10-5-13-2-9v-17l4-15 7-14 9-10 7-6 14-7zm-3 15-12 4-10 7-9 9-7 14-2 8v15l4 13 7 10 8 8 10 6 11 4h19l10-3 9-5 10-9 7-10 4-12v-21l-4-11-7-11-9-8-12-6-7-2z" />
<path transform="translate(1507,1069)" d="m0 0h19l9 4 8 6 9 14 6 16v5l-5 4h-5l-4-6-5-13-6-10-5-4-9-3-10 1-10 4-10 8-8 9-5 6-6-1-4-4 1-5 11-14 9-8 9-5z" />
<path transform="translate(1976,997)" d="m0 0h20v39l-1 11-1 1-19-1v-48z" />
<path transform="translate(1982,923)" d="m0 0h11l3 28v22l-8 1h-12l-1-1-2-49z" />
<path transform="translate(948,1975)" d="m0 0h32l17 1 1 1v19h-38l-4-1-8 1-1-8z" />
<path transform="translate(1775,376)" d="m0 0 5 1 10 13 14 18 4 6v3l-9 6-5 4-4-2-11-15-11-14-5-7 1-4 10-8z" />
<path transform="translate(247,1626)" d="m0 0h2l9 11 10 11 7 8 6 7-13 13-4-1-13-14-18-22 1-3 9-7z" />
<path transform="translate(296,1680)" d="m0 0 4 2 7 8 8 8 16 14 1 4-12 13-4-2-6-5v-2l-4-2-23-23 2-4z" />
<path transform="translate(249,337)" d="m0 0 4 2 8 7 4 4-13 15-18 22-2 1-14-11-1-2 9-11 12-14z" />
<path transform="translate(1495,134)" d="m0 0 6 1 28 17 10 7-1 4-8 13-6-2-17-11-20-12 1-5 5-8z" />
<path transform="translate(405,1777)" d="m0 0 5 2 13 10 16 11 7 5-1 4-8 13-4-1-16-11-18-13-4-3 1-4z" />
<path transform="translate(1607,1762)" d="m0 0 5 5 8 10-5 5-16 13-18 13-4-2-9-13 5-5 15-11 16-13z" />
<path transform="translate(349,1731)" d="m0 0 4 2 14 12 16 13 4 3-1 5-8 10-1 2-5-2-14-12-11-9-10-9 3-5z" />
<path transform="translate(124,1444)" d="m0 0 4 1 18 33 4 7v3l-15 9-3-1-16-29-7-15z" />
<path transform="translate(1618,218)" d="m0 0 5 1 14 12 11 9 10 9-2 4-9 11-4-1-14-12-13-11-9-7 6-8z" />
<path transform="translate(161,1507)" d="m0 0 5 5 14 22 9 14-1 3-11 7-4 2-7-9-20-32v-3l14-8z" />
<path transform="translate(1859,499)" d="m0 0h4l13 24 10 18-1 3-16 8-6-9-12-23-6-10v-3z" />
<path transform="translate(1051,1974)" d="m0 0h20l2 18-1 1-7 1-34 2h-9l-1-7v-13l1-1z" />
<path transform="translate(465,1820)" d="m0 0 5 1 18 11 17 10 4 4-9 16-6-2-17-10-17-11-4-3 2-5z" />
<path transform="translate(1878,1423)" d="m0 0 7 1 12 6-2 6-18 36-2 3-5-1-13-7 1-4 19-38z" />
<path transform="translate(93,1377)" d="m0 0h3l16 35 4 8v3l-16 8-3-1-17-38-2-5v-3l14-6z" />
<path transform="translate(1894,565)" d="m0 0h4l15 33 5 13-16 7-4-2-14-31-5-11v-2z" />
<path transform="translate(1727,319)" d="m0 0 4 1 11 12 7 8 9 10 4 5-1 4-9 7-3 3-4-2-11-12-9-11-9-9-1-4 7-7z" />
<path transform="translate(415,187)" d="m0 0 5 5 7 9-2 4-19 14-16 13-3 1-11-13v-4l26-20z" />
<path transform="translate(1558,174)" d="m0 0 5 1 19 13 17 12 1 4-10 14-8-4-16-12-17-12 1-4z" />
<path transform="translate(16,1021)" d="m0 0 4 1 2 38v11l-6 1h-14l-2-21v-29z" />
<path transform="translate(59,656)" d="m0 0 9 2 10 4-2 9-13 38-2 1-17-6 1-7 12-35z" />
<path transform="translate(120,520)" d="m0 0 5 1 13 7-1 5-9 17-11 23-5-1-14-7 2-6 11-20z" />
<path transform="translate(1821,435)" d="m0 0 5 5 13 20 10 16v3l-12 7-4 2-6-8-21-33 1-3 10-6z"/>
<path transform="translate(945)" d="m0 0h29v19l-2 1-38 2h-9l-2-6v-13l16-2z" />
<path transform="translate(202,1568)" d="m0 0 3 1 7 11 11 14 8 10 2 4-14 12-4-2-20-26-8-12 5-5z" />
<path transform="translate(1844,1487)" d="m0 0 6 2 11 6v4l-10 18-11 17-3 5-5-1-11-7-2-1 2-5 12-19 9-16z" />
<path transform="translate(300,283)" d="m0 0 4 2 11 11-1 3-8 7-14 15-10 11-4-1-7-7-5-4 2-4 13-13 7-8z" />
<path transform="translate(1675,266)" d="m0 0 4 2 7 7 8 7 18 18-1 4-10 9-3 2-6-5-7-8-13-12-9-9 2-4 7-7z" />
<path transform="translate(476,146)" d="m0 0 4 1 5 10 3 3-2 4-20 13-18 12h-3l-7-11-3-5 11-8 16-10z" />
<path transform="translate(528,1857)" d="m0 0 5 1 19 10 20 10 1 4-5 9-2 6-5-1-15-8-16-8-9-5-1-3z" />
<path transform="translate(1548,1806)" d="m0 0 3 1 6 10 3 3v3l-25 16-16 10-4-2-6-10-2-4 11-8 18-11z" />
<path transform="translate(1662,1715)" d="m0 0 4 2 6 7 4 3-1 4-7 7-7 6h-2v2l-11 9-9 8-5-5-8-10 6-7 11-9 12-11z" />
<path transform="translate(1761,1608)" d="m0 0 4 1 12 9v3l-10 13-12 14-9 10-4-2-11-9 1-4 9-10 18-22z" />
<path transform="translate(159,456)" d="m0 0 4 1 11 7 2 1-2 6-11 17-11 19-4 1-14-8-1-2 13-22z" />
<path transform="translate(355,233)" d="m0 0 4 2 10 11-1 4-13 11-15 13-6 6-4-1-7-7-4-5 2-4 10-9 11-9z" />
<path transform="translate(1713,1663)" d="m0 0 4 1 12 12-9 11-14 14-5 6-6 5-4-2-11-11 1-3 8-7 15-15 7-8z" />
<path transform="translate(1908,1355)" d="m0 0 10 3 9 4-9 24-9 21-3 2-17-8 2-6 8-18 8-21z" />
<path transform="translate(1951,1215)" d="m0 0 12 2 7 2-1 10-9 36-1 3-8-1-11-3-1-2 9-35z" />
<path transform="translate(201,395)" d="m0 0 4 1 10 7 3 3-7 11-13 18-8 11h-3l-10-7-4-3 2-5 10-13 13-19z" />
<path transform="translate(542,109)" d="m0 0 3 2 3 8 4 6v2l-28 15-13 8-4-1-8-13 1-4 21-12z" />
<path transform="translate(997)" d="m0 0h51v12l-1 8-1 1-38-1-11-1z" />
<path transform="translate(87,587)" d="m0 0 5 1 13 5 1 3-11 25-7 18-4 1-15-6 1-6 11-27z" />
<path transform="translate(1950,703)" d="m0 0 3 2 8 30 4 14v3l-17 5h-2l-5-16-8-29v-4z" />
<path transform="translate(1924,633)" d="m0 0 4 1 16 44-1 3-14 5-5-1-10-29-5-13v-4z" />
<path transform="translate(1429,99)" d="m0 0 6 1 38 19 2 2-1 4-7 14-19-9-19-10-7-4 2-6z" />
<path transform="translate(593,1890)" d="m0 0 7 1 23 10 17 7-1 6-5 12-2 1-29-12-15-7-1-4 5-11z" />
<path transform="translate(1805,1549)" d="m0 0 4 1 12 8v4l-15 22-8 11-4 5-5-1-11-9 1-4 12-17 10-14z" />
<path transform="translate(1933,1286)" d="m0 0 12 3 6 2-1 7-13 40-4 2-15-6-1-4 12-34 3-9z" />
<path transform="translate(608,78)" d="m0 0h4l5 13 1 4-4 3-33 15-8 3-3-5-6-12 3-3 18-8z" />
<path transform="translate(67,1309)" d="m0 0 4 1 10 29 6 14-1 3-14 6h-4l-8-20-8-24v-4z" />
<path transform="translate(1973,1071)" d="m0 0h11l9 1-1 18-3 27-2 6-19-3 1-13z" />
<path transform="translate(1291,44)" d="m0 0 6 1 36 12 7 3-6 18-6-1-41-14-1-4z" />
<path transform="translate(1419,1880)" d="m0 0h5l5 12 2 5-14 7-20 9-12 5-8-16 1-3 19-9z" />
<path transform="translate(1485,1845)" d="m0 0 4 1 8 16-17 10-20 11-6 3-3-1-7-14 1-4 25-13z" />
<path transform="translate(0,947)" d="m0 0 20 1 1 1-1 39-1 9-1 1h-18z" />
<path transform="translate(19,799)" d="m0 0 17 3 3 2-5 29-4 19-17-2-2-1 1-13z" />
<path transform="translate(1361,69)" d="m0 0 7 1 26 11 14 7-1 5-6 13-6-2-40-17 1-5z" />
<path transform="translate(731,1940)" d="m0 0 9 1 39 10 1 4-4 16-10-2-32-8-7-3 1-7z" />
<path transform="translate(663,1917)" d="m0 0 37 12 9 4-2 10-3 8-2 1-40-14-6-2 1-6 4-11z" />
<path transform="translate(45,1239)" d="m0 0h5l12 43 1 4-10 4-9 2-3-7-11-40v-2z" />
<path transform="translate(1965,1144)" d="m0 0 16 1 4 2-7 41-2 8-8-1-11-3 1-12 6-34z" />
<path transform="translate(37,727)" d="m0 0 18 4 1 3-8 30-4 16-8-1-11-3 1-9 9-36z" />
<path transform="translate(1352,1909)" d="m0 0h4l6 14v4l-20 8-23 8h-5l-5-14 1-5 32-11z" />
<path transform="translate(30,1167)" d="m0 0h4l3 13 6 29 1 7-13 3h-7l-5-22-4-23v-4z" />
<path transform="translate(1978,849)" d="m0 0h7l6 46-1 4-18 2-2-6-5-40 1-4z" />
<path transform="translate(677,52)" d="m0 0h4l5 14-1 5-29 10-14 6-3-1-6-14v-4l26-10z" />
<path transform="translate(803,1957)" d="m0 0 10 1 35 6 4 2-2 18h-8l-39-7-4-2 2-11z" />
<path transform="translate(22,1094)" d="m0 0 2 1 2 11 4 31v7l-15 3h-4l-2-9-4-33v-9z" />
<path transform="translate(7,873)" d="m0 0 14 1 6 2-4 45-1 4-18-1-2-3 4-40z" />
<path transform="translate(1965,776)" d="m0 0h6l4 16 5 27v6l-14 3h-5l-2-8-7-36 1-5z" />
<path transform="translate(750,30)" d="m0 0h2l5 18-5 3-39 11-5-1-5-15 1-3z" />
<path transform="translate(1146,11)" d="m0 0 11 1 34 6 5 2-2 13-2 6-12-2-33-6-4-2 2-16z" />
<path transform="translate(1219,25)" d="m0 0 9 1 32 8 8 3-2 11-3 8-48-12 1-7z" />
<path transform="translate(1283,1933)" d="m0 0h4l5 16-1 3-34 10-11 3h-3l-5-18 9-4z" />
<path transform="translate(1073,2)" d="m0 0 41 4 7 1 1 1-1 17-1 2-45-4-5-2 2-18z" />
<path transform="translate(1140,1965)" d="m0 0 4 1 3 15v3l-9 2-38 5-4-1-2-14v-5z" />
<path transform="translate(1211,1952)" d="m0 0h5l2 7 2 11-9 3-25 5-16 2-3-14v-5z" />
<path transform="translate(821,15)" d="m0 0h4l3 13v6l-8 2-30 6-4 1h-7l-3-12v-7l29-6z" />
<path transform="translate(892,5)" d="m0 0h7l2 13v5l-6 2-38 5h-5l-2-6-2-12 4-2z" />
<path transform="translate(876,1968)" d="m0 0 48 5 1 4-1 15-2 1-42-4-7-2 1-13z" />
</svg>
