<svg width="25" height="25" viewBox="0 0 25 25" fill="none" xmlns="http://www.w3.org/2000/svg">
<path fill-rule="evenodd" clip-rule="evenodd" d="M14.0578 6.03423C13.1873 5.19887 11.8127 5.19887 10.9422 6.03423L6.31574 10.4736C6.20239 10.5823 6.12614 10.724 6.0978 10.8785C5.54367 13.9004 5.50277 16.994 5.97681 20.0295L6.08933 20.75H9.06579V14.5387C9.06579 14.1244 9.40158 13.7887 9.81579 13.7887H15.1842C15.5984 13.7887 15.9342 14.1244 15.9342 14.5387V20.75H18.9107L19.0232 20.0295C19.4972 16.994 19.4563 13.9004 18.9022 10.8785C18.8739 10.724 18.7976 10.5823 18.6843 10.4736L14.0578 6.03423ZM9.90363 4.95191C11.3546 3.55965 13.6454 3.55965 15.0964 4.95191L19.7228 9.39125C20.0634 9.71804 20.2925 10.1437 20.3776 10.608C20.9621 13.7956 21.0053 17.059 20.5052 20.2609L20.3245 21.4184C20.2497 21.8971 19.8374 22.25 19.3529 22.25H15.1842C14.77 22.25 14.4342 21.9142 14.4342 21.5V15.2887H10.5658V21.5C10.5658 21.9142 10.23 22.25 9.81579 22.25H5.64706C5.16258 22.25 4.75029 21.8971 4.67554 21.4184L4.49478 20.2609C3.99473 17.059 4.03788 13.7956 4.62241 10.608C4.70754 10.1437 4.93662 9.71804 5.27719 9.39125L9.90363 4.95191Z" fill="#5A4BB2"/>
</svg>
