<svg width="541" height="500" viewBox="0 0 541 500" fill="none" xmlns="http://www.w3.org/2000/svg">
<g clip-path="url(#clip0_2858_8263)">
<path d="M12.7428 491.311C9.30294 487.881 5.47216 483.003 3.98676 480.259C1.40685 475.457 1.32867 475.229 0.937771 463.491C0.703233 456.936 0.546875 450.762 0.546875 449.695C0.546875 448.628 0.625054 429.268 0.703233 406.631C0.781413 383.994 0.859592 290.32 0.781413 198.399C0.703233 14.939 0.390517 26.8293 5.23763 18.064C7.66118 13.8719 13.7592 8.00304 18.7626 5.1067C26.2678 0.838402 22.5152 0.990841 131.732 0.838402C209.833 0.685963 439.758 0.762183 453.048 0.914622C454.377 0.914622 466.495 0.914622 480.02 0.914622C508.164 0.838402 513.95 1.29572 519.735 4.03962C528.882 8.38413 534.433 14.1768 537.638 22.7134L538.407 24.7229C539.191 26.7705 539.594 28.944 539.596 31.1364L539.827 234.909C539.905 348.78 540.218 442.226 540.452 442.607C540.687 442.988 540.452 450.534 539.905 459.299C538.967 474.695 538.811 475.534 536.465 480.488C532.947 487.805 522.002 497.866 519.891 495.655C519.579 495.351 518.875 492.149 518.406 488.567C517.859 484.985 516.842 477.668 515.982 472.18C515.122 466.768 513.95 458.003 513.246 452.744C510.119 428.963 506.132 417.454 496.359 404.04C491.669 397.485 481.974 387.424 475.72 382.546C472.202 379.802 471.42 378.811 471.42 376.829C471.42 374.619 471.733 374.39 478.065 372.027C492.919 366.387 504.099 357.546 509.103 347.561C516.06 333.537 515.67 321.951 507.304 299.39C500.581 280.945 499.721 277.21 497.61 255.564C495.343 232.469 494.014 223.399 491.356 211.966C484.32 181.707 467.511 157.317 445.386 145.274C438.585 141.54 427.953 138.262 418.258 136.89C413.724 136.204 407.157 134.832 403.561 133.765C390.505 129.954 378.7 130.64 360.797 136.204C335.857 143.979 316.704 156.555 300.051 176.067C292.624 184.756 288.403 192.683 285.666 203.125C283.946 209.68 283.712 212.348 283.712 222.561C283.712 229.04 284.103 238.643 284.65 243.902L285.216 249.652C285.462 252.143 285.185 254.658 284.403 257.036L283.008 261.28C281.601 265.549 280.037 269.588 279.568 270.122C278.943 270.884 274.956 271.265 264.167 271.646L252.871 272.061C251.013 272.129 249.392 270.811 249.079 268.979V268.979C248.375 264.939 246.264 260.823 243.215 258.079C240.088 255.107 240.088 253.201 243.528 239.787C248.219 221.265 249.704 211.433 249.704 197.409C249.782 182.927 248.922 178.659 243.919 168.674C238.915 158.689 232.27 154.192 219.527 152.21C215.149 151.524 214.132 151.067 213.116 149.238C210.927 145.655 204.204 138.948 200.295 136.509C195.369 133.46 188.724 131.25 182.548 130.64C173.479 129.726 157.609 133.918 141.582 141.54L136.147 144.143C133.754 145.29 131.137 145.893 128.484 145.909L120.396 145.96C107.027 146.037 101.867 147.027 90.1402 151.753C82.8696 154.726 76.1462 160.595 70.2827 169.055C65.5138 176.067 62.7775 184.299 61.2139 196.646C59.8067 207.851 60.1976 211.28 64.9665 233.232C68.4064 249.238 68.8755 254.954 66.5301 255.716C64.1066 256.479 59.2594 261.662 57.3831 265.625C54.9596 270.579 54.9596 274.924 57.4613 280.107C61.1357 287.652 68.4064 292.378 77.7097 293.216V293.216C80.8036 293.495 83.448 295.559 84.4698 298.492L85.6058 301.753C87.1694 306.174 90.3748 313.415 92.7201 317.759C100.069 331.326 104.916 337.5 112.734 343.14C117.581 346.646 118.05 347.256 118.05 349.695C118.05 351.372 117.347 353.277 116.096 354.878C115.001 356.25 114.141 358.003 114.141 358.841C114.141 360.061 112.265 360.899 102.649 363.948C84.2768 369.665 71.1427 377.058 58.4777 388.567C42.6073 403.201 33.2258 420.96 30.6459 441.692C30.255 444.665 28.4568 458.384 26.5805 472.18L23.5194 495.084C23.3459 496.382 22.2604 497.365 20.9516 497.409V497.409C19.1535 497.485 17.5899 496.341 12.7428 491.311ZM277.927 134.223C285.588 130.716 295.204 123.171 307.166 111.357C332.339 86.3567 337.968 73.7805 330.776 58.3841C325.381 46.7225 310.527 37.0427 300.208 38.4908C294.032 39.4055 285.275 43.2927 278.865 48.0945C271.125 53.8872 269.718 53.8872 263.229 48.7805C256.193 43.2165 248.297 39.5579 242.199 39.1006C226.563 37.8811 211.787 49.6951 208.66 65.8536C207.644 71.189 209.207 77.8963 212.96 85.1372C221.169 100.838 250.642 128.506 265.653 134.527C271.36 136.89 272.298 136.89 277.927 134.223Z" fill="#FFE0C8"/>
<path d="M247.437 454.497C241.808 453.811 232.427 450.991 226.876 448.323C215.384 442.912 207.41 435.595 200.53 424.39C196.934 418.445 192.321 407.393 192.321 404.573C192.321 403.43 191.539 403.201 187.474 403.201C179.031 403.125 172.776 399.314 169.18 391.997C167.304 388.11 167.147 387.043 167.46 380.793C167.851 372.713 169.415 368.979 174.105 365.168C175.747 363.796 177.858 362.043 178.718 361.204C180.047 360.061 181.61 359.756 185.598 359.756C192.243 359.756 192.399 359.451 191.774 348.018L191.305 339.177H194.041C195.605 339.177 197.794 339.634 198.966 340.244C200.921 341.235 201.39 341.159 205.142 339.101C210.615 336.052 216.4 329.802 220.075 322.866C222.967 317.53 223.358 317.073 225.704 317.073C227.893 317.073 228.44 317.53 229.925 320.274C232.192 324.695 240.245 332.241 245.483 334.909C254.004 339.405 261.353 339.71 268.468 335.899C271.204 334.451 271.751 333.765 272.142 331.174C272.377 329.497 273.158 327.058 273.862 325.686C274.566 324.314 275.191 322.561 275.191 321.646C275.191 320.351 275.66 320.122 278.162 320.122C280.742 320.122 281.289 320.503 283.791 324.009C289.732 332.546 299.896 339.558 307.714 340.396C310.997 340.777 312.248 340.473 316.235 338.491C318.815 337.195 322.02 336.128 323.349 336.128H325.773L326.242 342.073C326.867 349.466 327.415 350.991 331.402 355.488C333.2 357.47 334.607 359.527 334.607 360.061C334.607 361.128 341.487 362.043 348.914 361.966C352.432 361.966 352.588 362.043 352.588 364.101C352.588 365.244 353.37 368.445 354.23 371.189C355.09 373.933 355.872 378.582 355.95 381.479C356.106 386.052 355.794 387.424 353.761 391.311C349.93 398.704 342.738 403.201 334.685 403.201H331.089L328.822 409.68C325.147 420.274 320.3 427.82 312.326 435.595C302.163 445.503 291.452 451.143 278.162 453.811C272.533 454.954 254.083 455.335 247.437 454.497ZM265.262 418.826C271.986 417.454 277.927 414.863 281.68 411.585C284.885 408.841 285.12 408.384 283.4 406.707C282.305 405.64 281.836 405.793 278.631 408.156C273.784 411.814 269.953 412.729 259.946 412.729C249.783 412.729 246.108 411.738 242.512 407.851C240.401 405.64 239.698 405.259 238.603 405.945C233.443 409.146 241.183 415.93 253.144 418.826C258.852 420.122 259.008 420.122 265.262 418.826ZM291.687 372.942C293.329 368.064 288.56 364.101 284.885 367.454C282.071 370.046 282.227 375.076 285.198 377.134L287.309 378.735L289.029 377.134C289.967 376.22 291.14 374.39 291.687 372.942ZM235.241 376.067C236.336 374.771 236.883 372.942 236.883 370.808C236.883 368.14 236.57 367.454 234.851 366.54C232.896 365.549 232.661 365.625 230.551 367.988C227.971 370.732 227.658 373.78 229.534 376.372C231.098 378.582 233.287 378.506 235.241 376.067Z" fill="#FEC193"/>
<path d="M148.149 360.976C147.758 360.823 144.709 360.29 141.504 359.756C132.904 358.384 126.728 356.936 121.412 354.878C115.001 352.439 113.75 351.677 114.845 351.067C116.408 350.076 115.783 349.39 110.389 345.427C102.571 339.787 97.7235 333.613 90.3747 320.046C88.0293 315.701 84.824 308.46 83.2604 304.04L80.4459 295.96L75.3643 295.503C72.628 295.198 68.7972 294.36 66.9209 293.521C55.1159 288.491 49.5652 274.771 54.8813 263.72C56.914 259.451 61.6829 254.192 64.1847 253.43C65.0446 253.125 65.6701 252.21 65.6701 251.143C65.6701 249.085 67.3118 248.476 73.0971 248.476H77.0061L85.6058 227.515L94.2055 206.555H96.7072C98.0363 206.555 102.414 207.393 106.48 208.46C137.126 216.311 171.759 216.845 202.093 209.832C206.862 208.765 212.1 207.698 213.898 207.546L217.103 207.165L222.576 228.43L227.97 249.619L233.208 249.39C240.401 249.009 243.137 249.695 243.137 251.829C243.137 252.744 244.231 254.497 245.56 255.793C248.531 258.537 250.72 262.652 251.424 266.692C251.893 269.36 252.206 269.817 253.769 269.817C255.098 269.817 255.645 270.274 255.645 271.341C255.645 272.256 255.098 272.866 254.316 272.866C253.535 272.866 248.14 273.247 242.355 273.78L231.801 274.619L220.074 279.954C206.471 286.128 205.845 286.585 197.011 295.122C192.399 299.619 189.506 303.125 187.551 306.86C185.988 309.756 183.955 312.957 183.017 314.024C178.326 319.131 175.355 331.25 176.294 341.387C176.606 344.969 176.919 349.848 176.997 352.134L177.075 356.326L173.948 357.165C163.394 359.985 159.251 360.823 154.403 360.976C151.433 361.128 148.618 361.128 148.149 360.976ZM164.098 312.195C168.319 310.518 171.212 308.613 174.417 305.564C179.499 300.838 180.75 297.866 178.717 295.884C177.466 294.665 177.232 294.741 174.886 297.332C173.479 298.857 171.759 300.991 171.056 302.058C168.554 305.64 161.83 308.079 153.7 308.537C147.055 308.841 145.96 308.689 142.051 306.936C139.002 305.564 137.126 304.116 135.562 301.905C133.295 298.476 132.513 298.171 130.481 300C129.23 301.143 129.152 301.448 130.168 303.354C133.686 309.985 147.133 316.159 155.576 315.015C157.062 314.787 160.971 313.491 164.098 312.195ZM125.634 264.558C127.744 261.509 127.979 257.165 126.103 255.183C124.539 253.506 122.819 253.43 120.708 255.183C116.799 258.232 116.174 262.729 119.223 265.701C121.725 268.14 123.366 267.835 125.634 264.558ZM188.177 266.921C188.724 266.616 189.819 264.71 190.757 262.805C192.555 258.841 192.008 256.479 189.037 254.649C185.831 252.668 181.844 256.631 181.844 261.814C181.844 265.93 185.284 268.674 188.177 266.921Z" fill="#FEB073"/>
<path d="M347.897 356.479C347.897 352.058 347.74 351.601 345.708 350.457C343.597 349.238 343.44 348.857 342.58 339.787C341.017 324.848 339.141 316.997 334.997 308.232C333.121 304.192 317.329 288.796 311.309 285.061L305.758 281.631V277.363C305.68 272.866 307.713 238.491 308.651 227.21L309.198 220.732L317.798 218.979C344.926 213.491 367.363 204.497 382.999 192.912C389.41 188.11 399.026 178.582 400.433 175.61C401.137 174.162 401.918 173.78 404.186 173.78C406.922 173.78 407 173.857 407.86 177.82C409.893 187.348 417.242 201.982 425.45 212.805C431.861 221.341 441.946 230.03 450.78 234.68C458.051 238.491 458.911 238.796 464.462 238.872C474.547 239.177 481.818 243.826 486.43 252.973C487.994 255.945 488.228 257.698 488.228 264.863C488.15 275.534 486.352 280.488 480.489 286.204C475.251 291.311 470.091 293.674 463.445 294.055L458.286 294.36L457.738 297.18C455.862 307.698 450.233 320.503 443.197 330.488C438.037 337.652 426.623 348.247 421.229 350.838C409.658 356.25 405.984 357.698 400.042 359.146C394.335 360.595 392.224 360.671 380.341 360.29C367.441 359.832 359.858 358.537 355.011 356.021C353.447 355.183 353.369 355.335 353.369 358.232C353.369 361.204 353.291 361.28 350.633 361.28H347.897V356.479ZM383.155 314.177C386.048 313.415 389.957 311.814 391.912 310.747C395.82 308.537 402.231 301.982 402.857 299.543C403.248 298.095 401.684 295.732 400.277 295.732C399.651 295.732 397.306 298.323 394.57 302.134C392.771 304.649 387.064 307.47 381.67 308.613C371.663 310.671 364.94 308.918 358.998 302.744L354.776 298.399L353.291 300.152C351.571 302.287 352.04 303.506 356.105 307.393C360.483 311.585 369.709 315.396 375.65 315.473C376.979 315.549 380.341 314.939 383.155 314.177ZM347.818 266.463C350.32 263.872 350.946 258.155 349.069 256.098C347.271 254.116 345.473 254.192 343.284 256.174C339.531 259.604 339.219 263.034 342.346 266.082C345.16 268.75 345.551 268.826 347.818 266.463ZM412.316 266.082C413.645 264.71 414.662 262.729 414.896 260.823C415.287 258.232 414.974 257.47 413.254 255.716C411.613 254.116 410.987 253.887 409.658 254.573C407.626 255.64 405.906 258.232 405.28 261.128C404.967 262.957 405.28 263.948 406.922 265.854C408.095 267.226 409.267 268.293 409.58 268.293C409.893 268.293 411.144 267.302 412.316 266.082Z" fill="#FEB073"/>
<path d="M346.725 496.418C342.738 486.052 333.2 472.485 324.288 464.558C317.408 458.46 308.104 451.982 301.225 448.552C298.097 447.027 295.518 445.503 295.518 445.122C295.518 444.817 297.55 443.293 299.974 441.692C311.466 434.375 321.708 421.113 326.477 407.393L328.744 400.915H332.34C340.392 400.915 347.663 396.341 351.338 389.024C352.588 386.585 353.605 383.841 353.605 382.851C353.605 380.64 355.403 380.564 361.266 382.47C372.68 386.28 382.453 386.433 393.085 382.927C405.125 379.04 414.819 370.655 420.839 359.146L424.122 352.744L427.25 353.125C431.471 353.506 451.407 360.671 459.303 364.558C462.743 366.235 468.137 369.284 471.343 371.418C476.737 374.924 477.05 375.229 475.486 376.067C473.844 376.905 474.001 377.134 478.066 380.259C484.32 385.137 494.015 395.198 498.705 401.753C508.478 415.168 512.465 426.677 515.592 450.457C516.843 459.832 519.032 474.695 521.065 488.186C521.69 491.921 521.925 495.274 521.534 495.655C521.221 495.96 518.485 497.104 515.514 498.094L510.119 500H429.126H348.132L346.725 496.418Z" fill="#A599D2"/>
<path d="M175.59 361.052C171.603 357.317 171.212 355.869 173.636 354.345C175.199 353.354 175.199 352.973 174.418 348.704C173.323 343.064 173.323 332.241 174.339 326.906C175.512 321.113 178.327 314.253 180.516 311.89C181.61 310.747 183.721 307.47 185.206 304.573C187.161 300.838 190.053 297.332 194.666 292.835C203.5 284.223 204.126 283.841 218.12 277.439C229.456 272.332 230.628 271.875 236.492 271.646C239.932 271.418 245.717 270.96 249.391 270.503C259.086 269.36 274.643 268.369 275.503 268.826C275.894 269.055 276.754 268.598 277.458 267.683L278.709 266.159L285.667 267.607C297.784 270.198 308.026 274.848 308.104 277.668C308.104 278.887 309.668 280.335 313.655 282.774C319.674 286.509 335.467 301.906 337.343 305.945C341.486 314.71 343.363 322.561 344.848 337.271C345.395 342.531 346.177 346.723 346.724 347.18C348.054 348.247 347.037 355.259 344.848 360.213L343.206 363.948L338.047 364.101C333.199 364.253 332.965 364.101 332.183 362.271C331.792 361.128 330.15 358.918 328.665 357.317C325.147 353.506 324.443 351.677 323.896 344.36C323.662 341.082 323.193 338.491 322.958 338.643C315.922 342.454 313.186 343.14 307.635 342.835C303.57 342.531 300.677 341.845 297.706 340.473C292.468 337.957 285.119 331.555 281.445 326.296C278.474 322.104 277.536 321.494 277.536 323.933C277.536 324.848 276.832 326.906 275.972 328.506C275.034 330.335 274.565 332.241 274.8 333.308C275.347 335.442 273.783 337.043 268.936 339.101C257.757 343.826 244.544 340.549 234.068 330.412C231.41 327.896 228.518 324.314 227.501 322.485L225.781 319.131L222.576 325C218.198 332.774 213.585 337.805 207.878 341.082C202.797 343.979 200.138 344.36 196.699 342.607C195.526 341.997 194.275 341.463 194.041 341.463C193.884 341.463 193.962 344.284 194.275 347.79C195.057 355.488 194.979 358.003 193.806 360.671C192.946 362.729 192.79 362.805 187.473 362.424C183.252 362.195 182.001 362.348 181.61 363.186C180.906 365.091 179.343 364.482 175.59 361.052Z" fill="#FFB648"/>
<path d="M263.307 136.814C255.568 133.689 245.013 125.991 234.225 115.549C216.087 98.0183 208.426 86.9665 206.315 75.3811C203.5 59.8323 213.038 43.1403 227.579 38.4909C241.026 34.1464 253.3 36.7378 265.574 46.4939L270.422 50.3049L276.52 45.8079C291.452 34.6799 306.775 33.0031 319.596 41.1585C335.701 51.372 340.705 69.8933 331.87 86.9665C326.867 96.5701 304.43 120.274 291.608 129.573C278.787 138.796 272.298 140.473 263.307 136.814Z" fill="#FFB648"/>
<path d="M143.381 388.796C135.641 386.738 132.67 385.366 127.041 381.479C120.396 376.905 115.236 371.113 112.031 364.71C109.764 360.061 109.529 359.299 110.624 358.537C111.249 358.079 111.796 357.012 111.796 356.25C111.796 355.488 112.813 353.659 114.064 352.21L116.253 349.619L123.211 352.287C127.041 353.735 132.123 355.335 134.468 355.793C151.668 359.146 154.639 359.375 159.173 357.927C161.284 357.317 165.427 356.25 168.32 355.716L173.714 354.649L178.014 358.689L182.236 362.729L180.516 364.101C174.965 368.521 173.323 370.198 171.838 373.018C169.962 376.601 169.102 384.68 170.353 386.966C171.604 389.253 170.118 389.634 158.704 389.939C150.886 390.168 147.837 389.939 143.381 388.796Z" fill="#FEA25B"/>
<path d="M366.27 386.814C363.69 386.28 359.859 385.137 357.67 384.375C353.839 383.003 353.761 382.851 353.214 379.192C352.901 377.058 352.119 373.857 351.416 372.027C350.79 370.198 350.243 367.683 350.243 366.463C350.243 364.71 349.93 364.253 349.07 364.634C347.741 365.091 347.663 363.872 348.367 354.954C348.68 351.677 349.227 349.085 349.539 349.085C349.93 349.085 350.321 351.372 350.399 354.268L350.556 359.375L350.79 355.03C350.947 352.591 351.259 350.61 351.494 350.61C351.729 350.61 353.448 351.448 355.247 352.515C359.234 354.802 365.801 356.784 370.179 357.165C386.909 358.46 391.365 358.384 397.698 356.86C403.874 355.335 409.19 353.201 419.353 348.247C421.855 346.951 423.966 346.037 424.044 346.189C424.122 346.341 425.139 347.866 426.311 349.619C428.579 353.049 429.126 356.402 427.406 355.716C426.781 355.488 425.217 357.622 423.106 361.585C417.086 373.095 407.47 381.326 395.196 385.366C387.535 387.881 373.931 388.567 366.27 386.814Z" fill="#FEA25B"/>
<path d="M380.185 499.543C380.498 499.238 398.87 498.933 421.151 498.78C443.432 498.628 462.508 498.399 463.602 498.323C466.495 498.094 492.06 499.314 492.451 499.695C492.607 499.848 467.355 500 436.24 500C405.124 500 379.951 499.771 380.185 499.543Z" fill="#968BD2"/>
<path d="M165.74 498.323C165.74 495.503 171.525 483.765 176.373 476.524C181.689 468.674 195.839 454.573 203.266 449.848C206.081 448.018 210.928 445.351 214.055 443.826C218.668 441.54 220.075 441.159 221.091 441.844C224.844 444.36 236.102 449.162 241.809 450.61C247.203 452.058 250.252 452.363 261.119 452.363C275.738 452.363 281.445 451.219 292 446.113L297.707 443.369L303.492 446.189C310.45 449.695 319.753 456.098 326.633 462.271C332.262 467.302 342.191 479.802 345.318 485.823C347.116 489.253 351.025 498.704 351.025 499.619C351.025 499.848 309.355 500 258.383 500H165.74V498.323Z" fill="#FE9A3C"/>
<path d="M29.2394 499.238C27.5194 498.857 24.8613 498.094 23.2977 497.485L20.6396 496.418L23.9232 471.723C25.7995 458.155 27.6758 443.979 28.223 440.168C30.3339 423.704 35.5719 410.594 44.8752 398.552C54.1003 386.585 68.1726 375.305 82.4794 368.293C87.6392 365.777 109.608 358.232 111.797 358.232C112.109 358.232 113.438 360.366 114.767 362.957C119.38 372.561 130.481 381.784 141.817 385.442C146.821 387.043 149.792 387.424 155.968 387.5C160.268 387.576 165.271 387.271 166.991 386.966C170.196 386.357 170.275 386.357 171.135 388.872C173.48 395.808 181.376 400.915 189.741 400.915C193.885 400.915 194.667 401.143 194.667 402.287C194.667 405.107 199.279 416.159 202.875 422.104C207.488 429.649 212.1 434.909 218.198 439.482L222.889 442.988L216.4 446.113C206.237 451.143 201.155 454.726 191.852 463.796C182.001 473.323 175.356 482.546 170.744 493.216L167.773 500L100.07 499.924C62.8564 499.848 31.0375 499.543 29.2394 499.238Z" fill="#58A6B3"/>
<path d="M468.684 373.399C461.335 368.598 451.641 364.101 439.367 359.832C433.113 357.622 427.484 355.564 426.858 355.259C426.233 354.954 424.669 353.049 423.419 351.143L421.151 347.561L423.419 345.884C428.735 341.921 437.256 333.232 440.931 328.049C447.889 318.216 453.518 305.335 455.394 294.893L455.941 292.073L461.101 291.768C474.235 291.082 484.711 280.564 486.04 266.692C487.369 252.82 474.47 239.71 461.257 241.54C458.443 241.997 457.192 241.768 455.003 240.473C453.518 239.558 449.687 237.5 446.481 235.899C439.68 232.393 428.969 222.866 423.106 215.092C414.897 204.268 407.548 189.634 405.515 180.107C405.046 177.896 404.421 176.067 404.186 176.067C403.874 176.067 403.248 176.906 402.779 177.896C401.372 180.869 391.756 190.396 385.345 195.198C369.709 206.784 347.272 215.777 320.144 221.265L311.544 223.018L310.997 229.116C310.762 232.393 309.902 244.893 309.199 256.86C308.495 268.826 307.791 278.659 307.635 278.811C307.557 278.963 304.664 277.668 301.303 276.067C294.345 272.637 289.498 271.037 282.461 269.741C279.725 269.284 277.536 268.674 277.536 268.369C277.536 268.14 278.787 264.329 280.272 259.909C283.009 251.906 283.087 251.906 282.227 244.893C281.758 241.006 281.289 231.25 281.289 223.171C281.289 209.756 281.445 207.774 283.321 200.838C286.058 190.32 290.358 182.393 297.706 173.781C310.762 158.46 323.427 148.781 341.018 140.701C365.41 129.421 388.003 126.22 405.75 131.479C409.424 132.546 416.07 133.918 420.604 134.604C430.298 135.976 440.931 139.253 447.732 142.988C469.857 155.031 486.665 179.421 493.702 209.68C496.36 221.113 497.689 230.183 499.956 253.277C502.067 274.924 502.927 278.659 509.65 297.104C514.966 311.509 516.217 317.149 516.217 326.982C516.295 337.271 515.279 342.073 511.448 349.848C508.008 356.784 502.223 362.576 493.936 367.683C488.542 370.884 476.111 376.448 474.157 376.524C473.766 376.524 471.264 375.152 468.684 373.399Z" fill="#A35142"/>
<path d="M341.565 364.253L339.61 363.567L341.878 358.994C343.207 356.479 344.379 352.668 344.614 350.61C344.77 348.476 345.161 346.799 345.317 346.799C345.552 346.799 346.725 347.409 347.976 348.095C350.243 349.39 350.243 349.467 350.243 356.784C350.243 362.805 350.008 364.253 348.992 364.634C347.272 365.244 343.988 365.092 341.565 364.253Z" fill="#A35142"/>
<path d="M220.465 231.707C215.618 212.805 214.602 209.604 213.507 209.985C212.804 210.29 208.582 211.28 204.048 212.348C172.62 219.284 134.937 218.674 104.056 210.671C99.991 209.68 96.6293 208.918 96.5512 208.994C96.473 209.146 92.4858 218.598 87.7951 230.107L79.2736 250.991L73.801 251.143C70.8302 251.22 67.9376 251.448 67.3121 251.601C66.4522 251.829 65.4358 248.399 62.8559 236.662C57.7743 213.567 57.3052 208.613 58.7906 195.655C60.3542 182.088 62.9341 174.162 67.9376 166.768C73.801 158.308 80.5244 152.439 87.7951 149.466C99.2874 144.817 104.76 143.75 118.05 143.598L130.168 143.445L139.237 139.177C166.678 126.372 187.474 124.771 202.64 134.223C206.549 136.662 213.273 143.369 215.462 146.951C216.478 148.78 217.494 149.238 221.872 149.924C234.616 151.905 241.261 156.402 246.264 166.387C251.424 176.753 252.128 180.412 252.128 197.409C252.05 209.299 251.737 214.177 250.33 221.875C248.61 231.021 243.606 252.058 242.903 252.744C242.746 252.973 240.948 252.668 238.994 252.134C235.554 251.296 231.41 251.677 227.423 253.354C226.329 253.811 225.312 250.686 220.465 231.707Z" fill="#A35142"/>
<path d="M252.128 421.418C237.587 418.216 229.769 410.061 235.711 404.345C238.447 401.601 241.261 401.906 244.232 405.107C247.281 408.308 251.112 409.909 257.21 410.595C265.341 411.357 271.282 409.527 279.569 403.582C282.618 401.372 287.7 404.726 287.7 408.918C287.7 410.976 282.853 415.396 278.084 417.683C269.875 421.57 259.634 423.095 252.128 421.418Z" fill="#8F4C3D"/>
<path d="M146.821 317.073C136.188 315.244 126.65 307.698 126.65 301.22C126.65 297.104 132.201 294.207 135.406 296.646C136.032 297.18 137.361 298.78 138.377 300.229C139.472 301.829 141.817 303.506 144.475 304.726C148.15 306.326 149.401 306.555 153.857 306.174C159.798 305.564 166.678 302.668 168.711 299.771C172.776 294.055 174.418 292.683 177.467 292.683C181.141 292.683 182.549 294.207 182.392 298.171C181.923 309.223 161.987 319.817 146.821 317.073Z" fill="#8F4C3D"/>
<path d="M367.911 316.997C361.579 315.549 354.543 311.281 351.259 307.012C347.741 302.363 349.695 296.494 354.777 296.341C356.888 296.265 357.982 296.951 361.422 300.534C366.66 306.021 371.898 307.774 379.013 306.402C385.423 305.183 390.74 302.134 393.632 298.018C396.994 293.293 399.339 292.149 402.545 293.369C409.19 296.113 404.499 307.165 394.258 313.034C386.987 317.149 375.964 318.826 367.911 316.997Z" fill="#8F4C3D"/>
<path d="M229.221 380.564C225 378.963 224.609 369.131 228.44 365.32C230.785 363.11 234.147 362.729 237.196 364.329C239.619 365.549 240.167 367.835 239.541 372.942C238.681 379.116 234.147 382.47 229.221 380.564Z" fill="#794638"/>
<path d="M282.696 379.345C280.663 377.744 280.507 377.134 280.351 372.409C280.272 367.454 280.351 367.149 282.852 365.015C285.667 362.5 287.543 362.271 290.827 363.948C293.641 365.396 294.736 367.226 294.736 370.732C294.736 379.116 288.325 383.689 282.696 379.345Z" fill="#794638"/>
<path d="M342.581 270.122C341.33 269.665 339.688 268.445 338.984 267.454C337.421 265.168 337.343 259.756 338.984 256.479C341.486 251.296 348.679 250.381 352.04 254.726C353.369 256.479 353.448 257.165 352.666 261.814C351.493 269.436 347.975 272.332 342.581 270.122Z" fill="#794638"/>
<path d="M118.989 269.436C117.347 268.75 116.018 267.378 115.314 265.701C113.829 262.195 113.829 260.213 115.627 256.402C118.129 250.991 125.086 249.238 128.683 253.201C129.855 254.421 130.09 255.793 130.012 259.223C129.621 267.912 125.165 272.104 118.989 269.436Z" fill="#794638"/>
<path d="M181.923 269.055C178.17 266.159 178.17 257.165 181.923 253.506C183.408 251.982 184.737 251.524 187.161 251.524C194.041 251.601 196.542 257.317 193.024 265.168C190.679 270.579 185.988 272.18 181.923 269.055Z" fill="#794638"/>
<path d="M404.656 268.216C401.216 264.253 402.31 255.716 406.61 252.744C409.346 250.915 413.255 251.219 415.523 253.354C418.102 255.869 418.65 258.46 417.477 262.805C415.601 270.351 408.956 273.171 404.656 268.216Z" fill="#794638"/>
</g>
<defs>
<clipPath id="clip0_2858_8263">
<rect width="541" height="500" fill="white"/>
</clipPath>
</defs>
</svg>
