<svg width="705" height="848" viewBox="0 0 705 848" fill="none" xmlns="http://www.w3.org/2000/svg">
<g clip-path="url(#clip0_2858_8438)">
<path d="M423.5 839.3C421.9 839.1 411.1 837.5 399.7 835.9C382.6 833.5 378.2 833.2 374.6 834.1C371.1 835 367.4 834.7 353.9 832.5C344.9 831 326.5 828.1 313 825.9C299.5 823.7 274.8 819.7 258 816.9C222.5 811.1 190.8 805.9 172.8 803C157.2 800.5 155.5 799.9 152.9 795.8C151.1 792.8 150.9 791.4 151.3 781.5C151.6 775.5 152.6 766.6 153.5 761.8L155.2 753.2L159.7 752.5C162.3 752.1 166.5 750.4 169.4 748.5C172.2 746.6 177.2 744.4 180.5 743.6C183.8 742.8 189 741.4 192 740.6C195 739.8 201.7 738.2 206.8 737C219.1 734.3 226.2 731.5 227.9 728.8C228.7 727.5 229.2 724.4 229.1 721.4C229 716.2 229 716.2 233.3 714C239.6 710.8 241.4 707.3 240.6 699.6C239.8 693 240.4 690 242.5 690C243.2 690 244.8 688.1 246 685.7C249 680.1 248.3 677.4 242.5 671.9C236.9 666.6 236.5 663 241 658.6C244.9 654.8 245 650.8 241.1 647C239.5 645.4 237 643.8 235.4 643.4C233.8 643 229.8 641.3 226.5 639.6C221.3 636.9 219.5 636.5 212.6 636.5C207.1 636.5 204.5 636.9 204.3 637.8C203.5 640 197.5 639.2 195.1 636.6C193.4 634.8 191.3 634 187.1 633.5C175.8 632.2 176 632.4 176 627.4C176 622.9 178.4 606.5 187 552.5C189.7 535.5 193.1 513.2 194.7 503.1C197.7 483.1 198.7 480.5 205 476.2C208.3 474 209.2 473.9 220.5 474.3C227.1 474.5 251.2 477.3 274 480.4C296.8 483.5 322.7 486.9 331.5 488C340.3 489.2 355.8 491.2 366 492.6C376.2 494 387.7 495.5 391.5 496C395.4 496.5 405.3 497.9 413.5 499C447.5 503.7 464 505.9 473.5 507C479 507.7 484.8 508.8 486.4 509.6C488.9 510.8 489.5 510.8 491 509.5C491.9 508.7 493.5 508 494.6 508C496.8 508 508.2 502.3 524 493.3C533.8 487.7 550.8 478.2 582.5 460.5C589.7 456.5 606.5 446.9 620 439.3C669.1 411.3 670.2 410.8 673.5 411.3C675.8 411.7 678.5 410.8 684.1 407.9C688.1 405.8 692.5 404 693.7 404C697.6 404 701.1 406.3 703.1 410.2C705 414 705 414 702.6 428.7C698.5 452.8 695.1 474.2 686.9 527.5C685.8 534.7 684.7 541.5 684.4 542.8C684.1 544.5 684.4 545 686 545C687.9 545 687.9 545.2 686.8 547.3C686.1 548.5 684.8 551.7 684 554.5C682.8 558.4 681.7 559.8 678.9 561.3C676.9 562.3 671.5 566.7 666.9 571L658.5 578.7L658.8 585.3L659 591.8L654 595.6C649.6 598.9 649 599.9 649 603C649.1 604.9 649.9 608.3 651 610.5C653.6 615.8 653.5 620.5 650.9 623.3C648.8 625.6 648.8 626.9 650.6 637.3C650.9 639.4 650.7 642.2 650.1 643.9C649.4 645.4 648.8 649.2 648.7 652.3C648.5 657.4 648.8 658.2 651.9 661.4C654.7 664.2 656.2 665 659.1 665C662.6 665 662.8 665.2 663.4 669C663.8 671.6 662.7 681 660.1 696.7C658 709.8 655.9 722.7 655.5 725.5C654.2 734.7 650 740.3 640.5 745.2C637.8 746.6 629.9 750.7 623 754.2C616.1 757.8 593.9 769.2 573.5 779.5C553.2 789.8 531.1 801.1 524.5 804.5C456.9 839.6 455.6 840.1 437.5 839.9C431.5 839.8 425.2 839.5 423.5 839.3ZM579.2 690.9C583.2 688 593.6 676 604.2 661.8C618.8 642.4 627.2 623.7 632.9 597.5C636 583.5 641.3 546.3 640.6 543.6C640.1 541.5 639.1 541 632.8 540C628.8 539.3 617.7 536.1 608.1 532.9L590.7 527L585.1 531.8C582.1 534.4 578.2 537.8 576.5 539.3C569.9 545.5 553.1 558.9 546 563.7C541.9 566.5 537.7 569.6 536.8 570.7C533 574.9 531.9 583.2 531.3 615C530.6 649.4 531.1 653 537.6 665C543.4 675.6 554.6 685.7 567.1 691.5C572.8 694.1 574.7 694 579.2 690.9ZM502.9 552.7C502.9 549.4 502.7 548.9 502 550.5C500.8 553.3 500.8 558.3 502 557.5C502.6 557.2 503 555 502.9 552.7Z" fill="#FEC662"/>
<path d="M140.5 757.9C137.2 757.4 133.2 756.6 131.6 756C130 755.5 121.9 755 113.6 755C90.1999 755 78.7999 754 78.2999 752C77.9999 750.8 74.8999 749.8 65.1999 748.1C35.7999 742.7 20.2999 734 10.9999 717.6C4.49988 706.3 4.49988 686.3 10.8999 642.5C14.2999 619.1 14.6999 615.3 13.3999 614.4C12.2999 613.5 12.0999 611.9 12.5999 607.5C13.5999 599.7 13.9999 599.5 38.4999 599.6C65.2999 599.6 89.4999 603.4 108.8 610.5L116 613.2V619.4C116 622.7 114.6 633.6 113 643.4C111.3 653.3 110.2 661.5 110.4 661.7C110.6 661.9 114.9 662.4 119.9 662.7L129 663.3V660.7C129 658.8 131.8 655.5 140.9 646.8C153.7 634.5 160.4 630.2 170.6 627.6C178.2 625.6 179 625.6 179 627.4C179 628.9 181.1 629.5 190.1 630.5C194.3 631 196.4 631.7 198.1 633.6C199.4 635 200.6 635.6 201 635C202 633.4 205.9 632.7 213.2 632.9C222 633.1 223 633.4 230 636.9C233.3 638.6 236 639.7 236 639.5C236 638.2 244.1 643.2 245.4 645.3C248.5 650.1 247.8 657.8 244 661.7L241 664.7L245.1 668.5C250.1 673.1 252.4 678 251.4 682.4C250.5 686.6 246.9 693 245.4 693C243.6 693 243.3 694.6 244.1 700.9C245 708.6 242.6 713.8 236.7 716.8L232.4 718.9L232.6 724.3C232.8 728.7 232.4 730.1 230.5 732.2C227.9 735 220 737.9 208 740.5C203.9 741.4 198 742.8 195 743.6C192 744.4 186.8 745.8 183.5 746.6C180.2 747.4 175.2 749.6 172.4 751.5C169.5 753.4 165.3 755.1 162.6 755.5C159.7 756 158 756.7 158 757.6C158 759.2 150.5 759.3 140.5 757.9Z" fill="#FBB377"/>
<path d="M661.5 674.9C660.4 674.5 659.9 674.1 660.4 674.1C660.9 674 660.7 673.3 660 672.5C659.3 671.7 659 670.4 659.3 669.7C659.6 668.8 658.8 668.4 656.4 668.4C653.9 668.4 652.1 667.5 649.7 665.2C644.8 660.5 644 656.9 645.7 647.9C647.4 638.9 647.5 638.6 646 633C644.6 627.6 645.3 623.1 648 620.2L650.1 618L648 613.6C646.9 611.1 645.9 607.8 645.7 606.3C645.5 604.7 645.1 602.9 644.7 602.3C644.3 601.6 644.5 600.8 645.1 600.4C645.9 599.9 645.9 599.6 645 599C644.3 598.5 645.9 596.7 649.6 593.7L655.3 589.2L655.4 582.5L655.5 575.7L664 567.9C668.7 563.5 674 559.3 675.8 558.4C679 556.9 679.9 555.8 680.4 552.8C680.5 552.1 680.9 550.9 681.3 550.3C681.8 549.6 681.9 549 681.5 549C681.2 549 681.4 548.1 682 547C683.5 544.2 686.4 544.5 691.5 548C699.8 553.7 702.1 563.4 697.4 572.9C695.1 577.4 694.9 578.3 696.2 579.8C702.1 586.8 701 598.3 693.8 605.7L690.7 608.9L692.4 614.3C694.8 622.1 693.3 628.3 687.3 635C683.9 638.8 683 640.5 683.5 642.1C685.8 649.3 679.4 659.9 670 664.1C665.4 666.2 665.1 666.6 664.3 671C663.6 675.2 663.3 675.6 661.5 674.9Z" fill="#FBB377"/>
<path d="M235 444.3C221.5 442.1 208.9 437.4 198 430.5C187 423.6 173.5 408.6 168.4 397.7C165.7 391.8 165.2 385 167.5 385C169.9 385 170.7 382 172 367.7L173.1 354L166.5 346.7C160.1 339.8 146.6 320.7 143.9 314.7C142.9 312.5 142.2 312 140.6 312.5C139.4 312.9 133.5 313.4 127.4 313.7C108.1 314.6 97.9998 310.1 85.8998 295C72.9998 278.9 68.9998 260.2 74.6998 242C75.9998 237.8 77.7998 235.1 82.5998 230.4C90.9998 221.9 96.9998 219.7 110 220.2C118.1 220.5 120.3 220.9 125.3 223.4C128.4 225 133.7 228.8 136.9 231.7L142.8 237L145 234.3C151.4 226.2 158 206.9 158 196.5C158 193.2 158.1 193.2 165.3 191.5C187.5 186.1 208.1 178.5 230 167.5C278.9 143 312.2 111.7 324.1 79.1C326.2 73.3 326.4 73 329.7 73C337.5 73 359.2 91.4 372.8 109.6C389.4 131.6 396.1 151.9 403.1 200.9C405.2 215.4 405.3 217.1 403.9 218.5C402.5 219.9 402.5 221.4 403.7 231.8C406.6 258 405.1 292.4 400.4 309C399.4 312.2 399.1 316 399.4 318.2C399.9 321.2 399.4 323.3 396.9 328.3C381.4 359.2 345.3 382 301.5 388.6C290.9 390.2 287.7 390.3 270.6 389.2C250.1 387.9 233.4 385 221.5 380.6C217.7 379.2 214.4 378.3 214.2 378.5C214 378.7 215.3 379.8 217.1 381C242 396.2 273.2 402.1 289.7 394.5C297.1 391.1 300.8 391.2 301.6 394.6C302.7 398.9 301.3 411.1 299.1 417.1C294.4 429.6 280.6 440.1 264.5 443.5C258.1 444.8 241 445.3 235 444.3ZM316.3 320C321.8 318.4 320.3 317.8 314 319.1C310.9 319.8 303.8 320.1 297.1 319.8C286.8 319.4 286 319.5 289.1 320.7C293.1 322.2 310.4 321.8 316.3 320ZM315.8 281C317.8 280 320.6 278.1 322 277C324.1 275.2 323.8 275.2 320 277.4C317.5 278.7 313.8 280.2 311.8 280.5C309.7 280.9 308.3 281.6 308.6 282.1C309.4 283.5 311.8 283.2 315.8 281ZM128.5 275.3C127.5 269.7 125 262.1 123.8 261.4C123.1 261 123.1 261.4 123.7 262.6C124.2 263.7 125.2 267.2 125.9 270.5C127.6 278.2 127.8 279 128.5 279C128.8 279 128.8 277.3 128.5 275.3ZM329 266.2C330.1 262 328.9 256 326.5 254C325.1 252.9 325.1 253 326 255.4C327.5 259.4 327.2 267.6 325.5 271.3L323.9 274.5L325.9 272.2C327 270.9 328.4 268.2 329 266.2ZM242.9 248.5C244.5 247.1 246.4 244.4 247 242.4C248 239.4 247.9 238.3 245.8 234.3C244.6 231.7 242.7 229.2 241.8 228.6C236.7 225.5 229.4 234.4 231.1 241.7C231.8 245.2 236.8 251 238.9 251C239.4 251 241.2 249.9 242.9 248.5ZM321 248.5C321 247.5 312.8 243.9 311.2 244.2C310.2 244.4 311.8 245.5 315 246.7C321.4 249.3 321 249.1 321 248.5ZM356.8 233.4C359.7 231.4 362 226.9 362 223.3C362 219.5 357.6 213.2 354.4 212.4C351.1 211.6 347.4 215 345.8 220.2C344.9 223.4 345 224.6 346.5 228.1C347.5 230.3 349.5 232.8 350.9 233.5C354.2 235.3 354.1 235.3 356.8 233.4ZM220.3 201C223.7 199.3 229.4 197.5 233 196.9C240.8 195.5 242.2 194.5 238.6 192.9C231.4 189.6 211.8 200.7 206.4 211.2C205 214 205.5 213.7 209.4 209.3C212.4 206 216.5 202.9 220.3 201ZM375.4 172.5C374.6 170.5 366.6 165.7 360.6 163.7C355.1 161.8 340.7 161.4 336.6 163C331.1 165 334 166 345.8 166C355.5 166 358.6 166.4 364.1 168.4C367.8 169.7 371.8 171.5 373.1 172.4C376 174.4 376.1 174.4 375.4 172.5Z" fill="#FBB377"/>
<path d="M52.0003 466.1C52.0003 465.6 52.5003 465 53.1003 464.8C53.7003 464.6 50.5003 462.4 46.0003 460C25.2003 448.8 11.1003 430.8 3.40031 405.5C0.800311 397.1 0.600311 395.3 0.600311 377.5C0.500311 359.7 0.700311 357.8 3.40031 347.5C7.20031 332.7 10.3003 325.2 22.0003 302.5C36.6003 273.9 42.4003 254.4 44.4003 226.5C50.2003 148.1 55.0003 122 68.7003 94.5C75.6003 80.9 83.1003 70.8 97.0003 56.9C114.8 39 132.7 27.4 158.7 17.1C200.4 0.49999 252.3 -3.90001 286.5 6.09999C301.6 10.6 315.7 18.7 324.1 27.7C328.6 32.5 329.1 32.7 336.6 34C358.6 37.5 375 46.4 388.9 62.3C403.3 78.8 412.1 97.6 417.7 123.9C420.2 135.4 420.4 138.4 420.4 158.5C420.4 177.7 420.1 181.5 418.3 188.1C415.7 197.4 411.5 206.7 406.5 214.6L402.6 220.5L400.3 204.5C397.2 183.8 392.6 160.7 389.4 150C383.6 130.9 370.1 110 353.2 93.9C345.4 86.5 330.4 75.2 329.5 76.2C329.4 76.4 328 79.7 326.5 83.5C313.8 116.1 281.2 146.3 233 170.5C211.1 181.5 190.5 189.1 168.3 194.5C161.1 196.2 161 196.2 161 199.5C161 211.1 154.2 229.5 146.4 239.1L142.7 243.7L135.6 236.6C123 224 110.6 220.2 97.7003 225C90.9003 227.6 81.1003 236.5 78.6003 242.3C72.2003 257.8 75.9003 275.8 88.9003 292C96.8003 301.8 103.4 306.6 112.9 309.4C121.5 311.9 133.7 311.2 143.1 307.5C144.1 307.1 145.1 308 146.4 310.7C149.8 317.9 162.8 336.5 169.6 343.9L176.4 351.2L175.1 367.8C173.8 384.7 173.1 388 170.4 388C169.4 388 169.1 388.6 169.5 389.8C170 391.4 168.9 392 162.3 394C141.8 400 112.9 413.7 97.9003 424.5C95.2003 426.4 92.1003 428 91.0003 428C89.9003 428 89.0003 428.7 89.0003 429.5C89.0003 430.3 86.7003 433.1 83.8003 435.7C74.4003 444.4 66.1003 453.4 61.3003 460.2C57.8003 465 55.9003 466.9 54.3003 467C53.0003 467 52.0003 466.6 52.0003 466.1Z" fill="#76413A"/>
<path d="M390.1 432.1C387.7 430.5 384 428.4 381.9 427.4C379.1 426.2 378 425.1 378 423.5C378 421.7 377.5 421.4 375 421.8C372.9 422.1 368.5 420.7 359.7 416.7C346.1 410.6 325.6 403 307.8 397.5L296 393.9V389.9C296 387.8 296.2 386 296.4 386C299.8 386 316.3 382.2 324.3 379.6C358.3 368.4 382.7 348.9 394.8 323.1L398.6 315L401.9 329.8C410.3 367.5 411 371.7 411.6 384.5C412.6 404.7 409.4 418.9 401.8 428.4C398.8 432.1 398.8 432.4 400.5 433.6C402.2 434.9 402 435 398.4 435C395.8 435 393.1 434.1 390.1 432.1Z" fill="#76413A"/>
<path d="M203 847.7C202.7 847.5 196.3 847 188.7 846.6C175.5 845.9 172 845.6 150 843C127.8 840.4 97.1003 834.5 81.9003 830C74.6003 827.8 69.4003 824.2 67.9003 820.3C67.3003 818.6 68.7003 808.1 72.8003 783.9L78.5003 749.9L81.5003 750.5C83.2003 750.9 94.9003 751.4 107.7 751.6C123.4 751.9 132.7 752.5 136.4 753.4C139.4 754.2 145.5 755.2 149.9 755.6C154.4 755.9 158 756.4 158 756.5C158 756.7 157.1 762.1 156 768.5C153.5 783.4 153.5 788.6 156 792.8C158.5 796.9 160.1 797.5 175.8 800C193.8 802.9 225.5 808.1 261 813.9C307.6 821.6 338.7 826.6 358 829.6C367.6 831.1 375.9 832.6 376.3 833C377.4 833.9 360.6 837.5 341.5 840.5C308.1 845.6 287.2 847.2 244 847.7C221.7 848 203.3 848 203 847.7Z" fill="#80B7B7"/>
<path d="M112.3 664.7C105 663.8 104 663.5 104 661.7C104 660.6 104.7 659.2 105.6 658.6C106.7 657.8 108 652.1 110.1 640C114.2 615.1 114.5 616.8 105.8 613.5C89.9 607.7 66.4 603.5 43.5 602.4C27.7 601.7 18.7 602.8 15.8 606C14.5 607.4 12.6 608 9.6 608C4.5 608 2 605.3 2 599.6C2 589.4 18.4 538.2 30.8 510C37.9 493.6 51.9 465.6 53.1 465.2C53.6 465 54 464.3 54 463.7C54.1 460.8 68.3 444.3 80.1 433.3C84.7 429.1 85.5 427.9 84.7 426.4C83.9 425 84.2 424.2 86.1 422.8C88.4 420.9 88.4 420.9 89.2 422.9C89.9 424.9 90.2 424.8 96.2 420.7C102 416.7 104.8 415 118.4 407.6C126.4 403.2 143.7 396 156.4 391.9C163 389.8 168.4 388.1 168.5 388.3C168.6 388.4 169.9 391.1 171.3 394.2C174.7 401.7 182.7 412.2 190.3 419.1C205.2 432.6 224 440.4 244.5 441.7C272.5 443.3 295 428 298.5 404.7C299.4 398.8 298.5 394.9 296.5 395.6C294.9 396.3 294.6 394.2 295.6 390.3C296.3 387.8 299 387.1 299 389.4C299 390.4 302.8 392.1 310.8 394.5C328.5 400 349.1 407.6 362.3 413.5C372.4 418.1 374.2 418.6 375.5 417.4C377.6 415.2 382.2 417.5 381.4 420.4C381 422.2 381.7 423 385.7 424.9C405.8 434.7 442 465 463.9 490.5C468.6 496 473.1 501 474 501.7C476.8 504 468.7 503.2 461.7 500.5C412.7 482.1 297.5 466.1 260.5 472.5C255.6 473.4 248.7 475.3 245.1 476.7C238.9 479.2 238.2 479.3 231.7 478.2C220.5 476.2 211.8 476.6 208 479.3C201.7 483.6 200.9 485.6 197.8 505.2C196.3 515.3 192.5 539.3 189.5 558.5C186.5 577.8 182.8 601.6 181.2 611.4L178.5 629.3L172.5 630.9C162.8 633.6 156.4 637.8 143.9 649.8C135.2 658.2 132 661.8 132 663.6C132 665.9 131.7 666 126.3 665.9C123.1 665.8 116.8 665.3 112.3 664.7ZM136.8 598C136.8 596.4 136.5 597 135.9 599.5C135.5 601.7 135.1 604.9 135.2 606.5C135.2 608.7 135.5 608.4 136.1 605C136.5 602.5 136.8 599.4 136.8 598ZM139.7 561.8C139.5 560 139.3 561.4 139.3 565C139.3 568.6 139.5 570 139.7 568.3C139.9 566.5 139.9 563.5 139.7 561.8ZM140.7 550.3C140.5 548.7 140.3 550 140.3 553C140.3 556 140.5 557.3 140.7 555.8C140.9 554.2 140.9 551.8 140.7 550.3ZM141.7 535.8C141.5 534 141.3 535.4 141.3 539C141.3 542.6 141.5 544 141.7 542.3C141.9 540.5 141.9 537.5 141.7 535.8Z" fill="#80B7B7"/>
<path d="M564.1 694.5C546.8 686.4 533.9 671.9 529.5 655.5C526.8 645.6 527.6 587.9 530.6 575.5C532.4 568.4 533.4 567.2 543 560.7C550.1 556 566.8 542.6 573.6 536.3C575.2 534.8 579.5 531 582.9 528L589.2 522.6L609.4 529.3C620.4 533 632.4 536.5 636 537.1C639.6 537.7 642.8 538.7 643.2 539.3C644.6 541.6 644 550.7 640.9 571C635.7 606 631.3 622.3 622.3 640.8C613.7 658.4 587.9 691.5 579.7 695.4C574.8 697.7 570.4 697.4 564.1 694.5ZM594.5 610C608.3 584.3 613.8 573 613 572.5C612.1 571.9 610.3 574.5 603 587.5C599.8 593 594.2 602.8 590.4 609.4L583.5 621.2L578.2 620.8C573.3 620.4 572.4 619.9 567 614.5C561.6 609.2 559 608.2 559 611.4C559 613.6 568.2 627 574 633.3L579.4 639.2L582.8 632.3C584.6 628.6 589.9 618.5 594.5 610Z" fill="#F16B32"/>
<path d="M571.8 637C565.1 630.2 556.5 617.4 555.5 612.9C554.6 608.9 557.1 605 560.6 605C562.4 605 565.1 606.8 569.3 610.9C572.7 614.2 576.6 617.1 578 617.5C580.7 618.2 582 616.3 600.2 584.1C608.5 569.5 609.6 568 613 568C615.9 568 617 569.5 617 573.3C617 575.4 605.6 598.6 597.5 613C595.2 617.1 590.9 625.2 588 631C585.1 636.8 582.2 641.8 581.6 642.2C579.3 643.8 577.4 642.8 571.8 637Z" fill="#FDE8C2"/>
<path d="M471.5 510.4C466 509.6 453.2 507.9 443 506.5C432.8 505.1 416.2 502.8 406 501.4C395.8 500.1 384.6 498.5 381 498C374.5 497 334.6 491.8 321.5 490.2C317.7 489.7 296.2 486.9 273.8 483.9L233 478.6L237.9 475.8C247 470.5 256.3 468.8 278.5 468.3C330.9 467 423.8 481.8 466.2 498.1C470.4 499.8 477.4 503.4 481.6 506.1L489.3 511.1L493.9 506.7C496.4 504.3 502.5 499 507.5 494.9C512.4 490.8 518.5 485.7 521 483.5C527.1 478.2 563 454.3 580.5 444C595.7 435.1 627.9 418.9 640.2 414.1C647.2 411.3 649 411.1 660.8 410.9C667.9 410.8 674.3 411 674.9 411.5C675.7 412 672.6 414.2 666.3 417.8C660.9 420.8 643.5 430.7 627.5 439.7C611.6 448.8 592.7 459.5 585.5 463.5C553.5 481.3 536.8 490.8 527 496.3C521.2 499.6 512.6 504.3 507.8 506.8C499.7 510.9 498.4 511.3 490.3 511.6C485.4 511.7 477 511.2 471.5 510.4Z" fill="#FDE8C2"/>
<path d="M170.3 721.3C168.3 720.6 168.8 719 171.3 718.1C174.1 717 202.4 715.5 214.5 715.8C219.5 716 225.2 716.5 227.2 717.1C230.7 718 232.8 719.6 231.7 720.6C231.1 721.2 171.8 722 170.3 721.3Z" fill="#E68D42"/>
<path d="M235.5 696C225.3 693.9 204.1 691.7 188.7 691.1C177.4 690.7 171.5 690.1 171.3 689.4C170.7 687.5 174.8 687.1 192.1 687C208.5 686.9 216.3 687.6 231.7 690.7C241 692.5 244.5 694.3 242 696C241.2 696.5 240.3 696.9 240 696.9C239.7 696.8 237.7 696.4 235.5 696Z" fill="#E68D42"/>
<path d="M234.5 666.4C225.9 664.1 208.2 662 192.5 661.4C184.3 661 177.1 660.4 176.6 659.9C172.6 656.2 191.8 654.9 213.6 657.5C232.5 659.7 244.5 663.8 240.8 666.7C239.9 667.4 237.9 667.3 234.5 666.4Z" fill="#E68D42"/>
<path d="M112.9 665.5C112.4 665 100.3 663.9 94.5 663.8C92.9 663.8 91.1 663.4 90.5 663C90 662.6 87.3 662 84.5 661.7C70 660.1 67.4 659.6 66.8 658.6C65.5 656.6 67.3 655.9 72.8 656.5C77.5 656.9 88.5 657.6 104.3 658.4C105.8 658.4 107 659 107 659.6C107 660.3 111.8 661.2 119.5 662C128.5 663 132 663.7 132 664.7C132 665.7 129.7 666 122.7 666C117.5 666 113.1 665.8 112.9 665.5Z" fill="#E68D42"/>
<path d="M651.6 619.5C650.2 618.2 649 616.6 649 616C649 614.7 652.6 614.7 656.6 616.2C661.1 617.8 677.1 615.2 684.4 611.6C690.6 608.6 691 608.5 691 610.5C691 611.3 689.3 613.1 687.2 614.5C680.7 618.8 672.3 621.3 662.9 621.6C654.9 621.9 654.1 621.8 651.6 619.5Z" fill="#E68D42"/>
<path d="M659.8 592.2C657.7 591.3 656 590.2 656 589.9C656 589.5 658.1 589 660.8 588.7C668 587.8 669.4 587.4 669.8 586C670.2 585 670.4 585 671 586C671.5 586.8 672.5 587 673.6 586.5C674.7 586.1 677.2 585.6 679.2 585.6C681.3 585.5 685 584.1 688 582.2C690.8 580.4 693.3 579 693.6 579C694.8 579 690.7 585.1 687.7 587.6C680.8 593.5 680.8 593.5 672 593.7C665.8 593.9 662.5 593.5 659.8 592.2Z" fill="#E68D42"/>
<path d="M253.5 399.5C240.5 397.2 219.7 388.5 211.1 381.7C204.9 376.7 194.8 366.9 195.4 366.3C195.9 365.8 200.2 367.5 212.5 373C233 382.2 263.6 387.5 289.8 386.4L299.1 386.1L298.8 390.3C298.5 394.3 298.3 394.6 292.7 397.4C287.3 400.1 285.9 400.4 274.2 400.6C266.5 400.8 258.3 400.3 253.5 399.5Z" fill="#E68D42"/>
<path d="M305.4 285.2C303.7 284.1 303.1 280.2 304.4 279.2C305 278.6 307.1 277.9 309 277.5C318.5 275.6 325 268.1 323.6 260.6C322.6 255.5 320 252.9 312.9 250C307.1 247.7 306.5 247.2 306.2 244.3C305.9 241.5 306.3 241 308.5 240.4C314.2 239 325.4 244.8 330 251.6C332.1 254.7 332.5 256.5 332.5 262.4C332.4 272.4 328.1 279.4 318.9 284C315.1 286 307.5 286.7 305.4 285.2Z" fill="#E68D42"/>
<path d="M125.6 282.4C124.7 281.6 124 280 124 279C124 275 120.9 265.4 118.3 261.6C113.3 254 105.3 248 100.1 248C97.1999 248 95.1999 243.7 96.9999 241.5C100.3 237.5 111.3 241.4 119.5 249.5C126.3 256.1 129.4 261.8 131 269.9C132.5 278.2 132.3 281.8 130.1 283C127.6 284.3 127.4 284.3 125.6 282.4Z" fill="#E68D42"/>
<path d="M55.5 442.8C52.9 441.4 47.1 434.9 47 433.3C47 432.6 46.7 432 46.2 432C45.1 432 39.5 423 38.1 419C36.5 414.3 35.6 408.6 35.6 402.3C35.5 399.4 35.2 397 34.8 397C34.3 397 34 395.2 34 393C34 390.8 34.4 389 35 389C35.5 389 35.8 388.4 35.6 387.8C34 382.6 34 381.1 36 380.5C37.1 380.1 37.8 379.4 37.4 378.9C37.1 378.4 36.4 378.2 35.9 378.5C34.3 379.6 35 377.8 36.8 376.4C37.8 375.6 38 375.1 37.3 375C36.6 375 36 373.9 36 372.6C36 371.3 36.6 369.9 37.3 369.7C38.2 369.3 38.2 369 37.3 368.3C35.5 367 37.6 355.3 42.2 339.5C43.4 335.7 44.4 331.8 44.5 331C44.7 330.2 45.3 327.5 46 325C46.6 322.5 47.4 319.2 47.7 317.5C48.3 314.1 50.7 311 52.7 311C53.4 311 54.6 312.1 55.2 313.5C56.1 315.5 55.9 317.1 54.1 322.2C50.1 334 47.1 344.1 46.5 348C46.2 350.2 45.3 353.8 44.5 355.9C41.5 364.6 39.7 379.9 40.3 392.4C41.2 410.2 43.7 418.4 52.7 432.8C54.5 435.7 56 438.4 56 438.9C56 439.4 56.5 440 57.1 440.2C57.7 440.4 58.1 441.3 57.9 442.2C57.6 443.6 57.1 443.7 55.5 442.8Z" fill="#582924"/>
<path d="M84.5001 426C84.2001 424.9 84.2001 423.1 84.5001 422C84.8001 420.9 84.7001 420 84.2001 420C80.8001 420 73.0001 386.7 73.6001 374.9C74.5001 357.2 78.0001 342.1 82.8001 335C83.0001 334.7 83.8001 335.4 84.6001 336.4C86.4001 338.9 86.3001 342.4 84.4001 347.5C81.6001 354.5 80.1001 366.3 80.5001 378.1C80.6001 384.4 81.0001 390.6 81.3001 392C81.5001 393.4 82.1001 396.3 82.5001 398.5C82.9001 400.7 84.5001 406.3 86.0001 411C89.5001 421.3 89.9001 424.2 88.1001 426.4C86.3001 428.5 85.3001 428.4 84.5001 426Z" fill="#582924"/>
<path d="M376.7 420.4C374.3 419.1 374.1 418.7 375.4 417.4C376.3 416.6 377.2 414.3 377.6 412.2C377.9 410.2 378.8 406 379.5 403C380.2 400 381.1 391.9 381.4 385C381.7 377.9 382.5 372.1 383.1 371.5C383.9 370.8 384.4 370.9 384.7 371.8C385 372.4 385.6 372.8 386.1 372.5C386.5 372.2 386.9 374.7 386.9 378.2C386.9 401.6 386.9 402 388.2 402C389.1 402 389.2 402.3 388.4 402.8C387.8 403.2 386.9 405.1 386.5 407C385.7 411.1 381 422 380.1 422C379.8 421.9 378.3 421.2 376.7 420.4Z" fill="#582924"/>
<path d="M128.1 185.3C128 182.8 123.9 178.5 123.1 179.9C122.3 181.1 118.1 181.7 118.1 180.7C118.1 179.3 115.2 177 113.3 176.9C111.9 176.9 112.1 176.6 114 175.8C115.4 175.2 117 174.8 117.7 174.9C118.4 175 119.4 174.2 120 173.1C120.8 171.5 121.7 171.2 124 171.6C126.2 172.1 129 171.2 135.4 168.1C140 165.9 144.1 164 144.6 164C145.7 164 161.1 154.9 164.8 152.1C166.6 150.7 170.4 147.5 173.3 144.9C176.2 142.4 181.7 138.1 185.5 135.3C193 129.8 203.6 119.1 206 114.5C206.8 112.9 210.4 108.7 213.9 105.1C219 99.9 220.4 98.9 220.8 100.3C221.5 103.4 218.2 111 213.9 116.3C207.6 124 189.6 141.4 180.5 148.5C167.2 158.9 145.7 171.3 139 172.4C137.1 172.7 134 173.9 132.1 175.1C129 177 128.9 177.2 130.4 178.9C132.4 181.1 132.4 182.6 130.6 183.7C129.9 184.1 129 185.2 128.7 186C128.3 187 128.1 186.8 128.1 185.3Z" fill="#582924"/>
<path d="M164.8 185.3C163.9 185.1 162.9 184.2 162.6 183.4C162 181.7 164.5 180.6 173 178.6C176.1 177.9 179.5 176.8 180.5 176.2C181.6 175.6 186.8 173 192 170.4C205.5 163.6 206.9 162.9 213 159C216 157.1 219.7 154.8 221.2 154C231.9 148 264.4 117.5 274.4 104.1C278.6 98.6 292.3 83 293 83C293.4 83 294.3 83.7 295 84.5C296.1 85.8 295.4 87.4 290.8 94.3C287.8 98.8 284 104.5 282.5 107C280.9 109.5 278.8 112.1 277.8 112.8C276.8 113.5 276.2 114.6 276.5 115.1C276.9 115.6 276.6 116 275.9 116C275.2 116 269.5 121.1 263.1 127.4C256.7 133.7 249.6 140.3 247.3 142.2C238.5 149.1 236.5 150.6 231.3 154.2C228.3 156.3 224.5 158.7 222.7 159.6C220.9 160.5 218.3 162.3 216.9 163.7C215.5 165 212.8 167 210.9 168C205.1 171.3 191.2 178 190.1 178C189.5 178 187.6 178.8 185.8 179.8C182.1 181.9 169.7 186.1 167.8 185.9C167.1 185.8 165.8 185.6 164.8 185.3Z" fill="#582924"/>
<path d="M427.4 825.5C426.9 823.4 427.4 817.2 428.6 812.5C429.1 810.4 433.1 789.3 434.1 783.5C434.6 780.2 435.7 774.1 436.5 770C437.2 765.9 438.4 758.5 439.1 753.7C439.8 748.9 440.6 744.7 441 744.5C442.2 743.8 445.9 745.2 446.4 746.6C446.7 747.3 446.3 750.3 445.5 753.3C444.8 756.2 442.7 766.7 440.9 776.6C439.2 786.4 437.4 796.8 436.9 799.5C436.4 802.3 436.1 805.6 436.2 807C436.4 810 433 825 431.7 826.8C430.2 828.8 428.1 828.2 427.4 825.5Z" fill="#F2A847"/>
<path d="M459.399 823.7C459.099 822.9 459.799 816.9 460.999 810.3C462.099 803.7 462.999 796 462.999 793.2C462.999 790.4 463.499 786.9 464.099 785.3C465.499 781.7 470.799 748.9 471.899 736.8C472.699 727.9 473.199 725.1 474.499 720.9C474.899 719.9 475.099 717.1 475.099 714.8C475.099 712.4 475.999 706.9 476.999 702.5C478.699 695.1 480.599 682.7 482.999 664C484.199 654.5 486.599 639.8 487.499 637.1C487.799 635.9 488.299 633.1 488.499 630.8C488.699 628.4 489.399 623.6 489.999 620C490.499 616.4 491.199 611 491.399 608C491.699 605 492.499 599.1 493.399 595C494.199 590.9 495.099 585.9 495.299 583.9C495.499 582 496.099 579.5 496.599 578.4C497.099 577.4 497.499 570.3 497.499 562.8C497.499 555.2 497.699 549 497.999 549C498.999 549 500.799 542.6 501.499 536.5C502.299 529.1 504.599 520 505.999 518.6C509.199 515.4 509.699 527.4 506.899 540.8C505.799 545.9 505.799 547.5 506.799 549.1C507.799 550.7 507.799 551.5 506.899 552.6C506.299 553.4 505.999 555.3 506.299 556.9C506.699 558.7 506.499 560 505.799 560.2C504.299 560.7 501.199 571.5 501.499 575.3C501.599 577 501.299 581.4 500.799 585C500.299 588.6 499.899 594.7 499.799 598.5C499.799 602.4 499.299 606 498.799 606.6C497.599 608.2 494.299 625.6 493.499 635C493.099 639.1 492.599 643.4 492.299 644.5C492.099 645.6 491.499 651 490.999 656.4C490.499 661.8 489.599 667.7 489.099 669.4C488.499 671.1 487.599 675.4 486.999 679C484.699 692.9 482.899 704.7 482.399 708.5C482.199 710.7 481.799 714.3 481.499 716.5C481.199 718.7 480.799 722.3 480.499 724.5C480.199 726.7 479.799 729.6 479.499 731C478.899 733.4 477.099 744.4 473.099 770C470.899 783.7 467.999 803.5 467.299 809C466.199 818 464.799 823.1 462.999 824C460.499 825.3 459.999 825.3 459.399 823.7Z" fill="#F2A847"/>
<path d="M446.999 731.1C446.999 730.6 446.099 729.9 444.999 729.5C443.299 728.9 443.099 728.2 443.499 722.9C443.699 719.6 444.099 716.6 444.399 716.2C444.899 715.4 446.999 701 447.399 695.4C447.599 693.7 447.999 691.8 448.399 691.2C448.999 690.2 451.599 673.3 455.999 642C456.999 634.6 459.199 620.1 460.899 609.9C462.599 599.7 464.299 586.9 464.599 581.4C464.999 576 465.599 570.8 465.999 570C466.399 569.2 467.099 566.3 467.499 563.5C467.899 560.8 468.799 555.6 469.599 552C470.299 548.4 471.199 541.5 471.399 536.6C471.899 527.7 473.899 522.4 476.299 523.3C477.699 523.7 477.399 537.2 475.899 543.5C475.399 545.7 474.699 550.7 474.399 554.5C474.199 558.4 473.499 564.2 472.999 567.5C472.499 570.8 471.299 578.5 470.399 584.5C469.599 590.6 468.699 596.5 468.499 597.6C468.299 598.8 467.899 602.2 467.499 605.1C466.599 613.2 466.199 616.1 465.099 621C464.599 623.5 463.799 629.1 463.499 633.4C463.099 637.8 462.499 642.2 461.999 643.4C461.599 644.6 461.199 645.8 461.199 646.3C461.099 646.7 460.799 650.3 460.399 654.3C459.899 658.2 459.699 662 459.799 662.7C459.999 663.4 459.199 667.7 457.999 672.4C456.899 677 455.799 682.8 455.499 685.3C455.299 687.8 454.799 690.9 454.599 692.2C454.299 693.4 453.799 697 453.499 700C453.199 703 452.599 707.2 452.099 709.3C451.599 711.4 451.499 714.4 451.999 716C452.399 717.5 452.499 719.2 452.099 719.6C451.699 720.1 450.599 723.1 449.599 726.3C447.999 731.5 446.999 733.4 446.999 731.1Z" fill="#F2A847"/>
<path d="M293.8 325C279.9 323.7 258 308.3 260.6 301.6C261.6 298.9 265.4 299.8 269 303.5C280.4 315.3 295.7 319.5 313.5 315.6C320.3 314.2 324.5 312.2 331.2 307.3C335.9 303.9 335.9 303.9 337.9 305.9C340.5 308.5 339.7 311.3 335.3 314.6C324.6 322.7 309.8 326.4 293.8 325Z" fill="#633E3A"/>
<path d="M231.5 250.7C224.8 244 226.3 229.5 234.1 225.5C237.6 223.6 243.1 224 245.7 226.2C248.2 228.2 251 235.1 251 239.3C251.1 251.8 239.4 258.6 231.5 250.7Z" fill="#633E3A"/>
<path d="M348.2 236.7C341 233.3 339.9 216.6 346.6 210.9C351.5 206.7 359.1 208.3 362.8 214.3C366.9 220.8 365.3 232.6 359.8 236.4C357.2 238.2 351.6 238.4 348.2 236.7Z" fill="#633E3A"/>
<path d="M202.2 216.8C200.5 215.1 200.7 213.5 203.1 208.9C209.3 196.7 230.9 185.5 240.5 189.4C244.5 191.1 246.3 193.4 245.5 195.9C244.8 198.1 244.1 198.4 235.5 199.9C226.7 201.5 218.2 206.1 212.2 212.5C207.1 218 204.5 219.1 202.2 216.8Z" fill="#633E3A"/>
<path d="M371.1 176.1C368.7 174.5 363.6 172.2 359.8 170.9C353.8 169 351.5 168.8 343 169.3C331.9 170 329.6 169.1 330.2 164.1C330.7 160 334.8 158.6 347 158.6C358.6 158.6 365 160.2 373.1 165.1C378.7 168.6 380.7 172 379.4 175.8C378.1 179.5 376.3 179.5 371.1 176.1Z" fill="#633E3A"/>
<path d="M122.5 626.3C119.8 625.5 116.5 624.6 115.3 624.3C113.6 623.9 113 623 113 620.9C113 618.1 114.7 617 116.4 618.7C116.8 619.1 118.1 619.5 119.3 619.6C120.5 619.7 123.4 620.1 125.8 620.5C129 621.1 130 620.9 130 619.9C130 619.1 130.7 613.3 131.5 607C134.8 583 135.1 580.3 135.5 572C136 564 137.3 546.5 138.6 530.3C139.2 523 140.5 520.5 143.3 521.6C145.3 522.3 146.1 527.1 145.4 535.5C145.1 539.4 144.7 546.3 144.6 551C144.4 555.7 144.1 560.2 143.8 561C143.5 561.8 142.5 571.5 141.6 582.5C138.9 613.8 137.4 623 134.4 625.8C131.5 628.3 129.5 628.4 122.5 626.3Z" fill="#5D9894"/>
<path d="M10.3996 612.1C4.49956 607.9 1.99956 604 2.09956 599.3C2.29956 596.3 2.39956 596.1 2.69956 598.3C2.89956 599.8 3.59956 601 4.09956 601C4.69956 601 4.79956 601.5 4.49956 602C3.79956 603.1 7.69956 604.9 9.99956 604.5C16.8996 603.3 20.2996 603.1 18.2996 604C16.5996 604.7 15.9996 605.8 15.8996 608.2C15.8996 610 15.4996 612.3 15.0996 613.3C14.4996 614.9 14.0996 614.8 10.3996 612.1Z" fill="#5D9894"/>
</g>
<defs>
<clipPath id="clip0_2858_8438">
<rect width="705" height="848" fill="white"/>
</clipPath>
</defs>
</svg>
