<svg width="766" height="500" viewBox="0 0 766 500" fill="none" xmlns="http://www.w3.org/2000/svg">
<g clip-path="url(#clip0_2858_8234)">
<path d="M37.4001 497.4C29.7001 494.9 21.9001 489.7 15.5001 482.9C9.60014 476.6 3.20014 463.3 2.00014 454.9C1.40014 451.2 1.00014 381.7 1.10014 289C1.10014 201.3 1.00014 112.2 1.00014 91C0.900139 59.8 1.20014 51.1 2.50014 45.1C4.20014 36.8 10.4001 24.3 15.4001 18.9C20.0001 14 31.6001 6.39999 36.8001 5.09999C39.1001 4.49999 42.8001 3.49999 45.0001 2.99999C49.3001 1.79999 145.4 1.79999 165.3 2.89999C172.8 3.29999 176.4 3.19999 176.8 2.39999C177.7 0.999994 194.2 -0.100006 199.8 0.999994C202.1 1.39999 206.2 1.29999 208.8 0.799994C211.8 0.199994 223.2 0.299994 240 0.999994C275.3 2.49999 368.9 2.49999 390.9 1.09999C403.6 0.199994 416 0.199994 436.9 0.899994C465 1.99999 617.1 3.19999 683.2 2.99999C715.1 2.89999 726.4 3.59999 730.9 5.99999C731.8 6.49999 734.7 7.89999 737.5 9.09999C749.4 14.6 761.7 32.3 764 47.4C765.4 56.5 765.5 447.3 764.1 454.6C762.4 463.2 759.5 469.6 753.4 477.7C746.9 486.4 745.3 487.9 739.4 491.5C730.1 497.1 723 498.3 696 498.5C684.2 498.6 662.6 498.8 648 498.9C618.8 499.2 618.7 499.2 280.7 499.4L44.0001 499.5L37.4001 497.4ZM538.7 430.1C568.5 423.5 592.1 413.1 613.5 397C630.3 384.3 651.2 360.9 661.6 342.9C664.6 337.8 670.5 324.3 674.5 313.5C683.6 288.8 685.5 252.9 679.3 222.5C676.1 207 675.2 204.2 666.9 185.1C662.2 174.5 657.5 166.5 647.7 153C641.9 145 618.6 122.1 611 117C607.4 114.6 604.3 112.4 604 112C603.3 111.1 587.4 101.7 582.5 99.2C577.4 96.7 557.3 89.5 549.5 87.5C532.8 83.1 504.3 79.7 501.7 81.8C501 82.4 497.7 82.9 494.5 82.9C474.4 82.8 441.9 93.2 419 107C412.6 110.8 406.5 114.9 405.3 116C404.1 117.1 402.8 118 402.6 118C401.6 118 389.8 129.1 380.3 138.8C375.3 144 368.4 152.1 365 156.8C359.2 165 349.3 184 344.3 196.5C341.7 203.2 337.8 219.6 335.5 234C330.9 262.8 337.3 304.8 349.8 329C357.2 343.1 362.3 352.1 365.9 357C368.1 360 371.1 364.3 372.6 366.5C374.1 368.7 380.7 375.9 387.4 382.5C413.1 408 444.9 424.1 483.5 431.1C497.2 433.6 525.3 433.1 538.7 430.1ZM261.1 395.2C262.5 394.4 264.4 392.3 265.4 390.6C267.4 386.8 266.6 383.8 262.5 380L259.8 377.5L167.9 377.2C67.7001 376.9 72.2001 376.7 68.4001 382.5C65.5001 386.9 68.4001 394.1 74.0001 396.3C74.8001 396.7 116.7 396.9 167 396.8C245.5 396.7 258.9 396.5 261.1 395.2ZM262.5 309C266.7 305.1 267.3 302.5 265.1 298.1C264 296.1 262 293.9 260.5 293.2C258.6 292.3 235.4 292 166.9 292C67.5001 292 72.4001 291.7 68.2001 297.7C67.2001 299.3 66.5001 301.2 66.7001 302C67.8001 305.7 69.7001 308.5 72.5001 310.2C75.4001 311.9 79.6001 312 167.7 311.8L259.8 311.5L262.5 309ZM161.2 172.6C184.8 151.9 198.3 137.4 203.2 127.5C208.1 117.7 210.3 109.2 209.7 102.6C208.9 92.7 205.7 85.9 198.9 79.1C181.6 62 163 62.4 144.4 80.2C136.2 88 134.6 88 125.8 79.6C115.4 69.6 102.9 64.8 93.0001 66.9C86.5001 68.3 81.7001 70.8 74.9001 76.3C70.5001 79.8 68.7001 82.4 65.7001 88.6C60.3001 100.1 60.1001 103.6 64.0001 116C67.4001 127.2 69.9001 131.7 77.0001 140C83.9001 148 102.8 166.4 104.5 166.8C105.3 167 106 167.5 106 167.9C106 169.4 129 187.1 132.6 188.4C139.2 190.6 142.9 188.6 161.2 172.6Z" fill="#FEDEC6"/>
<path d="M488.5 382C477.6 380.1 475.2 379.5 470 377.3C455.1 370.8 448.4 366.5 435.2 355.2C425.9 347.1 416 330.1 411.4 314.3C411.2 313.4 409.1 313 405.5 313C394.6 313 384.8 305 381.8 293.7C379.5 285.3 379.4 270.6 381.6 262.8C383.6 255.8 387.7 252.1 395.6 250.1C400.8 248.9 411 249.4 415.8 251.1L418 252L418.1 235.2C418.1 220.3 419.3 209.4 421.1 206.5C421.5 206 422.1 203.6 422.5 201.3L423.2 197H431.3C440.8 197 449.9 195 457.4 191.5C464.3 188.3 467.9 188.3 474.3 191.9C483.6 197.2 495 200 507 200C514.7 200 528.8 195.9 537.8 191C540.8 189.4 544.8 188 546.5 188C549.2 188 550.1 188.7 553 193.5C559.1 203.2 568.3 214.3 574.5 219.3C580.6 224.2 592.8 231 595.5 231C598.5 231 600.2 237.3 599.5 245.5L598.7 253.2L602 251.5C604.6 250.2 607.3 249.9 614.9 250.2C626.3 250.6 629.3 251.9 633.4 258C636.4 262.4 636.5 262.7 636.4 275.5C636.4 295.2 633.7 302 623.3 309.1C620 311.4 617.3 312.3 612.4 312.8L605.9 313.5L602.7 321.5C593.9 343.1 579.9 359 561.3 368.3C557.4 370.3 553.7 372.6 553.3 373.5C551.6 376.4 533.3 381.8 521 382.9C506.1 384.3 500.6 384.2 488.5 382ZM524.4 326C527.9 324.8 535.5 318.7 537.7 315.3C538.9 313.4 539 312.6 538.1 311.7C537.2 310.8 536.2 311.4 533.7 314.3C528.7 320.2 522.5 322 507.7 322C492.4 322 489 321.1 483.6 315.4C479.6 311.3 478 310.7 478 313.4C478 315.6 485.6 322.4 490.7 324.7C499.3 328.6 515.1 329.3 524.4 326ZM557.1 263.9C558.1 260.7 558 259.7 556.6 257.5C554.6 254.4 552.4 254.3 549.3 257.2C546.3 260 546.4 262.3 549.6 267.8L552.3 272.4L554.1 270.1C555.1 268.8 556.5 266.1 557.1 263.9ZM467.8 265.8C470.1 261.4 470.1 261.1 468.5 258.6C467.6 257.2 465.9 255.8 464.8 255.4C462.1 254.6 459 257.6 459 261.3C459 264.7 462.7 271.3 464.3 270.7C465 270.5 466.5 268.3 467.8 265.8Z" fill="#FEC198"/>
<path d="M74.1 399.9C68.6 398.8 65.5 396 64.2 390.7C62.7 385 62.9 383 65.2 379.7C69.5 373.7 64 373.9 168 374.2L263 374.5L266.1 377.6C271.9 383.5 270.9 394.3 264.1 398.3C261.8 399.6 249.5 399.8 170.6 399.9C120.5 400 79.4 400.2 79.1 400.4C78.8 400.5 76.5 400.3 74.1 399.9Z" fill="#A7A7CC"/>
<path d="M69.8997 313.5C66.2997 311.5 64.0997 307.8 63.3997 302.6C62.6997 297.5 65.0997 293 69.9997 290.5C74.2997 288.3 259.6 288.2 263.9 290.4C270.6 293.9 271.8 305.6 266.1 311.4L263 314.5L167.7 314.7C86.7997 314.9 72.0997 314.7 69.8997 313.5Z" fill="#A7A7CC"/>
<path d="M597.4 260.2C597.7 259.7 597.3 258.2 596.6 256.8C595.6 254.8 595.4 252.3 596 247C596.8 239.4 595.4 234 592.4 234C589.8 234 577.5 227.1 571.5 222.3C565 217 556.6 207.2 552 199.5C546.6 190.4 547.1 190.6 540.7 194C537.7 195.7 531 198.4 525.8 200.1C518.1 202.6 514.9 203.1 507.1 203.1C492.1 203 481.3 200.6 471.2 194.9L465.9 191.9L460.5 194.5C452.9 198.1 443.8 200 434.2 200C429.7 200 426.1 200.3 426.2 200.8C426.4 201.7 425.1 206.8 424 209.5C421.9 214.8 421 223.7 421 240.6C421 250.7 420.6 259 420.2 259C419.7 259 418.5 258.1 417.5 257C415.4 254.7 411.1 253.2 405.5 252.9C401 252.6 394.1 253.8 392.4 255.1C391.1 256.2 389.9 253.5 387.3 244C384.5 233.9 384.8 213.4 387.9 200.5C390.7 188.8 393.2 181.6 397.2 174.1C398.8 171.1 401.3 166.6 402.6 163.9C406.6 156.3 426.9 136.5 437.5 129.9C448 123.3 458.9 118 461.9 118C463 118 467 116.6 470.7 114.9C474.8 113 480.3 111.4 484.5 110.9C494.6 109.7 517.2 109.8 522.7 111.1C549.6 117.1 561.8 124.1 570.9 138.5C573.2 142.1 575.4 145 575.8 145C595.9 145.9 614 158 626.7 179.1C628.9 182.8 631 186.8 631.2 188.1C634.2 201.2 636.1 213.1 636 217.3C635.9 220.2 636.2 224.8 636.5 227.6C637.1 231.6 636.9 233 635.6 234.2C634.7 235.1 634 236.6 634 237.5C634 238.4 632.7 242 631.1 245.3C629.6 248.7 628 252.5 627.6 253.7C626.9 255.8 626.7 255.8 622.8 254.4C616.3 252.1 608.4 252.6 603.3 255.5C601 256.9 599 258.7 599 259.5C599 260.3 598.5 261 597.9 261C597.4 261 597.1 260.6 597.4 260.2Z" fill="#FEC04E"/>
<path d="M405 403.2C396.1 397.2 374.2 376.3 369.6 369.5C368.1 367.3 365.1 363 362.9 360C354.4 348.4 340 319.4 338.5 311C338.2 309.2 337.1 304.6 336 300.6C329.5 276.6 329.3 242.8 335.5 215C336.2 211.4 337.1 207.1 337.4 205.4C339.1 195.9 353.3 166 362 153.8C365.4 149.1 372.3 141 377.3 135.8C386.8 126.1 398.6 115 399.6 115C399.8 115 401.1 114.1 402.3 113C403.5 111.9 409.6 107.8 416 104C438.3 90.5 469 80.5 491.5 79.5C494.8 79.3 498.3 78.8 499.4 78.4C504.2 76.5 536.1 80.1 552.5 84.5C560.3 86.5 580.4 93.7 585.5 96.2C590.4 98.7 606.3 108.1 607 109C607.3 109.4 610.4 111.6 614 114C621.6 119.1 644.9 142 650.7 150C661 164.2 665.5 172 671.6 186.1C677.3 199.4 679.1 204.5 681.7 215.2C682.4 218.3 682.9 221.6 683.6 227.5C683.9 230.2 684.6 233.2 685.1 234.2C686.5 236.8 686.1 271.1 684.5 284.7C682.2 303.9 679.7 312.9 670.5 333.8C663.2 350.4 653 365 637.5 380.9C622 396.9 603 411.3 603 407.1C603 405.3 593.3 396.4 586.4 391.9C582.6 389.3 578.9 386.6 578.2 385.7C577.4 384.8 575.2 383.6 573.2 382.9C571.2 382.2 569.3 381.4 569 381C568.1 379.7 563.1 379 562.5 380C562.2 380.5 560.2 381 558.2 381C555.4 381 553.6 380.1 550.7 377.4L546.9 373.9L549.2 371.4C550.5 370 554.7 367.3 558.5 365.3C577.1 355.8 591 340 599.7 318.5L602.9 310.5L609.4 309.8C614.3 309.3 617 308.4 620.3 306.1C630.2 299.3 633.3 292 633.3 275.5C633.3 266.5 633.1 265.1 630.8 261.5C629.4 259.3 627.1 256.5 625.7 255.3L623.1 253.1L624.9 249.3C629.2 240.3 631 236 631 234.5C631 233.6 631.7 232.2 632.5 231.3C633.5 230.3 633.7 229.4 633.1 228.6C632.6 228 632.3 224.4 632.5 220.5C632.7 216.7 632.1 210.4 631.3 206.5C630.5 202.7 629.7 198.8 629.6 198C628.3 189.2 623.6 180.1 615.4 170.3C606.9 160.4 591.8 150.5 583.4 149.5C571.9 148.1 572.2 148.2 567.9 141.4C558.8 127.1 546 119.8 519.5 114C514.4 112.9 485.6 113.4 481.5 114.7C480.4 115 476.7 116.6 473.2 118.1C469.8 119.7 466 121 464.9 121C461.9 121 451 126.3 440.5 132.9C429.9 139.5 409.6 159.3 405.6 166.9C404.3 169.6 401.8 174.1 400.2 177.1C395.2 186.5 390.5 201.7 389.3 212.5C387.7 226 389.6 243.4 393.5 250.9C394.7 253.2 394.5 253.6 390.5 256.6C387.1 259.3 386 260.9 384.7 265.7C381 278.8 383.6 294.3 390.6 301.6C396.4 307.5 401.7 310 408.5 310C412.1 310 414.2 310.4 414.4 311.3C419 327.1 428.9 344.1 438.2 352.2C447.3 360 456.2 366.4 462.3 369.4C468 372.3 469.4 374.7 466.8 376.7C466.1 377.2 462.8 378.7 459.5 380C443.7 386.2 428.8 395.1 418.1 404.7L413.4 408.9L405 403.2Z" fill="#FEA662"/>
<path d="M480.5 434.1C465.2 431.3 443.7 424.9 434.5 420.3C423.5 414.9 411 407.4 411 406.4C411 405.5 417.7 398.9 421.5 396.1C427.1 392 433 388.4 439.6 385C443.9 382.8 448.4 380.4 449.5 379.8C450.6 379.1 451.7 378.6 452 378.5C453.3 378.4 462.6 374.6 463.7 373.7C464.4 373.2 464.7 372.3 464.4 371.8C463.6 370.6 466.7 371.5 472.5 374C477.9 376.4 482.8 377.6 493.5 379.3C509.2 381.7 524.5 380.3 539.7 375.3L551 371.6L554.4 374.9C557.4 377.8 558.2 378.1 559.5 377C561.2 375.6 570.9 376.2 571.9 377.8C572.2 378.3 574.2 379.2 576.2 379.9C578.2 380.6 580.4 381.8 581.2 382.7C581.9 383.6 585.6 386.3 589.4 388.9C596.2 393.3 606 402.3 606 404C606 404.5 606.8 405 607.8 405.2C610 405.7 588.1 418.2 578.5 422C568.8 425.8 552.7 430.7 541.7 433.1C528.2 436.1 494.6 436.7 480.5 434.1Z" fill="#FE8255"/>
<path d="M129.6 191.4C125.8 190 103 172.4 103 170.8C103 170.4 102.6 170.1 102.1 170.3C100.9 170.6 80.4005 150.5 73.1005 141.8C68.1005 135.9 62.9005 127.5 62.4005 124.5C62.3005 124 61.2005 120.1 60.0005 116C56.8005 105.1 57.5005 96.9 62.6005 86C65.7005 79.4 67.5005 76.9 72.0005 73.2C89.8005 58.6 111.3 59.9 128.7 76.6L135.4 82.9L141.5 77.1C152.7 66.4 162.8 62.3 175.8 63.4C185.6 64.2 194 68.3 201.9 76.1C209.6 83.7 212.1 90 212.8 102.6C213.3 112.5 211.6 119.7 206.2 130.5C201.3 140.4 187.8 154.9 164.2 175.6C144.3 193 139.7 195.1 129.6 191.4Z" fill="#FE8255"/>
<path d="M505 331.6C504.7 331.4 502.1 331 499.3 330.9C485 330.2 469.4 315.8 475.6 308.9C478.3 305.9 481.5 306.5 484.7 310.5C489.8 317 492.8 318.2 505.3 318.7C519.3 319.3 526 317.3 531 310.9C533.3 308.1 534.9 307 536.9 307C540.6 307 542 308.7 542 313.4C542 316.9 541.4 318 536.9 322.3C531.8 327.2 527.6 329.6 522.4 330.4C516.3 331.4 505.5 332.1 505 331.6Z" fill="#834F47"/>
<path d="M459.6 272.7C456 268 454.8 264 455.5 259.4C456.4 253 460.8 250.1 466.6 252C474.6 254.7 475.1 266 467.6 273.5C464.3 276.8 462.6 276.7 459.6 272.7Z" fill="#834F47"/>
<path d="M546.899 271.2C543.099 265.2 542.799 257.5 546.299 254.2C551.399 249.5 558.099 250.6 560.699 256.7C562.099 260.1 562.099 260.9 560.599 265.7C558.499 272.2 556.099 275.1 552.599 275.5C550.299 275.8 549.399 275.1 546.899 271.2Z" fill="#834F47"/>
</g>
<defs>
<clipPath id="clip0_2858_8234">
<rect width="766" height="500" fill="white"/>
</clipPath>
</defs>
</svg>
