<svg width="766" height="651" viewBox="0 0 766 651" fill="none" xmlns="http://www.w3.org/2000/svg">
<g clip-path="url(#clip0_2858_8327)">
<path d="M373.533 648.95C371.059 647.924 361.914 642.286 353.092 636.545C313.716 610.402 301.236 602.098 294.243 597.177C290.155 594.307 277.998 585.798 267.347 578.519C256.696 571.137 244.97 562.833 241.312 560.065C237.654 557.4 228.725 550.838 221.516 545.507C214.201 540.176 206.024 533.923 203.335 531.667C200.537 529.309 194.19 524.286 189.241 520.287C174.179 508.293 145.669 483.278 129.747 468.002C83.9161 424.226 47.445 374.709 27.4343 329.191C18.0745 307.867 9.25257 278.136 5.48712 255.274C4.73403 251.071 3.76577 245.022 3.22785 241.946C1.5065 232.31 -0.214844 197.76 0.538246 189.661C4.73403 143.835 16.3531 112.874 41.743 79.9653C62.8295 52.6951 92.738 30.1408 124.798 17.2233C140.721 10.8671 151.264 7.48392 162.99 5.22849C197.525 -1.43529 224.529 -0.820172 256.912 7.27888C284.668 14.2502 318.665 32.0886 340.827 51.1573C354.383 62.8446 373.318 85.5014 380.311 98.3164L382.14 101.802L389.025 91.8576C410.65 60.2816 435.932 38.4449 469.821 21.9392C521.999 -3.48568 581.063 -5.94616 635.931 14.9679C680.363 31.9861 716.942 63.0496 739.535 103.032C748.034 118.103 751.261 125.382 755.995 139.939C767.291 174.899 769.013 213.446 761.051 257.837C756.21 285.517 743.3 322.834 729.529 349.49C708.981 389.165 677.351 429.147 633.241 471.078C589.347 512.906 542.763 549.403 475.523 594.614C469.283 598.715 461.107 604.354 457.234 607.019C453.36 609.685 444.216 615.733 436.792 620.449C429.369 625.165 417.212 633.059 409.681 637.98C402.258 642.901 393.974 647.822 391.392 648.95C385.475 651.513 379.45 651.513 373.533 648.95ZM431.951 495.068C438.191 491.889 441.096 489.121 443.893 483.38L446.475 478.254V431.915V385.474H494.35C547.174 385.474 546.744 385.474 553.844 379.015C555.888 377.17 558.47 373.889 559.761 371.634C562.128 367.636 562.128 366.713 562.128 324.475C562.128 282.339 562.128 281.314 559.761 277.316C556.749 271.985 552.446 268.191 546.528 265.628C541.902 263.578 539.643 263.476 495.749 263.476C470.574 263.476 449.165 263.168 448.196 262.86C446.69 262.348 446.475 257.427 446.475 217.957V173.771L443.893 168.645C440.881 162.494 436.792 158.7 430.337 155.932C425.711 153.882 423.452 153.78 383.646 153.78C354.921 153.78 340.505 154.19 337.707 155.01C332.651 156.445 325.981 161.674 322.538 166.902C320.064 170.695 320.064 170.798 319.526 216.829L318.988 262.963L270.79 263.271C218.827 263.476 219.257 263.476 211.403 269.114C209.467 270.652 206.562 274.24 204.948 277.111L202.259 282.339V324.372C202.259 366.508 202.259 366.508 204.841 371.634C207.746 377.58 210.866 380.553 216.783 383.116C220.656 384.756 225.927 384.961 270.037 385.474L318.988 385.987L319.526 433.146L320.064 480.305L323.076 485.123C324.69 487.789 327.379 490.864 329.101 492.095C336.632 497.118 336.632 497.118 383.538 497.221C426.357 497.221 427.755 497.118 431.951 495.068Z" fill="#B5DFBB"/>
<path d="M330.392 497.631C324.152 494.657 319.095 488.916 317.374 482.868C316.728 480.715 316.191 459.698 316.083 434.068L315.76 389.062L266.809 388.55C222.7 388.037 217.428 387.832 213.555 386.192C207.638 383.629 204.518 380.656 201.613 374.709L199.031 369.583V324.372V279.264L201.721 274.035C203.335 271.165 206.239 267.576 208.176 266.039C216.137 260.4 215.599 260.4 267.562 260.092L315.76 259.887L316.298 213.754C316.836 167.722 316.836 167.62 319.31 163.826C322.753 158.598 329.423 153.369 334.48 151.934C337.277 151.114 352.554 150.704 383.646 150.704C426.68 150.704 428.939 150.806 433.565 152.857C440.02 155.625 444.108 159.418 447.121 165.569L449.703 170.695V214.881C449.703 254.351 449.918 259.272 451.424 259.785C452.392 260.092 473.801 260.4 498.976 260.4C542.871 260.4 545.13 260.502 549.756 262.553C555.673 265.116 559.976 268.909 562.989 274.24C565.356 278.238 565.356 279.161 565.356 324.475C565.356 369.788 565.356 370.711 562.989 374.709C561.698 376.965 559.116 380.245 557.072 382.091C549.971 388.55 550.401 388.55 497.578 388.55H449.703V434.991V481.33L447.121 486.456C444.323 492.197 441.419 494.965 435.179 498.143C430.983 500.194 429.584 500.296 383.538 500.296H336.094L330.392 497.631Z" fill="#FFAB46"/>
</g>
<defs>
<clipPath id="clip0_2858_8327">
<rect width="766" height="651" fill="white"/>
</clipPath>
</defs>
</svg>
