<svg width="766" height="651" viewBox="0 0 766 651" fill="none" xmlns="http://www.w3.org/2000/svg">
<g clip-path="url(#clip0_2858_8315)">
<path d="M119.181 646.6C115.825 644.1 112.47 641.3 111.66 640.3C108.999 637 108.536 629.9 110.387 620.9C111.66 614.4 112.123 603.8 112.123 576.9C112.238 557.4 112.586 539.4 112.933 536.9C113.627 532.7 113.396 532.2 109.809 529.6L105.99 526.8L92.1049 527.5C79.1454 528.1 77.294 528 67.6901 525.5C50.1022 521.1 39.1097 515.7 27.6545 505.9C17.9348 497.7 8.67803 486.7 5.20673 479.6C4.28105 477.8 3.00824 473.2 2.31398 469.4C0.462618 459.7 0.462618 216.3 2.19827 206C3.12395 200.6 3.23966 196.5 2.31398 191.5C1.61972 187.7 1.27259 175.5 1.3883 164.5C1.61972 153.5 1.61972 127.5 1.3883 106.7C1.15688 86 1.27259 68.6 1.61972 68.1C1.96685 67.7 2.77682 64.3 3.47108 60.6C4.16534 56.9 6.59525 49.8 8.79374 44.9C12.8436 36.3 13.4221 35.7 26.9602 24.4C51.0279 4.5 56.3505 3.2 122.074 1.2C134.223 0.800001 146.141 0.800001 148.687 1.2C151.233 1.6 158.87 1.4 165.812 0.800001C175.648 -0.199999 179.003 -0.0999989 182.243 0.900001C184.789 1.6 190.921 2.1 197.632 2C208.162 1.8 266.364 1.6 288.118 1.6C293.556 1.6 310.218 1.8 325.145 2C340.071 2.2 418.291 2.2 498.941 2.1C579.591 1.9 646.009 2.1 646.587 2.4C647.166 2.7 654.224 2.4 662.208 1.9C675.63 0.900001 677.945 1 689.284 3C711.5 6.9 732.097 18.7 744.246 34.4C750.148 42 756.28 55 757.9 63.2C758.71 67.4 759.173 115.7 759.404 207.2L759.636 345L762.297 346.5C763.686 347.4 764.611 348.6 764.264 349.1C763.801 349.6 764.148 350 764.843 350C765.653 350 765.768 350.6 764.958 351.8C764.264 352.9 764.264 354.2 765.074 355.5C766 356.9 766 357.5 765.074 357.8C764.264 358 763.686 359 763.686 360C763.686 361 763.107 362 762.413 362.2C759.983 362.9 759.057 379.2 759.173 423.2C759.289 466.8 759.173 468 756.743 474.2C751.767 486.4 745.172 495.9 735.337 504.5C722.377 515.8 718.212 518.5 707.566 522.1C695.185 526.2 696.227 526.1 675.746 526.6C665.911 526.9 653.183 527.8 647.397 528.6C641.264 529.5 633.165 529.9 627.726 529.6C593.013 527.8 572.417 527.5 488.874 527.7C435.532 527.8 390.29 528.3 383.81 528.9C375.941 529.6 369.23 529.6 362.403 528.8C356.849 528.2 343.196 527.7 332.087 527.6C315.772 527.5 311.375 527.8 309.408 529C308.135 529.8 298.3 538.4 287.539 548C276.778 557.6 265.091 567.8 261.389 570.5C257.802 573.3 246.809 581.6 237.09 589.1C218.229 603.5 215.22 605.3 212.559 604.4C211.402 604.1 209.551 605.4 207.121 608.5C202.492 614.2 186.987 624.3 159.564 639.1C140.819 649.3 136.653 651 130.521 651C125.892 651 124.388 650.4 119.181 646.6ZM401.629 382.4C414.589 380.3 429.862 374.8 441.896 368C459.368 358 476.725 342.4 476.725 336.7C476.725 333.7 471.981 328.5 467.352 326.4C464.344 325.1 463.534 325.1 459.947 326.6C457.748 327.5 454.046 330.4 451.847 333C440.97 345.8 423.383 355.9 406.142 359.4C396.191 361.5 366.8 361.5 355.924 359.5C338.451 356.3 323.178 347.9 311.491 334.9C303.97 326.7 299.573 324.3 294.944 325.9C290.895 327.2 284.646 333.6 284.646 336.3C284.646 344 309.755 364.7 329.426 373.3C351.642 383.1 377.793 386.3 401.629 382.4ZM257.57 265.3C265.901 262.9 275.39 254.3 278.167 246.8C280.712 239.6 280.018 235 275.042 227.9C270.53 221.4 263.587 216.7 255.14 214.4C249.123 212.7 248.429 212.7 242.528 214.3C230.378 217.6 221.584 225.7 218.692 236C216.725 243.1 219.386 250.2 226.328 256.9C236.048 266.3 245.652 268.8 257.57 265.3ZM521.505 265.5C533.076 262.5 544.299 250.3 544.184 240.6C544.184 230.3 532.96 218 520.232 214.6C512.942 212.6 509.124 213 500.908 216.6C491.073 220.9 482.51 231.8 482.51 240.2C482.51 244.2 486.329 252.4 490.032 256.2C494.197 260.5 500.214 264 506.115 265.6C512.364 267.3 514.562 267.3 521.505 265.5Z" fill="#E1D7FA"/>
<path d="M356.387 385.5C342.039 383.2 326.418 377.5 312.995 369.7C303.97 364.4 287.424 350.6 284.068 345.5C279.208 338.3 279.671 332.3 285.572 326.9C289.159 323.5 290.895 322.7 295.408 322.3C303.392 321.5 307.094 323.3 314.963 331.9C326.649 344.9 341.923 353.3 359.395 356.5C369.925 358.4 393.067 358.4 402.671 356.4C419.911 352.9 437.499 342.8 448.376 330C455.087 322.1 464.576 319.8 472.097 324.2C478.229 327.9 480.659 331.4 480.659 336.9C480.659 342.8 476.147 348.5 463.65 358.6C446.64 372.3 425.118 382.1 405.101 385.4C393.298 387.4 368.536 387.4 356.387 385.5Z" fill="#9F4745"/>
<path d="M238.362 269.1C232.461 267.5 228.064 265 222.857 259.9C206.774 244.4 214.063 219.4 236.858 212C263.934 203.3 290.432 225.5 281.638 249.6C278.861 257.3 269.488 265.8 261.042 268.3C255.14 270 243.569 270.4 238.362 269.1Z" fill="#9F4745"/>
<path d="M502.644 268.6C488.527 264.8 479.039 253.3 479.039 240.2C479.039 232.4 481.7 226.1 487.37 220.5C500.445 207.7 521.736 206.6 536.315 218.1C544.415 224.5 547.771 231.1 547.886 240.5C548.002 260.7 525.439 274.7 502.644 268.6Z" fill="#9F4745"/>
</g>
<defs>
<clipPath id="clip0_2858_8315">
<rect width="766" height="651" fill="white"/>
</clipPath>
</defs>
</svg>
