<svg width="960" height="918" viewBox="0 0 960 918" fill="none" xmlns="http://www.w3.org/2000/svg">
<g clip-path="url(#clip0_2858_8499)">
<path d="M105 859.5C105 858.7 105.7 858 106.5 858C107.6 858 108 856.8 108 853C108 850.3 108.5 848 109 848C110.6 848 110.4 506.3 108.7 505.6C107.8 505.1 107.8 504.9 108.8 504.4C109.7 504 110 496.9 110 473.9C110 448 109.8 444 108.5 444C107.6 444 107 443.1 107 441.5C107 439.9 107.6 439 108.6 439C109.4 439 111.9 437.2 114 435C116.1 432.8 118.4 431 119 431C119.7 431 121.5 429.7 123 428C124.5 426.4 126.3 425 127 425C127.6 425 130.8 422.3 134 419C137.2 415.7 140.4 413 141 413C141.6 413 143.9 411.2 146 409C148.1 406.8 150.4 405 151 405C151.6 405 153.9 403.2 156 401C158.1 398.8 160.4 397 161 397C161.6 397 163.9 395.2 166 393C168.1 390.8 170.4 389 171 389C171.6 389 173.9 387.2 176 385C178.1 382.8 180.4 381 181 381C181.6 381 183.9 379.2 186 377C188.1 374.8 190.4 373 191 373C191.6 373 193.9 371.2 196 369C198.1 366.8 200.4 365 201 365C201.6 365 203.9 363.2 206 361C208.1 358.8 210.4 357 211 357C211.6 357 213.9 355.2 216 353C218.1 350.8 220.4 349 221 349C221.6 349 223.9 347.2 226 345C228.1 342.8 230.4 341 231 341C231.6 341 233.9 339.2 236 337C238.1 334.8 240.4 333 241 333C241.7 333 243.5 331.7 245 330C246.5 328.4 248.3 327 249 327C249.6 327 252.3 324.8 255 322C257.7 319.3 260.4 317 261 317C261.7 317 263.5 315.7 265 314C266.5 312.4 268.3 311 269 311C269.6 311 272.3 308.8 275 306C277.7 303.3 280.4 301 281 301C281.6 301 283.9 299.2 286 297C288.1 294.8 290.4 293 291 293C291.7 293 293.5 291.7 295 290C296.5 288.4 298.3 287 299 287C299.6 287 301.9 285.2 304 283C306.1 280.8 308.4 279 309 279C309.6 279 311.9 277.2 314 275C316.1 272.8 318.4 271 319 271C319.6 271 321.9 269.2 324 267C326.1 264.8 328.4 263 329 263C329.6 263 332.3 260.8 335 258C337.7 255.3 340.4 253 341 253C341.7 253 343.5 251.7 345 250C346.5 248.4 348.3 247 349 247C349.6 247 351.9 245.2 354 243C356.1 240.8 358.4 239 359 239C359.6 239 361.9 237.2 364 235C366.1 232.8 368.4 231 369 231C369.7 231 371.5 229.7 373 228C374.5 226.4 376.3 225 377 225C377.6 225 379.9 223.2 382 221C384.1 218.8 386.4 217 387 217C387.6 217 390.3 214.8 393 212C395.7 209.3 398.4 207 399 207C399.6 207 401.9 205.2 404 203C406.1 200.8 408.4 199 409 199C409.7 199 411.5 197.7 413 196C414.5 194.4 416.3 193 417 193C417.6 193 419.9 191.2 422 189C424.1 186.8 426.4 185 427 185C427.6 185 429.9 183.2 432 181C434.1 178.8 436.4 177 437 177C437.6 177 439.9 175.2 442 173C444.1 170.8 446.4 169 447 169C447.6 169 449.9 167.2 452 165C454.1 162.8 456.4 161 457 161C457.6 161 459.9 159.2 462 157C464.1 154.8 466.4 153 467 153C467.6 153 469.9 151.2 472 149C475.4 145.5 476.4 145 480.4 145C482.9 145 485 145.5 485 146C485 146.6 485.7 147 486.6 147C487.4 147 490.3 149.3 493 152C495.7 154.8 498.4 157 499 157C499.6 157 502.3 159.3 505 162C507.7 164.8 510.4 167 511 167C511.7 167 513.5 168.4 515 170C516.5 171.7 518.3 173 519 173C519.7 173 521.5 174.4 523 176C524.5 177.7 526.3 179 527 179C527.6 179 530.3 181.3 533 184C535.7 186.8 538.4 189 539 189C539.7 189 541.5 190.4 543 192C544.5 193.7 546.3 195 547 195C547.7 195 549.5 196.4 551 198C552.5 199.7 554.3 201 555 201C555.6 201 557.9 202.8 560 205C562.1 207.2 564.4 209 565 209C565.6 209 568.3 211.2 571 214C573.7 216.7 576.4 219 577 219C577.7 219 579.5 220.4 581 222C582.5 223.7 584.3 225 585 225C585.6 225 588.3 227.3 591 230C593.7 232.8 596.4 235 597 235C597.7 235 599.5 236.4 601 238C602.5 239.7 604.3 241 605 241C605.6 241 607.9 242.8 610 245C612.1 247.2 614.4 249 615 249C615.7 249 617.5 250.4 619 252C620.5 253.7 622.3 255 623 255C623.6 255 626.3 257.3 629 260C631.7 262.8 634.4 265 635 265C635.6 265 637.9 266.8 640 269C642.1 271.2 644.4 273 645 273C645.6 273 648.3 275.3 651 278C653.7 280.8 656.4 283 657 283C657.6 283 659.9 284.8 662 287C664.1 289.2 666.4 291 667 291C667.6 291 669.9 292.8 672 295C674.1 297.2 676.4 299 677 299C677.6 299 679.9 300.8 682 303C684.1 305.2 686.4 307 687 307C687.6 307 689.9 308.8 692 311C694.1 313.2 696.4 315 697 315C697.6 315 699.9 316.8 702 319C704.1 321.2 706.4 323 707 323C707.6 323 709.9 324.8 712 327C714.1 329.2 716.4 331 717 331C717.7 331 719.5 332.4 721 334C722.5 335.7 724.3 337 725 337C725.6 337 728.8 339.7 732 343C735.2 346.3 738.4 349 739 349C739.7 349 741.5 350.4 743 352C744.5 353.7 746.3 355 747 355C747.7 355 749.5 356.4 751 358C752.5 359.7 754.3 361 755 361C755.6 361 757.9 362.8 760 365C762.1 367.2 764.4 369 765 369C765.6 369 767.9 370.8 770 373C772.1 375.2 774.4 377 775 377C775.6 377 777.9 378.8 780 381C782.1 383.2 784.4 385 785 385C785.6 385 787.9 386.8 790 389C792.1 391.2 794.4 393 795 393C795.6 393 797.9 394.8 800 397C802.1 399.2 804.4 401 805 401C805.6 401 807.9 402.8 810 405C812.1 407.2 814.4 409 815 409C815.6 409 818.8 411.7 822 415C825.2 418.3 828.5 421 829.2 421C830 421 831.2 421.9 832 423C832.8 424.1 834.1 425 834.8 425C835.5 425 837.9 426.8 840 429C842.1 431.2 844.4 433 845 433C845.7 433 847.5 434.4 849 436C850.5 437.7 852.5 439 853.4 439C854.6 439 855 439.9 854.9 442.8C854.9 444.8 854.6 445.9 854.3 445.3C854.1 444.6 853 444 851.9 444C850 444 850 447.7 850 651C850 834.3 850.2 858 851.5 858C852.3 858 853 858.7 853 859.5C853 860.8 810.8 861 479 861C147.2 861 105 860.8 105 859.5ZM483 762C483 761.5 483.9 761 485 761C486.1 761 487 760.6 487 760C487 759.5 487.9 759 489 759C490.1 759 491 758.6 491 758C491 757.5 491.8 757 492.8 757C493.8 757 495.2 756.1 496 755C496.8 753.9 498.1 753 498.8 753C499.6 753 501.5 751.7 503 750C504.5 748.4 506.3 747 507 747C507.6 747 509.9 745.2 512 743C514.1 740.8 516.4 739 517 739C517.6 739 520.3 736.8 523 734C525.7 731.3 528.4 729 529 729C529.6 729 531.9 727.2 534 725C536.1 722.8 538.4 721 539 721C539.6 721 542.8 718.3 546 715C549.2 711.7 552.4 709 553 709C553.6 709 556.8 706.3 560 703C563.2 699.7 566.4 697 567 697C567.6 697 570.8 694.3 574 691C577.2 687.7 580.4 685 580.9 685C582.3 685 641 626.3 641 624.9C641 624.4 643.3 621.7 646 619C648.8 616.3 651 613.6 651 613C651 612.3 652.4 610.5 654 609C655.7 607.5 657 605.6 657 604.8C657 604.1 657.9 602.8 659 602C660.1 601.2 661 599.9 661 599C661 598.1 661.9 596.8 663 596C664.1 595.2 665 593.9 665 593C665 592.1 665.9 590.8 667 590C668.1 589.2 669 587.8 669 586.8C669 585.8 669.5 585 670 585C670.6 585 671 584.1 671 583C671 581.9 671.5 581 672 581C672.6 581 673 579.7 673 578C673 576.4 673.5 575 674 575C674.6 575 675 574.1 675 573C675 571.9 675.5 571 676 571C676.6 571 677 569.7 677 568C677 566.4 677.5 565 678 565C678.6 565 679 563.7 679 562C679 560.4 679.5 559 680 559C680.6 559 681 557.2 681 555C681 552.8 681.5 551 682 551C682.6 551 683 544.3 683 533C683 521.7 682.6 515 682 515C681.5 515 681 513.7 681 512C681 510.4 680.6 509 680 509C679.5 509 679 507.2 679 505C679 502.8 678.6 501 678 501C677.5 501 677 499.7 677 498C677 496.4 676.6 495 676 495C675.5 495 675 494.1 675 493C675 491.9 674.6 491 674 491C673.5 491 673 490.1 673 489C673 487.9 672.6 487 672 487C671.5 487 671 486.1 671 485C671 483.9 670.6 483 670 483C669.5 483 669 482.2 669 481.2C669 480.2 668.1 478.8 667 478C665.9 477.2 665 475.9 665 475C665 474.1 664.1 472.8 663 472C661.9 471.2 661 469.9 661 469.2C661 468.5 659.2 466.1 657 464C654.8 461.9 653 459.7 653 459.1C653 457.6 644.4 449 642.9 449C642.3 449 640.1 447.2 638 445C635.9 442.8 633.5 441 632.8 441C632.1 441 630.8 440.1 630 439C629.2 437.9 627.9 437 627 437C626.1 437 624.8 436.1 624 435C623.2 433.9 621.8 433 620.8 433C619.8 433 619 432.6 619 432C619 431.5 618.1 431 617 431C615.9 431 615 430.6 615 430C615 429.5 614.1 429 613 429C611.9 429 611 428.6 611 428C611 427.5 609.7 427 608 427C606.4 427 605 426.6 605 426C605 425.5 604.1 425 603 425C601.9 425 601 424.6 601 424C601 423.5 599.7 423 598 423C596.4 423 595 422.6 595 422C595 421.5 592.8 421 590 421C587.3 421 585 420.6 585 420C585 419.4 579.3 419 570 419C560.7 419 555 419.4 555 420C555 420.6 553.2 421 551 421C548.8 421 547 421.5 547 422C547 422.6 545.7 423 544 423C542.4 423 541 423.5 541 424C541 424.6 539.7 425 538 425C536.4 425 535 425.5 535 426C535 426.6 534.1 427 533 427C531.9 427 531 427.5 531 428C531 428.6 530.2 429 529.2 429C528.2 429 526.8 429.9 526 431C525.2 432.1 523.8 433 522.8 433C521.8 433 521 433.5 521 434C521 434.6 520.3 435 519.4 435C518.5 435 516.5 436.4 515 438C513.5 439.7 511.7 441 511.1 441C509.7 441 489 461.6 489 463C489 465.3 484.1 469 481 469C477.9 469 473 465.3 473 463C473 461.5 452.3 441 450.7 441C450 441 448.8 440.1 448 439C447.2 437.9 445.9 437 445 437C444.1 437 442.8 436.1 442 435C441.2 433.9 439.8 433 438.8 433C437.8 433 437 432.6 437 432C437 431.5 436.1 431 435 431C433.9 431 433 430.6 433 430C433 429.5 432.1 429 431 429C429.9 429 429 428.6 429 428C429 427.5 428.1 427 427 427C425.9 427 425 426.6 425 426C425 425.5 423.7 425 422 425C420.4 425 419 424.6 419 424C419 423.5 417.7 423 416 423C414.4 423 413 422.6 413 422C413 421.5 411.2 421 409 421C406.8 421 405 420.6 405 420C405 419.4 399.7 419 391 419C382.3 419 377 419.4 377 420C377 420.6 374.8 421 372 421C369.3 421 367 421.5 367 422C367 422.6 365.7 423 364 423C362.4 423 361 423.5 361 424C361 424.6 359.7 425 358 425C356.4 425 355 425.5 355 426C355 426.6 354.1 427 353 427C351.9 427 351 427.5 351 428C351 428.6 350.1 429 349 429C347.9 429 347 429.5 347 430C347 430.6 346.1 431 345 431C343.9 431 343 431.5 343 432C343 432.6 342.1 433 341 433C339.9 433 339 433.5 339 434C339 434.6 338.2 435 337.2 435C336.2 435 334.8 435.9 334 437C333.2 438.1 331.9 439 331 439C330.1 439 328.8 439.9 328 441C327.2 442.1 326 443 325.3 443C323.7 443 301 465.5 301 467.1C301 467.7 299.7 469.5 298 471C296.3 472.5 295 474.5 295 475.4C295 476.3 294.6 477 294 477C293.5 477 293 477.8 293 478.8C293 479.8 292.1 481.2 291 482C289.9 482.8 289 484.2 289 485.2C289 486.2 288.6 487 288 487C287.5 487 287 488.4 287 490C287 491.7 286.6 493 286 493C285.5 493 285 494.4 285 496C285 497.7 284.6 499 284 499C283.5 499 283 500.4 283 502C283 503.7 282.6 505 282 505C281.5 505 281 506.8 281 509C281 511.2 280.6 513 280 513C279.5 513 279 514.4 279 516C279 517.7 278.6 519 278 519C277.4 519 277 525 277 535C277 545 277.4 551 278 551C278.6 551 279 552.4 279 554C279 555.7 279.5 557 280 557C280.6 557 281 558.8 281 561C281 563.2 281.5 565 282 565C282.6 565 283 566.4 283 568C283 569.7 283.5 571 284 571C284.6 571 285 571.9 285 573C285 574.1 285.5 575 286 575C286.6 575 287 576.3 287 577.8C287 579.4 287.8 581.2 289 582C290.1 582.8 291 584.2 291 585.2C291 586.2 291.5 587 292 587C292.6 587 293 587.9 293 589C293 590.1 293.5 591 294 591C294.6 591 295 591.8 295 592.8C295 593.8 295.9 595.2 297 596C298.1 596.8 299 598.1 299 599C299 599.9 299.9 601.2 301 602C302.1 602.8 303 604.1 303 604.8C303 605.6 304.4 607.5 306 609C307.7 610.5 309 612.3 309 613C309 613.6 311.7 616.8 315 620C318.3 623.2 321 626.4 321 626.9C321 628.3 377.7 685 379 685C379.6 685 383.6 688.6 388 693C392.4 697.4 396.4 701 397 701C397.6 701 401.2 704.2 405 708C408.8 711.9 412.4 715 413 715C413.6 715 416.8 717.7 420 721C423.2 724.3 426.4 727 427 727C427.6 727 429.9 728.8 432 731C434.1 733.2 436.4 735 437 735C437.6 735 439.9 736.8 442 739C444.1 741.2 446.4 743 447 743C447.7 743 449.5 744.4 451 746C452.5 747.7 454.4 749 455.2 749C455.9 749 457.2 749.9 458 751C458.8 752.1 460.1 753 461 753C461.9 753 463.2 753.9 464 755C464.8 756.1 466.2 757 467.2 757C468.2 757 469 757.5 469 758C469 758.6 469.9 759 471 759C472.1 759 473 759.5 473 760C473 760.6 473.9 761 475 761C476.1 761 477 761.5 477 762C477 762.6 478.4 763 480 763C481.7 763 483 762.6 483 762Z" fill="#FFD3AC"/>
<path d="M54 457C54 456.5 52.2 456 50 456C47.8 456 46 455.6 46 455C46 454.5 45.1 454 44 454C42.9 454 42 453.6 42 453C42 452.5 40.7 452 39.2 452C37.6 452 35.8 451.2 35 450C34.2 448.9 32.9 448 32 448C31.1 448 29.8 447.1 29 446C28.2 444.9 27 444 26.3 444C24.7 444 16 435.5 16 433.9C16 433.3 14.7 431.5 13 430C11.4 428.5 10 426.5 10 425.6C10 424.7 9.6 424 9 424C8.5 424 8 423.1 8 422C8 420.9 7.6 420 7 420C6.5 420 6 419.1 6 418C6 416.9 5.6 416 5 416C4.5 416 4 414.7 4 413C4 411.4 3.6 410 3 410C2.5 410 2 408.2 2 406C2 403.8 1.6 402 1 402C0.4 402 0 398.3 0 393C0 387.7 0.4 384 1 384C1.6 384 2 381.8 2 379C2 376.3 2.5 374 3 374C3.6 374 4 372.7 4 371C4 369.4 4.5 368 5 368C5.6 368 6 367.1 6 366C6 364.9 6.5 364 7 364C7.6 364 8 363.2 8 362.2C8 361.2 8.9 359.8 10 359C11.1 358.2 12 357 12 356.3C12 354.7 32.5 334 34.1 334C34.7 334 36.9 332.2 39 330C41.1 327.8 43.4 326 44 326C44.7 326 46.5 324.7 48 323C49.5 321.4 51.3 320 52 320C52.6 320 55.3 317.8 58 315C60.7 312.3 63.4 310 64 310C64.6 310 66.9 308.2 69 306C71.1 303.8 73.4 302 74 302C74.7 302 76.5 300.7 78 299C79.5 297.4 81.3 296 82 296C82.7 296 84.5 294.7 86 293C87.5 291.4 89.3 290 90 290C90.6 290 92.9 288.2 95 286C97.1 283.8 99.4 282 100 282C100.6 282 102.9 280.2 105 278C107.1 275.8 109.4 274 110 274C110.6 274 113.3 271.8 116 269C118.7 266.3 121.4 264 122 264C122.7 264 124.5 262.7 126 261C127.5 259.4 129.3 258 130 258C130.6 258 132.9 256.2 135 254C137.1 251.8 139.4 250 140 250C140.6 250 142.9 248.2 145 246C147.1 243.8 149.4 242 150 242C150.6 242 152.9 240.2 155 238C157.1 235.8 159.4 234 160 234C160.7 234 162.5 232.7 164 231C165.5 229.4 167.3 228 168 228C168.6 228 171.3 225.8 174 223C176.7 220.3 179.4 218 180 218C180.7 218 182.5 216.7 184 215C185.5 213.4 187.3 212 188 212C188.6 212 191.3 209.8 194 207C196.7 204.3 199.4 202 200 202C200.7 202 202.5 200.7 204 199C205.5 197.4 207.3 196 208 196C208.6 196 210.9 194.2 213 192C215.1 189.8 217.4 188 218 188C218.6 188 220.9 186.2 223 184C225.1 181.8 227.4 180 228 180C228.6 180 230.9 178.2 233 176C235.1 173.8 237.4 172 238 172C238.6 172 240.9 170.2 243 168C245.1 165.8 247.4 164 248 164C248.6 164 250.9 162.2 253 160C255.1 157.8 257.4 156 258 156C258.6 156 260.9 154.2 263 152C265.1 149.8 267.4 148 268 148C268.7 148 270.5 146.7 272 145C273.5 143.4 275.3 142 276 142C276.6 142 279.3 139.8 282 137C284.7 134.3 287.4 132 288 132C288.6 132 290.9 130.2 293 128C295.1 125.8 297.4 124 298 124C298.6 124 300.9 122.2 303 120C305.1 117.8 307.4 116 308 116C308.7 116 310.5 114.7 312 113C313.5 111.4 315.3 110 316 110C316.6 110 318.9 108.2 321 106C323.1 103.8 325.4 102 326 102C326.6 102 328.9 100.2 331 98C333.1 95.8 335.4 94 336 94C336.6 94 338.9 92.2 341 90C343.1 87.8 345.4 86 346 86C346.6 86 348.9 84.2 351 82C353.1 79.8 355.4 78 356 78C356.6 78 358.9 76.2 361 74C363.1 71.8 365.4 70 366 70C366.6 70 368.9 68.2 371 66C373.1 63.8 375.4 62 376 62C376.6 62 378.9 60.2 381 58C383.1 55.8 385.4 54 386 54C386.6 54 388.9 52.2 391 50C393.1 47.8 395.4 46 396 46C396.6 46 399.3 43.8 402 41C404.7 38.3 407.4 36 408 36C408.7 36 410.5 34.7 412 33C413.5 31.4 415.3 30 416 30C416.6 30 418.9 28.2 421 26C423.1 23.8 425.4 22 426 22C426.6 22 428.9 20.2 431 18C433.1 15.8 435.5 14 436.2 14C436.9 14 438.2 13.1 439 12C439.8 10.9 441.2 10 442.2 10C443.2 10 444 9.6 444 9C444 8.5 444.9 8 446 8C447.1 8 448 7.6 448 7C448 6.5 449.4 6 451 6C452.7 6 454 5.6 454 5C454 4.5 455.4 4 457 4C458.7 4 460 3.6 460 3C460 2.5 462.3 2 465 2C467.8 2 470 1.6 470 1C470 0.4 473.3 0 478 0C482.7 0 486 0.4 486 1C486 1.6 488.7 2 492 2C495.3 2 498 2.4 498 3C498 3.6 499.4 4 501 4C502.7 4 504 4.5 504 5C504 5.6 505.4 6 507 6C508.7 6 510 6.5 510 7C510 7.6 510.8 8 511.8 8C512.8 8 514.2 8.9 515 10C515.8 11.1 517.1 12 518 12C518.9 12 520.2 12.9 521 14C521.8 15.1 523.1 16 523.8 16C524.6 16 526.5 17.3 528 19C529.5 20.6 531.3 22 532 22C532.6 22 534.9 23.8 537 26C539.1 28.2 541.4 30 542 30C542.6 30 544.9 31.8 547 34C549.1 36.2 551.4 38 552 38C552.6 38 554.9 39.8 557 42C559.1 44.2 561.4 46 562 46C562.6 46 564.9 47.8 567 50C569.1 52.2 571.4 54 572 54C572.7 54 574.5 55.4 576 57C577.5 58.7 579.3 60 580 60C580.6 60 582.9 61.8 585 64C587.1 66.2 589.4 68 590 68C590.6 68 592.9 69.8 595 72C597.1 74.2 599.4 76 600 76C600.6 76 602.9 77.8 605 80C607.1 82.2 609.4 84 610 84C610.7 84 612.5 85.4 614 87C615.5 88.7 617.3 90 618 90C618.6 90 620.9 91.8 623 94C625.1 96.2 627.4 98 628 98C628.6 98 630.9 99.8 633 102C635.1 104.2 637.4 106 638 106C638.6 106 640.9 107.8 643 110C645.1 112.2 647.4 114 648 114C648.6 114 650.9 115.8 653 118C655.1 120.2 657.4 122 658 122C658.6 122 660.9 123.8 663 126C665.1 128.2 667.4 130 668 130C668.7 130 670.5 131.4 672 133C673.5 134.7 675.3 136 676 136C676.6 136 678.9 137.8 681 140C683.1 142.2 685.4 144 686 144C686.6 144 689.3 146.2 692 149C694.7 151.8 697.4 154 698 154C698.7 154 700.5 155.3 702 157C703.5 158.6 705.3 160 706 160C706.6 160 708.9 161.8 711 164C713.1 166.2 715.4 168 716 168C716.6 168 718.9 169.8 721 172C723.1 174.2 725.4 176 726 176C726.6 176 728.9 177.8 731 180C733.1 182.2 735.4 184 736 184C736.7 184 738.5 185.4 740 187C741.5 188.7 743.3 190 744 190C744.6 190 746.9 191.8 749 194C751.1 196.2 753.4 198 754 198C754.6 198 756.9 199.8 759 202C761.1 204.2 763.4 206 764 206C764.6 206 766.9 207.8 769 210C771.1 212.2 773.4 214 774 214C774.7 214 776.5 215.4 778 217C779.5 218.7 781.3 220 782 220C782.6 220 784.9 221.8 787 224C789.1 226.2 791.4 228 792 228C792.6 228 795.3 230.3 798 233C800.7 235.8 803.4 238 804 238C804.7 238 806.5 239.3 808 241C809.5 242.7 811.3 244 812 244C812.6 244 815.3 246.3 818 249C820.7 251.8 823.4 254 824 254C824.7 254 826.5 255.4 828 257C829.5 258.7 831.3 260 832 260C832.6 260 834.9 261.8 837 264C839.1 266.2 841.4 268 842 268C842.6 268 844.9 269.8 847 272C849.1 274.2 851.4 276 852 276C852.6 276 854.9 277.8 857 280C859.1 282.2 861.4 284 862 284C862.6 284 864.9 285.8 867 288C869.1 290.2 871.4 292 872 292C872.6 292 874.9 293.8 877 296C879.1 298.2 881.4 300 882 300C882.6 300 884.9 301.8 887 304C889.1 306.2 891.4 308 892 308C892.7 308 894.5 309.4 896 311C897.5 312.7 899.3 314 900 314C900.6 314 902.9 315.8 905 318C907.1 320.2 909.4 322 910 322C910.6 322 912.9 323.8 915 326C917.1 328.2 919.4 330 920 330C920.6 330 923.3 332.3 926 335C928.7 337.8 931.4 340 932 340C933.5 340 946 352.7 946 354.3C946 355 946.9 356.2 948 357C949.1 357.8 950 359.2 950 360.2C950 361.2 950.5 362 951 362C951.6 362 952 362.9 952 364C952 365.1 952.5 366 953 366C953.6 366 954 366.9 954 368C954 369.1 954.5 370 955 370C955.6 370 956 371.8 956 374C956 376.2 956.5 378 957 378C957.6 378 958 380.3 958 383C958 385.8 958.5 388 959 388C959.6 388 960 390.3 960 393C960 395.8 959.6 398 959 398C958.4 398 958 400.7 958 404C958 407.3 957.6 410 957 410C956.5 410 956 411.4 956 413C956 414.7 955.6 416 955 416C954.5 416 954 417.3 954 418.8C954 420.4 953.2 422.2 952 423C950.9 423.8 950 425.2 950 426.2C950 427.2 949.6 428 949 428C948.5 428 948 428.7 948 429.5C948 431.4 933.6 446 931.7 446C931 446 929.8 446.9 929 448C928.2 449.1 926.8 450 925.8 450C924.8 450 924 450.5 924 451C924 451.6 923.1 452 922 452C920.9 452 920 452.5 920 453C920 453.6 918.7 454 917 454C915.4 454 914 454.5 914 455C914 455.6 912.7 456 911 456C909.4 456 908 456.5 908 457C908 457.6 902.7 458 894 458C885.3 458 880 457.6 880 457C880 456.5 878.7 456 877 456C875.4 456 874 455.6 874 455C874 454.5 872.7 454 871 454C869.4 454 868 453.6 868 453C868 452.5 867.1 452 866 452C864.9 452 864 451.6 864 451C864 450.5 863.1 450 862 450C860.9 450 860 449.6 860 449C860 448.5 859.3 448 858.4 448C857.5 448 855.5 446.6 854 445C852.5 443.4 850.7 442 850 442C849.3 442 847.5 440.6 846 439C844.5 437.4 842.7 436 842 436C841.4 436 839.1 434.2 837 432C834.9 429.8 832.5 428 831.8 428C831.1 428 829.8 427.1 829 426C828.2 424.9 827 424 826.2 424C825.5 424 822.2 421.3 819 418C815.8 414.7 812.6 412 812 412C811.4 412 809.1 410.2 807 408C804.9 405.8 802.6 404 802 404C801.4 404 799.1 402.2 797 400C794.9 397.8 792.6 396 792 396C791.4 396 789.1 394.2 787 392C784.9 389.8 782.6 388 782 388C781.4 388 779.1 386.2 777 384C774.9 381.8 772.6 380 772 380C771.4 380 769.1 378.2 767 376C764.9 373.8 762.6 372 762 372C761.4 372 759.1 370.2 757 368C754.9 365.8 752.6 364 752 364C751.3 364 749.5 362.7 748 361C746.5 359.4 744.7 358 744 358C743.3 358 741.5 356.7 740 355C738.5 353.4 736.7 352 736 352C735.4 352 732.2 349.3 729 346C725.8 342.7 722.6 340 722 340C721.3 340 719.5 338.6 718 337C716.5 335.3 714.7 334 714 334C713.4 334 711.1 332.2 709 330C706.9 327.8 704.6 326 704 326C703.4 326 701.1 324.2 699 322C696.9 319.8 694.6 318 694 318C693.4 318 691.1 316.2 689 314C686.9 311.8 684.6 310 684 310C683.4 310 681.1 308.2 679 306C676.9 303.8 674.6 302 674 302C673.4 302 671.1 300.2 669 298C666.9 295.8 664.6 294 664 294C663.4 294 661.1 292.2 659 290C656.9 287.8 654.6 286 654 286C653.4 286 650.7 283.8 648 281C645.3 278.3 642.6 276 642 276C641.4 276 639.1 274.2 637 272C634.9 269.8 632.6 268 632 268C631.4 268 628.7 265.8 626 263C623.3 260.2 620.6 258 620 258C619.3 258 617.5 256.7 616 255C614.5 253.4 612.7 252 612 252C611.4 252 609.1 250.2 607 248C604.9 245.8 602.6 244 602 244C601.3 244 599.5 242.7 598 241C596.5 239.3 594.7 238 594 238C593.4 238 590.7 235.8 588 233C585.3 230.2 582.6 228 582 228C581.3 228 579.5 226.7 578 225C576.5 223.4 574.7 222 574 222C573.4 222 570.7 219.8 568 217C565.3 214.2 562.6 212 562 212C561.4 212 559.1 210.2 557 208C554.9 205.8 552.6 204 552 204C551.3 204 549.5 202.7 548 201C546.5 199.4 544.7 198 544 198C543.3 198 541.5 196.7 540 195C538.5 193.4 536.7 192 536 192C535.4 192 532.7 189.8 530 187C527.3 184.3 524.6 182 524 182C523.3 182 521.5 180.7 520 179C518.5 177.4 516.7 176 516 176C515.3 176 513.5 174.7 512 173C510.5 171.4 508.7 170 508 170C507.4 170 504.7 167.8 502 165C499.3 162.3 496.6 160 496 160C495.4 160 492.7 157.8 490 155C487.3 152.3 484.4 150 483.6 150C482.7 150 482 149.6 482 149C482 146.8 478.6 148.2 475 152C472.9 154.2 470.6 156 470 156C469.4 156 467.1 157.8 465 160C462.9 162.2 460.6 164 460 164C459.4 164 457.1 165.8 455 168C452.9 170.2 450.6 172 450 172C449.4 172 447.1 173.8 445 176C442.9 178.2 440.6 180 440 180C439.4 180 437.1 181.8 435 184C432.9 186.2 430.6 188 430 188C429.4 188 427.1 189.8 425 192C422.9 194.2 420.6 196 420 196C419.3 196 417.5 197.4 416 199C414.5 200.7 412.7 202 412 202C411.4 202 409.1 203.8 407 206C404.9 208.2 402.6 210 402 210C401.4 210 398.7 212.3 396 215C393.3 217.8 390.6 220 390 220C389.4 220 387.1 221.8 385 224C382.9 226.2 380.6 228 380 228C379.3 228 377.5 229.4 376 231C374.5 232.7 372.7 234 372 234C371.4 234 369.1 235.8 367 238C364.9 240.2 362.6 242 362 242C361.4 242 359.1 243.8 357 246C354.9 248.2 352.6 250 352 250C351.3 250 349.5 251.4 348 253C346.5 254.7 344.7 256 344 256C343.4 256 340.7 258.3 338 261C335.3 263.8 332.6 266 332 266C331.4 266 329.1 267.8 327 270C324.9 272.2 322.6 274 322 274C321.4 274 319.1 275.8 317 278C314.9 280.2 312.6 282 312 282C311.4 282 309.1 283.8 307 286C304.9 288.2 302.6 290 302 290C301.3 290 299.5 291.4 298 293C296.5 294.7 294.7 296 294 296C293.4 296 291.1 297.8 289 300C286.9 302.2 284.6 304 284 304C283.4 304 280.7 306.3 278 309C275.3 311.8 272.6 314 272 314C271.3 314 269.5 315.4 268 317C266.5 318.7 264.7 320 264 320C263.4 320 260.7 322.3 258 325C255.3 327.8 252.6 330 252 330C251.3 330 249.5 331.4 248 333C246.5 334.7 244.7 336 244 336C243.4 336 241.1 337.8 239 340C236.9 342.2 234.6 344 234 344C233.4 344 231.1 345.8 229 348C226.9 350.2 224.6 352 224 352C223.4 352 221.1 353.8 219 356C216.9 358.2 214.6 360 214 360C213.4 360 211.1 361.8 209 364C206.9 366.2 204.6 368 204 368C203.4 368 201.1 369.8 199 372C196.9 374.2 194.6 376 194 376C193.4 376 191.1 377.8 189 380C186.9 382.2 184.6 384 184 384C183.4 384 181.1 385.8 179 388C176.9 390.2 174.6 392 174 392C173.4 392 171.1 393.8 169 396C166.9 398.2 164.6 400 164 400C163.4 400 161.1 401.8 159 404C156.9 406.2 154.6 408 154 408C153.4 408 151.1 409.8 149 412C146.9 414.2 144.6 416 144 416C143.4 416 140.2 418.7 137 422C133.8 425.3 130.6 428 130 428C129.3 428 127.5 429.4 126 431C124.5 432.7 122.7 434 122 434C121.4 434 119.1 435.8 117 438C114.9 440.2 112.4 442 111.6 442C110.7 442 110 442.5 110 443C110 443.6 109.2 444 108.2 444C107.2 444 105.8 444.9 105 446C104.2 447.1 102.9 448 102 448C101.1 448 99.8 448.9 99 450C98.2 451.2 96.4 452 94.8 452C93.3 452 92 452.5 92 453C92 453.6 91.1 454 90 454C88.9 454 88 454.5 88 455C88 455.6 86.2 456 84 456C81.8 456 80 456.5 80 457C80 457.6 75 458 67 458C59 458 54 457.6 54 457Z" fill="#F8AC45"/>
<path d="M474 765C474 764.5 473.1 764 472 764C470.9 764 470 763.6 470 763C470 762.5 469.1 762 468 762C466.9 762 466 761.6 466 761C466 760.5 465.2 760 464.2 760C463.2 760 461.8 759.1 461 758C460.2 756.9 458.9 756 458 756C457.1 756 455.8 755.1 455 754C454.2 752.9 452.9 752 452.2 752C451.4 752 449.5 750.7 448 749C446.5 747.4 444.7 746 444 746C443.4 746 441.1 744.2 439 742C436.9 739.8 434.6 738 434 738C433.4 738 431.1 736.2 429 734C426.9 731.8 424.6 730 424 730C423.4 730 420.2 727.3 417 724C413.8 720.7 410.6 718 410 718C409.4 718 405.8 714.9 402 711C398.2 707.2 394.6 704 394 704C393.4 704 389.4 700.4 385 696C380.6 691.6 376.6 688 376 688C374.7 688 318 631.3 318 629.9C318 629.4 315.3 626.2 312 623C308.7 619.8 306 616.6 306 616C306 615.3 304.7 613.5 303 612C301.4 610.5 300 608.6 300 607.8C300 607.1 299.1 605.8 298 605C296.9 604.2 296 602.9 296 602C296 601.1 295.1 599.8 294 599C292.9 598.2 292 596.8 292 595.8C292 594.8 291.6 594 291 594C290.5 594 290 593.1 290 592C290 590.9 289.6 590 289 590C288.5 590 288 589.2 288 588.2C288 587.2 287.1 585.8 286 585C284.8 584.2 284 582.4 284 580.8C284 579.3 283.6 578 283 578C282.5 578 282 577.1 282 576C282 574.9 281.6 574 281 574C280.5 574 280 572.7 280 571C280 569.4 279.6 568 279 568C278.5 568 278 566.2 278 564C278 561.8 277.6 560 277 560C276.5 560 276 558.7 276 557C276 555.4 275.6 554 275 554C274.4 554 274 547 274 535C274 523 274.4 516 275 516C275.6 516 276 514.7 276 513C276 511.4 276.5 510 277 510C277.6 510 278 508.2 278 506C278 503.8 278.5 502 279 502C279.6 502 280 500.7 280 499C280 497.4 280.5 496 281 496C281.6 496 282 494.7 282 493C282 491.4 282.5 490 283 490C283.6 490 284 488.7 284 487C284 485.4 284.5 484 285 484C285.6 484 286 483.2 286 482.2C286 481.2 286.9 479.8 288 479C289.1 478.2 290 476.8 290 475.8C290 474.8 290.5 474 291 474C291.6 474 292 473.3 292 472.4C292 471.5 293.3 469.5 295 468C296.6 466.5 298 464.7 298 464.1C298 462.5 320.7 440 322.3 440C323 440 324.2 439.1 325 438C325.8 436.9 327.1 436 328 436C328.9 436 330.2 435.1 331 434C331.8 432.9 333.2 432 334.2 432C335.2 432 336 431.6 336 431C336 430.5 336.9 430 338 430C339.1 430 340 429.6 340 429C340 428.5 340.9 428 342 428C343.1 428 344 427.6 344 427C344 426.5 344.9 426 346 426C347.1 426 348 425.6 348 425C348 424.5 348.9 424 350 424C351.1 424 352 423.6 352 423C352 422.5 353.4 422 355 422C356.7 422 358 421.6 358 421C358 420.5 359.4 420 361 420C362.7 420 364 419.6 364 419C364 418.5 366.3 418 369 418C371.8 418 374 417.6 374 417C374 416.4 380.3 416 391 416C401.7 416 408 416.4 408 417C408 417.6 409.8 418 412 418C414.2 418 416 418.5 416 419C416 419.6 417.4 420 419 420C420.7 420 422 420.5 422 421C422 421.6 423.4 422 425 422C426.7 422 428 422.5 428 423C428 423.6 428.9 424 430 424C431.1 424 432 424.5 432 425C432 425.6 432.9 426 434 426C435.1 426 436 426.5 436 427C436 427.6 436.9 428 438 428C439.1 428 440 428.5 440 429C440 429.6 440.8 430 441.8 430C442.8 430 444.2 430.9 445 432C445.8 433.1 447.1 434 448 434C448.9 434 450.2 434.9 451 436C451.8 437.1 453 438 453.7 438C455.3 438 476 458.5 476 460C476 460.6 477.1 462.2 478.5 463.6L481 466.1L483.5 463.6C484.9 462.2 486 460.6 486 460C486 458.6 506.7 438 508.1 438C508.7 438 510.5 436.7 512 435C513.5 433.4 515.5 432 516.4 432C517.3 432 518 431.6 518 431C518 430.5 518.8 430 519.8 430C520.8 430 522.2 429.1 523 428C523.8 426.9 525.2 426 526.2 426C527.2 426 528 425.6 528 425C528 424.5 528.9 424 530 424C531.1 424 532 423.6 532 423C532 422.5 533.4 422 535 422C536.7 422 538 421.6 538 421C538 420.5 539.4 420 541 420C542.7 420 544 419.6 544 419C544 418.5 545.8 418 548 418C550.2 418 552 417.6 552 417C552 416.4 558.7 416 570 416C581.3 416 588 416.4 588 417C588 417.6 590.3 418 593 418C595.8 418 598 418.5 598 419C598 419.6 599.4 420 601 420C602.7 420 604 420.5 604 421C604 421.6 604.9 422 606 422C607.1 422 608 422.5 608 423C608 423.6 609.4 424 611 424C612.7 424 614 424.5 614 425C614 425.6 614.9 426 616 426C617.1 426 618 426.5 618 427C618 427.6 618.9 428 620 428C621.1 428 622 428.5 622 429C622 429.6 622.8 430 623.8 430C624.8 430 626.2 430.9 627 432C627.8 433.1 629.1 434 630 434C630.9 434 632.2 434.9 633 436C633.8 437.1 635.1 438 635.8 438C636.5 438 638.9 439.8 641 442C643.1 444.2 645.3 446 645.9 446C647.4 446 656 454.6 656 456.1C656 456.7 657.8 458.9 660 461C662.2 463.1 664 465.5 664 466.2C664 466.9 664.9 468.2 666 469C667.1 469.8 668 471.1 668 472C668 472.9 668.9 474.2 670 475C671.1 475.8 672 477.2 672 478.2C672 479.2 672.5 480 673 480C673.6 480 674 480.9 674 482C674 483.1 674.5 484 675 484C675.6 484 676 484.9 676 486C676 487.1 676.5 488 677 488C677.6 488 678 488.9 678 490C678 491.1 678.5 492 679 492C679.6 492 680 493.4 680 495C680 496.7 680.5 498 681 498C681.6 498 682 499.8 682 502C682 504.2 682.5 506 683 506C683.6 506 684 507.4 684 509C684 510.7 684.5 512 685 512C685.6 512 686 519.7 686 533C686 546.3 685.6 554 685 554C684.5 554 684 555.8 684 558C684 560.2 683.6 562 683 562C682.5 562 682 563.4 682 565C682 566.7 681.6 568 681 568C680.5 568 680 569.4 680 571C680 572.7 679.6 574 679 574C678.5 574 678 574.9 678 576C678 577.1 677.6 578 677 578C676.5 578 676 579.4 676 581C676 582.7 675.6 584 675 584C674.5 584 674 584.9 674 586C674 587.1 673.6 588 673 588C672.5 588 672 588.8 672 589.8C672 590.8 671.1 592.2 670 593C668.9 593.8 668 595.1 668 596C668 596.9 667.1 598.2 666 599C664.9 599.8 664 601.1 664 602C664 602.9 663.1 604.2 662 605C660.9 605.8 660 607.1 660 607.8C660 608.6 658.7 610.5 657 612C655.3 613.5 654 615.3 654 616C654 616.6 651.8 619.3 649 622C646.3 624.7 644 627.4 644 627.9C644 629.3 585.3 688 583.9 688C583.4 688 580.2 690.7 577 694C573.8 697.3 570.6 700 570 700C569.4 700 566.2 702.7 563 706C559.8 709.3 556.6 712 556 712C555.4 712 552.2 714.7 549 718C545.8 721.3 542.6 724 542 724C541.4 724 539.1 725.8 537 728C534.9 730.2 532.6 732 532 732C531.4 732 528.7 734.3 526 737C523.3 739.8 520.6 742 520 742C519.4 742 517.1 743.8 515 746C512.9 748.2 510.6 750 510 750C509.3 750 507.5 751.4 506 753C504.5 754.7 502.6 756 501.8 756C501.1 756 499.8 756.9 499 758C498.2 759.1 496.8 760 495.8 760C494.8 760 494 760.5 494 761C494 761.6 493.1 762 492 762C490.9 762 490 762.5 490 763C490 763.6 489.1 764 488 764C486.9 764 486 764.5 486 765C486 765.6 483.3 766 480 766C476.7 766 474 765.6 474 765Z" fill="#FB7337"/>
<path d="M70 917C70 916.5 69.1 916 68 916C66.9 916 66 915.6 66 915C66 914.5 65.3 914 64.5 914C61.9 914 52 903.3 52 900.5C52 899.1 51.6 898 51 898C50.4 898 50 894 50 888C50 882 50.4 878 51 878C51.6 878 52 877.1 52 876C52 874.9 52.5 874 53 874C53.6 874 54 873.3 54 872.5C54 870.5 62.5 862 64.5 862C65.3 862 66 861.6 66 861C66 860.5 66.9 860 68 860C69.1 860 70 859.6 70 859C70 858.3 207.3 858 480 858C752.7 858 890 858.3 890 859C890 859.6 891.1 860 892.5 860C895.3 860 908 871.8 908 874.5C908 875.3 908.5 876 909 876C909.6 876 910 880.3 910 887C910 893.7 909.6 898 909 898C908.5 898 908 898.9 908 900C908 901.1 907.6 902 907 902C906.5 902 906 902.7 906 903.5C906 905.5 897.5 914 895.5 914C894.7 914 894 914.5 894 915C894 915.6 893.1 916 892 916C890.9 916 890 916.5 890 917C890 917.7 752.7 918 480 918C207.3 918 70 917.7 70 917Z" fill="#77C075"/>
</g>
<defs>
<clipPath id="clip0_2858_8499">
<rect width="960" height="918" fill="white"/>
</clipPath>
</defs>
</svg>
